<?xml version="1.0" standalone="no"?><!DOCTYPE svg PUBLIC "-//W3C//DTD SVG 1.1//EN" "http://www.w3.org/Graphics/SVG/1.1/DTD/svg11.dtd" ><svg version="1.1" xmlns="http://www.w3.org/2000/svg"><defs><font horiz-adv-x="0" id="font"><font-face ascent="832" bbox="-188 -247 1222 881" cap-height="678" descent="-168" font-family="Gustan" font-stretch="normal" font-style="normal" font-weight="600" units-per-em="1000" x-height="510" /><missing-glyph d="M90 780H870V0H90ZM201 66H759L480 345ZM480 435 759 714H201ZM160 665V115L435 390ZM800 115V665L525 390Z" horiz-adv-x="960" /><glyph glyph-name=".null" horiz-adv-x="0" /><glyph d="M464 167H170L113 0H19L260 678H374L616 0H522ZM195 238H439L353 490Q341 526 333.5 550Q326 574 318 600H316Q308 574 300.5 550Q293 526 281 490Z" glyph-name="A" horiz-adv-x="635" unicode="A" /><glyph d="M913 0H496V167H180L53 0H-61L461 678H905V607H587V381H863V310H587V71H913ZM231 238H495V594H493Q486 584 474.5 567Q463 550 450 531Q437 512 423.5 493.5Q410 475 400 462Z" glyph-name="AE" horiz-adv-x="951" unicode="&#198;" /><glyph d="M464 167H170L113 0H19L260 678H374L616 0H522ZM195 238H439L353 490Q341 526 333.5 550Q326 574 318 600H316Q308 574 300.5 550Q293 526 281 490ZM359 734H282L390 846H499Z" glyph-name="Aacute" horiz-adv-x="635" unicode="&#193;" /><glyph d="M464 167H170L113 0H19L260 678H374L616 0H522ZM316 600Q308 574 300.5 550Q293 526 281 490L195 238H439L353 490Q341 526 333.5 550Q326 574 318 600ZM317 786Q332 786 348 788.5Q364 791 377.5 798Q391 805 401 816.5Q411 828 414 846H485Q475 783 430 755.5Q385 728 317 728Q249 728 204 755.5Q159 783 149 846H220Q223 828 233 816.5Q243 805 256.5 798Q270 791 286 788.5Q302 786 317 786Z" glyph-name="Abreve" horiz-adv-x="635" unicode="&#258;" /><glyph d="M464 167H170L113 0H19L260 678H374L616 0H522ZM195 238H439L353 490Q341 526 333.5 550Q326 574 318 600H316Q308 574 300.5 550Q293 526 281 490ZM466 734H385L317 804L249 734H168L278 850H357Z" glyph-name="Acircumflex" horiz-adv-x="635" unicode="&#194;" /><glyph d="M464 167H170L113 0H19L260 678H374L616 0H522ZM316 600Q308 574 300.5 550Q293 526 281 490L195 238H439L353 490Q341 526 333.5 550Q326 574 318 600ZM266 755H177V841H266ZM456 755H367V841H456Z" glyph-name="Adieresis" horiz-adv-x="635" unicode="&#196;" /><glyph d="M464 167H170L113 0H19L260 678H374L616 0H522ZM195 238H439L353 490Q341 526 333.5 550Q326 574 318 600H316Q308 574 300.5 550Q293 526 281 490ZM140 846H249L357 734H280Z" glyph-name="Agrave" horiz-adv-x="635" unicode="&#192;" /><glyph d="M464 167H170L113 0H19L260 678H374L616 0H522ZM316 600Q308 574 300.5 550Q293 526 281 490L195 238H439L353 490Q341 526 333.5 550Q326 574 318 600ZM483 767H152V835H483Z" glyph-name="Amacron" horiz-adv-x="635" unicode="&#256;" /><glyph d="M464 167H170L113 0H19L260 678H374L616 0H522ZM316 600Q308 574 300.5 550Q293 526 281 490L195 238H439L353 490Q341 526 333.5 550Q326 574 318 600ZM616 0Q591 -14 576 -37Q561 -60 561 -80Q561 -96 571 -107Q581 -118 605 -118Q619 -118 635 -116Q651 -114 668 -109V-164Q653 -170 631.5 -172Q610 -174 593 -174Q535 -174 510.5 -151Q486 -128 486 -93Q486 -65 504 -39.5Q522 -14 544 0Z" glyph-name="Aogonek" horiz-adv-x="635" unicode="&#260;" /><glyph d="M464 167H170L113 0H19L260 678H374L616 0H522ZM316 600Q308 574 300.5 550Q293 526 281 490L195 238H439L353 490Q341 526 333.5 550Q326 574 318 600ZM407 808Q407 769 384 752Q361 735 318 735Q275 735 251.5 752Q228 769 228 808Q228 847 251.5 864Q275 881 318 881Q361 881 384 864Q407 847 407 808ZM354 808Q354 841 318 841Q281 841 281 808Q281 776 318 776Q354 776 354 808Z" glyph-name="Aring" horiz-adv-x="635" unicode="&#197;" /><glyph d="M464 167H170L113 0H19L260 678H374L616 0H522ZM195 238H439L353 490Q341 526 333.5 550Q326 574 318 600H316Q308 574 300.5 550Q293 526 281 490ZM392 824Q414 824 439 835Q464 846 484 860V794Q469 783 443 771Q417 759 393 759Q374 759 354.5 764Q335 769 316.5 775.5Q298 782 279.5 787Q261 792 243 792Q221 792 196 781Q171 770 151 756V822Q166 833 192 845.5Q218 858 242 858Q261 858 280 852.5Q299 847 317.5 841Q336 835 354.5 829.5Q373 824 392 824Z" glyph-name="Atilde" horiz-adv-x="635" unicode="&#195;" /><glyph d="M337 71Q375 71 402.5 77.5Q430 84 451 105Q465 119 470.5 140.5Q476 162 476 192Q476 222 470.5 242Q465 262 451 276Q430 298 402.5 304Q375 310 337 310H181V71ZM324 381Q360 381 386 387Q412 393 432 413Q456 437 456 495Q456 551 432 575Q412 595 386 601Q360 607 324 607H181V381ZM90 0V678H319Q381 678 428.5 669Q476 660 508 628Q528 608 539.5 577.5Q551 547 551 505Q551 472 544 447.5Q537 423 525 404.5Q513 386 497 373.5Q481 361 464 352V350Q483 343 502 329.5Q521 316 536.5 296Q552 276 561.5 249Q571 222 571 188Q571 143 558 109Q545 75 524 54Q489 20 437.5 10Q386 0 319 0Z" glyph-name="B" horiz-adv-x="617" unicode="B" /><glyph d="M56 337Q56 435 75 502.5Q94 570 130 611.5Q166 653 219 671.5Q272 690 341 690Q373 690 414.5 686Q456 682 505 667V592Q463 606 425 610.5Q387 615 358 615Q308 615 269.5 603Q231 591 205 559.5Q179 528 165 474.5Q151 421 151 339Q151 256 165 203Q179 150 205 120Q231 90 269.5 78.5Q308 67 358 67Q393 67 437 74Q481 81 518 95V16Q498 7 474 1.5Q450 -4 426 -7Q402 -10 379.5 -11Q357 -12 341 -12Q272 -12 219 6Q166 24 130 65Q94 106 75 172.5Q56 239 56 337Z" glyph-name="C" horiz-adv-x="554" unicode="C" /><glyph d="M56 337Q56 435 75 502.5Q94 570 130 611.5Q166 653 219 671.5Q272 690 341 690Q373 690 414.5 686Q456 682 505 667V592Q463 606 425 610.5Q387 615 358 615Q308 615 269.5 603Q231 591 205 559.5Q179 528 165 474.5Q151 421 151 339Q151 256 165 203Q179 150 205 120Q231 90 269.5 78.5Q308 67 358 67Q393 67 437 74Q481 81 518 95V16Q498 7 474 1.5Q450 -4 426 -7Q402 -10 379.5 -11Q357 -12 341 -12Q272 -12 219 6Q166 24 130 65Q94 106 75 172.5Q56 239 56 337ZM345 734H268L376 846H485Z" glyph-name="Cacute" horiz-adv-x="554" unicode="&#262;" /><glyph d="M56 337Q56 435 75 502.5Q94 570 130 611.5Q166 653 219 671.5Q272 690 341 690Q373 690 414.5 686Q456 682 505 667V592Q463 606 425 610.5Q387 615 358 615Q308 615 269.5 603Q231 591 205 559.5Q179 528 165 474.5Q151 421 151 339Q151 256 165 203Q179 150 205 120Q231 90 269.5 78.5Q308 67 358 67Q393 67 437 74Q481 81 518 95V16Q498 7 474 1.5Q450 -4 426 -7Q402 -10 379.5 -11Q357 -12 341 -12Q272 -12 219 6Q166 24 130 65Q94 106 75 172.5Q56 239 56 337ZM179 846H260L328 776L396 846H477L367 730H288Z" glyph-name="Ccaron" horiz-adv-x="554" unicode="&#268;" /><glyph d="M300 -10Q241 -6 195.5 15.5Q150 37 119 78Q88 119 72 183Q56 247 56 337Q56 435 75 502.5Q94 570 130 611.5Q166 653 219 671.5Q272 690 341 690Q373 690 414.5 686Q456 682 505 667V592Q463 606 425 610.5Q387 615 358 615Q308 615 269.5 603Q231 591 205 559.5Q179 528 165 474.5Q151 421 151 339Q151 256 165 203Q179 150 205 120Q231 90 269.5 78.5Q308 67 358 67Q393 67 437 74Q481 81 518 95V16Q486 2 445.5 -3.5Q405 -9 372 -11L361 -37Q391 -45 406.5 -59.5Q422 -74 422 -100Q422 -138 387.5 -156Q353 -174 298 -174Q287 -174 267.5 -172Q248 -170 225 -164V-110Q242 -115 260 -116.5Q278 -118 290 -118Q319 -118 331.5 -112.5Q344 -107 344 -94Q344 -81 326.5 -75.5Q309 -70 291 -68L285 -44Z" glyph-name="Ccedilla" horiz-adv-x="554" unicode="&#199;" /><glyph d="M56 337Q56 435 75 502.5Q94 570 130 611.5Q166 653 219 671.5Q272 690 341 690Q373 690 414.5 686Q456 682 505 667V592Q463 606 425 610.5Q387 615 358 615Q308 615 269.5 603Q231 591 205 559.5Q179 528 165 474.5Q151 421 151 339Q151 256 165 203Q179 150 205 120Q231 90 269.5 78.5Q308 67 358 67Q393 67 437 74Q481 81 518 95V16Q498 7 474 1.5Q450 -4 426 -7Q402 -10 379.5 -11Q357 -12 341 -12Q272 -12 219 6Q166 24 130 65Q94 106 75 172.5Q56 239 56 337ZM474 734H393L325 804L257 734H176L286 850H365Z" glyph-name="Ccircumflex" horiz-adv-x="554" unicode="&#264;" /><glyph d="M56 337Q56 435 75 502.5Q94 570 130 611.5Q166 653 219 671.5Q272 690 341 690Q373 690 414.5 686Q456 682 505 667V592Q463 606 425 610.5Q387 615 358 615Q308 615 269.5 603Q231 591 205 559.5Q179 528 165 474.5Q151 421 151 339Q151 256 165 203Q179 150 205 120Q231 90 269.5 78.5Q308 67 358 67Q393 67 437 74Q481 81 518 95V16Q498 7 474 1.5Q450 -4 426 -7Q402 -10 379.5 -11Q357 -12 341 -12Q272 -12 219 6Q166 24 130 65Q94 106 75 172.5Q56 239 56 337ZM371 755H279V844H371Z" glyph-name="Cdotaccent" horiz-adv-x="554" unicode="&#266;" /><glyph d="M517 339Q517 424 501.5 479.5Q486 535 456 565Q432 589 400.5 598Q369 607 328 607H181V71H328Q369 71 400.5 80Q432 89 456 113Q486 143 501.5 198.5Q517 254 517 339ZM612 339Q612 242 591 175.5Q570 109 528 67Q492 31 445.5 15.5Q399 0 330 0H90V678H330Q399 678 445.5 662.5Q492 647 528 611Q570 569 591 502.5Q612 436 612 339Z" glyph-name="D" horiz-adv-x="668" unicode="D" /><glyph d="M517 339Q517 424 501.5 479.5Q486 535 456 565Q432 589 400.5 598Q369 607 328 607H181V71H328Q369 71 400.5 80Q432 89 456 113Q486 143 501.5 198.5Q517 254 517 339ZM612 339Q612 242 591 175.5Q570 109 528 67Q492 31 445.5 15.5Q399 0 330 0H90V678H330Q399 678 445.5 662.5Q492 647 528 611Q570 569 591 502.5Q612 436 612 339ZM160 846H241L309 776L377 846H458L348 730H269Z" glyph-name="Dcaron" horiz-adv-x="668" unicode="&#270;" /><glyph d="M643 339Q643 242 622 175.5Q601 109 559 67Q523 31 476.5 15.5Q430 0 361 0H121V310H20V381H121V678H361Q430 678 476.5 662.5Q523 647 559 611Q601 569 622 502.5Q643 436 643 339ZM396 310H212V71H359Q400 71 431.5 80Q463 89 487 113Q517 143 532.5 198.5Q548 254 548 339Q548 424 532.5 479.5Q517 535 487 565Q463 589 431.5 598Q400 607 359 607H212V381H396Z" glyph-name="Dcroat" horiz-adv-x="699" unicode="&#272;" /><glyph d="M724 0H52L50 54L347 684H428L726 54ZM535 67Q560 67 591 66.5Q622 66 639 65V66L436 494Q424 520 411.5 552Q399 584 390 606H388Q379 584 365 552Q351 520 339 494L137 66V65Q154 66 185 66.5Q216 67 241 67Z" glyph-name="Delta" horiz-adv-x="776" unicode="&#8710;" /><glyph d="M507 0H90V678H499V607H181V381H457V310H181V71H507Z" glyph-name="E" horiz-adv-x="545" unicode="E" /><glyph d="M507 0H90V678H499V607H181V381H457V310H181V71H507ZM331 734H254L362 846H471Z" glyph-name="Eacute" horiz-adv-x="545" unicode="&#201;" /><glyph d="M507 0H90V678H499V607H181V381H457V310H181V71H507ZM299 786Q314 786 330 788.5Q346 791 359.5 798Q373 805 383 816.5Q393 828 396 846H467Q457 783 412 755.5Q367 728 299 728Q231 728 186 755.5Q141 783 131 846H202Q205 828 215 816.5Q225 805 238.5 798Q252 791 268 788.5Q284 786 299 786Z" glyph-name="Ebreve" horiz-adv-x="545" unicode="&#276;" /><glyph d="M507 0H90V678H499V607H181V381H457V310H181V71H507ZM150 846H231L299 776L367 846H448L338 730H259Z" glyph-name="Ecaron" horiz-adv-x="545" unicode="&#282;" /><glyph d="M507 0H90V678H499V607H181V381H457V310H181V71H507ZM447 734H366L298 804L230 734H149L259 850H338Z" glyph-name="Ecircumflex" horiz-adv-x="545" unicode="&#202;" /><glyph d="M507 0H90V678H499V607H181V381H457V310H181V71H507ZM248 755H159V841H248ZM438 755H349V841H438Z" glyph-name="Edieresis" horiz-adv-x="545" unicode="&#203;" /><glyph d="M507 0H90V678H499V607H181V381H457V310H181V71H507ZM345 755H253V844H345Z" glyph-name="Edotaccent" horiz-adv-x="545" unicode="&#278;" /><glyph d="M507 0H90V678H499V607H181V381H457V310H181V71H507ZM149 846H258L366 734H289Z" glyph-name="Egrave" horiz-adv-x="545" unicode="&#200;" /><glyph d="M507 0H90V678H499V607H181V381H457V310H181V71H507ZM464 767H133V835H464Z" glyph-name="Emacron" horiz-adv-x="545" unicode="&#274;" /><glyph d="M447 -168Q473 -127 490 -87.5Q507 -48 519 5L258 409Q247 426 237.5 441Q228 456 219 471Q210 486 200 502.5Q190 519 178 539H175Q176 499 176.5 452Q177 405 177.5 357.5Q178 310 178 264.5Q178 219 178 182V0H90V678H187L451 269Q462 252 471.5 237Q481 222 490 207Q499 192 509 175.5Q519 159 531 139H534Q533 179 532.5 226Q532 273 531.5 320.5Q531 368 531 413Q531 458 531 496V678H619V128Q619 81 614.5 41.5Q610 2 600 -33.5Q590 -69 574 -102Q558 -135 536 -168Z" glyph-name="Eng" horiz-adv-x="709" unicode="&#330;" /><glyph d="M90 0V678H499V607H181V381H457V310H181V71H507V0Q482 -14 467 -37Q452 -60 452 -80Q452 -96 462 -107Q472 -118 496 -118Q510 -118 526 -116Q542 -114 559 -109V-164Q544 -170 522.5 -172Q501 -174 484 -174Q426 -174 401.5 -151Q377 -128 377 -93Q377 -65 395 -39.5Q413 -14 435 0Z" glyph-name="Eogonek" horiz-adv-x="545" unicode="&#280;" /><glyph d="M643 339Q643 242 622 175.5Q601 109 559 67Q523 31 476.5 15.5Q430 0 361 0H121V310H20V381H121V678H361Q430 678 476.5 662.5Q523 647 559 611Q601 569 622 502.5Q643 436 643 339ZM396 310H212V71H359Q400 71 431.5 80Q463 89 487 113Q517 143 532.5 198.5Q548 254 548 339Q548 424 532.5 479.5Q517 535 487 565Q463 589 431.5 598Q400 607 359 607H212V381H396Z" glyph-name="Eth" horiz-adv-x="699" unicode="&#208;" /><glyph d="M89 318H139V371H72L98 433H144Q152 503 172.5 552Q193 601 225.5 632Q258 663 301 676.5Q344 690 397 690Q426 690 460.5 686Q495 682 538 667V592Q502 606 470.5 610.5Q439 615 414 615Q379 615 349.5 606.5Q320 598 298 577Q276 556 261 521Q246 486 239 433H483L456 371H234V318H437L411 256H238Q244 199 258.5 162.5Q273 126 295.5 105Q318 84 348 75.5Q378 67 414 67Q445 67 482 74Q519 81 551 95V16Q534 7 513 1.5Q492 -4 471 -7Q450 -10 430.5 -11Q411 -12 397 -12Q343 -12 299 2Q255 16 222.5 47.5Q190 79 169.5 130.5Q149 182 142 256H63Z" glyph-name="Euro" horiz-adv-x="660" unicode="&#8364;" /><glyph d="M90 0V678H507V607H181V381H457V310H181V0Z" glyph-name="F" horiz-adv-x="515" unicode="F" /><glyph d="M328 381H587V37Q529 8 471 -2.5Q413 -13 358 -13Q285 -13 229 5Q173 23 134.5 64.5Q96 106 76 172.5Q56 239 56 336Q56 438 77 506Q98 574 138 615Q178 656 236 673Q294 690 369 690Q384 690 405 689Q426 688 450 685.5Q474 683 499 678.5Q524 674 548 667V592Q504 603 460 609Q416 615 384 615Q327 615 283 604Q239 593 210 562.5Q181 532 166 477.5Q151 423 151 336Q151 252 167 198.5Q183 145 210.5 115Q238 85 274.5 73.5Q311 62 351 62Q385 62 420 65Q455 68 496 82V310H328Z" glyph-name="G" horiz-adv-x="665" unicode="G" /><glyph d="M328 381H587V37Q529 8 471 -2.5Q413 -13 358 -13Q285 -13 229 5Q173 23 134.5 64.5Q96 106 76 172.5Q56 239 56 336Q56 438 77 506Q98 574 138 615Q178 656 236 673Q294 690 369 690Q384 690 405 689Q426 688 450 685.5Q474 683 499 678.5Q524 674 548 667V592Q504 603 460 609Q416 615 384 615Q327 615 283 604Q239 593 210 562.5Q181 532 166 477.5Q151 423 151 336Q151 252 167 198.5Q183 145 210.5 115Q238 85 274.5 73.5Q311 62 351 62Q385 62 420 65Q455 68 496 82V310H328ZM347 786Q362 786 378 788.5Q394 791 407.5 798Q421 805 431 816.5Q441 828 444 846H515Q505 783 460 755.5Q415 728 347 728Q279 728 234 755.5Q189 783 179 846H250Q253 828 263 816.5Q273 805 286.5 798Q300 791 316 788.5Q332 786 347 786Z" glyph-name="Gbreve" horiz-adv-x="665" unicode="&#286;" /><glyph d="M328 381H587V37Q529 8 471 -2.5Q413 -13 358 -13Q285 -13 229 5Q173 23 134.5 64.5Q96 106 76 172.5Q56 239 56 336Q56 438 77 506Q98 574 138 615Q178 656 236 673Q294 690 369 690Q384 690 405 689Q426 688 450 685.5Q474 683 499 678.5Q524 674 548 667V592Q504 603 460 609Q416 615 384 615Q327 615 283 604Q239 593 210 562.5Q181 532 166 477.5Q151 423 151 336Q151 252 167 198.5Q183 145 210.5 115Q238 85 274.5 73.5Q311 62 351 62Q385 62 420 65Q455 68 496 82V310H328ZM499 734H418L350 804L282 734H201L311 850H390Z" glyph-name="Gcircumflex" horiz-adv-x="665" unicode="&#284;" /><glyph d="M328 381H587V37Q529 8 471 -2.5Q413 -13 358 -13Q285 -13 229 5Q173 23 134.5 64.5Q96 106 76 172.5Q56 239 56 336Q56 438 77 506Q98 574 138 615Q178 656 236 673Q294 690 369 690Q384 690 405 689Q426 688 450 685.5Q474 683 499 678.5Q524 674 548 667V592Q504 603 460 609Q416 615 384 615Q327 615 283 604Q239 593 210 562.5Q181 532 166 477.5Q151 423 151 336Q151 252 167 198.5Q183 145 210.5 115Q238 85 274.5 73.5Q311 62 351 62Q385 62 420 65Q455 68 496 82V310H328ZM327 -76H419L345 -247H290Z" glyph-name="Gcommaaccent" horiz-adv-x="665" unicode="&#290;" /><glyph d="M328 381H587V37Q529 8 471 -2.5Q413 -13 358 -13Q285 -13 229 5Q173 23 134.5 64.5Q96 106 76 172.5Q56 239 56 336Q56 438 77 506Q98 574 138 615Q178 656 236 673Q294 690 369 690Q384 690 405 689Q426 688 450 685.5Q474 683 499 678.5Q524 674 548 667V592Q504 603 460 609Q416 615 384 615Q327 615 283 604Q239 593 210 562.5Q181 532 166 477.5Q151 423 151 336Q151 252 167 198.5Q183 145 210.5 115Q238 85 274.5 73.5Q311 62 351 62Q385 62 420 65Q455 68 496 82V310H328ZM394 755H302V844H394Z" glyph-name="Gdotaccent" horiz-adv-x="665" unicode="&#288;" /><glyph d="M602 0H511V310H181V0H90V678H181V381H511V678H602Z" glyph-name="H" horiz-adv-x="692" unicode="H" /><glyph d="M602 0H511V310H181V0H90V678H181V544H511V678H602ZM511 381V473H181V381Z" glyph-name="Hbar" horiz-adv-x="692" unicode="&#294;" /><glyph d="M602 0H511V310H181V0H90V678H181V381H511V678H602ZM495 734H414L346 804L278 734H197L307 850H386Z" glyph-name="Hcircumflex" horiz-adv-x="692" unicode="&#292;" /><glyph d="M181 0H90V678H181Z" glyph-name="I" horiz-adv-x="271" unicode="I" /><glyph d="M181 0H90V678H181ZM285 -118Q327 -52 346 16.5Q365 85 365 172V678H456V193Q456 143 452 101Q448 59 438 21.5Q428 -16 412.5 -50Q397 -84 373 -118Z" glyph-name="IJ" horiz-adv-x="546" unicode="&#306;" /><glyph d="M174 734H97L205 846H314ZM181 0H90V678H181Z" glyph-name="Iacute" horiz-adv-x="271" unicode="&#205;" /><glyph d="M135 786Q150 786 166 788.5Q182 791 195.5 798Q209 805 219 816.5Q229 828 232 846H303Q293 783 248 755.5Q203 728 135 728Q67 728 22 755.5Q-23 783 -33 846H38Q41 828 51 816.5Q61 805 74.5 798Q88 791 104 788.5Q120 786 135 786ZM181 0H90V678H181Z" glyph-name="Ibreve" horiz-adv-x="271" unicode="&#300;" /><glyph d="M284 734H203L135 804L67 734H-14L96 850H175ZM181 0H90V678H181Z" glyph-name="Icircumflex" horiz-adv-x="271" unicode="&#206;" /><glyph d="M85 755H-4V841H85ZM275 755H186V841H275ZM181 0H90V678H181Z" glyph-name="Idieresis" horiz-adv-x="271" unicode="&#207;" /><glyph d="M181 755H89V844H181ZM181 0H90V678H181Z" glyph-name="Idotaccent" horiz-adv-x="271" unicode="&#304;" /><glyph d="M-44 846H65L173 734H96ZM181 0H90V678H181Z" glyph-name="Igrave" horiz-adv-x="271" unicode="&#204;" /><glyph d="M301 767H-30V835H301ZM181 0H90V678H181Z" glyph-name="Imacron" horiz-adv-x="271" unicode="&#298;" /><glyph d="M181 0Q156 -14 141 -37Q126 -60 126 -80Q126 -96 136 -107Q146 -118 170 -118Q184 -118 200 -116Q216 -114 233 -109V-164Q218 -170 196.5 -172Q175 -174 158 -174Q100 -174 75.5 -151Q51 -128 51 -93Q51 -65 69 -39.5Q87 -14 109 0H90V678H181Z" glyph-name="Iogonek" horiz-adv-x="271" unicode="&#302;" /><glyph d="M181 0H90V678H181ZM210 824Q232 824 257 835Q282 846 302 860V794Q287 783 261 771Q235 759 211 759Q192 759 172.5 764Q153 769 134.5 775.5Q116 782 97.5 787Q79 792 61 792Q39 792 14 781Q-11 770 -31 756V822Q-16 833 10 845.5Q36 858 60 858Q79 858 98 852.5Q117 847 135.5 841Q154 835 172.5 829.5Q191 824 210 824Z" glyph-name="Itilde" horiz-adv-x="271" unicode="&#296;" /><glyph d="M14 -118Q56 -52 75 16.5Q94 85 94 172V678H185V193Q185 143 181 101Q177 59 167 21.5Q157 -16 141.5 -50Q126 -84 102 -118Z" glyph-name="J" horiz-adv-x="275" unicode="J" /><glyph d="M289 734H208L140 804L72 734H-9L101 850H180ZM14 -118Q56 -52 75 16.5Q94 85 94 172V678H185V193Q185 143 181 101Q177 59 167 21.5Q157 -16 141.5 -50Q126 -84 102 -118Z" glyph-name="Jcircumflex" horiz-adv-x="275" unicode="&#308;" /><glyph d="M603 0H497L281 310H181V0H90V678H181V381H280L474 678H574L359 350Z" glyph-name="K" horiz-adv-x="614" unicode="K" /><glyph d="M603 0H497L281 310H181V0H90V678H181V381H280L474 678H574L359 350ZM278 -76H370L296 -247H241Z" glyph-name="Kcommaaccent" horiz-adv-x="614" unicode="&#310;" /><glyph d="M501 0H90V678H181V71H501Z" glyph-name="L" horiz-adv-x="506" unicode="L" /><glyph d="M501 0H90V678H181V71H501ZM174 734H97L205 846H314Z" glyph-name="Lacute" horiz-adv-x="506" unicode="&#313;" /><glyph d="M501 0H90V678H181V71H501ZM396 678H488L414 507H359Z" glyph-name="Lcaron" horiz-adv-x="536" unicode="&#317;" /><glyph d="M501 0H90V678H181V71H501ZM261 -76H353L279 -247H224Z" glyph-name="Lcommaaccent" horiz-adv-x="506" unicode="&#315;" /><glyph d="M501 0H90V678H181V71H501ZM468 303H379V388H468Z" glyph-name="Ldot" horiz-adv-x="536" unicode="&#319;" /><glyph d="M521 0H110V235L5 168V249L110 316V678H201V375L395 500V418L201 294V71H521Z" glyph-name="Lslash" horiz-adv-x="526" unicode="&#321;" /><glyph d="M632 678H749V0H659V190Q659 280 661.5 379Q664 478 665 568H662Q643 525 627.5 489.5Q612 454 592 414L454 142H385L247 414Q227 454 211.5 489.5Q196 525 177 568H174Q175 478 177.5 379Q180 280 180 190V0H90V678H207L418 264H421Z" glyph-name="M" horiz-adv-x="839" unicode="M" /><glyph d="M451 269Q473 235 490.5 205Q508 175 531 134H534Q533 174 532.5 221Q532 268 531.5 315.5Q531 363 531 408Q531 453 531 491V678H619V0H522L258 409Q236 443 218.5 473Q201 503 178 544H175Q176 504 176.5 457Q177 410 177.5 362.5Q178 315 178 269.5Q178 224 178 187V0H90V678H187Z" glyph-name="N" horiz-adv-x="709" unicode="N" /><glyph d="M451 269Q473 235 490.5 205Q508 175 531 134H534Q533 174 532.5 221Q532 268 531.5 315.5Q531 363 531 408Q531 453 531 491V678H619V0H522L258 409Q236 443 218.5 473Q201 503 178 544H175Q176 504 176.5 457Q177 410 177.5 362.5Q178 315 178 269.5Q178 224 178 187V0H90V678H187ZM387 734H310L418 846H527Z" glyph-name="Nacute" horiz-adv-x="709" unicode="&#323;" /><glyph d="M451 269Q473 235 490.5 205Q508 175 531 134H534Q533 174 532.5 221Q532 268 531.5 315.5Q531 363 531 408Q531 453 531 491V678H619V0H522L258 409Q236 443 218.5 473Q201 503 178 544H175Q176 504 176.5 457Q177 410 177.5 362.5Q178 315 178 269.5Q178 224 178 187V0H90V678H187ZM204 846H285L353 776L421 846H502L392 730H313Z" glyph-name="Ncaron" horiz-adv-x="709" unicode="&#327;" /><glyph d="M451 269Q473 235 490.5 205Q508 175 531 134H534Q533 174 532.5 221Q532 268 531.5 315.5Q531 363 531 408Q531 453 531 491V678H619V0H522L258 409Q236 443 218.5 473Q201 503 178 544H175Q176 504 176.5 457Q177 410 177.5 362.5Q178 315 178 269.5Q178 224 178 187V0H90V678H187ZM304 -76H396L322 -247H267Z" glyph-name="Ncommaaccent" horiz-adv-x="709" unicode="&#325;" /><glyph d="M451 269Q473 235 490.5 205Q508 175 531 134H534Q533 174 532.5 221Q532 268 531.5 315.5Q531 363 531 408Q531 453 531 491V678H619V0H522L258 409Q236 443 218.5 473Q201 503 178 544H175Q176 504 176.5 457Q177 410 177.5 362.5Q178 315 178 269.5Q178 224 178 187V0H90V678H187ZM429 824Q451 824 476 835Q501 846 521 860V794Q506 783 480 771Q454 759 430 759Q411 759 391.5 764Q372 769 353.5 775.5Q335 782 316.5 787Q298 792 280 792Q258 792 233 781Q208 770 188 756V822Q203 833 229 845.5Q255 858 279 858Q298 858 317 852.5Q336 847 354.5 841Q373 835 391.5 829.5Q410 824 429 824Z" glyph-name="Ntilde" horiz-adv-x="709" unicode="&#209;" /><glyph d="M634 339Q634 257 620.5 192Q607 127 574 81.5Q541 36 485.5 12Q430 -12 345 -12Q260 -12 204.5 12Q149 36 116 81.5Q83 127 69.5 192Q56 257 56 339Q56 421 69.5 486Q83 551 116 596.5Q149 642 204.5 666Q260 690 345 690Q430 690 485.5 666Q541 642 574 596.5Q607 551 620.5 486Q634 421 634 339ZM151 339Q151 269 160 217Q169 165 191 131Q213 97 250.5 80Q288 63 345 63Q402 63 439.5 80Q477 97 499 131Q521 165 530 217Q539 269 539 339Q539 409 530 461Q521 513 499 547Q477 581 439.5 598Q402 615 345 615Q288 615 250.5 598Q213 581 191 547Q169 513 160 461Q151 409 151 339Z" glyph-name="O" horiz-adv-x="690" unicode="O" /><glyph d="M958 0H541V59H539Q511 24 465 6Q419 -12 345 -12Q260 -12 204.5 12Q149 36 116 81.5Q83 127 69.5 192Q56 257 56 339Q56 421 69.5 486Q83 551 116 596.5Q149 642 204.5 666Q260 690 345 690Q418 690 464.5 672Q511 654 539 620H541V678H950V607H632V381H908V310H632V71H958ZM151 339Q151 269 160 217Q169 165 191 131Q213 97 250.5 80Q288 63 345 63Q402 63 439.5 80Q477 97 499 131Q521 165 530 217Q539 269 539 339Q539 409 530 461Q521 513 499 547Q477 581 439.5 598Q402 615 345 615Q288 615 250.5 598Q213 581 191 547Q169 513 160 461Q151 409 151 339Z" glyph-name="OE" horiz-adv-x="996" unicode="&#338;" /><glyph d="M634 339Q634 257 620.5 192Q607 127 574 81.5Q541 36 485.5 12Q430 -12 345 -12Q260 -12 204.5 12Q149 36 116 81.5Q83 127 69.5 192Q56 257 56 339Q56 421 69.5 486Q83 551 116 596.5Q149 642 204.5 666Q260 690 345 690Q430 690 485.5 666Q541 642 574 596.5Q607 551 620.5 486Q634 421 634 339ZM151 339Q151 269 160 217Q169 165 191 131Q213 97 250.5 80Q288 63 345 63Q402 63 439.5 80Q477 97 499 131Q521 165 530 217Q539 269 539 339Q539 409 530 461Q521 513 499 547Q477 581 439.5 598Q402 615 345 615Q288 615 250.5 598Q213 581 191 547Q169 513 160 461Q151 409 151 339ZM378 734H301L409 846H518Z" glyph-name="Oacute" horiz-adv-x="690" unicode="&#211;" /><glyph d="M634 339Q634 257 620.5 192Q607 127 574 81.5Q541 36 485.5 12Q430 -12 345 -12Q260 -12 204.5 12Q149 36 116 81.5Q83 127 69.5 192Q56 257 56 339Q56 421 69.5 486Q83 551 116 596.5Q149 642 204.5 666Q260 690 345 690Q430 690 485.5 666Q541 642 574 596.5Q607 551 620.5 486Q634 421 634 339ZM151 339Q151 269 160 217Q169 165 191 131Q213 97 250.5 80Q288 63 345 63Q402 63 439.5 80Q477 97 499 131Q521 165 530 217Q539 269 539 339Q539 409 530 461Q521 513 499 547Q477 581 439.5 598Q402 615 345 615Q288 615 250.5 598Q213 581 191 547Q169 513 160 461Q151 409 151 339ZM345 786Q360 786 376 788.5Q392 791 405.5 798Q419 805 429 816.5Q439 828 442 846H513Q503 783 458 755.5Q413 728 345 728Q277 728 232 755.5Q187 783 177 846H248Q251 828 261 816.5Q271 805 284.5 798Q298 791 314 788.5Q330 786 345 786Z" glyph-name="Obreve" horiz-adv-x="690" unicode="&#334;" /><glyph d="M494 734H413L345 804L277 734H196L306 850H385ZM634 339Q634 257 620.5 192Q607 127 574 81.5Q541 36 485.5 12Q430 -12 345 -12Q260 -12 204.5 12Q149 36 116 81.5Q83 127 69.5 192Q56 257 56 339Q56 421 69.5 486Q83 551 116 596.5Q149 642 204.5 666Q260 690 345 690Q430 690 485.5 666Q541 642 574 596.5Q607 551 620.5 486Q634 421 634 339ZM151 339Q151 269 160 217Q169 165 191 131Q213 97 250.5 80Q288 63 345 63Q402 63 439.5 80Q477 97 499 131Q521 165 530 217Q539 269 539 339Q539 409 530 461Q521 513 499 547Q477 581 439.5 598Q402 615 345 615Q288 615 250.5 598Q213 581 191 547Q169 513 160 461Q151 409 151 339Z" glyph-name="Ocircumflex" horiz-adv-x="690" unicode="&#212;" /><glyph d="M295 755H206V841H295ZM485 755H396V841H485ZM634 339Q634 257 620.5 192Q607 127 574 81.5Q541 36 485.5 12Q430 -12 345 -12Q260 -12 204.5 12Q149 36 116 81.5Q83 127 69.5 192Q56 257 56 339Q56 421 69.5 486Q83 551 116 596.5Q149 642 204.5 666Q260 690 345 690Q430 690 485.5 666Q541 642 574 596.5Q607 551 620.5 486Q634 421 634 339ZM151 339Q151 269 160 217Q169 165 191 131Q213 97 250.5 80Q288 63 345 63Q402 63 439.5 80Q477 97 499 131Q521 165 530 217Q539 269 539 339Q539 409 530 461Q521 513 499 547Q477 581 439.5 598Q402 615 345 615Q288 615 250.5 598Q213 581 191 547Q169 513 160 461Q151 409 151 339Z" glyph-name="Odieresis" horiz-adv-x="690" unicode="&#214;" /><glyph d="M634 339Q634 257 620.5 192Q607 127 574 81.5Q541 36 485.5 12Q430 -12 345 -12Q260 -12 204.5 12Q149 36 116 81.5Q83 127 69.5 192Q56 257 56 339Q56 421 69.5 486Q83 551 116 596.5Q149 642 204.5 666Q260 690 345 690Q430 690 485.5 666Q541 642 574 596.5Q607 551 620.5 486Q634 421 634 339ZM151 339Q151 269 160 217Q169 165 191 131Q213 97 250.5 80Q288 63 345 63Q402 63 439.5 80Q477 97 499 131Q521 165 530 217Q539 269 539 339Q539 409 530 461Q521 513 499 547Q477 581 439.5 598Q402 615 345 615Q288 615 250.5 598Q213 581 191 547Q169 513 160 461Q151 409 151 339ZM167 846H276L384 734H307Z" glyph-name="Ograve" horiz-adv-x="690" unicode="&#210;" /><glyph d="M634 339Q634 257 620.5 192Q607 127 574 81.5Q541 36 485.5 12Q430 -12 345 -12Q260 -12 204.5 12Q149 36 116 81.5Q83 127 69.5 192Q56 257 56 339Q56 421 69.5 486Q83 551 116 596.5Q149 642 204.5 666Q260 690 345 690Q430 690 485.5 666Q541 642 574 596.5Q607 551 620.5 486Q634 421 634 339ZM151 339Q151 269 160 217Q169 165 191 131Q213 97 250.5 80Q288 63 345 63Q402 63 439.5 80Q477 97 499 131Q521 165 530 217Q539 269 539 339Q539 409 530 461Q521 513 499 547Q477 581 439.5 598Q402 615 345 615Q288 615 250.5 598Q213 581 191 547Q169 513 160 461Q151 409 151 339ZM297 734H233L341 846H437ZM437 734H373L481 846H577Z" glyph-name="Ohungarumlaut" horiz-adv-x="690" unicode="&#336;" /><glyph d="M634 339Q634 257 620.5 192Q607 127 574 81.5Q541 36 485.5 12Q430 -12 345 -12Q260 -12 204.5 12Q149 36 116 81.5Q83 127 69.5 192Q56 257 56 339Q56 421 69.5 486Q83 551 116 596.5Q149 642 204.5 666Q260 690 345 690Q430 690 485.5 666Q541 642 574 596.5Q607 551 620.5 486Q634 421 634 339ZM151 339Q151 269 160 217Q169 165 191 131Q213 97 250.5 80Q288 63 345 63Q402 63 439.5 80Q477 97 499 131Q521 165 530 217Q539 269 539 339Q539 409 530 461Q521 513 499 547Q477 581 439.5 598Q402 615 345 615Q288 615 250.5 598Q213 581 191 547Q169 513 160 461Q151 409 151 339ZM511 767H180V835H511Z" glyph-name="Omacron" horiz-adv-x="690" unicode="&#332;" /><glyph d="M495 661Q574 623 604 541Q634 459 634 339Q634 257 620.5 192Q607 127 574 81.5Q541 36 485.5 12Q430 -12 345 -12Q299 -12 265 -5L237 -86H161L196 16Q156 34 129.5 64.5Q103 95 86.5 136Q70 177 63 228Q56 279 56 339Q56 421 69.5 486Q83 551 116 596.5Q149 642 204.5 666Q260 690 345 690Q368 690 388 688Q408 686 426 683L454 762H530ZM151 339Q151 247 166.5 186.5Q182 126 223 95L401 610Q388 612 374.5 613.5Q361 615 345 615Q288 615 250.5 598Q213 581 191 547Q169 513 160 461Q151 409 151 339ZM539 339Q539 430 523.5 490Q508 550 467 581L290 67Q302 65 315.5 64Q329 63 345 63Q402 63 439.5 80Q477 97 499 131Q521 165 530 217Q539 269 539 339Z" glyph-name="Oslash" horiz-adv-x="690" unicode="&#216;" /><glyph d="M634 339Q634 257 620.5 192Q607 127 574 81.5Q541 36 485.5 12Q430 -12 345 -12Q260 -12 204.5 12Q149 36 116 81.5Q83 127 69.5 192Q56 257 56 339Q56 421 69.5 486Q83 551 116 596.5Q149 642 204.5 666Q260 690 345 690Q430 690 485.5 666Q541 642 574 596.5Q607 551 620.5 486Q634 421 634 339ZM151 339Q151 269 160 217Q169 165 191 131Q213 97 250.5 80Q288 63 345 63Q402 63 439.5 80Q477 97 499 131Q521 165 530 217Q539 269 539 339Q539 409 530 461Q521 513 499 547Q477 581 439.5 598Q402 615 345 615Q288 615 250.5 598Q213 581 191 547Q169 513 160 461Q151 409 151 339ZM420 824Q442 824 467 835Q492 846 512 860V794Q497 783 471 771Q445 759 421 759Q402 759 382.5 764Q363 769 344.5 775.5Q326 782 307.5 787Q289 792 271 792Q249 792 224 781Q199 770 179 756V822Q194 833 220 845.5Q246 858 270 858Q289 858 308 852.5Q327 847 345.5 841Q364 835 382.5 829.5Q401 824 420 824Z" glyph-name="Otilde" horiz-adv-x="690" unicode="&#213;" /><glyph d="M324 309Q370 309 396.5 314.5Q423 320 445 342Q462 359 469 388Q476 417 476 458Q476 499 467 528Q458 557 441 574Q430 585 419 591.5Q408 598 394.5 601.5Q381 605 364 606Q347 607 324 607H181V309ZM181 0H90V678H317Q392 678 439 666.5Q486 655 517 624Q571 570 571 458Q571 346 517 292Q486 261 439 249.5Q392 238 317 238H181Z" glyph-name="P" horiz-adv-x="601" unicode="P" /><glyph d="M634 339Q634 226 608 146.5Q582 67 514 26L645 -118H531L425 -5Q391 -12 345 -12Q260 -12 204.5 12Q149 36 116 81.5Q83 127 69.5 192Q56 257 56 339Q56 421 69.5 486Q83 551 116 596.5Q149 642 204.5 666Q260 690 345 690Q430 690 485.5 666Q541 642 574 596.5Q607 551 620.5 486Q634 421 634 339ZM151 339Q151 269 160 217Q169 165 191 131Q213 97 250.5 80Q288 63 345 63Q402 63 439.5 80Q477 97 499 131Q521 165 530 217Q539 269 539 339Q539 409 530 461Q521 513 499 547Q477 581 439.5 598Q402 615 345 615Q288 615 250.5 598Q213 581 191 547Q169 513 160 461Q151 409 151 339Z" glyph-name="Q" horiz-adv-x="690" unicode="Q" /><glyph d="M339 678Q408 678 450 667Q492 656 520 627Q571 576 571 476Q571 425 557 387.5Q543 350 518 325Q478 285 401 276L593 0H487L297 273H181V0H90V678ZM181 607V344H343Q383 344 404.5 350Q426 356 445 375Q476 404 476 476Q476 547 445 576Q426 595 404.5 601Q383 607 343 607Z" glyph-name="R" horiz-adv-x="624" unicode="R" /><glyph d="M339 678Q408 678 450 667Q492 656 520 627Q571 576 571 476Q571 425 557 387.5Q543 350 518 325Q478 285 401 276L593 0H487L297 273H181V0H90V678ZM181 607V344H343Q383 344 404.5 350Q426 356 445 375Q476 404 476 476Q476 547 445 576Q426 595 404.5 601Q383 607 343 607ZM324 734H247L355 846H464Z" glyph-name="Racute" horiz-adv-x="624" unicode="&#340;" /><glyph d="M339 678Q408 678 450 667Q492 656 520 627Q571 576 571 476Q571 425 557 387.5Q543 350 518 325Q478 285 401 276L593 0H487L297 273H181V0H90V678ZM181 607V344H343Q383 344 404.5 350Q426 356 445 375Q476 404 476 476Q476 547 445 576Q426 595 404.5 601Q383 607 343 607ZM159 846H240L308 776L376 846H457L347 730H268Z" glyph-name="Rcaron" horiz-adv-x="624" unicode="&#344;" /><glyph d="M339 678Q408 678 450 667Q492 656 520 627Q571 576 571 476Q571 425 557 387.5Q543 350 518 325Q478 285 401 276L593 0H487L297 273H181V0H90V678ZM181 607V344H343Q383 344 404.5 350Q426 356 445 375Q476 404 476 476Q476 547 445 576Q426 595 404.5 601Q383 607 343 607ZM275 -76H367L293 -247H238Z" glyph-name="Rcommaaccent" horiz-adv-x="624" unicode="&#342;" /><glyph d="M267 67Q363 67 404 100.5Q445 134 445 188Q445 228 432 251.5Q419 275 396.5 287Q374 299 342.5 302.5Q311 306 275 307Q231 308 192 317.5Q153 327 124 348.5Q95 370 78.5 406Q62 442 62 497Q62 554 83.5 591.5Q105 629 141 650.5Q177 672 223.5 681Q270 690 320 690Q332 690 352.5 689Q373 688 396 686Q419 684 443.5 679Q468 674 489 667V592Q441 608 395.5 611.5Q350 615 318 615Q241 615 199.5 586.5Q158 558 158 504Q158 465 171 444.5Q184 424 206 414Q228 404 258 401.5Q288 399 323 397Q364 394 403.5 386Q443 378 473.5 356.5Q504 335 522.5 297Q541 259 541 198Q541 136 517 95.5Q493 55 454 31Q415 7 365.5 -2.5Q316 -12 265 -12Q253 -12 228.5 -11Q204 -10 175.5 -7Q147 -4 118.5 1.5Q90 7 68 16V95Q92 86 120.5 80.5Q149 75 176 72Q203 69 227 68Q251 67 267 67Z" glyph-name="S" horiz-adv-x="582" unicode="S" /><glyph d="M267 67Q363 67 404 100.5Q445 134 445 188Q445 228 432 251.5Q419 275 396.5 287Q374 299 342.5 302.5Q311 306 275 307Q231 308 192 317.5Q153 327 124 348.5Q95 370 78.5 406Q62 442 62 497Q62 554 83.5 591.5Q105 629 141 650.5Q177 672 223.5 681Q270 690 320 690Q332 690 352.5 689Q373 688 396 686Q419 684 443.5 679Q468 674 489 667V592Q441 608 395.5 611.5Q350 615 318 615Q241 615 199.5 586.5Q158 558 158 504Q158 465 171 444.5Q184 424 206 414Q228 404 258 401.5Q288 399 323 397Q364 394 403.5 386Q443 378 473.5 356.5Q504 335 522.5 297Q541 259 541 198Q541 136 517 95.5Q493 55 454 31Q415 7 365.5 -2.5Q316 -12 265 -12Q253 -12 228.5 -11Q204 -10 175.5 -7Q147 -4 118.5 1.5Q90 7 68 16V95Q92 86 120.5 80.5Q149 75 176 72Q203 69 227 68Q251 67 267 67ZM326 734H249L357 846H466Z" glyph-name="Sacute" horiz-adv-x="582" unicode="&#346;" /><glyph d="M267 67Q363 67 404 100.5Q445 134 445 188Q445 228 432 251.5Q419 275 396.5 287Q374 299 342.5 302.5Q311 306 275 307Q231 308 192 317.5Q153 327 124 348.5Q95 370 78.5 406Q62 442 62 497Q62 554 83.5 591.5Q105 629 141 650.5Q177 672 223.5 681Q270 690 320 690Q332 690 352.5 689Q373 688 396 686Q419 684 443.5 679Q468 674 489 667V592Q441 608 395.5 611.5Q350 615 318 615Q241 615 199.5 586.5Q158 558 158 504Q158 465 171 444.5Q184 424 206 414Q228 404 258 401.5Q288 399 323 397Q364 394 403.5 386Q443 378 473.5 356.5Q504 335 522.5 297Q541 259 541 198Q541 136 517 95.5Q493 55 454 31Q415 7 365.5 -2.5Q316 -12 265 -12Q253 -12 228.5 -11Q204 -10 175.5 -7Q147 -4 118.5 1.5Q90 7 68 16V95Q92 86 120.5 80.5Q149 75 176 72Q203 69 227 68Q251 67 267 67ZM145 846H226L294 776L362 846H443L333 730H254Z" glyph-name="Scaron" horiz-adv-x="582" unicode="&#352;" /><glyph d="M256 -12Q241 -12 217.5 -10.5Q194 -9 167.5 -6Q141 -3 114.5 2.5Q88 8 68 16V95Q92 86 120.5 80.5Q149 75 176 72Q203 69 227 68Q251 67 267 67Q363 67 404 100.5Q445 134 445 188Q445 228 432 251.5Q419 275 396.5 287Q374 299 342.5 302.5Q311 306 275 307Q231 308 192 317.5Q153 327 124 348.5Q95 370 78.5 406Q62 442 62 497Q62 554 83.5 591.5Q105 629 141 650.5Q177 672 223.5 681Q270 690 320 690Q332 690 352.5 689Q373 688 396 686Q419 684 443.5 679Q468 674 489 667V592Q441 608 395.5 611.5Q350 615 318 615Q241 615 199.5 586.5Q158 558 158 504Q158 465 171 444.5Q184 424 206 414Q228 404 258 401.5Q288 399 323 397Q364 394 403.5 386Q443 378 473.5 356.5Q504 335 522.5 297Q541 259 541 198Q541 146 524 109.5Q507 73 478 48.5Q449 24 410.5 10.5Q372 -3 330 -8L318 -37Q348 -45 363.5 -59.5Q379 -74 379 -100Q379 -138 344.5 -156Q310 -174 255 -174Q244 -174 224.5 -172Q205 -170 182 -164V-110Q199 -115 217 -116.5Q235 -118 247 -118Q276 -118 288.5 -112.5Q301 -107 301 -94Q301 -81 283.5 -75.5Q266 -70 248 -68L242 -44Z" glyph-name="Scedilla" horiz-adv-x="582" unicode="&#350;" /><glyph d="M267 67Q363 67 404 100.5Q445 134 445 188Q445 228 432 251.5Q419 275 396.5 287Q374 299 342.5 302.5Q311 306 275 307Q231 308 192 317.5Q153 327 124 348.5Q95 370 78.5 406Q62 442 62 497Q62 554 83.5 591.5Q105 629 141 650.5Q177 672 223.5 681Q270 690 320 690Q332 690 352.5 689Q373 688 396 686Q419 684 443.5 679Q468 674 489 667V592Q441 608 395.5 611.5Q350 615 318 615Q241 615 199.5 586.5Q158 558 158 504Q158 465 171 444.5Q184 424 206 414Q228 404 258 401.5Q288 399 323 397Q364 394 403.5 386Q443 378 473.5 356.5Q504 335 522.5 297Q541 259 541 198Q541 136 517 95.5Q493 55 454 31Q415 7 365.5 -2.5Q316 -12 265 -12Q253 -12 228.5 -11Q204 -10 175.5 -7Q147 -4 118.5 1.5Q90 7 68 16V95Q92 86 120.5 80.5Q149 75 176 72Q203 69 227 68Q251 67 267 67ZM443 734H362L294 804L226 734H145L255 850H334Z" glyph-name="Scircumflex" horiz-adv-x="582" unicode="&#348;" /><glyph d="M267 67Q363 67 404 100.5Q445 134 445 188Q445 228 432 251.5Q419 275 396.5 287Q374 299 342.5 302.5Q311 306 275 307Q231 308 192 317.5Q153 327 124 348.5Q95 370 78.5 406Q62 442 62 497Q62 554 83.5 591.5Q105 629 141 650.5Q177 672 223.5 681Q270 690 320 690Q332 690 352.5 689Q373 688 396 686Q419 684 443.5 679Q468 674 489 667V592Q441 608 395.5 611.5Q350 615 318 615Q241 615 199.5 586.5Q158 558 158 504Q158 465 171 444.5Q184 424 206 414Q228 404 258 401.5Q288 399 323 397Q364 394 403.5 386Q443 378 473.5 356.5Q504 335 522.5 297Q541 259 541 198Q541 136 517 95.5Q493 55 454 31Q415 7 365.5 -2.5Q316 -12 265 -12Q253 -12 228.5 -11Q204 -10 175.5 -7Q147 -4 118.5 1.5Q90 7 68 16V95Q92 86 120.5 80.5Q149 75 176 72Q203 69 227 68Q251 67 267 67ZM262 -76H354L280 -247H225Z" glyph-name="Scommaaccent" horiz-adv-x="582" unicode="&#536;" /><glyph d="M307 0H216V607H15V678H508V607H307Z" glyph-name="T" horiz-adv-x="523" unicode="T" /><glyph d="M450 310H307V0H216V310H74V381H216V607H15V678H508V607H307V381H450Z" glyph-name="Tbar" horiz-adv-x="523" unicode="&#358;" /><glyph d="M307 0H216V607H15V678H508V607H307ZM112 846H193L261 776L329 846H410L300 730H221Z" glyph-name="Tcaron" horiz-adv-x="523" unicode="&#356;" /><glyph d="M307 0H216V607H15V678H508V607H307ZM213 -76H305L231 -247H176Z" glyph-name="Tcommaaccent" horiz-adv-x="523" unicode="&#354;" /><glyph d="M324 180Q370 180 396.5 185.5Q423 191 445 213Q462 230 469 259Q476 288 476 329Q476 370 467 399Q458 428 441 445Q430 456 419 462.5Q408 469 394.5 472.5Q381 476 364 477Q347 478 324 478H181V180ZM181 0H90V678H182V549H317Q392 549 439 537.5Q486 526 517 495Q571 441 571 329Q571 217 517 163Q486 132 439 120.5Q392 109 317 109H181Z" glyph-name="Thorn" horiz-adv-x="601" unicode="&#222;" /><glyph d="M333 -12Q261 -12 213.5 3.5Q166 19 134 51Q97 88 86 135Q75 182 75 231V678H166V213Q166 187 172 156Q178 125 204 99Q225 78 254.5 68Q284 58 333 58Q382 58 411.5 68Q441 78 462 99Q488 125 494 156Q500 187 500 213V678H591V231Q591 182 580 135Q569 88 532 51Q500 19 452.5 3.5Q405 -12 333 -12Z" glyph-name="U" horiz-adv-x="666" unicode="U" /><glyph d="M333 -12Q261 -12 213.5 3.5Q166 19 134 51Q97 88 86 135Q75 182 75 231V678H166V213Q166 187 172 156Q178 125 204 99Q225 78 254.5 68Q284 58 333 58Q382 58 411.5 68Q441 78 462 99Q488 125 494 156Q500 187 500 213V678H591V231Q591 182 580 135Q569 88 532 51Q500 19 452.5 3.5Q405 -12 333 -12ZM366 734H289L397 846H506Z" glyph-name="Uacute" horiz-adv-x="666" unicode="&#218;" /><glyph d="M333 -12Q261 -12 213.5 3.5Q166 19 134 51Q97 88 86 135Q75 182 75 231V678H166V213Q166 187 172 156Q178 125 204 99Q225 78 254.5 68Q284 58 333 58Q382 58 411.5 68Q441 78 462 99Q488 125 494 156Q500 187 500 213V678H591V231Q591 182 580 135Q569 88 532 51Q500 19 452.5 3.5Q405 -12 333 -12ZM333 786Q348 786 364 788.5Q380 791 393.5 798Q407 805 417 816.5Q427 828 430 846H501Q491 783 446 755.5Q401 728 333 728Q265 728 220 755.5Q175 783 165 846H236Q239 828 249 816.5Q259 805 272.5 798Q286 791 302 788.5Q318 786 333 786Z" glyph-name="Ubreve" horiz-adv-x="666" unicode="&#364;" /><glyph d="M333 -12Q261 -12 213.5 3.5Q166 19 134 51Q97 88 86 135Q75 182 75 231V678H166V213Q166 187 172 156Q178 125 204 99Q225 78 254.5 68Q284 58 333 58Q382 58 411.5 68Q441 78 462 99Q488 125 494 156Q500 187 500 213V678H591V231Q591 182 580 135Q569 88 532 51Q500 19 452.5 3.5Q405 -12 333 -12ZM482 734H401L333 804L265 734H184L294 850H373Z" glyph-name="Ucircumflex" horiz-adv-x="666" unicode="&#219;" /><glyph d="M333 -12Q261 -12 213.5 3.5Q166 19 134 51Q97 88 86 135Q75 182 75 231V678H166V213Q166 187 172 156Q178 125 204 99Q225 78 254.5 68Q284 58 333 58Q382 58 411.5 68Q441 78 462 99Q488 125 494 156Q500 187 500 213V678H591V231Q591 182 580 135Q569 88 532 51Q500 19 452.5 3.5Q405 -12 333 -12ZM283 755H194V841H283ZM473 755H384V841H473Z" glyph-name="Udieresis" horiz-adv-x="666" unicode="&#220;" /><glyph d="M333 -12Q261 -12 213.5 3.5Q166 19 134 51Q97 88 86 135Q75 182 75 231V678H166V213Q166 187 172 156Q178 125 204 99Q225 78 254.5 68Q284 58 333 58Q382 58 411.5 68Q441 78 462 99Q488 125 494 156Q500 187 500 213V678H591V231Q591 182 580 135Q569 88 532 51Q500 19 452.5 3.5Q405 -12 333 -12ZM167 846H276L384 734H307Z" glyph-name="Ugrave" horiz-adv-x="666" unicode="&#217;" /><glyph d="M333 -12Q261 -12 213.5 3.5Q166 19 134 51Q97 88 86 135Q75 182 75 231V678H166V213Q166 187 172 156Q178 125 204 99Q225 78 254.5 68Q284 58 333 58Q382 58 411.5 68Q441 78 462 99Q488 125 494 156Q500 187 500 213V678H591V231Q591 182 580 135Q569 88 532 51Q500 19 452.5 3.5Q405 -12 333 -12ZM276 734H212L320 846H416ZM416 734H352L460 846H556Z" glyph-name="Uhungarumlaut" horiz-adv-x="666" unicode="&#368;" /><glyph d="M333 -12Q261 -12 213.5 3.5Q166 19 134 51Q97 88 86 135Q75 182 75 231V678H166V213Q166 187 172 156Q178 125 204 99Q225 78 254.5 68Q284 58 333 58Q382 58 411.5 68Q441 78 462 99Q488 125 494 156Q500 187 500 213V678H591V231Q591 182 580 135Q569 88 532 51Q500 19 452.5 3.5Q405 -12 333 -12ZM499 767H168V835H499Z" glyph-name="Umacron" horiz-adv-x="666" unicode="&#362;" /><glyph d="M532 51Q504 23 466.5 8.5Q429 -6 374 -10Q356 -24 345.5 -43.5Q335 -63 335 -80Q335 -96 345 -107Q355 -118 379 -118Q393 -118 409 -116Q425 -114 442 -109V-164Q427 -170 405.5 -172Q384 -174 367 -174Q309 -174 284.5 -151Q260 -128 260 -93Q260 -70 273 -48.5Q286 -27 303 -11Q243 -8 203 7Q163 22 134 51Q97 88 86 135Q75 182 75 231V678H166V213Q166 187 172 156Q178 125 204 99Q225 78 254.5 68Q284 58 333 58Q382 58 411.5 68Q441 78 462 99Q488 125 494 156Q500 187 500 213V678H591V231Q591 182 580 135Q569 88 532 51Z" glyph-name="Uogonek" horiz-adv-x="666" unicode="&#370;" /><glyph d="M333 -12Q261 -12 213.5 3.5Q166 19 134 51Q97 88 86 135Q75 182 75 231V678H166V213Q166 187 172 156Q178 125 204 99Q225 78 254.5 68Q284 58 333 58Q382 58 411.5 68Q441 78 462 99Q488 125 494 156Q500 187 500 213V678H591V231Q591 182 580 135Q569 88 532 51Q500 19 452.5 3.5Q405 -12 333 -12ZM370 808Q370 841 334 841Q297 841 297 808Q297 776 334 776Q370 776 370 808ZM423 808Q423 769 400 752Q377 735 334 735Q291 735 267.5 752Q244 769 244 808Q244 847 267.5 864Q291 881 334 881Q377 881 400 864Q423 847 423 808Z" glyph-name="Uring" horiz-adv-x="666" unicode="&#366;" /><glyph d="M333 -12Q261 -12 213.5 3.5Q166 19 134 51Q97 88 86 135Q75 182 75 231V678H166V213Q166 187 172 156Q178 125 204 99Q225 78 254.5 68Q284 58 333 58Q382 58 411.5 68Q441 78 462 99Q488 125 494 156Q500 187 500 213V678H591V231Q591 182 580 135Q569 88 532 51Q500 19 452.5 3.5Q405 -12 333 -12ZM408 824Q430 824 455 835Q480 846 500 860V794Q485 783 459 771Q433 759 409 759Q390 759 370.5 764Q351 769 332.5 775.5Q314 782 295.5 787Q277 792 259 792Q237 792 212 781Q187 770 167 756V822Q182 833 208 845.5Q234 858 258 858Q277 858 296 852.5Q315 847 333.5 841Q352 835 370.5 829.5Q389 824 408 824Z" glyph-name="Utilde" horiz-adv-x="666" unicode="&#360;" /><glyph d="M591 678 357 0H243L9 678H105L237 286Q255 232 272 179Q289 126 300 90H304Q315 126 332 179Q349 232 367 286L499 678Z" glyph-name="V" horiz-adv-x="600" unicode="V" /><glyph d="M468 451Q461 430 451.5 402.5Q442 375 431.5 345Q421 315 410.5 286Q400 257 392 234L307 0H208L14 678H103L187 373Q205 306 223 237.5Q241 169 258 101H262Q284 167 307.5 234.5Q331 302 354 367L424 568L384 678H475L577 388Q602 318 627 246Q652 174 675 103H679Q699 175 717.5 247Q736 319 758 399L835 678H924L730 0H631L547 234Q539 256 528.5 285.5Q518 315 507.5 345Q497 375 487.5 403Q478 431 471 451Z" glyph-name="W" horiz-adv-x="938" unicode="W" /><glyph d="M468 451Q461 430 451.5 402.5Q442 375 431.5 345Q421 315 410.5 286Q400 257 392 234L307 0H208L14 678H103L187 373Q205 306 223 237.5Q241 169 258 101H262Q284 167 307.5 234.5Q331 302 354 367L424 568L384 678H475L577 388Q602 318 627 246Q652 174 675 103H679Q699 175 717.5 247Q736 319 758 399L835 678H924L730 0H631L547 234Q539 256 528.5 285.5Q518 315 507.5 345Q497 375 487.5 403Q478 431 471 451ZM467 734H390L498 846H607Z" glyph-name="Wacute" horiz-adv-x="938" unicode="&#7810;" /><glyph d="M468 451Q461 430 451.5 402.5Q442 375 431.5 345Q421 315 410.5 286Q400 257 392 234L307 0H208L14 678H103L187 373Q205 306 223 237.5Q241 169 258 101H262Q284 167 307.5 234.5Q331 302 354 367L424 568L384 678H475L577 388Q602 318 627 246Q652 174 675 103H679Q699 175 717.5 247Q736 319 758 399L835 678H924L730 0H631L547 234Q539 256 528.5 285.5Q518 315 507.5 345Q497 375 487.5 403Q478 431 471 451ZM618 734H537L469 804L401 734H320L430 850H509Z" glyph-name="Wcircumflex" horiz-adv-x="938" unicode="&#372;" /><glyph d="M468 451Q461 430 451.5 402.5Q442 375 431.5 345Q421 315 410.5 286Q400 257 392 234L307 0H208L14 678H103L187 373Q205 306 223 237.5Q241 169 258 101H262Q284 167 307.5 234.5Q331 302 354 367L424 568L384 678H475L577 388Q602 318 627 246Q652 174 675 103H679Q699 175 717.5 247Q736 319 758 399L835 678H924L730 0H631L547 234Q539 256 528.5 285.5Q518 315 507.5 345Q497 375 487.5 403Q478 431 471 451ZM419 755H330V841H419ZM609 755H520V841H609Z" glyph-name="Wdieresis" horiz-adv-x="938" unicode="&#7812;" /><glyph d="M468 451Q461 430 451.5 402.5Q442 375 431.5 345Q421 315 410.5 286Q400 257 392 234L307 0H208L14 678H103L187 373Q205 306 223 237.5Q241 169 258 101H262Q284 167 307.5 234.5Q331 302 354 367L424 568L384 678H475L577 388Q602 318 627 246Q652 174 675 103H679Q699 175 717.5 247Q736 319 758 399L835 678H924L730 0H631L547 234Q539 256 528.5 285.5Q518 315 507.5 345Q497 375 487.5 403Q478 431 471 451ZM247 846H356L464 734H387Z" glyph-name="Wgrave" horiz-adv-x="938" unicode="&#7808;" /><glyph d="M117 678 283 418 450 678H551L334 344L558 0H457L283 271L110 0H9L233 344L16 678Z" glyph-name="X" horiz-adv-x="567" unicode="X" /><glyph d="M289 344H290L477 678H571L333 264V0H242V263L4 678H103Z" glyph-name="Y" horiz-adv-x="575" unicode="Y" /><glyph d="M289 344H290L477 678H571L333 264V0H242V263L4 678H103ZM317 734H240L348 846H457Z" glyph-name="Yacute" horiz-adv-x="575" unicode="&#221;" /><glyph d="M289 344H290L477 678H571L333 264V0H242V263L4 678H103ZM439 734H358L290 804L222 734H141L251 850H330Z" glyph-name="Ycircumflex" horiz-adv-x="575" unicode="&#374;" /><glyph d="M289 344H290L477 678H571L333 264V0H242V263L4 678H103ZM239 755H150V841H239ZM429 755H340V841H429Z" glyph-name="Ydieresis" horiz-adv-x="575" unicode="&#376;" /><glyph d="M494 611 145 72V71H495V0H41V66L390 606V607H56V678H494Z" glyph-name="Z" horiz-adv-x="536" unicode="Z" /><glyph d="M494 611 145 72V71H495V0H41V66L390 606V607H56V678H494ZM293 734H216L324 846H433Z" glyph-name="Zacute" horiz-adv-x="536" unicode="&#377;" /><glyph d="M494 611 145 72V71H495V0H41V66L390 606V607H56V678H494ZM128 846H209L277 776L345 846H426L316 730H237Z" glyph-name="Zcaron" horiz-adv-x="536" unicode="&#142;" /><glyph d="M494 611 145 72V71H495V0H41V66L390 606V607H56V678H494ZM324 755H232V844H324Z" glyph-name="Zdotaccent" horiz-adv-x="536" unicode="&#379;" /><glyph d="M277 305Q285 305 313 304Q341 303 372 301V364Q372 393 366 410.5Q360 428 345.5 437Q331 446 306.5 449Q282 452 244 452Q217 452 177.5 448.5Q138 445 89 434V504Q107 509 130 512.5Q153 516 175.5 518Q198 520 219.5 521Q241 522 256 522Q305 522 342.5 516Q380 510 404.5 493.5Q429 477 441.5 447.5Q454 418 454 371V0H397L385 53H384Q352 23 312 7Q272 -9 225 -9Q186 -9 149.5 2Q113 13 89 36Q69 56 59 85Q49 114 49 146Q49 183 59 209Q69 235 88 254Q120 286 170 295.5Q220 305 277 305ZM372 235Q342 238 316 239Q290 240 282 240Q250 240 229.5 238Q209 236 194.5 232Q180 228 171 221.5Q162 215 153 207Q145 199 140 184.5Q135 170 135 144Q135 120 143 104Q151 88 165.5 79Q180 70 199 66Q218 62 240 62Q292 62 322.5 79.5Q353 97 372 125Z" glyph-name="a" horiz-adv-x="530" unicode="a" /><glyph d="M277 305Q285 305 313 304Q341 303 372 301V364Q372 393 366 410.5Q360 428 345.5 437Q331 446 306.5 449Q282 452 244 452Q217 452 177.5 448.5Q138 445 89 434V504Q107 509 130 512.5Q153 516 175.5 518Q198 520 219.5 521Q241 522 256 522Q305 522 342.5 516Q380 510 404.5 493.5Q429 477 441.5 447.5Q454 418 454 371V0H397L385 53H384Q352 23 312 7Q272 -9 225 -9Q186 -9 149.5 2Q113 13 89 36Q69 56 59 85Q49 114 49 146Q49 183 59 209Q69 235 88 254Q120 286 170 295.5Q220 305 277 305ZM372 235Q342 238 316 239Q290 240 282 240Q250 240 229.5 238Q209 236 194.5 232Q180 228 171 221.5Q162 215 153 207Q145 199 140 184.5Q135 170 135 144Q135 120 143 104Q151 88 165.5 79Q180 70 199 66Q218 62 240 62Q292 62 322.5 79.5Q353 97 372 125ZM288 566H211L319 678H428Z" glyph-name="aacute" horiz-adv-x="530" unicode="&#225;" /><glyph d="M277 305Q285 305 313 304Q341 303 372 301V364Q372 393 366 410.5Q360 428 345.5 437Q331 446 306.5 449Q282 452 244 452Q217 452 177.5 448.5Q138 445 89 434V504Q107 509 130 512.5Q153 516 175.5 518Q198 520 219.5 521Q241 522 256 522Q305 522 342.5 516Q380 510 404.5 493.5Q429 477 441.5 447.5Q454 418 454 371V0H397L385 53H384Q352 23 312 7Q272 -9 225 -9Q186 -9 149.5 2Q113 13 89 36Q69 56 59 85Q49 114 49 146Q49 183 59 209Q69 235 88 254Q120 286 170 295.5Q220 305 277 305ZM372 235Q342 238 316 239Q290 240 282 240Q250 240 229.5 238Q209 236 194.5 232Q180 228 171 221.5Q162 215 153 207Q145 199 140 184.5Q135 170 135 144Q135 120 143 104Q151 88 165.5 79Q180 70 199 66Q218 62 240 62Q292 62 322.5 79.5Q353 97 372 125ZM271 618Q286 618 302 620.5Q318 623 331.5 630Q345 637 355 648.5Q365 660 368 678H439Q429 615 384 587.5Q339 560 271 560Q203 560 158 587.5Q113 615 103 678H174Q177 660 187 648.5Q197 637 210.5 630Q224 623 240 620.5Q256 618 271 618Z" glyph-name="abreve" horiz-adv-x="530" unicode="&#259;" /><glyph d="M277 305Q285 305 313 304Q341 303 372 301V364Q372 393 366 410.5Q360 428 345.5 437Q331 446 306.5 449Q282 452 244 452Q217 452 177.5 448.5Q138 445 89 434V504Q107 509 130 512.5Q153 516 175.5 518Q198 520 219.5 521Q241 522 256 522Q305 522 342.5 516Q380 510 404.5 493.5Q429 477 441.5 447.5Q454 418 454 371V0H397L385 53H384Q352 23 312 7Q272 -9 225 -9Q186 -9 149.5 2Q113 13 89 36Q69 56 59 85Q49 114 49 146Q49 183 59 209Q69 235 88 254Q120 286 170 295.5Q220 305 277 305ZM372 235Q342 238 316 239Q290 240 282 240Q250 240 229.5 238Q209 236 194.5 232Q180 228 171 221.5Q162 215 153 207Q145 199 140 184.5Q135 170 135 144Q135 120 143 104Q151 88 165.5 79Q180 70 199 66Q218 62 240 62Q292 62 322.5 79.5Q353 97 372 125ZM418 566H337L269 636L201 566H120L230 682H309Z" glyph-name="acircumflex" horiz-adv-x="530" unicode="&#226;" /><glyph d="M317 566H240L348 678H457Z" glyph-name="acute" horiz-adv-x="600" unicode="&#180;" /><glyph d="M277 305Q285 305 313 304Q341 303 372 301V364Q372 393 366 410.5Q360 428 345.5 437Q331 446 306.5 449Q282 452 244 452Q217 452 177.5 448.5Q138 445 89 434V504Q107 509 130 512.5Q153 516 175.5 518Q198 520 219.5 521Q241 522 256 522Q305 522 342.5 516Q380 510 404.5 493.5Q429 477 441.5 447.5Q454 418 454 371V0H397L385 53H384Q352 23 312 7Q272 -9 225 -9Q186 -9 149.5 2Q113 13 89 36Q69 56 59 85Q49 114 49 146Q49 183 59 209Q69 235 88 254Q120 286 170 295.5Q220 305 277 305ZM372 235Q342 238 316 239Q290 240 282 240Q250 240 229.5 238Q209 236 194.5 232Q180 228 171 221.5Q162 215 153 207Q145 199 140 184.5Q135 170 135 144Q135 120 143 104Q151 88 165.5 79Q180 70 199 66Q218 62 240 62Q292 62 322.5 79.5Q353 97 372 125ZM213 587H124V673H213ZM403 587H314V673H403Z" glyph-name="adieresis" horiz-adv-x="530" unicode="&#228;" /><glyph d="M465 238Q467 190 476 154Q485 118 508 95Q545 58 632 58Q664 58 704 62.5Q744 67 783 82V12Q765 5 743 0.5Q721 -4 699 -7Q677 -10 656 -11Q635 -12 618 -12Q473 -12 417 73Q400 50 376.5 34Q353 18 327 8.5Q301 -1 274.5 -5Q248 -9 225 -9Q186 -9 149.5 2Q113 13 89 36Q69 56 59 85Q49 114 49 146Q49 183 59 209Q69 235 88 254Q120 286 170 295.5Q220 305 277 305Q285 305 313 304Q341 303 372 301V364Q372 393 366 410.5Q360 428 345.5 437Q331 446 306.5 449Q282 452 244 452Q217 452 177.5 448.5Q138 445 89 434V504Q107 509 130 512.5Q153 516 175.5 518Q198 520 219.5 521Q241 522 256 522Q295 522 324 519Q353 516 374 508.5Q395 501 410 489Q425 477 436 459Q468 493 509.5 507.5Q551 522 603 522Q710 522 757.5 467.5Q805 413 805 308Q805 299 803.5 277Q802 255 800 238ZM388 140Q383 160 380.5 182Q378 204 376 230V233Q346 236 318 238Q290 240 282 240Q250 240 229.5 238Q209 236 194.5 232Q180 228 171 221.5Q162 215 153 207Q145 199 140 184.5Q135 170 135 144Q135 120 143 104Q151 88 165.5 79Q180 70 199 66Q218 62 240 62Q292 62 331 86Q370 110 389 138ZM602 452Q576 452 551.5 445.5Q527 439 508 420Q475 387 467 305H723Q724 315 724 319.5Q724 324 724 326Q724 358 717.5 383Q711 408 695 424Q680 439 656 445.5Q632 452 602 452Z" glyph-name="ae" horiz-adv-x="857" unicode="&#230;" /><glyph d="M277 305Q285 305 313 304Q341 303 372 301V364Q372 393 366 410.5Q360 428 345.5 437Q331 446 306.5 449Q282 452 244 452Q217 452 177.5 448.5Q138 445 89 434V504Q107 509 130 512.5Q153 516 175.5 518Q198 520 219.5 521Q241 522 256 522Q305 522 342.5 516Q380 510 404.5 493.5Q429 477 441.5 447.5Q454 418 454 371V0H397L385 53H384Q352 23 312 7Q272 -9 225 -9Q186 -9 149.5 2Q113 13 89 36Q69 56 59 85Q49 114 49 146Q49 183 59 209Q69 235 88 254Q120 286 170 295.5Q220 305 277 305ZM372 235Q342 238 316 239Q290 240 282 240Q250 240 229.5 238Q209 236 194.5 232Q180 228 171 221.5Q162 215 153 207Q145 199 140 184.5Q135 170 135 144Q135 120 143 104Q151 88 165.5 79Q180 70 199 66Q218 62 240 62Q292 62 322.5 79.5Q353 97 372 125ZM107 678H216L324 566H247Z" glyph-name="agrave" horiz-adv-x="530" unicode="&#224;" /><glyph d="M277 305Q285 305 313 304Q341 303 372 301V364Q372 393 366 410.5Q360 428 345.5 437Q331 446 306.5 449Q282 452 244 452Q217 452 177.5 448.5Q138 445 89 434V504Q107 509 130 512.5Q153 516 175.5 518Q198 520 219.5 521Q241 522 256 522Q305 522 342.5 516Q380 510 404.5 493.5Q429 477 441.5 447.5Q454 418 454 371V0H397L385 53H384Q352 23 312 7Q272 -9 225 -9Q186 -9 149.5 2Q113 13 89 36Q69 56 59 85Q49 114 49 146Q49 183 59 209Q69 235 88 254Q120 286 170 295.5Q220 305 277 305ZM372 235Q342 238 316 239Q290 240 282 240Q250 240 229.5 238Q209 236 194.5 232Q180 228 171 221.5Q162 215 153 207Q145 199 140 184.5Q135 170 135 144Q135 120 143 104Q151 88 165.5 79Q180 70 199 66Q218 62 240 62Q292 62 322.5 79.5Q353 97 372 125ZM432 599H101V667H432Z" glyph-name="amacron" horiz-adv-x="530" unicode="&#257;" /><glyph d="M475 60Q443 28 394.5 8Q346 -12 296 -12Q250 -12 209 -1Q168 10 137.5 33Q107 56 89 92.5Q71 129 71 179Q71 213 81.5 240.5Q92 268 108.5 289Q125 310 145 324.5Q165 339 185 347V348Q143 374 115 414.5Q87 455 87 515Q87 600 143.5 644Q200 688 306 690Q318 690 333.5 689Q349 688 365.5 686.5Q382 685 398 682Q414 679 427 676V602Q400 608 370.5 611.5Q341 615 319 615Q278 615 251 606Q224 597 208.5 582Q193 567 187 546.5Q181 526 181 502Q181 477 190.5 456Q200 435 215 420Q236 399 262 390Q288 381 320 381H466L486 484H541L540 381H668V310H540V147Q540 121 543.5 104.5Q547 88 557 78.5Q567 69 584.5 65.5Q602 62 631 62Q645 62 661 64.5Q677 67 690 71V3Q669 -4 647 -6Q625 -8 604 -8Q548 -8 518.5 11Q489 30 477 60ZM458 310H311Q277 310 249 300.5Q221 291 198 268Q166 236 166 180Q166 120 201 94Q236 68 301 68Q349 68 391 87.5Q433 107 458 141Z" glyph-name="ampersand" horiz-adv-x="730" unicode="&amp;" /><glyph d="M277 305Q285 305 313 304Q341 303 372 301V364Q372 393 366 410.5Q360 428 345.5 437Q331 446 306.5 449Q282 452 244 452Q217 452 177.5 448.5Q138 445 89 434V504Q107 509 130 512.5Q153 516 175.5 518Q198 520 219.5 521Q241 522 256 522Q305 522 342.5 516Q380 510 404.5 493.5Q429 477 441.5 447.5Q454 418 454 371V0Q429 -14 414 -37Q399 -60 399 -80Q399 -96 409 -107Q419 -118 443 -118Q457 -118 473 -116Q489 -114 506 -109V-164Q491 -170 469.5 -172Q448 -174 431 -174Q373 -174 348.5 -151Q324 -128 324 -93Q324 -67 343 -38.5Q362 -10 394 10L385 53H384Q352 23 312 7Q272 -9 225 -9Q186 -9 149.5 2Q113 13 89 36Q69 56 59 85Q49 114 49 146Q49 183 59 209Q69 235 88 254Q120 286 170 295.5Q220 305 277 305ZM372 235Q342 238 316 239Q290 240 282 240Q250 240 229.5 238Q209 236 194.5 232Q180 228 171 221.5Q162 215 153 207Q145 199 140 184.5Q135 170 135 144Q135 120 143 104Q151 88 165.5 79Q180 70 199 66Q218 62 240 62Q292 62 322.5 79.5Q353 97 372 125Z" glyph-name="aogonek" horiz-adv-x="530" unicode="&#261;" /><glyph d="M415 389Q447 389 483 400Q519 411 552 431V358Q526 341 489.5 329.5Q453 318 416 318Q388 318 360 324.5Q332 331 304 339.5Q276 348 248 354.5Q220 361 193 361Q161 361 125 350Q89 339 56 319V390Q82 407 119 419.5Q156 432 192 432Q220 432 248 425.5Q276 419 304 410.5Q332 402 359.5 395.5Q387 389 415 389ZM415 189Q447 189 483 200Q519 211 552 231V158Q526 141 489.5 129.5Q453 118 416 118Q388 118 360 124.5Q332 131 304 139.5Q276 148 248 154.5Q220 161 193 161Q161 161 125 150Q89 139 56 119V190Q82 207 119 219.5Q156 232 192 232Q220 232 248 225.5Q276 219 304 210.5Q332 202 359.5 195.5Q387 189 415 189Z" glyph-name="approxequal" horiz-adv-x="608" unicode="&#8776;" /><glyph d="M277 305Q285 305 313 304Q341 303 372 301V364Q372 393 366 410.5Q360 428 345.5 437Q331 446 306.5 449Q282 452 244 452Q217 452 177.5 448.5Q138 445 89 434V504Q107 509 130 512.5Q153 516 175.5 518Q198 520 219.5 521Q241 522 256 522Q305 522 342.5 516Q380 510 404.5 493.5Q429 477 441.5 447.5Q454 418 454 371V0H397L385 53H384Q352 23 312 7Q272 -9 225 -9Q186 -9 149.5 2Q113 13 89 36Q69 56 59 85Q49 114 49 146Q49 183 59 209Q69 235 88 254Q120 286 170 295.5Q220 305 277 305ZM372 235Q342 238 316 239Q290 240 282 240Q250 240 229.5 238Q209 236 194.5 232Q180 228 171 221.5Q162 215 153 207Q145 199 140 184.5Q135 170 135 144Q135 120 143 104Q151 88 165.5 79Q180 70 199 66Q218 62 240 62Q292 62 322.5 79.5Q353 97 372 125ZM306 640Q306 673 270 673Q233 673 233 640Q233 608 270 608Q306 608 306 640ZM359 640Q359 601 336 584Q313 567 270 567Q227 567 203.5 584Q180 601 180 640Q180 679 203.5 696Q227 713 270 713Q313 713 336 696Q359 679 359 640Z" glyph-name="aring" horiz-adv-x="530" unicode="&#229;" /><glyph d="M250 613 118 387H50L222 678H277L449 387H380Z" glyph-name="asciicircum" horiz-adv-x="499" unicode="^" /><glyph d="M415 358Q447 358 483 369Q519 380 552 400V327Q526 310 489.5 298.5Q453 287 416 287Q388 287 360 293.5Q332 300 304 308.5Q276 317 248 323.5Q220 330 193 330Q161 330 125 319Q89 308 56 288V359Q82 376 119 388.5Q156 401 192 401Q220 401 248 394.5Q276 388 304 379.5Q332 371 359.5 364.5Q387 358 415 358Z" glyph-name="asciitilde" horiz-adv-x="608" unicode="~" /><glyph d="M274 729H328L329 586L464 629L480 577L345 532L427 417L383 386L301 496L219 386L175 417L258 532L121 577L137 629L272 586Z" glyph-name="asterisk" horiz-adv-x="600" unicode="*" /><glyph d="M466 112Q451 93 435.5 83Q420 73 405.5 68.5Q391 64 379.5 63.5Q368 63 360 63Q338 63 317.5 70Q297 77 281.5 92.5Q266 108 257 131.5Q248 155 248 188Q248 228 260 263Q272 298 296 323.5Q320 349 355.5 363.5Q391 378 437 378Q472 378 502.5 373Q533 368 555 363L529 230Q526 213 523 192.5Q520 172 523 154.5Q526 137 538.5 125Q551 113 578 113Q627 113 649.5 149Q672 185 672 244Q672 302 657 351.5Q642 401 611 437Q580 473 532 493.5Q484 514 418 514Q350 514 297 492Q244 470 208 431Q172 392 153 337.5Q134 283 134 219Q134 151 153.5 97.5Q173 44 209.5 7Q246 -30 298.5 -49.5Q351 -69 418 -69Q446 -69 480.5 -62Q515 -55 541 -43V-106Q519 -117 484.5 -123Q450 -129 418 -129Q336 -129 271 -106.5Q206 -84 160.5 -39.5Q115 5 91 70Q67 135 67 219Q67 299 90.5 364.5Q114 430 158.5 476.5Q203 523 268.5 548Q334 573 418 573Q500 573 561 549Q622 525 662 482.5Q702 440 721.5 380Q741 320 741 248Q741 149 694 101.5Q647 54 572 54Q540 54 509.5 67.5Q479 81 468 112ZM473 313Q462 315 451 315.5Q440 316 432 316Q406 316 385 305.5Q364 295 350 277Q336 259 328.5 236Q321 213 321 188Q321 158 331.5 143Q342 128 373 128Q383 128 393.5 130.5Q404 133 414 141Q424 149 432.5 163Q441 177 447 201Z" glyph-name="at" horiz-adv-x="796" unicode="@" /><glyph d="M277 305Q285 305 313 304Q341 303 372 301V364Q372 393 366 410.5Q360 428 345.5 437Q331 446 306.5 449Q282 452 244 452Q217 452 177.5 448.5Q138 445 89 434V504Q107 509 130 512.5Q153 516 175.5 518Q198 520 219.5 521Q241 522 256 522Q305 522 342.5 516Q380 510 404.5 493.5Q429 477 441.5 447.5Q454 418 454 371V0H397L385 53H384Q352 23 312 7Q272 -9 225 -9Q186 -9 149.5 2Q113 13 89 36Q69 56 59 85Q49 114 49 146Q49 183 59 209Q69 235 88 254Q120 286 170 295.5Q220 305 277 305ZM372 235Q342 238 316 239Q290 240 282 240Q250 240 229.5 238Q209 236 194.5 232Q180 228 171 221.5Q162 215 153 207Q145 199 140 184.5Q135 170 135 144Q135 120 143 104Q151 88 165.5 79Q180 70 199 66Q218 62 240 62Q292 62 322.5 79.5Q353 97 372 125ZM349 656Q371 656 396 667Q421 678 441 692V626Q426 615 400 603Q374 591 350 591Q331 591 311.5 596Q292 601 273.5 607.5Q255 614 236.5 619Q218 624 200 624Q178 624 153 613Q128 602 108 588V654Q123 665 149 677.5Q175 690 199 690Q218 690 237 684.5Q256 679 274.5 673Q293 667 311.5 661.5Q330 656 349 656Z" glyph-name="atilde" horiz-adv-x="530" unicode="&#227;" /><glyph d="M150 35 140 0H85V678H167V460H169Q204 492 242 505.5Q280 519 318 519Q426 519 479 457.5Q532 396 532 259Q532 123 472.5 57Q413 -9 295 -9Q282 -9 264 -7Q246 -5 226.5 0.5Q207 6 187.5 14.5Q168 23 152 35ZM167 99Q189 79 221 70Q253 61 285 61Q322 61 352 70.5Q382 80 402.5 102.5Q423 125 434 162Q445 199 445 255Q445 362 410.5 405.5Q376 449 304 449Q265 449 230.5 429.5Q196 410 167 374Z" glyph-name="b" horiz-adv-x="587" unicode="b" /><glyph d="M-11 763H65L358 -85H282Z" glyph-name="backslash" horiz-adv-x="347" unicode="\" /><glyph d="M288 -85H218V763H288Z" glyph-name="bar" horiz-adv-x="506" unicode="|" /><glyph d="M68 303V323L120 374Q119 405 116 435Q113 465 110 491.5Q107 518 105 540Q103 562 103 577Q103 615 109.5 644Q116 673 133.5 692Q151 711 181.5 720.5Q212 730 259 730Q266 730 273 730Q280 730 288 729V662H275Q241 662 222.5 657.5Q204 653 195.5 643.5Q187 634 185.5 618Q184 602 184 580Q184 526 191 478Q198 430 198 391Q198 366 193 346.5Q188 327 174 313Q188 299 193 277.5Q198 256 198 230Q198 188 191 137Q184 86 184 32Q184 9 185.5 -6.5Q187 -22 195.5 -31.5Q204 -41 222.5 -45.5Q241 -50 275 -50H288V-117Q280 -118 273 -118Q266 -118 259 -118Q212 -118 181.5 -108.5Q151 -99 133.5 -80Q116 -61 109.5 -32Q103 -3 103 35Q103 50 105.5 74Q108 98 111 127.5Q114 157 116.5 189Q119 221 120 252Z" glyph-name="braceleft" horiz-adv-x="332" unicode="{" /><glyph d="M212 252Q213 221 215.5 189Q218 157 221 127.5Q224 98 226.5 74Q229 50 229 35Q229 -3 222.5 -32Q216 -61 198.5 -80Q181 -99 150.5 -108.5Q120 -118 73 -118Q66 -118 59 -118Q52 -118 44 -117V-50H57Q91 -50 109.5 -45.5Q128 -41 136.5 -31.5Q145 -22 146.5 -6.5Q148 9 148 32Q148 86 141 137Q134 188 134 230Q134 256 139 277.5Q144 299 158 313Q144 327 139 346.5Q134 366 134 391Q134 430 141 478Q148 526 148 580Q148 602 146.5 618Q145 634 136.5 643.5Q128 653 109.5 657.5Q91 662 57 662H44V729Q52 730 59 730Q66 730 73 730Q120 730 150.5 720.5Q181 711 198.5 692Q216 673 222.5 644Q229 615 229 577Q229 562 227 540Q225 518 222 491.5Q219 465 216 435Q213 405 212 374L264 323V303Z" glyph-name="braceright" horiz-adv-x="332" unicode="}" /><glyph d="M288 -118H102V730H288V663H184V-51H288Z" glyph-name="bracketleft" horiz-adv-x="332" unicode="[" /><glyph d="M44 -51H148V663H44V730H230V-118H44Z" glyph-name="bracketright" horiz-adv-x="332" unicode="]" /><glyph d="M300 618Q315 618 331 620.5Q347 623 360.5 630Q374 637 384 648.5Q394 660 397 678H468Q458 615 413 587.5Q368 560 300 560Q232 560 187 587.5Q142 615 132 678H203Q206 660 216 648.5Q226 637 239.5 630Q253 623 269 620.5Q285 618 300 618Z" glyph-name="breve" horiz-adv-x="600" unicode="&#728;" /><glyph d="M174 342Q174 368 183.5 391Q193 414 210 431Q227 448 250 458Q273 468 299 468Q325 468 348 458Q371 448 388 431Q405 414 415 391Q425 368 425 342Q425 316 415 293Q405 270 388 253Q371 236 348 226.5Q325 217 299 217Q273 217 250 226.5Q227 236 210 253Q193 270 183.5 293Q174 316 174 342Z" glyph-name="bullet" horiz-adv-x="600" unicode="&#8226;" /><glyph d="M434 12Q394 -2 360 -7Q326 -12 294 -12Q170 -12 112.5 52Q55 116 55 255Q55 315 66 364Q77 413 104 448.5Q131 484 177 503Q223 522 294 522Q320 522 352 519Q384 516 419 504V434Q387 446 357.5 449Q328 452 303 452Q264 452 235.5 444Q207 436 187 416Q164 393 153 352Q142 311 142 255Q142 198 152.5 160Q163 122 189 96Q209 76 237 69Q265 62 303 62Q329 62 363.5 67Q398 72 434 86Z" glyph-name="c" horiz-adv-x="470" unicode="c" /><glyph d="M434 12Q394 -2 360 -7Q326 -12 294 -12Q170 -12 112.5 52Q55 116 55 255Q55 315 66 364Q77 413 104 448.5Q131 484 177 503Q223 522 294 522Q320 522 352 519Q384 516 419 504V434Q387 446 357.5 449Q328 452 303 452Q264 452 235.5 444Q207 436 187 416Q164 393 153 352Q142 311 142 255Q142 198 152.5 160Q163 122 189 96Q209 76 237 69Q265 62 303 62Q329 62 363.5 67Q398 72 434 86ZM299 566H222L330 678H439Z" glyph-name="cacute" horiz-adv-x="470" unicode="&#263;" /><glyph d="M157 678H238L306 608L374 678H455L345 562H266Z" glyph-name="caron" horiz-adv-x="600" unicode="&#711;" /><glyph d="M434 12Q394 -2 360 -7Q326 -12 294 -12Q170 -12 112.5 52Q55 116 55 255Q55 315 66 364Q77 413 104 448.5Q131 484 177 503Q223 522 294 522Q320 522 352 519Q384 516 419 504V434Q387 446 357.5 449Q328 452 303 452Q264 452 235.5 444Q207 436 187 416Q164 393 153 352Q142 311 142 255Q142 198 152.5 160Q163 122 189 96Q209 76 237 69Q265 62 303 62Q329 62 363.5 67Q398 72 434 86ZM115 678H196L264 608L332 678H413L303 562H224Z" glyph-name="ccaron" horiz-adv-x="470" unicode="&#269;" /><glyph d="M245 -9Q146 2 100.5 66Q55 130 55 255Q55 315 66 364Q77 413 104 448.5Q131 484 177 503Q223 522 294 522Q320 522 352 519Q384 516 419 504V434Q387 446 357.5 449Q328 452 303 452Q264 452 235.5 444Q207 436 187 416Q164 393 153 352Q142 311 142 255Q142 198 152.5 160Q163 122 189 96Q209 76 237 69Q265 62 303 62Q329 62 363.5 67Q398 72 434 86V12Q401 0 372 -5Q343 -10 316 -11L305 -37Q335 -45 350.5 -59.5Q366 -74 366 -100Q366 -138 331.5 -156Q297 -174 242 -174Q231 -174 211.5 -172Q192 -170 169 -164V-110Q186 -115 204 -116.5Q222 -118 234 -118Q263 -118 275.5 -112.5Q288 -107 288 -94Q288 -81 270.5 -75.5Q253 -70 235 -68L229 -44Z" glyph-name="ccedilla" horiz-adv-x="470" unicode="&#231;" /><glyph d="M434 12Q394 -2 360 -7Q326 -12 294 -12Q170 -12 112.5 52Q55 116 55 255Q55 315 66 364Q77 413 104 448.5Q131 484 177 503Q223 522 294 522Q320 522 352 519Q384 516 419 504V434Q387 446 357.5 449Q328 452 303 452Q264 452 235.5 444Q207 436 187 416Q164 393 153 352Q142 311 142 255Q142 198 152.5 160Q163 122 189 96Q209 76 237 69Q265 62 303 62Q329 62 363.5 67Q398 72 434 86ZM413 566H332L264 636L196 566H115L225 682H304Z" glyph-name="ccircumflex" horiz-adv-x="470" unicode="&#265;" /><glyph d="M310 587H218V676H310ZM434 12Q394 -2 360 -7Q326 -12 294 -12Q170 -12 112.5 52Q55 116 55 255Q55 315 66 364Q77 413 104 448.5Q131 484 177 503Q223 522 294 522Q320 522 352 519Q384 516 419 504V434Q387 446 357.5 449Q328 452 303 452Q264 452 235.5 444Q207 436 187 416Q164 393 153 352Q142 311 142 255Q142 198 152.5 160Q163 122 189 96Q209 76 237 69Q265 62 303 62Q329 62 363.5 67Q398 72 434 86Z" glyph-name="cdotaccent" horiz-adv-x="470" unicode="&#267;" /><glyph d="M287 0H359L343 -37Q373 -45 388.5 -59.5Q404 -74 404 -100Q404 -138 369.5 -156Q335 -174 280 -174Q269 -174 249.5 -172Q230 -170 207 -164V-110Q224 -115 242 -116.5Q260 -118 272 -118Q301 -118 313.5 -112.5Q326 -107 326 -94Q326 -81 308.5 -75.5Q291 -70 273 -68L267 -44Z" glyph-name="cedilla" horiz-adv-x="600" unicode="&#184;" /><glyph d="M443 635Q459 633 475.5 629.5Q492 626 509 620V550Q477 562 447.5 565Q418 568 393 568Q346 568 315 554Q284 540 265.5 512Q247 484 239.5 443Q232 402 232 347Q232 294 239.5 253.5Q247 213 266 186Q285 159 315.5 145Q346 131 393 131Q419 131 453.5 136Q488 141 524 155V81Q484 67 450 62Q416 57 384 57Q373 57 364 57.5Q355 58 345 59L319 -49H241L272 76Q206 103 175.5 169Q145 235 145 347Q145 410 155 462.5Q165 515 190.5 553Q216 591 259 613Q302 635 367 638L394 747H471Z" glyph-name="cent" horiz-adv-x="660" unicode="&#162;" /><glyph d="M455 566H374L306 636L238 566H157L267 682H346Z" glyph-name="circumflex" horiz-adv-x="600" unicode="&#710;" /><glyph d="M189 403H83V510H189ZM189 0H83V107H189Z" glyph-name="colon" horiz-adv-x="272" unicode=":" /><glyph d="M100 117H208L107 -118H44Z" glyph-name="comma" horiz-adv-x="272" unicode="," /><glyph d="M782 339Q782 257 758.5 192Q735 127 690 81.5Q645 36 578.5 12Q512 -12 426 -12Q340 -12 273.5 12Q207 36 162 81.5Q117 127 93.5 192Q70 257 70 339Q70 421 93.5 486Q117 551 162 596.5Q207 642 273.5 666Q340 690 426 690Q512 690 578.5 666Q645 642 690 596.5Q735 551 758.5 486Q782 421 782 339ZM137 339Q137 272 155 218Q173 164 209 126Q245 88 299 67.5Q353 47 426 47Q499 47 553 67.5Q607 88 643 126Q679 164 697 218Q715 272 715 339Q715 406 697 460Q679 514 643 552Q607 590 553 610.5Q499 631 426 631Q353 631 299 610.5Q245 590 209 552Q173 514 155 460Q137 406 137 339ZM286 342Q286 439 324 481.5Q362 524 440 524Q459 524 481.5 521Q504 518 527 510V458Q508 465 487 468Q466 471 448 471Q397 471 374.5 443.5Q352 416 352 342Q352 268 374.5 240.5Q397 213 448 213Q466 213 487 216Q508 219 527 226V174Q504 166 481.5 163Q459 160 440 160Q362 160 324 202.5Q286 245 286 342Z" glyph-name="copyright" horiz-adv-x="852" unicode="&#169;" /><glyph d="M432 60Q396 22 353.5 6.5Q311 -9 269 -9Q160 -9 107.5 54Q55 117 55 255Q55 391 114.5 455Q174 519 292 519Q306 519 323.5 517.5Q341 516 358.5 512.5Q376 509 392 503.5Q408 498 420 490V678H502V0H443L433 60ZM420 413Q398 433 366 441Q334 449 302 449Q264 449 234.5 439.5Q205 430 184.5 407.5Q164 385 153 348Q142 311 142 255Q142 148 177.5 104.5Q213 61 285 61Q324 61 357.5 80.5Q391 100 420 136Z" glyph-name="d" horiz-adv-x="587" unicode="d" /><glyph d="M245 -85H193L186 405L32 396V472L186 463L178 678H259L251 463L406 472V396L251 404Z" glyph-name="dagger" horiz-adv-x="438" unicode="&#8224;" /><glyph d="M249 257 378 264V200L248 206L245 -85H193L188 207L60 200V264L188 257L186 405L32 396V472L186 463L178 678H259L251 463L406 472V396L251 404Z" glyph-name="daggerdbl" horiz-adv-x="438" unicode="&#8225;" /><glyph d="M432 60Q396 22 353.5 6.5Q311 -9 269 -9Q160 -9 107.5 54Q55 117 55 255Q55 391 114.5 455Q174 519 292 519Q306 519 323.5 517.5Q341 516 358.5 512.5Q376 509 392 503.5Q408 498 420 490V678H502V0H443L433 60ZM420 413Q398 433 366 441Q334 449 302 449Q264 449 234.5 439.5Q205 430 184.5 407.5Q164 385 153 348Q142 311 142 255Q142 148 177.5 104.5Q213 61 285 61Q324 61 357.5 80.5Q391 100 420 136ZM627 678H719L645 507H590Z" glyph-name="dcaron" horiz-adv-x="714" unicode="&#271;" /><glyph d="M607 556H502V0H443L433 60H432Q396 22 353.5 6.5Q311 -9 269 -9Q160 -9 107.5 54Q55 117 55 255Q55 391 114.5 455Q174 519 292 519Q306 519 323.5 517.5Q341 516 358.5 512.5Q376 509 392 503.5Q408 498 420 490V556H273V623H420V678H502V623H607ZM420 413Q398 433 366 441Q334 449 302 449Q264 449 234.5 439.5Q205 430 184.5 407.5Q164 385 153 348Q142 311 142 255Q142 148 177.5 104.5Q213 61 285 61Q324 61 357.5 80.5Q391 100 420 136Z" glyph-name="dcroat" horiz-adv-x="587" unicode="&#273;" /><glyph d="M217 431Q262 431 288 454Q314 477 314 528Q314 579 288 603Q262 627 217 627Q172 627 146 603Q120 579 120 528Q120 477 146 454Q172 431 217 431ZM217 366Q179 366 147 376Q115 386 91.5 406Q68 426 54.5 456.5Q41 487 41 528Q41 569 54.5 599.5Q68 630 91.5 650Q115 670 147 680Q179 690 217 690Q254 690 286.5 680Q319 670 342.5 650Q366 630 379.5 599.5Q393 569 393 528Q393 487 379.5 456.5Q366 426 342.5 406Q319 386 286.5 376Q254 366 217 366Z" glyph-name="degree" horiz-adv-x="434" unicode="&#176;" /><glyph d="M265 587H176V673H265ZM455 587H366V673H455Z" glyph-name="dieresis" horiz-adv-x="600" unicode="&#168;" /><glyph d="M340 402H244V495H340ZM526 236H56V307H526ZM340 51H244V144H340Z" glyph-name="divide" horiz-adv-x="582" unicode="&#247;" /><glyph d="M277 -118H199L233 20Q207 23 179 28.5Q151 34 131 44V123Q153 114 178.5 108.5Q204 103 228 100Q252 97 273.5 96Q295 95 310 95Q394 95 429 124Q464 153 464 200Q464 231 455 250.5Q446 270 429 281.5Q412 293 386 297.5Q360 302 327 304Q288 306 251.5 313.5Q215 321 187 340.5Q159 360 142 394.5Q125 429 125 484Q125 532 143.5 565Q162 598 193 619.5Q224 641 265.5 651Q307 661 352 662L385 795H462L428 658Q448 656 470 651.5Q492 647 511 639V564Q469 580 429.5 583.5Q390 587 362 587Q294 587 257.5 560.5Q221 534 221 485Q221 453 232 435.5Q243 418 261.5 409Q280 400 305 397Q330 394 359 392Q392 389 428 382Q464 375 493 355.5Q522 336 541 301Q560 266 560 207Q560 154 539 117.5Q518 81 483.5 58.5Q449 36 404 26Q359 16 310 16Z" glyph-name="dollar" horiz-adv-x="660" unicode="$" /><glyph d="M346 587H254V676H346Z" glyph-name="dotaccent" horiz-adv-x="600" unicode="&#729;" /><glyph d="M167 0H85V510H167Z" glyph-name="dotlessi" horiz-adv-x="252" unicode="&#305;" /><glyph d="M33 -168Q61 -126 77 -72Q93 -18 93 41V510H175V103Q175 59 173 22Q171 -15 164.5 -47.5Q158 -80 146 -109.5Q134 -139 114 -168Z" glyph-name="dotlessj" horiz-adv-x="257" unicode="&#567;" /><glyph d="M144 238Q146 190 155 154Q164 118 187 95Q224 58 311 58Q343 58 383 62.5Q423 67 462 82V12Q444 5 422 0.5Q400 -4 378 -7Q356 -10 335 -11Q314 -12 297 -12Q169 -12 112 52.5Q55 117 55 255Q55 330 72 381Q89 432 119 463.5Q149 495 190.5 508.5Q232 522 282 522Q389 522 436.5 467.5Q484 413 484 308Q484 299 482.5 277Q481 255 479 238ZM281 452Q255 452 230.5 445.5Q206 439 187 420Q154 387 146 305H402Q403 315 403 319.5Q403 324 403 326Q403 358 396.5 383Q390 408 374 424Q359 439 335 445.5Q311 452 281 452Z" glyph-name="e" horiz-adv-x="536" unicode="e" /><glyph d="M144 238Q146 190 155 154Q164 118 187 95Q224 58 311 58Q343 58 383 62.5Q423 67 462 82V12Q444 5 422 0.5Q400 -4 378 -7Q356 -10 335 -11Q314 -12 297 -12Q169 -12 112 52.5Q55 117 55 255Q55 330 72 381Q89 432 119 463.5Q149 495 190.5 508.5Q232 522 282 522Q389 522 436.5 467.5Q484 413 484 308Q484 299 482.5 277Q481 255 479 238ZM281 452Q255 452 230.5 445.5Q206 439 187 420Q154 387 146 305H402Q403 315 403 319.5Q403 324 403 326Q403 358 396.5 383Q390 408 374 424Q359 439 335 445.5Q311 452 281 452ZM320 566H243L351 678H460Z" glyph-name="eacute" horiz-adv-x="536" unicode="&#233;" /><glyph d="M289 618Q304 618 320 620.5Q336 623 349.5 630Q363 637 373 648.5Q383 660 386 678H457Q447 615 402 587.5Q357 560 289 560Q221 560 176 587.5Q131 615 121 678H192Q195 660 205 648.5Q215 637 228.5 630Q242 623 258 620.5Q274 618 289 618ZM144 238Q146 190 155 154Q164 118 187 95Q224 58 311 58Q343 58 383 62.5Q423 67 462 82V12Q444 5 422 0.5Q400 -4 378 -7Q356 -10 335 -11Q314 -12 297 -12Q169 -12 112 52.5Q55 117 55 255Q55 330 72 381Q89 432 119 463.5Q149 495 190.5 508.5Q232 522 282 522Q389 522 436.5 467.5Q484 413 484 308Q484 299 482.5 277Q481 255 479 238ZM281 452Q255 452 230.5 445.5Q206 439 187 420Q154 387 146 305H402Q403 315 403 319.5Q403 324 403 326Q403 358 396.5 383Q390 408 374 424Q359 439 335 445.5Q311 452 281 452Z" glyph-name="ebreve" horiz-adv-x="536" unicode="&#277;" /><glyph d="M144 238Q146 190 155 154Q164 118 187 95Q224 58 311 58Q343 58 383 62.5Q423 67 462 82V12Q444 5 422 0.5Q400 -4 378 -7Q356 -10 335 -11Q314 -12 297 -12Q169 -12 112 52.5Q55 117 55 255Q55 330 72 381Q89 432 119 463.5Q149 495 190.5 508.5Q232 522 282 522Q389 522 436.5 467.5Q484 413 484 308Q484 299 482.5 277Q481 255 479 238ZM281 452Q255 452 230.5 445.5Q206 439 187 420Q154 387 146 305H402Q403 315 403 319.5Q403 324 403 326Q403 358 396.5 383Q390 408 374 424Q359 439 335 445.5Q311 452 281 452ZM139 678H220L288 608L356 678H437L327 562H248Z" glyph-name="ecaron" horiz-adv-x="536" unicode="&#283;" /><glyph d="M144 238Q146 190 155 154Q164 118 187 95Q224 58 311 58Q343 58 383 62.5Q423 67 462 82V12Q444 5 422 0.5Q400 -4 378 -7Q356 -10 335 -11Q314 -12 297 -12Q169 -12 112 52.5Q55 117 55 255Q55 330 72 381Q89 432 119 463.5Q149 495 190.5 508.5Q232 522 282 522Q389 522 436.5 467.5Q484 413 484 308Q484 299 482.5 277Q481 255 479 238ZM281 452Q255 452 230.5 445.5Q206 439 187 420Q154 387 146 305H402Q403 315 403 319.5Q403 324 403 326Q403 358 396.5 383Q390 408 374 424Q359 439 335 445.5Q311 452 281 452ZM429 566H348L280 636L212 566H131L241 682H320Z" glyph-name="ecircumflex" horiz-adv-x="536" unicode="&#234;" /><glyph d="M144 238Q146 190 155 154Q164 118 187 95Q224 58 311 58Q343 58 383 62.5Q423 67 462 82V12Q444 5 422 0.5Q400 -4 378 -7Q356 -10 335 -11Q314 -12 297 -12Q169 -12 112 52.5Q55 117 55 255Q55 330 72 381Q89 432 119 463.5Q149 495 190.5 508.5Q232 522 282 522Q389 522 436.5 467.5Q484 413 484 308Q484 299 482.5 277Q481 255 479 238ZM281 452Q255 452 230.5 445.5Q206 439 187 420Q154 387 146 305H402Q403 315 403 319.5Q403 324 403 326Q403 358 396.5 383Q390 408 374 424Q359 439 335 445.5Q311 452 281 452ZM230 587H141V673H230ZM420 587H331V673H420Z" glyph-name="edieresis" horiz-adv-x="536" unicode="&#235;" /><glyph d="M144 238Q146 190 155 154Q164 118 187 95Q224 58 311 58Q343 58 383 62.5Q423 67 462 82V12Q444 5 422 0.5Q400 -4 378 -7Q356 -10 335 -11Q314 -12 297 -12Q169 -12 112 52.5Q55 117 55 255Q55 330 72 381Q89 432 119 463.5Q149 495 190.5 508.5Q232 522 282 522Q389 522 436.5 467.5Q484 413 484 308Q484 299 482.5 277Q481 255 479 238ZM281 452Q255 452 230.5 445.5Q206 439 187 420Q154 387 146 305H402Q403 315 403 319.5Q403 324 403 326Q403 358 396.5 383Q390 408 374 424Q359 439 335 445.5Q311 452 281 452ZM332 587H240V676H332Z" glyph-name="edotaccent" horiz-adv-x="536" unicode="&#279;" /><glyph d="M144 238Q146 190 155 154Q164 118 187 95Q224 58 311 58Q343 58 383 62.5Q423 67 462 82V12Q444 5 422 0.5Q400 -4 378 -7Q356 -10 335 -11Q314 -12 297 -12Q169 -12 112 52.5Q55 117 55 255Q55 330 72 381Q89 432 119 463.5Q149 495 190.5 508.5Q232 522 282 522Q389 522 436.5 467.5Q484 413 484 308Q484 299 482.5 277Q481 255 479 238ZM281 452Q255 452 230.5 445.5Q206 439 187 420Q154 387 146 305H402Q403 315 403 319.5Q403 324 403 326Q403 358 396.5 383Q390 408 374 424Q359 439 335 445.5Q311 452 281 452ZM109 678H218L326 566H249Z" glyph-name="egrave" horiz-adv-x="536" unicode="&#232;" /><glyph d="M316 690Q368 690 410.5 678.5Q453 667 483.5 645Q514 623 530.5 590Q547 557 547 514Q547 480 538.5 453Q530 426 516 406Q502 386 484.5 371.5Q467 357 450 348V346Q501 326 530.5 283Q560 240 560 179Q560 128 540.5 92Q521 56 488 32.5Q455 9 410.5 -1.5Q366 -12 316 -12Q266 -12 222 -1.5Q178 9 145 32.5Q112 56 93 92Q74 128 74 179Q74 240 103.5 283Q133 326 184 346V348Q167 357 149.5 371.5Q132 386 118 406Q104 426 95.5 453Q87 480 87 514Q87 557 103.5 590Q120 623 150 645Q180 667 222.5 678.5Q265 690 316 690ZM317 56Q342 56 370 61.5Q398 67 420.5 80.5Q443 94 458 118Q473 142 473 180Q473 212 464.5 234Q456 256 442 270Q422 290 392.5 301Q363 312 317 312Q271 312 241.5 301Q212 290 192 270Q178 256 169.5 234Q161 212 161 180Q161 142 176 118Q191 94 213.5 80.5Q236 67 263.5 61.5Q291 56 317 56ZM317 384Q355 384 381.5 393Q408 402 431 425Q460 454 460 504Q460 529 454 550.5Q448 572 432 588Q416 604 388 612.5Q360 621 317 621Q273 621 245.5 612.5Q218 604 202 588Q186 572 180 550.5Q174 529 174 504Q174 454 203 425Q226 402 252.5 393Q279 384 317 384Z" glyph-name="eight" horiz-adv-x="634" unicode="8" /><glyph d="M148 0H42V107H148ZM572 0H466V107H572ZM995 0H889V107H995Z" glyph-name="ellipsis" horiz-adv-x="1037" unicode="&#8230;" /><glyph d="M144 238Q146 190 155 154Q164 118 187 95Q224 58 311 58Q343 58 383 62.5Q423 67 462 82V12Q444 5 422 0.5Q400 -4 378 -7Q356 -10 335 -11Q314 -12 297 -12Q169 -12 112 52.5Q55 117 55 255Q55 330 72 381Q89 432 119 463.5Q149 495 190.5 508.5Q232 522 282 522Q389 522 436.5 467.5Q484 413 484 308Q484 299 482.5 277Q481 255 479 238ZM281 452Q255 452 230.5 445.5Q206 439 187 420Q154 387 146 305H402Q403 315 403 319.5Q403 324 403 326Q403 358 396.5 383Q390 408 374 424Q359 439 335 445.5Q311 452 281 452ZM453 599H122V667H453Z" glyph-name="emacron" horiz-adv-x="536" unicode="&#275;" /><glyph d="M1089 236H56V307H1089Z" glyph-name="emdash" horiz-adv-x="1145" unicode="&#8212;" /><glyph d="M552 236H56V307H552Z" glyph-name="endash" horiz-adv-x="608" unicode="&#8211;" /><glyph d="M157 438Q201 483 250.5 501Q300 519 351 519Q398 519 429 509Q460 499 479 479.5Q498 460 505.5 430Q513 400 513 360V56Q513 3 501.5 -53.5Q490 -110 450 -168H370Q396 -129 413.5 -76Q431 -23 431 42V343Q431 400 410 423.5Q389 447 331 447Q284 447 241.5 425.5Q199 404 167 363V0H85V510H144L156 438Z" glyph-name="eng" horiz-adv-x="589" unicode="&#331;" /><glyph d="M144 238Q146 190 155 154Q164 118 187 95Q224 58 311 58Q343 58 383 62.5Q423 67 462 82V12Q427 -7 410 -33.5Q393 -60 393 -80Q393 -96 403 -107Q413 -118 437 -118Q451 -118 467 -116Q483 -114 500 -109V-164Q485 -170 463.5 -172Q442 -174 425 -174Q367 -174 342.5 -151Q318 -128 318 -93Q318 -73 329.5 -50.5Q341 -28 363 -8Q345 -10 328 -11Q311 -12 297 -12Q169 -12 112 52.5Q55 117 55 255Q55 330 72 381Q89 432 119 463.5Q149 495 190.5 508.5Q232 522 282 522Q389 522 436.5 467.5Q484 413 484 308Q484 299 482.5 277Q481 255 479 238ZM281 452Q255 452 230.5 445.5Q206 439 187 420Q154 387 146 305H402Q403 315 403 319.5Q403 324 403 326Q403 358 396.5 383Q390 408 374 424Q359 439 335 445.5Q311 452 281 452Z" glyph-name="eogonek" horiz-adv-x="536" unicode="&#281;" /><glyph d="M552 340H56V411H552ZM552 138H56V209H552Z" glyph-name="equal" horiz-adv-x="608" unicode="=" /><glyph d="M400 490Q401 490 402 491Q388 527 366.5 553.5Q345 580 319 598L174 532L153 580L268 631Q254 639 237.5 647Q221 655 201 661L258 701Q278 695 297 687Q316 679 339 665L449 714L471 666L388 629Q457 569 494 477.5Q531 386 531 253Q531 172 511 120.5Q491 69 457.5 39.5Q424 10 380 -1Q336 -12 287 -12Q242 -12 200 -1Q158 10 126 40Q94 70 74.5 123Q55 176 55 260Q55 342 76 393.5Q97 445 129.5 473.5Q162 502 202 512Q242 522 280 522Q291 522 306.5 520.5Q322 519 338.5 515.5Q355 512 371 506Q387 500 400 490ZM444 255Q444 315 433.5 354Q423 393 401 415Q381 435 354 443.5Q327 452 292 452Q257 452 230 443.5Q203 435 183 415Q161 393 150.5 354Q140 315 140 255Q140 195 150.5 156Q161 117 183 95Q203 75 230 66.5Q257 58 292 58Q327 58 354 66.5Q381 75 401 95Q423 117 433.5 156Q444 195 444 255Z" glyph-name="eth" horiz-adv-x="586" unicode="&#240;" /><glyph d="M189 0H83V107H189ZM170 216H102L89 678H183Z" glyph-name="exclam" horiz-adv-x="272" unicode="!" /><glyph d="M189 403H83V510H189ZM183 -168H89L102 294H170Z" glyph-name="exclamdown" horiz-adv-x="272" unicode="&#161;" /><glyph d="M201 0H119V443H30V501L119 508V535Q119 580 128 609.5Q137 639 156.5 656Q176 673 206.5 680Q237 687 280 687Q299 687 329.5 685Q360 683 389 676V608Q365 614 337.5 616Q310 618 292 618Q260 618 242 613.5Q224 609 215 599.5Q206 590 203.5 574Q201 558 201 536V510H378V443H201Z" glyph-name="f" horiz-adv-x="371" unicode="f" /><glyph d="M201 0H119V443H30V501L119 508V535Q119 580 128 609.5Q137 639 156.5 656Q176 673 206.5 680Q237 687 280 687Q297 687 319.5 685Q342 683 368 676V608Q346 614 327.5 616Q309 618 292 618Q260 618 242 613.5Q224 609 215 599.5Q206 590 203.5 574Q201 558 201 536V510H368V443H201ZM534 0H452V510H534ZM541 585H446V678H541Z" glyph-name="fi" horiz-adv-x="623" unicode="&#64257;" /><glyph d="M515 203Q515 147 496 107Q477 67 443 41Q409 15 363.5 2.5Q318 -10 266 -10Q226 -10 177.5 -3Q129 4 91 18V90Q109 84 133 79Q157 74 181 70.5Q205 67 227.5 65Q250 63 265 63Q299 63 328.5 70Q358 77 380 93Q402 109 415 135.5Q428 162 428 200Q428 245 411.5 271Q395 297 369.5 309.5Q344 322 311.5 325.5Q279 329 248 329Q240 329 228.5 329Q217 329 200.5 328Q184 327 160 326Q136 325 103 324V678H477V611H186V399Q209 400 223 400Q237 400 244 400Q297 400 346 393Q395 386 432.5 365Q470 344 492.5 305.5Q515 267 515 203Z" glyph-name="five" horiz-adv-x="563" unicode="5" /><glyph d="M201 0H119V443H30V501L119 508V535Q119 580 128 609.5Q137 639 156.5 656Q176 673 206.5 680Q237 687 280 687Q297 687 319.5 685Q342 683 368 676V608Q346 614 327.5 616Q309 618 292 618Q260 618 242 613.5Q224 609 215 599.5Q206 590 203.5 574Q201 558 201 536V510H368V443H201ZM534 0H452V678H534Z" glyph-name="fl" horiz-adv-x="619" unicode="&#64258;" /><glyph d="M79 -50Q92 -53 104.5 -54Q117 -55 128 -55Q155 -55 173 -47Q191 -39 201.5 -24Q212 -9 217 12.5Q222 34 224 61L248 310H179V381H253L268 523Q271 559 281.5 589.5Q292 620 312 642.5Q332 665 363.5 677.5Q395 690 441 690Q467 690 497 685Q527 680 558 667V591Q526 605 500 610Q474 615 451 615Q424 615 406.5 607Q389 599 378.5 584Q368 569 363 547.5Q358 526 356 499L344 381H505V310H338L312 37Q309 1 298.5 -29.5Q288 -60 267.5 -82.5Q247 -105 215.5 -117.5Q184 -130 138 -130Q124 -130 109 -129Q94 -128 79 -125Z" glyph-name="florin" horiz-adv-x="660" unicode="&#402;" /><glyph d="M464 0H381V164H45L41 236L283 676H372L130 231H382L395 458H464V233H549V164H464Z" glyph-name="four" horiz-adv-x="575" unicode="4" /><glyph d="M-112 0H-188L291 678H367Z" glyph-name="fraction" horiz-adv-x="179" unicode="&#8260;" /><glyph d="M494 18Q494 -48 472 -87Q450 -126 416.5 -146.5Q383 -167 341.5 -173.5Q300 -180 261 -180Q224 -180 175.5 -174.5Q127 -169 90 -156V-82Q123 -93 163.5 -99.5Q204 -106 252 -106Q289 -106 318.5 -100.5Q348 -95 369 -81.5Q390 -68 401 -45.5Q412 -23 412 11V90H410Q376 58 339 45Q302 32 264 32Q160 32 107.5 90Q55 148 55 275Q55 400 114.5 459.5Q174 519 287 519Q299 519 316.5 517Q334 515 353.5 510.5Q373 506 392 497.5Q411 489 427 477H429L439 510H494ZM412 411Q391 431 359.5 440Q328 449 297 449Q262 449 233 440.5Q204 432 184 412Q164 392 153 358.5Q142 325 142 275Q142 179 176 140.5Q210 102 278 102Q316 102 351 121Q386 140 412 176Z" glyph-name="g" horiz-adv-x="579" unicode="g" /><glyph d="M494 18Q494 -48 472 -87Q450 -126 416.5 -146.5Q383 -167 341.5 -173.5Q300 -180 261 -180Q224 -180 175.5 -174.5Q127 -169 90 -156V-82Q123 -93 163.5 -99.5Q204 -106 252 -106Q289 -106 318.5 -100.5Q348 -95 369 -81.5Q390 -68 401 -45.5Q412 -23 412 11V90H410Q376 58 339 45Q302 32 264 32Q160 32 107.5 90Q55 148 55 275Q55 400 114.5 459.5Q174 519 287 519Q299 519 316.5 517Q334 515 353.5 510.5Q373 506 392 497.5Q411 489 427 477H429L439 510H494ZM412 411Q391 431 359.5 440Q328 449 297 449Q262 449 233 440.5Q204 432 184 412Q164 392 153 358.5Q142 325 142 275Q142 179 176 140.5Q210 102 278 102Q316 102 351 121Q386 140 412 176ZM285 618Q300 618 316 620.5Q332 623 345.5 630Q359 637 369 648.5Q379 660 382 678H453Q443 615 398 587.5Q353 560 285 560Q217 560 172 587.5Q127 615 117 678H188Q191 660 201 648.5Q211 637 224.5 630Q238 623 254 620.5Q270 618 285 618Z" glyph-name="gbreve" horiz-adv-x="579" unicode="&#287;" /><glyph d="M494 18Q494 -48 472 -87Q450 -126 416.5 -146.5Q383 -167 341.5 -173.5Q300 -180 261 -180Q224 -180 175.5 -174.5Q127 -169 90 -156V-82Q123 -93 163.5 -99.5Q204 -106 252 -106Q289 -106 318.5 -100.5Q348 -95 369 -81.5Q390 -68 401 -45.5Q412 -23 412 11V90H410Q376 58 339 45Q302 32 264 32Q160 32 107.5 90Q55 148 55 275Q55 400 114.5 459.5Q174 519 287 519Q299 519 316.5 517Q334 515 353.5 510.5Q373 506 392 497.5Q411 489 427 477H429L439 510H494ZM412 411Q391 431 359.5 440Q328 449 297 449Q262 449 233 440.5Q204 432 184 412Q164 392 153 358.5Q142 325 142 275Q142 179 176 140.5Q210 102 278 102Q316 102 351 121Q386 140 412 176ZM443 566H362L294 636L226 566H145L255 682H334Z" glyph-name="gcircumflex" horiz-adv-x="579" unicode="&#285;" /><glyph d="M494 18Q494 -48 472 -87Q450 -126 416.5 -146.5Q383 -167 341.5 -173.5Q300 -180 261 -180Q224 -180 175.5 -174.5Q127 -169 90 -156V-82Q123 -93 163.5 -99.5Q204 -106 252 -106Q289 -106 318.5 -100.5Q348 -95 369 -81.5Q390 -68 401 -45.5Q412 -23 412 11V90H410Q376 58 339 45Q302 32 264 32Q160 32 107.5 90Q55 148 55 275Q55 400 114.5 459.5Q174 519 287 519Q299 519 316.5 517Q334 515 353.5 510.5Q373 506 392 497.5Q411 489 427 477H429L439 510H494ZM412 411Q391 431 359.5 440Q328 449 297 449Q262 449 233 440.5Q204 432 184 412Q164 392 153 358.5Q142 325 142 275Q142 179 176 140.5Q210 102 278 102Q316 102 351 121Q386 140 412 176ZM313 737H405L331 566H276Z" glyph-name="gcommaaccent" horiz-adv-x="579" unicode="&#291;" /><glyph d="M494 18Q494 -48 472 -87Q450 -126 416.5 -146.5Q383 -167 341.5 -173.5Q300 -180 261 -180Q224 -180 175.5 -174.5Q127 -169 90 -156V-82Q123 -93 163.5 -99.5Q204 -106 252 -106Q289 -106 318.5 -100.5Q348 -95 369 -81.5Q390 -68 401 -45.5Q412 -23 412 11V90H410Q376 58 339 45Q302 32 264 32Q160 32 107.5 90Q55 148 55 275Q55 400 114.5 459.5Q174 519 287 519Q299 519 316.5 517Q334 515 353.5 510.5Q373 506 392 497.5Q411 489 427 477H429L439 510H494ZM412 411Q391 431 359.5 440Q328 449 297 449Q262 449 233 440.5Q204 432 184 412Q164 392 153 358.5Q142 325 142 275Q142 179 176 140.5Q210 102 278 102Q316 102 351 121Q386 140 412 176ZM336 587H244V676H336Z" glyph-name="gdotaccent" horiz-adv-x="579" unicode="&#289;" /><glyph d="M365 349Q365 334 371.5 325.5Q378 317 388 312.5Q398 308 410.5 306Q423 304 436 304Q466 303 500 299Q534 295 562.5 279.5Q591 264 610 233Q629 202 629 147Q629 103 612 73Q595 43 566.5 24Q538 5 500 -3.5Q462 -12 420 -12Q410 -12 391 -11Q372 -10 350 -7Q328 -4 305 0.5Q282 5 265 12V86Q284 79 306 74.5Q328 70 349.5 67Q371 64 390 63Q409 62 422 62Q489 62 516.5 83.5Q544 105 544 144Q544 172 533 188Q522 204 506 211Q490 218 471.5 219.5Q453 221 438 221Q415 221 387.5 225Q360 229 336 242.5Q312 256 296 281.5Q280 307 280 351Q280 375 290 394Q300 413 314 427Q326 439 339.5 449Q353 459 367 467.5Q381 476 394 484.5Q407 493 416 502Q433 519 433 545Q433 564 423.5 577.5Q414 591 399 600Q384 609 365.5 613Q347 617 329 617Q285 617 254.5 606.5Q224 596 204.5 578Q185 560 176 536.5Q167 513 167 486V0H85V465Q85 581 145.5 636Q206 691 324 691Q373 691 409.5 679.5Q446 668 470 648Q494 628 506 601Q518 574 518 542Q518 513 508.5 493.5Q499 474 483 458Q460 435 429.5 419Q399 403 380 384Q372 376 368.5 368.5Q365 361 365 349Z" glyph-name="germandbls" horiz-adv-x="661" unicode="&#223;" /><glyph d="M143 678H252L360 566H283Z" glyph-name="grave" horiz-adv-x="600" unicode="`" /><glyph d="M60 -12V76L269 171Q291 181 318.5 193Q346 205 377 218.5Q408 232 439.5 245.5Q471 259 501 271V272Q471 284 439.5 297.5Q408 311 377 324.5Q346 338 318.5 350Q291 362 269 372L60 467V555L607 306V237Z" glyph-name="greater" horiz-adv-x="649" unicode="&gt;" /><glyph d="M410 337Q366 353 321 370Q276 387 245 399L60 472V556L533 367V306L60 117V201L245 274Q276 286 321 303Q366 320 410 335ZM60 71H533V0H60Z" glyph-name="greaterequal" horiz-adv-x="575" unicode="&#8805;" /><glyph d="M411 51 252 282 411 510H513L357 282L513 51ZM221 51 62 282 221 510H323L167 282L323 51Z" glyph-name="guillemotleft" horiz-adv-x="575" unicode="&#171;" /><glyph d="M62 51 218 282 62 510H164L323 282L164 51ZM252 51 408 282 252 510H354L513 282L354 51Z" glyph-name="guillemotright" horiz-adv-x="575" unicode="&#187;" /><glyph d="M221 51 62 282 221 510H323L167 282L323 51Z" glyph-name="guilsinglleft" horiz-adv-x="385" unicode="&#8249;" /><glyph d="M62 51 218 282 62 510H164L323 282L164 51Z" glyph-name="guilsinglright" horiz-adv-x="385" unicode="&#8250;" /><glyph d="M169 447Q211 487 257 503Q303 519 351 519Q398 519 429 509Q460 499 479 479.5Q498 460 505.5 430Q513 400 513 360V0H431V343Q431 400 410 423.5Q389 447 331 447Q284 447 241.5 425.5Q199 404 167 363V0H85V678H167V447H169Z" glyph-name="h" horiz-adv-x="589" unicode="h" /><glyph d="M314 556H167V447H169Q211 487 257 503Q303 519 351 519Q398 519 429 509Q460 499 479 479.5Q498 460 505.5 430Q513 400 513 360V0H431V343Q431 400 410 423.5Q389 447 331 447Q284 447 241.5 425.5Q199 404 167 363V0H85V556H-20V623H85V678H167V623H314Z" glyph-name="hbar" horiz-adv-x="589" unicode="&#295;" /><glyph d="M169 447Q211 487 257 503Q303 519 351 519Q398 519 429 509Q460 499 479 479.5Q498 460 505.5 430Q513 400 513 360V0H431V343Q431 400 410 423.5Q389 447 331 447Q284 447 241.5 425.5Q199 404 167 363V0H85V678H167V447ZM275 735H194L126 805L58 735H-23L87 851H166Z" glyph-name="hcircumflex" horiz-adv-x="589" unicode="&#293;" /><glyph d="M245 566H181L289 678H385ZM385 566H321L429 678H525Z" glyph-name="hungarumlaut" horiz-adv-x="600" unicode="&#733;" /><glyph d="M352 236H32V307H352Z" glyph-name="hyphen" horiz-adv-x="384" unicode="-" /><glyph d="M167 0H85V510H167ZM174 585H78V678H174Z" glyph-name="i" horiz-adv-x="256" unicode="i" /><glyph d="M167 0H85V510H167ZM168 566H91L199 678H308Z" glyph-name="iacute" horiz-adv-x="252" unicode="&#237;" /><glyph d="M167 0H85V510H167ZM126 618Q141 618 157 620.5Q173 623 186.5 630Q200 637 210 648.5Q220 660 223 678H294Q284 615 239 587.5Q194 560 126 560Q58 560 13 587.5Q-32 615 -42 678H29Q32 660 42 648.5Q52 637 65.5 630Q79 623 95 620.5Q111 618 126 618Z" glyph-name="ibreve" horiz-adv-x="252" unicode="&#301;" /><glyph d="M167 0H85V510H167ZM275 566H194L126 636L58 566H-23L87 682H166Z" glyph-name="icircumflex" horiz-adv-x="252" unicode="&#238;" /><glyph d="M167 0H85V510H167ZM76 587H-13V673H76ZM266 587H177V673H266Z" glyph-name="idieresis" horiz-adv-x="252" unicode="&#239;" /><glyph d="M167 0H85V510H167ZM-57 678H52L160 566H83Z" glyph-name="igrave" horiz-adv-x="252" unicode="&#236;" /><glyph d="M167 0H85V510H167ZM174 585H78V678H174ZM286 -168Q314 -126 330 -72Q346 -18 346 41V510H428V103Q428 59 426 22Q424 -15 417.5 -47.5Q411 -80 399 -109.5Q387 -139 367 -168ZM435 585H339V678H435Z" glyph-name="ij" horiz-adv-x="517" unicode="&#307;" /><glyph d="M167 0H85V510H167ZM292 599H-39V667H292Z" glyph-name="imacron" horiz-adv-x="252" unicode="&#299;" /><glyph d="M718 345Q718 311 705 285.5Q692 260 669.5 242.5Q647 225 617 216.5Q587 208 553 208Q505 208 464.5 232Q424 256 393 288Q361 256 320.5 232Q280 208 233 208Q198 208 168 216.5Q138 225 115.5 242.5Q93 260 80 285.5Q67 311 67 345Q67 379 80 405Q93 431 115.5 448Q138 465 168 474Q198 483 233 483Q282 483 321.5 459.5Q361 436 393 401Q425 436 464 459.5Q503 483 553 483Q587 483 617 474Q647 465 669.5 448Q692 431 705 405Q718 379 718 345ZM640 345Q640 366 632.5 380Q625 394 613 402.5Q601 411 585.5 414Q570 417 555 417Q518 417 487.5 394.5Q457 372 437 345Q456 318 486 296Q516 274 555 274Q570 274 585.5 277Q601 280 613 288Q625 296 632.5 309.5Q640 323 640 345ZM145 345Q145 323 152.5 309.5Q160 296 172 288Q184 280 199 277Q214 274 230 274Q268 274 298 296.5Q328 319 348 345Q328 372 298 394.5Q268 417 230 417Q214 417 199 413.5Q184 410 172 402Q160 394 152.5 380Q145 366 145 345Z" glyph-name="infinity" horiz-adv-x="785" unicode="&#8734;" /><glyph d="M143 528Q138 618 173 652.5Q208 687 282 687Q298 687 321 684.5Q344 682 368 673V605Q348 613 328.5 615.5Q309 618 294 618Q270 618 256 612.5Q242 607 235.5 596Q229 585 227 568Q225 551 225 529V-15Q225 -60 217 -90.5Q209 -121 192.5 -139.5Q176 -158 149.5 -166Q123 -174 86 -174Q70 -174 47 -171.5Q24 -169 0 -160V-92Q20 -100 39.5 -102.5Q59 -105 74 -105Q98 -105 112 -99.5Q126 -94 132.5 -83Q139 -72 141 -55.5Q143 -39 143 -16Z" glyph-name="integral" horiz-adv-x="383" unicode="&#8747;" /><glyph d="M85 0V510H167V0Q142 -14 127 -37Q112 -60 112 -80Q112 -96 122 -107Q132 -118 156 -118Q170 -118 186 -116Q202 -114 219 -109V-164Q204 -170 182.5 -172Q161 -174 144 -174Q86 -174 61.5 -151Q37 -128 37 -93Q37 -65 55 -39.5Q73 -14 95 0ZM174 585H78V678H174Z" glyph-name="iogonek" horiz-adv-x="252" unicode="&#303;" /><glyph d="M167 0H85V510H167ZM201 656Q223 656 248 667Q273 678 293 692V626Q278 615 252 603Q226 591 202 591Q183 591 163.5 596Q144 601 125.5 607.5Q107 614 88.5 619Q70 624 52 624Q30 624 5 613Q-20 602 -40 588V654Q-25 665 1 677.5Q27 690 51 690Q70 690 89 684.5Q108 679 126.5 673Q145 667 163.5 661.5Q182 656 201 656Z" glyph-name="itilde" horiz-adv-x="252" unicode="&#297;" /><glyph d="M30 -168Q58 -126 74 -72Q90 -18 90 41V510H172V103Q172 59 170 22Q168 -15 161.5 -47.5Q155 -80 143 -109.5Q131 -139 111 -168ZM179 585H83V678H179Z" glyph-name="j" horiz-adv-x="261" unicode="j" /><glyph d="M33 -168Q61 -126 77 -72Q93 -18 93 41V510H175V103Q175 59 173 22Q171 -15 164.5 -47.5Q158 -80 146 -109.5Q134 -139 114 -168ZM283 566H202L134 636L66 566H-15L95 682H174Z" glyph-name="jcircumflex" horiz-adv-x="257" unicode="&#309;" /><glyph d="M167 305H239L378 510H471L309 274L504 0H406L239 238H167V0H85V678H167Z" glyph-name="k" horiz-adv-x="516" unicode="k" /><glyph d="M167 305H239L378 510H471L309 274L504 0H406L239 238H167V0H85V678H167ZM229 -76H321L247 -247H192Z" glyph-name="kcommaaccent" horiz-adv-x="516" unicode="&#311;" /><glyph d="M167 510V305H239L378 510H471L309 274L504 0H406L239 238H167V0H85V510Z" glyph-name="kgreenlandic" horiz-adv-x="516" unicode="&#312;" /><glyph d="M167 0H85V678H167Z" glyph-name="l" horiz-adv-x="252" unicode="l" /><glyph d="M167 0H85V678H167ZM164 734H87L195 846H304Z" glyph-name="lacute" horiz-adv-x="252" unicode="&#314;" /><glyph d="M167 0H85V678H167ZM292 678H384L310 507H255Z" glyph-name="lcaron" horiz-adv-x="379" unicode="&#318;" /><glyph d="M167 0H85V678H167ZM76 -76H168L94 -247H39Z" glyph-name="lcommaaccent" horiz-adv-x="252" unicode="&#316;" /><glyph d="M167 0H85V678H167ZM362 303H273V388H362Z" glyph-name="ldot" horiz-adv-x="395" unicode="&#320;" /><glyph d="M42 237V306L589 555V467L380 372Q358 362 330.5 350Q303 338 272 324.5Q241 311 209.5 297.5Q178 284 148 272V271Q178 259 209.5 245.5Q241 232 272 218.5Q303 205 330.5 193Q358 181 380 171L589 76V-12Z" glyph-name="less" horiz-adv-x="649" unicode="&lt;" /><glyph d="M165 335Q209 320 254 303Q299 286 330 274L515 201V117L42 306V367L515 556V472L330 399Q299 387 254 370Q209 353 165 337ZM515 0H42V71H515Z" glyph-name="lessequal" horiz-adv-x="575" unicode="&#8804;" /><glyph d="M398 491H40V558H480V273H398Z" glyph-name="logicalnot" horiz-adv-x="536" unicode="&#172;" /><glyph d="M255 683H323L525 338L323 -7H255L53 338ZM440 338 290 607H288L138 338L288 69H290Z" glyph-name="lozenge" horiz-adv-x="578" unicode="&#9674;" /><glyph d="M185 390 296 462V380L185 309V0H103V256L-3 189V270L103 338V678H185Z" glyph-name="lslash" horiz-adv-x="293" unicode="&#322;" /><glyph d="M479 439Q520 484 564.5 501.5Q609 519 657 519Q701 519 730 509Q759 499 776.5 479.5Q794 460 801.5 430Q809 400 809 360V0H727V344Q727 401 708 424.5Q689 448 637 448Q595 448 556 426.5Q517 405 488 364V0H406V344Q406 401 387 424.5Q368 448 316 448Q274 448 235 426Q196 404 167 363V0H85V510H144L156 438H157Q198 483 243 501Q288 519 336 519Q399 519 432 499Q465 479 478 439Z" glyph-name="m" horiz-adv-x="885" unicode="m" /><glyph d="M465 599H134V667H465Z" glyph-name="macron" horiz-adv-x="600" unicode="&#175;" /><glyph d="M304 326 478 501 532 448 357 273 536 94 483 40 303 219 125 41 72 94 250 272 73 450 126 503Z" glyph-name="multiply" horiz-adv-x="608" unicode="&#215;" /><glyph d="M157 438Q201 483 250.5 501Q300 519 351 519Q398 519 429 509Q460 499 479 479.5Q498 460 505.5 430Q513 400 513 360V0H431V343Q431 400 410 423.5Q389 447 331 447Q284 447 241.5 425.5Q199 404 167 363V0H85V510H144L156 438Z" glyph-name="n" horiz-adv-x="589" unicode="n" /><glyph d="M157 438Q201 483 250.5 501Q300 519 351 519Q398 519 429 509Q460 499 479 479.5Q498 460 505.5 430Q513 400 513 360V0H431V343Q431 400 410 423.5Q389 447 331 447Q284 447 241.5 425.5Q199 404 167 363V0H85V510H144L156 438ZM343 566H266L374 678H483Z" glyph-name="nacute" horiz-adv-x="589" unicode="&#324;" /><glyph d="M157 438Q201 483 250.5 501Q300 519 351 519Q398 519 429 509Q460 499 479 479.5Q498 460 505.5 430Q513 400 513 360V0H431V343Q431 400 410 423.5Q389 447 331 447Q284 447 241.5 425.5Q199 404 167 363V0H85V510H144L156 438ZM150 678H231L299 608L367 678H448L338 562H259Z" glyph-name="ncaron" horiz-adv-x="589" unicode="&#328;" /><glyph d="M157 438Q201 483 250.5 501Q300 519 351 519Q398 519 429 509Q460 499 479 479.5Q498 460 505.5 430Q513 400 513 360V0H431V343Q431 400 410 423.5Q389 447 331 447Q284 447 241.5 425.5Q199 404 167 363V0H85V510H144L156 438ZM260 -76H352L278 -247H223Z" glyph-name="ncommaaccent" horiz-adv-x="589" unicode="&#326;" /><glyph d="M449 325Q431 307 408.5 293.5Q386 280 361.5 271.5Q337 263 313.5 258.5Q290 254 271 254Q214 254 173 271Q132 288 105.5 317.5Q79 347 67 387.5Q55 428 55 475Q55 516 69 554.5Q83 593 111.5 623Q140 653 184.5 671.5Q229 690 291 690Q417 690 477 602.5Q537 515 537 355Q537 269 520.5 201Q504 133 469 85.5Q434 38 379 13Q324 -12 248 -12Q236 -12 217.5 -11Q199 -10 178.5 -7Q158 -4 138 0.5Q118 5 103 11V81Q135 68 174.5 63Q214 58 245 58Q288 58 325.5 69.5Q363 81 390.5 110.5Q418 140 434 192Q450 244 451 325ZM276 327Q322 327 369 349.5Q416 372 448 417Q444 519 404 569.5Q364 620 284 620Q245 620 217.5 608.5Q190 597 173 577.5Q156 558 148 532.5Q140 507 140 478Q140 444 146.5 416.5Q153 389 168.5 369Q184 349 210 338Q236 327 276 327Z" glyph-name="nine" horiz-adv-x="604" unicode="9" /><glyph glyph-name="nonbreakingspace" horiz-adv-x="235" unicode="&#160;" /><glyph glyph-name="nonmarkingreturn" horiz-adv-x="235" /><glyph d="M382 411H552V340H357L312 209H552V138H288L223 -51H147L212 138H56V209H236L281 340H56V411H306L360 568H436Z" glyph-name="notequal" horiz-adv-x="608" unicode="&#8800;" /><glyph d="M157 438Q201 483 250.5 501Q300 519 351 519Q398 519 429 509Q460 499 479 479.5Q498 460 505.5 430Q513 400 513 360V0H431V343Q431 400 410 423.5Q389 447 331 447Q284 447 241.5 425.5Q199 404 167 363V0H85V510H144L156 438ZM374 656Q396 656 421 667Q446 678 466 692V626Q451 615 425 603Q399 591 375 591Q356 591 336.5 596Q317 601 298.5 607.5Q280 614 261.5 619Q243 624 225 624Q203 624 178 613Q153 602 133 588V654Q148 665 174 677.5Q200 690 224 690Q243 690 262 684.5Q281 679 299.5 673Q318 667 336.5 661.5Q355 656 374 656Z" glyph-name="ntilde" horiz-adv-x="589" unicode="&#241;" /><glyph d="M533 181H411L366 0H303L348 181H232L187 0H124L169 181H48L63 240H184L234 438H113L128 497H249L295 678H358L312 497H428L474 678H537L491 497H612L597 438H476L426 240H548ZM247 240H363L413 438H297Z" glyph-name="numbersign" horiz-adv-x="660" unicode="#" /><glyph d="M531 255Q531 179 514 128Q497 77 465.5 46Q434 15 390.5 1.5Q347 -12 293 -12Q239 -12 195.5 1.5Q152 15 120.5 46Q89 77 72 128Q55 179 55 255Q55 331 72 382Q89 433 120.5 464Q152 495 195.5 508.5Q239 522 293 522Q347 522 390.5 508.5Q434 495 465.5 464Q497 433 514 382Q531 331 531 255ZM445 255Q445 315 434.5 354Q424 393 402 415Q382 435 355 443.5Q328 452 293 452Q258 452 231 443.5Q204 435 184 415Q162 393 151.5 354Q141 315 141 255Q141 195 151.5 156Q162 117 184 95Q204 75 231 66.5Q258 58 293 58Q328 58 355 66.5Q382 75 402 95Q424 117 434.5 156Q445 195 445 255Z" glyph-name="o" horiz-adv-x="586" unicode="o" /><glyph d="M531 255Q531 179 514 128Q497 77 465.5 46Q434 15 390.5 1.5Q347 -12 293 -12Q239 -12 195.5 1.5Q152 15 120.5 46Q89 77 72 128Q55 179 55 255Q55 331 72 382Q89 433 120.5 464Q152 495 195.5 508.5Q239 522 293 522Q347 522 390.5 508.5Q434 495 465.5 464Q497 433 514 382Q531 331 531 255ZM445 255Q445 315 434.5 354Q424 393 402 415Q382 435 355 443.5Q328 452 293 452Q258 452 231 443.5Q204 435 184 415Q162 393 151.5 354Q141 315 141 255Q141 195 151.5 156Q162 117 184 95Q204 75 231 66.5Q258 58 293 58Q328 58 355 66.5Q382 75 402 95Q424 117 434.5 156Q445 195 445 255ZM330 566H253L361 678H470Z" glyph-name="oacute" horiz-adv-x="586" unicode="&#243;" /><glyph d="M531 255Q531 179 514 128Q497 77 465.5 46Q434 15 390.5 1.5Q347 -12 293 -12Q239 -12 195.5 1.5Q152 15 120.5 46Q89 77 72 128Q55 179 55 255Q55 331 72 382Q89 433 120.5 464Q152 495 195.5 508.5Q239 522 293 522Q347 522 390.5 508.5Q434 495 465.5 464Q497 433 514 382Q531 331 531 255ZM445 255Q445 315 434.5 354Q424 393 402 415Q382 435 355 443.5Q328 452 293 452Q258 452 231 443.5Q204 435 184 415Q162 393 151.5 354Q141 315 141 255Q141 195 151.5 156Q162 117 184 95Q204 75 231 66.5Q258 58 293 58Q328 58 355 66.5Q382 75 402 95Q424 117 434.5 156Q445 195 445 255ZM293 618Q308 618 324 620.5Q340 623 353.5 630Q367 637 377 648.5Q387 660 390 678H461Q451 615 406 587.5Q361 560 293 560Q225 560 180 587.5Q135 615 125 678H196Q199 660 209 648.5Q219 637 232.5 630Q246 623 262 620.5Q278 618 293 618Z" glyph-name="obreve" horiz-adv-x="586" unicode="&#335;" /><glyph d="M531 255Q531 179 514 128Q497 77 465.5 46Q434 15 390.5 1.5Q347 -12 293 -12Q239 -12 195.5 1.5Q152 15 120.5 46Q89 77 72 128Q55 179 55 255Q55 331 72 382Q89 433 120.5 464Q152 495 195.5 508.5Q239 522 293 522Q347 522 390.5 508.5Q434 495 465.5 464Q497 433 514 382Q531 331 531 255ZM445 255Q445 315 434.5 354Q424 393 402 415Q382 435 355 443.5Q328 452 293 452Q258 452 231 443.5Q204 435 184 415Q162 393 151.5 354Q141 315 141 255Q141 195 151.5 156Q162 117 184 95Q204 75 231 66.5Q258 58 293 58Q328 58 355 66.5Q382 75 402 95Q424 117 434.5 156Q445 195 445 255ZM442 566H361L293 636L225 566H144L254 682H333Z" glyph-name="ocircumflex" horiz-adv-x="586" unicode="&#244;" /><glyph d="M531 255Q531 179 514 128Q497 77 465.5 46Q434 15 390.5 1.5Q347 -12 293 -12Q239 -12 195.5 1.5Q152 15 120.5 46Q89 77 72 128Q55 179 55 255Q55 331 72 382Q89 433 120.5 464Q152 495 195.5 508.5Q239 522 293 522Q347 522 390.5 508.5Q434 495 465.5 464Q497 433 514 382Q531 331 531 255ZM445 255Q445 315 434.5 354Q424 393 402 415Q382 435 355 443.5Q328 452 293 452Q258 452 231 443.5Q204 435 184 415Q162 393 151.5 354Q141 315 141 255Q141 195 151.5 156Q162 117 184 95Q204 75 231 66.5Q258 58 293 58Q328 58 355 66.5Q382 75 402 95Q424 117 434.5 156Q445 195 445 255ZM243 587H154V673H243ZM433 587H344V673H433Z" glyph-name="odieresis" horiz-adv-x="586" unicode="&#246;" /><glyph d="M533 238Q535 190 544 154Q553 118 576 95Q613 58 700 58Q732 58 772 62.5Q812 67 851 82V12Q833 5 811 0.5Q789 -4 767 -7Q745 -10 724 -11Q703 -12 686 -12Q611 -12 562 9.5Q513 31 486 76Q457 28 408 8Q359 -12 293 -12Q239 -12 195.5 1.5Q152 15 120.5 46Q89 77 72 128Q55 179 55 255Q55 331 72 382Q89 433 120.5 464Q152 495 195.5 508.5Q239 522 293 522Q359 522 408 501Q457 480 486 432Q515 481 562.5 501.5Q610 522 671 522Q778 522 825.5 467.5Q873 413 873 308Q873 299 871.5 277Q870 255 868 238ZM670 452Q644 452 619.5 445.5Q595 439 576 420Q543 387 535 305H791Q792 315 792 319.5Q792 324 792 326Q792 358 785.5 383Q779 408 763 424Q748 439 724 445.5Q700 452 670 452ZM445 255Q445 315 434.5 354Q424 393 402 415Q382 435 355 443.5Q328 452 293 452Q258 452 231 443.5Q204 435 184 415Q162 393 151.5 354Q141 315 141 255Q141 195 151.5 156Q162 117 184 95Q204 75 231 66.5Q258 58 293 58Q328 58 355 66.5Q382 75 402 95Q424 117 434.5 156Q445 195 445 255Z" glyph-name="oe" horiz-adv-x="925" unicode="&#339;" /><glyph d="M339 0Q314 -14 299 -37Q284 -60 284 -80Q284 -96 294 -107Q304 -118 328 -118Q342 -118 358 -116Q374 -114 391 -109V-164Q376 -170 354.5 -172Q333 -174 316 -174Q258 -174 233.5 -151Q209 -128 209 -93Q209 -65 227 -39.5Q245 -14 267 0Z" glyph-name="ogonek" horiz-adv-x="600" unicode="&#731;" /><glyph d="M531 255Q531 179 514 128Q497 77 465.5 46Q434 15 390.5 1.5Q347 -12 293 -12Q239 -12 195.5 1.5Q152 15 120.5 46Q89 77 72 128Q55 179 55 255Q55 331 72 382Q89 433 120.5 464Q152 495 195.5 508.5Q239 522 293 522Q347 522 390.5 508.5Q434 495 465.5 464Q497 433 514 382Q531 331 531 255ZM445 255Q445 315 434.5 354Q424 393 402 415Q382 435 355 443.5Q328 452 293 452Q258 452 231 443.5Q204 435 184 415Q162 393 151.5 354Q141 315 141 255Q141 195 151.5 156Q162 117 184 95Q204 75 231 66.5Q258 58 293 58Q328 58 355 66.5Q382 75 402 95Q424 117 434.5 156Q445 195 445 255ZM116 678H225L333 566H256Z" glyph-name="ograve" horiz-adv-x="586" unicode="&#242;" /><glyph d="M531 255Q531 179 514 128Q497 77 465.5 46Q434 15 390.5 1.5Q347 -12 293 -12Q239 -12 195.5 1.5Q152 15 120.5 46Q89 77 72 128Q55 179 55 255Q55 331 72 382Q89 433 120.5 464Q152 495 195.5 508.5Q239 522 293 522Q347 522 390.5 508.5Q434 495 465.5 464Q497 433 514 382Q531 331 531 255ZM445 255Q445 315 434.5 354Q424 393 402 415Q382 435 355 443.5Q328 452 293 452Q258 452 231 443.5Q204 435 184 415Q162 393 151.5 354Q141 315 141 255Q141 195 151.5 156Q162 117 184 95Q204 75 231 66.5Q258 58 293 58Q328 58 355 66.5Q382 75 402 95Q424 117 434.5 156Q445 195 445 255ZM249 566H185L293 678H389ZM389 566H325L433 678H529Z" glyph-name="ohungarumlaut" horiz-adv-x="586" unicode="&#337;" /><glyph d="M531 255Q531 179 514 128Q497 77 465.5 46Q434 15 390.5 1.5Q347 -12 293 -12Q239 -12 195.5 1.5Q152 15 120.5 46Q89 77 72 128Q55 179 55 255Q55 331 72 382Q89 433 120.5 464Q152 495 195.5 508.5Q239 522 293 522Q347 522 390.5 508.5Q434 495 465.5 464Q497 433 514 382Q531 331 531 255ZM445 255Q445 315 434.5 354Q424 393 402 415Q382 435 355 443.5Q328 452 293 452Q258 452 231 443.5Q204 435 184 415Q162 393 151.5 354Q141 315 141 255Q141 195 151.5 156Q162 117 184 95Q204 75 231 66.5Q258 58 293 58Q328 58 355 66.5Q382 75 402 95Q424 117 434.5 156Q445 195 445 255ZM459 599H128V667H459Z" glyph-name="omacron" horiz-adv-x="586" unicode="&#333;" /><glyph d="M169 0V596L9 594V655L252 684V0Z" glyph-name="one" horiz-adv-x="370" unicode="1" /><glyph d="M103 0H27L506 678H582ZM85 320V619L5 618V666L155 683V320ZM659 0H421L419 46Q501 114 541.5 163.5Q582 213 582 261Q582 311 523 311Q502 311 477 306.5Q452 302 430 295V349Q448 354 473 359Q498 364 526 364Q553 364 576 359Q599 354 616 342Q633 330 642.5 310.5Q652 291 652 262Q652 211 614 159Q576 107 514 51V50H540Q551 50 562.5 50.5Q574 51 582 51H659Z" glyph-name="onehalf" horiz-adv-x="696" unicode="&#189;" /><glyph d="M103 0H27L506 678H582ZM85 320V619L5 618V666L155 683V320ZM656 0H587V82H418L416 127L545 358H616L496 133V132L592 133L600 246H656V134H698V82H656Z" glyph-name="onequarter" horiz-adv-x="712" unicode="&#188;" /><glyph d="M85 320V619L5 618V666L155 683V320Z" glyph-name="onesuperior" horiz-adv-x="216" unicode="&#185;" /><glyph d="M212 517Q240 517 273 514V554Q273 573 269 585Q265 597 255.5 603Q246 609 229.5 611Q213 613 188 613Q170 613 139 609.5Q108 606 66 596V658Q81 663 99 666Q117 669 134.5 671Q152 673 168.5 674Q185 675 197 675Q235 675 264 670.5Q293 666 312 653.5Q331 641 340.5 618.5Q350 596 350 559V281H292L284 315H282Q263 295 234.5 285Q206 275 174 275Q144 275 116.5 282.5Q89 290 69 310Q37 342 37 394Q37 422 45 442Q53 462 68 477Q93 502 131 509.5Q169 517 212 517ZM273 454Q253 456 237 456.5Q221 457 215 457Q194 457 179.5 455.5Q165 454 155.5 451.5Q146 449 140 445Q134 441 128 435Q123 430 120 420Q117 410 117 393Q117 361 136.5 349.5Q156 338 185 338Q219 338 239 349.5Q259 361 273 379Z" glyph-name="ordfeminine" horiz-adv-x="405" unicode="&#170;" /><glyph d="M41 474Q41 531 54 570Q67 609 91 632Q115 655 149 665Q183 675 224 675Q266 675 299.5 664.5Q333 654 357 630.5Q381 607 394 568.5Q407 530 407 474Q407 418 394 379.5Q381 341 357 317.5Q333 294 299.5 283.5Q266 273 224 273Q183 273 149 283Q115 293 91 316Q67 339 54 378Q41 417 41 474ZM326 474Q326 518 318.5 545.5Q311 573 296 588Q282 602 264.5 607.5Q247 613 224 613Q201 613 184 607.5Q167 602 153 588Q138 573 130 545.5Q122 518 122 474Q122 428 130 401Q138 374 155 357Q168 344 185 339.5Q202 335 224 335Q246 335 263.5 340Q281 345 294 358Q310 374 318 401.5Q326 429 326 474Z" glyph-name="ordmasculine" horiz-adv-x="448" unicode="&#186;" /><glyph d="M414 499Q469 474 500 416Q531 358 531 255Q531 179 514 128Q497 77 465.5 46Q434 15 390.5 1.5Q347 -12 293 -12Q262 -12 239 -8L223 -55H147L170 11Q116 37 85.5 94.5Q55 152 55 255Q55 331 72 382Q89 433 120.5 464Q152 495 195.5 508.5Q239 522 293 522Q320 522 344 519L360 564H436ZM445 255Q445 315 434.5 354Q424 393 402 415Q398 418 395 421Q392 424 388 426L262 59Q270 58 277.5 58Q285 58 293 58Q328 58 355 66.5Q382 75 402 95Q424 117 434.5 156Q445 195 445 255ZM184 95Q187 91 195 85L321 450Q314 451 307.5 451.5Q301 452 293 452Q258 452 231 443.5Q204 435 184 415Q162 393 151.5 354Q141 315 141 255Q141 195 151.5 156Q162 117 184 95Z" glyph-name="oslash" horiz-adv-x="586" unicode="&#248;" /><glyph d="M531 255Q531 179 514 128Q497 77 465.5 46Q434 15 390.5 1.5Q347 -12 293 -12Q239 -12 195.5 1.5Q152 15 120.5 46Q89 77 72 128Q55 179 55 255Q55 331 72 382Q89 433 120.5 464Q152 495 195.5 508.5Q239 522 293 522Q347 522 390.5 508.5Q434 495 465.5 464Q497 433 514 382Q531 331 531 255ZM445 255Q445 315 434.5 354Q424 393 402 415Q382 435 355 443.5Q328 452 293 452Q258 452 231 443.5Q204 435 184 415Q162 393 151.5 354Q141 315 141 255Q141 195 151.5 156Q162 117 184 95Q204 75 231 66.5Q258 58 293 58Q328 58 355 66.5Q382 75 402 95Q424 117 434.5 156Q445 195 445 255ZM368 656Q390 656 415 667Q440 678 460 692V626Q445 615 419 603Q393 591 369 591Q350 591 330.5 596Q311 601 292.5 607.5Q274 614 255.5 619Q237 624 219 624Q197 624 172 613Q147 602 127 588V654Q142 665 168 677.5Q194 690 218 690Q237 690 256 684.5Q275 679 293.5 673Q312 667 330.5 661.5Q349 656 368 656Z" glyph-name="otilde" horiz-adv-x="586" unicode="&#245;" /><glyph d="M155 450Q191 488 233.5 503.5Q276 519 318 519Q427 519 479.5 457.5Q532 396 532 258Q532 122 472.5 56.5Q413 -9 295 -9Q281 -9 263.5 -7.5Q246 -6 228.5 -2Q211 2 195 7.5Q179 13 167 21V-168H85V510H144L154 450ZM167 99Q189 79 221 70Q253 61 285 61Q322 61 352 70.5Q382 80 402.5 102.5Q423 125 434 162Q445 199 445 255Q445 362 410.5 405.5Q376 449 304 449Q265 449 230.5 429.5Q196 410 167 374Z" glyph-name="p" horiz-adv-x="587" unicode="p" /><glyph d="M292 114H284Q238 115 197.5 128Q157 141 126.5 167.5Q96 194 78.5 235.5Q61 277 61 334Q61 392 79.5 434Q98 476 131.5 503.5Q165 531 212 544Q259 557 316 557H538V486H448V-168H357V486H292Z" glyph-name="paragraph" horiz-adv-x="599" unicode="&#182;" /><glyph d="M197 -118Q138 -2 112.5 102Q87 206 87 309Q87 410 112 513.5Q137 617 196 730H277Q229 626 202 520Q175 414 175 309Q175 200 202.5 95.5Q230 -9 277 -118Z" glyph-name="parenleft" horiz-adv-x="332" unicode="(" /><glyph d="M55 -118Q102 -9 129.5 95.5Q157 200 157 309Q157 414 130 520Q103 626 55 730H136Q195 617 220 513.5Q245 410 245 309Q245 206 219.5 102Q194 -2 135 -118Z" glyph-name="parenright" horiz-adv-x="332" unicode=")" /><glyph d="M503 360Q500 428 482 477Q464 526 434.5 558Q405 590 367 605Q329 620 287 620Q237 620 190.5 610Q144 600 115 586V659Q144 674 188.5 682Q233 690 287 690Q347 690 401.5 669.5Q456 649 497.5 605.5Q539 562 563.5 494.5Q588 427 588 333Q588 255 575 191Q562 127 531 82Q500 37 448.5 12Q397 -13 321 -13Q253 -13 206 5Q159 23 130 54.5Q101 86 88 127.5Q75 169 75 216Q75 263 88 304.5Q101 346 130 377.5Q159 409 206 427Q253 445 321 445Q395 445 436.5 421Q478 397 501 360ZM321 57Q400 57 440.5 100Q481 143 481 216Q481 249 472.5 277.5Q464 306 445 328Q426 350 395.5 362.5Q365 375 321 375Q277 375 246.5 362.5Q216 350 197 328Q178 306 169.5 277.5Q161 249 161 216Q161 183 169.5 154.5Q178 126 197 104Q216 82 246.5 69.5Q277 57 321 57Z" glyph-name="partialdiff" horiz-adv-x="673" unicode="&#8706;" /><glyph d="M55 508Q55 547 62 580.5Q69 614 87.5 638.5Q106 663 138 676.5Q170 690 220 690Q270 690 302.5 676.5Q335 663 353.5 638.5Q372 614 379 580.5Q386 547 386 508Q386 468 379 434.5Q372 401 353.5 376.5Q335 352 302.5 338.5Q270 325 220 325Q170 325 138 338.5Q106 352 87.5 376.5Q69 401 62 434.5Q55 468 55 508ZM317 508Q317 534 314 556.5Q311 579 300.5 595.5Q290 612 271 621.5Q252 631 220 631Q188 631 169 621.5Q150 612 139.5 595.5Q129 579 126 556.5Q123 534 123 508Q123 482 126 459.5Q129 437 139.5 420.5Q150 404 169 394.5Q188 385 220 385Q252 385 271 394.5Q290 404 300.5 420.5Q311 437 314 459.5Q317 482 317 508ZM244 0H168L647 678H723ZM834 170Q834 131 827 97.5Q820 64 801.5 39.5Q783 15 751 1.5Q719 -12 669 -12Q619 -12 586.5 1.5Q554 15 535.5 39.5Q517 64 510 97.5Q503 131 503 170Q503 210 510 243.5Q517 277 535.5 301.5Q554 326 586.5 339.5Q619 353 669 353Q719 353 751 339.5Q783 326 801.5 301.5Q820 277 827 243.5Q834 210 834 170ZM572 170Q572 144 575 121.5Q578 99 588.5 82.5Q599 66 618 56.5Q637 47 669 47Q701 47 720 56.5Q739 66 749.5 82.5Q760 99 763 121.5Q766 144 766 170Q766 196 763 218.5Q760 241 749.5 257.5Q739 274 720 283.5Q701 293 669 293Q637 293 618 283.5Q599 274 588.5 257.5Q578 241 575 218.5Q572 196 572 170Z" glyph-name="percent" horiz-adv-x="889" unicode="%" /><glyph d="M189 0H83V107H189Z" glyph-name="period" horiz-adv-x="272" unicode="." /><glyph d="M189 218H83V325H189Z" glyph-name="periodcentered" horiz-adv-x="272" unicode="&#183;" /><glyph d="M55 508Q55 547 62 580.5Q69 614 87.5 638.5Q106 663 138 676.5Q170 690 220 690Q270 690 302.5 676.5Q335 663 353.5 638.5Q372 614 379 580.5Q386 547 386 508Q386 468 379 434.5Q372 401 353.5 376.5Q335 352 302.5 338.5Q270 325 220 325Q170 325 138 338.5Q106 352 87.5 376.5Q69 401 62 434.5Q55 468 55 508ZM317 508Q317 534 314 556.5Q311 579 300.5 595.5Q290 612 271 621.5Q252 631 220 631Q188 631 169 621.5Q150 612 139.5 595.5Q129 579 126 556.5Q123 534 123 508Q123 482 126 459.5Q129 437 139.5 420.5Q150 404 169 394.5Q188 385 220 385Q252 385 271 394.5Q290 404 300.5 420.5Q311 437 314 459.5Q317 482 317 508ZM244 0H168L647 678H723ZM834 170Q834 131 827 97.5Q820 64 801.5 39.5Q783 15 751 1.5Q719 -12 669 -12Q619 -12 586.5 1.5Q554 15 535.5 39.5Q517 64 510 97.5Q503 131 503 170Q503 210 510 243.5Q517 277 535.5 301.5Q554 326 586.5 339.5Q619 353 669 353Q719 353 751 339.5Q783 326 801.5 301.5Q820 277 827 243.5Q834 210 834 170ZM572 170Q572 144 575 121.5Q578 99 588.5 82.5Q599 66 618 56.5Q637 47 669 47Q701 47 720 56.5Q739 66 749.5 82.5Q760 99 763 121.5Q766 144 766 170Q766 196 763 218.5Q760 241 749.5 257.5Q739 274 720 283.5Q701 293 669 293Q637 293 618 283.5Q599 274 588.5 257.5Q578 241 575 218.5Q572 196 572 170ZM1222 170Q1222 131 1215 97.5Q1208 64 1189.5 39.5Q1171 15 1139 1.5Q1107 -12 1057 -12Q1007 -12 974.5 1.5Q942 15 923.5 39.5Q905 64 898 97.5Q891 131 891 170Q891 210 898 243.5Q905 277 923.5 301.5Q942 326 974.5 339.5Q1007 353 1057 353Q1107 353 1139 339.5Q1171 326 1189.5 301.5Q1208 277 1215 243.5Q1222 210 1222 170ZM960 170Q960 144 963 121.5Q966 99 976.5 82.5Q987 66 1006 56.5Q1025 47 1057 47Q1089 47 1108 56.5Q1127 66 1137.5 82.5Q1148 99 1151 121.5Q1154 144 1154 170Q1154 196 1151 218.5Q1148 241 1137.5 257.5Q1127 274 1108 283.5Q1089 293 1057 293Q1025 293 1006 283.5Q987 274 976.5 257.5Q966 241 963 218.5Q960 196 960 170Z" glyph-name="perthousand" horiz-adv-x="1277" unicode="&#8240;" /><glyph d="M526 236H330V37H251V236H56V307H251V506H330V307H526Z" glyph-name="plus" horiz-adv-x="582" unicode="+" /><glyph d="M526 341H330V175H251V341H56V412H251V578H330V412H526ZM526 0H56V71H526Z" glyph-name="plusminus" horiz-adv-x="582" unicode="&#177;" /><glyph d="M590 0H507V611H250V0H168V611H63V678H694V611H590Z" glyph-name="product" horiz-adv-x="757" unicode="&#8719;" /><glyph d="M437 477 447 510H502V-168H420V50H418Q383 18 345 4.5Q307 -9 269 -9Q160 -9 107.5 54Q55 117 55 255Q55 391 114.5 455Q174 519 292 519Q305 519 323 517Q341 515 360.5 510.5Q380 506 399.5 497.5Q419 489 435 477ZM420 411Q398 431 366 440Q334 449 302 449Q264 449 234.5 439.5Q205 430 184.5 407.5Q164 385 153 348Q142 311 142 255Q142 148 176.5 104.5Q211 61 283 61Q322 61 356.5 80.5Q391 100 420 136Z" glyph-name="q" horiz-adv-x="587" unicode="q" /><glyph d="M112 216 108 369Q138 370 177.5 375Q217 380 252 394Q287 408 311.5 433.5Q336 459 336 502Q336 524 328 544.5Q320 565 302 580.5Q284 596 255 605.5Q226 615 184 615Q173 615 156.5 613.5Q140 612 121.5 609.5Q103 607 83.5 602.5Q64 598 46 592V667Q87 680 129 685Q171 690 203 690Q262 690 304.5 676.5Q347 663 375 639Q403 615 416 581.5Q429 548 429 508Q429 459 409.5 424.5Q390 390 357.5 367Q325 344 282 330Q239 316 191 309L188 216ZM204 0H98V107H204Z" glyph-name="question" horiz-adv-x="471" unicode="?" /><glyph d="M359 294 363 141Q333 139 293.5 134.5Q254 130 219 116Q184 102 159.5 76.5Q135 51 135 8Q135 -14 143 -34.5Q151 -55 169 -70.5Q187 -86 216 -95.5Q245 -105 287 -105Q298 -105 314.5 -103.5Q331 -102 349.5 -99.5Q368 -97 387.5 -92.5Q407 -88 425 -82V-157Q384 -170 342 -175Q300 -180 268 -180Q209 -180 166.5 -166.5Q124 -153 96 -129Q68 -105 55 -71.5Q42 -38 42 2Q42 51 61.5 85Q81 119 113.5 142.5Q146 166 189 179.5Q232 193 280 201L283 294ZM267 510H373V403H267Z" glyph-name="questiondown" horiz-adv-x="451" unicode="&#191;" /><glyph d="M132 443H78L66 678H144ZM273 443H219L207 678H285Z" glyph-name="quotedbl" horiz-adv-x="338" unicode="&quot;" /><glyph d="M115 117H223L122 -118H59ZM297 117H405L304 -118H241Z" glyph-name="quotedblbase" horiz-adv-x="439" unicode="&#8222;" /><glyph d="M324 443H216L317 678H380ZM142 443H34L135 678H198Z" glyph-name="quotedblleft" horiz-adv-x="439" unicode="&#8220;" /><glyph d="M115 678H223L122 443H59ZM296 678H404L303 443H240Z" glyph-name="quotedblright" horiz-adv-x="438" unicode="&#8221;" /><glyph d="M142 443H34L135 678H198Z" glyph-name="quoteleft" horiz-adv-x="257" unicode="&#8216;" /><glyph d="M115 678H223L122 443H59Z" glyph-name="quoteright" horiz-adv-x="257" unicode="&#8217;" /><glyph d="M115 117H223L122 -118H59Z" glyph-name="quotesinglbase" horiz-adv-x="257" unicode="&#8218;" /><glyph d="M132 443H78L66 678H144Z" glyph-name="quotesingle" horiz-adv-x="210" unicode="&apos;" /><glyph d="M156 433Q180 471 214.5 494.5Q249 518 300 518Q323 518 340 514.5Q357 511 374 503V433Q353 444 336 446.5Q319 449 305 449Q278 449 257.5 441Q237 433 220.5 419.5Q204 406 191 387.5Q178 369 167 348V0H85V510H144L155 433Z" glyph-name="r" horiz-adv-x="380" unicode="r" /><glyph d="M156 433Q180 471 214.5 494.5Q249 518 300 518Q323 518 340 514.5Q357 511 374 503V433Q353 444 336 446.5Q319 449 305 449Q278 449 257.5 441Q237 433 220.5 419.5Q204 406 191 387.5Q178 369 167 348V0H85V510H144L155 433ZM257 566H180L288 678H397Z" glyph-name="racute" horiz-adv-x="380" unicode="&#341;" /><glyph d="M32 450 185 486 246 200Q251 174 256 147.5Q261 121 266 94H268Q281 121 294 147Q307 173 321 198L590 678H680L285 -6H216L117 407Q97 402 73.5 396.5Q50 391 32 387Z" glyph-name="radical" horiz-adv-x="684" unicode="&#8730;" /><glyph d="M156 433Q180 471 214.5 494.5Q249 518 300 518Q323 518 340 514.5Q357 511 374 503V433Q353 444 336 446.5Q319 449 305 449Q278 449 257.5 441Q237 433 220.5 419.5Q204 406 191 387.5Q178 369 167 348V0H85V510H144L155 433ZM79 678H160L228 608L296 678H377L267 562H188Z" glyph-name="rcaron" horiz-adv-x="380" unicode="&#345;" /><glyph d="M156 433Q180 471 214.5 494.5Q249 518 300 518Q323 518 340 514.5Q357 511 374 503V433Q353 444 336 446.5Q319 449 305 449Q278 449 257.5 441Q237 433 220.5 419.5Q204 406 191 387.5Q178 369 167 348V0H85V510H144L155 433ZM78 -76H170L96 -247H41Z" glyph-name="rcommaaccent" horiz-adv-x="380" unicode="&#343;" /><glyph d="M569 168H502L442 290H359V168H298V516H433Q504 516 537.5 493Q571 470 571 404Q571 385 565.5 367.5Q560 350 550.5 336Q541 322 528.5 312.5Q516 303 502 300ZM443 341Q463 341 475.5 343.5Q488 346 495.5 353.5Q503 361 506 374Q509 387 509 407Q509 438 495 451.5Q481 465 443 465H360V341ZM782 339Q782 257 758.5 192Q735 127 690 81.5Q645 36 578.5 12Q512 -12 426 -12Q340 -12 273.5 12Q207 36 162 81.5Q117 127 93.5 192Q70 257 70 339Q70 421 93.5 486Q117 551 162 596.5Q207 642 273.5 666Q340 690 426 690Q512 690 578.5 666Q645 642 690 596.5Q735 551 758.5 486Q782 421 782 339ZM137 339Q137 272 155 218Q173 164 209 126Q245 88 299 67.5Q353 47 426 47Q499 47 553 67.5Q607 88 643 126Q679 164 697 218Q715 272 715 339Q715 406 697 460Q679 514 643 552Q607 590 553 610.5Q499 631 426 631Q353 631 299 610.5Q245 590 209 552Q173 514 155 460Q137 406 137 339Z" glyph-name="registered" horiz-adv-x="852" unicode="&#174;" /><glyph d="M336 640Q336 673 300 673Q263 673 263 640Q263 608 300 608Q336 608 336 640ZM389 640Q389 601 366 584Q343 567 300 567Q257 567 233.5 584Q210 601 210 640Q210 679 233.5 696Q257 713 300 713Q343 713 366 696Q389 679 389 640Z" glyph-name="ring" horiz-adv-x="600" unicode="&#730;" /><glyph d="M231 62Q271 62 297.5 67.5Q324 73 340 83.5Q356 94 362 109Q368 124 368 144Q368 172 358.5 187.5Q349 203 332.5 210Q316 217 295 218.5Q274 220 251 221Q222 222 189 226Q156 230 128 245Q100 260 82 291Q64 322 64 376Q64 419 81 447.5Q98 476 127.5 492.5Q157 509 195 515.5Q233 522 275 522Q285 522 301.5 521.5Q318 521 337 519Q356 517 376 513.5Q396 510 413 504V434Q374 446 336.5 449Q299 452 273 452Q149 452 149 376Q149 350 158.5 335.5Q168 321 184.5 314Q201 307 222 305.5Q243 304 266 303Q295 302 328 298Q361 294 388.5 279Q416 264 434.5 233Q453 202 453 147Q453 103 435 73Q417 43 386.5 24Q356 5 315 -3.5Q274 -12 229 -12Q219 -12 199.5 -11Q180 -10 156.5 -7Q133 -4 110 0.5Q87 5 69 12V86Q89 79 112 74.5Q135 70 157 67Q179 64 198.5 63Q218 62 231 62Z" glyph-name="s" horiz-adv-x="492" unicode="s" /><glyph d="M231 62Q271 62 297.5 67.5Q324 73 340 83.5Q356 94 362 109Q368 124 368 144Q368 172 358.5 187.5Q349 203 332.5 210Q316 217 295 218.5Q274 220 251 221Q222 222 189 226Q156 230 128 245Q100 260 82 291Q64 322 64 376Q64 419 81 447.5Q98 476 127.5 492.5Q157 509 195 515.5Q233 522 275 522Q285 522 301.5 521.5Q318 521 337 519Q356 517 376 513.5Q396 510 413 504V434Q374 446 336.5 449Q299 452 273 452Q149 452 149 376Q149 350 158.5 335.5Q168 321 184.5 314Q201 307 222 305.5Q243 304 266 303Q295 302 328 298Q361 294 388.5 279Q416 264 434.5 233Q453 202 453 147Q453 103 435 73Q417 43 386.5 24Q356 5 315 -3.5Q274 -12 229 -12Q219 -12 199.5 -11Q180 -10 156.5 -7Q133 -4 110 0.5Q87 5 69 12V86Q89 79 112 74.5Q135 70 157 67Q179 64 198.5 63Q218 62 231 62ZM285 566H208L316 678H425Z" glyph-name="sacute" horiz-adv-x="492" unicode="&#347;" /><glyph d="M231 62Q271 62 297.5 67.5Q324 73 340 83.5Q356 94 362 109Q368 124 368 144Q368 172 358.5 187.5Q349 203 332.5 210Q316 217 295 218.5Q274 220 251 221Q222 222 189 226Q156 230 128 245Q100 260 82 291Q64 322 64 376Q64 419 81 447.5Q98 476 127.5 492.5Q157 509 195 515.5Q233 522 275 522Q285 522 301.5 521.5Q318 521 337 519Q356 517 376 513.5Q396 510 413 504V434Q374 446 336.5 449Q299 452 273 452Q149 452 149 376Q149 350 158.5 335.5Q168 321 184.5 314Q201 307 222 305.5Q243 304 266 303Q295 302 328 298Q361 294 388.5 279Q416 264 434.5 233Q453 202 453 147Q453 103 435 73Q417 43 386.5 24Q356 5 315 -3.5Q274 -12 229 -12Q219 -12 199.5 -11Q180 -10 156.5 -7Q133 -4 110 0.5Q87 5 69 12V86Q89 79 112 74.5Q135 70 157 67Q179 64 198.5 63Q218 62 231 62ZM109 678H190L258 608L326 678H407L297 562H218Z" glyph-name="scaron" horiz-adv-x="492" unicode="&#353;" /><glyph d="M228 -12Q218 -12 198.5 -11Q179 -10 156 -7Q133 -4 110 0.5Q87 5 69 12V86Q89 79 112 74.5Q135 70 157 67Q179 64 198.5 63Q218 62 231 62Q271 62 297.5 67.5Q324 73 340 83.5Q356 94 362 109Q368 124 368 144Q368 172 358.5 187.5Q349 203 332.5 210Q316 217 295 218.5Q274 220 251 221Q222 222 189 226Q156 230 128 245Q100 260 82 291Q64 322 64 376Q64 419 81 447.5Q98 476 127.5 492.5Q157 509 195 515.5Q233 522 275 522Q285 522 301.5 521.5Q318 521 337 519Q356 517 376 513.5Q396 510 413 504V434Q374 446 336.5 449Q299 452 273 452Q149 452 149 376Q149 350 158.5 335.5Q168 321 184.5 314Q201 307 222 305.5Q243 304 266 303Q295 302 328 298Q361 294 388.5 279Q416 264 434.5 233Q453 202 453 147Q453 113 441.5 87Q430 61 410 42.5Q390 24 362.5 12.5Q335 1 303 -5L290 -37Q320 -45 335.5 -59.5Q351 -74 351 -100Q351 -138 316.5 -156Q282 -174 227 -174Q216 -174 196.5 -172Q177 -170 154 -164V-110Q171 -115 189 -116.5Q207 -118 219 -118Q248 -118 260.5 -112.5Q273 -107 273 -94Q273 -81 255.5 -75.5Q238 -70 220 -68L214 -44Z" glyph-name="scedilla" horiz-adv-x="492" unicode="&#351;" /><glyph d="M231 62Q271 62 297.5 67.5Q324 73 340 83.5Q356 94 362 109Q368 124 368 144Q368 172 358.5 187.5Q349 203 332.5 210Q316 217 295 218.5Q274 220 251 221Q222 222 189 226Q156 230 128 245Q100 260 82 291Q64 322 64 376Q64 419 81 447.5Q98 476 127.5 492.5Q157 509 195 515.5Q233 522 275 522Q285 522 301.5 521.5Q318 521 337 519Q356 517 376 513.5Q396 510 413 504V434Q374 446 336.5 449Q299 452 273 452Q149 452 149 376Q149 350 158.5 335.5Q168 321 184.5 314Q201 307 222 305.5Q243 304 266 303Q295 302 328 298Q361 294 388.5 279Q416 264 434.5 233Q453 202 453 147Q453 103 435 73Q417 43 386.5 24Q356 5 315 -3.5Q274 -12 229 -12Q219 -12 199.5 -11Q180 -10 156.5 -7Q133 -4 110 0.5Q87 5 69 12V86Q89 79 112 74.5Q135 70 157 67Q179 64 198.5 63Q218 62 231 62ZM407 566H326L258 636L190 566H109L219 682H298Z" glyph-name="scircumflex" horiz-adv-x="492" unicode="&#349;" /><glyph d="M231 62Q271 62 297.5 67.5Q324 73 340 83.5Q356 94 362 109Q368 124 368 144Q368 172 358.5 187.5Q349 203 332.5 210Q316 217 295 218.5Q274 220 251 221Q222 222 189 226Q156 230 128 245Q100 260 82 291Q64 322 64 376Q64 419 81 447.5Q98 476 127.5 492.5Q157 509 195 515.5Q233 522 275 522Q285 522 301.5 521.5Q318 521 337 519Q356 517 376 513.5Q396 510 413 504V434Q374 446 336.5 449Q299 452 273 452Q149 452 149 376Q149 350 158.5 335.5Q168 321 184.5 314Q201 307 222 305.5Q243 304 266 303Q295 302 328 298Q361 294 388.5 279Q416 264 434.5 233Q453 202 453 147Q453 103 435 73Q417 43 386.5 24Q356 5 315 -3.5Q274 -12 229 -12Q219 -12 199.5 -11Q180 -10 156.5 -7Q133 -4 110 0.5Q87 5 69 12V86Q89 79 112 74.5Q135 70 157 67Q179 64 198.5 63Q218 62 231 62ZM211 -76H303L229 -247H174Z" glyph-name="scommaaccent" horiz-adv-x="492" unicode="&#537;" /><glyph d="M453 272Q453 233 440 207.5Q427 182 406 158Q426 141 439 114.5Q452 88 452 47Q452 -5 434 -39Q416 -73 385.5 -93.5Q355 -114 314 -122Q273 -130 228 -130Q218 -130 198.5 -129Q179 -128 155.5 -125Q132 -122 109 -117.5Q86 -113 68 -106V-32Q88 -39 111 -43.5Q134 -48 156 -51Q178 -54 197.5 -55Q217 -56 230 -56Q270 -56 296.5 -51Q323 -46 339 -34.5Q355 -23 361 -4.5Q367 14 367 40Q367 75 345 97Q328 114 300.5 121.5Q273 129 241.5 135Q210 141 178 148.5Q146 156 120 172.5Q94 189 78 218Q62 247 62 296Q62 337 76.5 365.5Q91 394 111 408Q90 427 76.5 456Q63 485 63 524Q63 575 81 607.5Q99 640 128 658Q157 676 195 683Q233 690 274 690Q284 690 300.5 689.5Q317 689 336 686.5Q355 684 375 680.5Q395 677 412 671V602Q373 614 335.5 617Q298 620 272 620Q209 620 178.5 600Q148 580 148 525Q148 489 169 470Q185 455 212.5 447.5Q240 440 271.5 433.5Q303 427 335 419Q367 411 393.5 394Q420 377 436.5 348Q453 319 453 272ZM368 269Q368 302 350.5 319.5Q333 337 306 346Q279 355 245.5 360Q212 365 180 374Q147 350 147 296Q147 264 165 247.5Q183 231 211.5 222.5Q240 214 274.5 209Q309 204 342 194Q368 217 368 269Z" glyph-name="section" horiz-adv-x="515" unicode="&#167;" /><glyph d="M195 403H89V510H195ZM90 117H198L97 -118H34Z" glyph-name="semicolon" horiz-adv-x="272" unicode=";" /><glyph d="M208 0H117L363 609L362 611H31V678H448L452 614Z" glyph-name="seven" horiz-adv-x="480" unicode="7" /><glyph d="M155 353Q173 371 195.5 384.5Q218 398 242.5 406.5Q267 415 290.5 419.5Q314 424 333 424Q390 424 431 407Q472 390 498.5 360.5Q525 331 537 290.5Q549 250 549 203Q549 162 535 123.5Q521 85 492.5 55Q464 25 419 6.5Q374 -12 313 -12Q187 -12 127 75Q67 162 67 323Q67 409 83.5 477Q100 545 135 592.5Q170 640 224.5 665Q279 690 356 690Q368 690 386.5 689Q405 688 425.5 685Q446 682 466 677.5Q486 673 501 667V597Q469 610 429.5 615Q390 620 359 620Q315 620 278 608.5Q241 597 213.5 567.5Q186 538 170 486Q154 434 153 353ZM328 351Q304 351 279.5 345Q255 339 232 327Q209 315 189.5 298.5Q170 282 156 261Q160 159 200 108.5Q240 58 320 58Q359 58 386.5 69.5Q414 81 431 100.5Q448 120 456 145.5Q464 171 464 200Q464 234 457.5 261.5Q451 289 435.5 309Q420 329 394 340Q368 351 328 351Z" glyph-name="six" horiz-adv-x="604" unicode="6" /><glyph d="M65 -85H-11L282 763H358Z" glyph-name="slash" horiz-adv-x="347" unicode="/" /><glyph glyph-name="space" horiz-adv-x="235" unicode=" " /><glyph d="M279 108Q292 98 310.5 91Q329 84 349 79Q369 74 389.5 71.5Q410 69 429 69Q457 69 496.5 75Q536 81 571 98V26Q556 18 536 12Q516 6 495 2Q474 -2 454.5 -4Q435 -6 420 -6Q374 -6 329.5 3Q285 12 252 30Q236 13 214.5 6.5Q193 0 173 0Q156 0 144 1Q132 2 115 6V70Q125 71 138 72Q151 73 162.5 78Q174 83 182 92.5Q190 102 192 120L209 310H138V381H214L221 450Q227 509 239 554Q251 599 273.5 629Q296 659 332 674.5Q368 690 421 690Q459 690 491.5 685Q524 680 559 667V591Q521 605 492 610Q463 615 428 615Q395 615 374 605Q353 595 340.5 573Q328 551 321 517.5Q314 484 310 438L305 381H464V310H299Z" glyph-name="sterling" horiz-adv-x="660" unicode="&#163;" /><glyph d="M536 678V611H288Q266 611 238.5 611Q211 611 186 613V611L445 368V326L164 67V65Q189 65 214.5 66Q240 67 266 67H558V0H53V61L363 349L79 618V678Z" glyph-name="summation" horiz-adv-x="604" unicode="&#8721;" /><glyph d="M380 12Q356 1 323 -3.5Q290 -8 257 -8Q217 -8 190.5 0Q164 8 148 28Q132 48 125.5 81.5Q119 115 119 167V443H30V501L126 511L147 624H203L202 510H372V443H201V165Q201 136 203 116Q205 96 213 84Q221 72 237 67Q253 62 282 62Q292 62 305 63.5Q318 65 332 67.5Q346 70 358.5 73.5Q371 77 380 82Z" glyph-name="t" horiz-adv-x="404" unicode="t" /><glyph d="M380 12Q356 1 323 -3.5Q290 -8 257 -8Q217 -8 190.5 0Q164 8 148 28Q132 48 125.5 81.5Q119 115 119 167V238H46V305H119V443H30V501L126 511L147 624H203L202 510H372V443H201V305H332V238H201V165Q201 136 203 116Q205 96 213 84Q221 72 237 67Q253 62 282 62Q292 62 305 63.5Q318 65 332 67.5Q346 70 358.5 73.5Q371 77 380 82Z" glyph-name="tbar" horiz-adv-x="404" unicode="&#359;" /><glyph d="M380 12Q356 1 323 -3.5Q290 -8 257 -8Q217 -8 190.5 0Q164 8 148 28Q132 48 125.5 81.5Q119 115 119 167V443H30V501L126 511L147 624H203L202 510H372V443H201V165Q201 136 203 116Q205 96 213 84Q221 72 237 67Q253 62 282 62Q292 62 305 63.5Q318 65 332 67.5Q346 70 358.5 73.5Q371 77 380 82ZM327 737H419L345 566H290Z" glyph-name="tcaron" horiz-adv-x="404" unicode="&#357;" /><glyph d="M380 12Q356 1 323 -3.5Q290 -8 257 -8Q217 -8 190.5 0Q164 8 148 28Q132 48 125.5 81.5Q119 115 119 167V443H30V501L126 511L147 624H203L202 510H372V443H201V165Q201 136 203 116Q205 96 213 84Q221 72 237 67Q253 62 282 62Q292 62 305 63.5Q318 65 332 67.5Q346 70 358.5 73.5Q371 77 380 82ZM192 -76H284L210 -247H155Z" glyph-name="tcommaaccent" horiz-adv-x="404" unicode="&#355;" /><glyph d="M85 678H167V459H169Q195 491 237.5 505Q280 519 323 519Q381 519 421 500.5Q461 482 486 448Q511 414 521.5 366Q532 318 532 259Q532 128 475 59.5Q418 -9 296 -9Q264 -9 240.5 -4.5Q217 0 201 6Q183 12 169 21H167V-168H85ZM167 99Q189 79 221 70Q253 61 285 61Q322 61 352 70.5Q382 80 402.5 102.5Q423 125 434 162Q445 199 445 255Q445 362 410.5 405.5Q376 449 304 449Q265 449 230.5 429.5Q196 410 167 374Z" glyph-name="thorn" horiz-adv-x="587" unicode="&#254;" /><glyph d="M385 350Q406 341 425.5 328Q445 315 459 297Q473 279 481.5 254.5Q490 230 490 197Q490 141 471 102Q452 63 418.5 38Q385 13 340 2Q295 -9 243 -9Q203 -9 156.5 -1Q110 7 70 19V91Q89 84 112.5 79Q136 74 159.5 70.5Q183 67 205 65.5Q227 64 242 64Q273 64 302.5 70Q332 76 354 91Q376 106 389.5 131.5Q403 157 403 195Q403 223 394 244Q385 265 371 279Q350 300 325 306.5Q300 313 271 313H160V379H268Q293 379 316 386.5Q339 394 358 413Q393 448 393 498Q393 522 386.5 544Q380 566 364 583Q348 600 320.5 610.5Q293 621 250 621Q232 621 211 619Q190 617 168.5 614Q147 611 127 607Q107 603 91 598V668Q129 680 174 685.5Q219 691 256 691Q314 691 356.5 677.5Q399 664 426.5 640Q454 616 467 583.5Q480 551 480 513Q480 454 453 414Q426 374 385 352Z" glyph-name="three" horiz-adv-x="562" unicode="3" /><glyph d="M209 0H133L612 678H688ZM227 504Q247 493 261 475Q275 457 275 426Q275 396 264.5 374.5Q254 353 235 339.5Q216 326 191 320Q166 314 137 314Q116 314 87.5 318.5Q59 323 36 332V387Q65 376 93.5 372Q122 368 137 368Q163 368 183 380Q203 392 203 425Q203 439 200 448Q197 457 192 463Q184 473 173.5 475Q163 477 151 477H82V528H149Q159 528 168.5 530.5Q178 533 186 541Q198 553 198 579Q198 599 186.5 615.5Q175 632 140 632Q120 632 95.5 627.5Q71 623 47 616V670Q72 678 97 681Q122 684 143 684Q209 684 239 656.5Q269 629 269 587Q269 559 257.5 539Q246 519 227 505ZM755 0H686V82H517L515 127L644 358H715L595 133V132L691 133L699 246H755V134H797V82H755Z" glyph-name="threequarters" horiz-adv-x="811" unicode="&#190;" /><glyph d="M227 504Q247 493 261 475Q275 457 275 426Q275 396 264.5 374.5Q254 353 235 339.5Q216 326 191 320Q166 314 137 314Q116 314 87.5 318.5Q59 323 36 332V387Q65 376 93.5 372Q122 368 137 368Q163 368 183 380Q203 392 203 425Q203 439 200 448Q197 457 192 463Q184 473 173.5 475Q163 477 151 477H82V528H149Q159 528 168.5 530.5Q178 533 186 541Q198 553 198 579Q198 599 186.5 615.5Q175 632 140 632Q120 632 95.5 627.5Q71 623 47 616V670Q72 678 97 681Q122 684 143 684Q209 684 239 656.5Q269 629 269 587Q269 559 257.5 539Q246 519 227 505Z" glyph-name="threesuperior" horiz-adv-x="312" unicode="&#179;" /><glyph d="M399 656Q421 656 446 667Q471 678 491 692V626Q476 615 450 603Q424 591 400 591Q381 591 361.5 596Q342 601 323.5 607.5Q305 614 286.5 619Q268 624 250 624Q228 624 203 613Q178 602 158 588V654Q173 665 199 677.5Q225 690 249 690Q268 690 287 684.5Q306 679 324.5 673Q343 667 361.5 661.5Q380 656 399 656Z" glyph-name="tilde" horiz-adv-x="600" unicode="&#732;" /><glyph d="M420 439 377 531Q372 541 366.5 554Q361 567 355 580.5Q349 594 344 606.5Q339 619 335 628H333Q336 556 336 485V373H289V678H357L443 492H445L531 678H599V373H550V485Q550 556 553 628H551Q547 619 542 606.5Q537 594 531 580.5Q525 567 519 554Q513 541 509 531L466 439ZM154 373H107V637H15V678H248V637H154Z" glyph-name="trademark" horiz-adv-x="654" unicode="&#8482;" /><glyph d="M474 0H54L50 70Q131 137 192 194.5Q253 252 293 304.5Q333 357 353 405.5Q373 454 373 502Q373 620 229 620Q214 620 193 618Q172 616 150 613Q128 610 107 606Q86 602 71 597V667Q100 675 142 682.5Q184 690 235 690Q282 690 323 680.5Q364 671 394.5 649.5Q425 628 442.5 592Q460 556 460 503Q460 450 439 397.5Q418 345 378.5 291Q339 237 283 182Q227 127 158 69V67H474Z" glyph-name="two" horiz-adv-x="546" unicode="2" /><glyph d="M266 320H28L26 366Q108 434 148.5 483.5Q189 533 189 581Q189 631 130 631Q109 631 84 626.5Q59 622 37 615V669Q55 674 80 679Q105 684 133 684Q160 684 183 679Q206 674 223 662Q240 650 249.5 630.5Q259 611 259 582Q259 531 221 479Q183 427 121 371V370H147Q158 370 169.5 370.5Q181 371 189 371H266Z" glyph-name="twosuperior" horiz-adv-x="303" unicode="&#178;" /><glyph d="M432 72Q388 27 338.5 9Q289 -9 238 -9Q191 -9 160 1Q129 11 110 30.5Q91 50 83.5 80Q76 110 76 150V510H158V167Q158 110 179 86.5Q200 63 258 63Q305 63 347.5 84.5Q390 106 422 147V510H504V0H445L433 72Z" glyph-name="u" horiz-adv-x="589" unicode="u" /><glyph d="M432 72Q388 27 338.5 9Q289 -9 238 -9Q191 -9 160 1Q129 11 110 30.5Q91 50 83.5 80Q76 110 76 150V510H158V167Q158 110 179 86.5Q200 63 258 63Q305 63 347.5 84.5Q390 106 422 147V510H504V0H445L433 72ZM325 566H248L356 678H465Z" glyph-name="uacute" horiz-adv-x="589" unicode="&#250;" /><glyph d="M432 72Q388 27 338.5 9Q289 -9 238 -9Q191 -9 160 1Q129 11 110 30.5Q91 50 83.5 80Q76 110 76 150V510H158V167Q158 110 179 86.5Q200 63 258 63Q305 63 347.5 84.5Q390 106 422 147V510H504V0H445L433 72ZM296 618Q311 618 327 620.5Q343 623 356.5 630Q370 637 380 648.5Q390 660 393 678H464Q454 615 409 587.5Q364 560 296 560Q228 560 183 587.5Q138 615 128 678H199Q202 660 212 648.5Q222 637 235.5 630Q249 623 265 620.5Q281 618 296 618Z" glyph-name="ubreve" horiz-adv-x="589" unicode="&#365;" /><glyph d="M432 72Q388 27 338.5 9Q289 -9 238 -9Q191 -9 160 1Q129 11 110 30.5Q91 50 83.5 80Q76 110 76 150V510H158V167Q158 110 179 86.5Q200 63 258 63Q305 63 347.5 84.5Q390 106 422 147V510H504V0H445L433 72ZM439 566H358L290 636L222 566H141L251 682H330Z" glyph-name="ucircumflex" horiz-adv-x="589" unicode="&#251;" /><glyph d="M432 72Q388 27 338.5 9Q289 -9 238 -9Q191 -9 160 1Q129 11 110 30.5Q91 50 83.5 80Q76 110 76 150V510H158V167Q158 110 179 86.5Q200 63 258 63Q305 63 347.5 84.5Q390 106 422 147V510H504V0H445L433 72ZM430 587H341V673H430ZM240 587H151V673H240Z" glyph-name="udieresis" horiz-adv-x="589" unicode="&#252;" /><glyph d="M432 72Q388 27 338.5 9Q289 -9 238 -9Q191 -9 160 1Q129 11 110 30.5Q91 50 83.5 80Q76 110 76 150V510H158V167Q158 110 179 86.5Q200 63 258 63Q305 63 347.5 84.5Q390 106 422 147V510H504V0H445L433 72ZM121 678H230L338 566H261Z" glyph-name="ugrave" horiz-adv-x="589" unicode="&#249;" /><glyph d="M432 72Q388 27 338.5 9Q289 -9 238 -9Q191 -9 160 1Q129 11 110 30.5Q91 50 83.5 80Q76 110 76 150V510H158V167Q158 110 179 86.5Q200 63 258 63Q305 63 347.5 84.5Q390 106 422 147V510H504V0H445L433 72ZM387 566H323L431 678H527ZM247 566H183L291 678H387Z" glyph-name="uhungarumlaut" horiz-adv-x="589" unicode="&#369;" /><glyph d="M432 72Q388 27 338.5 9Q289 -9 238 -9Q191 -9 160 1Q129 11 110 30.5Q91 50 83.5 80Q76 110 76 150V510H158V167Q158 110 179 86.5Q200 63 258 63Q305 63 347.5 84.5Q390 106 422 147V510H504V0H445L433 72ZM456 599H125V667H456Z" glyph-name="umacron" horiz-adv-x="589" unicode="&#363;" /><glyph d="M0 -168V-101H512V-168Z" glyph-name="underscore" horiz-adv-x="512" unicode="_" /><glyph d="M352 236H32V307H352Z" glyph-name="uni00AD" horiz-adv-x="384" unicode="&#173;" /><glyph d="M432 72Q388 27 338.5 9Q289 -9 238 -9Q191 -9 160 1Q129 11 110 30.5Q91 50 83.5 80Q76 110 76 150V510H158V167Q158 110 179 86.5Q200 63 258 63Q305 63 347.5 84.5Q390 106 422 147V510H504V0Q479 -14 464 -37Q449 -60 449 -80Q449 -96 459 -107Q469 -118 493 -118Q507 -118 523 -116Q539 -114 556 -109V-164Q541 -170 519.5 -172Q498 -174 481 -174Q423 -174 398.5 -151Q374 -128 374 -93Q374 -67 392.5 -38.5Q411 -10 443 10L433 72Z" glyph-name="uogonek" horiz-adv-x="589" unicode="&#371;" /><glyph d="M432 72Q388 27 338.5 9Q289 -9 238 -9Q191 -9 160 1Q129 11 110 30.5Q91 50 83.5 80Q76 110 76 150V510H158V167Q158 110 179 86.5Q200 63 258 63Q305 63 347.5 84.5Q390 106 422 147V510H504V0H445L433 72ZM380 640Q380 601 357 584Q334 567 291 567Q248 567 224.5 584Q201 601 201 640Q201 679 224.5 696Q248 713 291 713Q334 713 357 696Q380 679 380 640ZM327 640Q327 673 291 673Q254 673 254 640Q254 608 291 608Q327 608 327 640Z" glyph-name="uring" horiz-adv-x="589" unicode="&#367;" /><glyph d="M432 72Q388 27 338.5 9Q289 -9 238 -9Q191 -9 160 1Q129 11 110 30.5Q91 50 83.5 80Q76 110 76 150V510H158V167Q158 110 179 86.5Q200 63 258 63Q305 63 347.5 84.5Q390 106 422 147V510H504V0H445L433 72ZM365 656Q387 656 412 667Q437 678 457 692V626Q442 615 416 603Q390 591 366 591Q347 591 327.5 596Q308 601 289.5 607.5Q271 614 252.5 619Q234 624 216 624Q194 624 169 613Q144 602 124 588V654Q139 665 165 677.5Q191 690 215 690Q234 690 253 684.5Q272 679 290.5 673Q309 667 327.5 661.5Q346 656 365 656Z" glyph-name="utilde" horiz-adv-x="589" unicode="&#361;" /><glyph d="M261 71Q271 101 284.5 142Q298 183 312 221L418 510H502L309 0H207L14 510H102L208 221Q222 183 235.5 142Q249 101 259 71H261Z" glyph-name="v" horiz-adv-x="516" unicode="v" /><glyph d="M264 0H173L17 510H101L178 252Q184 233 190 210.5Q196 188 201.5 165.5Q207 143 212.5 122.5Q218 102 222 87H224Q228 101 235 120.5Q242 140 250.5 162.5Q259 185 267 207.5Q275 230 283 250L351 427L319 510H405L502 249Q509 230 516.5 208Q524 186 532 164Q540 142 547 122Q554 102 559 87H561Q565 102 570 122.5Q575 143 580.5 165.5Q586 188 592 210.5Q598 233 604 253L681 510H762L606 0H515L389 327H388Z" glyph-name="w" horiz-adv-x="778" unicode="w" /><glyph d="M264 0H173L17 510H101L178 252Q184 233 190 210.5Q196 188 201.5 165.5Q207 143 212.5 122.5Q218 102 222 87H224Q228 101 235 120.5Q242 140 250.5 162.5Q259 185 267 207.5Q275 230 283 250L351 427L319 510H405L502 249Q509 230 516.5 208Q524 186 532 164Q540 142 547 122Q554 102 559 87H561Q565 102 570 122.5Q575 143 580.5 165.5Q586 188 592 210.5Q598 233 604 253L681 510H762L606 0H515L389 327H388ZM397 566H320L428 678H537Z" glyph-name="wacute" horiz-adv-x="778" unicode="&#7811;" /><glyph d="M264 0H173L17 510H101L178 252Q184 233 190 210.5Q196 188 201.5 165.5Q207 143 212.5 122.5Q218 102 222 87H224Q228 101 235 120.5Q242 140 250.5 162.5Q259 185 267 207.5Q275 230 283 250L351 427L319 510H405L502 249Q509 230 516.5 208Q524 186 532 164Q540 142 547 122Q554 102 559 87H561Q565 102 570 122.5Q575 143 580.5 165.5Q586 188 592 210.5Q598 233 604 253L681 510H762L606 0H515L389 327H388ZM538 566H457L389 636L321 566H240L350 682H429Z" glyph-name="wcircumflex" horiz-adv-x="778" unicode="&#373;" /><glyph d="M264 0H173L17 510H101L178 252Q184 233 190 210.5Q196 188 201.5 165.5Q207 143 212.5 122.5Q218 102 222 87H224Q228 101 235 120.5Q242 140 250.5 162.5Q259 185 267 207.5Q275 230 283 250L351 427L319 510H405L502 249Q509 230 516.5 208Q524 186 532 164Q540 142 547 122Q554 102 559 87H561Q565 102 570 122.5Q575 143 580.5 165.5Q586 188 592 210.5Q598 233 604 253L681 510H762L606 0H515L389 327H388ZM529 587H440V673H529ZM339 587H250V673H339Z" glyph-name="wdieresis" horiz-adv-x="778" unicode="&#7813;" /><glyph d="M264 0H173L17 510H101L178 252Q184 233 190 210.5Q196 188 201.5 165.5Q207 143 212.5 122.5Q218 102 222 87H224Q228 101 235 120.5Q242 140 250.5 162.5Q259 185 267 207.5Q275 230 283 250L351 427L319 510H405L502 249Q509 230 516.5 208Q524 186 532 164Q540 142 547 122Q554 102 559 87H561Q565 102 570 122.5Q575 143 580.5 165.5Q586 188 592 210.5Q598 233 604 253L681 510H762L606 0H515L389 327H388ZM178 678H287L395 566H318Z" glyph-name="wgrave" horiz-adv-x="778" unicode="&#7809;" /><glyph d="M238 195 100 0H4L190 258L10 510H107L240 321L374 510H468L287 259L474 0H375Z" glyph-name="x" horiz-adv-x="478" unicode="x" /><glyph d="M501 510 227 -168H142L216 14L14 510H102L206 248Q212 232 219.5 213Q227 194 234 175.5Q241 157 247.5 139Q254 121 259 107H261Q266 121 272.5 139Q279 157 286 175.5Q293 194 300.5 213Q308 232 314 248L418 510Z" glyph-name="y" horiz-adv-x="515" unicode="y" /><glyph d="M501 510 227 -168H142L216 14L14 510H102L206 248Q212 232 219.5 213Q227 194 234 175.5Q241 157 247.5 139Q254 121 259 107H261Q266 121 272.5 139Q279 157 286 175.5Q293 194 300.5 213Q308 232 314 248L418 510ZM298 566H221L329 678H438Z" glyph-name="yacute" horiz-adv-x="515" unicode="&#253;" /><glyph d="M501 510 227 -168H142L216 14L14 510H102L206 248Q212 232 219.5 213Q227 194 234 175.5Q241 157 247.5 139Q254 121 259 107H261Q266 121 272.5 139Q279 157 286 175.5Q293 194 300.5 213Q308 232 314 248L418 510ZM406 566H325L257 636L189 566H108L218 682H297Z" glyph-name="ycircumflex" horiz-adv-x="515" unicode="&#375;" /><glyph d="M501 510 227 -168H142L216 14L14 510H102L206 248Q212 232 219.5 213Q227 194 234 175.5Q241 157 247.5 139Q254 121 259 107H261Q266 121 272.5 139Q279 157 286 175.5Q293 194 300.5 213Q308 232 314 248L418 510ZM207 587H118V673H207ZM397 587H308V673H397Z" glyph-name="ydieresis" horiz-adv-x="515" unicode="&#255;" /><glyph d="M373 255V0H282V255H86V317H255L228 371H86V433H196L73 678H172L329 344H330L493 678H587L460 433H575V371H428L400 317H576V255Z" glyph-name="yen" horiz-adv-x="660" unicode="&#165;" /><glyph d="M419 458 139 69V67H416V0H33V52L313 441V443H47V510H419Z" glyph-name="z" horiz-adv-x="458" unicode="z" /><glyph d="M419 458 139 69V67H416V0H33V52L313 441V443H47V510H419ZM259 566H182L290 678H399Z" glyph-name="zacute" horiz-adv-x="452" unicode="&#378;" /><glyph d="M419 458 139 69V67H416V0H33V52L313 441V443H47V510H419ZM90 678H171L239 608L307 678H388L278 562H199Z" glyph-name="zcaron" horiz-adv-x="452" unicode="&#158;" /><glyph d="M419 458 139 69V67H416V0H33V52L313 441V443H47V510H419ZM285 587H193V676H285Z" glyph-name="zdotaccent" horiz-adv-x="452" unicode="&#380;" /><glyph d="M484 339Q484 398 480 449.5Q476 501 460 539Q444 577 412 599Q380 621 323 621Q266 621 234 599Q202 577 186 539Q170 501 166 449.5Q162 398 162 339Q162 280 166 228.5Q170 177 186 139Q202 101 234 79Q266 57 323 57Q380 57 412 79Q444 101 460 139Q476 177 480 228.5Q484 280 484 339ZM75 339Q75 418 85.5 483Q96 548 123.5 594Q151 640 199 665Q247 690 323 690Q399 690 447 665Q495 640 522.5 594Q550 548 560.5 483Q571 418 571 339Q571 259 560.5 194.5Q550 130 522.5 84Q495 38 447 13Q399 -12 323 -12Q247 -12 199 13Q151 38 123.5 84Q96 130 85.5 194.5Q75 259 75 339Z" glyph-name="zero" horiz-adv-x="646" unicode="0" /></font>
</defs>
</svg>
