<?xml version="1.0" standalone="no"?><!DOCTYPE svg PUBLIC "-//W3C//DTD SVG 1.1//EN" "http://www.w3.org/Graphics/SVG/1.1/DTD/svg11.dtd" ><svg version="1.1" xmlns="http://www.w3.org/2000/svg"><defs><font horiz-adv-x="0" id="font"><font-face ascent="832" bbox="-197 -258 1234 881" cap-height="678" descent="-168" font-family="Gustan" font-stretch="normal" font-style="normal" font-weight="600" units-per-em="1000" x-height="510" /><missing-glyph d="M90 780H870V0H90ZM201 66H759L480 345ZM480 435 759 714H201ZM160 665V115L435 390ZM800 115V665L525 390Z" horiz-adv-x="960" /><glyph glyph-name=".null" horiz-adv-x="0" /><glyph d="M180 162 126 0H10L252 678H388L631 0H512L457 162ZM318 577Q309 548 300 517.5Q291 487 278 447L211 250H427L360 447Q347 487 338 517.5Q329 548 320 577Z" glyph-name="A" horiz-adv-x="641" unicode="A" /><glyph d="M921 0H486V162H187L68 0H-71L436 678H914V589H601V390H871V301H601V89H921ZM248 250H486V584H483Q475 571 462.5 552Q450 533 436.5 513Q423 493 409.5 473Q396 453 384 437Z" glyph-name="AE" horiz-adv-x="956" unicode="&#198;" /><glyph d="M180 162 126 0H10L252 678H388L631 0H512L457 162ZM318 577Q309 548 300 517.5Q291 487 278 447L211 250H427L360 447Q347 487 338 517.5Q329 548 320 577ZM369 734H276L386 846H519Z" glyph-name="Aacute" horiz-adv-x="641" unicode="&#193;" /><glyph d="M180 162 126 0H10L252 678H388L631 0H512L457 162ZM318 577Q309 548 300 517.5Q291 487 278 447L211 250H427L360 447Q347 487 338 517.5Q329 548 320 577ZM319 791Q351 791 377 802.5Q403 814 410 846H498Q487 780 439 752Q391 724 319 724Q248 724 199.5 752.5Q151 781 141 846H228Q236 814 261.5 802.5Q287 791 319 791Z" glyph-name="Abreve" horiz-adv-x="641" unicode="&#258;" /><glyph d="M180 162 126 0H10L252 678H388L631 0H512L457 162ZM318 577Q309 548 300 517.5Q291 487 278 447L211 250H427L360 447Q347 487 338 517.5Q329 548 320 577ZM485 732H385L320 796L256 732H156L271 850H370Z" glyph-name="Acircumflex" horiz-adv-x="641" unicode="&#194;" /><glyph d="M180 162 126 0H10L252 678H388L631 0H512L457 162ZM318 577Q309 548 300 517.5Q291 487 278 447L211 250H427L360 447Q347 487 338 517.5Q329 548 320 577ZM268 748H161V843H268ZM476 748H368V843H476Z" glyph-name="Adieresis" horiz-adv-x="641" unicode="&#196;" /><glyph d="M180 162 126 0H10L252 678H388L631 0H512L457 162ZM318 577Q309 548 300 517.5Q291 487 278 447L211 250H427L360 447Q347 487 338 517.5Q329 548 320 577ZM125 846H258L368 734H275Z" glyph-name="Agrave" horiz-adv-x="641" unicode="&#192;" /><glyph d="M180 162 126 0H10L252 678H388L631 0H512L457 162ZM318 577Q309 548 300 517.5Q291 487 278 447L211 250H427L360 447Q347 487 338 517.5Q329 548 320 577ZM492 762H146V841H492Z" glyph-name="Amacron" horiz-adv-x="641" unicode="&#256;" /><glyph d="M512 0 457 162H180L126 0H10L252 678H388L631 0Q600 -17 586.5 -40Q573 -63 573 -81Q573 -116 615 -116Q630 -116 645.5 -114Q661 -112 680 -106V-167Q662 -175 638 -177Q614 -179 597 -179Q541 -179 514.5 -157Q488 -135 488 -100Q488 -71 505 -44Q522 -17 548 0ZM318 577Q309 548 300 517.5Q291 487 278 447L211 250H427L360 447Q347 487 338 517.5Q329 548 320 577Z" glyph-name="Aogonek" horiz-adv-x="641" unicode="&#260;" /><glyph d="M180 162 126 0H10L252 678H388L631 0H512L457 162ZM318 577Q309 548 300 517.5Q291 487 278 447L211 250H427L360 447Q347 487 338 517.5Q329 548 320 577ZM356 805Q356 837 321 837Q285 837 285 805Q285 774 321 774Q356 774 356 805ZM417 805Q417 763 392.5 745.5Q368 728 321 728Q275 728 249.5 745.5Q224 763 224 805Q224 846 249.5 863.5Q275 881 321 881Q368 881 392.5 863.5Q417 846 417 805Z" glyph-name="Aring" horiz-adv-x="641" unicode="&#197;" /><glyph d="M180 162 126 0H10L252 678H388L631 0H512L457 162ZM318 577Q309 548 300 517.5Q291 487 278 447L211 250H427L360 447Q347 487 338 517.5Q329 548 320 577ZM395 826Q418 826 445.5 838Q473 850 493 864V787Q478 774 449.5 762Q421 750 395 750Q373 750 354 755Q335 760 317 766Q299 772 281.5 777Q264 782 246 782Q223 782 194.5 770.5Q166 759 145 745V823Q162 835 191 847.5Q220 860 245 860Q267 860 286 855Q305 850 322.5 843.5Q340 837 357.5 831.5Q375 826 395 826Z" glyph-name="Atilde" horiz-adv-x="641" unicode="&#195;" /><glyph d="M345 86Q380 86 404.5 91.5Q429 97 446 114Q459 127 464.5 147.5Q470 168 470 195Q470 251 446 275Q429 292 404.5 297.5Q380 303 345 303H200V86ZM331 389Q364 389 387 393.5Q410 398 427 415Q450 436 450 491Q450 543 427 566Q410 583 387 587.5Q364 592 331 592H200V389ZM86 0V678H326Q392 678 443 668.5Q494 659 525 627Q545 607 557 576.5Q569 546 569 504Q569 470 561 445Q553 420 540 402.5Q527 385 511.5 373Q496 361 481 353V351Q498 344 517 331Q536 318 552 298Q568 278 578.5 250.5Q589 223 589 188Q589 141 576 107.5Q563 74 541 52Q507 19 454.5 9.5Q402 0 335 0Z" glyph-name="B" horiz-adv-x="630" unicode="B" /><glyph d="M52 338Q52 433 71 500.5Q90 568 127 610.5Q164 653 219 672.5Q274 692 347 692Q360 692 379 691.5Q398 691 420.5 688.5Q443 686 468 681Q493 676 517 668V579Q473 592 432.5 596.5Q392 601 368 601Q320 601 283.5 589.5Q247 578 222.5 548.5Q198 519 185.5 468.5Q173 418 173 340Q173 260 185.5 210Q198 160 222.5 131.5Q247 103 283.5 93Q320 83 368 83Q384 83 404.5 84.5Q425 86 447 89.5Q469 93 490.5 98Q512 103 531 109V15Q511 7 486 1.5Q461 -4 435.5 -7.5Q410 -11 386.5 -12.5Q363 -14 347 -14Q276 -14 221.5 4.5Q167 23 129 65Q91 107 71.5 174Q52 241 52 338Z" glyph-name="C" horiz-adv-x="566" unicode="C" /><glyph d="M353 734H260L370 846H503ZM52 338Q52 433 71 500.5Q90 568 127 610.5Q164 653 219 672.5Q274 692 347 692Q360 692 379 691.5Q398 691 420.5 688.5Q443 686 468 681Q493 676 517 668V579Q473 592 432.5 596.5Q392 601 368 601Q320 601 283.5 589.5Q247 578 222.5 548.5Q198 519 185.5 468.5Q173 418 173 340Q173 260 185.5 210Q198 160 222.5 131.5Q247 103 283.5 93Q320 83 368 83Q384 83 404.5 84.5Q425 86 447 89.5Q469 93 490.5 98Q512 103 531 109V15Q511 7 486 1.5Q461 -4 435.5 -7.5Q410 -11 386.5 -12.5Q363 -14 347 -14Q276 -14 221.5 4.5Q167 23 129 65Q91 107 71.5 174Q52 241 52 338Z" glyph-name="Cacute" horiz-adv-x="566" unicode="&#262;" /><glyph d="M166 848H266L330 783L395 848H495L379 730H281ZM52 338Q52 433 71 500.5Q90 568 127 610.5Q164 653 219 672.5Q274 692 347 692Q360 692 379 691.5Q398 691 420.5 688.5Q443 686 468 681Q493 676 517 668V579Q473 592 432.5 596.5Q392 601 368 601Q320 601 283.5 589.5Q247 578 222.5 548.5Q198 519 185.5 468.5Q173 418 173 340Q173 260 185.5 210Q198 160 222.5 131.5Q247 103 283.5 93Q320 83 368 83Q384 83 404.5 84.5Q425 86 447 89.5Q469 93 490.5 98Q512 103 531 109V15Q511 7 486 1.5Q461 -4 435.5 -7.5Q410 -11 386.5 -12.5Q363 -14 347 -14Q276 -14 221.5 4.5Q167 23 129 65Q91 107 71.5 174Q52 241 52 338Z" glyph-name="Ccaron" horiz-adv-x="566" unicode="&#268;" /><glyph d="M302 -12Q242 -7 195.5 15Q149 37 117 79Q85 121 68.5 185Q52 249 52 338Q52 433 71 500.5Q90 568 127 610.5Q164 653 219 672.5Q274 692 347 692Q360 692 379 691.5Q398 691 420.5 688.5Q443 686 468 681Q493 676 517 668V579Q473 592 432.5 596.5Q392 601 368 601Q320 601 283.5 589.5Q247 578 222.5 548.5Q198 519 185.5 468.5Q173 418 173 340Q173 260 185.5 210Q198 160 222.5 131.5Q247 103 283.5 93Q320 83 368 83Q384 83 404.5 84.5Q425 86 447 89.5Q469 93 490.5 98Q512 103 531 109V15Q501 3 460.5 -3.5Q420 -10 385 -12L374 -40Q407 -51 421 -67Q435 -83 435 -104Q435 -141 401.5 -160Q368 -179 305 -179Q288 -179 267.5 -177Q247 -175 221 -167V-106Q244 -114 262 -116Q280 -118 292 -118Q341 -118 341 -96Q341 -84 326 -78.5Q311 -73 293 -72L287 -46Z" glyph-name="Ccedilla" horiz-adv-x="566" unicode="&#199;" /><glyph d="M497 732H397L332 796L268 732H168L283 850H382ZM52 338Q52 433 71 500.5Q90 568 127 610.5Q164 653 219 672.5Q274 692 347 692Q360 692 379 691.5Q398 691 420.5 688.5Q443 686 468 681Q493 676 517 668V579Q473 592 432.5 596.5Q392 601 368 601Q320 601 283.5 589.5Q247 578 222.5 548.5Q198 519 185.5 468.5Q173 418 173 340Q173 260 185.5 210Q198 160 222.5 131.5Q247 103 283.5 93Q320 83 368 83Q384 83 404.5 84.5Q425 86 447 89.5Q469 93 490.5 98Q512 103 531 109V15Q511 7 486 1.5Q461 -4 435.5 -7.5Q410 -11 386.5 -12.5Q363 -14 347 -14Q276 -14 221.5 4.5Q167 23 129 65Q91 107 71.5 174Q52 241 52 338Z" glyph-name="Ccircumflex" horiz-adv-x="566" unicode="&#264;" /><glyph d="M52 338Q52 433 71 500.5Q90 568 127 610.5Q164 653 219 672.5Q274 692 347 692Q360 692 379 691.5Q398 691 420.5 688.5Q443 686 468 681Q493 676 517 668V579Q473 592 432.5 596.5Q392 601 368 601Q320 601 283.5 589.5Q247 578 222.5 548.5Q198 519 185.5 468.5Q173 418 173 340Q173 260 185.5 210Q198 160 222.5 131.5Q247 103 283.5 93Q320 83 368 83Q384 83 404.5 84.5Q425 86 447 89.5Q469 93 490.5 98Q512 103 531 109V15Q511 7 486 1.5Q461 -4 435.5 -7.5Q410 -11 386.5 -12.5Q363 -14 347 -14Q276 -14 221.5 4.5Q167 23 129 65Q91 107 71.5 174Q52 241 52 338ZM386 749H274V845H386Z" glyph-name="Cdotaccent" horiz-adv-x="566" unicode="&#266;" /><glyph d="M512 339Q512 420 497.5 471.5Q483 523 454 552Q432 575 402.5 582Q373 589 337 589H200V89H336Q372 89 401 96Q430 103 453 125Q482 154 497 205.5Q512 257 512 339ZM633 339Q633 152 548 69Q510 32 460 16Q410 0 335 0H86V678H328Q403 678 458 661Q513 644 551 605Q633 521 633 339Z" glyph-name="D" horiz-adv-x="684" unicode="D" /><glyph d="M152 848H252L316 783L381 848H481L365 730H267ZM512 339Q512 420 497.5 471.5Q483 523 454 552Q432 575 402.5 582Q373 589 337 589H200V89H336Q372 89 401 96Q430 103 453 125Q482 154 497 205.5Q512 257 512 339ZM633 339Q633 152 548 69Q510 32 460 16Q410 0 335 0H86V678H328Q403 678 458 661Q513 644 551 605Q633 521 633 339Z" glyph-name="Dcaron" horiz-adv-x="684" unicode="&#270;" /><glyph d="M665 339Q665 152 580 69Q542 32 492 16Q442 0 367 0H118V301H16V390H118V678H360Q435 678 490 661Q545 644 583 605Q665 521 665 339ZM544 339Q544 420 529.5 471.5Q515 523 486 552Q464 575 434.5 582Q405 589 369 589H232V390H412V301H232V89H368Q404 89 433 96Q462 103 485 125Q514 154 529 205.5Q544 257 544 339Z" glyph-name="Dcroat" horiz-adv-x="716" unicode="&#272;" /><glyph d="M737 0H48L46 67L337 684H447L739 67ZM513 89Q543 89 567.5 88.5Q592 88 618 87V89L440 470Q428 495 415 527Q402 559 393 581H391Q383 559 369 527Q355 495 344 470L166 89V87Q192 88 216.5 88.5Q241 89 271 89Z" glyph-name="Delta" horiz-adv-x="784" unicode="&#8710;" /><glyph d="M521 0H86V678H513V589H200V390H470V301H200V89H521Z" glyph-name="E" horiz-adv-x="555" unicode="E" /><glyph d="M344 734H251L361 846H494ZM521 0H86V678H513V589H200V390H470V301H200V89H521Z" glyph-name="Eacute" horiz-adv-x="555" unicode="&#201;" /><glyph d="M521 0H86V678H513V589H200V390H470V301H200V89H521ZM302 791Q334 791 360 802.5Q386 814 393 846H481Q470 780 422 752Q374 724 302 724Q231 724 182.5 752.5Q134 781 124 846H211Q219 814 244.5 802.5Q270 791 302 791Z" glyph-name="Ebreve" horiz-adv-x="555" unicode="&#276;" /><glyph d="M139 848H239L303 783L368 848H468L352 730H254ZM521 0H86V678H513V589H200V390H470V301H200V89H521Z" glyph-name="Ecaron" horiz-adv-x="555" unicode="&#282;" /><glyph d="M467 732H367L302 796L238 732H138L253 850H352ZM521 0H86V678H513V589H200V390H470V301H200V89H521Z" glyph-name="Ecircumflex" horiz-adv-x="555" unicode="&#202;" /><glyph d="M253 748H146V843H253ZM461 748H353V843H461ZM521 0H86V678H513V589H200V390H470V301H200V89H521Z" glyph-name="Edieresis" horiz-adv-x="555" unicode="&#203;" /><glyph d="M521 0H86V678H513V589H200V390H470V301H200V89H521ZM365 749H253V845H365Z" glyph-name="Edotaccent" horiz-adv-x="555" unicode="&#278;" /><glyph d="M521 0H86V678H513V589H200V390H470V301H200V89H521ZM135 846H268L378 734H285Z" glyph-name="Egrave" horiz-adv-x="555" unicode="&#200;" /><glyph d="M521 0H86V678H513V589H200V390H470V301H200V89H521ZM477 762H131V841H477Z" glyph-name="Emacron" horiz-adv-x="555" unicode="&#274;" /><glyph d="M639 147Q639 95 635 52Q631 9 621 -28.5Q611 -66 595 -100Q579 -134 555 -168H446Q497 -87 514 2L278 372Q256 406 234.5 443Q213 480 193 516H190Q191 481 192 439.5Q193 398 194 355.5Q195 313 195.5 272Q196 231 196 197V0H86V678H211L446 308Q467 274 489 236.5Q511 199 531 164H534Q533 199 532 240Q531 281 530.5 323Q530 365 529.5 406Q529 447 529 481V678H639Z" glyph-name="Eng" horiz-adv-x="724" unicode="&#330;" /><glyph d="M521 0H520Q489 -17 475.5 -40Q462 -63 462 -81Q462 -116 504 -116Q519 -116 534.5 -114Q550 -112 569 -106V-167Q551 -175 527 -177Q503 -179 486 -179Q430 -179 403.5 -157Q377 -135 377 -100Q377 -71 394 -44Q411 -17 437 0H86V678H513V589H200V390H470V301H200V89H521Z" glyph-name="Eogonek" horiz-adv-x="555" unicode="&#280;" /><glyph d="M665 339Q665 152 580 69Q542 32 492 16Q442 0 367 0H118V301H16V390H118V678H360Q435 678 490 661Q545 644 583 605Q665 521 665 339ZM544 339Q544 420 529.5 471.5Q515 523 486 552Q464 575 434.5 582Q405 589 369 589H232V390H412V301H232V89H368Q404 89 433 96Q462 103 485 125Q514 154 529 205.5Q544 257 544 339Z" glyph-name="Eth" horiz-adv-x="716" unicode="&#208;" /><glyph d="M85 320H134V369H63L92 439H140Q157 574 224 633Q291 692 404 692Q415 692 432 691.5Q449 691 469 688.5Q489 686 511 681Q533 676 554 668V579Q516 592 481 596.5Q446 601 425 601Q391 601 363.5 593.5Q336 586 315.5 567.5Q295 549 281.5 517.5Q268 486 261 439H506L476 369H256V320H460L431 250H260Q266 199 279.5 166.5Q293 134 313.5 115.5Q334 97 362 90Q390 83 425 83Q454 83 494.5 89.5Q535 96 568 109V15Q550 7 527.5 1.5Q505 -4 482.5 -7.5Q460 -11 439.5 -12.5Q419 -14 404 -14Q348 -14 302.5 0Q257 14 223 45.5Q189 77 167.5 127.5Q146 178 138 250H56Z" glyph-name="Euro" horiz-adv-x="660" unicode="&#8364;" /><glyph d="M86 0V678H521V589H200V390H470V301H200V0Z" glyph-name="F" horiz-adv-x="524" unicode="F" /><glyph d="M337 390H607V35Q579 21 547 11.5Q515 2 483 -4Q451 -10 420 -12.5Q389 -15 363 -15Q286 -15 228 4Q170 23 131 65Q91 107 71.5 173Q52 239 52 336Q52 436 73 504Q94 572 135.5 614Q177 656 237.5 674Q298 692 378 692Q392 692 414.5 691Q437 690 463 687Q489 684 515.5 679.5Q542 675 565 668V579Q545 584 522.5 588Q500 592 477.5 595Q455 598 435 599.5Q415 601 400 601Q341 601 298.5 590.5Q256 580 228 551Q200 522 186.5 470Q173 418 173 336Q173 255 187.5 204.5Q202 154 228 125Q254 96 288.5 86Q323 76 364 76Q389 76 425.5 78.5Q462 81 492 91V301H337Z" glyph-name="G" horiz-adv-x="678" unicode="G" /><glyph d="M337 390H607V35Q579 21 547 11.5Q515 2 483 -4Q451 -10 420 -12.5Q389 -15 363 -15Q286 -15 228 4Q170 23 131 65Q91 107 71.5 173Q52 239 52 336Q52 436 73 504Q94 572 135.5 614Q177 656 237.5 674Q298 692 378 692Q392 692 414.5 691Q437 690 463 687Q489 684 515.5 679.5Q542 675 565 668V579Q545 584 522.5 588Q500 592 477.5 595Q455 598 435 599.5Q415 601 400 601Q341 601 298.5 590.5Q256 580 228 551Q200 522 186.5 470Q173 418 173 336Q173 255 187.5 204.5Q202 154 228 125Q254 96 288.5 86Q323 76 364 76Q389 76 425.5 78.5Q462 81 492 91V301H337ZM350 791Q382 791 408 802.5Q434 814 441 846H529Q518 780 470 752Q422 724 350 724Q279 724 230.5 752.5Q182 781 172 846H259Q267 814 292.5 802.5Q318 791 350 791Z" glyph-name="Gbreve" horiz-adv-x="678" unicode="&#286;" /><glyph d="M520 732H420L355 796L291 732H191L306 850H405ZM337 390H607V35Q579 21 547 11.5Q515 2 483 -4Q451 -10 420 -12.5Q389 -15 363 -15Q286 -15 228 4Q170 23 131 65Q91 107 71.5 173Q52 239 52 336Q52 436 73 504Q94 572 135.5 614Q177 656 237.5 674Q298 692 378 692Q392 692 414.5 691Q437 690 463 687Q489 684 515.5 679.5Q542 675 565 668V579Q545 584 522.5 588Q500 592 477.5 595Q455 598 435 599.5Q415 601 400 601Q341 601 298.5 590.5Q256 580 228 551Q200 522 186.5 470Q173 418 173 336Q173 255 187.5 204.5Q202 154 228 125Q254 96 288.5 86Q323 76 364 76Q389 76 425.5 78.5Q462 81 492 91V301H337Z" glyph-name="Gcircumflex" horiz-adv-x="678" unicode="&#284;" /><glyph d="M322 -75H432L346 -258H282ZM337 390H607V35Q579 21 547 11.5Q515 2 483 -4Q451 -10 420 -12.5Q389 -15 363 -15Q286 -15 228 4Q170 23 131 65Q91 107 71.5 173Q52 239 52 336Q52 436 73 504Q94 572 135.5 614Q177 656 237.5 674Q298 692 378 692Q392 692 414.5 691Q437 690 463 687Q489 684 515.5 679.5Q542 675 565 668V579Q545 584 522.5 588Q500 592 477.5 595Q455 598 435 599.5Q415 601 400 601Q341 601 298.5 590.5Q256 580 228 551Q200 522 186.5 470Q173 418 173 336Q173 255 187.5 204.5Q202 154 228 125Q254 96 288.5 86Q323 76 364 76Q389 76 425.5 78.5Q462 81 492 91V301H337Z" glyph-name="Gcommaaccent" horiz-adv-x="678" unicode="&#290;" /><glyph d="M337 390H607V35Q579 21 547 11.5Q515 2 483 -4Q451 -10 420 -12.5Q389 -15 363 -15Q286 -15 228 4Q170 23 131 65Q91 107 71.5 173Q52 239 52 336Q52 436 73 504Q94 572 135.5 614Q177 656 237.5 674Q298 692 378 692Q392 692 414.5 691Q437 690 463 687Q489 684 515.5 679.5Q542 675 565 668V579Q545 584 522.5 588Q500 592 477.5 595Q455 598 435 599.5Q415 601 400 601Q341 601 298.5 590.5Q256 580 228 551Q200 522 186.5 470Q173 418 173 336Q173 255 187.5 204.5Q202 154 228 125Q254 96 288.5 86Q323 76 364 76Q389 76 425.5 78.5Q462 81 492 91V301H337ZM409 749H297V845H409Z" glyph-name="Gdotaccent" horiz-adv-x="678" unicode="&#288;" /><glyph d="M621 0H506V301H200V0H86V678H200V390H506V678H621Z" glyph-name="H" horiz-adv-x="706" unicode="H" /><glyph d="M621 0H506V301H200V0H86V678H200V559H506V678H621ZM506 390V470H200V390Z" glyph-name="Hbar" horiz-adv-x="706" unicode="&#294;" /><glyph d="M517 732H417L352 796L288 732H188L303 850H402ZM621 0H506V301H200V0H86V678H200V390H506V678H621Z" glyph-name="Hcircumflex" horiz-adv-x="706" unicode="&#292;" /><glyph d="M200 0H86V678H200Z" glyph-name="I" horiz-adv-x="286" unicode="I" /><glyph d="M200 0H86V678H200ZM300 -118Q339 -55 358.5 14.5Q378 84 378 169V678H492V197Q492 145 488 102Q484 59 474.5 21.5Q465 -16 449 -50Q433 -84 409 -118Z" glyph-name="IJ" horiz-adv-x="578" unicode="&#306;" /><glyph d="M200 0H86V678H200ZM190 734H97L207 846H340Z" glyph-name="Iacute" horiz-adv-x="286" unicode="&#205;" /><glyph d="M200 0H86V678H200ZM143 791Q175 791 201 802.5Q227 814 234 846H322Q311 780 263 752Q215 724 143 724Q72 724 23.5 752.5Q-25 781 -35 846H52Q60 814 85.5 802.5Q111 791 143 791Z" glyph-name="Ibreve" horiz-adv-x="286" unicode="&#300;" /><glyph d="M309 732H209L144 796L80 732H-20L95 850H194ZM200 0H86V678H200Z" glyph-name="Icircumflex" horiz-adv-x="286" unicode="&#206;" /><glyph d="M93 748H-14V843H93ZM301 748H193V843H301ZM200 0H86V678H200Z" glyph-name="Idieresis" horiz-adv-x="286" unicode="&#207;" /><glyph d="M200 0H86V678H200ZM199 749H87V845H199Z" glyph-name="Idotaccent" horiz-adv-x="286" unicode="&#304;" /><glyph d="M200 0H86V678H200ZM-54 846H79L189 734H96Z" glyph-name="Igrave" horiz-adv-x="286" unicode="&#204;" /><glyph d="M200 0H86V678H200ZM316 762H-30V841H316Z" glyph-name="Imacron" horiz-adv-x="286" unicode="&#298;" /><glyph d="M87 0V678H201V0Q170 -17 156.5 -40Q143 -63 143 -81Q143 -116 185 -116Q200 -116 215.5 -114Q231 -112 250 -106V-167Q232 -175 208 -177Q184 -179 167 -179Q111 -179 84.5 -157Q58 -135 58 -100Q58 -71 75 -44Q92 -17 118 0Z" glyph-name="Iogonek" horiz-adv-x="286" unicode="&#302;" /><glyph d="M200 0H86V678H200ZM221 826Q244 826 271.5 838Q299 850 319 864V787Q304 774 275.5 762Q247 750 221 750Q199 750 180 755Q161 760 143 766Q125 772 107.5 777Q90 782 72 782Q49 782 20.5 770.5Q-8 759 -29 745V823Q-12 835 17 847.5Q46 860 71 860Q93 860 112 855Q131 850 148.5 843.5Q166 837 183.5 831.5Q201 826 221 826Z" glyph-name="Itilde" horiz-adv-x="286" unicode="&#296;" /><glyph d="M14 -118Q53 -55 72.5 14.5Q92 84 92 169V678H206V197Q206 145 202 102Q198 59 188.5 21.5Q179 -16 163 -50Q147 -84 123 -118Z" glyph-name="J" horiz-adv-x="292" unicode="J" /><glyph d="M314 732H214L149 796L85 732H-15L100 850H199ZM14 -118Q53 -55 72.5 14.5Q92 84 92 169V678H206V197Q206 145 202 102Q198 59 188.5 21.5Q179 -16 163 -50Q147 -84 123 -118Z" glyph-name="Jcircumflex" horiz-adv-x="292" unicode="&#308;" /><glyph d="M386 354 624 0H493L289 301H200V0H86V678H200V390H287L476 678H598Z" glyph-name="K" horiz-adv-x="627" unicode="K" /><glyph d="M280 -75H390L304 -258H240ZM386 354 624 0H493L289 301H200V0H86V678H200V390H287L476 678H598Z" glyph-name="Kcommaaccent" horiz-adv-x="627" unicode="&#310;" /><glyph d="M518 0H86V678H200V89H518Z" glyph-name="L" horiz-adv-x="522" unicode="L" /><glyph d="M189 734H96L206 846H339ZM518 0H86V678H200V89H518Z" glyph-name="Lacute" horiz-adv-x="522" unicode="&#313;" /><glyph d="M388 678H499L413 496H349ZM518 0H86V678H200V89H518Z" glyph-name="Lcaron" horiz-adv-x="567" unicode="&#317;" /><glyph d="M252 -75H362L276 -258H212ZM518 0H86V678H200V89H518Z" glyph-name="Lcommaaccent" horiz-adv-x="522" unicode="&#315;" /><glyph d="M518 0H86V678H200V89H518ZM477 297H371V394H477Z" glyph-name="Ldot" horiz-adv-x="537" unicode="&#319;" /><glyph d="M541 0H109V228L4 161V263L109 330V678H223V404L419 530V427L223 301V89H541Z" glyph-name="Lslash" horiz-adv-x="545" unicode="&#321;" /><glyph d="M659 223Q659 268 660 309Q661 350 662 390Q663 430 664.5 470.5Q666 511 668 555H665Q648 507 631.5 467Q615 427 595 386L470 135H386L262 386Q242 427 225.5 467Q209 507 191 555H188Q190 511 191.5 470.5Q193 430 194.5 390Q196 350 196.5 309Q197 268 197 223V0H86V678H235L427 284H430L623 678H772V0H659V223Z" glyph-name="M" horiz-adv-x="857" unicode="M" /><glyph d="M446 308Q470 270 491.5 231Q513 192 532 157H535Q534 192 533 234Q532 276 531 319Q530 362 529.5 403.5Q529 445 529 479V678H639V0H515L278 372Q253 410 232.5 447.5Q212 485 193 521H190Q191 486 192 444Q193 402 194 359.5Q195 317 195.5 275.5Q196 234 196 200V0H86V678H212Z" glyph-name="N" horiz-adv-x="724" unicode="N" /><glyph d="M403 734H310L420 846H553ZM446 308Q470 270 491.5 231Q513 192 532 157H535Q534 192 533 234Q532 276 531 319Q530 362 529.5 403.5Q529 445 529 479V678H639V0H515L278 372Q253 410 232.5 447.5Q212 485 193 521H190Q191 486 192 444Q193 402 194 359.5Q195 317 195.5 275.5Q196 234 196 200V0H86V678H212Z" glyph-name="Nacute" horiz-adv-x="724" unicode="&#323;" /><glyph d="M202 848H302L366 783L431 848H531L415 730H317ZM446 308Q470 270 491.5 231Q513 192 532 157H535Q534 192 533 234Q532 276 531 319Q530 362 529.5 403.5Q529 445 529 479V678H639V0H515L278 372Q253 410 232.5 447.5Q212 485 193 521H190Q191 486 192 444Q193 402 194 359.5Q195 317 195.5 275.5Q196 234 196 200V0H86V678H212Z" glyph-name="Ncaron" horiz-adv-x="724" unicode="&#327;" /><glyph d="M302 -75H412L326 -258H262ZM446 308Q470 270 491.5 231Q513 192 532 157H535Q534 192 533 234Q532 276 531 319Q530 362 529.5 403.5Q529 445 529 479V678H639V0H515L278 372Q253 410 232.5 447.5Q212 485 193 521H190Q191 486 192 444Q193 402 194 359.5Q195 317 195.5 275.5Q196 234 196 200V0H86V678H212Z" glyph-name="Ncommaaccent" horiz-adv-x="724" unicode="&#325;" /><glyph d="M446 308Q470 270 491.5 231Q513 192 532 157H535Q534 192 533 234Q532 276 531 319Q530 362 529.5 403.5Q529 445 529 479V678H639V0H515L278 372Q253 410 232.5 447.5Q212 485 193 521H190Q191 486 192 444Q193 402 194 359.5Q195 317 195.5 275.5Q196 234 196 200V0H86V678H212ZM441 826Q464 826 491.5 838Q519 850 539 864V787Q524 774 495.5 762Q467 750 441 750Q419 750 400 755Q381 760 363 766Q345 772 327.5 777Q310 782 292 782Q269 782 240.5 770.5Q212 759 191 745V823Q208 835 237 847.5Q266 860 291 860Q313 860 332 855Q351 850 368.5 843.5Q386 837 403.5 831.5Q421 826 441 826Z" glyph-name="Ntilde" horiz-adv-x="724" unicode="&#209;" /><glyph d="M653 339Q653 256 638.5 190.5Q624 125 589.5 79.5Q555 34 497 10Q439 -14 352 -14Q265 -14 207 10Q149 34 114.5 79.5Q80 125 66 190.5Q52 256 52 339Q52 423 66 488.5Q80 554 114.5 599Q149 644 207 668Q265 692 352 692Q439 692 497 668Q555 644 589.5 599Q624 554 638.5 488.5Q653 423 653 339ZM173 339Q173 269 181.5 219.5Q190 170 211 138Q232 106 266.5 91Q301 76 352 76Q403 76 437.5 91Q472 106 493 138Q514 170 522.5 219.5Q531 269 531 339Q531 409 522.5 458.5Q514 508 493 540Q472 572 437.5 587Q403 602 352 602Q301 602 266.5 587Q232 572 211 540Q190 508 181.5 458.5Q173 409 173 339Z" glyph-name="O" horiz-adv-x="704" unicode="O" /><glyph d="M972 0H537V44H535Q508 16 464.5 1Q421 -14 352 -14Q265 -14 207 10Q149 34 114.5 79.5Q80 125 66 190.5Q52 256 52 339Q52 423 66 488.5Q80 554 114.5 599Q149 644 207 668Q265 692 352 692Q420 692 464 677.5Q508 663 535 634H537V678H964V589H651V390H921V301H651V89H972ZM173 339Q173 269 181.5 219.5Q190 170 211 138Q232 106 266.5 91Q301 76 352 76Q403 76 437.5 91Q472 106 493 138Q514 170 522.5 219.5Q531 269 531 339Q531 409 522.5 458.5Q514 508 493 540Q472 572 437.5 587Q403 602 352 602Q301 602 266.5 587Q232 572 211 540Q190 508 181.5 458.5Q173 409 173 339Z" glyph-name="OE" horiz-adv-x="1006" unicode="&#338;" /><glyph d="M387 734H294L404 846H537ZM653 339Q653 256 638.5 190.5Q624 125 589.5 79.5Q555 34 497 10Q439 -14 352 -14Q265 -14 207 10Q149 34 114.5 79.5Q80 125 66 190.5Q52 256 52 339Q52 423 66 488.5Q80 554 114.5 599Q149 644 207 668Q265 692 352 692Q439 692 497 668Q555 644 589.5 599Q624 554 638.5 488.5Q653 423 653 339ZM173 339Q173 269 181.5 219.5Q190 170 211 138Q232 106 266.5 91Q301 76 352 76Q403 76 437.5 91Q472 106 493 138Q514 170 522.5 219.5Q531 269 531 339Q531 409 522.5 458.5Q514 508 493 540Q472 572 437.5 587Q403 602 352 602Q301 602 266.5 587Q232 572 211 540Q190 508 181.5 458.5Q173 409 173 339Z" glyph-name="Oacute" horiz-adv-x="704" unicode="&#211;" /><glyph d="M653 339Q653 256 638.5 190.5Q624 125 589.5 79.5Q555 34 497 10Q439 -14 352 -14Q265 -14 207 10Q149 34 114.5 79.5Q80 125 66 190.5Q52 256 52 339Q52 423 66 488.5Q80 554 114.5 599Q149 644 207 668Q265 692 352 692Q439 692 497 668Q555 644 589.5 599Q624 554 638.5 488.5Q653 423 653 339ZM173 339Q173 269 181.5 219.5Q190 170 211 138Q232 106 266.5 91Q301 76 352 76Q403 76 437.5 91Q472 106 493 138Q514 170 522.5 219.5Q531 269 531 339Q531 409 522.5 458.5Q514 508 493 540Q472 572 437.5 587Q403 602 352 602Q301 602 266.5 587Q232 572 211 540Q190 508 181.5 458.5Q173 409 173 339ZM352 791Q384 791 410 802.5Q436 814 443 846H531Q520 780 472 752Q424 724 352 724Q281 724 232.5 752.5Q184 781 174 846H261Q269 814 294.5 802.5Q320 791 352 791Z" glyph-name="Obreve" horiz-adv-x="704" unicode="&#334;" /><glyph d="M517 732H417L352 796L288 732H188L303 850H402ZM653 339Q653 256 638.5 190.5Q624 125 589.5 79.5Q555 34 497 10Q439 -14 352 -14Q265 -14 207 10Q149 34 114.5 79.5Q80 125 66 190.5Q52 256 52 339Q52 423 66 488.5Q80 554 114.5 599Q149 644 207 668Q265 692 352 692Q439 692 497 668Q555 644 589.5 599Q624 554 638.5 488.5Q653 423 653 339ZM173 339Q173 269 181.5 219.5Q190 170 211 138Q232 106 266.5 91Q301 76 352 76Q403 76 437.5 91Q472 106 493 138Q514 170 522.5 219.5Q531 269 531 339Q531 409 522.5 458.5Q514 508 493 540Q472 572 437.5 587Q403 602 352 602Q301 602 266.5 587Q232 572 211 540Q190 508 181.5 458.5Q173 409 173 339Z" glyph-name="Ocircumflex" horiz-adv-x="704" unicode="&#212;" /><glyph d="M301 748H194V843H301ZM509 748H401V843H509ZM653 339Q653 256 638.5 190.5Q624 125 589.5 79.5Q555 34 497 10Q439 -14 352 -14Q265 -14 207 10Q149 34 114.5 79.5Q80 125 66 190.5Q52 256 52 339Q52 423 66 488.5Q80 554 114.5 599Q149 644 207 668Q265 692 352 692Q439 692 497 668Q555 644 589.5 599Q624 554 638.5 488.5Q653 423 653 339ZM173 339Q173 269 181.5 219.5Q190 170 211 138Q232 106 266.5 91Q301 76 352 76Q403 76 437.5 91Q472 106 493 138Q514 170 522.5 219.5Q531 269 531 339Q531 409 522.5 458.5Q514 508 493 540Q472 572 437.5 587Q403 602 352 602Q301 602 266.5 587Q232 572 211 540Q190 508 181.5 458.5Q173 409 173 339Z" glyph-name="Odieresis" horiz-adv-x="704" unicode="&#214;" /><glyph d="M653 339Q653 256 638.5 190.5Q624 125 589.5 79.5Q555 34 497 10Q439 -14 352 -14Q265 -14 207 10Q149 34 114.5 79.5Q80 125 66 190.5Q52 256 52 339Q52 423 66 488.5Q80 554 114.5 599Q149 644 207 668Q265 692 352 692Q439 692 497 668Q555 644 589.5 599Q624 554 638.5 488.5Q653 423 653 339ZM173 339Q173 269 181.5 219.5Q190 170 211 138Q232 106 266.5 91Q301 76 352 76Q403 76 437.5 91Q472 106 493 138Q514 170 522.5 219.5Q531 269 531 339Q531 409 522.5 458.5Q514 508 493 540Q472 572 437.5 587Q403 602 352 602Q301 602 266.5 587Q232 572 211 540Q190 508 181.5 458.5Q173 409 173 339ZM161 846H294L404 734H311Z" glyph-name="Ograve" horiz-adv-x="704" unicode="&#210;" /><glyph d="M295 733H216L325 846H444ZM459 733H379L488 846H608ZM653 339Q653 256 638.5 190.5Q624 125 589.5 79.5Q555 34 497 10Q439 -14 352 -14Q265 -14 207 10Q149 34 114.5 79.5Q80 125 66 190.5Q52 256 52 339Q52 423 66 488.5Q80 554 114.5 599Q149 644 207 668Q265 692 352 692Q439 692 497 668Q555 644 589.5 599Q624 554 638.5 488.5Q653 423 653 339ZM173 339Q173 269 181.5 219.5Q190 170 211 138Q232 106 266.5 91Q301 76 352 76Q403 76 437.5 91Q472 106 493 138Q514 170 522.5 219.5Q531 269 531 339Q531 409 522.5 458.5Q514 508 493 540Q472 572 437.5 587Q403 602 352 602Q301 602 266.5 587Q232 572 211 540Q190 508 181.5 458.5Q173 409 173 339Z" glyph-name="Ohungarumlaut" horiz-adv-x="704" unicode="&#336;" /><glyph d="M525 762H179V841H525ZM653 339Q653 256 638.5 190.5Q624 125 589.5 79.5Q555 34 497 10Q439 -14 352 -14Q265 -14 207 10Q149 34 114.5 79.5Q80 125 66 190.5Q52 256 52 339Q52 423 66 488.5Q80 554 114.5 599Q149 644 207 668Q265 692 352 692Q439 692 497 668Q555 644 589.5 599Q624 554 638.5 488.5Q653 423 653 339ZM173 339Q173 269 181.5 219.5Q190 170 211 138Q232 106 266.5 91Q301 76 352 76Q403 76 437.5 91Q472 106 493 138Q514 170 522.5 219.5Q531 269 531 339Q531 409 522.5 458.5Q514 508 493 540Q472 572 437.5 587Q403 602 352 602Q301 602 266.5 587Q232 572 211 540Q190 508 181.5 458.5Q173 409 173 339Z" glyph-name="Omacron" horiz-adv-x="704" unicode="&#332;" /><glyph d="M514 660Q592 622 622.5 540.5Q653 459 653 339Q653 256 638.5 190.5Q624 125 589.5 79.5Q555 34 497 10Q439 -14 352 -14Q332 -14 314.5 -12.5Q297 -11 281 -9L254 -86H159L194 16Q114 53 83 136Q52 219 52 339Q52 423 66 488.5Q80 554 114.5 599Q149 644 207 668Q265 692 352 692Q392 692 427 686L454 762H550ZM173 339Q173 255 185.5 200Q198 145 229 115L397 598Q386 600 375 601Q364 602 352 602Q301 602 266.5 587Q232 572 211 540Q190 508 181.5 458.5Q173 409 173 339ZM531 339Q531 420 519.5 473.5Q508 527 479 558L311 78Q321 76 331 76Q341 76 352 76Q403 76 437.5 91Q472 106 493 138Q514 170 522.5 219.5Q531 269 531 339Z" glyph-name="Oslash" horiz-adv-x="704" unicode="&#216;" /><glyph d="M653 339Q653 256 638.5 190.5Q624 125 589.5 79.5Q555 34 497 10Q439 -14 352 -14Q265 -14 207 10Q149 34 114.5 79.5Q80 125 66 190.5Q52 256 52 339Q52 423 66 488.5Q80 554 114.5 599Q149 644 207 668Q265 692 352 692Q439 692 497 668Q555 644 589.5 599Q624 554 638.5 488.5Q653 423 653 339ZM173 339Q173 269 181.5 219.5Q190 170 211 138Q232 106 266.5 91Q301 76 352 76Q403 76 437.5 91Q472 106 493 138Q514 170 522.5 219.5Q531 269 531 339Q531 409 522.5 458.5Q514 508 493 540Q472 572 437.5 587Q403 602 352 602Q301 602 266.5 587Q232 572 211 540Q190 508 181.5 458.5Q173 409 173 339ZM428 826Q451 826 478.5 838Q506 850 526 864V787Q511 774 482.5 762Q454 750 428 750Q406 750 387 755Q368 760 350 766Q332 772 314.5 777Q297 782 279 782Q256 782 227.5 770.5Q199 759 178 745V823Q195 835 224 847.5Q253 860 278 860Q300 860 319 855Q338 850 355.5 843.5Q373 837 390.5 831.5Q408 826 428 826Z" glyph-name="Otilde" horiz-adv-x="704" unicode="&#213;" /><glyph d="M327 319Q370 319 396 322.5Q422 326 441 346Q471 375 471 454Q471 531 439 563Q420 582 395 585.5Q370 589 327 589H200V319ZM200 0H86V678H329Q406 678 455.5 666.5Q505 655 537 623Q563 597 577.5 554Q592 511 592 454Q592 398 577.5 354.5Q563 311 537 285Q505 253 455.5 241.5Q406 230 329 230H200Z" glyph-name="P" horiz-adv-x="621" unicode="P" /><glyph d="M653 339Q653 225 625.5 146Q598 67 529 26L660 -118H522L420 -9Q404 -12 387 -13Q370 -14 352 -14Q265 -14 207 10Q149 34 114.5 79.5Q80 125 66 190.5Q52 256 52 339Q52 423 66 488.5Q80 554 114.5 599Q149 644 207 668Q265 692 352 692Q439 692 497 668Q555 644 589.5 599Q624 554 638.5 488.5Q653 423 653 339ZM173 339Q173 269 181.5 219.5Q190 170 211 138Q232 106 266.5 91Q301 76 352 76Q403 76 437.5 91Q472 106 493 138Q514 170 522.5 219.5Q531 269 531 339Q531 409 522.5 458.5Q514 508 493 540Q472 572 437.5 587Q403 602 352 602Q301 602 266.5 587Q232 572 211 540Q190 508 181.5 458.5Q173 409 173 339Z" glyph-name="Q" horiz-adv-x="704" unicode="Q" /><glyph d="M347 678Q419 678 463.5 667.5Q508 657 538 627Q563 602 576.5 562.5Q590 523 590 472Q590 370 537 317Q519 299 492.5 286Q466 273 431 268L613 0H481L303 265H200V0H86V678ZM200 589V354H342Q380 354 402.5 358Q425 362 442 379Q456 392 464 414.5Q472 437 472 472Q472 507 464 529Q456 551 442 565Q425 582 402.5 585.5Q380 589 342 589Z" glyph-name="R" horiz-adv-x="639" unicode="R" /><glyph d="M338 734H245L355 846H488ZM347 678Q419 678 463.5 667.5Q508 657 538 627Q563 602 576.5 562.5Q590 523 590 472Q590 370 537 317Q519 299 492.5 286Q466 273 431 268L613 0H481L303 265H200V0H86V678ZM200 589V354H342Q380 354 402.5 358Q425 362 442 379Q456 392 464 414.5Q472 437 472 472Q472 507 464 529Q456 551 442 565Q425 582 402.5 585.5Q380 589 342 589Z" glyph-name="Racute" horiz-adv-x="639" unicode="&#340;" /><glyph d="M151 848H251L315 783L380 848H480L364 730H266ZM347 678Q419 678 463.5 667.5Q508 657 538 627Q563 602 576.5 562.5Q590 523 590 472Q590 370 537 317Q519 299 492.5 286Q466 273 431 268L613 0H481L303 265H200V0H86V678ZM200 589V354H342Q380 354 402.5 358Q425 362 442 379Q456 392 464 414.5Q472 437 472 472Q472 507 464 529Q456 551 442 565Q425 582 402.5 585.5Q380 589 342 589Z" glyph-name="Rcaron" horiz-adv-x="639" unicode="&#344;" /><glyph d="M278 -75H388L302 -258H238ZM347 678Q419 678 463.5 667.5Q508 657 538 627Q563 602 576.5 562.5Q590 523 590 472Q590 370 537 317Q519 299 492.5 286Q466 273 431 268L613 0H481L303 265H200V0H86V678ZM200 589V354H342Q380 354 402.5 358Q425 362 442 379Q456 392 464 414.5Q472 437 472 472Q472 507 464 529Q456 551 442 565Q425 582 402.5 585.5Q380 589 342 589Z" glyph-name="Rcommaaccent" horiz-adv-x="639" unicode="&#342;" /><glyph d="M272 83Q319 83 351 91Q383 99 403 113Q423 127 432 147Q441 167 441 191Q441 226 430 246.5Q419 267 398 277.5Q377 288 347.5 291.5Q318 295 282 297Q235 299 194 308Q153 317 123 339Q93 361 75.5 398Q58 435 58 492Q58 548 79 586.5Q100 625 137 648.5Q174 672 223 682Q272 692 329 692Q342 692 363 691Q384 690 409 687Q434 684 459 679.5Q484 675 505 668V579Q455 593 407 597Q359 601 330 601Q176 601 176 502Q176 468 187.5 449Q199 430 219.5 421Q240 412 269 409.5Q298 407 333 405Q378 403 419 394Q460 385 491.5 362.5Q523 340 541.5 301.5Q560 263 560 201Q560 142 537 101.5Q514 61 475 35Q436 9 383.5 -2.5Q331 -14 272 -14Q259 -14 235 -13Q211 -12 182.5 -9Q154 -6 123.5 0Q93 6 68 15V109Q93 101 122.5 96Q152 91 180 88Q208 85 232 84Q256 83 272 83Z" glyph-name="S" horiz-adv-x="598" unicode="S" /><glyph d="M338 734H245L355 846H488ZM272 83Q319 83 351 91Q383 99 403 113Q423 127 432 147Q441 167 441 191Q441 226 430 246.5Q419 267 398 277.5Q377 288 347.5 291.5Q318 295 282 297Q235 299 194 308Q153 317 123 339Q93 361 75.5 398Q58 435 58 492Q58 548 79 586.5Q100 625 137 648.5Q174 672 223 682Q272 692 329 692Q342 692 363 691Q384 690 409 687Q434 684 459 679.5Q484 675 505 668V579Q455 593 407 597Q359 601 330 601Q176 601 176 502Q176 468 187.5 449Q199 430 219.5 421Q240 412 269 409.5Q298 407 333 405Q378 403 419 394Q460 385 491.5 362.5Q523 340 541.5 301.5Q560 263 560 201Q560 142 537 101.5Q514 61 475 35Q436 9 383.5 -2.5Q331 -14 272 -14Q259 -14 235 -13Q211 -12 182.5 -9Q154 -6 123.5 0Q93 6 68 15V109Q93 101 122.5 96Q152 91 180 88Q208 85 232 84Q256 83 272 83Z" glyph-name="Sacute" horiz-adv-x="598" unicode="&#346;" /><glyph d="M137 848H237L301 783L366 848H466L350 730H252ZM272 83Q319 83 351 91Q383 99 403 113Q423 127 432 147Q441 167 441 191Q441 226 430 246.5Q419 267 398 277.5Q377 288 347.5 291.5Q318 295 282 297Q235 299 194 308Q153 317 123 339Q93 361 75.5 398Q58 435 58 492Q58 548 79 586.5Q100 625 137 648.5Q174 672 223 682Q272 692 329 692Q342 692 363 691Q384 690 409 687Q434 684 459 679.5Q484 675 505 668V579Q455 593 407 597Q359 601 330 601Q176 601 176 502Q176 468 187.5 449Q199 430 219.5 421Q240 412 269 409.5Q298 407 333 405Q378 403 419 394Q460 385 491.5 362.5Q523 340 541.5 301.5Q560 263 560 201Q560 142 537 101.5Q514 61 475 35Q436 9 383.5 -2.5Q331 -14 272 -14Q259 -14 235 -13Q211 -12 182.5 -9Q154 -6 123.5 0Q93 6 68 15V109Q93 101 122.5 96Q152 91 180 88Q208 85 232 84Q256 83 272 83Z" glyph-name="Scaron" horiz-adv-x="598" unicode="&#352;" /><glyph d="M262 -14Q247 -14 223.5 -12.5Q200 -11 173 -8Q146 -5 118.5 0.5Q91 6 68 15V109Q93 101 122.5 96Q152 91 180 88Q208 85 232 84Q256 83 272 83Q319 83 351 91Q383 99 403 113Q423 127 432 147Q441 167 441 191Q441 226 430 246.5Q419 267 398 277.5Q377 288 347.5 291.5Q318 295 282 297Q235 299 194 308Q153 317 123 339Q93 361 75.5 398Q58 435 58 492Q58 548 79 586.5Q100 625 137 648.5Q174 672 223 682Q272 692 329 692Q342 692 363 691Q384 690 409 687Q434 684 459 679.5Q484 675 505 668V579Q455 593 407 597Q359 601 330 601Q176 601 176 502Q176 468 187.5 449Q199 430 219.5 421Q240 412 269 409.5Q298 407 333 405Q378 403 419 394Q460 385 491.5 362.5Q523 340 541.5 301.5Q560 263 560 201Q560 152 544 115.5Q528 79 499.5 53.5Q471 28 432 12.5Q393 -3 348 -9L335 -40Q368 -51 382 -67Q396 -83 396 -104Q396 -141 362.5 -160Q329 -179 266 -179Q249 -179 228.5 -177Q208 -175 182 -167V-106Q205 -114 223 -116Q241 -118 253 -118Q302 -118 302 -96Q302 -84 287 -78.5Q272 -73 254 -72L248 -46Z" glyph-name="Scedilla" horiz-adv-x="598" unicode="&#350;" /><glyph d="M465 732H365L300 796L236 732H136L251 850H350ZM272 83Q319 83 351 91Q383 99 403 113Q423 127 432 147Q441 167 441 191Q441 226 430 246.5Q419 267 398 277.5Q377 288 347.5 291.5Q318 295 282 297Q235 299 194 308Q153 317 123 339Q93 361 75.5 398Q58 435 58 492Q58 548 79 586.5Q100 625 137 648.5Q174 672 223 682Q272 692 329 692Q342 692 363 691Q384 690 409 687Q434 684 459 679.5Q484 675 505 668V579Q455 593 407 597Q359 601 330 601Q176 601 176 502Q176 468 187.5 449Q199 430 219.5 421Q240 412 269 409.5Q298 407 333 405Q378 403 419 394Q460 385 491.5 362.5Q523 340 541.5 301.5Q560 263 560 201Q560 142 537 101.5Q514 61 475 35Q436 9 383.5 -2.5Q331 -14 272 -14Q259 -14 235 -13Q211 -12 182.5 -9Q154 -6 123.5 0Q93 6 68 15V109Q93 101 122.5 96Q152 91 180 88Q208 85 232 84Q256 83 272 83Z" glyph-name="Scircumflex" horiz-adv-x="598" unicode="&#348;" /><glyph d="M256 -75H366L280 -258H216ZM272 83Q319 83 351 91Q383 99 403 113Q423 127 432 147Q441 167 441 191Q441 226 430 246.5Q419 267 398 277.5Q377 288 347.5 291.5Q318 295 282 297Q235 299 194 308Q153 317 123 339Q93 361 75.5 398Q58 435 58 492Q58 548 79 586.5Q100 625 137 648.5Q174 672 223 682Q272 692 329 692Q342 692 363 691Q384 690 409 687Q434 684 459 679.5Q484 675 505 668V579Q455 593 407 597Q359 601 330 601Q176 601 176 502Q176 468 187.5 449Q199 430 219.5 421Q240 412 269 409.5Q298 407 333 405Q378 403 419 394Q460 385 491.5 362.5Q523 340 541.5 301.5Q560 263 560 201Q560 142 537 101.5Q514 61 475 35Q436 9 383.5 -2.5Q331 -14 272 -14Q259 -14 235 -13Q211 -12 182.5 -9Q154 -6 123.5 0Q93 6 68 15V109Q93 101 122.5 96Q152 91 180 88Q208 85 232 84Q256 83 272 83Z" glyph-name="Scommaaccent" horiz-adv-x="598" unicode="&#536;" /><glyph d="M321 0H206V589H11V678H516V589H321Z" glyph-name="T" horiz-adv-x="527" unicode="T" /><glyph d="M321 390H461V301H321V0H206V301H65V390H206V589H11V678H516V589H321Z" glyph-name="Tbar" horiz-adv-x="527" unicode="&#358;" /><glyph d="M99 848H199L263 783L328 848H428L312 730H214ZM321 0H206V589H11V678H516V589H321Z" glyph-name="Tcaron" horiz-adv-x="527" unicode="&#356;" /><glyph d="M208 -75H318L232 -258H168ZM321 0H206V589H11V678H516V589H321Z" glyph-name="Tcommaaccent" horiz-adv-x="527" unicode="&#354;" /><glyph d="M327 202Q370 202 396 205.5Q422 209 441 228Q471 258 471 337Q471 415 439 445Q420 465 395 468.5Q370 472 327 472H200V202ZM200 0H86V678H201V561H329Q406 561 455.5 549.5Q505 538 537 506Q563 479 577.5 436Q592 393 592 337Q592 280 577.5 237Q563 194 537 167Q505 135 455.5 123.5Q406 112 329 112H200Z" glyph-name="Thorn" horiz-adv-x="626" unicode="&#222;" /><glyph d="M339 -14Q264 -14 213.5 1.5Q163 17 129 51Q94 86 82.5 131.5Q71 177 71 231V678H185V213Q185 190 191 162Q197 134 219 112Q238 93 265.5 83.5Q293 74 339 74Q385 74 413 83.5Q441 93 460 112Q482 134 488 162Q494 190 494 213V678H608V231Q608 177 596.5 131.5Q585 86 550 51Q516 17 465.5 1.5Q415 -14 339 -14Z" glyph-name="U" horiz-adv-x="679" unicode="U" /><glyph d="M377 734H284L394 846H527ZM339 -14Q264 -14 213.5 1.5Q163 17 129 51Q94 86 82.5 131.5Q71 177 71 231V678H185V213Q185 190 191 162Q197 134 219 112Q238 93 265.5 83.5Q293 74 339 74Q385 74 413 83.5Q441 93 460 112Q482 134 488 162Q494 190 494 213V678H608V231Q608 177 596.5 131.5Q585 86 550 51Q516 17 465.5 1.5Q415 -14 339 -14Z" glyph-name="Uacute" horiz-adv-x="679" unicode="&#218;" /><glyph d="M339 -14Q264 -14 213.5 1.5Q163 17 129 51Q94 86 82.5 131.5Q71 177 71 231V678H185V213Q185 190 191 162Q197 134 219 112Q238 93 265.5 83.5Q293 74 339 74Q385 74 413 83.5Q441 93 460 112Q482 134 488 162Q494 190 494 213V678H608V231Q608 177 596.5 131.5Q585 86 550 51Q516 17 465.5 1.5Q415 -14 339 -14ZM339 791Q371 791 397 802.5Q423 814 430 846H518Q507 780 459 752Q411 724 339 724Q268 724 219.5 752.5Q171 781 161 846H248Q256 814 281.5 802.5Q307 791 339 791Z" glyph-name="Ubreve" horiz-adv-x="679" unicode="&#364;" /><glyph d="M504 732H404L339 796L275 732H175L290 850H389ZM339 -14Q264 -14 213.5 1.5Q163 17 129 51Q94 86 82.5 131.5Q71 177 71 231V678H185V213Q185 190 191 162Q197 134 219 112Q238 93 265.5 83.5Q293 74 339 74Q385 74 413 83.5Q441 93 460 112Q482 134 488 162Q494 190 494 213V678H608V231Q608 177 596.5 131.5Q585 86 550 51Q516 17 465.5 1.5Q415 -14 339 -14Z" glyph-name="Ucircumflex" horiz-adv-x="679" unicode="&#219;" /><glyph d="M289 748H182V843H289ZM497 748H389V843H497ZM339 -14Q264 -14 213.5 1.5Q163 17 129 51Q94 86 82.5 131.5Q71 177 71 231V678H185V213Q185 190 191 162Q197 134 219 112Q238 93 265.5 83.5Q293 74 339 74Q385 74 413 83.5Q441 93 460 112Q482 134 488 162Q494 190 494 213V678H608V231Q608 177 596.5 131.5Q585 86 550 51Q516 17 465.5 1.5Q415 -14 339 -14Z" glyph-name="Udieresis" horiz-adv-x="679" unicode="&#220;" /><glyph d="M339 -14Q264 -14 213.5 1.5Q163 17 129 51Q94 86 82.5 131.5Q71 177 71 231V678H185V213Q185 190 191 162Q197 134 219 112Q238 93 265.5 83.5Q293 74 339 74Q385 74 413 83.5Q441 93 460 112Q482 134 488 162Q494 190 494 213V678H608V231Q608 177 596.5 131.5Q585 86 550 51Q516 17 465.5 1.5Q415 -14 339 -14ZM157 846H290L400 734H307Z" glyph-name="Ugrave" horiz-adv-x="679" unicode="&#217;" /><glyph d="M339 -14Q264 -14 213.5 1.5Q163 17 129 51Q94 86 82.5 131.5Q71 177 71 231V678H185V213Q185 190 191 162Q197 134 219 112Q238 93 265.5 83.5Q293 74 339 74Q385 74 413 83.5Q441 93 460 112Q482 134 488 162Q494 190 494 213V678H608V231Q608 177 596.5 131.5Q585 86 550 51Q516 17 465.5 1.5Q415 -14 339 -14ZM281 733H202L311 846H430ZM445 733H365L474 846H594Z" glyph-name="Uhungarumlaut" horiz-adv-x="679" unicode="&#368;" /><glyph d="M339 -14Q264 -14 213.5 1.5Q163 17 129 51Q94 86 82.5 131.5Q71 177 71 231V678H185V213Q185 190 191 162Q197 134 219 112Q238 93 265.5 83.5Q293 74 339 74Q385 74 413 83.5Q441 93 460 112Q482 134 488 162Q494 190 494 213V678H608V231Q608 177 596.5 131.5Q585 86 550 51Q516 17 465.5 1.5Q415 -14 339 -14ZM512 762H166V841H512Z" glyph-name="Umacron" horiz-adv-x="679" unicode="&#362;" /><glyph d="M259 -100Q259 -76 271 -53Q283 -30 302 -13Q242 -9 200 6Q158 21 129 51Q94 86 82.5 131.5Q71 177 71 231V678H185V213Q185 190 191 162Q197 134 219 112Q238 93 265.5 83.5Q293 74 339 74Q385 74 413 83.5Q441 93 460 112Q482 134 488 162Q494 190 494 213V678H608V231Q608 177 596.5 131.5Q585 86 550 51Q521 22 480.5 7Q440 -8 383 -12Q362 -29 353 -47.5Q344 -66 344 -81Q344 -116 386 -116Q401 -116 416.5 -114Q432 -112 451 -106V-167Q433 -175 409 -177Q385 -179 368 -179Q312 -179 285.5 -157Q259 -135 259 -100Z" glyph-name="Uogonek" horiz-adv-x="679" unicode="&#370;" /><glyph d="M375 805Q375 837 340 837Q304 837 304 805Q304 774 340 774Q375 774 375 805ZM436 805Q436 763 411.5 745.5Q387 728 340 728Q294 728 268.5 745.5Q243 763 243 805Q243 846 268.5 863.5Q294 881 340 881Q387 881 411.5 863.5Q436 846 436 805ZM339 -14Q264 -14 213.5 1.5Q163 17 129 51Q94 86 82.5 131.5Q71 177 71 231V678H185V213Q185 190 191 162Q197 134 219 112Q238 93 265.5 83.5Q293 74 339 74Q385 74 413 83.5Q441 93 460 112Q482 134 488 162Q494 190 494 213V678H608V231Q608 177 596.5 131.5Q585 86 550 51Q516 17 465.5 1.5Q415 -14 339 -14Z" glyph-name="Uring" horiz-adv-x="679" unicode="&#366;" /><glyph d="M339 -14Q264 -14 213.5 1.5Q163 17 129 51Q94 86 82.5 131.5Q71 177 71 231V678H185V213Q185 190 191 162Q197 134 219 112Q238 93 265.5 83.5Q293 74 339 74Q385 74 413 83.5Q441 93 460 112Q482 134 488 162Q494 190 494 213V678H608V231Q608 177 596.5 131.5Q585 86 550 51Q516 17 465.5 1.5Q415 -14 339 -14ZM415 826Q438 826 465.5 838Q493 850 513 864V787Q498 774 469.5 762Q441 750 415 750Q393 750 374 755Q355 760 337 766Q319 772 301.5 777Q284 782 266 782Q243 782 214.5 770.5Q186 759 165 745V823Q182 835 211 847.5Q240 860 265 860Q287 860 306 855Q325 850 342.5 843.5Q360 837 377.5 831.5Q395 826 415 826Z" glyph-name="Utilde" horiz-adv-x="679" unicode="&#360;" /><glyph d="M616 678 382 0H238L5 678H127L243 330Q260 277 278 219Q296 161 311 110H314Q329 161 347.5 219Q366 277 383 330L499 678Z" glyph-name="V" horiz-adv-x="620" unicode="V" /><glyph d="M476 429Q470 411 462.5 387.5Q455 364 447 339.5Q439 315 430 290Q421 265 414 244L328 0H199L10 678H126L211 355Q227 297 241.5 237Q256 177 268 119H272Q289 176 308 233.5Q327 291 346 347L422 568L383 678H499L607 361Q627 301 647 240.5Q667 180 684 120H688Q702 180 717 242Q732 304 749 368L831 678H944L755 0H626L542 244Q534 265 526 290Q518 315 509.5 339.5Q501 364 493 387.5Q485 411 479 429Z" glyph-name="W" horiz-adv-x="954" unicode="W" /><glyph d="M485 734H392L502 846H635ZM476 429Q470 411 462.5 387.5Q455 364 447 339.5Q439 315 430 290Q421 265 414 244L328 0H199L10 678H126L211 355Q227 297 241.5 237Q256 177 268 119H272Q289 176 308 233.5Q327 291 346 347L422 568L383 678H499L607 361Q627 301 647 240.5Q667 180 684 120H688Q702 180 717 242Q732 304 749 368L831 678H944L755 0H626L542 244Q534 265 526 290Q518 315 509.5 339.5Q501 364 493 387.5Q485 411 479 429Z" glyph-name="Wacute" horiz-adv-x="954" unicode="&#7810;" /><glyph d="M639 732H539L474 796L410 732H310L425 850H524ZM476 429Q470 411 462.5 387.5Q455 364 447 339.5Q439 315 430 290Q421 265 414 244L328 0H199L10 678H126L211 355Q227 297 241.5 237Q256 177 268 119H272Q289 176 308 233.5Q327 291 346 347L422 568L383 678H499L607 361Q627 301 647 240.5Q667 180 684 120H688Q702 180 717 242Q732 304 749 368L831 678H944L755 0H626L542 244Q534 265 526 290Q518 315 509.5 339.5Q501 364 493 387.5Q485 411 479 429Z" glyph-name="Wcircumflex" horiz-adv-x="954" unicode="&#372;" /><glyph d="M422 748H315V843H422ZM630 748H522V843H630ZM476 429Q470 411 462.5 387.5Q455 364 447 339.5Q439 315 430 290Q421 265 414 244L328 0H199L10 678H126L211 355Q227 297 241.5 237Q256 177 268 119H272Q289 176 308 233.5Q327 291 346 347L422 568L383 678H499L607 361Q627 301 647 240.5Q667 180 684 120H688Q702 180 717 242Q732 304 749 368L831 678H944L755 0H626L542 244Q534 265 526 290Q518 315 509.5 339.5Q501 364 493 387.5Q485 411 479 429Z" glyph-name="Wdieresis" horiz-adv-x="954" unicode="&#7812;" /><glyph d="M476 429Q470 411 462.5 387.5Q455 364 447 339.5Q439 315 430 290Q421 265 414 244L328 0H199L10 678H126L211 355Q227 297 241.5 237Q256 177 268 119H272Q289 176 308 233.5Q327 291 346 347L422 568L383 678H499L607 361Q627 301 647 240.5Q667 180 684 120H688Q702 180 717 242Q732 304 749 368L831 678H944L755 0H626L542 244Q534 265 526 290Q518 315 509.5 339.5Q501 364 493 387.5Q485 411 479 429ZM239 846H372L482 734H389Z" glyph-name="Wgrave" horiz-adv-x="954" unicode="&#7808;" /><glyph d="M136 678 291 438 446 678H574L354 347L582 0H450L288 252L127 0H-1L225 343L4 678Z" glyph-name="X" horiz-adv-x="582" unicode="X" /><glyph d="M300 356H302L479 678H598L355 256V0H241V255L-1 678H125Z" glyph-name="Y" horiz-adv-x="598" unicode="Y" /><glyph d="M300 356H302L479 678H598L355 256V0H241V255L-1 678H125ZM337 734H244L354 846H487Z" glyph-name="Yacute" horiz-adv-x="598" unicode="&#221;" /><glyph d="M300 356H302L479 678H598L355 256V0H241V255L-1 678H125ZM467 732H367L302 796L238 732H138L253 850H352Z" glyph-name="Ycircumflex" horiz-adv-x="598" unicode="&#374;" /><glyph d="M300 356H302L479 678H598L355 256V0H241V255L-1 678H125ZM252 748H145V843H252ZM460 748H352V843H460Z" glyph-name="Ydieresis" horiz-adv-x="598" unicode="&#376;" /><glyph d="M511 596 173 91V89H513V0H37V81L375 588V589H58V678H511Z" glyph-name="Z" horiz-adv-x="550" unicode="Z" /><glyph d="M310 734H217L327 846H460ZM511 596 173 91V89H513V0H37V81L375 588V589H58V678H511Z" glyph-name="Zacute" horiz-adv-x="550" unicode="&#377;" /><glyph d="M122 848H222L286 783L351 848H451L335 730H237ZM511 596 173 91V89H513V0H37V81L375 588V589H58V678H511Z" glyph-name="Zcaron" horiz-adv-x="550" unicode="&#142;" /><glyph d="M511 596 173 91V89H513V0H37V81L375 588V589H58V678H511ZM343 749H231V845H343Z" glyph-name="Zdotaccent" horiz-adv-x="550" unicode="&#379;" /><glyph d="M280 311Q295 311 319 310.5Q343 310 369 308V363Q369 386 365 401Q361 416 348 425Q335 434 310 437.5Q285 441 243 441Q217 441 175.5 437Q134 433 85 422V505Q106 511 130.5 514.5Q155 518 180 520Q205 522 226.5 523Q248 524 263 524Q319 524 359 517Q399 510 425 492Q451 474 463 443Q475 412 475 363V0H401L386 53H385Q357 23 316.5 6.5Q276 -10 229 -10Q187 -10 149.5 0.5Q112 11 86 36Q66 56 55.5 85Q45 114 45 148Q45 221 84 259Q100 275 122.5 285Q145 295 170.5 301Q196 307 224 309Q252 311 280 311ZM369 232Q343 234 320 235Q297 236 286 236Q236 236 212 229.5Q188 223 172 207Q164 199 159.5 186Q155 173 155 150Q155 127 162 113Q169 99 182 91Q195 83 212.5 80Q230 77 250 77Q297 77 324.5 92.5Q352 108 369 133Z" glyph-name="a" horiz-adv-x="546" unicode="a" /><glyph d="M280 311Q295 311 319 310.5Q343 310 369 308V363Q369 386 365 401Q361 416 348 425Q335 434 310 437.5Q285 441 243 441Q217 441 175.5 437Q134 433 85 422V505Q106 511 130.5 514.5Q155 518 180 520Q205 522 226.5 523Q248 524 263 524Q319 524 359 517Q399 510 425 492Q451 474 463 443Q475 412 475 363V0H401L386 53H385Q357 23 316.5 6.5Q276 -10 229 -10Q187 -10 149.5 0.5Q112 11 86 36Q66 56 55.5 85Q45 114 45 148Q45 221 84 259Q100 275 122.5 285Q145 295 170.5 301Q196 307 224 309Q252 311 280 311ZM369 232Q343 234 320 235Q297 236 286 236Q236 236 212 229.5Q188 223 172 207Q164 199 159.5 186Q155 173 155 150Q155 127 162 113Q169 99 182 91Q195 83 212.5 80Q230 77 250 77Q297 77 324.5 92.5Q352 108 369 133ZM300 566H207L317 678H450Z" glyph-name="aacute" horiz-adv-x="546" unicode="&#225;" /><glyph d="M280 311Q295 311 319 310.5Q343 310 369 308V363Q369 386 365 401Q361 416 348 425Q335 434 310 437.5Q285 441 243 441Q217 441 175.5 437Q134 433 85 422V505Q106 511 130.5 514.5Q155 518 180 520Q205 522 226.5 523Q248 524 263 524Q319 524 359 517Q399 510 425 492Q451 474 463 443Q475 412 475 363V0H401L386 53H385Q357 23 316.5 6.5Q276 -10 229 -10Q187 -10 149.5 0.5Q112 11 86 36Q66 56 55.5 85Q45 114 45 148Q45 221 84 259Q100 275 122.5 285Q145 295 170.5 301Q196 307 224 309Q252 311 280 311ZM369 232Q343 234 320 235Q297 236 286 236Q236 236 212 229.5Q188 223 172 207Q164 199 159.5 186Q155 173 155 150Q155 127 162 113Q169 99 182 91Q195 83 212.5 80Q230 77 250 77Q297 77 324.5 92.5Q352 108 369 133ZM273 623Q305 623 331 634.5Q357 646 364 678H452Q441 612 393 584Q345 556 273 556Q202 556 153.5 584.5Q105 613 95 678H182Q190 646 215.5 634.5Q241 623 273 623Z" glyph-name="abreve" horiz-adv-x="546" unicode="&#259;" /><glyph d="M280 311Q295 311 319 310.5Q343 310 369 308V363Q369 386 365 401Q361 416 348 425Q335 434 310 437.5Q285 441 243 441Q217 441 175.5 437Q134 433 85 422V505Q106 511 130.5 514.5Q155 518 180 520Q205 522 226.5 523Q248 524 263 524Q319 524 359 517Q399 510 425 492Q451 474 463 443Q475 412 475 363V0H401L386 53H385Q357 23 316.5 6.5Q276 -10 229 -10Q187 -10 149.5 0.5Q112 11 86 36Q66 56 55.5 85Q45 114 45 148Q45 221 84 259Q100 275 122.5 285Q145 295 170.5 301Q196 307 224 309Q252 311 280 311ZM369 232Q343 234 320 235Q297 236 286 236Q236 236 212 229.5Q188 223 172 207Q164 199 159.5 186Q155 173 155 150Q155 127 162 113Q169 99 182 91Q195 83 212.5 80Q230 77 250 77Q297 77 324.5 92.5Q352 108 369 133ZM439 564H339L274 628L210 564H110L225 682H324Z" glyph-name="acircumflex" horiz-adv-x="546" unicode="&#226;" /><glyph d="M336 566H243L353 678H486Z" glyph-name="acute" horiz-adv-x="600" unicode="&#180;" /><glyph d="M280 311Q295 311 319 310.5Q343 310 369 308V363Q369 386 365 401Q361 416 348 425Q335 434 310 437.5Q285 441 243 441Q217 441 175.5 437Q134 433 85 422V505Q106 511 130.5 514.5Q155 518 180 520Q205 522 226.5 523Q248 524 263 524Q319 524 359 517Q399 510 425 492Q451 474 463 443Q475 412 475 363V0H401L386 53H385Q357 23 316.5 6.5Q276 -10 229 -10Q187 -10 149.5 0.5Q112 11 86 36Q66 56 55.5 85Q45 114 45 148Q45 221 84 259Q100 275 122.5 285Q145 295 170.5 301Q196 307 224 309Q252 311 280 311ZM369 232Q343 234 320 235Q297 236 286 236Q236 236 212 229.5Q188 223 172 207Q164 199 159.5 186Q155 173 155 150Q155 127 162 113Q169 99 182 91Q195 83 212.5 80Q230 77 250 77Q297 77 324.5 92.5Q352 108 369 133ZM219 580H112V675H219ZM427 580H319V675H427Z" glyph-name="adieresis" horiz-adv-x="546" unicode="&#228;" /><glyph d="M483 232Q484 191 491.5 159.5Q499 128 520 107Q539 88 568 80Q597 72 641 72Q671 72 714.5 76.5Q758 81 796 94V11Q777 5 754.5 0Q732 -5 709 -8Q686 -11 663 -12.5Q640 -14 621 -14Q546 -14 495.5 5.5Q445 25 415 67Q395 45 372 30.5Q349 16 324.5 7Q300 -2 275.5 -6Q251 -10 229 -10Q187 -10 149.5 0.5Q112 11 86 36Q66 56 55.5 85Q45 114 45 148Q45 221 84 259Q100 275 122.5 285Q145 295 170.5 301Q196 307 224 309Q252 311 280 311Q295 311 319 310.5Q343 310 369 308V363Q369 386 365 401Q361 416 348 425Q335 434 310 437.5Q285 441 243 441Q217 441 175.5 437Q134 433 85 422V505Q106 511 130.5 514.5Q155 518 180 520Q205 522 226.5 523Q248 524 263 524Q339 524 380.5 511.5Q422 499 444 467Q476 498 516 511Q556 524 606 524Q718 524 768 470Q818 416 818 308Q818 297 816.5 273Q815 249 813 232ZM250 77Q292 77 326.5 95.5Q361 114 380 142V143Q375 162 372.5 183.5Q370 205 368 229V231Q342 233 319 234.5Q296 236 286 236Q236 236 212 229.5Q188 223 172 207Q164 199 159.5 186Q155 173 155 150Q155 127 162 113Q169 99 182 91Q195 83 212.5 80Q230 77 250 77ZM608 441Q584 441 561 435Q538 429 521 412Q491 382 485 311H714Q715 321 715 325.5Q715 330 715 332Q715 359 709.5 380Q704 401 690 415Q676 429 655 435Q634 441 608 441Z" glyph-name="ae" horiz-adv-x="869" unicode="&#230;" /><glyph d="M280 311Q295 311 319 310.5Q343 310 369 308V363Q369 386 365 401Q361 416 348 425Q335 434 310 437.5Q285 441 243 441Q217 441 175.5 437Q134 433 85 422V505Q106 511 130.5 514.5Q155 518 180 520Q205 522 226.5 523Q248 524 263 524Q319 524 359 517Q399 510 425 492Q451 474 463 443Q475 412 475 363V0H401L386 53H385Q357 23 316.5 6.5Q276 -10 229 -10Q187 -10 149.5 0.5Q112 11 86 36Q66 56 55.5 85Q45 114 45 148Q45 221 84 259Q100 275 122.5 285Q145 295 170.5 301Q196 307 224 309Q252 311 280 311ZM369 232Q343 234 320 235Q297 236 286 236Q236 236 212 229.5Q188 223 172 207Q164 199 159.5 186Q155 173 155 150Q155 127 162 113Q169 99 182 91Q195 83 212.5 80Q230 77 250 77Q297 77 324.5 92.5Q352 108 369 133ZM96 678H229L339 566H246Z" glyph-name="agrave" horiz-adv-x="546" unicode="&#224;" /><glyph d="M280 311Q295 311 319 310.5Q343 310 369 308V363Q369 386 365 401Q361 416 348 425Q335 434 310 437.5Q285 441 243 441Q217 441 175.5 437Q134 433 85 422V505Q106 511 130.5 514.5Q155 518 180 520Q205 522 226.5 523Q248 524 263 524Q319 524 359 517Q399 510 425 492Q451 474 463 443Q475 412 475 363V0H401L386 53H385Q357 23 316.5 6.5Q276 -10 229 -10Q187 -10 149.5 0.5Q112 11 86 36Q66 56 55.5 85Q45 114 45 148Q45 221 84 259Q100 275 122.5 285Q145 295 170.5 301Q196 307 224 309Q252 311 280 311ZM369 232Q343 234 320 235Q297 236 286 236Q236 236 212 229.5Q188 223 172 207Q164 199 159.5 186Q155 173 155 150Q155 127 162 113Q169 99 182 91Q195 83 212.5 80Q230 77 250 77Q297 77 324.5 92.5Q352 108 369 133ZM445 594H99V673H445Z" glyph-name="amacron" horiz-adv-x="546" unicode="&#257;" /><glyph d="M452 302H331Q294 302 267 294.5Q240 287 218 264Q204 250 195 230.5Q186 211 186 186Q186 130 218 105Q250 80 310 80Q357 80 395 99Q433 118 452 147ZM474 52Q445 24 397 5Q349 -14 296 -14Q254 -14 213 -3.5Q172 7 139.5 30.5Q107 54 87 90.5Q67 127 67 180Q67 213 76.5 240Q86 267 102 288Q118 309 138.5 324Q159 339 180 348V350Q136 374 109.5 415Q83 456 83 514Q83 604 145.5 647.5Q208 691 315 692Q326 692 342.5 691Q359 690 377.5 688Q396 686 413.5 683Q431 680 444 677V588Q415 596 385 599Q355 602 333 602Q291 602 265.5 594Q240 586 226 571.5Q212 557 207 538.5Q202 520 202 499Q202 476 211 456.5Q220 437 234 423Q252 405 276.5 397Q301 389 335 389H463L490 484H559V389H682V302H559V154Q559 131 562.5 116Q566 101 575.5 92.5Q585 84 601 81Q617 78 642 78Q668 78 702 86V3Q679 -5 655.5 -7Q632 -9 609 -9Q552 -9 521 8.5Q490 26 476 52Z" glyph-name="ampersand" horiz-adv-x="737" unicode="&amp;" /><glyph d="M280 311Q295 311 319 310.5Q343 310 369 308V363Q369 386 365 401Q361 416 348 425Q335 434 310 437.5Q285 441 243 441Q217 441 175.5 437Q134 433 85 422V505Q106 511 130.5 514.5Q155 518 180 520Q205 522 226.5 523Q248 524 263 524Q319 524 359 517Q399 510 425 492Q451 474 463 443Q475 412 475 363V0Q443 -17 429.5 -40Q416 -63 416 -81Q416 -116 458 -116Q474 -116 489.5 -114Q505 -112 524 -106V-167Q506 -175 482 -177Q458 -179 441 -179Q384 -179 357.5 -157Q331 -135 331 -100Q331 -72 349.5 -43Q368 -14 399 6L386 53H385Q357 23 316.5 6.5Q276 -10 229 -10Q187 -10 149.5 0.5Q112 11 86 36Q66 56 55.5 85Q45 114 45 148Q45 221 84 259Q100 275 122.5 285Q145 295 170.5 301Q196 307 224 309Q252 311 280 311ZM369 232Q343 234 320 235Q297 236 286 236Q236 236 212 229.5Q188 223 172 207Q164 199 159.5 186Q155 173 155 150Q155 127 162 113Q169 99 182 91Q195 83 212.5 80Q230 77 250 77Q297 77 324.5 92.5Q352 108 369 133Z" glyph-name="aogonek" horiz-adv-x="546" unicode="&#261;" /><glyph d="M430 398Q466 398 506 409.5Q546 421 583 441V350Q554 334 515.5 321.5Q477 309 431 309Q402 309 373 316Q344 323 315.5 332Q287 341 258.5 348Q230 355 203 355Q168 355 128.5 343.5Q89 332 52 312V402Q80 418 119 431Q158 444 203 444Q231 444 260 437Q289 430 317.5 421Q346 412 374 405Q402 398 430 398ZM430 190Q466 190 506 201.5Q546 213 583 233V142Q554 126 515.5 113.5Q477 101 431 101Q402 101 373 108Q344 115 315.5 123.5Q287 132 258.5 139Q230 146 203 146Q168 146 128.5 134.5Q89 123 52 103V193Q80 209 119 222Q158 235 203 235Q231 235 260 228Q289 221 317.5 212.5Q346 204 374 197Q402 190 430 190Z" glyph-name="approxequal" horiz-adv-x="635" unicode="&#8776;" /><glyph d="M280 311Q295 311 319 310.5Q343 310 369 308V363Q369 386 365 401Q361 416 348 425Q335 434 310 437.5Q285 441 243 441Q217 441 175.5 437Q134 433 85 422V505Q106 511 130.5 514.5Q155 518 180 520Q205 522 226.5 523Q248 524 263 524Q319 524 359 517Q399 510 425 492Q451 474 463 443Q475 412 475 363V0H401L386 53H385Q357 23 316.5 6.5Q276 -10 229 -10Q187 -10 149.5 0.5Q112 11 86 36Q66 56 55.5 85Q45 114 45 148Q45 221 84 259Q100 275 122.5 285Q145 295 170.5 301Q196 307 224 309Q252 311 280 311ZM369 232Q343 234 320 235Q297 236 286 236Q236 236 212 229.5Q188 223 172 207Q164 199 159.5 186Q155 173 155 150Q155 127 162 113Q169 99 182 91Q195 83 212.5 80Q230 77 250 77Q297 77 324.5 92.5Q352 108 369 133ZM309 637Q309 669 274 669Q238 669 238 637Q238 606 274 606Q309 606 309 637ZM370 637Q370 595 345.5 577.5Q321 560 274 560Q228 560 202.5 577.5Q177 595 177 637Q177 678 202.5 695.5Q228 713 274 713Q321 713 345.5 695.5Q370 678 370 637Z" glyph-name="aring" horiz-adv-x="546" unicode="&#229;" /><glyph d="M257 599 131 382H46L221 678H290L465 382H378Z" glyph-name="asciicircum" horiz-adv-x="511" unicode="^" /><glyph d="M430 366Q466 366 506 377.5Q546 389 583 409V320Q554 304 515.5 291.5Q477 279 431 279Q402 279 373 286Q344 293 315.5 301.5Q287 310 258.5 317Q230 324 203 324Q168 324 128.5 312.5Q89 301 52 281V369Q80 385 119 398Q158 411 203 411Q231 411 260 404Q289 397 317.5 388.5Q346 380 374 373Q402 366 430 366Z" glyph-name="asciitilde" horiz-adv-x="635" unicode="~" /><glyph d="M268 730H334L336 593L465 633L485 569L357 525L435 415L381 376L301 482L221 377L167 416L244 525L116 569L137 633L265 593Z" glyph-name="asterisk" horiz-adv-x="600" unicode="*" /><glyph d="M471 307Q462 309 452.5 309.5Q443 310 436 310Q412 310 393 300Q374 290 361.5 273Q349 256 342 234.5Q335 213 335 190Q335 135 380 135Q389 135 399.5 138.5Q410 142 420 150Q430 158 438 171.5Q446 185 450 205ZM472 116Q459 96 444 84.5Q429 73 414 67Q399 61 386 59.5Q373 58 364 58Q313 58 280.5 93Q248 128 248 190Q248 230 260 264.5Q272 299 296 324.5Q320 350 355.5 364.5Q391 379 438 379Q476 379 508.5 373Q541 367 566 359L540 212Q537 197 537 181.5Q537 166 542.5 153.5Q548 141 559.5 132.5Q571 124 592 124Q631 124 654.5 154Q678 184 678 245Q678 303 661.5 350.5Q645 398 613 431.5Q581 465 533 483.5Q485 502 422 502Q357 502 306 480.5Q255 459 220 421Q185 383 166.5 331Q148 279 148 218Q148 155 165.5 104Q183 53 217.5 17Q252 -19 302.5 -38Q353 -57 418 -57Q443 -57 481 -50.5Q519 -44 547 -31V-107Q524 -118 489 -124.5Q454 -131 418 -131Q335 -131 269 -108Q203 -85 157 -40.5Q111 4 87 69Q63 134 63 218Q63 299 87.5 364.5Q112 430 158 477Q204 524 270.5 549.5Q337 575 422 575Q505 575 567.5 550.5Q630 526 672 482.5Q714 439 735 379Q756 319 756 247Q756 198 743.5 161.5Q731 125 709 101Q687 77 657 65.5Q627 54 592 54Q549 54 518.5 69Q488 84 474 116Z" glyph-name="at" horiz-adv-x="813" unicode="@" /><glyph d="M280 311Q295 311 319 310.5Q343 310 369 308V363Q369 386 365 401Q361 416 348 425Q335 434 310 437.5Q285 441 243 441Q217 441 175.5 437Q134 433 85 422V505Q106 511 130.5 514.5Q155 518 180 520Q205 522 226.5 523Q248 524 263 524Q319 524 359 517Q399 510 425 492Q451 474 463 443Q475 412 475 363V0H401L386 53H385Q357 23 316.5 6.5Q276 -10 229 -10Q187 -10 149.5 0.5Q112 11 86 36Q66 56 55.5 85Q45 114 45 148Q45 221 84 259Q100 275 122.5 285Q145 295 170.5 301Q196 307 224 309Q252 311 280 311ZM369 232Q343 234 320 235Q297 236 286 236Q236 236 212 229.5Q188 223 172 207Q164 199 159.5 186Q155 173 155 150Q155 127 162 113Q169 99 182 91Q195 83 212.5 80Q230 77 250 77Q297 77 324.5 92.5Q352 108 369 133ZM348 658Q371 658 398.5 670Q426 682 446 696V619Q431 606 402.5 594Q374 582 348 582Q326 582 307 587Q288 592 270 598Q252 604 234.5 609Q217 614 199 614Q176 614 147.5 602.5Q119 591 98 577V655Q115 667 144 679.5Q173 692 198 692Q220 692 239 687Q258 682 275.5 675.5Q293 669 310.5 663.5Q328 658 348 658Z" glyph-name="atilde" horiz-adv-x="546" unicode="&#227;" /><glyph d="M163 35 150 0H81V678H188V467H190Q222 496 256.5 508.5Q291 521 328 521Q440 521 496.5 458Q553 395 553 257Q553 123 489 56Q425 -11 310 -11Q280 -11 239 -0.5Q198 10 165 35ZM188 115Q211 94 240.5 85.5Q270 77 300 77Q374 77 406.5 120Q439 163 439 255Q439 306 431 340Q423 374 407.5 394.5Q392 415 368 424Q344 433 311 433Q276 433 244.5 415.5Q213 398 188 366Z" glyph-name="b" horiz-adv-x="603" unicode="b" /><glyph d="M-16 763H83L376 -85H278Z" glyph-name="backslash" horiz-adv-x="360" unicode="\" /><glyph d="M304 -85H214V763H304Z" glyph-name="bar" horiz-adv-x="518" unicode="|" /><glyph d="M64 306V326L121 387Q119 411 116 435.5Q113 460 110 484Q107 508 105 530Q103 552 103 570Q103 609 109.5 639Q116 669 134 689.5Q152 710 183 720Q214 730 262 730Q270 730 283 730Q296 730 304 728V648Q294 649 289 649Q284 649 279 649Q254 649 239.5 644.5Q225 640 217.5 631Q210 622 208 608.5Q206 595 206 577Q206 556 208.5 532Q211 508 213.5 485Q216 462 218.5 441Q221 420 221 404Q221 379 215.5 356.5Q210 334 197 316Q211 295 216 272Q221 249 221 226Q221 209 218.5 185.5Q216 162 213.5 136.5Q211 111 208.5 85Q206 59 206 38Q206 19 208 5Q210 -9 217.5 -18.5Q225 -28 239.5 -32.5Q254 -37 279 -37Q284 -37 289 -37Q294 -37 304 -36V-116Q296 -118 283 -118Q270 -118 262 -118Q214 -118 183 -107.5Q152 -97 134 -76.5Q116 -56 109.5 -25.5Q103 5 103 45Q103 63 105.5 87.5Q108 112 111 139.5Q114 167 117 194.5Q120 222 121 245Z" glyph-name="braceleft" horiz-adv-x="344" unicode="{" /><glyph d="M280 306 223 245Q224 222 227 194.5Q230 167 233 139.5Q236 112 238.5 87.5Q241 63 241 45Q241 5 234.5 -25.5Q228 -56 210 -76.5Q192 -97 161 -107.5Q130 -118 82 -118Q74 -118 61 -118Q48 -118 40 -116V-36Q50 -37 55 -37Q60 -37 65 -37Q90 -37 104.5 -32.5Q119 -28 126.5 -18.5Q134 -9 136 5Q138 19 138 38Q138 59 135.5 85Q133 111 130.5 136.5Q128 162 125.5 185.5Q123 209 123 226Q123 250 128 272.5Q133 295 147 316Q134 334 128.5 356Q123 378 123 404Q123 420 125.5 441Q128 462 130.5 485Q133 508 135.5 532Q138 556 138 577Q138 595 136 608.5Q134 622 126.5 631Q119 640 104.5 644.5Q90 649 65 649Q60 649 55 649Q50 649 40 648V728Q48 730 61 730Q74 730 82 730Q130 730 161 720Q192 710 210 689.5Q228 669 234.5 639Q241 609 241 570Q241 552 238.5 530Q236 508 233 484Q230 460 227 435.5Q224 411 223 387L280 326Z" glyph-name="braceright" horiz-adv-x="344" unicode="}" /><glyph d="M302 -118H98V730H302V649H205V-37H302Z" glyph-name="bracketleft" horiz-adv-x="342" unicode="[" /><glyph d="M40 -37H137V649H40V730H244V-118H40Z" glyph-name="bracketright" horiz-adv-x="342" unicode="]" /><glyph d="M300 623Q332 623 358 634.5Q384 646 391 678H479Q468 612 420 584Q372 556 300 556Q229 556 180.5 584.5Q132 613 122 678H209Q217 646 242.5 634.5Q268 623 300 623Z" glyph-name="breve" horiz-adv-x="600" unicode="&#728;" /><glyph d="M159 343Q159 372 170 398Q181 424 200 443Q219 462 245 473Q271 484 300 484Q329 484 355 473Q381 462 400 443Q419 424 430 398Q441 372 441 343Q441 314 430 288Q419 262 400 243Q381 224 355 213Q329 202 300 202Q271 202 245 213Q219 224 200 243Q181 262 170 288Q159 314 159 343Z" glyph-name="bullet" horiz-adv-x="600" unicode="&#8226;" /><glyph d="M447 11Q405 -3 368.5 -8.5Q332 -14 301 -14Q169 -14 110 51Q51 116 51 255Q51 312 61.5 361Q72 410 100 446Q128 482 177.5 503Q227 524 305 524Q330 524 364.5 520.5Q399 517 434 505V422Q404 432 372.5 435.5Q341 439 317 439Q279 439 251.5 431.5Q224 424 205 405Q185 385 175 345.5Q165 306 165 255Q165 203 174.5 167Q184 131 206 109Q225 90 252 83.5Q279 77 317 77Q339 77 374.5 81.5Q410 86 447 99Z" glyph-name="c" horiz-adv-x="482" unicode="c" /><glyph d="M304 566H211L321 678H454ZM447 11Q405 -3 368.5 -8.5Q332 -14 301 -14Q169 -14 110 51Q51 116 51 255Q51 312 61.5 361Q72 410 100 446Q128 482 177.5 503Q227 524 305 524Q330 524 364.5 520.5Q399 517 434 505V422Q404 432 372.5 435.5Q341 439 317 439Q279 439 251.5 431.5Q224 424 205 405Q185 385 175 345.5Q165 306 165 255Q165 203 174.5 167Q184 131 206 109Q225 90 252 83.5Q279 77 317 77Q339 77 374.5 81.5Q410 86 447 99Z" glyph-name="cacute" horiz-adv-x="482" unicode="&#263;" /><glyph d="M139 680H239L303 615L368 680H468L352 562H254Z" glyph-name="caron" horiz-adv-x="600" unicode="&#711;" /><glyph d="M104 680H204L268 615L333 680H433L317 562H219ZM447 11Q405 -3 368.5 -8.5Q332 -14 301 -14Q169 -14 110 51Q51 116 51 255Q51 312 61.5 361Q72 410 100 446Q128 482 177.5 503Q227 524 305 524Q330 524 364.5 520.5Q399 517 434 505V422Q404 432 372.5 435.5Q341 439 317 439Q279 439 251.5 431.5Q224 424 205 405Q185 385 175 345.5Q165 306 165 255Q165 203 174.5 167Q184 131 206 109Q225 90 252 83.5Q279 77 317 77Q339 77 374.5 81.5Q410 86 447 99Z" glyph-name="ccaron" horiz-adv-x="482" unicode="&#269;" /><glyph d="M248 -11Q145 1 98 66Q51 131 51 255Q51 312 61.5 361Q72 410 100 446Q128 482 177.5 503Q227 524 305 524Q330 524 364.5 520.5Q399 517 434 505V422Q404 432 372.5 435.5Q341 439 317 439Q279 439 251.5 431.5Q224 424 205 405Q185 385 175 345.5Q165 306 165 255Q165 203 174.5 167Q184 131 206 109Q225 90 252 83.5Q279 77 317 77Q339 77 374.5 81.5Q410 86 447 99V11Q415 0 385.5 -5.5Q356 -11 330 -13L319 -40Q352 -51 366 -67Q380 -83 380 -104Q380 -141 346.5 -160Q313 -179 250 -179Q233 -179 212.5 -177Q192 -175 166 -167V-106Q189 -114 207 -116Q225 -118 237 -118Q286 -118 286 -96Q286 -84 271 -78.5Q256 -73 238 -72L232 -46Z" glyph-name="ccedilla" horiz-adv-x="482" unicode="&#231;" /><glyph d="M438 564H338L273 628L209 564H109L224 682H323ZM447 11Q405 -3 368.5 -8.5Q332 -14 301 -14Q169 -14 110 51Q51 116 51 255Q51 312 61.5 361Q72 410 100 446Q128 482 177.5 503Q227 524 305 524Q330 524 364.5 520.5Q399 517 434 505V422Q404 432 372.5 435.5Q341 439 317 439Q279 439 251.5 431.5Q224 424 205 405Q185 385 175 345.5Q165 306 165 255Q165 203 174.5 167Q184 131 206 109Q225 90 252 83.5Q279 77 317 77Q339 77 374.5 81.5Q410 86 447 99Z" glyph-name="ccircumflex" horiz-adv-x="482" unicode="&#265;" /><glyph d="M447 11Q405 -3 368.5 -8.5Q332 -14 301 -14Q169 -14 110 51Q51 116 51 255Q51 312 61.5 361Q72 410 100 446Q128 482 177.5 503Q227 524 305 524Q330 524 364.5 520.5Q399 517 434 505V422Q404 432 372.5 435.5Q341 439 317 439Q279 439 251.5 431.5Q224 424 205 405Q185 385 175 345.5Q165 306 165 255Q165 203 174.5 167Q184 131 206 109Q225 90 252 83.5Q279 77 317 77Q339 77 374.5 81.5Q410 86 447 99ZM326 581H214V677H326Z" glyph-name="cdotaccent" horiz-adv-x="482" unicode="&#267;" /><glyph d="M282 0H365L348 -40Q381 -51 395 -67Q409 -83 409 -104Q409 -141 375.5 -160Q342 -179 279 -179Q262 -179 241.5 -177Q221 -175 195 -167V-106Q218 -114 236 -116Q254 -118 266 -118Q315 -118 315 -96Q315 -84 300 -78.5Q285 -73 267 -72L261 -46Z" glyph-name="cedilla" horiz-adv-x="600" unicode="&#184;" /><glyph d="M454 636Q469 634 485 630Q501 626 518 620V537Q487 548 456 551.5Q425 555 401 555Q352 555 322.5 541.5Q293 528 276.5 501.5Q260 475 254.5 436Q249 397 249 347Q249 298 255.5 260.5Q262 223 279 197.5Q296 172 325.5 159Q355 146 401 146Q423 146 458.5 150.5Q494 155 531 168V80Q492 66 454 60.5Q416 55 385 55Q374 55 363.5 55.5Q353 56 342 57L316 -49H221L254 80Q192 110 163.5 175.5Q135 241 135 347Q135 406 144.5 457.5Q154 509 179 548Q204 587 248 611.5Q292 636 361 640L387 747H481Z" glyph-name="cent" horiz-adv-x="660" unicode="&#162;" /><glyph d="M468 564H368L303 628L239 564H139L254 682H353Z" glyph-name="circumflex" horiz-adv-x="600" unicode="&#710;" /><glyph d="M209 388H79V510H209ZM209 0H79V122H209Z" glyph-name="colon" horiz-adv-x="288" unicode=":" /><glyph d="M102 136H236L123 -129H40Z" glyph-name="comma" horiz-adv-x="288" unicode="," /><glyph d="M805 338Q805 169 708.5 77.5Q612 -14 435 -14Q347 -14 278.5 10Q210 34 162.5 79Q115 124 90.5 189.5Q66 255 66 338Q66 421 90.5 487Q115 553 162 598.5Q209 644 277.5 668Q346 692 435 692Q523 692 592 668.5Q661 645 708 599.5Q755 554 780 488Q805 422 805 338ZM151 338Q151 208 221 133.5Q291 59 435 59Q579 59 649 132.5Q719 206 719 338Q719 470 649 544.5Q579 619 435 619Q362 619 308.5 599.5Q255 580 220 543.5Q185 507 168 455Q151 403 151 338ZM290 342Q290 440 330 483Q370 526 450 526Q468 526 491.5 523Q515 520 540 512V451Q522 457 500.5 460Q479 463 462 463Q415 463 395 437.5Q375 412 375 342Q375 307 379.5 284Q384 261 394.5 247Q405 233 421.5 227.5Q438 222 462 222Q478 222 498.5 224.5Q519 227 537 232V171Q513 163 490.5 160.5Q468 158 450 158Q370 158 330 201.5Q290 245 290 342Z" glyph-name="copyright" horiz-adv-x="870" unicode="&#169;" /><glyph d="M416 400Q396 419 364 426Q332 433 303 433Q229 433 197 390.5Q165 348 165 255Q165 205 173 171Q181 137 197 116Q213 95 237 86Q261 77 294 77Q329 77 359.5 95Q390 113 416 144ZM434 58Q399 23 358 6Q317 -11 275 -11Q163 -11 107 53Q51 117 51 255Q51 389 114.5 455Q178 521 293 521Q317 521 353 515.5Q389 510 416 493V678H523V0H447L435 58Z" glyph-name="d" horiz-adv-x="603" unicode="d" /><glyph d="M253 -85H187L178 397L29 386V480L178 470L168 678H272L262 470L411 480V386L262 396Z" glyph-name="dagger" horiz-adv-x="440" unicode="&#8224;" /><glyph d="M259 263 383 272V192L258 200L253 -85H187L181 200L57 192V272L180 263L178 397L29 386V480L178 470L168 678H272L262 470L411 480V386L262 396Z" glyph-name="daggerdbl" horiz-adv-x="440" unicode="&#8225;" /><glyph d="M638 678H749L663 496H599ZM416 400Q396 419 364 426Q332 433 303 433Q229 433 197 390.5Q165 348 165 255Q165 205 173 171Q181 137 197 116Q213 95 237 86Q261 77 294 77Q329 77 359.5 95Q390 113 416 144ZM434 58Q399 23 358 6Q317 -11 275 -11Q163 -11 107 53Q51 117 51 255Q51 389 114.5 455Q178 521 293 521Q317 521 353 515.5Q389 510 416 493V678H523V0H447L435 58Z" glyph-name="dcaron" horiz-adv-x="742" unicode="&#271;" /><glyph d="M625 552H523V0H447L435 58H434Q399 23 358 6Q317 -11 275 -11Q163 -11 107 53Q51 117 51 255Q51 389 114.5 455Q178 521 293 521Q317 521 353 515.5Q389 510 416 493V552H281V627H416V678H523V627H625ZM416 400Q396 419 364 426Q332 433 303 433Q229 433 197 390.5Q165 348 165 255Q165 205 173 171Q181 137 197 116Q213 95 237 86Q261 77 294 77Q329 77 359.5 95Q390 113 416 144Z" glyph-name="dcroat" horiz-adv-x="603" unicode="&#273;" /><glyph d="M222 438Q267 438 293.5 459.5Q320 481 320 528Q320 576 293.5 598Q267 620 222 620Q177 620 151 598Q125 576 125 528Q125 481 151 459.5Q177 438 222 438ZM222 364Q183 364 149 374Q115 384 90 404.5Q65 425 51 455.5Q37 486 37 528Q37 570 51 601Q65 632 90 652.5Q115 673 149 683Q183 693 222 693Q262 693 296 683Q330 673 355 652.5Q380 632 394 601Q408 570 408 528Q408 486 394 455.5Q380 425 355 404.5Q330 384 296 374Q262 364 222 364Z" glyph-name="degree" horiz-adv-x="444" unicode="&#176;" /><glyph d="M258 580H151V675H258ZM466 580H358V675H466Z" glyph-name="dieresis" horiz-adv-x="600" unicode="&#168;" /><glyph d="M359 400H247V503H359ZM554 226H52V315H554ZM359 39H247V142H359Z" glyph-name="divide" horiz-adv-x="605" unicode="&#247;" /><glyph d="M287 -118H188L223 22Q197 25 171 31Q145 37 123 46V140Q146 132 172.5 126.5Q199 121 224.5 118Q250 115 271.5 114Q293 113 307 113Q348 113 376 120Q404 127 421 139Q438 151 445.5 167.5Q453 184 453 204Q453 231 444 247.5Q435 264 418 274Q401 284 376.5 287.5Q352 291 322 293Q281 294 243.5 302.5Q206 311 177 331Q148 351 130.5 385.5Q113 420 113 475Q113 520 130 554Q147 588 177.5 611Q208 634 249.5 646Q291 658 339 661L373 795H472L437 656Q458 654 480 649.5Q502 645 519 638V549Q475 563 433.5 566.5Q392 570 366 570Q232 570 232 482Q232 454 242.5 439Q253 424 271 416.5Q289 409 313.5 406.5Q338 404 365 402Q402 399 439.5 391.5Q477 384 506.5 363.5Q536 343 554.5 307Q573 271 573 212Q573 163 553.5 127Q534 91 500 67Q466 43 420 30.5Q374 18 321 17Z" glyph-name="dollar" horiz-adv-x="660" unicode="$" /><glyph d="M356 581H244V677H356Z" glyph-name="dotaccent" horiz-adv-x="600" unicode="&#729;" /><glyph d="M188 0H81V511H188Z" glyph-name="dotlessi" horiz-adv-x="268" unicode="&#305;" /><glyph d="M29 -168Q55 -126 71 -68Q87 -10 87 51V510H194V133Q194 83 192.5 41.5Q191 0 185 -36Q179 -72 166 -104.5Q153 -137 130 -168Z" glyph-name="dotlessj" horiz-adv-x="273" unicode="&#567;" /><glyph d="M165 232Q166 191 173.5 159.5Q181 128 203 107Q222 88 251 80Q280 72 324 72Q339 72 357.5 73Q376 74 397 76.5Q418 79 439 83.5Q460 88 479 94V11Q460 5 437.5 0Q415 -5 392 -8Q369 -11 346 -12.5Q323 -14 304 -14Q169 -14 110 52Q51 118 51 255Q51 331 69.5 382.5Q88 434 120 465.5Q152 497 195.5 510.5Q239 524 289 524Q401 524 451 470Q501 416 501 308Q501 297 499.5 273Q498 249 496 232ZM290 441Q266 441 243.5 435Q221 429 204 412Q174 382 168 311H397Q398 321 398 325.5Q398 330 398 332Q398 359 392 380Q386 401 372 415Q358 429 337 435Q316 441 290 441Z" glyph-name="e" horiz-adv-x="552" unicode="e" /><glyph d="M324 566H231L341 678H474ZM165 232Q166 191 173.5 159.5Q181 128 203 107Q222 88 251 80Q280 72 324 72Q339 72 357.5 73Q376 74 397 76.5Q418 79 439 83.5Q460 88 479 94V11Q460 5 437.5 0Q415 -5 392 -8Q369 -11 346 -12.5Q323 -14 304 -14Q169 -14 110 52Q51 118 51 255Q51 331 69.5 382.5Q88 434 120 465.5Q152 497 195.5 510.5Q239 524 289 524Q401 524 451 470Q501 416 501 308Q501 297 499.5 273Q498 249 496 232ZM290 441Q266 441 243.5 435Q221 429 204 412Q174 382 168 311H397Q398 321 398 325.5Q398 330 398 332Q398 359 392 380Q386 401 372 415Q358 429 337 435Q316 441 290 441Z" glyph-name="eacute" horiz-adv-x="552" unicode="&#233;" /><glyph d="M165 232Q166 191 173.5 159.5Q181 128 203 107Q222 88 251 80Q280 72 324 72Q339 72 357.5 73Q376 74 397 76.5Q418 79 439 83.5Q460 88 479 94V11Q460 5 437.5 0Q415 -5 392 -8Q369 -11 346 -12.5Q323 -14 304 -14Q169 -14 110 52Q51 118 51 255Q51 331 69.5 382.5Q88 434 120 465.5Q152 497 195.5 510.5Q239 524 289 524Q401 524 451 470Q501 416 501 308Q501 297 499.5 273Q498 249 496 232ZM290 441Q266 441 243.5 435Q221 429 204 412Q174 382 168 311H397Q398 321 398 325.5Q398 330 398 332Q398 359 392 380Q386 401 372 415Q358 429 337 435Q316 441 290 441ZM291 623Q323 623 349 634.5Q375 646 382 678H470Q459 612 411 584Q363 556 291 556Q220 556 171.5 584.5Q123 613 113 678H200Q208 646 233.5 634.5Q259 623 291 623Z" glyph-name="ebreve" horiz-adv-x="552" unicode="&#277;" /><glyph d="M126 680H226L290 615L355 680H455L339 562H241ZM165 232Q166 191 173.5 159.5Q181 128 203 107Q222 88 251 80Q280 72 324 72Q339 72 357.5 73Q376 74 397 76.5Q418 79 439 83.5Q460 88 479 94V11Q460 5 437.5 0Q415 -5 392 -8Q369 -11 346 -12.5Q323 -14 304 -14Q169 -14 110 52Q51 118 51 255Q51 331 69.5 382.5Q88 434 120 465.5Q152 497 195.5 510.5Q239 524 289 524Q401 524 451 470Q501 416 501 308Q501 297 499.5 273Q498 249 496 232ZM290 441Q266 441 243.5 435Q221 429 204 412Q174 382 168 311H397Q398 321 398 325.5Q398 330 398 332Q398 359 392 380Q386 401 372 415Q358 429 337 435Q316 441 290 441Z" glyph-name="ecaron" horiz-adv-x="552" unicode="&#283;" /><glyph d="M451 564H351L286 628L222 564H122L237 682H336ZM165 232Q166 191 173.5 159.5Q181 128 203 107Q222 88 251 80Q280 72 324 72Q339 72 357.5 73Q376 74 397 76.5Q418 79 439 83.5Q460 88 479 94V11Q460 5 437.5 0Q415 -5 392 -8Q369 -11 346 -12.5Q323 -14 304 -14Q169 -14 110 52Q51 118 51 255Q51 331 69.5 382.5Q88 434 120 465.5Q152 497 195.5 510.5Q239 524 289 524Q401 524 451 470Q501 416 501 308Q501 297 499.5 273Q498 249 496 232ZM290 441Q266 441 243.5 435Q221 429 204 412Q174 382 168 311H397Q398 321 398 325.5Q398 330 398 332Q398 359 392 380Q386 401 372 415Q358 429 337 435Q316 441 290 441Z" glyph-name="ecircumflex" horiz-adv-x="552" unicode="&#234;" /><glyph d="M238 580H131V675H238ZM446 580H338V675H446ZM165 232Q166 191 173.5 159.5Q181 128 203 107Q222 88 251 80Q280 72 324 72Q339 72 357.5 73Q376 74 397 76.5Q418 79 439 83.5Q460 88 479 94V11Q460 5 437.5 0Q415 -5 392 -8Q369 -11 346 -12.5Q323 -14 304 -14Q169 -14 110 52Q51 118 51 255Q51 331 69.5 382.5Q88 434 120 465.5Q152 497 195.5 510.5Q239 524 289 524Q401 524 451 470Q501 416 501 308Q501 297 499.5 273Q498 249 496 232ZM290 441Q266 441 243.5 435Q221 429 204 412Q174 382 168 311H397Q398 321 398 325.5Q398 330 398 332Q398 359 392 380Q386 401 372 415Q358 429 337 435Q316 441 290 441Z" glyph-name="edieresis" horiz-adv-x="552" unicode="&#235;" /><glyph d="M165 232Q166 191 173.5 159.5Q181 128 203 107Q222 88 251 80Q280 72 324 72Q339 72 357.5 73Q376 74 397 76.5Q418 79 439 83.5Q460 88 479 94V11Q460 5 437.5 0Q415 -5 392 -8Q369 -11 346 -12.5Q323 -14 304 -14Q169 -14 110 52Q51 118 51 255Q51 331 69.5 382.5Q88 434 120 465.5Q152 497 195.5 510.5Q239 524 289 524Q401 524 451 470Q501 416 501 308Q501 297 499.5 273Q498 249 496 232ZM290 441Q266 441 243.5 435Q221 429 204 412Q174 382 168 311H397Q398 321 398 325.5Q398 330 398 332Q398 359 392 380Q386 401 372 415Q358 429 337 435Q316 441 290 441ZM348 581H236V677H348Z" glyph-name="edotaccent" horiz-adv-x="552" unicode="&#279;" /><glyph d="M165 232Q166 191 173.5 159.5Q181 128 203 107Q222 88 251 80Q280 72 324 72Q339 72 357.5 73Q376 74 397 76.5Q418 79 439 83.5Q460 88 479 94V11Q460 5 437.5 0Q415 -5 392 -8Q369 -11 346 -12.5Q323 -14 304 -14Q169 -14 110 52Q51 118 51 255Q51 331 69.5 382.5Q88 434 120 465.5Q152 497 195.5 510.5Q239 524 289 524Q401 524 451 470Q501 416 501 308Q501 297 499.5 273Q498 249 496 232ZM290 441Q266 441 243.5 435Q221 429 204 412Q174 382 168 311H397Q398 321 398 325.5Q398 330 398 332Q398 359 392 380Q386 401 372 415Q358 429 337 435Q316 441 290 441ZM104 678H237L347 566H254Z" glyph-name="egrave" horiz-adv-x="552" unicode="&#232;" /><glyph d="M323 692Q374 692 418 681Q462 670 494.5 648.5Q527 627 545 593.5Q563 560 563 515Q563 455 537.5 415Q512 375 471 350V348Q519 327 547.5 284.5Q576 242 576 182Q576 128 555.5 90.5Q535 53 500.5 29.5Q466 6 420 -4Q374 -14 323 -14Q272 -14 226.5 -4Q181 6 146 29.5Q111 53 90.5 90.5Q70 128 70 182Q70 242 98.5 284.5Q127 327 175 348V350Q134 375 108.5 415Q83 455 83 515Q83 560 101 593.5Q119 627 151.5 648.5Q184 670 228 681Q272 692 323 692ZM323 70Q346 70 370.5 75Q395 80 415.5 92.5Q436 105 449.5 127Q463 149 463 184Q463 213 456 233Q449 253 436 266Q417 285 390.5 294.5Q364 304 323 304Q282 304 255.5 294.5Q229 285 210 266Q197 253 190 233Q183 213 183 184Q183 149 196.5 127Q210 105 230.5 92.5Q251 80 275.5 75Q300 70 323 70ZM323 390Q357 390 380.5 398.5Q404 407 424 427Q450 453 450 500Q450 523 444.5 543Q439 563 425 577.5Q411 592 386.5 600Q362 608 323 608Q284 608 259.5 600Q235 592 221 577.5Q207 563 201.5 543Q196 523 196 500Q196 453 222 427Q242 407 265.5 398.5Q289 390 323 390Z" glyph-name="eight" horiz-adv-x="645" unicode="8" /><glyph d="M170 0H40V122H170ZM594 0H464V122H594ZM1018 0H887V122H1018Z" glyph-name="ellipsis" horiz-adv-x="1057" unicode="&#8230;" /><glyph d="M165 232Q166 191 173.5 159.5Q181 128 203 107Q222 88 251 80Q280 72 324 72Q339 72 357.5 73Q376 74 397 76.5Q418 79 439 83.5Q460 88 479 94V11Q460 5 437.5 0Q415 -5 392 -8Q369 -11 346 -12.5Q323 -14 304 -14Q169 -14 110 52Q51 118 51 255Q51 331 69.5 382.5Q88 434 120 465.5Q152 497 195.5 510.5Q239 524 289 524Q401 524 451 470Q501 416 501 308Q501 297 499.5 273Q498 249 496 232ZM290 441Q266 441 243.5 435Q221 429 204 412Q174 382 168 311H397Q398 321 398 325.5Q398 330 398 332Q398 359 392 380Q386 401 372 415Q358 429 337 435Q316 441 290 441ZM463 594H117V673H463Z" glyph-name="emacron" horiz-adv-x="552" unicode="&#275;" /><glyph d="M1105 226H52V315H1105Z" glyph-name="emdash" horiz-adv-x="1157" unicode="&#8212;" /><glyph d="M568 226H52V315H568Z" glyph-name="endash" horiz-adv-x="620" unicode="&#8211;" /><glyph d="M173 441Q216 485 265 503Q314 521 365 521Q412 521 444.5 511.5Q477 502 496.5 482.5Q516 463 524.5 433Q533 403 533 362V48Q533 -9 519.5 -62Q506 -115 468 -168H365Q391 -129 408.5 -75Q426 -21 426 41V341Q426 392 407 412Q388 432 337 432Q295 432 255 412Q215 392 188 357V0H81V510H156L171 441Z" glyph-name="eng" horiz-adv-x="605" unicode="&#331;" /><glyph d="M165 232Q166 191 173.5 159.5Q181 128 203 107Q222 88 251 80Q280 72 324 72Q339 72 357.5 73Q376 74 397 76.5Q418 79 439 83.5Q460 88 479 94V11Q438 -10 422.5 -36.5Q407 -63 407 -81Q407 -116 449 -116Q465 -116 480.5 -114Q496 -112 515 -106V-167Q497 -175 473 -177Q449 -179 432 -179Q375 -179 348.5 -157Q322 -135 322 -100Q322 -77 334 -53.5Q346 -30 368 -10Q351 -12 334.5 -13Q318 -14 304 -14Q169 -14 110 52Q51 118 51 255Q51 331 69.5 382.5Q88 434 120 465.5Q152 497 195.5 510.5Q239 524 289 524Q401 524 451 470Q501 416 501 308Q501 297 499.5 273Q498 249 496 232ZM290 441Q266 441 243.5 435Q221 429 204 412Q174 382 168 311H397Q398 321 398 325.5Q398 330 398 332Q398 359 392 380Q386 401 372 415Q358 429 337 435Q316 441 290 441Z" glyph-name="eogonek" horiz-adv-x="552" unicode="&#281;" /><glyph d="M583 333H52V422H583ZM583 121H52V210H583Z" glyph-name="equal" horiz-adv-x="635" unicode="=" /><glyph d="M392 491Q380 521 360.5 544Q341 567 315 585L172 524L148 582L251 624Q247 626 239.5 629.5Q232 633 223 637Q214 641 205.5 644.5Q197 648 192 650L270 699Q290 693 307.5 685.5Q325 678 345 667L460 714L485 653L410 622Q476 564 513 474Q550 384 550 253Q550 170 528 118Q506 66 471 37Q435 7 389.5 -3.5Q344 -14 295 -14Q248 -14 204.5 -3.5Q161 7 126 37Q92 67 71.5 120Q51 173 51 260Q51 342 76 391.5Q101 441 139 468Q176 495 217.5 504Q259 513 291 513Q315 513 342.5 508Q370 503 390 490ZM436 254Q436 306 427.5 341Q419 376 399 396Q365 430 299 430Q235 430 202 396Q182 376 173 341.5Q164 307 164 257Q164 200 173.5 161.5Q183 123 205 101Q238 69 300 69Q331 69 354.5 76Q378 83 395 100Q418 123 427 160Q436 197 436 254Z" glyph-name="eth" horiz-adv-x="600" unicode="&#240;" /><glyph d="M209 0H79V122H209ZM188 225H101L83 678H205Z" glyph-name="exclam" horiz-adv-x="288" unicode="!" /><glyph d="M209 388H79V510H209ZM205 -168H83L101 285H188Z" glyph-name="exclamdown" horiz-adv-x="288" unicode="&#161;" /><glyph d="M219 0H112V429H26V500L112 507V533Q112 581 122.5 611Q133 641 154.5 658.5Q176 676 208.5 682.5Q241 689 285 689Q303 689 336 687Q369 685 401 677V598Q389 601 375 602.5Q361 604 347.5 605Q334 606 322 606.5Q310 607 303 607Q277 607 260.5 604Q244 601 235 593Q226 585 222.5 571.5Q219 558 219 537V510H390V429H219Z" glyph-name="f" horiz-adv-x="387" unicode="f" /><glyph d="M219 0H112V429H26V500L112 507V533Q112 581 122.5 611Q133 641 154.5 658.5Q176 676 208.5 682.5Q241 689 285 689Q302 689 326.5 687Q351 685 380 677V598Q358 603 337 605Q316 607 303 607Q277 607 260.5 604Q244 601 235 593Q226 585 222.5 571.5Q219 558 219 537V510H380V429H219ZM568 0H461V510H568ZM575 578H455V678H575Z" glyph-name="fi" horiz-adv-x="650" unicode="&#64257;" /><glyph d="M532 203Q532 149 512 108.5Q492 68 456.5 41Q421 14 373 0.5Q325 -13 269 -13Q231 -13 180 -6.5Q129 0 87 14V101Q109 95 133.5 90.5Q158 86 181.5 83Q205 80 226 78.5Q247 77 261 77Q297 77 326.5 83.5Q356 90 376.5 105Q397 120 408.5 143.5Q420 167 420 201Q420 243 404 267Q388 291 363 302.5Q338 314 308 317Q278 320 251 320Q239 320 196.5 319Q154 318 96 314V678H491V594H203V406Q222 407 233.5 407Q245 407 252 407Q306 407 356.5 399.5Q407 392 446 370Q485 348 508.5 308Q532 268 532 203Z" glyph-name="five" horiz-adv-x="575" unicode="5" /><glyph d="M219 0H112V429H26V500L112 507V533Q112 581 122.5 611Q133 641 154.5 658.5Q176 676 208.5 682.5Q241 689 285 689Q302 689 326.5 687Q351 685 380 677V598Q358 603 337 605Q316 607 303 607Q277 607 260.5 604Q244 601 235 593Q226 585 222.5 571.5Q219 558 219 537V510H380V429H219ZM568 0H461V678H568Z" glyph-name="fl" horiz-adv-x="648" unicode="&#64258;" /><glyph d="M71 -35Q88 -38 102 -39Q116 -40 125 -40Q150 -40 166.5 -34Q183 -28 193 -16Q203 -4 208 14.5Q213 33 215 58L239 301H171V390H247L260 519Q265 559 277.5 591Q290 623 312.5 645.5Q335 668 369 680Q403 692 450 692Q473 692 505.5 687.5Q538 683 573 669V579Q541 593 513.5 597Q486 601 469 601Q444 601 427.5 595Q411 589 400.5 576Q390 563 384.5 544Q379 525 376 499L365 390H520V301H357L331 34Q328 -2 316.5 -32.5Q305 -63 284.5 -85Q264 -107 232.5 -119.5Q201 -132 157 -132Q142 -132 118 -130.5Q94 -129 71 -124Z" glyph-name="florin" horiz-adv-x="660" unicode="&#402;" /><glyph d="M484 0H376V156H42L37 243L281 676H393L154 240V239Q165 239 191 239.5Q217 240 243.5 240Q270 240 290.5 240Q311 240 313 240H378L394 458H484V241H563V156H484Z" glyph-name="four" horiz-adv-x="589" unicode="4" /><glyph d="M-105 0H-197L285 678H377Z" glyph-name="fraction" horiz-adv-x="180" unicode="&#8260;" /><glyph d="M515 26Q515 -41 492.5 -82Q470 -123 434.5 -145Q399 -167 356 -174.5Q313 -182 271 -182Q253 -182 230 -181Q207 -180 182.5 -177Q158 -174 133.5 -169Q109 -164 89 -157V-69Q130 -82 174.5 -87.5Q219 -93 258 -93Q339 -93 373.5 -66Q408 -39 408 18V82H406Q374 53 338 41Q302 29 266 29Q159 29 105 88.5Q51 148 51 275Q51 521 290 521Q304 521 322 518.5Q340 516 358.5 511Q377 506 396 497.5Q415 489 431 476H433L446 510H515ZM408 397Q388 416 358 425.5Q328 435 297 435Q228 435 196.5 397Q165 359 165 275Q165 186 195.5 151.5Q226 117 288 117Q323 117 355.5 136Q388 155 408 184Z" glyph-name="g" horiz-adv-x="596" unicode="g" /><glyph d="M515 26Q515 -41 492.5 -82Q470 -123 434.5 -145Q399 -167 356 -174.5Q313 -182 271 -182Q253 -182 230 -181Q207 -180 182.5 -177Q158 -174 133.5 -169Q109 -164 89 -157V-69Q130 -82 174.5 -87.5Q219 -93 258 -93Q339 -93 373.5 -66Q408 -39 408 18V82H406Q374 53 338 41Q302 29 266 29Q159 29 105 88.5Q51 148 51 275Q51 521 290 521Q304 521 322 518.5Q340 516 358.5 511Q377 506 396 497.5Q415 489 431 476H433L446 510H515ZM408 397Q388 416 358 425.5Q328 435 297 435Q228 435 196.5 397Q165 359 165 275Q165 186 195.5 151.5Q226 117 288 117Q323 117 355.5 136Q388 155 408 184ZM289 623Q321 623 347 634.5Q373 646 380 678H468Q457 612 409 584Q361 556 289 556Q218 556 169.5 584.5Q121 613 111 678H198Q206 646 231.5 634.5Q257 623 289 623Z" glyph-name="gbreve" horiz-adv-x="596" unicode="&#287;" /><glyph d="M462 564H362L297 628L233 564H133L248 682H347ZM515 26Q515 -41 492.5 -82Q470 -123 434.5 -145Q399 -167 356 -174.5Q313 -182 271 -182Q253 -182 230 -181Q207 -180 182.5 -177Q158 -174 133.5 -169Q109 -164 89 -157V-69Q130 -82 174.5 -87.5Q219 -93 258 -93Q339 -93 373.5 -66Q408 -39 408 18V82H406Q374 53 338 41Q302 29 266 29Q159 29 105 88.5Q51 148 51 275Q51 521 290 521Q304 521 322 518.5Q340 516 358.5 511Q377 506 396 497.5Q415 489 431 476H433L446 510H515ZM408 397Q388 416 358 425.5Q328 435 297 435Q228 435 196.5 397Q165 359 165 275Q165 186 195.5 151.5Q226 117 288 117Q323 117 355.5 136Q388 155 408 184Z" glyph-name="gcircumflex" horiz-adv-x="596" unicode="&#285;" /><glyph d="M317 747H427L341 565H277ZM515 26Q515 -41 492.5 -82Q470 -123 434.5 -145Q399 -167 356 -174.5Q313 -182 271 -182Q253 -182 230 -181Q207 -180 182.5 -177Q158 -174 133.5 -169Q109 -164 89 -157V-69Q130 -82 174.5 -87.5Q219 -93 258 -93Q339 -93 373.5 -66Q408 -39 408 18V82H406Q374 53 338 41Q302 29 266 29Q159 29 105 88.5Q51 148 51 275Q51 521 290 521Q304 521 322 518.5Q340 516 358.5 511Q377 506 396 497.5Q415 489 431 476H433L446 510H515ZM408 397Q388 416 358 425.5Q328 435 297 435Q228 435 196.5 397Q165 359 165 275Q165 186 195.5 151.5Q226 117 288 117Q323 117 355.5 136Q388 155 408 184Z" glyph-name="gcommaaccent" horiz-adv-x="596" unicode="&#291;" /><glyph d="M515 26Q515 -41 492.5 -82Q470 -123 434.5 -145Q399 -167 356 -174.5Q313 -182 271 -182Q253 -182 230 -181Q207 -180 182.5 -177Q158 -174 133.5 -169Q109 -164 89 -157V-69Q130 -82 174.5 -87.5Q219 -93 258 -93Q339 -93 373.5 -66Q408 -39 408 18V82H406Q374 53 338 41Q302 29 266 29Q159 29 105 88.5Q51 148 51 275Q51 521 290 521Q304 521 322 518.5Q340 516 358.5 511Q377 506 396 497.5Q415 489 431 476H433L446 510H515ZM408 397Q388 416 358 425.5Q328 435 297 435Q228 435 196.5 397Q165 359 165 275Q165 186 195.5 151.5Q226 117 288 117Q323 117 355.5 136Q388 155 408 184ZM349 581H237V677H349Z" glyph-name="gdotaccent" horiz-adv-x="596" unicode="&#289;" /><glyph d="M388 351Q388 327 408.5 320Q429 313 460 312Q494 311 528 304.5Q562 298 588.5 281Q615 264 631.5 233Q648 202 648 152Q648 108 631 77Q614 46 584.5 25.5Q555 5 514.5 -4.5Q474 -14 427 -14Q417 -14 398.5 -13Q380 -12 358.5 -9Q337 -6 314 -1Q291 4 271 11V99Q291 93 313.5 88.5Q336 84 357 81Q378 78 396.5 77Q415 76 427 76Q487 76 513.5 93.5Q540 111 540 145Q540 168 532 181.5Q524 195 510.5 201.5Q497 208 480.5 210Q464 212 446 212Q417 212 387 217.5Q357 223 333 238Q309 253 294 280Q279 307 279 350Q279 377 289.5 397.5Q300 418 315 433Q341 459 371 474.5Q401 490 418 507Q425 514 429 522.5Q433 531 433 544Q433 573 407 589Q381 605 338 605Q263 605 225.5 571Q188 537 188 476V0H81V462Q81 584 146 638.5Q211 693 332 693Q384 693 423 681Q462 669 487 648.5Q512 628 524.5 600Q537 572 537 541Q537 509 525.5 487Q514 465 498 450Q475 428 448.5 415Q422 402 403 383Q396 376 392 369Q388 362 388 351Z" glyph-name="germandbls" horiz-adv-x="676" unicode="&#223;" /><glyph d="M115 678H248L358 566H265Z" glyph-name="grave" horiz-adv-x="600" unicode="`" /><glyph d="M66 -15V92L260 176Q282 185 311.5 197Q341 209 372.5 222Q404 235 435.5 247.5Q467 260 494 270V272Q467 282 435.5 294.5Q404 307 372.5 320Q341 333 311.5 345Q282 357 260 366L66 450V556L625 313V228Z" glyph-name="greater" horiz-adv-x="659" unicode="&gt;" /><glyph d="M65 90H555V0H65ZM407 336Q393 340 371 347.5Q349 355 325.5 363Q302 371 280.5 378.5Q259 386 246 391L65 456V558L554 375V298L65 115V215L246 280Q259 285 280.5 292.5Q302 300 325.5 308Q349 316 371 323Q393 330 407 335Z" glyph-name="greaterequal" horiz-adv-x="589" unicode="&#8805;" /><glyph d="M424 51 264 282 424 510H544L387 282L544 51ZM218 51 58 282 218 510H338L180 282L338 51Z" glyph-name="guillemotleft" horiz-adv-x="601" unicode="&#171;" /><glyph d="M58 51 215 282 58 510H178L338 282L178 51ZM264 51 422 282 264 510H384L544 282L384 51Z" glyph-name="guillemotright" horiz-adv-x="601" unicode="&#187;" /><glyph d="M218 51 58 282 218 510H343L186 282L343 51Z" glyph-name="guilsinglleft" horiz-adv-x="401" unicode="&#8249;" /><glyph d="M58 51 215 282 58 510H183L343 282L183 51Z" glyph-name="guilsinglright" horiz-adv-x="401" unicode="&#8250;" /><glyph d="M190 455Q231 491 275.5 506Q320 521 365 521Q412 521 444.5 511.5Q477 502 496.5 482.5Q516 463 524.5 433Q533 403 533 362V0H426V341Q426 392 407 412Q388 432 337 432Q295 432 255 412Q215 392 188 357V0H81V678H188V455H190Z" glyph-name="h" horiz-adv-x="605" unicode="h" /><glyph d="M322 552H188V455H190Q231 491 275.5 506Q320 521 365 521Q412 521 444.5 511.5Q477 502 496.5 482.5Q516 463 524.5 433Q533 403 533 362V0H426V341Q426 392 407 412Q388 432 337 432Q295 432 255 412Q215 392 188 357V0H81V552H-22V627H81V678H188V627H322Z" glyph-name="hbar" horiz-adv-x="605" unicode="&#295;" /><glyph d="M190 455Q231 491 275.5 506Q320 521 365 521Q412 521 444.5 511.5Q477 502 496.5 482.5Q516 463 524.5 433Q533 403 533 362V0H426V341Q426 392 407 412Q388 432 337 432Q295 432 255 412Q215 392 188 357V0H81V678H188V455ZM299 733H199L134 797L70 733H-30L85 851H184Z" glyph-name="hcircumflex" horiz-adv-x="605" unicode="&#293;" /><glyph d="M249 565H170L279 678H398ZM413 565H333L442 678H562Z" glyph-name="hungarumlaut" horiz-adv-x="600" unicode="&#733;" /><glyph d="M368 226H28V315H368Z" glyph-name="hyphen" horiz-adv-x="396" unicode="-" /><glyph d="M188 0H81V510H188ZM195 578H73V678H195Z" glyph-name="i" horiz-adv-x="270" unicode="i" /><glyph d="M182 566H89L199 678H332ZM188 0H81V511H188Z" glyph-name="iacute" horiz-adv-x="268" unicode="&#237;" /><glyph d="M188 0H81V511H188ZM134 623Q166 623 192 634.5Q218 646 225 678H313Q302 612 254 584Q206 556 134 556Q63 556 14.5 584.5Q-34 613 -44 678H43Q51 646 76.5 634.5Q102 623 134 623Z" glyph-name="ibreve" horiz-adv-x="268" unicode="&#301;" /><glyph d="M299 564H199L134 628L70 564H-30L85 682H184ZM188 0H81V511H188Z" glyph-name="icircumflex" horiz-adv-x="268" unicode="&#238;" /><glyph d="M84 580H-23V675H84ZM292 580H184V675H292ZM188 0H81V511H188Z" glyph-name="idieresis" horiz-adv-x="268" unicode="&#239;" /><glyph d="M188 0H81V511H188ZM-64 678H69L179 566H86Z" glyph-name="igrave" horiz-adv-x="268" unicode="&#236;" /><glyph d="M188 0H81V510H188ZM195 578H73V678H195ZM297 -168Q324 -126 340 -68Q356 -10 356 51V510H463V133Q463 83 461.5 41.5Q460 0 453.5 -36Q447 -72 434 -104.5Q421 -137 398 -168ZM470 578H348V678H470Z" glyph-name="ij" horiz-adv-x="545" unicode="&#307;" /><glyph d="M188 0H81V511H188ZM308 594H-38V673H308Z" glyph-name="imacron" horiz-adv-x="268" unicode="&#299;" /><glyph d="M735 345Q735 308 721.5 280Q708 252 685 233.5Q662 215 630 205.5Q598 196 562 196Q513 196 472 219Q431 242 399 276Q367 243 325.5 219.5Q284 196 236 196Q200 196 168 205.5Q136 215 113 233.5Q90 252 76.5 280Q63 308 63 345Q63 382 76.5 409.5Q90 437 113 455.5Q136 474 168 483.5Q200 493 236 493Q286 493 326.5 470.5Q367 448 399 413Q431 448 471 470.5Q511 493 562 493Q598 493 630 483.5Q662 474 685 455.5Q708 437 721.5 409.5Q735 382 735 345ZM640 345Q640 364 633.5 377Q627 390 616 397Q605 404 591 407Q577 410 562 410Q528 410 500 390Q472 370 452 345Q471 319 498 299Q525 279 562 279Q577 279 591 282Q605 285 616 292.5Q627 300 633.5 312.5Q640 325 640 345ZM157 345Q157 325 163.5 312.5Q170 300 181 292.5Q192 285 206 282Q220 279 235 279Q271 279 298.5 299.5Q326 320 345 345Q326 370 298.5 390Q271 410 235 410Q220 410 206 407Q192 404 181 396.5Q170 389 163.5 376.5Q157 364 157 345Z" glyph-name="infinity" horiz-adv-x="797" unicode="&#8734;" /><glyph d="M138 521Q136 615 172 652.5Q208 690 286 690Q302 690 329.5 687.5Q357 685 384 674V591Q364 599 343.5 601.5Q323 604 309 604Q268 604 257 583.5Q246 563 246 523V-8Q246 -55 237.5 -87Q229 -119 211 -139Q193 -159 165 -168Q137 -177 98 -177Q82 -177 55 -174Q28 -171 0 -160V-78Q20 -86 40.5 -88.5Q61 -91 76 -91Q117 -91 127.5 -70.5Q138 -50 138 -9Z" glyph-name="integral" horiz-adv-x="396" unicode="&#8747;" /><glyph d="M81 0V510H188V0Q157 -17 143.5 -40Q130 -63 130 -81Q130 -116 172 -116Q187 -116 202.5 -114Q218 -112 237 -106V-167Q219 -175 195 -177Q171 -179 154 -179Q98 -179 71.5 -157Q45 -135 45 -100Q45 -71 62 -44Q79 -17 105 0ZM195 578H73V678H195Z" glyph-name="iogonek" horiz-adv-x="268" unicode="&#303;" /><glyph d="M188 0H81V511H188ZM211 658Q234 658 261.5 670Q289 682 309 696V619Q294 606 265.5 594Q237 582 211 582Q189 582 170 587Q151 592 133 598Q115 604 97.5 609Q80 614 62 614Q39 614 10.5 602.5Q-18 591 -39 577V655Q-22 667 7 679.5Q36 692 61 692Q83 692 102 687Q121 682 138.5 675.5Q156 669 173.5 663.5Q191 658 211 658Z" glyph-name="itilde" horiz-adv-x="268" unicode="&#297;" /><glyph d="M27 -168Q54 -126 70 -68Q86 -10 86 51V510H193V133Q193 83 191.5 41.5Q190 0 183.5 -36Q177 -72 164 -104.5Q151 -137 128 -168ZM200 578H78V678H200Z" glyph-name="j" horiz-adv-x="275" unicode="j" /><glyph d="M29 -168Q55 -126 71 -68Q87 -10 87 51V510H194V133Q194 83 192.5 41.5Q191 0 185 -36Q179 -72 166 -104.5Q153 -137 130 -168ZM306 564H206L141 628L77 564H-23L92 682H191Z" glyph-name="jcircumflex" horiz-adv-x="273" unicode="&#309;" /><glyph d="M188 312H253L387 510H506L344 275L535 0H409L253 229H188V0H81V678H188Z" glyph-name="k" horiz-adv-x="543" unicode="k" /><glyph d="M236 -75H346L260 -258H196ZM188 312H253L387 510H506L344 275L535 0H409L253 229H188V0H81V678H188Z" glyph-name="kcommaaccent" horiz-adv-x="543" unicode="&#311;" /><glyph d="M188 510V312H253L387 510H506L344 275L535 0H409L253 229H188V0H81V510Z" glyph-name="kgreenlandic" horiz-adv-x="543" unicode="&#312;" /><glyph d="M188 0H81V678H188Z" glyph-name="l" horiz-adv-x="268" unicode="l" /><glyph d="M180 734H87L197 846H330ZM188 0H81V678H188Z" glyph-name="lacute" horiz-adv-x="268" unicode="&#314;" /><glyph d="M304 678H415L329 496H265ZM188 0H81V678H188Z" glyph-name="lcaron" horiz-adv-x="407" unicode="&#318;" /><glyph d="M78 -75H188L102 -258H38ZM188 0H81V678H188Z" glyph-name="lcommaaccent" horiz-adv-x="268" unicode="&#316;" /><glyph d="M188 0H81V678H188ZM388 297H282V394H388Z" glyph-name="ldot" horiz-adv-x="416" unicode="&#320;" /><glyph d="M35 228V313L594 556V450L399 366Q377 357 347.5 345Q318 333 286.5 320Q255 307 223.5 294.5Q192 282 165 272V270Q192 260 223.5 247.5Q255 235 286.5 222Q318 209 347.5 197Q377 185 399 176L594 92V-15Z" glyph-name="less" horiz-adv-x="659" unicode="&lt;" /><glyph d="M182 337Q196 332 218 325Q240 318 263.5 310Q287 302 308.5 294.5Q330 287 343 282L524 217V115L35 298V375L524 558V458L343 393Q330 388 308.5 380.5Q287 373 263.5 365Q240 357 218 349.5Q196 342 182 338ZM524 0H34V90H524Z" glyph-name="lessequal" horiz-adv-x="589" unicode="&#8804;" /><glyph d="M389 474H36V558H496V273H389Z" glyph-name="logicalnot" horiz-adv-x="547" unicode="&#172;" /><glyph d="M251 683H351L553 338L351 -7H251L49 338ZM436 337 301 580H299L166 340L301 97H303Z" glyph-name="lozenge" horiz-adv-x="602" unicode="&#9674;" /><glyph d="M215 421 323 491V388L215 318V0H108V249L2 181V284L108 352V678H215Z" glyph-name="lslash" horiz-adv-x="325" unicode="&#322;" /><glyph d="M497 444Q536 486 580 503.5Q624 521 670 521Q759 521 794 482.5Q829 444 829 362V0H722V342Q722 393 705 413Q688 433 642 433Q604 433 568.5 412.5Q533 392 508 358V0H401V342Q401 393 384 413Q367 433 322 433Q284 433 248.5 412.5Q213 392 188 357V0H81V510H156L171 441H173Q213 485 258 503Q303 521 350 521Q412 521 446.5 502Q481 483 495 444H497Z" glyph-name="m" horiz-adv-x="900" unicode="m" /><glyph d="M473 594H127V673H473Z" glyph-name="macron" horiz-adv-x="600" unicode="&#175;" /><glyph d="M307 340 475 509 544 440 375 272 546 101 478 32 307 203 136 32 68 100 238 271 68 442 136 510Z" glyph-name="multiply" horiz-adv-x="614" unicode="&#215;" /><glyph d="M173 441Q216 485 265 503Q314 521 365 521Q412 521 444.5 511.5Q477 502 496.5 482.5Q516 463 524.5 433Q533 403 533 362V0H426V341Q426 392 407 412Q388 432 337 432Q295 432 255 412Q215 392 188 357V0H81V510H156L171 441Z" glyph-name="n" horiz-adv-x="605" unicode="n" /><glyph d="M354 566H261L371 678H504ZM173 441Q216 485 265 503Q314 521 365 521Q412 521 444.5 511.5Q477 502 496.5 482.5Q516 463 524.5 433Q533 403 533 362V0H426V341Q426 392 407 412Q388 432 337 432Q295 432 255 412Q215 392 188 357V0H81V510H156L171 441Z" glyph-name="nacute" horiz-adv-x="605" unicode="&#324;" /><glyph d="M145 680H245L309 615L374 680H474L358 562H260ZM173 441Q216 485 265 503Q314 521 365 521Q412 521 444.5 511.5Q477 502 496.5 482.5Q516 463 524.5 433Q533 403 533 362V0H426V341Q426 392 407 412Q388 432 337 432Q295 432 255 412Q215 392 188 357V0H81V510H156L171 441Z" glyph-name="ncaron" horiz-adv-x="605" unicode="&#328;" /><glyph d="M258 -75H368L282 -258H218ZM173 441Q216 485 265 503Q314 521 365 521Q412 521 444.5 511.5Q477 502 496.5 482.5Q516 463 524.5 433Q533 403 533 362V0H426V341Q426 392 407 412Q388 432 337 432Q295 432 255 412Q215 392 188 357V0H81V510H156L171 441Z" glyph-name="ncommaaccent" horiz-adv-x="605" unicode="&#326;" /><glyph d="M447 310Q432 295 411 282.5Q390 270 366.5 262Q343 254 318.5 249.5Q294 245 272 245Q214 245 172.5 262.5Q131 280 104 310.5Q77 341 64 381.5Q51 422 51 467Q51 514 66.5 555Q82 596 113 626.5Q144 657 191 674.5Q238 692 300 692Q433 692 496.5 605.5Q560 519 560 356Q560 272 543 203.5Q526 135 489.5 86.5Q453 38 394 12Q335 -14 251 -14Q237 -14 218 -13Q199 -12 178 -9Q157 -6 136 -2Q115 2 99 8V92Q137 80 176.5 75.5Q216 71 247 71Q284 71 319.5 80Q355 89 383.5 114.5Q412 140 429.5 187Q447 234 449 310ZM288 336Q333 336 376 357.5Q419 379 444 415Q442 458 432.5 493Q423 528 405 553Q387 578 359.5 592Q332 606 295 606Q226 606 193.5 568.5Q161 531 161 473Q161 443 167.5 417.5Q174 392 188.5 374Q203 356 227.5 346Q252 336 288 336Z" glyph-name="nine" horiz-adv-x="622" unicode="9" /><glyph glyph-name="nonbreakingspace" horiz-adv-x="235" unicode="&#160;" /><glyph glyph-name="nonmarkingreturn" horiz-adv-x="235" /><glyph d="M405 422H583V333H374L331 210H583V121H300L237 -61H142L205 121H52V210H235L278 333H52V422H310L363 576H459Z" glyph-name="notequal" horiz-adv-x="635" unicode="&#8800;" /><glyph d="M173 441Q216 485 265 503Q314 521 365 521Q412 521 444.5 511.5Q477 502 496.5 482.5Q516 463 524.5 433Q533 403 533 362V0H426V341Q426 392 407 412Q388 432 337 432Q295 432 255 412Q215 392 188 357V0H81V510H156L171 441ZM385 658Q408 658 435.5 670Q463 682 483 696V619Q468 606 439.5 594Q411 582 385 582Q363 582 344 587Q325 592 307 598Q289 604 271.5 609Q254 614 236 614Q213 614 184.5 602.5Q156 591 135 577V655Q152 667 181 679.5Q210 692 235 692Q257 692 276 687Q295 682 312.5 675.5Q330 669 347.5 663.5Q365 658 385 658Z" glyph-name="ntilde" horiz-adv-x="605" unicode="&#241;" /><glyph d="M532 178H418L373 0H295L339 178H238L194 0H116L160 178H46L65 249H179L224 431H111L130 503H243L288 678H366L322 503H423L467 678H546L501 503H614L595 431H482L436 249H551ZM257 249H358L404 431H303Z" glyph-name="numbersign" horiz-adv-x="660" unicode="#" /><glyph d="M549 255Q549 177 530.5 125.5Q512 74 478 43Q445 12 399.5 -1Q354 -14 300 -14Q245 -14 199.5 -1Q154 12 121 43Q88 74 69.5 125.5Q51 177 51 255Q51 333 69.5 384.5Q88 436 121 467Q154 499 199.5 511.5Q245 524 300 524Q354 524 399.5 511.5Q445 499 478 467Q512 436 530.5 384.5Q549 333 549 255ZM435 255Q435 314 425 351.5Q415 389 395 409Q377 427 353.5 434Q330 441 300 441Q270 441 246 434Q222 427 205 409Q184 389 174 351.5Q164 314 164 255Q164 196 174 159Q184 122 205 101Q222 84 246 76.5Q270 69 300 69Q330 69 353.5 76.5Q377 84 395 101Q415 122 425 159Q435 196 435 255Z" glyph-name="o" horiz-adv-x="599" unicode="o" /><glyph d="M339 566H246L356 678H489ZM549 255Q549 177 530.5 125.5Q512 74 478 43Q445 12 399.5 -1Q354 -14 300 -14Q245 -14 199.5 -1Q154 12 121 43Q88 74 69.5 125.5Q51 177 51 255Q51 333 69.5 384.5Q88 436 121 467Q154 499 199.5 511.5Q245 524 300 524Q354 524 399.5 511.5Q445 499 478 467Q512 436 530.5 384.5Q549 333 549 255ZM435 255Q435 314 425 351.5Q415 389 395 409Q377 427 353.5 434Q330 441 300 441Q270 441 246 434Q222 427 205 409Q184 389 174 351.5Q164 314 164 255Q164 196 174 159Q184 122 205 101Q222 84 246 76.5Q270 69 300 69Q330 69 353.5 76.5Q377 84 395 101Q415 122 425 159Q435 196 435 255Z" glyph-name="oacute" horiz-adv-x="599" unicode="&#243;" /><glyph d="M549 255Q549 177 530.5 125.5Q512 74 478 43Q445 12 399.5 -1Q354 -14 300 -14Q245 -14 199.5 -1Q154 12 121 43Q88 74 69.5 125.5Q51 177 51 255Q51 333 69.5 384.5Q88 436 121 467Q154 499 199.5 511.5Q245 524 300 524Q354 524 399.5 511.5Q445 499 478 467Q512 436 530.5 384.5Q549 333 549 255ZM435 255Q435 314 425 351.5Q415 389 395 409Q377 427 353.5 434Q330 441 300 441Q270 441 246 434Q222 427 205 409Q184 389 174 351.5Q164 314 164 255Q164 196 174 159Q184 122 205 101Q222 84 246 76.5Q270 69 300 69Q330 69 353.5 76.5Q377 84 395 101Q415 122 425 159Q435 196 435 255ZM300 623Q332 623 358 634.5Q384 646 391 678H479Q468 612 420 584Q372 556 300 556Q229 556 180.5 584.5Q132 613 122 678H209Q217 646 242.5 634.5Q268 623 300 623Z" glyph-name="obreve" horiz-adv-x="599" unicode="&#335;" /><glyph d="M465 564H365L300 628L236 564H136L251 682H350ZM549 255Q549 177 530.5 125.5Q512 74 478 43Q445 12 399.5 -1Q354 -14 300 -14Q245 -14 199.5 -1Q154 12 121 43Q88 74 69.5 125.5Q51 177 51 255Q51 333 69.5 384.5Q88 436 121 467Q154 499 199.5 511.5Q245 524 300 524Q354 524 399.5 511.5Q445 499 478 467Q512 436 530.5 384.5Q549 333 549 255ZM435 255Q435 314 425 351.5Q415 389 395 409Q377 427 353.5 434Q330 441 300 441Q270 441 246 434Q222 427 205 409Q184 389 174 351.5Q164 314 164 255Q164 196 174 159Q184 122 205 101Q222 84 246 76.5Q270 69 300 69Q330 69 353.5 76.5Q377 84 395 101Q415 122 425 159Q435 196 435 255Z" glyph-name="ocircumflex" horiz-adv-x="599" unicode="&#244;" /><glyph d="M250 580H143V675H250ZM458 580H350V675H458ZM549 255Q549 177 530.5 125.5Q512 74 478 43Q445 12 399.5 -1Q354 -14 300 -14Q245 -14 199.5 -1Q154 12 121 43Q88 74 69.5 125.5Q51 177 51 255Q51 333 69.5 384.5Q88 436 121 467Q154 499 199.5 511.5Q245 524 300 524Q354 524 399.5 511.5Q445 499 478 467Q512 436 530.5 384.5Q549 333 549 255ZM435 255Q435 314 425 351.5Q415 389 395 409Q377 427 353.5 434Q330 441 300 441Q270 441 246 434Q222 427 205 409Q184 389 174 351.5Q164 314 164 255Q164 196 174 159Q184 122 205 101Q222 84 246 76.5Q270 69 300 69Q330 69 353.5 76.5Q377 84 395 101Q415 122 425 159Q435 196 435 255Z" glyph-name="odieresis" horiz-adv-x="599" unicode="&#246;" /><glyph d="M708 72Q738 72 781.5 76.5Q825 81 863 94V11Q844 5 821.5 0Q799 -5 776 -8Q753 -11 730 -12.5Q707 -14 688 -14Q616 -14 567.5 4.5Q519 23 490 61Q458 20 410 3Q362 -14 300 -14Q245 -14 199.5 -1Q154 12 121 43Q88 74 69.5 125.5Q51 177 51 255Q51 333 69.5 384.5Q88 436 121 467Q154 499 199.5 511.5Q245 524 300 524Q362 524 410.5 506.5Q459 489 491 447Q523 489 569.5 506.5Q616 524 673 524Q785 524 835 470Q885 416 885 308Q885 297 883.5 273Q882 249 880 232H550Q551 191 558.5 159.5Q566 128 587 107Q606 88 635 80Q664 72 708 72ZM164 255Q164 196 174 159Q184 122 205 101Q222 84 246 76.5Q270 69 300 69Q330 69 353.5 76.5Q377 84 395 101Q415 122 425 159Q435 196 435 255Q435 314 425 351.5Q415 389 395 409Q377 427 353.5 434Q330 441 300 441Q270 441 246 434Q222 427 205 409Q184 389 174 351.5Q164 314 164 255ZM675 441Q651 441 628 435Q605 429 588 412Q558 382 552 311H781Q782 321 782 325.5Q782 330 782 332Q782 359 776.5 380Q771 401 757 415Q743 429 722 435Q701 441 675 441Z" glyph-name="oe" horiz-adv-x="936" unicode="&#339;" /><glyph d="M351 0Q320 -17 306.5 -40Q293 -63 293 -81Q293 -116 335 -116Q350 -116 365.5 -114Q381 -112 400 -106V-167Q382 -175 358 -177Q334 -179 317 -179Q261 -179 234.5 -157Q208 -135 208 -100Q208 -71 225 -44Q242 -17 268 0Z" glyph-name="ogonek" horiz-adv-x="600" unicode="&#731;" /><glyph d="M549 255Q549 177 530.5 125.5Q512 74 478 43Q445 12 399.5 -1Q354 -14 300 -14Q245 -14 199.5 -1Q154 12 121 43Q88 74 69.5 125.5Q51 177 51 255Q51 333 69.5 384.5Q88 436 121 467Q154 499 199.5 511.5Q245 524 300 524Q354 524 399.5 511.5Q445 499 478 467Q512 436 530.5 384.5Q549 333 549 255ZM435 255Q435 314 425 351.5Q415 389 395 409Q377 427 353.5 434Q330 441 300 441Q270 441 246 434Q222 427 205 409Q184 389 174 351.5Q164 314 164 255Q164 196 174 159Q184 122 205 101Q222 84 246 76.5Q270 69 300 69Q330 69 353.5 76.5Q377 84 395 101Q415 122 425 159Q435 196 435 255ZM112 678H245L355 566H262Z" glyph-name="ograve" horiz-adv-x="599" unicode="&#242;" /><glyph d="M247 565H168L277 678H396ZM411 565H331L440 678H560ZM549 255Q549 177 530.5 125.5Q512 74 478 43Q445 12 399.5 -1Q354 -14 300 -14Q245 -14 199.5 -1Q154 12 121 43Q88 74 69.5 125.5Q51 177 51 255Q51 333 69.5 384.5Q88 436 121 467Q154 499 199.5 511.5Q245 524 300 524Q354 524 399.5 511.5Q445 499 478 467Q512 436 530.5 384.5Q549 333 549 255ZM435 255Q435 314 425 351.5Q415 389 395 409Q377 427 353.5 434Q330 441 300 441Q270 441 246 434Q222 427 205 409Q184 389 174 351.5Q164 314 164 255Q164 196 174 159Q184 122 205 101Q222 84 246 76.5Q270 69 300 69Q330 69 353.5 76.5Q377 84 395 101Q415 122 425 159Q435 196 435 255Z" glyph-name="ohungarumlaut" horiz-adv-x="599" unicode="&#337;" /><glyph d="M473 594H127V673H473ZM549 255Q549 177 530.5 125.5Q512 74 478 43Q445 12 399.5 -1Q354 -14 300 -14Q245 -14 199.5 -1Q154 12 121 43Q88 74 69.5 125.5Q51 177 51 255Q51 333 69.5 384.5Q88 436 121 467Q154 499 199.5 511.5Q245 524 300 524Q354 524 399.5 511.5Q445 499 478 467Q512 436 530.5 384.5Q549 333 549 255ZM435 255Q435 314 425 351.5Q415 389 395 409Q377 427 353.5 434Q330 441 300 441Q270 441 246 434Q222 427 205 409Q184 389 174 351.5Q164 314 164 255Q164 196 174 159Q184 122 205 101Q222 84 246 76.5Q270 69 300 69Q330 69 353.5 76.5Q377 84 395 101Q415 122 425 159Q435 196 435 255Z" glyph-name="omacron" horiz-adv-x="599" unicode="&#333;" /><glyph d="M169 0V581L9 580V651L276 684V0Z" glyph-name="one" horiz-adv-x="390" unicode="1" /><glyph d="M682 0H433L430 54Q460 78 489 103Q518 128 541 153.5Q564 179 578 205Q592 231 592 257Q592 277 579.5 290Q567 303 533 303Q515 303 490.5 299.5Q466 296 441 288V350Q461 356 488.5 360.5Q516 365 544 365Q571 365 595.5 359.5Q620 354 638.5 341.5Q657 329 667.5 309Q678 289 678 260Q678 209 646 163Q614 117 548 61V60Q552 60 561.5 60Q571 60 582.5 60.5Q594 61 605.5 61Q617 61 623 61H682ZM86 320V611Q81 611 69 611Q57 611 44.5 610.5Q32 610 20.5 610Q9 610 5 610V664L169 684V320ZM125 0H33L515 678H607Z" glyph-name="onehalf" horiz-adv-x="717" /><glyph d="M86 320V611Q81 611 69 611Q57 611 44.5 610.5Q32 610 20.5 610Q9 610 5 610V664L169 684V320ZM680 0H598V78H430L426 134L555 358H637L517 139V138L605 139L615 246H680V140H720V78H680ZM126 0H34L516 678H608Z" glyph-name="onequarter" horiz-adv-x="731" /><glyph d="M86 320V611Q81 611 69 611Q57 611 44.5 610.5Q32 610 20.5 610Q9 610 5 610V664L169 684V320Z" glyph-name="onesuperior" horiz-adv-x="228" /><glyph d="M214 522Q241 522 271 519V553Q271 568 268.5 578Q266 588 257.5 594Q249 600 233.5 602.5Q218 605 192 605Q171 605 138.5 601Q106 597 63 587V660Q80 665 99.5 668Q119 671 138 673Q157 675 174 676Q191 677 202 677Q245 677 276 672Q307 667 327 653Q347 639 356.5 615Q366 591 366 553V281H295L286 314H284Q264 296 236.5 285.5Q209 275 177 275Q145 275 115.5 282.5Q86 290 66 310Q34 342 34 396Q34 451 64 481Q90 507 131 514.5Q172 522 214 522ZM271 453Q254 455 239.5 455.5Q225 456 218 456Q185 456 168 451.5Q151 447 141 436Q131 426 131 398Q131 368 149 358Q167 348 192 348Q222 348 240.5 358Q259 368 271 384Z" glyph-name="ordfeminine" horiz-adv-x="418" unicode="&#170;" /><glyph d="M38 474Q38 533 52 572Q66 611 92 634Q118 657 152.5 667Q187 677 229 677Q271 677 306 667Q341 657 366 633Q392 610 406 571Q420 532 420 474Q420 416 406 377Q392 338 366 315Q341 291 306 281.5Q271 272 229 272Q187 272 152.5 281.5Q118 291 92 314Q66 337 52 376Q38 415 38 474ZM319 474Q319 517 312 543Q305 569 291 583Q270 605 229 605Q189 605 168 583Q154 569 146.5 543Q139 517 139 474Q139 430 146.5 404Q154 378 169 363Q180 352 195 348Q210 344 229 344Q248 344 263.5 348.5Q279 353 290 364Q305 378 312 404.5Q319 431 319 474Z" glyph-name="ordmasculine" horiz-adv-x="459" unicode="&#186;" /><glyph d="M432 498Q458 486 478 467Q512 436 530.5 384.5Q549 333 549 255Q549 177 530.5 125.5Q512 74 478 43Q445 12 399.5 -1Q354 -14 300 -14Q276 -14 254 -11L237 -62H142L167 11Q144 22 121 43Q88 74 69.5 125.5Q51 177 51 255Q51 333 69.5 384.5Q88 436 121 467Q154 499 199.5 511.5Q245 524 300 524Q323 524 344 521L363 575H459ZM164 255Q164 146 200 106L316 440Q312 441 308 441Q304 441 300 441Q270 441 246 434Q222 427 205 409Q184 389 174 351.5Q164 314 164 255ZM435 255Q435 362 399 404L282 69H300Q330 69 353.5 76.5Q377 84 395 101Q415 122 425 159Q435 196 435 255Z" glyph-name="oslash" horiz-adv-x="599" unicode="&#248;" /><glyph d="M549 255Q549 177 530.5 125.5Q512 74 478 43Q445 12 399.5 -1Q354 -14 300 -14Q245 -14 199.5 -1Q154 12 121 43Q88 74 69.5 125.5Q51 177 51 255Q51 333 69.5 384.5Q88 436 121 467Q154 499 199.5 511.5Q245 524 300 524Q354 524 399.5 511.5Q445 499 478 467Q512 436 530.5 384.5Q549 333 549 255ZM435 255Q435 314 425 351.5Q415 389 395 409Q377 427 353.5 434Q330 441 300 441Q270 441 246 434Q222 427 205 409Q184 389 174 351.5Q164 314 164 255Q164 196 174 159Q184 122 205 101Q222 84 246 76.5Q270 69 300 69Q330 69 353.5 76.5Q377 84 395 101Q415 122 425 159Q435 196 435 255ZM376 658Q399 658 426.5 670Q454 682 474 696V619Q459 606 430.5 594Q402 582 376 582Q354 582 335 587Q316 592 298 598Q280 604 262.5 609Q245 614 227 614Q204 614 175.5 602.5Q147 591 126 577V655Q143 667 172 679.5Q201 692 226 692Q248 692 267 687Q286 682 303.5 675.5Q321 669 338.5 663.5Q356 658 376 658Z" glyph-name="otilde" horiz-adv-x="599" unicode="&#245;" /><glyph d="M188 112Q208 93 240 85Q272 77 300 77Q374 77 406.5 120Q439 163 439 255Q439 306 431 340Q423 374 407.5 394.5Q392 415 368 424Q344 433 311 433Q276 433 244.5 415.5Q213 398 188 366ZM170 452Q204 488 245 504.5Q286 521 328 521Q441 521 497 458Q553 395 553 257Q553 123 489 56Q425 -11 310 -11Q298 -11 282.5 -9.5Q267 -8 250.5 -5Q234 -2 217.5 3.5Q201 9 188 18V-168H81V510H156L169 452Z" glyph-name="p" horiz-adv-x="603" unicode="p" /><glyph d="M295 114H286Q241 114 200 126Q159 138 127 164Q95 190 76 232Q57 274 57 335Q57 397 77 439.5Q97 482 131 508Q165 534 210.5 545.5Q256 557 307 557H555V464H476V-168H361V464H295Z" glyph-name="paragraph" horiz-adv-x="612" unicode="&#182;" /><glyph d="M199 -118Q166 -55 143.5 1.5Q121 58 107.5 110Q94 162 88.5 211Q83 260 83 309Q83 357 88.5 406Q94 455 107 506Q120 557 142 612.5Q164 668 198 730H293Q243 619 220.5 515.5Q198 412 198 309Q198 255 204 203Q210 151 221.5 99.5Q233 48 251 -6Q269 -60 293 -118Z" glyph-name="parenleft" horiz-adv-x="344" unicode="(" /><glyph d="M52 -118Q76 -60 93.5 -6Q111 48 123 99.5Q135 151 140.5 203Q146 255 146 309Q146 412 124 515.5Q102 619 52 730H147Q180 668 202.5 612.5Q225 557 238 506Q251 455 256.5 406Q262 357 262 309Q262 260 256 211Q250 162 236.5 110Q223 58 201 1.5Q179 -55 146 -118Z" glyph-name="parenright" horiz-adv-x="344" unicode=")" /><glyph d="M322 451Q382 451 422 433.5Q462 416 488 387H490Q483 495 429 552Q377 607 289 607Q239 607 195.5 597.5Q152 588 112 571V658Q147 676 195.5 684Q244 692 296 692Q365 692 421.5 670Q478 648 518 603.5Q558 559 580 492Q602 425 602 336Q602 258 589 193Q576 128 544.5 82Q513 36 460.5 10.5Q408 -15 328 -15Q256 -15 207 3.5Q158 22 128 54Q98 86 84.5 128.5Q71 171 71 218Q71 266 84 308Q97 350 126 382Q155 414 203 432.5Q251 451 322 451ZM327 70Q398 70 433.5 109.5Q469 149 469 218Q469 249 461.5 276Q454 303 437.5 323Q421 343 394 354.5Q367 366 327 366Q287 366 259.5 354.5Q232 343 215 323Q198 303 190.5 276Q183 249 183 218Q183 188 190.5 161Q198 134 215 113.5Q232 93 259.5 81.5Q287 70 327 70Z" glyph-name="partialdiff" horiz-adv-x="682" unicode="&#8706;" /><glyph d="M51 509Q51 550 59 583.5Q67 617 86 641Q105 665 137.5 678.5Q170 692 219 692Q268 692 301 678.5Q334 665 353 641Q372 617 380 583.5Q388 550 388 509Q388 468 380 434Q372 400 353 376Q334 352 301 338.5Q268 325 219 325Q170 325 137.5 338.5Q105 352 86 376Q67 400 59 434Q51 468 51 509ZM301 509Q301 533 298.5 554Q296 575 287 590.5Q278 606 262 615Q246 624 219 624Q192 624 176 615Q160 606 151.5 590.5Q143 575 140.5 554Q138 533 138 509Q138 485 140.5 464Q143 443 151.5 427.5Q160 412 176 403Q192 394 219 394Q246 394 262 403Q278 412 287 427.5Q296 443 298.5 464Q301 485 301 509ZM735 678 253 0H161L643 678ZM843 170Q843 129 835 95Q827 61 808 37Q789 13 756 -0.5Q723 -14 674 -14Q625 -14 592.5 -0.5Q560 13 540.5 37Q521 61 513 95Q505 129 505 170Q505 211 513 245Q521 279 540.5 303Q560 327 592.5 340.5Q625 354 674 354Q723 354 756 340.5Q789 327 808 303Q827 279 835 245Q843 211 843 170ZM593 170Q593 146 595.5 125Q598 104 606.5 88.5Q615 73 631 64Q647 55 674 55Q701 55 717 64Q733 73 742 88.5Q751 104 753.5 125Q756 146 756 170Q756 194 753.5 215Q751 236 742 251.5Q733 267 717 276Q701 285 674 285Q647 285 631 276Q615 267 606.5 251.5Q598 236 595.5 215Q593 194 593 170Z" glyph-name="percent" horiz-adv-x="893" unicode="%" /><glyph d="M209 0H79V122H209Z" glyph-name="period" horiz-adv-x="288" unicode="." /><glyph d="M209 208H79V330H209Z" glyph-name="periodcentered" horiz-adv-x="288" unicode="&#183;" /><glyph d="M51 509Q51 550 59 583.5Q67 617 86 641Q105 665 137.5 678.5Q170 692 219 692Q268 692 301 678.5Q334 665 353 641Q372 617 380 583.5Q388 550 388 509Q388 468 380 434Q372 400 353 376Q334 352 301 338.5Q268 325 219 325Q170 325 137.5 338.5Q105 352 86 376Q67 400 59 434Q51 468 51 509ZM734 678 253 0H161L642 678ZM301 509Q301 533 298.5 554Q296 575 287 590.5Q278 606 262 615Q246 624 219 624Q192 624 176 615Q160 606 151.5 590.5Q143 575 140.5 554Q138 533 138 509Q138 485 140.5 464Q143 443 151.5 427.5Q160 412 176 403Q192 394 219 394Q246 394 262 403Q278 412 287 427.5Q296 443 298.5 464Q301 485 301 509ZM842 170Q842 129 834 95Q826 61 807 37Q788 13 755.5 -0.5Q723 -14 674 -14Q624 -14 591.5 -0.5Q559 13 540 37Q521 61 513 95Q505 129 505 170Q505 211 513 245Q521 279 540 303Q559 327 591.5 340.5Q624 354 674 354Q723 354 755.5 340.5Q788 327 807 303Q826 279 834 245Q842 211 842 170ZM592 170Q592 146 594.5 125Q597 104 606 88.5Q615 73 631 64Q647 55 674 55Q701 55 717 64Q733 73 741.5 88.5Q750 104 752.5 125Q755 146 755 170Q755 194 752.5 215Q750 236 741.5 251.5Q733 267 717 276Q701 285 674 285Q647 285 631 276Q615 267 606 251.5Q597 236 594.5 215Q592 194 592 170ZM1234 169Q1234 128 1226 94Q1218 60 1199 36Q1180 12 1147 -1.5Q1114 -15 1065 -15Q1016 -15 983.5 -1.5Q951 12 931.5 36Q912 60 904 94Q896 128 896 169Q896 210 904 244Q912 278 931.5 302Q951 326 983.5 339.5Q1016 353 1065 353Q1114 353 1147 339.5Q1180 326 1199 302Q1218 278 1226 244Q1234 210 1234 169ZM984 169Q984 145 986.5 124Q989 103 997.5 87.5Q1006 72 1022 63Q1038 54 1065 54Q1092 54 1108 63Q1124 72 1133 87.5Q1142 103 1144.5 124Q1147 145 1147 169Q1147 193 1144.5 214Q1142 235 1133 250.5Q1124 266 1108 275Q1092 284 1065 284Q1038 284 1022 275Q1006 266 997.5 250.5Q989 235 986.5 214Q984 193 984 169Z" glyph-name="perthousand" horiz-adv-x="1284" unicode="&#8240;" /><glyph d="M554 226H353V28H252V226H52V315H252V514H353V315H554Z" glyph-name="plus" horiz-adv-x="605" unicode="+" /><glyph d="M539 332H346V175H244V332H52V421H244V578H346V421H539ZM539 0H52V89H539Z" glyph-name="plusminus" horiz-adv-x="590" unicode="&#177;" /><glyph d="M609 0H502V594H271V0H164V594H59V678H713V594H609Z" glyph-name="product" horiz-adv-x="772" unicode="&#8719;" /><glyph d="M440 476 453 510H523V-168H416V44H414Q382 15 347 2Q312 -11 275 -11Q163 -11 107 53Q51 117 51 255Q51 389 114.5 455Q178 521 293 521Q323 521 364 511.5Q405 502 438 476ZM416 396Q393 416 363.5 424.5Q334 433 303 433Q229 433 197 390.5Q165 348 165 255Q165 205 173 171Q181 137 196.5 116Q212 95 236 86Q260 77 293 77Q328 77 359 95Q390 113 416 144Z" glyph-name="q" horiz-adv-x="603" unicode="q" /><glyph d="M105 225 101 378Q127 380 165 384.5Q203 389 238.5 401.5Q274 414 299 437.5Q324 461 324 501Q324 551 288.5 576Q253 601 184 601Q175 601 158 600Q141 599 121 596Q101 593 80 589Q59 585 42 579V668Q85 682 131 687Q177 692 209 692Q331 692 387.5 640.5Q444 589 444 505Q444 458 423.5 423Q403 388 369 363.5Q335 339 291.5 324.5Q248 310 203 303L200 225ZM219 0H88V122H219Z" glyph-name="question" horiz-adv-x="482" unicode="?" /><glyph d="M376 285 380 132Q354 130 316 125.5Q278 121 242.5 108.5Q207 96 182 72.5Q157 49 157 9Q157 -41 192.5 -66Q228 -91 297 -91Q306 -91 323 -90Q340 -89 360 -86Q380 -83 401 -79Q422 -75 439 -69V-158Q396 -172 350 -177Q304 -182 272 -182Q150 -182 93.5 -130.5Q37 -79 37 5Q37 52 57.5 87Q78 122 112 146.5Q146 171 189.5 185.5Q233 200 278 207L281 285ZM262 510H393V388H262Z" glyph-name="questiondown" horiz-adv-x="462" unicode="&#191;" /><glyph d="M313 414H246L230 678H329ZM145 414H78L62 678H161Z" glyph-name="quotedbl" horiz-adv-x="391" unicode="&quot;" /><glyph d="M117 118H251L138 -147H55ZM327 118H461L348 -147H265Z" glyph-name="quotedblbase" horiz-adv-x="490" unicode="&#8222;" /><glyph d="M374 414H240L353 678H436ZM163 414H30L143 678H226Z" glyph-name="quotedblleft" horiz-adv-x="491" unicode="&#8220;" /><glyph d="M117 678H251L138 414H55ZM327 678H461L348 414H265Z" glyph-name="quotedblright" horiz-adv-x="490" unicode="&#8221;" /><glyph d="M163 414H30L143 678H226Z" glyph-name="quoteleft" horiz-adv-x="280" unicode="&#8216;" /><glyph d="M117 678H251L138 414H55Z" glyph-name="quoteright" horiz-adv-x="280" unicode="&#8217;" /><glyph d="M117 136H251L138 -129H55Z" glyph-name="quotesinglbase" horiz-adv-x="280" unicode="&#8218;" /><glyph d="M145 414H78L62 678H161Z" glyph-name="quotesingle" horiz-adv-x="222" unicode="&apos;" /><glyph d="M172 436Q195 472 228 496Q261 520 312 520Q332 520 350.5 516.5Q369 513 385 505V420Q365 428 348 430Q331 432 320 432Q294 432 274 425Q254 418 238 405.5Q222 393 210 376.5Q198 360 188 342V0H81V510H156L171 436Z" glyph-name="r" horiz-adv-x="390" unicode="r" /><glyph d="M268 566H175L285 678H418ZM172 436Q195 472 228 496Q261 520 312 520Q332 520 350.5 516.5Q369 513 385 505V420Q365 428 348 430Q331 432 320 432Q294 432 274 425Q254 418 238 405.5Q222 393 210 376.5Q198 360 188 342V0H81V510H156L171 436Z" glyph-name="racute" horiz-adv-x="390" unicode="&#341;" /><glyph d="M28 450 197 487 255 236Q258 221 262 203.5Q266 186 269 169.5Q272 153 274.5 139.5Q277 126 278 119H280Q283 126 289 140Q295 154 303 170.5Q311 187 319.5 204Q328 221 336 235L590 678H708L307 -8H214L112 386Q107 385 95 382.5Q83 380 69.5 377Q56 374 44 371.5Q32 369 28 368Z" glyph-name="radical" horiz-adv-x="707" unicode="&#8730;" /><glyph d="M68 680H168L232 615L297 680H397L281 562H183ZM172 436Q195 472 228 496Q261 520 312 520Q332 520 350.5 516.5Q369 513 385 505V420Q365 428 348 430Q331 432 320 432Q294 432 274 425Q254 418 238 405.5Q222 393 210 376.5Q198 360 188 342V0H81V510H156L171 436Z" glyph-name="rcaron" horiz-adv-x="390" unicode="&#345;" /><glyph d="M79 -75H189L103 -258H39ZM172 436Q195 472 228 496Q261 520 312 520Q332 520 350.5 516.5Q369 513 385 505V420Q365 428 348 430Q331 432 320 432Q294 432 274 425Q254 418 238 405.5Q222 393 210 376.5Q198 360 188 342V0H81V510H156L171 436Z" glyph-name="rcommaaccent" horiz-adv-x="390" unicode="&#343;" /><glyph d="M805 338Q805 169 708.5 77.5Q612 -14 435 -14Q347 -14 278.5 10Q210 34 162.5 79Q115 124 90.5 189.5Q66 255 66 338Q66 421 90.5 487Q115 553 162 598.5Q209 644 277.5 668Q346 692 435 692Q523 692 592 668.5Q661 645 708 599.5Q755 554 780 488Q805 422 805 338ZM151 338Q151 208 221 133.5Q291 59 435 59Q579 59 649 132.5Q719 206 719 338Q719 470 649 544.5Q579 619 435 619Q362 619 308.5 599.5Q255 580 220 543.5Q185 507 168 455Q151 403 151 338ZM582 168H501L443 285H380V168H303V516H445Q480 516 507 511Q534 506 552 493Q570 480 579 458Q588 436 588 402Q588 379 581.5 361Q575 343 564.5 329.5Q554 316 541 308Q528 300 515 297ZM453 345Q485 345 497 356.5Q509 368 509 403Q509 429 497 442.5Q485 456 453 456H381V345Z" glyph-name="registered" horiz-adv-x="870" unicode="&#174;" /><glyph d="M335 637Q335 669 300 669Q264 669 264 637Q264 606 300 606Q335 606 335 637ZM396 637Q396 595 371.5 577.5Q347 560 300 560Q254 560 228.5 577.5Q203 595 203 637Q203 678 228.5 695.5Q254 713 300 713Q347 713 371.5 695.5Q396 678 396 637Z" glyph-name="ring" horiz-adv-x="600" unicode="&#730;" /><glyph d="M228 76Q300 76 330 93.5Q360 111 360 145Q360 169 351.5 182.5Q343 196 328 202.5Q313 209 292 210.5Q271 212 247 212Q212 213 177.5 218.5Q143 224 115.5 240.5Q88 257 71 287.5Q54 318 54 371Q54 414 71 443.5Q88 473 118 491Q148 509 188.5 516.5Q229 524 276 524Q287 524 305.5 523Q324 522 345 520Q366 518 387 514.5Q408 511 425 505V422Q383 433 341.5 436.5Q300 440 276 440Q220 440 191 424Q162 408 162 375Q162 352 171 339.5Q180 327 195 321Q210 315 230 314Q250 313 272 312Q305 311 340 306Q375 301 403.5 284.5Q432 268 450 237Q468 206 468 152Q468 108 450 77Q432 46 399.5 25.5Q367 5 323 -4.5Q279 -14 228 -14Q217 -14 198 -13Q179 -12 155.5 -9Q132 -6 107 -1Q82 4 61 11V99Q82 93 106 88.5Q130 84 153 81Q176 78 195.5 77Q215 76 228 76Z" glyph-name="s" horiz-adv-x="502" unicode="s" /><glyph d="M296 566H203L313 678H446ZM228 76Q300 76 330 93.5Q360 111 360 145Q360 169 351.5 182.5Q343 196 328 202.5Q313 209 292 210.5Q271 212 247 212Q212 213 177.5 218.5Q143 224 115.5 240.5Q88 257 71 287.5Q54 318 54 371Q54 414 71 443.5Q88 473 118 491Q148 509 188.5 516.5Q229 524 276 524Q287 524 305.5 523Q324 522 345 520Q366 518 387 514.5Q408 511 425 505V422Q383 433 341.5 436.5Q300 440 276 440Q220 440 191 424Q162 408 162 375Q162 352 171 339.5Q180 327 195 321Q210 315 230 314Q250 313 272 312Q305 311 340 306Q375 301 403.5 284.5Q432 268 450 237Q468 206 468 152Q468 108 450 77Q432 46 399.5 25.5Q367 5 323 -4.5Q279 -14 228 -14Q217 -14 198 -13Q179 -12 155.5 -9Q132 -6 107 -1Q82 4 61 11V99Q82 93 106 88.5Q130 84 153 81Q176 78 195.5 77Q215 76 228 76Z" glyph-name="sacute" horiz-adv-x="502" unicode="&#347;" /><glyph d="M91 680H191L255 615L320 680H420L304 562H206ZM228 76Q300 76 330 93.5Q360 111 360 145Q360 169 351.5 182.5Q343 196 328 202.5Q313 209 292 210.5Q271 212 247 212Q212 213 177.5 218.5Q143 224 115.5 240.5Q88 257 71 287.5Q54 318 54 371Q54 414 71 443.5Q88 473 118 491Q148 509 188.5 516.5Q229 524 276 524Q287 524 305.5 523Q324 522 345 520Q366 518 387 514.5Q408 511 425 505V422Q383 433 341.5 436.5Q300 440 276 440Q220 440 191 424Q162 408 162 375Q162 352 171 339.5Q180 327 195 321Q210 315 230 314Q250 313 272 312Q305 311 340 306Q375 301 403.5 284.5Q432 268 450 237Q468 206 468 152Q468 108 450 77Q432 46 399.5 25.5Q367 5 323 -4.5Q279 -14 228 -14Q217 -14 198 -13Q179 -12 155.5 -9Q132 -6 107 -1Q82 4 61 11V99Q82 93 106 88.5Q130 84 153 81Q176 78 195.5 77Q215 76 228 76Z" glyph-name="scaron" horiz-adv-x="502" unicode="&#353;" /><glyph d="M218 -14Q205 -14 186 -12.5Q167 -11 145.5 -8Q124 -5 102 0Q80 5 61 11V99Q82 93 106 88.5Q130 84 153 81Q176 78 195.5 77Q215 76 228 76Q300 76 330 93.5Q360 111 360 145Q360 169 351.5 182.5Q343 196 328 202.5Q313 209 292 210.5Q271 212 247 212Q212 213 177.5 218.5Q143 224 115.5 240.5Q88 257 71 287.5Q54 318 54 371Q54 414 71 443.5Q88 473 118 491Q148 509 188.5 516.5Q229 524 276 524Q287 524 305.5 523Q324 522 345 520Q366 518 387 514.5Q408 511 425 505V422Q383 433 341.5 436.5Q300 440 276 440Q220 440 191 424Q162 408 162 375Q162 352 171 339.5Q180 327 195 321Q210 315 230 314Q250 313 272 312Q305 311 340 306Q375 301 403.5 284.5Q432 268 450 237Q468 206 468 152Q468 82 422.5 43Q377 4 304 -8L291 -40Q324 -51 338 -67Q352 -83 352 -104Q352 -141 318.5 -160Q285 -179 222 -179Q205 -179 184.5 -177Q164 -175 138 -167V-106Q161 -114 179 -116Q197 -118 209 -118Q258 -118 258 -96Q258 -84 243 -78.5Q228 -73 210 -72L204 -46Z" glyph-name="scedilla" horiz-adv-x="502" unicode="&#351;" /><glyph d="M421 564H321L256 628L192 564H92L207 682H306ZM228 76Q300 76 330 93.5Q360 111 360 145Q360 169 351.5 182.5Q343 196 328 202.5Q313 209 292 210.5Q271 212 247 212Q212 213 177.5 218.5Q143 224 115.5 240.5Q88 257 71 287.5Q54 318 54 371Q54 414 71 443.5Q88 473 118 491Q148 509 188.5 516.5Q229 524 276 524Q287 524 305.5 523Q324 522 345 520Q366 518 387 514.5Q408 511 425 505V422Q383 433 341.5 436.5Q300 440 276 440Q220 440 191 424Q162 408 162 375Q162 352 171 339.5Q180 327 195 321Q210 315 230 314Q250 313 272 312Q305 311 340 306Q375 301 403.5 284.5Q432 268 450 237Q468 206 468 152Q468 108 450 77Q432 46 399.5 25.5Q367 5 323 -4.5Q279 -14 228 -14Q217 -14 198 -13Q179 -12 155.5 -9Q132 -6 107 -1Q82 4 61 11V99Q82 93 106 88.5Q130 84 153 81Q176 78 195.5 77Q215 76 228 76Z" glyph-name="scircumflex" horiz-adv-x="502" unicode="&#349;" /><glyph d="M207 -75H317L231 -258H167ZM228 76Q300 76 330 93.5Q360 111 360 145Q360 169 351.5 182.5Q343 196 328 202.5Q313 209 292 210.5Q271 212 247 212Q212 213 177.5 218.5Q143 224 115.5 240.5Q88 257 71 287.5Q54 318 54 371Q54 414 71 443.5Q88 473 118 491Q148 509 188.5 516.5Q229 524 276 524Q287 524 305.5 523Q324 522 345 520Q366 518 387 514.5Q408 511 425 505V422Q383 433 341.5 436.5Q300 440 276 440Q220 440 191 424Q162 408 162 375Q162 352 171 339.5Q180 327 195 321Q210 315 230 314Q250 313 272 312Q305 311 340 306Q375 301 403.5 284.5Q432 268 450 237Q468 206 468 152Q468 108 450 77Q432 46 399.5 25.5Q367 5 323 -4.5Q279 -14 228 -14Q217 -14 198 -13Q179 -12 155.5 -9Q132 -6 107 -1Q82 4 61 11V99Q82 93 106 88.5Q130 84 153 81Q176 78 195.5 77Q215 76 228 76Z" glyph-name="scommaaccent" horiz-adv-x="502" unicode="&#537;" /><glyph d="M472 279Q472 242 460 215.5Q448 189 428 166Q446 151 459 121Q472 91 472 52Q472 1 454 -33.5Q436 -68 403.5 -90Q371 -112 327.5 -121.5Q284 -131 233 -131Q222 -131 202.5 -130Q183 -129 159.5 -126Q136 -123 111 -118Q86 -113 65 -106V-18Q86 -24 110 -28.5Q134 -33 157 -36Q180 -39 200 -40Q220 -41 233 -41Q305 -41 334.5 -22Q364 -3 364 46Q364 60 359.5 73Q355 86 347 94Q331 111 303 119Q275 127 243 133Q211 139 178 147Q145 155 118.5 171.5Q92 188 75 216Q58 244 58 291Q58 332 72 359.5Q86 387 107 404Q85 422 71.5 450Q58 478 58 519Q58 568 75.5 601Q93 634 123.5 654.5Q154 675 194.5 683.5Q235 692 281 692Q291 692 309.5 691Q328 690 349 688Q370 686 391 682.5Q412 679 429 673V590Q387 601 346 604.5Q305 608 281 608Q225 608 196 590.5Q167 573 167 526Q167 512 171.5 499Q176 486 186 477Q200 463 227 455.5Q254 448 286 441.5Q318 435 351 426.5Q384 418 411 401Q438 384 455 355Q472 326 472 279ZM365 272Q365 300 350 316Q335 332 310.5 340.5Q286 349 256 354Q226 359 196 366Q166 343 166 297Q166 271 182 257Q198 243 223.5 234.5Q249 226 280 220.5Q311 215 342 208Q365 231 365 272Z" glyph-name="section" horiz-adv-x="530" unicode="&#167;" /><glyph d="M222 388H91V510H222ZM92 136H226L113 -129H30Z" glyph-name="semicolon" horiz-adv-x="288" unicode=";" /><glyph d="M228 0H110L256 354Q261 366 275 400.5Q289 435 305.5 474Q322 513 336 547.5Q350 582 355 593L354 595Q348 595 323.5 595Q299 595 272 594.5Q245 594 223 594Q201 594 199 594H27V678H466L471 601Z" glyph-name="seven" horiz-adv-x="494" unicode="7" /><glyph d="M176 368Q191 383 212 395.5Q233 408 256.5 416Q280 424 304 428.5Q328 433 350 433Q408 433 450 415.5Q492 398 519 368Q546 338 559 297.5Q572 257 572 211Q572 164 556.5 123Q541 82 509.5 51.5Q478 21 431 3.5Q384 -14 322 -14Q190 -14 126.5 72.5Q63 159 63 323Q63 407 80 475Q97 543 133.5 591.5Q170 640 228.5 666Q287 692 371 692Q385 692 404.5 691Q424 690 445 687Q466 684 486.5 680Q507 676 523 670V586Q485 598 446 602.5Q407 607 375 607Q338 607 302.5 598Q267 589 238.5 563.5Q210 538 192.5 491.5Q175 445 174 369ZM334 342Q311 342 288.5 336Q266 330 245.5 319.5Q225 309 207.5 294.5Q190 280 179 263Q182 178 217.5 125.5Q253 73 327 73Q396 73 428.5 110Q461 147 461 205Q461 235 454.5 260.5Q448 286 433.5 304Q419 322 394.5 332Q370 342 334 342Z" glyph-name="six" horiz-adv-x="622" unicode="6" /><glyph d="M83 -85H-16L278 763H376Z" glyph-name="slash" horiz-adv-x="360" unicode="/" /><glyph glyph-name="space" horiz-adv-x="235" unicode=" " /><glyph d="M298 188 292 122Q320 106 356.5 97Q393 88 433 88Q467 88 506 94.5Q545 101 577 114V24Q562 17 542.5 11.5Q523 6 502 2Q481 -2 460.5 -4Q440 -6 422 -6Q377 -6 332 3.5Q287 13 253 30Q223 -2 169 -2Q147 -2 128 1.5Q109 5 101 7V83Q112 84 124.5 86Q137 88 148 92.5Q159 97 166.5 105.5Q174 114 176 129L192 301H123V390H199L206 455Q212 514 225.5 558.5Q239 603 264 632.5Q289 662 327.5 677Q366 692 422 692Q501 692 566 668V579Q528 593 495.5 597Q463 601 435 601Q405 601 385 592.5Q365 584 352.5 565Q340 546 333 515.5Q326 485 322 441L317 390H472V301H310Z" glyph-name="sterling" horiz-adv-x="660" unicode="&#163;" /><glyph d="M540 678V594H327Q307 594 274.5 594.5Q242 595 216 596V594L449 373V322L195 84V82Q221 83 252.5 83.5Q284 84 306 84H563V0H49V75L339 348L73 604V678Z" glyph-name="summation" horiz-adv-x="604" unicode="&#8721;" /><glyph d="M388 11Q361 0 325.5 -4.5Q290 -9 260 -9Q218 -9 189.5 -1Q161 7 144 27.5Q127 48 119.5 82Q112 116 112 169V429H26V500L121 511L148 624H220V510H383V429H219V170Q219 142 222 124Q225 106 233.5 96Q242 86 257.5 82Q273 78 297 78Q305 78 317 79Q329 80 341.5 82Q354 84 366.5 87Q379 90 388 94Z" glyph-name="t" horiz-adv-x="412" unicode="t" /><glyph d="M388 11Q361 0 325.5 -4.5Q290 -9 260 -9Q218 -9 189.5 -1Q161 7 144 27.5Q127 48 119.5 82Q112 116 112 169V235H45V309H112V429H26V500L121 511L148 624H220V510H383V429H219V309H345V235H219V170Q219 142 222 124Q225 106 233.5 96Q242 86 257.5 82Q273 78 297 78Q305 78 317 79Q329 80 341.5 82Q354 84 366.5 87Q379 90 388 94Z" glyph-name="tbar" horiz-adv-x="412" unicode="&#359;" /><glyph d="M336 747H447L361 565H297ZM388 11Q361 0 325.5 -4.5Q290 -9 260 -9Q218 -9 189.5 -1Q161 7 144 27.5Q127 48 119.5 82Q112 116 112 169V429H26V500L121 511L148 624H220V510H383V429H219V170Q219 142 222 124Q225 106 233.5 96Q242 86 257.5 82Q273 78 297 78Q305 78 317 79Q329 80 341.5 82Q354 84 366.5 87Q379 90 388 94Z" glyph-name="tcaron" horiz-adv-x="412" unicode="&#357;" /><glyph d="M187 -75H297L211 -258H147ZM388 11Q361 0 325.5 -4.5Q290 -9 260 -9Q218 -9 189.5 -1Q161 7 144 27.5Q127 48 119.5 82Q112 116 112 169V429H26V500L121 511L148 624H220V510H383V429H219V170Q219 142 222 124Q225 106 233.5 96Q242 86 257.5 82Q273 78 297 78Q305 78 317 79Q329 80 341.5 82Q354 84 366.5 87Q379 90 388 94Z" glyph-name="tcommaaccent" horiz-adv-x="412" unicode="&#355;" /><glyph d="M81 678H188V466H189Q217 495 254.5 508Q292 521 331 521Q448 521 500.5 453.5Q553 386 553 257Q553 126 490.5 57.5Q428 -11 311 -11Q269 -11 236.5 -1Q204 9 189 18H188V-168H81ZM188 112Q208 93 240 85Q272 77 300 77Q374 77 406.5 120Q439 163 439 255Q439 306 431 340Q423 374 407.5 394.5Q392 415 368 424Q344 433 311 433Q276 433 244.5 415.5Q213 398 188 366Z" glyph-name="thorn" horiz-adv-x="603" unicode="&#254;" /><glyph d="M406 350Q428 339 446.5 325.5Q465 312 479 293Q493 274 501 250Q509 226 509 195Q509 138 487.5 98.5Q466 59 430 34Q394 9 346 -1.5Q298 -12 245 -12Q227 -12 204.5 -10Q182 -8 158 -4.5Q134 -1 110.5 4Q87 9 66 16V102Q88 95 112.5 90.5Q137 86 160.5 83Q184 80 205.5 78.5Q227 77 243 77Q268 77 295.5 81Q323 85 345.5 98Q368 111 382.5 134Q397 157 397 194Q397 221 389.5 240Q382 259 368 272Q349 292 323.5 298.5Q298 305 272 305H156V388H269Q293 388 316.5 395Q340 402 358 420Q387 449 387 498Q387 521 380.5 541Q374 561 358.5 576Q343 591 316.5 599.5Q290 608 250 608Q234 608 213.5 606.5Q193 605 171.5 602Q150 599 128 595Q106 591 87 587V670Q105 676 128 680Q151 684 175 687Q199 690 222.5 691.5Q246 693 267 693Q376 693 438 646Q500 599 500 515Q500 458 475.5 418.5Q451 379 406 352Z" glyph-name="three" horiz-adv-x="576" unicode="3" /><glyph d="M239 504Q259 493 273 474Q287 455 287 426Q287 396 275 374.5Q263 353 242.5 339.5Q222 326 195.5 319.5Q169 313 139 313Q119 313 89.5 317.5Q60 322 34 331V394Q65 384 93.5 380.5Q122 377 138 377Q161 377 181 387Q201 397 201 427Q201 440 199 447.5Q197 455 192 460Q184 468 175 470Q166 472 156 472H80V532H152Q161 532 170 534.5Q179 537 186 544Q197 555 197 577Q197 596 186 610Q175 624 141 624Q124 624 97 620Q70 616 45 608V670Q68 678 97 681.5Q126 685 149 685Q212 685 247 659Q282 633 282 587Q282 560 270.5 539.5Q259 519 239 505ZM774 0H692V78H524L520 134L649 358H731L611 139V138L699 139L709 246H774V140H814V78H774ZM224 0H132L614 678H706Z" glyph-name="threequarters" horiz-adv-x="825" /><glyph d="M239 504Q259 493 273 474Q287 455 287 426Q287 396 275 374.5Q263 353 242.5 339.5Q222 326 195.5 319.5Q169 313 139 313Q119 313 89.5 317.5Q60 322 34 331V394Q65 384 93.5 380.5Q122 377 138 377Q161 377 181 387Q201 397 201 427Q201 440 199 447.5Q197 455 192 460Q184 468 175 470Q166 472 156 472H80V532H152Q161 532 170 534.5Q179 537 186 544Q197 555 197 577Q197 596 186 610Q175 624 141 624Q124 624 97 620Q70 616 45 608V670Q68 678 97 681.5Q126 685 149 685Q212 685 247 659Q282 633 282 587Q282 560 270.5 539.5Q259 519 239 505Z" glyph-name="threesuperior" horiz-adv-x="322" /><glyph d="M387 658Q410 658 437.5 670Q465 682 485 696V619Q470 606 441.5 594Q413 582 387 582Q365 582 346 587Q327 592 309 598Q291 604 273.5 609Q256 614 238 614Q215 614 186.5 602.5Q158 591 137 577V655Q154 667 183 679.5Q212 692 237 692Q259 692 278 687Q297 682 314.5 675.5Q332 669 349.5 663.5Q367 658 387 658Z" glyph-name="tilde" horiz-adv-x="600" unicode="&#732;" /><glyph d="M415 434 382 510Q373 531 361 561Q349 591 340 616H338Q340 582 341 548Q342 514 342 480V373H282V678H371L444 498H446L519 678H608V373H546V480Q546 514 547 548Q548 582 550 616H547Q538 591 526.5 561Q515 531 506 510L472 434ZM159 373H100V628H11V678H251V628H159Z" glyph-name="trademark" horiz-adv-x="658" unicode="&#8482;" /><glyph d="M490 0H53L48 85Q115 137 173.5 188Q232 239 275.5 289.5Q319 340 344 391.5Q369 443 369 496Q369 521 361.5 541.5Q354 562 337.5 576.5Q321 591 294 599Q267 607 227 607Q212 607 191.5 605.5Q171 604 149 601Q127 598 106 594Q85 590 69 586V669Q101 678 147.5 685Q194 692 244 692Q295 692 338.5 682Q382 672 414 649.5Q446 627 464 590.5Q482 554 482 501Q482 395 406 295.5Q330 196 191 87V85Q203 86 227.5 86.5Q252 87 278 87Q304 87 327 87Q350 87 358 87H490Z" glyph-name="two" horiz-adv-x="555" unicode="2" /><glyph d="M274 320H25L22 374Q52 398 81 423Q110 448 133 473.5Q156 499 170 525Q184 551 184 577Q184 597 171.5 610Q159 623 125 623Q107 623 82.5 619.5Q58 616 33 608V670Q53 676 80.5 680.5Q108 685 136 685Q163 685 187.5 679.5Q212 674 230.5 661.5Q249 649 259.5 629Q270 609 270 580Q270 529 238 483Q206 437 140 381V380Q144 380 153.5 380Q163 380 174.5 380.5Q186 381 197.5 381Q209 381 215 381H274Z" glyph-name="twosuperior" horiz-adv-x="309" /><glyph d="M432 70Q389 25 340 7Q291 -11 240 -11Q193 -11 160.5 -1Q128 9 108.5 29Q89 49 80.5 79.5Q72 110 72 151V510H179V169Q179 118 198 98Q217 78 268 78Q310 78 350 98.5Q390 119 417 153V510H524V0H449L434 70Z" glyph-name="u" horiz-adv-x="605" unicode="u" /><glyph d="M337 566H244L354 678H487ZM432 70Q389 25 340 7Q291 -11 240 -11Q193 -11 160.5 -1Q128 9 108.5 29Q89 49 80.5 79.5Q72 110 72 151V510H179V169Q179 118 198 98Q217 78 268 78Q310 78 350 98.5Q390 119 417 153V510H524V0H449L434 70Z" glyph-name="uacute" horiz-adv-x="605" unicode="&#250;" /><glyph d="M432 70Q389 25 340 7Q291 -11 240 -11Q193 -11 160.5 -1Q128 9 108.5 29Q89 49 80.5 79.5Q72 110 72 151V510H179V169Q179 118 198 98Q217 78 268 78Q310 78 350 98.5Q390 119 417 153V510H524V0H449L434 70ZM300 623Q332 623 358 634.5Q384 646 391 678H479Q468 612 420 584Q372 556 300 556Q229 556 180.5 584.5Q132 613 122 678H209Q217 646 242.5 634.5Q268 623 300 623Z" glyph-name="ubreve" horiz-adv-x="605" unicode="&#365;" /><glyph d="M463 564H363L298 628L234 564H134L249 682H348ZM432 70Q389 25 340 7Q291 -11 240 -11Q193 -11 160.5 -1Q128 9 108.5 29Q89 49 80.5 79.5Q72 110 72 151V510H179V169Q179 118 198 98Q217 78 268 78Q310 78 350 98.5Q390 119 417 153V510H524V0H449L434 70Z" glyph-name="ucircumflex" horiz-adv-x="605" unicode="&#251;" /><glyph d="M248 580H141V675H248ZM456 580H348V675H456ZM432 70Q389 25 340 7Q291 -11 240 -11Q193 -11 160.5 -1Q128 9 108.5 29Q89 49 80.5 79.5Q72 110 72 151V510H179V169Q179 118 198 98Q217 78 268 78Q310 78 350 98.5Q390 119 417 153V510H524V0H449L434 70Z" glyph-name="udieresis" horiz-adv-x="605" unicode="&#252;" /><glyph d="M432 70Q389 25 340 7Q291 -11 240 -11Q193 -11 160.5 -1Q128 9 108.5 29Q89 49 80.5 79.5Q72 110 72 151V510H179V169Q179 118 198 98Q217 78 268 78Q310 78 350 98.5Q390 119 417 153V510H524V0H449L434 70ZM114 678H247L357 566H264Z" glyph-name="ugrave" horiz-adv-x="605" unicode="&#249;" /><glyph d="M432 70Q389 25 340 7Q291 -11 240 -11Q193 -11 160.5 -1Q128 9 108.5 29Q89 49 80.5 79.5Q72 110 72 151V510H179V169Q179 118 198 98Q217 78 268 78Q310 78 350 98.5Q390 119 417 153V510H524V0H449L434 70ZM245 565H166L275 678H394ZM409 565H329L438 678H558Z" glyph-name="uhungarumlaut" horiz-adv-x="605" unicode="&#369;" /><glyph d="M432 70Q389 25 340 7Q291 -11 240 -11Q193 -11 160.5 -1Q128 9 108.5 29Q89 49 80.5 79.5Q72 110 72 151V510H179V169Q179 118 198 98Q217 78 268 78Q310 78 350 98.5Q390 119 417 153V510H524V0H449L434 70ZM471 594H125V673H471Z" glyph-name="umacron" horiz-adv-x="605" unicode="&#363;" /><glyph d="M0 -168V-87H535V-168Z" glyph-name="underscore" horiz-adv-x="535" unicode="_" /><glyph d="M368 226H28V315H368Z" glyph-name="uni00AD" horiz-adv-x="396" unicode="&#173;" /><glyph d="M432 70Q389 25 340 7Q291 -11 240 -11Q193 -11 160.5 -1Q128 9 108.5 29Q89 49 80.5 79.5Q72 110 72 151V510H179V169Q179 118 198 98Q217 78 268 78Q310 78 350 98.5Q390 119 417 153V510H524V0Q493 -17 479.5 -40Q466 -63 466 -81Q466 -116 508 -116Q523 -116 538.5 -114Q554 -112 573 -106V-167Q555 -175 531 -177Q507 -179 490 -179Q434 -179 407.5 -157Q381 -135 381 -100Q381 -72 398.5 -43Q416 -14 447 6L434 70Z" glyph-name="uogonek" horiz-adv-x="605" unicode="&#371;" /><glyph d="M334 637Q334 669 299 669Q263 669 263 637Q263 606 299 606Q334 606 334 637ZM395 637Q395 595 370.5 577.5Q346 560 299 560Q253 560 227.5 577.5Q202 595 202 637Q202 678 227.5 695.5Q253 713 299 713Q346 713 370.5 695.5Q395 678 395 637ZM432 70Q389 25 340 7Q291 -11 240 -11Q193 -11 160.5 -1Q128 9 108.5 29Q89 49 80.5 79.5Q72 110 72 151V510H179V169Q179 118 198 98Q217 78 268 78Q310 78 350 98.5Q390 119 417 153V510H524V0H449L434 70Z" glyph-name="uring" horiz-adv-x="605" unicode="&#367;" /><glyph d="M432 70Q389 25 340 7Q291 -11 240 -11Q193 -11 160.5 -1Q128 9 108.5 29Q89 49 80.5 79.5Q72 110 72 151V510H179V169Q179 118 198 98Q217 78 268 78Q310 78 350 98.5Q390 119 417 153V510H524V0H449L434 70ZM374 658Q397 658 424.5 670Q452 682 472 696V619Q457 606 428.5 594Q400 582 374 582Q352 582 333 587Q314 592 296 598Q278 604 260.5 609Q243 614 225 614Q202 614 173.5 602.5Q145 591 124 577V655Q141 667 170 679.5Q199 692 224 692Q246 692 265 687Q284 682 301.5 675.5Q319 669 336.5 663.5Q354 658 374 658Z" glyph-name="utilde" horiz-adv-x="605" unicode="&#361;" /><glyph d="M272 94Q283 132 296 170.5Q309 209 327 260L417 510H526L334 0H201L10 510H125L215 260Q233 209 245.5 170.5Q258 132 270 94H272Z" glyph-name="v" horiz-adv-x="535" unicode="v" /><glyph d="M286 0H173L12 510H122L189 290Q203 243 215.5 193.5Q228 144 236 109H238Q243 125 250.5 147.5Q258 170 267 194.5Q276 219 285 244Q294 269 302 291L352 423L318 510H424L507 286Q524 240 540.5 191.5Q557 143 567 109H569Q577 144 590 193.5Q603 243 616 290L682 510H788L627 0H515L400 297H399Z" glyph-name="w" horiz-adv-x="800" unicode="w" /><glyph d="M286 0H173L12 510H122L189 290Q203 243 215.5 193.5Q228 144 236 109H238Q243 125 250.5 147.5Q258 170 267 194.5Q276 219 285 244Q294 269 302 291L352 423L318 510H424L507 286Q524 240 540.5 191.5Q557 143 567 109H569Q577 144 590 193.5Q603 243 616 290L682 510H788L627 0H515L400 297H399ZM413 566H320L430 678H563Z" glyph-name="wacute" horiz-adv-x="800" unicode="&#7811;" /><glyph d="M286 0H173L12 510H122L189 290Q203 243 215.5 193.5Q228 144 236 109H238Q243 125 250.5 147.5Q258 170 267 194.5Q276 219 285 244Q294 269 302 291L352 423L318 510H424L507 286Q524 240 540.5 191.5Q557 143 567 109H569Q577 144 590 193.5Q603 243 616 290L682 510H788L627 0H515L400 297H399ZM560 564H460L395 628L331 564H231L346 682H445Z" glyph-name="wcircumflex" horiz-adv-x="800" unicode="&#373;" /><glyph d="M286 0H173L12 510H122L189 290Q203 243 215.5 193.5Q228 144 236 109H238Q243 125 250.5 147.5Q258 170 267 194.5Q276 219 285 244Q294 269 302 291L352 423L318 510H424L507 286Q524 240 540.5 191.5Q557 143 567 109H569Q577 144 590 193.5Q603 243 616 290L682 510H788L627 0H515L400 297H399ZM547 580H439V675H547ZM339 580H232V675H339Z" glyph-name="wdieresis" horiz-adv-x="800" unicode="&#7813;" /><glyph d="M286 0H173L12 510H122L189 290Q203 243 215.5 193.5Q228 144 236 109H238Q243 125 250.5 147.5Q258 170 267 194.5Q276 219 285 244Q294 269 302 291L352 423L318 510H424L507 286Q524 240 540.5 191.5Q557 143 567 109H569Q577 144 590 193.5Q603 243 616 290L682 510H788L627 0H515L400 297H399ZM173 678H306L416 566H323Z" glyph-name="wgrave" horiz-adv-x="800" unicode="&#7809;" /><glyph d="M246 179 122 0H-1L185 259L3 510H130L250 338L373 510H493L311 260L499 0H370Z" glyph-name="x" horiz-adv-x="499" unicode="x" /><glyph d="M525 510 248 -168H137L212 16L10 510H125L210 293Q219 269 227 248.5Q235 228 242 209Q249 190 255.5 170.5Q262 151 270 129H272Q286 173 299.5 209Q313 245 331 293L417 510Z" glyph-name="y" horiz-adv-x="535" unicode="y" /><glyph d="M525 510 248 -168H137L212 16L10 510H125L210 293Q219 269 227 248.5Q235 228 242 209Q249 190 255.5 170.5Q262 151 270 129H272Q286 173 299.5 209Q313 245 331 293L417 510ZM312 566H219L329 678H462Z" glyph-name="yacute" horiz-adv-x="535" unicode="&#253;" /><glyph d="M525 510 248 -168H137L212 16L10 510H125L210 293Q219 269 227 248.5Q235 228 242 209Q249 190 255.5 170.5Q262 151 270 129H272Q286 173 299.5 209Q313 245 331 293L417 510ZM434 564H334L269 628L205 564H105L220 682H319Z" glyph-name="ycircumflex" horiz-adv-x="535" unicode="&#375;" /><glyph d="M525 510 248 -168H137L212 16L10 510H125L210 293Q219 269 227 248.5Q235 228 242 209Q249 190 255.5 170.5Q262 151 270 129H272Q286 173 299.5 209Q313 245 331 293L417 510ZM217 580H110V675H217ZM425 580H317V675H425Z" glyph-name="ydieresis" horiz-adv-x="535" unicode="&#255;" /><glyph d="M382 250V0H268V250H76V320H236L212 369H76V439H177L59 678H182L327 363H329L485 678H601L477 439H585V369H440L415 320H586V250Z" glyph-name="yen" horiz-adv-x="660" unicode="&#165;" /><glyph d="M432 510V443L165 86V84H431V0H29V68L296 424V426H45V510Z" glyph-name="z" horiz-adv-x="464" unicode="z" /><glyph d="M273 566H180L290 678H423ZM432 510V443L165 86V84H431V0H29V68L296 424V426H45V510Z" glyph-name="zacute" horiz-adv-x="461" unicode="&#378;" /><glyph d="M80 680H180L244 615L309 680H409L293 562H195ZM432 510V443L165 86V84H431V0H29V68L296 424V426H45V510Z" glyph-name="zcaron" horiz-adv-x="461" unicode="&#158;" /><glyph d="M432 510V443L165 86V84H431V0H29V68L296 424V426H45V510ZM300 581H188V677H300Z" glyph-name="zdotaccent" horiz-adv-x="461" unicode="&#380;" /><glyph d="M480 339Q480 395 476.5 444Q473 493 458 529.5Q443 566 413.5 587Q384 608 332 608Q280 608 250.5 587Q221 566 206 530Q191 494 187.5 445Q184 396 184 339Q184 283 187.5 234Q191 185 206 148.5Q221 112 250.5 91Q280 70 332 70Q384 70 413.5 91Q443 112 458 148.5Q473 185 476.5 234Q480 283 480 339ZM70 339Q70 419 81 484Q92 549 121 595.5Q150 642 201 667Q252 692 332 692Q412 692 463 667Q514 642 543 595.5Q572 549 583 484Q594 419 594 339Q594 259 583 194Q572 129 543 82.5Q514 36 463 11Q412 -14 332 -14Q252 -14 201 11Q150 36 121 82.5Q92 129 81 194Q70 259 70 339Z" glyph-name="zero" horiz-adv-x="665" unicode="0" /></font>
</defs>
</svg>
