<?xml version="1.0" standalone="no"?><!DOCTYPE svg PUBLIC "-//W3C//DTD SVG 1.1//EN" "http://www.w3.org/Graphics/SVG/1.1/DTD/svg11.dtd" ><svg version="1.1" xmlns="http://www.w3.org/2000/svg"><defs><font horiz-adv-x="0" id="font"><font-face ascent="832" bbox="-184 -240 1220 881" cap-height="678" descent="-168" font-family="Gustan" font-stretch="normal" font-style="normal" font-weight="600" units-per-em="1000" x-height="510" /><missing-glyph d="M90 780H870V0H90ZM201 66H759L480 345ZM480 435 759 714H201ZM160 665V115L435 390ZM800 115V665L525 390Z" horiz-adv-x="960" /><glyph glyph-name=".null" horiz-adv-x="0" /><glyph d="M147 173 86 0H21L264 678H343L591 0H526L463 173ZM164 224H445L304 625H303Z" glyph-name="A" horiz-adv-x="611" unicode="A" /><glyph d="M898 0H499V173H156L22 0H-57L475 678H891V628H562V371H848V321H562V50H898ZM193 224H499V618H497Q495 615 485 602Q475 589 461.5 571Q448 553 432.5 532.5Q417 512 403 494Q389 476 378 462Q367 448 364 444Z" glyph-name="AE" horiz-adv-x="937" unicode="&#198;" /><glyph d="M147 173 86 0H21L264 678H343L591 0H526L463 173ZM164 224H445L304 625H303ZM335 736H280L388 846H466Z" glyph-name="Aacute" horiz-adv-x="611" unicode="&#193;" /><glyph d="M147 173 86 0H21L264 678H343L591 0H526L463 173ZM164 224H445L304 625H303ZM303 777Q341 777 373 792Q405 807 413 846H465Q454 786 410.5 760.5Q367 735 303 735Q239 735 195.5 760.5Q152 786 141 846H193Q202 807 233.5 792Q265 777 303 777Z" glyph-name="Abreve" horiz-adv-x="611" unicode="&#258;" /><glyph d="M147 173 86 0H21L264 678H343L591 0H526L463 173ZM164 224H445L304 625H303ZM437 736H379L303 816L228 736H170L278 850H330Z" glyph-name="Acircumflex" horiz-adv-x="611" unicode="&#194;" /><glyph d="M147 173 86 0H21L264 678H343L591 0H526L463 173ZM164 224H445L304 625H303ZM254 765H192V840H254ZM416 765H354V840H416Z" glyph-name="Adieresis" horiz-adv-x="611" unicode="&#196;" /><glyph d="M147 173 86 0H21L264 678H343L591 0H526L463 173ZM164 224H445L304 625H303ZM145 846H223L331 736H276Z" glyph-name="Agrave" horiz-adv-x="611" unicode="&#192;" /><glyph d="M147 173 86 0H21L264 678H343L591 0H526L463 173ZM164 224H445L304 625H303ZM462 777H146V825H462Z" glyph-name="Amacron" horiz-adv-x="611" unicode="&#256;" /><glyph d="M147 173 86 0H21L264 678H343L591 0H590Q560 -17 545 -40.5Q530 -64 530 -84Q530 -102 542 -115.5Q554 -129 586 -129Q599 -129 613.5 -127.5Q628 -126 644 -121V-161Q630 -166 611 -168Q592 -170 577 -170Q522 -170 500 -147Q478 -124 478 -91Q478 -66 494 -41.5Q510 -17 533 0H526L463 173ZM164 224H445L304 625H303Z" glyph-name="Aogonek" horiz-adv-x="611" unicode="&#260;" /><glyph d="M147 173 86 0H21L264 678H343L591 0H526L463 173ZM164 224H445L304 625H303ZM348 810Q348 850 304 850Q260 850 260 810Q260 772 304 772Q348 772 348 810ZM388 810Q388 774 366.5 757Q345 740 304 740Q264 740 242 757Q220 774 220 810Q220 847 242 864Q264 881 304 881Q345 881 366.5 864Q388 847 388 810Z" glyph-name="Aring" horiz-adv-x="611" unicode="&#197;" /><glyph d="M147 173 86 0H21L264 678H343L591 0H526L463 173ZM164 224H445L304 625H303ZM377 817Q398 817 421 827Q444 837 463 851V803Q448 792 423.5 781Q399 770 378 770Q358 770 339.5 775Q321 780 303 786.5Q285 793 267 798Q249 803 231 803Q210 803 187.5 792.5Q165 782 145 769V817Q160 828 184.5 839Q209 850 231 850Q250 850 268 845Q286 840 304 833.5Q322 827 340 822Q358 817 377 817Z" glyph-name="Atilde" horiz-adv-x="611" unicode="&#195;" /><glyph d="M321 50Q361 50 394 57Q427 64 451 88Q467 104 475.5 128.5Q484 153 484 189Q484 226 475.5 247Q467 268 451 285Q427 309 394 315Q361 321 321 321H157V50ZM316 371Q353 371 382.5 377Q412 383 434 405Q464 435 464 500Q464 564 434 594Q412 617 382.5 622.5Q353 628 316 628H157V371ZM94 0V678H312Q369 678 413 669Q457 660 487 630Q506 611 517.5 579.5Q529 548 529 506Q529 443 504 406.5Q479 370 440 351V350Q461 343 480.5 329Q500 315 515.5 295Q531 275 540 248Q549 221 549 188Q549 142 536 108Q523 74 502 53Q467 19 417.5 9.5Q368 0 308 0Z" glyph-name="B" horiz-adv-x="599" unicode="B" /><glyph d="M60 337Q60 437 78 504.5Q96 572 130.5 613Q165 654 215.5 671Q266 688 331 688Q363 688 403.5 684Q444 680 488 666V614Q447 627 408 631.5Q369 636 341 636Q289 636 248.5 623Q208 610 180.5 576Q153 542 139 484.5Q125 427 125 338Q125 251 139 194Q153 137 180.5 104Q208 71 248.5 58Q289 45 341 45Q378 45 421.5 51.5Q465 58 500 72V18Q462 2 414 -4Q366 -10 331 -10Q266 -10 215.5 7Q165 24 130.5 64.5Q96 105 78 171.5Q60 238 60 337Z" glyph-name="C" horiz-adv-x="535" unicode="C" /><glyph d="M326 736H271L379 846H457ZM60 337Q60 437 78 504.5Q96 572 130.5 613Q165 654 215.5 671Q266 688 331 688Q363 688 403.5 684Q444 680 488 666V614Q447 627 408 631.5Q369 636 341 636Q289 636 248.5 623Q208 610 180.5 576Q153 542 139 484.5Q125 427 125 338Q125 251 139 194Q153 137 180.5 104Q208 71 248.5 58Q289 45 341 45Q378 45 421.5 51.5Q465 58 500 72V18Q462 2 414 -4Q366 -10 331 -10Q266 -10 215.5 7Q165 24 130.5 64.5Q96 105 78 171.5Q60 238 60 337Z" glyph-name="Cacute" horiz-adv-x="535" unicode="&#262;" /><glyph d="M184 846H242L318 766L393 846H451L343 732H291ZM60 337Q60 437 78 504.5Q96 572 130.5 613Q165 654 215.5 671Q266 688 331 688Q363 688 403.5 684Q444 680 488 666V614Q447 627 408 631.5Q369 636 341 636Q289 636 248.5 623Q208 610 180.5 576Q153 542 139 484.5Q125 427 125 338Q125 251 139 194Q153 137 180.5 104Q208 71 248.5 58Q289 45 341 45Q378 45 421.5 51.5Q465 58 500 72V18Q462 2 414 -4Q366 -10 331 -10Q266 -10 215.5 7Q165 24 130.5 64.5Q96 105 78 171.5Q60 238 60 337Z" glyph-name="Ccaron" horiz-adv-x="535" unicode="&#268;" /><glyph d="M295 -8Q238 -4 194 16Q150 36 120.5 76.5Q91 117 75.5 181Q60 245 60 337Q60 437 78 504.5Q96 572 130.5 613Q165 654 215.5 671Q266 688 331 688Q363 688 403.5 684Q444 680 488 666V614Q447 627 408 631.5Q369 636 341 636Q289 636 248.5 623Q208 610 180.5 576Q153 542 139 484.5Q125 427 125 338Q125 251 139 194Q153 137 180.5 104Q208 71 248.5 58Q289 45 341 45Q378 45 421.5 51.5Q465 58 500 72V18Q466 4 423.5 -2Q381 -8 346 -10L333 -41Q362 -47 380 -61Q398 -75 398 -100Q398 -136 367.5 -153Q337 -170 286 -170Q275 -170 256.5 -168Q238 -166 216 -161V-121Q232 -126 250.5 -127.5Q269 -129 282 -129Q344 -129 344 -97Q344 -89 338 -83Q332 -77 323 -73.5Q314 -70 303.5 -68Q293 -66 283 -65L278 -46Z" glyph-name="Ccedilla" horiz-adv-x="535" unicode="&#199;" /><glyph d="M451 736H393L317 816L242 736H184L292 850H344ZM60 337Q60 437 78 504.5Q96 572 130.5 613Q165 654 215.5 671Q266 688 331 688Q363 688 403.5 684Q444 680 488 666V614Q447 627 408 631.5Q369 636 341 636Q289 636 248.5 623Q208 610 180.5 576Q153 542 139 484.5Q125 427 125 338Q125 251 139 194Q153 137 180.5 104Q208 71 248.5 58Q289 45 341 45Q378 45 421.5 51.5Q465 58 500 72V18Q462 2 414 -4Q366 -10 331 -10Q266 -10 215.5 7Q165 24 130.5 64.5Q96 105 78 171.5Q60 238 60 337Z" glyph-name="Ccircumflex" horiz-adv-x="535" unicode="&#264;" /><glyph d="M60 337Q60 437 78 504.5Q96 572 130.5 613Q165 654 215.5 671Q266 688 331 688Q363 688 403.5 684Q444 680 488 666V614Q447 627 408 631.5Q369 636 341 636Q289 636 248.5 623Q208 610 180.5 576Q153 542 139 484.5Q125 427 125 338Q125 251 139 194Q153 137 180.5 104Q208 71 248.5 58Q289 45 341 45Q378 45 421.5 51.5Q465 58 500 72V18Q462 2 414 -4Q366 -10 331 -10Q266 -10 215.5 7Q165 24 130.5 64.5Q96 105 78 171.5Q60 238 60 337ZM345 764H281V845H345Z" glyph-name="Cdotaccent" horiz-adv-x="535" unicode="&#266;" /><glyph d="M527 339Q527 428 510 488Q493 548 461 580Q433 608 399 618Q365 628 318 628H157V50H318Q365 50 399 60.5Q433 71 461 99Q493 131 510 190.5Q527 250 527 339ZM592 339Q592 241 571.5 174Q551 107 510 66Q474 30 429.5 15Q385 0 320 0H94V678H320Q385 678 430 663.5Q475 649 510 613Q551 572 571.5 505Q592 438 592 339Z" glyph-name="D" horiz-adv-x="652" unicode="D" /><glyph d="M174 845H232L308 765L383 845H441L333 731H281ZM527 339Q527 428 510 488Q493 548 461 580Q433 608 399 618Q365 628 318 628H157V50H318Q365 50 399 60.5Q433 71 461 99Q493 131 510 190.5Q527 250 527 339ZM592 339Q592 241 571.5 174Q551 107 510 66Q474 30 429.5 15Q385 0 320 0H94V678H320Q385 678 430 663.5Q475 649 510 613Q551 572 571.5 505Q592 438 592 339Z" glyph-name="Dcaron" horiz-adv-x="652" unicode="&#270;" /><glyph d="M623 339Q623 241 602.5 174Q582 107 541 66Q505 30 460.5 15Q416 0 351 0H125V321H24V371H125V678H351Q416 678 461 663.5Q506 649 541 613Q582 572 602.5 505Q623 438 623 339ZM558 339Q558 428 541 488Q524 548 492 580Q464 608 430 618Q396 628 349 628H188V371H383V321H188V50H349Q396 50 430 60.5Q464 71 492 99Q524 131 541 190.5Q558 250 558 339Z" glyph-name="Dcroat" horiz-adv-x="683" unicode="&#272;" /><glyph d="M723 0H56L54 37L359 682H419L724 37ZM577 48Q594 48 617.5 47.5Q641 47 661 46V47L430 537Q420 557 409.5 583Q399 609 391 629H389Q381 609 369.5 583Q358 557 348 537L117 47V46Q137 47 160.5 47.5Q184 48 202 48Z" glyph-name="Delta" horiz-adv-x="778" unicode="&#8710;" /><glyph d="M493 0H94V678H485V628H157V371H442V321H157V50H493Z" glyph-name="E" horiz-adv-x="531" unicode="E" /><glyph d="M308 736H253L361 846H439ZM493 0H94V678H485V628H157V371H442V321H157V50H493Z" glyph-name="Eacute" horiz-adv-x="531" unicode="&#201;" /><glyph d="M493 0H94V678H485V628H157V371H442V321H157V50H493ZM292 777Q330 777 362 792Q394 807 402 846H454Q443 786 399.5 760.5Q356 735 292 735Q228 735 184.5 760.5Q141 786 130 846H182Q191 807 222.5 792Q254 777 292 777Z" glyph-name="Ebreve" horiz-adv-x="531" unicode="&#276;" /><glyph d="M160 846H218L294 766L369 846H427L319 732H267ZM493 0H94V678H485V628H157V371H442V321H157V50H493Z" glyph-name="Ecaron" horiz-adv-x="531" unicode="&#282;" /><glyph d="M427 736H369L293 816L218 736H160L268 850H320ZM493 0H94V678H485V628H157V371H442V321H157V50H493Z" glyph-name="Ecircumflex" horiz-adv-x="531" unicode="&#202;" /><glyph d="M244 765H182V840H244ZM406 765H344V840H406ZM493 0H94V678H485V628H157V371H442V321H157V50H493Z" glyph-name="Edieresis" horiz-adv-x="531" unicode="&#203;" /><glyph d="M493 0H94V678H485V628H157V371H442V321H157V50H493ZM326 764H262V845H326Z" glyph-name="Edotaccent" horiz-adv-x="531" unicode="&#278;" /><glyph d="M493 0H94V678H485V628H157V371H442V321H157V50H493ZM164 846H242L350 736H295Z" glyph-name="Egrave" horiz-adv-x="531" unicode="&#200;" /><glyph d="M493 0H94V678H485V628H157V371H442V321H157V50H493ZM450 777H134V825H450Z" glyph-name="Emacron" horiz-adv-x="531" unicode="&#274;" /><glyph d="M450 -168Q478 -126 497 -84Q516 -42 527 4L296 362Q292 368 281.5 384.5Q271 401 256.5 423Q242 445 226 470Q210 495 196 517.5Q182 540 171 557Q160 574 156 581H154Q154 568 154.5 541Q155 514 155 481.5Q155 449 155 412.5Q155 376 155 343.5Q155 311 155 285Q155 259 155 247V0H94V678H162L439 251Q463 213 488 174.5Q513 136 536 97H537Q537 122 537 151Q537 180 537 209.5Q537 239 537 268Q537 297 537 321V678H597V130Q597 84 592.5 44.5Q588 5 578.5 -31Q569 -67 553.5 -100.5Q538 -134 516 -168Z" glyph-name="Eng" horiz-adv-x="691" unicode="&#330;" /><glyph d="M493 0Q463 -17 448 -40.5Q433 -64 433 -84Q433 -102 445 -115.5Q457 -129 489 -129Q502 -129 516.5 -127.5Q531 -126 547 -121V-161Q533 -166 514 -168Q495 -170 480 -170Q425 -170 403 -147Q381 -124 381 -91Q381 -65 397 -41Q413 -17 436 0H94V678H485V628H157V371H442V321H157V50H493Z" glyph-name="Eogonek" horiz-adv-x="531" unicode="&#280;" /><glyph d="M623 339Q623 241 602.5 174Q582 107 541 66Q505 30 460.5 15Q416 0 351 0H125V321H24V371H125V678H351Q416 678 461 663.5Q506 649 541 613Q582 572 602.5 505Q623 438 623 339ZM558 339Q558 428 541 488Q524 548 492 580Q464 608 430 618Q396 628 349 628H188V371H384V321H188V50H349Q396 50 430 60.5Q464 71 492 99Q524 131 541 190.5Q558 250 558 339Z" glyph-name="Eth" horiz-adv-x="683" unicode="&#208;" /><glyph d="M93 316H149V373H81L100 417H153Q159 493 178.5 545Q198 597 228.5 628.5Q259 660 301 674Q343 688 395 688Q424 688 459.5 683.5Q495 679 534 665V612Q498 626 464 631Q430 636 405 636Q365 636 333 625.5Q301 615 277 590Q253 565 238 522.5Q223 480 217 417H468L449 373H214V316H427L408 272H216Q221 206 236 162Q251 118 275 92Q299 66 331.5 55.5Q364 45 405 45Q438 45 476 52.5Q514 60 546 75V19Q512 2 469.5 -3.5Q427 -9 395 -9Q341 -9 298.5 5Q256 19 225 52Q194 85 175.5 139Q157 193 152 272H74Z" glyph-name="Euro" horiz-adv-x="660" unicode="&#8364;" /><glyph d="M94 0V678H492V628H157V371H443V321H157V0Z" glyph-name="F" horiz-adv-x="504" unicode="F" /><glyph d="M319 371H568V41Q513 13 458.5 1.5Q404 -10 347 -10Q279 -10 225.5 7Q172 24 135.5 64.5Q99 105 79.5 171Q60 237 60 336Q60 440 80 508Q100 576 137.5 616Q175 656 230 672Q285 688 356 688Q387 688 436 683.5Q485 679 531 666V614Q488 625 443 630.5Q398 636 364 636Q305 636 260.5 623.5Q216 611 186 578Q156 545 140.5 486.5Q125 428 125 336Q125 248 141.5 191Q158 134 187.5 101Q217 68 256.5 55Q296 42 343 42Q381 42 420.5 47Q460 52 505 72V321H319Z" glyph-name="G" horiz-adv-x="650" unicode="G" /><glyph d="M319 371H568V41Q513 13 458.5 1.5Q404 -10 347 -10Q279 -10 225.5 7Q172 24 135.5 64.5Q99 105 79.5 171Q60 237 60 336Q60 440 80 508Q100 576 137.5 616Q175 656 230 672Q285 688 356 688Q387 688 436 683.5Q485 679 531 666V614Q488 625 443 630.5Q398 636 364 636Q305 636 260.5 623.5Q216 611 186 578Q156 545 140.5 486.5Q125 428 125 336Q125 248 141.5 191Q158 134 187.5 101Q217 68 256.5 55Q296 42 343 42Q381 42 420.5 47Q460 52 505 72V321H319ZM334 777Q372 777 404 792Q436 807 444 846H496Q485 786 441.5 760.5Q398 735 334 735Q270 735 226.5 760.5Q183 786 172 846H224Q233 807 264.5 792Q296 777 334 777Z" glyph-name="Gbreve" horiz-adv-x="650" unicode="&#286;" /><glyph d="M468 736H410L334 816L259 736H201L309 850H361ZM319 371H568V41Q513 13 458.5 1.5Q404 -10 347 -10Q279 -10 225.5 7Q172 24 135.5 64.5Q99 105 79.5 171Q60 237 60 336Q60 440 80 508Q100 576 137.5 616Q175 656 230 672Q285 688 356 688Q387 688 436 683.5Q485 679 531 666V614Q488 625 443 630.5Q398 636 364 636Q305 636 260.5 623.5Q216 611 186 578Q156 545 140.5 486.5Q125 428 125 336Q125 248 141.5 191Q158 134 187.5 101Q217 68 256.5 55Q296 42 343 42Q381 42 420.5 47Q460 52 505 72V321H319Z" glyph-name="Gcircumflex" horiz-adv-x="650" unicode="&#284;" /><glyph d="M322 -77H387L323 -240H284ZM319 371H568V41Q513 13 458.5 1.5Q404 -10 347 -10Q279 -10 225.5 7Q172 24 135.5 64.5Q99 105 79.5 171Q60 237 60 336Q60 440 80 508Q100 576 137.5 616Q175 656 230 672Q285 688 356 688Q387 688 436 683.5Q485 679 531 666V614Q488 625 443 630.5Q398 636 364 636Q305 636 260.5 623.5Q216 611 186 578Q156 545 140.5 486.5Q125 428 125 336Q125 248 141.5 191Q158 134 187.5 101Q217 68 256.5 55Q296 42 343 42Q381 42 420.5 47Q460 52 505 72V321H319Z" glyph-name="Gcommaaccent" horiz-adv-x="650" unicode="&#290;" /><glyph d="M319 371H568V41Q513 13 458.5 1.5Q404 -10 347 -10Q279 -10 225.5 7Q172 24 135.5 64.5Q99 105 79.5 171Q60 237 60 336Q60 440 80 508Q100 576 137.5 616Q175 656 230 672Q285 688 356 688Q387 688 436 683.5Q485 679 531 666V614Q488 625 443 630.5Q398 636 364 636Q305 636 260.5 623.5Q216 611 186 578Q156 545 140.5 486.5Q125 428 125 336Q125 248 141.5 191Q158 134 187.5 101Q217 68 256.5 55Q296 42 343 42Q381 42 420.5 47Q460 52 505 72V321H319ZM366 764H302V845H366Z" glyph-name="Gdotaccent" horiz-adv-x="650" unicode="&#288;" /><glyph d="M582 0H519V321H157V0H94V678H157V371H519V678H582Z" glyph-name="H" horiz-adv-x="676" unicode="H" /><glyph d="M582 0H519V321H157V0H94V678H157V528H519V678H582ZM519 371V477H157V371Z" glyph-name="Hbar" horiz-adv-x="676" unicode="&#294;" /><glyph d="M471 736H413L337 816L262 736H204L312 850H364ZM582 0H519V321H157V0H94V678H157V371H519V678H582Z" glyph-name="Hcircumflex" horiz-adv-x="676" unicode="&#292;" /><glyph d="M157 0H94V678H157Z" glyph-name="I" horiz-adv-x="251" unicode="I" /><glyph d="M157 0H94V678H157ZM267 -118Q311 -51 329.5 18.5Q348 88 348 176V678H411V189Q411 141 407 100Q403 59 393 22Q383 -15 367.5 -49.5Q352 -84 329 -118Z" glyph-name="IJ" horiz-adv-x="505" unicode="&#306;" /><glyph d="M157 0H94V678H157ZM154 736H99L207 846H285Z" glyph-name="Iacute" horiz-adv-x="251" unicode="&#205;" /><glyph d="M157 0H94V678H157ZM125 777Q163 777 195 792Q227 807 235 846H287Q276 786 232.5 760.5Q189 735 125 735Q61 735 17.5 760.5Q-26 786 -37 846H15Q24 807 55.5 792Q87 777 125 777Z" glyph-name="Ibreve" horiz-adv-x="251" unicode="&#300;" /><glyph d="M157 0H94V678H157ZM259 736H201L125 816L50 736H-8L100 850H152Z" glyph-name="Icircumflex" horiz-adv-x="251" unicode="&#206;" /><glyph d="M157 0H94V678H157ZM76 765H14V840H76ZM238 765H176V840H238Z" glyph-name="Idieresis" horiz-adv-x="251" unicode="&#207;" /><glyph d="M157 0H94V678H157ZM157 764H93V845H157Z" glyph-name="Idotaccent" horiz-adv-x="251" unicode="&#304;" /><glyph d="M157 0H94V678H157ZM-34 846H44L152 736H97Z" glyph-name="Igrave" horiz-adv-x="251" unicode="&#204;" /><glyph d="M157 0H94V678H157ZM284 777H-32V825H284Z" glyph-name="Imacron" horiz-adv-x="251" unicode="&#298;" /><glyph d="M158 0H159Q129 -17 114 -40.5Q99 -64 99 -84Q99 -102 111 -115.5Q123 -129 155 -129Q168 -129 182.5 -127.5Q197 -126 213 -121V-161Q199 -166 180 -168Q161 -170 146 -170Q91 -170 69 -147Q47 -124 47 -91Q47 -66 63 -41.5Q79 -17 102 0H95V678H158Z" glyph-name="Iogonek" horiz-adv-x="251" unicode="&#302;" /><glyph d="M157 0H94V678H157ZM199 817Q220 817 243 827Q266 837 285 851V803Q270 792 245.5 781Q221 770 200 770Q180 770 161.5 775Q143 780 125 786.5Q107 793 89 798Q71 803 53 803Q32 803 9.5 792.5Q-13 782 -33 769V817Q-18 828 6.5 839Q31 850 53 850Q72 850 90 845Q108 840 126 833.5Q144 827 162 822Q180 817 199 817Z" glyph-name="Itilde" horiz-adv-x="251" unicode="&#296;" /><glyph d="M16 -118Q60 -51 78.5 18.5Q97 88 97 176V678H160V189Q160 141 156 100Q152 59 142 22Q132 -15 116.5 -49.5Q101 -84 78 -118Z" glyph-name="J" horiz-adv-x="254" unicode="J" /><glyph d="M263 736H205L129 816L54 736H-4L104 850H156ZM16 -118Q60 -51 78.5 18.5Q97 88 97 176V678H160V189Q160 141 156 100Q152 59 142 22Q132 -15 116.5 -49.5Q101 -84 78 -118Z" glyph-name="Jcircumflex" horiz-adv-x="254" unicode="&#308;" /><glyph d="M571 0H497L272 321H157V0H94V678H157V371H272L470 678H539L326 349Z" glyph-name="K" horiz-adv-x="580" unicode="K" /><glyph d="M278 -77H343L279 -240H240ZM571 0H497L272 321H157V0H94V678H157V371H272L470 678H539L326 349Z" glyph-name="Kcommaaccent" horiz-adv-x="581" unicode="&#310;" /><glyph d="M486 0H94V678H157V50H486Z" glyph-name="L" horiz-adv-x="490" unicode="L" /><glyph d="M154 730H99L207 840H285ZM486 0H94V678H157V50H486Z" glyph-name="Lacute" horiz-adv-x="490" unicode="&#313;" /><glyph d="M411 678H476L412 515H373ZM486 0H94V678H157V50H486Z" glyph-name="Lcaron" horiz-adv-x="515" unicode="&#317;" /><glyph d="M270 -77H335L271 -240H232ZM486 0H94V678H157V50H486Z" glyph-name="Lcommaaccent" horiz-adv-x="490" unicode="&#315;" /><glyph d="M486 0H94V678H157V50H486ZM458 309H396V383H458Z" glyph-name="Ldot" horiz-adv-x="520" unicode="&#319;" /><glyph d="M506 0H114V244L5 175V231L114 301V678H177V341L377 470V413L177 285V50H506Z" glyph-name="Lslash" horiz-adv-x="510" unicode="&#321;" /><glyph d="M665 255Q665 270 665 297Q665 324 665.5 357.5Q666 391 666 427Q666 463 666.5 496.5Q667 530 667.5 557Q668 584 668 599H665Q660 588 646.5 560.5Q633 533 617 502Q601 471 587 443.5Q573 416 568 406L436 151H385L253 406Q248 416 233.5 443.5Q219 471 203.5 502Q188 533 174 560.5Q160 588 155 599H153Q153 584 153.5 557Q154 530 154.5 496.5Q155 463 155 427Q155 391 155.5 357.5Q156 324 156 297Q156 270 156 255V0H94V678H178L409 230H411L642 678H727V0H665Z" glyph-name="M" horiz-adv-x="821" unicode="M" /><glyph d="M395 318Q399 312 409.5 295Q420 278 434.5 255.5Q449 233 465.5 208Q482 183 496.5 160Q511 137 521.5 119.5Q532 102 536 95H538Q538 108 537.5 134.5Q537 161 537 194Q537 227 537 263Q537 299 537 332Q537 365 537 390.5Q537 416 537 429V678H597V0H530L297 360Q293 366 282.5 383Q272 400 257.5 422.5Q243 445 226.5 470Q210 495 195.5 518Q181 541 170 558.5Q159 576 155 583H153Q153 570 153.5 543.5Q154 517 154 484Q154 451 154.5 415Q155 379 155 346Q155 313 155 287Q155 261 155 249V0H94V678H162Z" glyph-name="N" horiz-adv-x="691" unicode="N" /><glyph d="M368 736H313L421 846H499ZM395 318Q399 312 409.5 295Q420 278 434.5 255.5Q449 233 465.5 208Q482 183 496.5 160Q511 137 521.5 119.5Q532 102 536 95H538Q538 108 537.5 134.5Q537 161 537 194Q537 227 537 263Q537 299 537 332Q537 365 537 390.5Q537 416 537 429V678H597V0H530L297 360Q293 366 282.5 383Q272 400 257.5 422.5Q243 445 226.5 470Q210 495 195.5 518Q181 541 170 558.5Q159 576 155 583H153Q153 570 153.5 543.5Q154 517 154 484Q154 451 154.5 415Q155 379 155 346Q155 313 155 287Q155 261 155 249V0H94V678H162Z" glyph-name="Nacute" horiz-adv-x="691" unicode="&#323;" /><glyph d="M211 846H269L345 766L420 846H478L370 732H318ZM395 318Q399 312 409.5 295Q420 278 434.5 255.5Q449 233 465.5 208Q482 183 496.5 160Q511 137 521.5 119.5Q532 102 536 95H538Q538 108 537.5 134.5Q537 161 537 194Q537 227 537 263Q537 299 537 332Q537 365 537 390.5Q537 416 537 429V678H597V0H530L297 360Q293 366 282.5 383Q272 400 257.5 422.5Q243 445 226.5 470Q210 495 195.5 518Q181 541 170 558.5Q159 576 155 583H153Q153 570 153.5 543.5Q154 517 154 484Q154 451 154.5 415Q155 379 155 346Q155 313 155 287Q155 261 155 249V0H94V678H162Z" glyph-name="Ncaron" horiz-adv-x="691" unicode="&#327;" /><glyph d="M315 -77H380L316 -240H277ZM395 318Q399 312 409.5 295Q420 278 434.5 255.5Q449 233 465.5 208Q482 183 496.5 160Q511 137 521.5 119.5Q532 102 536 95H538Q538 108 537.5 134.5Q537 161 537 194Q537 227 537 263Q537 299 537 332Q537 365 537 390.5Q537 416 537 429V678H597V0H530L297 360Q293 366 282.5 383Q272 400 257.5 422.5Q243 445 226.5 470Q210 495 195.5 518Q181 541 170 558.5Q159 576 155 583H153Q153 570 153.5 543.5Q154 517 154 484Q154 451 154.5 415Q155 379 155 346Q155 313 155 287Q155 261 155 249V0H94V678H162Z" glyph-name="Ncommaaccent" horiz-adv-x="691" unicode="&#325;" /><glyph d="M395 318Q399 312 409.5 295Q420 278 434.5 255.5Q449 233 465.5 208Q482 183 496.5 160Q511 137 521.5 119.5Q532 102 536 95H538Q538 108 537.5 134.5Q537 161 537 194Q537 227 537 263Q537 299 537 332Q537 365 537 390.5Q537 416 537 429V678H597V0H530L297 360Q293 366 282.5 383Q272 400 257.5 422.5Q243 445 226.5 470Q210 495 195.5 518Q181 541 170 558.5Q159 576 155 583H153Q153 570 153.5 543.5Q154 517 154 484Q154 451 154.5 415Q155 379 155 346Q155 313 155 287Q155 261 155 249V0H94V678H162ZM418 817Q439 817 462 827Q485 837 504 851V803Q489 792 464.5 781Q440 770 419 770Q399 770 380.5 775Q362 780 344 786.5Q326 793 308 798Q290 803 272 803Q251 803 228.5 792.5Q206 782 186 769V817Q201 828 225.5 839Q250 850 272 850Q291 850 309 845Q327 840 345 833.5Q363 827 381 822Q399 817 418 817Z" glyph-name="Ntilde" horiz-adv-x="691" unicode="&#209;" /><glyph d="M612 340Q612 261 600 196.5Q588 132 557 86Q526 40 472.5 15Q419 -10 337 -10Q254 -10 200.5 14.5Q147 39 116 84.5Q85 130 72.5 194.5Q60 259 60 340Q60 420 72.5 484.5Q85 549 116.5 594Q148 639 201.5 663.5Q255 688 337 688Q419 688 472.5 663.5Q526 639 557 593.5Q588 548 600 483.5Q612 419 612 340ZM125 340Q125 269 134.5 213.5Q144 158 168 120Q192 82 233 62.5Q274 43 337 43Q400 43 440.5 63Q481 83 505 121Q529 159 538 214Q547 269 547 340Q547 410 538 465Q529 520 505 558Q481 596 440.5 616Q400 636 337 636Q274 636 233 616.5Q192 597 168 559.5Q144 522 134.5 466.5Q125 411 125 340Z" glyph-name="O" horiz-adv-x="672" unicode="O" /><glyph d="M948 0H549V99H548Q522 47 472.5 19Q423 -9 337 -9Q254 -9 200.5 15.5Q147 40 116 85Q85 130 72.5 194.5Q60 259 60 340Q60 420 72.5 484.5Q85 549 116.5 594Q148 639 201.5 663Q255 687 337 687Q423 687 472.5 660Q522 633 548 582H549V678H940V628H612V371H897V321H612V50H948ZM125 340Q125 268 134.5 213Q144 158 168 120Q192 82 233 62.5Q274 43 337 43Q400 43 441 63Q482 83 505.5 121Q529 159 538.5 214Q548 269 548 340Q548 410 538.5 465Q529 520 505.5 557.5Q482 595 441 615Q400 635 337 635Q274 635 233 615.5Q192 596 168 558.5Q144 521 134.5 466Q125 411 125 340Z" glyph-name="OE" horiz-adv-x="986" unicode="&#338;" /><glyph d="M359 736H304L412 846H490ZM612 340Q612 261 600 196.5Q588 132 557 86Q526 40 472.5 15Q419 -10 337 -10Q254 -10 200.5 14.5Q147 39 116 84.5Q85 130 72.5 194.5Q60 259 60 340Q60 420 72.5 484.5Q85 549 116.5 594Q148 639 201.5 663.5Q255 688 337 688Q419 688 472.5 663.5Q526 639 557 593.5Q588 548 600 483.5Q612 419 612 340ZM125 340Q125 269 134.5 213.5Q144 158 168 120Q192 82 233 62.5Q274 43 337 43Q400 43 440.5 63Q481 83 505 121Q529 159 538 214Q547 269 547 340Q547 410 538 465Q529 520 505 558Q481 596 440.5 616Q400 636 337 636Q274 636 233 616.5Q192 597 168 559.5Q144 522 134.5 466.5Q125 411 125 340Z" glyph-name="Oacute" horiz-adv-x="672" unicode="&#211;" /><glyph d="M612 340Q612 261 600 196.5Q588 132 557 86Q526 40 472.5 15Q419 -10 337 -10Q254 -10 200.5 14.5Q147 39 116 84.5Q85 130 72.5 194.5Q60 259 60 340Q60 420 72.5 484.5Q85 549 116.5 594Q148 639 201.5 663.5Q255 688 337 688Q419 688 472.5 663.5Q526 639 557 593.5Q588 548 600 483.5Q612 419 612 340ZM125 340Q125 269 134.5 213.5Q144 158 168 120Q192 82 233 62.5Q274 43 337 43Q400 43 440.5 63Q481 83 505 121Q529 159 538 214Q547 269 547 340Q547 410 538 465Q529 520 505 558Q481 596 440.5 616Q400 636 337 636Q274 636 233 616.5Q192 597 168 559.5Q144 522 134.5 466.5Q125 411 125 340ZM335 777Q373 777 405 792Q437 807 445 846H497Q486 786 442.5 760.5Q399 735 335 735Q271 735 227.5 760.5Q184 786 173 846H225Q234 807 265.5 792Q297 777 335 777Z" glyph-name="Obreve" horiz-adv-x="672" unicode="&#334;" /><glyph d="M469 736H411L335 816L260 736H202L310 850H362ZM612 340Q612 261 600 196.5Q588 132 557 86Q526 40 472.5 15Q419 -10 337 -10Q254 -10 200.5 14.5Q147 39 116 84.5Q85 130 72.5 194.5Q60 259 60 340Q60 420 72.5 484.5Q85 549 116.5 594Q148 639 201.5 663.5Q255 688 337 688Q419 688 472.5 663.5Q526 639 557 593.5Q588 548 600 483.5Q612 419 612 340ZM125 340Q125 269 134.5 213.5Q144 158 168 120Q192 82 233 62.5Q274 43 337 43Q400 43 440.5 63Q481 83 505 121Q529 159 538 214Q547 269 547 340Q547 410 538 465Q529 520 505 558Q481 596 440.5 616Q400 636 337 636Q274 636 233 616.5Q192 597 168 559.5Q144 522 134.5 466.5Q125 411 125 340Z" glyph-name="Ocircumflex" horiz-adv-x="672" unicode="&#212;" /><glyph d="M286 765H224V840H286ZM448 765H386V840H448ZM612 340Q612 261 600 196.5Q588 132 557 86Q526 40 472.5 15Q419 -10 337 -10Q254 -10 200.5 14.5Q147 39 116 84.5Q85 130 72.5 194.5Q60 259 60 340Q60 420 72.5 484.5Q85 549 116.5 594Q148 639 201.5 663.5Q255 688 337 688Q419 688 472.5 663.5Q526 639 557 593.5Q588 548 600 483.5Q612 419 612 340ZM125 340Q125 269 134.5 213.5Q144 158 168 120Q192 82 233 62.5Q274 43 337 43Q400 43 440.5 63Q481 83 505 121Q529 159 538 214Q547 269 547 340Q547 410 538 465Q529 520 505 558Q481 596 440.5 616Q400 636 337 636Q274 636 233 616.5Q192 597 168 559.5Q144 522 134.5 466.5Q125 411 125 340Z" glyph-name="Odieresis" horiz-adv-x="672" unicode="&#214;" /><glyph d="M612 340Q612 261 600 196.5Q588 132 557 86Q526 40 472.5 15Q419 -10 337 -10Q254 -10 200.5 14.5Q147 39 116 84.5Q85 130 72.5 194.5Q60 259 60 340Q60 420 72.5 484.5Q85 549 116.5 594Q148 639 201.5 663.5Q255 688 337 688Q419 688 472.5 663.5Q526 639 557 593.5Q588 548 600 483.5Q612 419 612 340ZM125 340Q125 269 134.5 213.5Q144 158 168 120Q192 82 233 62.5Q274 43 337 43Q400 43 440.5 63Q481 83 505 121Q529 159 538 214Q547 269 547 340Q547 410 538 465Q529 520 505 558Q481 596 440.5 616Q400 636 337 636Q274 636 233 616.5Q192 597 168 559.5Q144 522 134.5 466.5Q125 411 125 340ZM180 846H258L366 736H311Z" glyph-name="Ograve" horiz-adv-x="672" unicode="&#210;" /><glyph d="M296 736H249L356 846H427ZM409 736H362L469 846H540ZM612 340Q612 261 600 196.5Q588 132 557 86Q526 40 472.5 15Q419 -10 337 -10Q254 -10 200.5 14.5Q147 39 116 84.5Q85 130 72.5 194.5Q60 259 60 340Q60 420 72.5 484.5Q85 549 116.5 594Q148 639 201.5 663.5Q255 688 337 688Q419 688 472.5 663.5Q526 639 557 593.5Q588 548 600 483.5Q612 419 612 340ZM125 340Q125 269 134.5 213.5Q144 158 168 120Q192 82 233 62.5Q274 43 337 43Q400 43 440.5 63Q481 83 505 121Q529 159 538 214Q547 269 547 340Q547 410 538 465Q529 520 505 558Q481 596 440.5 616Q400 636 337 636Q274 636 233 616.5Q192 597 168 559.5Q144 522 134.5 466.5Q125 411 125 340Z" glyph-name="Ohungarumlaut" horiz-adv-x="672" unicode="&#336;" /><glyph d="M494 777H178V825H494ZM612 340Q612 261 600 196.5Q588 132 557 86Q526 40 472.5 15Q419 -10 337 -10Q254 -10 200.5 14.5Q147 39 116 84.5Q85 130 72.5 194.5Q60 259 60 340Q60 420 72.5 484.5Q85 549 116.5 594Q148 639 201.5 663.5Q255 688 337 688Q419 688 472.5 663.5Q526 639 557 593.5Q588 548 600 483.5Q612 419 612 340ZM125 340Q125 269 134.5 213.5Q144 158 168 120Q192 82 233 62.5Q274 43 337 43Q400 43 440.5 63Q481 83 505 121Q529 159 538 214Q547 269 547 340Q547 410 538 465Q529 520 505 558Q481 596 440.5 616Q400 636 337 636Q274 636 233 616.5Q192 597 168 559.5Q144 522 134.5 466.5Q125 411 125 340Z" glyph-name="Omacron" horiz-adv-x="672" unicode="&#332;" /><glyph d="M510 763Q504 746 494.5 720Q485 694 474 662Q514 644 540.5 613.5Q567 583 583 541.5Q599 500 605.5 449.5Q612 399 612 340Q612 261 600 196.5Q588 132 557 86Q526 40 472.5 15Q419 -10 337 -10Q311 -10 287.5 -7.5Q264 -5 244 0Q234 -26 226.5 -47.5Q219 -69 214 -85H162L197 16Q157 34 130.5 64.5Q104 95 88.5 136.5Q73 178 66.5 229Q60 280 60 340Q60 420 72.5 484.5Q85 549 116.5 594Q148 639 201.5 663.5Q255 688 337 688Q362 688 384 685.5Q406 683 426 678L456 763ZM547 340Q547 438 527.5 506.5Q508 575 455 608Q434 546 408.5 474Q383 402 357.5 328Q332 254 307.5 182.5Q283 111 262 52Q293 43 337 43Q400 43 440.5 63Q481 83 505 121Q529 159 538 214Q547 269 547 340ZM125 340Q125 240 144 172Q163 104 216 71L409 627Q377 636 337 636Q274 636 233 616.5Q192 597 168 559.5Q144 522 134.5 466.5Q125 411 125 340Z" glyph-name="Oslash" horiz-adv-x="672" unicode="&#216;" /><glyph d="M612 340Q612 261 600 196.5Q588 132 557 86Q526 40 472.5 15Q419 -10 337 -10Q254 -10 200.5 14.5Q147 39 116 84.5Q85 130 72.5 194.5Q60 259 60 340Q60 420 72.5 484.5Q85 549 116.5 594Q148 639 201.5 663.5Q255 688 337 688Q419 688 472.5 663.5Q526 639 557 593.5Q588 548 600 483.5Q612 419 612 340ZM125 340Q125 269 134.5 213.5Q144 158 168 120Q192 82 233 62.5Q274 43 337 43Q400 43 440.5 63Q481 83 505 121Q529 159 538 214Q547 269 547 340Q547 410 538 465Q529 520 505 558Q481 596 440.5 616Q400 636 337 636Q274 636 233 616.5Q192 597 168 559.5Q144 522 134.5 466.5Q125 411 125 340ZM408 817Q429 817 452 827Q475 837 494 851V803Q479 792 454.5 781Q430 770 409 770Q389 770 370.5 775Q352 780 334 786.5Q316 793 298 798Q280 803 262 803Q241 803 218.5 792.5Q196 782 176 769V817Q191 828 215.5 839Q240 850 262 850Q281 850 299 845Q317 840 335 833.5Q353 827 371 822Q389 817 408 817Z" glyph-name="Otilde" horiz-adv-x="672" unicode="&#213;" /><glyph d="M302 298Q362 298 394.5 304.5Q427 311 451 335Q470 354 477.5 386Q485 418 485 463Q485 554 450 589Q426 613 394 620.5Q362 628 302 628H157V298ZM157 0H94V678H301Q376 678 422.5 667.5Q469 657 500 626Q526 600 538 559.5Q550 519 550 463Q550 406 538 366Q526 326 500 300Q485 284 466 274Q447 264 423.5 258Q400 252 370 250Q340 248 303 248H157Z" glyph-name="P" horiz-adv-x="584" unicode="P" /><glyph d="M612 340Q612 227 586 145Q560 63 489 24L616 -118H536L428 2Q389 -10 337 -10Q254 -10 200.5 14.5Q147 39 116 84.5Q85 130 72.5 194.5Q60 259 60 340Q60 420 72.5 484.5Q85 549 116.5 594Q148 639 201.5 663.5Q255 688 337 688Q419 688 472.5 663.5Q526 639 557 593.5Q588 548 600 483.5Q612 419 612 340ZM125 340Q125 269 134.5 213.5Q144 158 168 120Q192 82 233 62.5Q274 43 337 43Q400 43 440.5 63Q481 83 505 121Q529 159 538 214Q547 269 547 340Q547 410 538 465Q529 520 505 558Q481 596 440.5 616Q400 636 337 636Q274 636 233 616.5Q192 597 168 559.5Q144 522 134.5 466.5Q125 411 125 340Z" glyph-name="Q" horiz-adv-x="672" unicode="Q" /><glyph d="M316 678Q385 678 429 667.5Q473 657 502 628Q549 581 549 481Q549 429 536.5 393Q524 357 500 333Q477 310 444 298.5Q411 287 366 284L565 0H491L293 282H157V0H94V678ZM157 628V332H319Q369 332 399.5 339.5Q430 347 451 368Q484 401 484 480Q484 521 475.5 548Q467 575 450 592Q429 613 398.5 620.5Q368 628 319 628Z" glyph-name="R" horiz-adv-x="601" unicode="R" /><glyph d="M309 736H254L362 846H440ZM316 678Q385 678 429 667.5Q473 657 502 628Q549 581 549 481Q549 429 536.5 393Q524 357 500 333Q477 310 444 298.5Q411 287 366 284L565 0H491L293 282H157V0H94V678ZM157 628V332H319Q369 332 399.5 339.5Q430 347 451 368Q484 401 484 480Q484 521 475.5 548Q467 575 450 592Q429 613 398.5 620.5Q368 628 319 628Z" glyph-name="Racute" horiz-adv-x="601" unicode="&#340;" /><glyph d="M168 846H226L302 766L377 846H435L327 732H275ZM316 678Q385 678 429 667.5Q473 657 502 628Q549 581 549 481Q549 429 536.5 393Q524 357 500 333Q477 310 444 298.5Q411 287 366 284L565 0H491L293 282H157V0H94V678ZM157 628V332H319Q369 332 399.5 339.5Q430 347 451 368Q484 401 484 480Q484 521 475.5 548Q467 575 450 592Q429 613 398.5 620.5Q368 628 319 628Z" glyph-name="Rcaron" horiz-adv-x="601" unicode="&#344;" /><glyph d="M281 -77H346L282 -240H243ZM316 678Q385 678 429 667.5Q473 657 502 628Q549 581 549 481Q549 429 536.5 393Q524 357 500 333Q477 310 444 298.5Q411 287 366 284L565 0H491L293 282H157V0H94V678ZM157 628V332H319Q369 332 399.5 339.5Q430 347 451 368Q484 401 484 480Q484 521 475.5 548Q467 575 450 592Q429 613 398.5 620.5Q368 628 319 628Z" glyph-name="Rcommaaccent" horiz-adv-x="601" unicode="&#342;" /><glyph d="M257 45Q299 45 335.5 53Q372 61 398 78Q424 95 439 121.5Q454 148 454 185Q454 230 439.5 256.5Q425 283 400.5 297.5Q376 312 343.5 316.5Q311 321 276 322Q236 323 198 330.5Q160 338 130.5 357.5Q101 377 83 412Q65 447 65 503Q65 558 86 594Q107 630 141 651Q175 672 219 680Q263 688 308 688Q322 688 341.5 687Q361 686 382.5 683.5Q404 681 426 676.5Q448 672 468 666V614Q425 628 383.5 632Q342 636 307 636Q270 636 237.5 629Q205 622 181 606.5Q157 591 143.5 566.5Q130 542 130 507Q130 464 144 440Q158 416 182 404Q206 392 237.5 388.5Q269 385 304 383Q344 381 382.5 373Q421 365 451.5 344.5Q482 324 500.5 287Q519 250 519 191Q519 131 495 92Q471 53 433 30.5Q395 8 348 -1Q301 -10 255 -10Q238 -10 215.5 -8.5Q193 -7 168 -4Q143 -1 118 4Q93 9 73 17V72Q95 64 119 59Q143 54 167.5 51Q192 48 215 46.5Q238 45 257 45Z" glyph-name="S" horiz-adv-x="564" unicode="S" /><glyph d="M302 736H247L355 846H433ZM257 45Q299 45 335.5 53Q372 61 398 78Q424 95 439 121.5Q454 148 454 185Q454 230 439.5 256.5Q425 283 400.5 297.5Q376 312 343.5 316.5Q311 321 276 322Q236 323 198 330.5Q160 338 130.5 357.5Q101 377 83 412Q65 447 65 503Q65 558 86 594Q107 630 141 651Q175 672 219 680Q263 688 308 688Q322 688 341.5 687Q361 686 382.5 683.5Q404 681 426 676.5Q448 672 468 666V614Q425 628 383.5 632Q342 636 307 636Q270 636 237.5 629Q205 622 181 606.5Q157 591 143.5 566.5Q130 542 130 507Q130 464 144 440Q158 416 182 404Q206 392 237.5 388.5Q269 385 304 383Q344 381 382.5 373Q421 365 451.5 344.5Q482 324 500.5 287Q519 250 519 191Q519 131 495 92Q471 53 433 30.5Q395 8 348 -1Q301 -10 255 -10Q238 -10 215.5 -8.5Q193 -7 168 -4Q143 -1 118 4Q93 9 73 17V72Q95 64 119 59Q143 54 167.5 51Q192 48 215 46.5Q238 45 257 45Z" glyph-name="Sacute" horiz-adv-x="564" unicode="&#346;" /><glyph d="M146 846H204L280 766L355 846H413L305 732H253ZM257 45Q299 45 335.5 53Q372 61 398 78Q424 95 439 121.5Q454 148 454 185Q454 230 439.5 256.5Q425 283 400.5 297.5Q376 312 343.5 316.5Q311 321 276 322Q236 323 198 330.5Q160 338 130.5 357.5Q101 377 83 412Q65 447 65 503Q65 558 86 594Q107 630 141 651Q175 672 219 680Q263 688 308 688Q322 688 341.5 687Q361 686 382.5 683.5Q404 681 426 676.5Q448 672 468 666V614Q425 628 383.5 632Q342 636 307 636Q270 636 237.5 629Q205 622 181 606.5Q157 591 143.5 566.5Q130 542 130 507Q130 464 144 440Q158 416 182 404Q206 392 237.5 388.5Q269 385 304 383Q344 381 382.5 373Q421 365 451.5 344.5Q482 324 500.5 287Q519 250 519 191Q519 131 495 92Q471 53 433 30.5Q395 8 348 -1Q301 -10 255 -10Q238 -10 215.5 -8.5Q193 -7 168 -4Q143 -1 118 4Q93 9 73 17V72Q95 64 119 59Q143 54 167.5 51Q192 48 215 46.5Q238 45 257 45Z" glyph-name="Scaron" horiz-adv-x="564" unicode="&#352;" /><glyph d="M265 -10H255Q238 -10 215.5 -8.5Q193 -7 168 -4Q143 -1 118 4Q93 9 73 17V72Q95 64 119 59Q143 54 167.5 51Q192 48 215 46.5Q238 45 257 45Q299 45 335.5 53Q372 61 398 78Q424 95 439 121.5Q454 148 454 185Q454 230 439.5 256.5Q425 283 400.5 297.5Q376 312 343.5 316.5Q311 321 276 322Q236 323 198 330.5Q160 338 130.5 357.5Q101 377 83 412Q65 447 65 503Q65 558 86 594Q107 630 141 651Q175 672 219 680Q263 688 308 688Q322 688 341.5 687Q361 686 382.5 683.5Q404 681 426 676.5Q448 672 468 666V614Q425 628 383.5 632Q342 636 307 636Q270 636 237.5 629Q205 622 181 606.5Q157 591 143.5 566.5Q130 542 130 507Q130 464 144 440Q158 416 182 404Q206 392 237.5 388.5Q269 385 304 383Q344 381 382.5 373Q421 365 451.5 344.5Q482 324 500.5 287Q519 250 519 191Q519 141 502 106Q485 71 457.5 47.5Q430 24 393.5 11.5Q357 -1 318 -6L304 -41Q333 -47 351 -61Q369 -75 369 -100Q369 -136 338.5 -153Q308 -170 257 -170Q246 -170 227.5 -168Q209 -166 187 -161V-121Q203 -126 221.5 -127.5Q240 -129 253 -129Q315 -129 315 -97Q315 -89 309 -83Q303 -77 294 -73.5Q285 -70 274.5 -68Q264 -66 254 -65L249 -46Z" glyph-name="Scedilla" horiz-adv-x="564" unicode="&#350;" /><glyph d="M416 736H358L282 816L207 736H149L257 850H309ZM257 45Q299 45 335.5 53Q372 61 398 78Q424 95 439 121.5Q454 148 454 185Q454 230 439.5 256.5Q425 283 400.5 297.5Q376 312 343.5 316.5Q311 321 276 322Q236 323 198 330.5Q160 338 130.5 357.5Q101 377 83 412Q65 447 65 503Q65 558 86 594Q107 630 141 651Q175 672 219 680Q263 688 308 688Q322 688 341.5 687Q361 686 382.5 683.5Q404 681 426 676.5Q448 672 468 666V614Q425 628 383.5 632Q342 636 307 636Q270 636 237.5 629Q205 622 181 606.5Q157 591 143.5 566.5Q130 542 130 507Q130 464 144 440Q158 416 182 404Q206 392 237.5 388.5Q269 385 304 383Q344 381 382.5 373Q421 365 451.5 344.5Q482 324 500.5 287Q519 250 519 191Q519 131 495 92Q471 53 433 30.5Q395 8 348 -1Q301 -10 255 -10Q238 -10 215.5 -8.5Q193 -7 168 -4Q143 -1 118 4Q93 9 73 17V72Q95 64 119 59Q143 54 167.5 51Q192 48 215 46.5Q238 45 257 45Z" glyph-name="Scircumflex" horiz-adv-x="564" unicode="&#348;" /><glyph d="M268 -77H333L269 -240H230ZM257 45Q299 45 335.5 53Q372 61 398 78Q424 95 439 121.5Q454 148 454 185Q454 230 439.5 256.5Q425 283 400.5 297.5Q376 312 343.5 316.5Q311 321 276 322Q236 323 198 330.5Q160 338 130.5 357.5Q101 377 83 412Q65 447 65 503Q65 558 86 594Q107 630 141 651Q175 672 219 680Q263 688 308 688Q322 688 341.5 687Q361 686 382.5 683.5Q404 681 426 676.5Q448 672 468 666V614Q425 628 383.5 632Q342 636 307 636Q270 636 237.5 629Q205 622 181 606.5Q157 591 143.5 566.5Q130 542 130 507Q130 464 144 440Q158 416 182 404Q206 392 237.5 388.5Q269 385 304 383Q344 381 382.5 373Q421 365 451.5 344.5Q482 324 500.5 287Q519 250 519 191Q519 131 495 92Q471 53 433 30.5Q395 8 348 -1Q301 -10 255 -10Q238 -10 215.5 -8.5Q193 -7 168 -4Q143 -1 118 4Q93 9 73 17V72Q95 64 119 59Q143 54 167.5 51Q192 48 215 46.5Q238 45 257 45Z" glyph-name="Scommaaccent" horiz-adv-x="564" unicode="&#536;" /><glyph d="M288 0H226V628H14V678H500V628H288Z" glyph-name="T" horiz-adv-x="514" unicode="T" /><glyph d="M288 371H443V321H288V0H226V321H76V371H226V628H14V678H500V628H288Z" glyph-name="Tbar" horiz-adv-x="514" unicode="&#358;" /><glyph d="M123 846H181L257 766L332 846H390L282 732H230ZM288 0H226V628H14V678H500V628H288Z" glyph-name="Tcaron" horiz-adv-x="514" unicode="&#356;" /><glyph d="M223 -77H288L224 -240H185ZM288 0H226V628H14V678H500V628H288Z" glyph-name="Tcommaaccent" horiz-adv-x="514" unicode="&#354;" /><glyph d="M302 169Q362 169 394.5 175.5Q427 182 451 206Q470 225 477.5 257Q485 289 485 334Q485 425 450 460Q426 484 394 491.5Q362 499 302 499H157V169ZM157 0H94V679H157V549H301Q376 549 422.5 538.5Q469 528 500 497Q526 471 538 430.5Q550 390 550 334Q550 277 538 237Q526 197 500 171Q485 155 466 145Q447 135 423.5 129Q400 123 370 121Q340 119 303 119H157Z" glyph-name="Thorn" horiz-adv-x="584" unicode="&#222;" /><glyph d="M324 -10Q254 -10 208.5 6.5Q163 23 134 52Q100 86 89.5 132.5Q79 179 79 227V678H142V221Q142 206 143.5 188Q145 170 149.5 152Q154 134 162 117Q170 100 184 86Q206 64 238 52Q270 40 324 40Q378 40 410 52Q442 64 464 86Q478 100 486 117Q494 134 498.5 152Q503 170 504.5 188Q506 206 506 221V678H568V227Q568 179 558 132.5Q548 86 514 52Q484 23 438.5 6.5Q393 -10 324 -10Z" glyph-name="U" horiz-adv-x="647" unicode="U" /><glyph d="M345 736H290L398 846H476ZM324 -10Q254 -10 208.5 6.5Q163 23 134 52Q100 86 89.5 132.5Q79 179 79 227V678H142V221Q142 206 143.5 188Q145 170 149.5 152Q154 134 162 117Q170 100 184 86Q206 64 238 52Q270 40 324 40Q378 40 410 52Q442 64 464 86Q478 100 486 117Q494 134 498.5 152Q503 170 504.5 188Q506 206 506 221V678H568V227Q568 179 558 132.5Q548 86 514 52Q484 23 438.5 6.5Q393 -10 324 -10Z" glyph-name="Uacute" horiz-adv-x="647" unicode="&#218;" /><glyph d="M324 -10Q254 -10 208.5 6.5Q163 23 134 52Q100 86 89.5 132.5Q79 179 79 227V678H142V221Q142 206 143.5 188Q145 170 149.5 152Q154 134 162 117Q170 100 184 86Q206 64 238 52Q270 40 324 40Q378 40 410 52Q442 64 464 86Q478 100 486 117Q494 134 498.5 152Q503 170 504.5 188Q506 206 506 221V678H568V227Q568 179 558 132.5Q548 86 514 52Q484 23 438.5 6.5Q393 -10 324 -10ZM323 777Q361 777 393 792Q425 807 433 846H485Q474 786 430.5 760.5Q387 735 323 735Q259 735 215.5 760.5Q172 786 161 846H213Q222 807 253.5 792Q285 777 323 777Z" glyph-name="Ubreve" horiz-adv-x="647" unicode="&#364;" /><glyph d="M457 736H399L323 816L248 736H190L298 850H350ZM324 -10Q254 -10 208.5 6.5Q163 23 134 52Q100 86 89.5 132.5Q79 179 79 227V678H142V221Q142 206 143.5 188Q145 170 149.5 152Q154 134 162 117Q170 100 184 86Q206 64 238 52Q270 40 324 40Q378 40 410 52Q442 64 464 86Q478 100 486 117Q494 134 498.5 152Q503 170 504.5 188Q506 206 506 221V678H568V227Q568 179 558 132.5Q548 86 514 52Q484 23 438.5 6.5Q393 -10 324 -10Z" glyph-name="Ucircumflex" horiz-adv-x="647" unicode="&#219;" /><glyph d="M274 765H212V840H274ZM436 765H374V840H436ZM324 -10Q254 -10 208.5 6.5Q163 23 134 52Q100 86 89.5 132.5Q79 179 79 227V678H142V221Q142 206 143.5 188Q145 170 149.5 152Q154 134 162 117Q170 100 184 86Q206 64 238 52Q270 40 324 40Q378 40 410 52Q442 64 464 86Q478 100 486 117Q494 134 498.5 152Q503 170 504.5 188Q506 206 506 221V678H568V227Q568 179 558 132.5Q548 86 514 52Q484 23 438.5 6.5Q393 -10 324 -10Z" glyph-name="Udieresis" horiz-adv-x="647" unicode="&#220;" /><glyph d="M324 -10Q254 -10 208.5 6.5Q163 23 134 52Q100 86 89.5 132.5Q79 179 79 227V678H142V221Q142 206 143.5 188Q145 170 149.5 152Q154 134 162 117Q170 100 184 86Q206 64 238 52Q270 40 324 40Q378 40 410 52Q442 64 464 86Q478 100 486 117Q494 134 498.5 152Q503 170 504.5 188Q506 206 506 221V678H568V227Q568 179 558 132.5Q548 86 514 52Q484 23 438.5 6.5Q393 -10 324 -10ZM177 846H255L363 736H308Z" glyph-name="Ugrave" horiz-adv-x="647" unicode="&#217;" /><glyph d="M324 -10Q254 -10 208.5 6.5Q163 23 134 52Q100 86 89.5 132.5Q79 179 79 227V678H142V221Q142 206 143.5 188Q145 170 149.5 152Q154 134 162 117Q170 100 184 86Q206 64 238 52Q270 40 324 40Q378 40 410 52Q442 64 464 86Q478 100 486 117Q494 134 498.5 152Q503 170 504.5 188Q506 206 506 221V678H568V227Q568 179 558 132.5Q548 86 514 52Q484 23 438.5 6.5Q393 -10 324 -10ZM274 736H227L334 846H405ZM387 736H340L447 846H518Z" glyph-name="Uhungarumlaut" horiz-adv-x="647" unicode="&#368;" /><glyph d="M324 -10Q254 -10 208.5 6.5Q163 23 134 52Q100 86 89.5 132.5Q79 179 79 227V678H142V221Q142 206 143.5 188Q145 170 149.5 152Q154 134 162 117Q170 100 184 86Q206 64 238 52Q270 40 324 40Q378 40 410 52Q442 64 464 86Q478 100 486 117Q494 134 498.5 152Q503 170 504.5 188Q506 206 506 221V678H568V227Q568 179 558 132.5Q548 86 514 52Q484 23 438.5 6.5Q393 -10 324 -10ZM482 777H166V825H482Z" glyph-name="Umacron" horiz-adv-x="647" unicode="&#362;" /><glyph d="M258 -91Q258 -69 269.5 -47.5Q281 -26 300 -9Q240 -7 200 9Q160 25 134 52Q100 86 89.5 132.5Q79 179 79 227V678H142V221Q142 206 143.5 188Q145 170 149.5 152Q154 134 162 117Q170 100 184 86Q206 64 238 52Q270 40 324 40Q378 40 410 52Q442 64 464 86Q478 100 486 117Q494 134 498.5 152Q503 170 504.5 188Q506 206 506 221V678H568V227Q568 179 558 132.5Q548 86 514 52Q488 26 450 10.5Q412 -5 356 -9Q333 -26 321.5 -46.5Q310 -67 310 -84Q310 -102 322 -115.5Q334 -129 366 -129Q379 -129 393.5 -127.5Q408 -126 424 -121V-161Q410 -166 391 -168Q372 -170 357 -170Q302 -170 280 -147Q258 -124 258 -91Z" glyph-name="Uogonek" horiz-adv-x="647" unicode="&#370;" /><glyph d="M368 810Q368 850 324 850Q280 850 280 810Q280 772 324 772Q368 772 368 810ZM408 810Q408 774 386.5 757Q365 740 324 740Q284 740 262 757Q240 774 240 810Q240 847 262 864Q284 881 324 881Q365 881 386.5 864Q408 847 408 810ZM324 -10Q254 -10 208.5 6.5Q163 23 134 52Q100 86 89.5 132.5Q79 179 79 227V678H142V221Q142 206 143.5 188Q145 170 149.5 152Q154 134 162 117Q170 100 184 86Q206 64 238 52Q270 40 324 40Q378 40 410 52Q442 64 464 86Q478 100 486 117Q494 134 498.5 152Q503 170 504.5 188Q506 206 506 221V678H568V227Q568 179 558 132.5Q548 86 514 52Q484 23 438.5 6.5Q393 -10 324 -10Z" glyph-name="Uring" horiz-adv-x="647" unicode="&#366;" /><glyph d="M324 -10Q254 -10 208.5 6.5Q163 23 134 52Q100 86 89.5 132.5Q79 179 79 227V678H142V221Q142 206 143.5 188Q145 170 149.5 152Q154 134 162 117Q170 100 184 86Q206 64 238 52Q270 40 324 40Q378 40 410 52Q442 64 464 86Q478 100 486 117Q494 134 498.5 152Q503 170 504.5 188Q506 206 506 221V678H568V227Q568 179 558 132.5Q548 86 514 52Q484 23 438.5 6.5Q393 -10 324 -10ZM396 817Q417 817 440 827Q463 837 482 851V803Q467 792 442.5 781Q418 770 397 770Q377 770 358.5 775Q340 780 322 786.5Q304 793 286 798Q268 803 250 803Q229 803 206.5 792.5Q184 782 164 769V817Q179 828 203.5 839Q228 850 250 850Q269 850 287 845Q305 840 323 833.5Q341 827 359 822Q377 817 396 817Z" glyph-name="Utilde" horiz-adv-x="647" unicode="&#360;" /><glyph d="M567 678 330 0H251L13 678H79L290 63H293L503 678Z" glyph-name="V" horiz-adv-x="580" unicode="V" /><glyph d="M459 485 284 0H213L18 678H81L251 72H253L429 569L388 678H452L670 73H672L843 678H905L710 0H639L462 485Z" glyph-name="W" horiz-adv-x="923" unicode="W" /><glyph d="M453 736H398L506 846H584ZM464 485 289 0H218L23 678H86L256 72H258L434 569L393 678H457L675 73H677L848 678H910L715 0H644L467 485Z" glyph-name="Wacute" horiz-adv-x="922" unicode="&#7810;" /><glyph d="M594 736H536L460 816L385 736H327L435 850H487ZM464 485 289 0H218L23 678H86L256 72H258L434 569L393 678H457L675 73H677L848 678H910L715 0H644L467 485Z" glyph-name="Wcircumflex" horiz-adv-x="922" unicode="&#372;" /><glyph d="M411 765H349V840H411ZM573 765H511V840H573ZM464 485 289 0H218L23 678H86L256 72H258L434 569L393 678H457L675 73H677L848 678H910L715 0H644L467 485Z" glyph-name="Wdieresis" horiz-adv-x="922" unicode="&#7812;" /><glyph d="M464 485 289 0H218L23 678H86L256 72H258L434 569L393 678H457L675 73H677L848 678H910L715 0H644L467 485ZM261 846H339L447 736H392Z" glyph-name="Wgrave" horiz-adv-x="922" unicode="&#7808;" /><glyph d="M91 678 270 393 450 678H520L306 343L527 0H458L270 293L83 0H13L235 343L21 678Z" glyph-name="X" horiz-adv-x="540" unicode="X" /><glyph d="M278 331H279L487 678H552L309 275V0H247V274L8 678H77Z" glyph-name="Y" horiz-adv-x="560" unicode="Y" /><glyph d="M278 331H279L487 678H552L309 275V0H247V274L8 678H77ZM299 736H244L352 846H430Z" glyph-name="Yacute" horiz-adv-x="560" unicode="&#221;" /><glyph d="M278 331H279L487 678H552L309 275V0H247V274L8 678H77ZM413 736H355L279 816L204 736H146L254 850H306Z" glyph-name="Ycircumflex" horiz-adv-x="560" unicode="&#374;" /><glyph d="M278 331H279L487 678H552L309 275V0H247V274L8 678H77ZM230 765H168V840H230ZM392 765H330V840H392Z" glyph-name="Ydieresis" horiz-adv-x="560" unicode="&#376;" /><glyph d="M487 630 117 51V50H487V0H45V48L414 627V628H59V678H487Z" glyph-name="Z" horiz-adv-x="532" unicode="Z" /><glyph d="M283 736H228L336 846H414ZM487 630 117 51V50H487V0H45V48L414 627V628H59V678H487Z" glyph-name="Zacute" horiz-adv-x="532" unicode="&#377;" /><glyph d="M139 846H197L273 766L348 846H406L298 732H246ZM487 630 117 51V50H487V0H45V48L414 627V628H59V678H487Z" glyph-name="Zcaron" horiz-adv-x="532" unicode="&#142;" /><glyph d="M487 630 117 51V50H487V0H45V48L414 627V628H59V678H487ZM304 764H240V845H304Z" glyph-name="Zdotaccent" horiz-adv-x="532" unicode="&#379;" /><glyph d="M277 296Q292 296 320 295Q348 294 374 292V368Q374 403 366.5 423.5Q359 444 343.5 454.5Q328 465 303 468Q278 471 242 471Q214 471 173.5 467.5Q133 464 89 454V503Q108 508 130 511Q152 514 173.5 516Q195 518 215 518.5Q235 519 250 519Q296 519 330 513Q364 507 386.5 491Q409 475 420 446.5Q431 418 431 372V0H389L382 54H381Q346 24 306 8Q266 -8 219 -8Q181 -8 146.5 2.5Q112 13 89 36Q50 75 50 142Q50 179 59.5 204.5Q69 230 87 248Q117 277 166.5 286.5Q216 296 277 296ZM374 245Q348 248 322 249Q296 250 281 250Q220 250 186.5 243Q153 236 133 216Q122 205 116 187Q110 169 110 141Q110 113 119 94Q128 75 144 63.5Q160 52 181.5 47Q203 42 228 42Q278 42 313 59.5Q348 77 374 106Z" glyph-name="a" horiz-adv-x="511" unicode="a" /><glyph d="M277 296Q292 296 320 295Q348 294 374 292V368Q374 403 366.5 423.5Q359 444 343.5 454.5Q328 465 303 468Q278 471 242 471Q214 471 173.5 467.5Q133 464 89 454V503Q108 508 130 511Q152 514 173.5 516Q195 518 215 518.5Q235 519 250 519Q296 519 330 513Q364 507 386.5 491Q409 475 420 446.5Q431 418 431 372V0H389L382 54H381Q346 24 306 8Q266 -8 219 -8Q181 -8 146.5 2.5Q112 13 89 36Q50 75 50 142Q50 179 59.5 204.5Q69 230 87 248Q117 277 166.5 286.5Q216 296 277 296ZM374 245Q348 248 322 249Q296 250 281 250Q220 250 186.5 243Q153 236 133 216Q122 205 116 187Q110 169 110 141Q110 113 119 94Q128 75 144 63.5Q160 52 181.5 47Q203 42 228 42Q278 42 313 59.5Q348 77 374 106ZM269 568H214L322 678H400Z" glyph-name="aacute" horiz-adv-x="511" unicode="&#225;" /><glyph d="M277 296Q292 296 320 295Q348 294 374 292V368Q374 403 366.5 423.5Q359 444 343.5 454.5Q328 465 303 468Q278 471 242 471Q214 471 173.5 467.5Q133 464 89 454V503Q108 508 130 511Q152 514 173.5 516Q195 518 215 518.5Q235 519 250 519Q296 519 330 513Q364 507 386.5 491Q409 475 420 446.5Q431 418 431 372V0H389L382 54H381Q346 24 306 8Q266 -8 219 -8Q181 -8 146.5 2.5Q112 13 89 36Q50 75 50 142Q50 179 59.5 204.5Q69 230 87 248Q117 277 166.5 286.5Q216 296 277 296ZM374 245Q348 248 322 249Q296 250 281 250Q220 250 186.5 243Q153 236 133 216Q122 205 116 187Q110 169 110 141Q110 113 119 94Q128 75 144 63.5Q160 52 181.5 47Q203 42 228 42Q278 42 313 59.5Q348 77 374 106ZM260 609Q298 609 330 624Q362 639 370 678H422Q411 618 367.5 592.5Q324 567 260 567Q196 567 152.5 592.5Q109 618 98 678H150Q159 639 190.5 624Q222 609 260 609Z" glyph-name="abreve" horiz-adv-x="511" unicode="&#259;" /><glyph d="M277 296Q292 296 320 295Q348 294 374 292V368Q374 403 366.5 423.5Q359 444 343.5 454.5Q328 465 303 468Q278 471 242 471Q214 471 173.5 467.5Q133 464 89 454V503Q108 508 130 511Q152 514 173.5 516Q195 518 215 518.5Q235 519 250 519Q296 519 330 513Q364 507 386.5 491Q409 475 420 446.5Q431 418 431 372V0H389L382 54H381Q346 24 306 8Q266 -8 219 -8Q181 -8 146.5 2.5Q112 13 89 36Q50 75 50 142Q50 179 59.5 204.5Q69 230 87 248Q117 277 166.5 286.5Q216 296 277 296ZM374 245Q348 248 322 249Q296 250 281 250Q220 250 186.5 243Q153 236 133 216Q122 205 116 187Q110 169 110 141Q110 113 119 94Q128 75 144 63.5Q160 52 181.5 47Q203 42 228 42Q278 42 313 59.5Q348 77 374 106ZM392 568H334L258 648L183 568H125L233 682H285Z" glyph-name="acircumflex" horiz-adv-x="511" unicode="&#226;" /><glyph d="M299 568H244L352 678H430Z" glyph-name="acute" horiz-adv-x="600" unicode="&#180;" /><glyph d="M277 296Q292 296 320 295Q348 294 374 292V368Q374 403 366.5 423.5Q359 444 343.5 454.5Q328 465 303 468Q278 471 242 471Q214 471 173.5 467.5Q133 464 89 454V503Q108 508 130 511Q152 514 173.5 516Q195 518 215 518.5Q235 519 250 519Q296 519 330 513Q364 507 386.5 491Q409 475 420 446.5Q431 418 431 372V0H389L382 54H381Q346 24 306 8Q266 -8 219 -8Q181 -8 146.5 2.5Q112 13 89 36Q50 75 50 142Q50 179 59.5 204.5Q69 230 87 248Q117 277 166.5 286.5Q216 296 277 296ZM374 245Q348 248 322 249Q296 250 281 250Q220 250 186.5 243Q153 236 133 216Q122 205 116 187Q110 169 110 141Q110 113 119 94Q128 75 144 63.5Q160 52 181.5 47Q203 42 228 42Q278 42 313 59.5Q348 77 374 106ZM204 597H142V672H204ZM366 597H304V672H366Z" glyph-name="adieresis" horiz-adv-x="511" unicode="&#228;" /><glyph d="M437 249Q438 189 449.5 147Q461 105 487 79Q508 58 539.5 49Q571 40 615 40Q648 40 685 44.5Q722 49 762 64V14Q728 1 685 -4Q642 -9 607 -9Q537 -9 490 11.5Q443 32 415 77Q395 53 371 37Q347 21 321 11Q295 1 269 -3.5Q243 -8 219 -8Q181 -8 146.5 2.5Q112 13 89 36Q50 75 50 142Q50 179 59.5 204.5Q69 230 87 248Q117 277 166.5 286.5Q216 296 277 296Q290 296 319 294.5Q348 293 374 292V367Q374 402 366.5 422.5Q359 443 343 454Q327 465 302 468Q277 471 242 471Q214 471 173.5 467.5Q133 464 89 454V503Q108 508 130 511Q152 514 173.5 516Q195 518 215 518.5Q235 519 250 519Q328 519 366.5 501Q405 483 419 431H420Q448 478 491 498.5Q534 519 592 519Q696 519 740 465Q784 411 784 308Q784 302 783 284Q782 266 780 249ZM395 123Q394 125 393.5 126.5Q393 128 392 130Q384 153 381 180.5Q378 208 377 241V244Q351 247 323 248.5Q295 250 281 250Q220 250 186.5 243Q153 236 133 216Q122 205 116 187Q110 169 110 141Q110 113 119 94Q128 75 144 63.5Q160 52 181.5 47Q203 42 228 42Q276 42 320 63.5Q364 85 395 123ZM592 471Q560 471 533.5 462.5Q507 454 487 434Q446 393 439 296H727Q728 306 728 310.5Q728 315 728 319Q728 359 720 389Q712 419 692 438Q659 471 592 471Z" glyph-name="ae" horiz-adv-x="840" unicode="&#230;" /><glyph d="M277 296Q292 296 320 295Q348 294 374 292V368Q374 403 366.5 423.5Q359 444 343.5 454.5Q328 465 303 468Q278 471 242 471Q214 471 173.5 467.5Q133 464 89 454V503Q108 508 130 511Q152 514 173.5 516Q195 518 215 518.5Q235 519 250 519Q296 519 330 513Q364 507 386.5 491Q409 475 420 446.5Q431 418 431 372V0H389L382 54H381Q346 24 306 8Q266 -8 219 -8Q181 -8 146.5 2.5Q112 13 89 36Q50 75 50 142Q50 179 59.5 204.5Q69 230 87 248Q117 277 166.5 286.5Q216 296 277 296ZM374 245Q348 248 322 249Q296 250 281 250Q220 250 186.5 243Q153 236 133 216Q122 205 116 187Q110 169 110 141Q110 113 119 94Q128 75 144 63.5Q160 52 181.5 47Q203 42 228 42Q278 42 313 59.5Q348 77 374 106ZM119 678H197L305 568H250Z" glyph-name="agrave" horiz-adv-x="511" unicode="&#224;" /><glyph d="M277 296Q292 296 320 295Q348 294 374 292V368Q374 403 366.5 423.5Q359 444 343.5 454.5Q328 465 303 468Q278 471 242 471Q214 471 173.5 467.5Q133 464 89 454V503Q108 508 130 511Q152 514 173.5 516Q195 518 215 518.5Q235 519 250 519Q296 519 330 513Q364 507 386.5 491Q409 475 420 446.5Q431 418 431 372V0H389L382 54H381Q346 24 306 8Q266 -8 219 -8Q181 -8 146.5 2.5Q112 13 89 36Q50 75 50 142Q50 179 59.5 204.5Q69 230 87 248Q117 277 166.5 286.5Q216 296 277 296ZM374 245Q348 248 322 249Q296 250 281 250Q220 250 186.5 243Q153 236 133 216Q122 205 116 187Q110 169 110 141Q110 113 119 94Q128 75 144 63.5Q160 52 181.5 47Q203 42 228 42Q278 42 313 59.5Q348 77 374 106ZM413 609H97V657H413Z" glyph-name="amacron" horiz-adv-x="511" unicode="&#257;" /><glyph d="M467 321H304Q269 321 237.5 310.5Q206 300 180 274Q163 257 153.5 232.5Q144 208 144 176Q144 107 183 76Q222 45 291 45Q344 45 391 64.5Q438 84 467 130ZM479 69Q442 27 390.5 8.5Q339 -10 284 -10Q241 -10 203.5 1.5Q166 13 138.5 36Q111 59 95.5 94Q80 129 80 176Q80 212 90.5 240Q101 268 118 289Q135 310 156.5 324.5Q178 339 201 348V349Q158 372 127 413Q96 454 96 516Q96 594 146.5 640Q197 686 303 687Q324 687 357.5 684.5Q391 682 416 675V623Q390 629 361.5 632Q333 635 311 635Q267 635 238 625Q209 615 192 598Q175 581 167.5 558Q160 535 160 509Q160 479 170.5 455.5Q181 432 198 414Q221 391 253.5 381Q286 371 323 371H472L486 484H525L524 370H652V321H524V144Q524 115 528 95.5Q532 76 541.5 64Q551 52 568.5 46.5Q586 41 613 41Q629 41 646.5 43.5Q664 46 677 51V3Q658 -4 638 -6Q618 -8 598 -8Q543 -8 517 13Q491 34 480 69Z" glyph-name="ampersand" horiz-adv-x="725" unicode="&amp;" /><glyph d="M277 296Q292 296 320 295Q348 294 374 292V368Q374 403 366.5 423.5Q359 444 343.5 454.5Q328 465 303 468Q278 471 242 471Q214 471 173.5 467.5Q133 464 89 454V503Q108 508 130 511Q152 514 173.5 516Q195 518 215 518.5Q235 519 250 519Q296 519 330 513Q364 507 386.5 491Q409 475 420 446.5Q431 418 431 372V0Q400 -18 385.5 -41Q371 -64 371 -83Q371 -100 382.5 -114.5Q394 -129 426 -129Q440 -129 454 -127Q468 -125 485 -120V-161Q471 -166 452 -168Q433 -170 418 -170Q363 -170 340.5 -147Q318 -124 318 -91Q318 -65 337 -37.5Q356 -10 388 9L382 54H381Q346 24 306 8Q266 -8 219 -8Q181 -8 146.5 2.5Q112 13 89 36Q50 75 50 142Q50 179 59.5 204.5Q69 230 87 248Q117 277 166.5 286.5Q216 296 277 296ZM374 245Q348 248 322 249Q296 250 281 250Q220 250 186.5 243Q153 236 133 216Q122 205 116 187Q110 169 110 141Q110 113 119 94Q128 75 144 63.5Q160 52 181.5 47Q203 42 228 42Q278 42 313 59.5Q348 77 374 106Z" glyph-name="aogonek" horiz-adv-x="511" unicode="&#261;" /><glyph d="M407 373Q436 373 469 383Q502 393 533 413V361Q507 343 472.5 333Q438 323 406 323Q378 323 350.5 329.5Q323 336 295.5 343.5Q268 351 240.5 357.5Q213 364 186 364Q157 364 124 354Q91 344 60 324V375Q86 393 120.5 403.5Q155 414 187 414Q215 414 242.5 407.5Q270 401 297.5 393.5Q325 386 352.5 379.5Q380 373 407 373ZM407 183Q436 183 469 193Q502 203 533 223V171Q507 153 472.5 143Q438 133 406 133Q378 133 350.5 139.5Q323 146 295.5 153.5Q268 161 240.5 167.5Q213 174 186 174Q157 174 124 164Q91 154 60 134V185Q86 203 120.5 213.5Q155 224 187 224Q215 224 242.5 217.5Q270 211 297.5 203.5Q325 196 352.5 189.5Q380 183 407 183Z" glyph-name="approxequal" horiz-adv-x="593" unicode="&#8776;" /><glyph d="M277 296Q292 296 320 295Q348 294 374 292V368Q374 403 366.5 423.5Q359 444 343.5 454.5Q328 465 303 468Q278 471 242 471Q214 471 173.5 467.5Q133 464 89 454V503Q108 508 130 511Q152 514 173.5 516Q195 518 215 518.5Q235 519 250 519Q296 519 330 513Q364 507 386.5 491Q409 475 420 446.5Q431 418 431 372V0H389L382 54H381Q346 24 306 8Q266 -8 219 -8Q181 -8 146.5 2.5Q112 13 89 36Q50 75 50 142Q50 179 59.5 204.5Q69 230 87 248Q117 277 166.5 286.5Q216 296 277 296ZM374 245Q348 248 322 249Q296 250 281 250Q220 250 186.5 243Q153 236 133 216Q122 205 116 187Q110 169 110 141Q110 113 119 94Q128 75 144 63.5Q160 52 181.5 47Q203 42 228 42Q278 42 313 59.5Q348 77 374 106ZM302 642Q302 682 258 682Q214 682 214 642Q214 604 258 604Q302 604 302 642ZM342 642Q342 606 320.5 589Q299 572 258 572Q218 572 196 589Q174 606 174 642Q174 679 196 696Q218 713 258 713Q299 713 320.5 696Q342 679 342 642Z" glyph-name="aring" horiz-adv-x="511" unicode="&#229;" /><glyph d="M243 630 104 394H54L223 678H263L432 394H382Z" glyph-name="asciicircum" horiz-adv-x="486" unicode="^" /><glyph d="M407 350Q436 350 469 359.5Q502 369 533 389V337Q507 320 472.5 310Q438 300 406 300Q378 300 350.5 306Q323 312 295.5 319.5Q268 327 240.5 333.5Q213 340 186 340Q157 340 124 330.5Q91 321 60 301V352Q86 369 120.5 379.5Q155 390 187 390Q215 390 242.5 383.5Q270 377 297.5 369.5Q325 362 352.5 356Q380 350 407 350Z" glyph-name="asciitilde" horiz-adv-x="593" unicode="~" /><glyph d="M276 728H317L318 579L460 624L472 586L330 538L416 418L384 394L297 512L210 394L177 418L264 538L121 586L133 624L275 579Z" glyph-name="asterisk" horiz-adv-x="592" unicode="*" /><glyph d="M482 327Q456 333 433 333Q403 333 379 321Q355 309 339 288.5Q323 268 314.5 241Q306 214 306 185Q306 156 317.5 134Q329 112 363 112Q374 112 387 115Q400 118 412.5 127.5Q425 137 436 154.5Q447 172 454 202ZM466 126Q452 105 436.5 93Q421 81 406.5 75.5Q392 70 379 68.5Q366 67 356 67Q312 67 283 95.5Q254 124 254 185Q254 225 266 260Q278 295 301 321Q324 347 358 362Q392 377 436 377Q467 377 494.5 372.5Q522 368 541 363L513 228Q508 206 506 183Q504 160 509 140.5Q514 121 528.5 108.5Q543 96 573 96Q629 96 655 138Q681 180 681 247Q681 309 665 360.5Q649 412 616.5 449.5Q584 487 534 507.5Q484 528 415 528Q344 528 288.5 506Q233 484 195.5 443.5Q158 403 138.5 346.5Q119 290 119 221Q119 72 198 -5.5Q277 -83 418 -83Q449 -83 480.5 -76.5Q512 -70 535 -59V-105Q514 -115 482.5 -120.5Q451 -126 418 -126Q337 -126 272.5 -104Q208 -82 163.5 -38Q119 6 95 70.5Q71 135 71 221Q71 300 94 364.5Q117 429 160.5 475Q204 521 268 545.5Q332 570 415 570Q496 570 555 547Q614 524 653 482Q692 440 711 381Q730 322 730 250Q730 155 687.5 104.5Q645 54 570 54Q532 54 503 72.5Q474 91 467 126Z" glyph-name="at" horiz-adv-x="795" unicode="@" /><glyph d="M277 296Q292 296 320 295Q348 294 374 292V368Q374 403 366.5 423.5Q359 444 343.5 454.5Q328 465 303 468Q278 471 242 471Q214 471 173.5 467.5Q133 464 89 454V503Q108 508 130 511Q152 514 173.5 516Q195 518 215 518.5Q235 519 250 519Q296 519 330 513Q364 507 386.5 491Q409 475 420 446.5Q431 418 431 372V0H389L382 54H381Q346 24 306 8Q266 -8 219 -8Q181 -8 146.5 2.5Q112 13 89 36Q50 75 50 142Q50 179 59.5 204.5Q69 230 87 248Q117 277 166.5 286.5Q216 296 277 296ZM374 245Q348 248 322 249Q296 250 281 250Q220 250 186.5 243Q153 236 133 216Q122 205 116 187Q110 169 110 141Q110 113 119 94Q128 75 144 63.5Q160 52 181.5 47Q203 42 228 42Q278 42 313 59.5Q348 77 374 106ZM330 649Q351 649 374 659Q397 669 416 683V635Q401 624 376.5 613Q352 602 331 602Q311 602 292.5 607Q274 612 256 618.5Q238 625 220 630Q202 635 184 635Q163 635 140.5 624.5Q118 614 98 601V649Q113 660 137.5 671Q162 682 184 682Q203 682 221 677Q239 672 257 665.5Q275 659 293 654Q311 649 330 649Z" glyph-name="atilde" horiz-adv-x="511" unicode="&#227;" /><glyph d="M136 36 129 0H89V678H146V453H147Q182 488 221.5 503Q261 518 304 518Q408 518 459 456.5Q510 395 510 258Q510 120 451 56Q392 -8 281 -8Q246 -8 207 2Q168 12 137 36ZM146 85Q169 62 203 51.5Q237 41 275 41Q316 41 348.5 52Q381 63 404 88.5Q427 114 439 154.5Q451 195 451 255Q451 370 413 419.5Q375 469 296 469Q209 469 146 390Z" glyph-name="b" horiz-adv-x="569" unicode="b" /><glyph d="M-10 763H44L337 -85H284Z" glyph-name="backslash" horiz-adv-x="327" unicode="\" /><glyph d="M272 -85H222V763H272Z" glyph-name="bar" horiz-adv-x="494" unicode="|" /><glyph d="M72 305V321L121 363Q120 388 117 419.5Q114 451 111 482Q108 513 105.5 541Q103 569 103 588Q103 625 109.5 651.5Q116 678 133.5 695.5Q151 713 180.5 721.5Q210 730 257 730Q267 730 272 729V682H265Q229 682 208 676.5Q187 671 176 660.5Q165 650 162 632.5Q159 615 159 591Q159 564 161.5 533.5Q164 503 167.5 473Q171 443 173.5 416.5Q176 390 176 372Q176 355 167 338.5Q158 322 145 313Q159 298 167.5 283Q176 268 176 251Q176 232 173.5 204Q171 176 167.5 144.5Q164 113 161.5 81Q159 49 159 22Q159 -3 162 -20Q165 -37 176 -48Q187 -59 208 -64.5Q229 -70 265 -70H272V-117Q267 -118 257 -118Q210 -118 180.5 -109.5Q151 -101 133.5 -83.5Q116 -66 109.5 -39.5Q103 -13 103 24Q103 43 105.5 73.5Q108 104 111 137.5Q114 171 117 204Q120 237 121 262Z" glyph-name="braceleft" horiz-adv-x="320" unicode="{" /><glyph d="M248 305 199 262Q200 237 203 204Q206 171 209 137.5Q212 104 214.5 73.5Q217 43 217 24Q217 -13 210.5 -39.5Q204 -66 186.5 -83.5Q169 -101 139 -109.5Q109 -118 63 -118Q53 -118 48 -117V-70H55Q91 -70 112 -64.5Q133 -59 144 -48Q155 -37 158 -20Q161 -3 161 22Q161 49 158.5 81Q156 113 152.5 144.5Q149 176 146.5 204Q144 232 144 251Q144 268 152 282.5Q160 297 175 313Q162 323 153 338.5Q144 354 144 372Q144 390 146.5 416.5Q149 443 152.5 473Q156 503 158.5 533.5Q161 564 161 591Q161 615 158 632.5Q155 650 144 660.5Q133 671 112 676.5Q91 682 55 682H48V729Q53 730 63 730Q109 730 139 721.5Q169 713 186.5 695.5Q204 678 210.5 651.5Q217 625 217 588Q217 569 214.5 541Q212 513 209 482Q206 451 203 419.5Q200 388 199 363L248 321Z" glyph-name="braceright" horiz-adv-x="320" unicode="}" /><glyph d="M273 -118H106V730H273V682H163V-70H273Z" glyph-name="bracketleft" horiz-adv-x="321" unicode="[" /><glyph d="M48 -70H158V682H48V730H215V-118H48Z" glyph-name="bracketright" horiz-adv-x="321" unicode="]" /><glyph d="M300 609Q338 609 370 624Q402 639 410 678H462Q451 618 407.5 592.5Q364 567 300 567Q236 567 192.5 592.5Q149 618 138 678H190Q199 639 230.5 624Q262 609 300 609Z" glyph-name="breve" horiz-adv-x="600" unicode="&#728;" /><glyph d="M213 343Q213 380 238.5 405.5Q264 431 301 431Q339 431 364.5 405.5Q390 380 390 343Q390 306 364.5 280.5Q339 255 301 255Q264 255 238.5 280.5Q213 306 213 343Z" glyph-name="bullet" horiz-adv-x="603" unicode="&#8226;" /><glyph d="M421 14Q385 1 351 -4Q317 -9 284 -9Q169 -9 114 53Q59 115 59 255Q59 319 71 368.5Q83 418 109.5 451.5Q136 485 179 502Q222 519 284 519Q310 519 340.5 516.5Q371 514 404 503V454Q373 465 344 468Q315 471 289 471Q248 471 218.5 461.5Q189 452 168 431Q142 405 130.5 361Q119 317 119 255Q119 191 131 149Q143 107 171 79Q191 59 220.5 50.5Q250 42 289 42Q317 42 351.5 47.5Q386 53 421 66Z" glyph-name="c" horiz-adv-x="461" unicode="c" /><glyph d="M278 568H223L331 678H409ZM421 14Q385 1 351 -4Q317 -9 284 -9Q169 -9 114 53Q59 115 59 255Q59 319 71 368.5Q83 418 109.5 451.5Q136 485 179 502Q222 519 284 519Q310 519 340.5 516.5Q371 514 404 503V454Q373 465 344 468Q315 471 289 471Q248 471 218.5 461.5Q189 452 168 431Q142 405 130.5 361Q119 317 119 255Q119 191 131 149Q143 107 171 79Q191 59 220.5 50.5Q250 42 289 42Q317 42 351.5 47.5Q386 53 421 66Z" glyph-name="cacute" horiz-adv-x="461" unicode="&#263;" /><glyph d="M170 678H228L304 598L379 678H437L329 564H277Z" glyph-name="caron" horiz-adv-x="600" unicode="&#711;" /><glyph d="M125 678H183L259 598L334 678H392L284 564H232ZM421 14Q385 1 351 -4Q317 -9 284 -9Q169 -9 114 53Q59 115 59 255Q59 319 71 368.5Q83 418 109.5 451.5Q136 485 179 502Q222 519 284 519Q310 519 340.5 516.5Q371 514 404 503V454Q373 465 344 468Q315 471 289 471Q248 471 218.5 461.5Q189 452 168 431Q142 405 130.5 361Q119 317 119 255Q119 191 131 149Q143 107 171 79Q191 59 220.5 50.5Q250 42 289 42Q317 42 351.5 47.5Q386 53 421 66Z" glyph-name="ccaron" horiz-adv-x="461" unicode="&#269;" /><glyph d="M249 -7Q152 1 105.5 63.5Q59 126 59 255Q59 319 71 368.5Q83 418 109.5 451.5Q136 485 179 502Q222 519 284 519Q310 519 340.5 516.5Q371 514 404 503V454Q373 465 344 468Q315 471 289 471Q248 471 218.5 461.5Q189 452 168 431Q142 405 130.5 361Q119 317 119 255Q119 191 131 149Q143 107 171 79Q191 59 220.5 50.5Q250 42 289 42Q317 42 351.5 47.5Q386 53 421 66V14Q389 3 359 -2Q329 -7 300 -9L287 -41Q316 -47 334 -61Q352 -75 352 -100Q352 -136 321.5 -153Q291 -170 240 -170Q229 -170 210.5 -168Q192 -166 170 -161V-121Q186 -126 204.5 -127.5Q223 -129 236 -129Q298 -129 298 -97Q298 -89 292 -83Q286 -77 277 -73.5Q268 -70 257.5 -68Q247 -66 237 -65L232 -46Z" glyph-name="ccedilla" horiz-adv-x="461" unicode="&#231;" /><glyph d="M392 568H334L258 648L183 568H125L233 682H285ZM421 14Q385 1 351 -4Q317 -9 284 -9Q169 -9 114 53Q59 115 59 255Q59 319 71 368.5Q83 418 109.5 451.5Q136 485 179 502Q222 519 284 519Q310 519 340.5 516.5Q371 514 404 503V454Q373 465 344 468Q315 471 289 471Q248 471 218.5 461.5Q189 452 168 431Q142 405 130.5 361Q119 317 119 255Q119 191 131 149Q143 107 171 79Q191 59 220.5 50.5Q250 42 289 42Q317 42 351.5 47.5Q386 53 421 66Z" glyph-name="ccircumflex" horiz-adv-x="461" unicode="&#265;" /><glyph d="M421 14Q385 1 351 -4Q317 -9 284 -9Q169 -9 114 53Q59 115 59 255Q59 319 71 368.5Q83 418 109.5 451.5Q136 485 179 502Q222 519 284 519Q310 519 340.5 516.5Q371 514 404 503V454Q373 465 344 468Q315 471 289 471Q248 471 218.5 461.5Q189 452 168 431Q142 405 130.5 361Q119 317 119 255Q119 191 131 149Q143 107 171 79Q191 59 220.5 50.5Q250 42 289 42Q317 42 351.5 47.5Q386 53 421 66ZM290 596H226V677H290Z" glyph-name="cdotaccent" horiz-adv-x="461" unicode="&#267;" /><glyph d="M294 0H345L328 -41Q357 -47 375 -61Q393 -75 393 -100Q393 -136 362.5 -153Q332 -170 281 -170Q270 -170 251.5 -168Q233 -166 211 -161V-121Q227 -126 245.5 -127.5Q264 -129 277 -129Q339 -129 339 -97Q339 -89 333 -83Q327 -77 318 -73.5Q309 -70 298.5 -68Q288 -66 278 -65L273 -46Z" glyph-name="cedilla" horiz-adv-x="604" unicode="&#184;" /><glyph d="M425 633Q443 631 462 627Q481 623 501 615V564Q469 578 438.5 582Q408 586 385 586Q340 586 308 573Q276 560 255.5 531.5Q235 503 225.5 457Q216 411 216 346Q216 283 225.5 238Q235 193 255.5 165Q276 137 308 124Q340 111 385 111Q413 111 447.5 117.5Q482 124 514 139V86Q479 72 446.5 65.5Q414 59 382 59Q359 59 337 62L310 -49H256L286 73Q221 96 188.5 160Q156 224 156 346Q156 494 207 563.5Q258 633 372 635L400 747H454Z" glyph-name="cent" horiz-adv-x="660" unicode="&#162;" /><glyph d="M437 568H379L303 648L228 568H170L278 682H330Z" glyph-name="circumflex" horiz-adv-x="600" unicode="&#710;" /><glyph d="M159 419H87V509H159ZM159 0H87V91H159Z" glyph-name="colon" horiz-adv-x="246" unicode=":" /><glyph d="M99 100H175L87 -111H43Z" glyph-name="comma" horiz-adv-x="246" unicode="," /><glyph d="M769 341Q769 262 746.5 197Q724 132 680 86Q636 40 571 15Q506 -10 422 -10Q337 -10 272 14.5Q207 39 163 85Q119 131 96.5 196Q74 261 74 341Q74 421 96.5 485Q119 549 163.5 594Q208 639 273 663.5Q338 688 422 688Q506 688 571 663Q636 638 680 592.5Q724 547 746.5 483Q769 419 769 341ZM122 341Q122 271 140.5 214Q159 157 196.5 117Q234 77 290.5 55Q347 33 422 33Q497 33 553 55Q609 77 646.5 117.5Q684 158 702.5 215Q721 272 721 341Q721 409 702.5 465Q684 521 646.5 561Q609 601 553 623Q497 645 422 645Q347 645 291 623.5Q235 602 197.5 562.5Q160 523 141 466.5Q122 410 122 341ZM285 342Q285 439 321.5 480.5Q358 522 433 522Q453 522 474 519Q495 516 517 508V469Q498 477 477.5 480Q457 483 438 483Q383 483 357.5 452Q332 421 332 342Q332 302 338.5 275Q345 248 358 231.5Q371 215 391 208Q411 201 438 201Q458 201 479 204.5Q500 208 520 217V178Q497 169 475 165.5Q453 162 433 162Q358 162 321.5 203.5Q285 245 285 342Z" glyph-name="copyright" horiz-adv-x="843" unicode="&#169;" /><glyph d="M423 428Q400 451 366 460Q332 469 294 469Q253 469 220.5 458Q188 447 165 421.5Q142 396 130 355.5Q118 315 118 255Q118 140 157 90.5Q196 41 275 41Q361 41 423 121ZM430 63Q395 25 352.5 8.5Q310 -8 265 -8Q161 -8 110 55Q59 118 59 255Q59 392 118.5 455Q178 518 288 518Q324 518 361.5 510.5Q399 503 423 484V678H480V0H437L431 63Z" glyph-name="d" horiz-adv-x="569" unicode="d" /><glyph d="M237 -85H200L195 415L36 408V462L195 455L189 678H247L241 455L400 462V408L241 415Z" glyph-name="dagger" horiz-adv-x="436" unicode="&#8224;" /><glyph d="M239 249 372 255V208L239 212L236 -85H200L197 213L64 208V255L197 249L195 415L36 408V462L195 455L189 678H247L241 455L400 462V408L241 415Z" glyph-name="daggerdbl" horiz-adv-x="436" unicode="&#8225;" /><glyph d="M613 685H678L614 522H575ZM423 428Q400 451 366 460Q332 469 294 469Q253 469 220.5 458Q188 447 165 421.5Q142 396 130 355.5Q118 315 118 255Q118 140 157 90.5Q196 41 275 41Q361 41 423 121ZM430 63Q395 25 352.5 8.5Q310 -8 265 -8Q161 -8 110 55Q59 118 59 255Q59 392 118.5 455Q178 518 288 518Q324 518 361.5 510.5Q399 503 423 484V678H480V0H437L431 63Z" glyph-name="dcaron" horiz-adv-x="677" unicode="&#271;" /><glyph d="M588 567H480V0H437L431 63H430Q395 25 352.5 8.5Q310 -8 265 -8Q161 -8 110 55Q59 118 59 255Q59 392 118.5 455Q178 518 288 518Q324 518 361.5 510.5Q399 503 423 484V567H263V614H423V678H480V614H588ZM423 428Q400 451 366 460Q332 469 294 469Q253 469 220.5 458Q188 447 165 421.5Q142 396 130 355.5Q118 315 118 255Q118 140 157 90.5Q196 41 275 41Q361 41 423 121Z" glyph-name="dcroat" horiz-adv-x="569" unicode="&#273;" /><glyph d="M213 417Q263 417 294 443.5Q325 470 325 528Q325 587 294 613.5Q263 640 213 640Q163 640 132 613.5Q101 587 101 528Q101 470 132 443.5Q163 417 213 417ZM213 370Q177 370 146 379.5Q115 389 92.5 408.5Q70 428 57.5 458Q45 488 45 528Q45 568 57.5 598Q70 628 92.5 647.5Q115 667 146 676.5Q177 686 213 686Q249 686 279.5 676.5Q310 667 332.5 647.5Q355 628 368 598Q381 568 381 528Q381 488 368 458Q355 428 332.5 408.5Q310 389 279.5 379.5Q249 370 213 370Z" glyph-name="degree" horiz-adv-x="426" unicode="&#176;" /><glyph d="M259 597H197V672H259ZM421 597H359V672H421Z" glyph-name="dieresis" horiz-adv-x="600" unicode="&#168;" /><glyph d="M317 402H250V483H317ZM504 247H60V297H504ZM317 63H250V144H317Z" glyph-name="divide" horiz-adv-x="564" unicode="&#247;" /><glyph d="M268 -118H214L248 18Q221 21 194 27.5Q167 34 145 44V100Q183 83 228 76.5Q273 70 306 70Q343 70 375 77.5Q407 85 430 100.5Q453 116 466 140Q479 164 479 197Q479 235 468 258Q457 281 437.5 293.5Q418 306 391 311.5Q364 317 333 319Q298 321 263 327Q228 333 200 350.5Q172 368 154.5 401Q137 434 137 490Q137 536 155 568.5Q173 601 203.5 621.5Q234 642 274.5 651.5Q315 661 360 661L394 795H447L413 658Q433 656 454.5 651Q476 646 495 638V585Q458 600 422 604.5Q386 609 357 609Q325 609 297 602Q269 595 248 580Q227 565 215 542.5Q203 520 203 490Q203 452 215 431Q227 410 247.5 399.5Q268 389 295.5 385.5Q323 382 353 379Q386 376 419.5 369.5Q453 363 481 345Q509 327 526.5 293.5Q544 260 544 202Q544 152 524.5 116Q505 80 472 57.5Q439 35 394.5 25Q350 15 301 16Z" glyph-name="dollar" horiz-adv-x="660" unicode="$" /><glyph d="M332 596H268V677H332Z" glyph-name="dotaccent" horiz-adv-x="600" unicode="&#729;" /><glyph d="M146 0H89V510H146Z" glyph-name="dotlessi" horiz-adv-x="235" unicode="&#305;" /><glyph d="M37 -168Q65 -128 80.5 -77.5Q96 -27 96 30V510H152V67Q152 -6 140.5 -62.5Q129 -119 95 -168Z" glyph-name="dotlessj" horiz-adv-x="240" unicode="&#567;" /><glyph d="M120 249Q121 189 132 147.5Q143 106 169 80Q190 59 222.5 49.5Q255 40 297 40Q330 40 367.5 44.5Q405 49 445 64V14Q411 1 367.5 -4Q324 -9 289 -9Q170 -9 114.5 53.5Q59 116 59 255Q59 328 74.5 378Q90 428 118.5 459.5Q147 491 186.5 505Q226 519 275 519Q378 519 422 465Q466 411 466 308Q466 302 465 284Q464 266 462 249ZM274 471Q243 471 216 462.5Q189 454 169 434Q128 393 121 296H409Q410 306 410 310.5Q410 315 410 319Q410 359 402 389Q394 419 375 438Q342 471 274 471Z" glyph-name="e" horiz-adv-x="522" unicode="e" /><glyph d="M292 568H237L345 678H423ZM120 249Q121 189 132 147.5Q143 106 169 80Q190 59 222.5 49.5Q255 40 297 40Q330 40 367.5 44.5Q405 49 445 64V14Q411 1 367.5 -4Q324 -9 289 -9Q170 -9 114.5 53.5Q59 116 59 255Q59 328 74.5 378Q90 428 118.5 459.5Q147 491 186.5 505Q226 519 275 519Q378 519 422 465Q466 411 466 308Q466 302 465 284Q464 266 462 249ZM274 471Q243 471 216 462.5Q189 454 169 434Q128 393 121 296H409Q410 306 410 310.5Q410 315 410 319Q410 359 402 389Q394 419 375 438Q342 471 274 471Z" glyph-name="eacute" horiz-adv-x="522" unicode="&#233;" /><glyph d="M120 249Q121 189 132 147.5Q143 106 169 80Q190 59 222.5 49.5Q255 40 297 40Q330 40 367.5 44.5Q405 49 445 64V14Q411 1 367.5 -4Q324 -9 289 -9Q170 -9 114.5 53.5Q59 116 59 255Q59 328 74.5 378Q90 428 118.5 459.5Q147 491 186.5 505Q226 519 275 519Q378 519 422 465Q466 411 466 308Q466 302 465 284Q464 266 462 249ZM274 471Q243 471 216 462.5Q189 454 169 434Q128 393 121 296H409Q410 306 410 310.5Q410 315 410 319Q410 359 402 389Q394 419 375 438Q342 471 274 471ZM276 609Q314 609 346 624Q378 639 386 678H438Q427 618 383.5 592.5Q340 567 276 567Q212 567 168.5 592.5Q125 618 114 678H166Q175 639 206.5 624Q238 609 276 609Z" glyph-name="ebreve" horiz-adv-x="522" unicode="&#277;" /><glyph d="M143 678H201L277 598L352 678H410L302 564H250ZM120 249Q121 189 132 147.5Q143 106 169 80Q190 59 222.5 49.5Q255 40 297 40Q330 40 367.5 44.5Q405 49 445 64V14Q411 1 367.5 -4Q324 -9 289 -9Q170 -9 114.5 53.5Q59 116 59 255Q59 328 74.5 378Q90 428 118.5 459.5Q147 491 186.5 505Q226 519 275 519Q378 519 422 465Q466 411 466 308Q466 302 465 284Q464 266 462 249ZM274 471Q243 471 216 462.5Q189 454 169 434Q128 393 121 296H409Q410 306 410 310.5Q410 315 410 319Q410 359 402 389Q394 419 375 438Q342 471 274 471Z" glyph-name="ecaron" horiz-adv-x="522" unicode="&#283;" /><glyph d="M405 568H347L271 648L196 568H138L246 682H298ZM120 249Q121 189 132 147.5Q143 106 169 80Q190 59 222.5 49.5Q255 40 297 40Q330 40 367.5 44.5Q405 49 445 64V14Q411 1 367.5 -4Q324 -9 289 -9Q170 -9 114.5 53.5Q59 116 59 255Q59 328 74.5 378Q90 428 118.5 459.5Q147 491 186.5 505Q226 519 275 519Q378 519 422 465Q466 411 466 308Q466 302 465 284Q464 266 462 249ZM274 471Q243 471 216 462.5Q189 454 169 434Q128 393 121 296H409Q410 306 410 310.5Q410 315 410 319Q410 359 402 389Q394 419 375 438Q342 471 274 471Z" glyph-name="ecircumflex" horiz-adv-x="522" unicode="&#234;" /><glyph d="M223 597H161V672H223ZM385 597H323V672H385ZM120 249Q121 189 132 147.5Q143 106 169 80Q190 59 222.5 49.5Q255 40 297 40Q330 40 367.5 44.5Q405 49 445 64V14Q411 1 367.5 -4Q324 -9 289 -9Q170 -9 114.5 53.5Q59 116 59 255Q59 328 74.5 378Q90 428 118.5 459.5Q147 491 186.5 505Q226 519 275 519Q378 519 422 465Q466 411 466 308Q466 302 465 284Q464 266 462 249ZM274 471Q243 471 216 462.5Q189 454 169 434Q128 393 121 296H409Q410 306 410 310.5Q410 315 410 319Q410 359 402 389Q394 419 375 438Q342 471 274 471Z" glyph-name="edieresis" horiz-adv-x="522" unicode="&#235;" /><glyph d="M120 249Q121 189 132 147.5Q143 106 169 80Q190 59 222.5 49.5Q255 40 297 40Q330 40 367.5 44.5Q405 49 445 64V14Q411 1 367.5 -4Q324 -9 289 -9Q170 -9 114.5 53.5Q59 116 59 255Q59 328 74.5 378Q90 428 118.5 459.5Q147 491 186.5 505Q226 519 275 519Q378 519 422 465Q466 411 466 308Q466 302 465 284Q464 266 462 249ZM274 471Q243 471 216 462.5Q189 454 169 434Q128 393 121 296H409Q410 306 410 310.5Q410 315 410 319Q410 359 402 389Q394 419 375 438Q342 471 274 471ZM308 596H244V677H308Z" glyph-name="edotaccent" horiz-adv-x="522" unicode="&#279;" /><glyph d="M120 249Q121 189 132 147.5Q143 106 169 80Q190 59 222.5 49.5Q255 40 297 40Q330 40 367.5 44.5Q405 49 445 64V14Q411 1 367.5 -4Q324 -9 289 -9Q170 -9 114.5 53.5Q59 116 59 255Q59 328 74.5 378Q90 428 118.5 459.5Q147 491 186.5 505Q226 519 275 519Q378 519 422 465Q466 411 466 308Q466 302 465 284Q464 266 462 249ZM274 471Q243 471 216 462.5Q189 454 169 434Q128 393 121 296H409Q410 306 410 310.5Q410 315 410 319Q410 359 402 389Q394 419 375 438Q342 471 274 471ZM128 678H206L314 568H259Z" glyph-name="egrave" horiz-adv-x="522" unicode="&#232;" /><glyph d="M302 688Q358 688 399 675Q440 662 467 639Q494 616 507.5 584Q521 552 521 515Q521 480 512.5 452.5Q504 425 489.5 405Q475 385 456.5 371Q438 357 418 348V346Q470 329 502.5 286Q535 243 535 177Q535 93 474 41.5Q413 -10 302 -10Q247 -10 204 3.5Q161 17 131.5 41.5Q102 66 86.5 100.5Q71 135 71 177Q71 243 103 286Q135 329 188 346V348Q167 357 148.5 371Q130 385 115.5 405Q101 425 92.5 452.5Q84 480 84 515Q84 552 97 584Q110 616 137 639Q164 662 205 675Q246 688 302 688ZM303 39Q380 39 427.5 75Q475 111 475 177Q475 242 441 276Q395 322 303 322Q211 322 165 276Q131 242 131 177Q131 111 178 75Q225 39 303 39ZM303 372Q343 372 373.5 381.5Q404 391 426 413Q443 430 452 453.5Q461 477 461 509Q461 535 454 558.5Q447 582 429.5 600Q412 618 381.5 628.5Q351 639 303 639Q255 639 224 628.5Q193 618 175.5 600Q158 582 151 558.5Q144 535 144 509Q144 477 153 453.5Q162 430 179 413Q201 391 231.5 381.5Q262 372 303 372Z" glyph-name="eight" horiz-adv-x="612" unicode="8" /><glyph d="M139 0H67V91H139ZM563 0H491V91H563ZM986 0H914V91H986Z" glyph-name="ellipsis" horiz-adv-x="1052" unicode="&#8230;" /><glyph d="M120 249Q121 189 132 147.5Q143 106 169 80Q190 59 222.5 49.5Q255 40 297 40Q330 40 367.5 44.5Q405 49 445 64V14Q411 1 367.5 -4Q324 -9 289 -9Q170 -9 114.5 53.5Q59 116 59 255Q59 328 74.5 378Q90 428 118.5 459.5Q147 491 186.5 505Q226 519 275 519Q378 519 422 465Q466 411 466 308Q466 302 465 284Q464 266 462 249ZM274 471Q243 471 216 462.5Q189 454 169 434Q128 393 121 296H409Q410 306 410 310.5Q410 315 410 319Q410 359 402 389Q394 419 375 438Q342 471 274 471ZM433 609H117V657H433Z" glyph-name="emacron" horiz-adv-x="522" unicode="&#275;" /><glyph d="M1076 247H60V297H1076Z" glyph-name="emdash" horiz-adv-x="1136" unicode="&#8212;" /><glyph d="M539 247H60V297H539Z" glyph-name="endash" horiz-adv-x="599" unicode="&#8211;" /><glyph d="M140 436Q183 481 232.5 499.5Q282 518 336 518Q382 518 412.5 508Q443 498 460.5 477.5Q478 457 485 427.5Q492 398 492 359V43Q492 -12 480 -65Q468 -118 433 -168H376Q403 -130 419 -80Q435 -30 435 30V348Q435 412 411.5 440Q388 468 324 468Q273 468 227 446Q181 424 146 379V0H89V510H132L139 436Z" glyph-name="eng" horiz-adv-x="572" unicode="&#331;" /><glyph d="M120 249Q121 189 132 147.5Q143 106 169 80Q190 59 222.5 49.5Q255 40 297 40Q330 40 367.5 44.5Q405 49 445 64V14Q397 -10 379 -37Q361 -64 361 -83Q361 -101 373 -115Q385 -129 416 -129Q430 -129 444 -127.5Q458 -126 475 -121V-161Q461 -166 442 -168Q423 -170 408 -170Q353 -170 330.5 -147Q308 -124 308 -91Q308 -71 320.5 -48Q333 -25 359 -5Q340 -7 322.5 -8Q305 -9 289 -9Q170 -9 114.5 53.5Q59 116 59 255Q59 328 74.5 378Q90 428 118.5 459.5Q147 491 186.5 505Q226 519 275 519Q378 519 422 465Q466 411 466 308Q466 302 465 284Q464 266 462 249ZM274 471Q243 471 216 462.5Q189 454 169 434Q128 393 121 296H409Q410 306 410 310.5Q410 315 410 319Q410 359 402 389Q394 419 375 438Q342 471 274 471Z" glyph-name="eogonek" horiz-adv-x="522" unicode="&#281;" /><glyph d="M532 346H60V396H532ZM532 154H60V204H532Z" glyph-name="equal" horiz-adv-x="592" unicode="=" /><glyph d="M413 478Q396 520 369.5 552.5Q343 585 310 608L168 544L152 579L273 633Q257 642 239.5 651.5Q222 661 202 669L244 697Q264 689 283 679.5Q302 670 323 657L439 708L455 673L360 630Q435 567 473.5 474Q512 381 512 253Q512 177 495 126.5Q478 76 447 45.5Q416 15 374 2.5Q332 -10 282 -10Q234 -10 193.5 2.5Q153 15 123 46Q93 77 76 128.5Q59 180 59 258Q59 335 77 385.5Q95 436 125 465.5Q155 495 194.5 507Q234 519 278 519Q313 519 349.5 510.5Q386 502 412 478ZM454 255Q454 319 441.5 362.5Q429 406 407 428Q383 452 353.5 461.5Q324 471 286 471Q247 471 217.5 461.5Q188 452 165 428Q143 406 130.5 362.5Q118 319 118 255Q118 191 130.5 147.5Q143 104 165 82Q188 59 217.5 49.5Q247 40 286 40Q324 40 353.5 49.5Q383 59 407 82Q429 104 441.5 147.5Q454 191 454 255Z" glyph-name="eth" horiz-adv-x="571" unicode="&#240;" /><glyph d="M159 0H87V91H159ZM147 205H100L91 678H156Z" glyph-name="exclam" horiz-adv-x="246" unicode="!" /><glyph d="M159 419H87V510H159ZM156 -168H91L100 305H147Z" glyph-name="exclamdown" horiz-adv-x="246" unicode="&#161;" /><glyph d="M181 0H124V463H32V502L124 509V535Q124 577 131 606Q138 635 155 652.5Q172 670 200.5 678Q229 686 273 686Q290 686 319 684Q348 682 374 675V627Q351 633 323.5 635.5Q296 638 279 638Q245 638 225.5 632Q206 626 196 613.5Q186 601 183.5 582Q181 563 181 536V510H363V463H181Z" glyph-name="f" horiz-adv-x="360" unicode="f" /><glyph d="M181 0H124V463H32V502L124 509V535Q124 577 131 606Q138 635 154.5 652.5Q171 670 198 678Q225 686 266 686Q281 686 305.5 684Q330 682 353 675V627Q332 633 310.5 635.5Q289 638 273 638Q242 638 223.5 632Q205 626 195.5 613.5Q186 601 183.5 582Q181 563 181 536V510H353V463H181ZM508 0H452V510H508ZM513 595H448V678H513Z" glyph-name="fi" horiz-adv-x="599" unicode="&#64257;" /><glyph d="M493 201Q493 145 474.5 105.5Q456 66 424 41Q392 16 349.5 4.5Q307 -7 258 -7Q241 -7 220 -5.5Q199 -4 176.5 -0.5Q154 3 132 8Q110 13 91 21V73Q109 65 131 60Q153 55 175.5 51Q198 47 219.5 45.5Q241 44 258 44Q294 44 326 52Q358 60 381.5 78Q405 96 419 125.5Q433 155 433 199Q433 246 416.5 274.5Q400 303 373 318Q346 333 311.5 337.5Q277 342 242 342Q221 342 188 341Q155 340 104 337V679H457V631H162V391Q182 392 204.5 392.5Q227 393 240 393Q292 393 338 385Q384 377 418.5 356Q453 335 473 297.5Q493 260 493 201Z" glyph-name="five" horiz-adv-x="547" unicode="5" /><glyph d="M181 0H124V463H32V502L124 509V535Q124 577 131 606Q138 635 154.5 652.5Q171 670 198 678Q225 686 266 686Q281 686 305.5 684Q330 682 353 675V627Q332 633 310.5 635.5Q289 638 273 638Q242 638 223.5 632Q205 626 195.5 613.5Q186 601 183.5 582Q181 563 181 536V510H353V463H181ZM508 0H452V678H508Z" glyph-name="fl" horiz-adv-x="597" unicode="&#64258;" /><glyph d="M91 -72Q110 -76 135 -76Q165 -76 184 -68Q203 -60 214 -44Q225 -28 230.5 -4.5Q236 19 239 51L264 321H194V371H268L281 502Q284 538 293 571.5Q302 605 320 631Q338 657 367 672.5Q396 688 441 688Q501 688 551 665V611Q523 625 499.5 630.5Q476 636 447 636Q417 636 397.5 624.5Q378 613 366.5 593.5Q355 574 349.5 546.5Q344 519 341 488L330 371H498V321H326L300 39Q297 3 288 -27.5Q279 -58 261 -80Q243 -102 214 -114.5Q185 -127 140 -127Q115 -127 91 -124Z" glyph-name="florin" horiz-adv-x="660" unicode="&#402;" /><glyph d="M435 0H377V173H36L32 224L282 677H344L95 221H377L385 458H435V222H529V173H435Z" glyph-name="four" horiz-adv-x="551" unicode="4" /><glyph d="M-130 0H-184L295 678H350Z" glyph-name="fraction" horiz-adv-x="167" unicode="&#8260;" /><glyph d="M471 17Q471 -48 450 -86.5Q429 -125 397 -145Q365 -165 326 -171.5Q287 -178 251 -178Q213 -178 169 -172Q125 -166 91 -155V-103Q123 -114 161.5 -120.5Q200 -127 245 -127Q279 -127 309.5 -121.5Q340 -116 363 -101Q386 -86 400 -59Q414 -32 414 11V101H413Q380 65 341.5 48.5Q303 32 261 32Q161 32 110 90Q59 148 59 275Q59 402 118 460Q177 518 284 518Q317 518 355.5 509Q394 500 423 476H424L431 510H471ZM414 427Q392 449 359.5 459Q327 469 290 469Q251 469 219 459Q187 449 164.5 426Q142 403 130 366Q118 329 118 275Q118 171 156 126Q194 81 269 81Q354 81 414 164Z" glyph-name="g" horiz-adv-x="560" unicode="g" /><glyph d="M471 17Q471 -48 450 -86.5Q429 -125 397 -145Q365 -165 326 -171.5Q287 -178 251 -178Q213 -178 169 -172Q125 -166 91 -155V-103Q123 -114 161.5 -120.5Q200 -127 245 -127Q279 -127 309.5 -121.5Q340 -116 363 -101Q386 -86 400 -59Q414 -32 414 11V101H413Q380 65 341.5 48.5Q303 32 261 32Q161 32 110 90Q59 148 59 275Q59 402 118 460Q177 518 284 518Q317 518 355.5 509Q394 500 423 476H424L431 510H471ZM414 427Q392 449 359.5 459Q327 469 290 469Q251 469 219 459Q187 449 164.5 426Q142 403 130 366Q118 329 118 275Q118 171 156 126Q194 81 269 81Q354 81 414 164ZM277 609Q315 609 347 624Q379 639 387 678H439Q428 618 384.5 592.5Q341 567 277 567Q213 567 169.5 592.5Q126 618 115 678H167Q176 639 207.5 624Q239 609 277 609Z" glyph-name="gbreve" horiz-adv-x="560" unicode="&#287;" /><glyph d="M418 568H360L284 648L209 568H151L259 682H311ZM471 17Q471 -48 450 -86.5Q429 -125 397 -145Q365 -165 326 -171.5Q287 -178 251 -178Q213 -178 169 -172Q125 -166 91 -155V-103Q123 -114 161.5 -120.5Q200 -127 245 -127Q279 -127 309.5 -121.5Q340 -116 363 -101Q386 -86 400 -59Q414 -32 414 11V101H413Q380 65 341.5 48.5Q303 32 261 32Q161 32 110 90Q59 148 59 275Q59 402 118 460Q177 518 284 518Q317 518 355.5 509Q394 500 423 476H424L431 510H471ZM414 427Q392 449 359.5 459Q327 469 290 469Q251 469 219 459Q187 449 164.5 426Q142 403 130 366Q118 329 118 275Q118 171 156 126Q194 81 269 81Q354 81 414 164Z" glyph-name="gcircumflex" horiz-adv-x="560" unicode="&#285;" /><glyph d="M311 721H376L312 558H273ZM471 17Q471 -48 450 -86.5Q429 -125 397 -145Q365 -165 326 -171.5Q287 -178 251 -178Q213 -178 169 -172Q125 -166 91 -155V-103Q123 -114 161.5 -120.5Q200 -127 245 -127Q279 -127 309.5 -121.5Q340 -116 363 -101Q386 -86 400 -59Q414 -32 414 11V101H413Q380 65 341.5 48.5Q303 32 261 32Q161 32 110 90Q59 148 59 275Q59 402 118 460Q177 518 284 518Q317 518 355.5 509Q394 500 423 476H424L431 510H471ZM414 427Q392 449 359.5 459Q327 469 290 469Q251 469 219 459Q187 449 164.5 426Q142 403 130 366Q118 329 118 275Q118 171 156 126Q194 81 269 81Q354 81 414 164Z" glyph-name="gcommaaccent" horiz-adv-x="560" unicode="&#291;" /><glyph d="M471 17Q471 -48 450 -86.5Q429 -125 397 -145Q365 -165 326 -171.5Q287 -178 251 -178Q213 -178 169 -172Q125 -166 91 -155V-103Q123 -114 161.5 -120.5Q200 -127 245 -127Q279 -127 309.5 -121.5Q340 -116 363 -101Q386 -86 400 -59Q414 -32 414 11V101H413Q380 65 341.5 48.5Q303 32 261 32Q161 32 110 90Q59 148 59 275Q59 402 118 460Q177 518 284 518Q317 518 355.5 509Q394 500 423 476H424L431 510H471ZM414 427Q392 449 359.5 459Q327 469 290 469Q251 469 219 459Q187 449 164.5 426Q142 403 130 366Q118 329 118 275Q118 171 156 126Q194 81 269 81Q354 81 414 164ZM314 596H250V677H314Z" glyph-name="gdotaccent" horiz-adv-x="560" unicode="&#289;" /><glyph d="M341 349Q341 329 349 317.5Q357 306 369.5 300Q382 294 398 292.5Q414 291 432 290Q463 288 494.5 283.5Q526 279 551.5 264Q577 249 592.5 220.5Q608 192 608 144Q608 101 590.5 71.5Q573 42 544.5 24Q516 6 480 -1.5Q444 -9 407 -9Q393 -9 374 -7.5Q355 -6 334 -3.5Q313 -1 292 3.5Q271 8 255 14V66Q273 60 293 55.5Q313 51 333.5 48Q354 45 373 43.5Q392 42 408 42Q438 42 464 47.5Q490 53 509 65Q528 77 539 96Q550 115 550 142Q550 173 539.5 190.5Q529 208 512 217.5Q495 227 474.5 229.5Q454 232 434 233Q410 234 383.5 237Q357 240 334.5 252Q312 264 297.5 287Q283 310 283 350Q283 373 292.5 391.5Q302 410 316 424Q328 436 341.5 445.5Q355 455 369 463.5Q383 472 396 480.5Q409 489 419 499Q429 509 434 520.5Q439 532 439 549Q439 591 406 614Q373 637 317 637Q231 637 188.5 596.5Q146 556 146 481V0H89V469Q89 584 148 636Q207 688 314 688Q362 688 397 677Q432 666 454 647Q476 628 486.5 602.5Q497 577 497 547Q497 520 487.5 501Q478 482 463 467Q452 456 438 446.5Q424 437 410 428.5Q396 420 383 411.5Q370 403 360 393Q341 374 341 349Z" glyph-name="germandbls" horiz-adv-x="644" unicode="&#223;" /><glyph d="M170 678H248L356 568H301Z" glyph-name="grave" horiz-adv-x="600" unicode="`" /><glyph d="M65 -11V51L348 190Q365 198 387.5 208.5Q410 219 435 230Q460 241 485 252Q510 263 531 272V273Q510 282 485 293Q460 304 435 315.5Q410 327 387.5 337.5Q365 348 348 356L65 494V556L601 297V248Z" glyph-name="greater" horiz-adv-x="648" unicode="&gt;" /><glyph d="M433 337Q398 351 359.5 366.5Q321 382 289 396L65 495V554L514 359V315L65 120V178L289 277Q321 291 359.5 307Q398 323 433 336ZM65 50H514V0H65Z" glyph-name="greaterequal" horiz-adv-x="561" unicode="&#8805;" /><glyph d="M383 51 225 282 383 510H453L297 282L454 51ZM224 51 66 282 224 510H294L138 282L295 51Z" glyph-name="guillemotleft" horiz-adv-x="520" unicode="&#171;" /><glyph d="M66 51 222 282 66 510H137L295 282L137 51ZM225 51 381 282 225 510H296L454 282L296 51Z" glyph-name="guillemotright" horiz-adv-x="520" unicode="&#187;" /><glyph d="M224 51 66 282 224 510H294L138 282L295 51Z" glyph-name="guilsinglleft" horiz-adv-x="361" unicode="&#8249;" /><glyph d="M66 51 222 282 66 510H137L295 282L137 51Z" glyph-name="guilsinglright" horiz-adv-x="361" unicode="&#8250;" /><glyph d="M147 441Q189 483 236.5 500.5Q284 518 336 518Q382 518 412.5 508Q443 498 460.5 477.5Q478 457 485 427.5Q492 398 492 359V0H435V348Q435 412 411.5 440Q388 468 324 468Q273 468 227 446Q181 424 146 379V0H89V678H146V441H147Z" glyph-name="h" horiz-adv-x="572" unicode="h" /><glyph d="M304 567H146V441H147Q189 483 236.5 500.5Q284 518 336 518Q382 518 412.5 508Q443 498 460.5 477.5Q478 457 485 427.5Q492 398 492 359V0H435V348Q435 412 411.5 440Q388 468 324 468Q273 468 227 446Q181 424 146 379V0H89V567H-21V614H89V678H146V614H304Z" glyph-name="hbar" horiz-adv-x="572" unicode="&#295;" /><glyph d="M147 441Q189 483 236.5 500.5Q284 518 336 518Q382 518 412.5 508Q443 498 460.5 477.5Q478 457 485 427.5Q492 398 492 359V0H435V348Q435 412 411.5 440Q388 468 324 468Q273 468 227 446Q181 424 146 379V0H89V678H146V441ZM251 737H193L117 817L42 737H-16L92 851H144Z" glyph-name="hcircumflex" horiz-adv-x="572" unicode="&#293;" /><glyph d="M241 568H194L301 678H372ZM354 568H307L414 678H485Z" glyph-name="hungarumlaut" horiz-adv-x="600" unicode="&#733;" /><glyph d="M336 247H36V297H336Z" glyph-name="hyphen" horiz-adv-x="372" unicode="-" /><glyph d="M146 0H89V510H146ZM150 595H85V678H150Z" glyph-name="i" horiz-adv-x="237" unicode="i" /><glyph d="M148 568H93L201 678H279ZM147 0H90V510H147Z" glyph-name="iacute" horiz-adv-x="235" unicode="&#237;" /><glyph d="M146 0H89V510H146ZM118 609Q156 609 188 624Q220 639 228 678H280Q269 618 225.5 592.5Q182 567 118 567Q54 567 10.5 592.5Q-33 618 -44 678H8Q17 639 48.5 624Q80 609 118 609Z" glyph-name="ibreve" horiz-adv-x="235" unicode="&#301;" /><glyph d="M251 568H193L117 648L42 568H-16L92 682H144ZM146 0H89V510H146Z" glyph-name="icircumflex" horiz-adv-x="235" unicode="&#238;" /><glyph d="M68 597H6V672H68ZM230 597H168V672H230ZM146 0H89V510H146Z" glyph-name="idieresis" horiz-adv-x="235" unicode="&#239;" /><glyph d="M145 0H88V510H145ZM-45 678H33L141 568H86Z" glyph-name="igrave" horiz-adv-x="235" unicode="&#236;" /><glyph d="M146 0H89V510H146ZM150 595H85V678H150ZM273 -168Q301 -128 316 -77.5Q331 -27 331 30V510H388V67Q388 -6 376.5 -62Q365 -118 330 -168ZM392 595H327V678H392Z" glyph-name="ij" horiz-adv-x="479" unicode="&#307;" /><glyph d="M146 0H89V510H146ZM276 609H-40V657H276Z" glyph-name="imacron" horiz-adv-x="235" unicode="&#299;" /><glyph d="M698 345Q698 312 685.5 288Q673 264 652.5 248Q632 232 605 224Q578 216 548 216Q500 216 458.5 243Q417 270 385 305Q368 288 349.5 272Q331 256 310.5 243.5Q290 231 268 223.5Q246 216 222 216Q192 216 164.5 224Q137 232 116.5 248Q96 264 83.5 288Q71 312 71 345Q71 378 83.5 402Q96 426 116.5 442Q137 458 164.5 466Q192 474 222 474Q270 474 311 447Q352 420 385 384Q417 420 458 447Q499 474 548 474Q578 474 605 466Q632 458 652.5 442Q673 426 685.5 402Q698 378 698 345ZM643 345Q643 368 635 383.5Q627 399 614 409Q601 419 584 423Q567 427 550 427Q511 427 476 402Q441 377 416 345Q440 313 474.5 288Q509 263 550 263Q567 263 584 267Q601 271 614 280.5Q627 290 635 306Q643 322 643 345ZM126 345Q126 322 134 306Q142 290 155 280.5Q168 271 184.5 267Q201 263 219 263Q259 263 293.5 288Q328 313 353 345Q328 377 293.5 402Q259 427 219 427Q201 427 184.5 422.5Q168 418 155 408.5Q142 399 134 383Q126 367 126 345Z" glyph-name="infinity" horiz-adv-x="769" unicode="&#8734;" /><glyph d="M143 535Q141 620 172.5 653Q204 686 271 686Q285 686 303.5 684Q322 682 344 675V626Q327 632 309.5 634.5Q292 637 279 637Q253 637 237.5 630Q222 623 214 610Q206 597 203.5 577.5Q201 558 201 533V-22Q201 -65 193.5 -94Q186 -123 170 -140.5Q154 -158 130 -165.5Q106 -173 73 -173Q59 -173 40 -171Q21 -169 0 -161V-112Q17 -119 34.5 -121.5Q52 -124 65 -124Q91 -124 106.5 -117Q122 -110 130 -97Q138 -84 140.5 -64.5Q143 -45 143 -20Z" glyph-name="integral" horiz-adv-x="363" unicode="&#8747;" /><glyph d="M148 0H149Q119 -17 104 -40.5Q89 -64 89 -84Q89 -102 101 -115.5Q113 -129 145 -129Q158 -129 172.5 -127.5Q187 -126 203 -121V-161Q189 -166 170 -168Q151 -170 136 -170Q81 -170 59 -147Q37 -124 37 -91Q37 -66 53 -41.5Q69 -17 92 0H91V510H148ZM152 595H87V678H152Z" glyph-name="iogonek" horiz-adv-x="235" unicode="&#303;" /><glyph d="M146 0H89V510H146ZM191 649Q212 649 235 659Q258 669 277 683V635Q262 624 237.5 613Q213 602 192 602Q172 602 153.5 607Q135 612 117 618.5Q99 625 81 630Q63 635 45 635Q24 635 1.5 624.5Q-21 614 -41 601V649Q-26 660 -1.5 671Q23 682 45 682Q64 682 82 677Q100 672 118 665.5Q136 659 154 654Q172 649 191 649Z" glyph-name="itilde" horiz-adv-x="235" unicode="&#297;" /><glyph d="M36 -168Q64 -128 79 -77.5Q94 -27 94 30V510H151V67Q151 -6 139.5 -62Q128 -118 93 -168ZM155 595H90V678H155Z" glyph-name="j" horiz-adv-x="242" unicode="j" /><glyph d="M36 -168Q64 -128 79.5 -77.5Q95 -27 95 30V510H151V67Q151 -6 139.5 -62.5Q128 -119 94 -168ZM257 568H199L123 648L48 568H-10L98 682H150Z" glyph-name="jcircumflex" horiz-adv-x="240" unicode="&#309;" /><glyph d="M146 296H233L381 510H446L281 274L475 0H407L232 249H146V0H89V678H146Z" glyph-name="k" horiz-adv-x="492" unicode="k" /><glyph d="M236 -77H301L237 -240H198ZM146 296H233L381 510H446L281 274L475 0H407L232 249H146V0H89V678H146Z" glyph-name="kcommaaccent" horiz-adv-x="492" unicode="&#311;" /><glyph d="M146 510V296H232L381 510H446L281 274L475 0H407L232 249H146V0H89V510Z" glyph-name="kgreenlandic" horiz-adv-x="492" unicode="&#312;" /><glyph d="M146 0H89V678H146Z" glyph-name="l" horiz-adv-x="235" unicode="l" /><glyph d="M145 736H90L198 846H276ZM146 0H89V678H146Z" glyph-name="lacute" horiz-adv-x="235" unicode="&#314;" /><glyph d="M279 678H344L280 515H241ZM146 0H89V678H146Z" glyph-name="lcaron" horiz-adv-x="343" unicode="&#318;" /><glyph d="M85 -77H150L86 -240H47ZM147 0H90V678H147Z" glyph-name="lcommaaccent" horiz-adv-x="235" unicode="&#316;" /><glyph d="M146 0H89V678H146ZM326 308H264V382H326Z" glyph-name="ldot" horiz-adv-x="362" unicode="&#320;" /><glyph d="M47 248V297L583 556V494L300 356Q283 348 260.5 337.5Q238 327 213 315.5Q188 304 163 293Q138 282 117 273V272Q138 263 163 252Q188 241 213 230Q238 219 260.5 208.5Q283 198 300 190L583 51V-11Z" glyph-name="less" horiz-adv-x="648" unicode="&lt;" /><glyph d="M128 336Q163 323 201.5 307Q240 291 272 277L496 178V120L47 315V359L496 554V495L272 396Q240 382 201.5 366.5Q163 351 128 337ZM496 0H47V50H496Z" glyph-name="lessequal" horiz-adv-x="561" unicode="&#8804;" /><glyph d="M408 510H44V558H466V273H408Z" glyph-name="logicalnot" horiz-adv-x="526" unicode="&#172;" /><glyph d="M259 683H307L509 338L307 -7H259L57 338ZM448 338 284 626H282L118 338L282 50H284Z" glyph-name="lozenge" horiz-adv-x="566" unicode="&#9674;" /><glyph d="M153 358 269 432V376L153 302V0H96V265L-13 196V252L96 321V678H153Z" glyph-name="lslash" horiz-adv-x="257" unicode="&#322;" /><glyph d="M460 433Q502 479 546.5 498.5Q591 518 642 518Q686 518 714.5 507.5Q743 497 759.5 477Q776 457 782.5 427Q789 397 789 358V0H732V348Q732 412 710.5 440Q689 468 631 468Q583 468 540.5 445.5Q498 423 466 378Q467 374 467 366Q467 358 467 353V0H411V348Q411 412 389.5 440Q368 468 309 468Q262 468 220 446Q178 424 146 379V0H89V510H132L139 435H140Q180 480 225 499Q270 518 321 518Q384 518 416 496.5Q448 475 459 433H460Z" glyph-name="m" horiz-adv-x="869" unicode="m" /><glyph d="M458 609H142V657H458Z" glyph-name="macron" horiz-adv-x="600" unicode="&#175;" /><glyph d="M299 310 482 493 520 456 336 272 522 87 485 49 299 235 113 50 76 87 261 272 77 457 114 494Z" glyph-name="multiply" horiz-adv-x="598" unicode="&#215;" /><glyph d="M140 436Q183 481 232.5 499.5Q282 518 336 518Q382 518 412.5 508Q443 498 460.5 477.5Q478 457 485 427.5Q492 398 492 359V0H435V348Q435 412 411.5 440Q388 468 324 468Q273 468 227 446Q181 424 146 379V0H89V510H132L139 436Z" glyph-name="n" horiz-adv-x="572" unicode="n" /><glyph d="M320 568H265L373 678H451ZM140 436Q183 481 232.5 499.5Q282 518 336 518Q382 518 412.5 508Q443 498 460.5 477.5Q478 457 485 427.5Q492 398 492 359V0H435V348Q435 412 411.5 440Q388 468 324 468Q273 468 227 446Q181 424 146 379V0H89V510H132L139 436Z" glyph-name="nacute" horiz-adv-x="572" unicode="&#324;" /><glyph d="M158 678H216L292 598L367 678H425L317 564H265ZM140 436Q183 481 232.5 499.5Q282 518 336 518Q382 518 412.5 508Q443 498 460.5 477.5Q478 457 485 427.5Q492 398 492 359V0H435V348Q435 412 411.5 440Q388 468 324 468Q273 468 227 446Q181 424 146 379V0H89V510H132L139 436Z" glyph-name="ncaron" horiz-adv-x="572" unicode="&#328;" /><glyph d="M268 -77H333L269 -240H230ZM140 436Q183 481 232.5 499.5Q282 518 336 518Q382 518 412.5 508Q443 498 460.5 477.5Q478 457 485 427.5Q492 398 492 359V0H435V348Q435 412 411.5 440Q388 468 324 468Q273 468 227 446Q181 424 146 379V0H89V510H132L139 436Z" glyph-name="ncommaaccent" horiz-adv-x="572" unicode="&#326;" /><glyph d="M458 344Q440 323 416.5 308Q393 293 368 282.5Q343 272 318.5 267Q294 262 273 262Q215 262 174.5 279Q134 296 108.5 325Q83 354 71.5 392Q60 430 60 472Q60 512 72.5 551Q85 590 112 620.5Q139 651 181.5 669.5Q224 688 284 688Q344 688 388.5 665.5Q433 643 462 600Q491 557 505 495Q519 433 519 354Q519 279 505.5 212.5Q492 146 460.5 97Q429 48 376 19.5Q323 -9 244 -9Q230 -9 212.5 -8Q195 -7 176 -4.5Q157 -2 138.5 2.5Q120 7 105 13V64Q137 50 174.5 45Q212 40 243 40Q301 40 341.5 60.5Q382 81 408 120Q434 159 446.5 215.5Q459 272 459 344ZM276 314Q322 314 371 337Q420 360 457 411Q452 521 409 580Q366 639 280 639Q235 639 204.5 625Q174 611 155 588Q136 565 127.5 535.5Q119 506 119 474Q119 441 126.5 412Q134 383 152.5 361.5Q171 340 201 327Q231 314 276 314Z" glyph-name="nine" horiz-adv-x="590" unicode="9" /><glyph glyph-name="nonbreakingspace" horiz-adv-x="235" unicode="&#160;" /><glyph glyph-name="nonmarkingreturn" horiz-adv-x="235" /><glyph d="M364 396H532V346H346L296 204H532V154H279L211 -44H158L226 154H60V204H243L292 346H60V396H310L367 559H420Z" glyph-name="notequal" horiz-adv-x="592" unicode="&#8800;" /><glyph d="M140 436Q183 481 232.5 499.5Q282 518 336 518Q382 518 412.5 508Q443 498 460.5 477.5Q478 457 485 427.5Q492 398 492 359V0H435V348Q435 412 411.5 440Q388 468 324 468Q273 468 227 446Q181 424 146 379V0H89V510H132L139 436ZM365 649Q386 649 409 659Q432 669 451 683V635Q436 624 411.5 613Q387 602 366 602Q346 602 327.5 607Q309 612 291 618.5Q273 625 255 630Q237 635 219 635Q198 635 175.5 624.5Q153 614 133 601V649Q148 660 172.5 671Q197 682 219 682Q238 682 256 677Q274 672 292 665.5Q310 659 328 654Q346 649 365 649Z" glyph-name="ntilde" horiz-adv-x="572" unicode="&#241;" /><glyph d="M535 186H405L359 0H312L358 186H226L180 0H133L179 186H50L61 229H190L244 446H115L126 489H255L303 678H350L303 489H434L481 678H529L481 489H610L600 446H470L416 229H546ZM237 229H368L423 446H292Z" glyph-name="numbersign" horiz-adv-x="660" unicode="#" /><glyph d="M512 255Q512 182 496.5 131.5Q481 81 451.5 49.5Q422 18 380 4Q338 -10 286 -10Q233 -10 191 4Q149 18 119.5 49.5Q90 81 74.5 131.5Q59 182 59 255Q59 328 74.5 379Q90 430 119.5 461Q149 492 191 506Q233 520 286 520Q338 520 380 506Q422 492 451.5 461Q481 430 496.5 379Q512 328 512 255ZM454 255Q454 319 441.5 362.5Q429 406 407 428Q383 452 353.5 461.5Q324 471 286 471Q247 471 217.5 461.5Q188 452 165 428Q143 406 130.5 362.5Q118 319 118 255Q118 191 130.5 147.5Q143 104 165 82Q188 59 217.5 49.5Q247 40 286 40Q324 40 353.5 49.5Q383 59 407 82Q429 104 441.5 147.5Q454 191 454 255Z" glyph-name="o" horiz-adv-x="571" unicode="o" /><glyph d="M310 568H255L363 678H441ZM512 255Q512 182 496.5 131.5Q481 81 451.5 49.5Q422 18 380 4Q338 -10 286 -10Q233 -10 191 4Q149 18 119.5 49.5Q90 81 74.5 131.5Q59 182 59 255Q59 328 74.5 379Q90 430 119.5 461Q149 492 191 506Q233 520 286 520Q338 520 380 506Q422 492 451.5 461Q481 430 496.5 379Q512 328 512 255ZM454 255Q454 319 441.5 362.5Q429 406 407 428Q383 452 353.5 461.5Q324 471 286 471Q247 471 217.5 461.5Q188 452 165 428Q143 406 130.5 362.5Q118 319 118 255Q118 191 130.5 147.5Q143 104 165 82Q188 59 217.5 49.5Q247 40 286 40Q324 40 353.5 49.5Q383 59 407 82Q429 104 441.5 147.5Q454 191 454 255Z" glyph-name="oacute" horiz-adv-x="571" unicode="&#243;" /><glyph d="M512 255Q512 182 496.5 131.5Q481 81 451.5 49.5Q422 18 380 4Q338 -10 286 -10Q233 -10 191 4Q149 18 119.5 49.5Q90 81 74.5 131.5Q59 182 59 255Q59 328 74.5 379Q90 430 119.5 461Q149 492 191 506Q233 520 286 520Q338 520 380 506Q422 492 451.5 461Q481 430 496.5 379Q512 328 512 255ZM454 255Q454 319 441.5 362.5Q429 406 407 428Q383 452 353.5 461.5Q324 471 286 471Q247 471 217.5 461.5Q188 452 165 428Q143 406 130.5 362.5Q118 319 118 255Q118 191 130.5 147.5Q143 104 165 82Q188 59 217.5 49.5Q247 40 286 40Q324 40 353.5 49.5Q383 59 407 82Q429 104 441.5 147.5Q454 191 454 255ZM286 609Q324 609 356 624Q388 639 396 678H448Q437 618 393.5 592.5Q350 567 286 567Q222 567 178.5 592.5Q135 618 124 678H176Q185 639 216.5 624Q248 609 286 609Z" glyph-name="obreve" horiz-adv-x="571" unicode="&#335;" /><glyph d="M419 568H361L285 648L210 568H152L260 682H312ZM512 255Q512 182 496.5 131.5Q481 81 451.5 49.5Q422 18 380 4Q338 -10 286 -10Q233 -10 191 4Q149 18 119.5 49.5Q90 81 74.5 131.5Q59 182 59 255Q59 328 74.5 379Q90 430 119.5 461Q149 492 191 506Q233 520 286 520Q338 520 380 506Q422 492 451.5 461Q481 430 496.5 379Q512 328 512 255ZM454 255Q454 319 441.5 362.5Q429 406 407 428Q383 452 353.5 461.5Q324 471 286 471Q247 471 217.5 461.5Q188 452 165 428Q143 406 130.5 362.5Q118 319 118 255Q118 191 130.5 147.5Q143 104 165 82Q188 59 217.5 49.5Q247 40 286 40Q324 40 353.5 49.5Q383 59 407 82Q429 104 441.5 147.5Q454 191 454 255Z" glyph-name="ocircumflex" horiz-adv-x="571" unicode="&#244;" /><glyph d="M237 597H175V672H237ZM399 597H337V672H399ZM512 255Q512 182 496.5 131.5Q481 81 451.5 49.5Q422 18 380 4Q338 -10 286 -10Q233 -10 191 4Q149 18 119.5 49.5Q90 81 74.5 131.5Q59 182 59 255Q59 328 74.5 379Q90 430 119.5 461Q149 492 191 506Q233 520 286 520Q338 520 380 506Q422 492 451.5 461Q481 430 496.5 379Q512 328 512 255ZM454 255Q454 319 441.5 362.5Q429 406 407 428Q383 452 353.5 461.5Q324 471 286 471Q247 471 217.5 461.5Q188 452 165 428Q143 406 130.5 362.5Q118 319 118 255Q118 191 130.5 147.5Q143 104 165 82Q188 59 217.5 49.5Q247 40 286 40Q324 40 353.5 49.5Q383 59 407 82Q429 104 441.5 147.5Q454 191 454 255Z" glyph-name="odieresis" horiz-adv-x="571" unicode="&#246;" /><glyph d="M691 39Q724 39 761 43.5Q798 48 838 63V14Q804 1 761 -4Q718 -9 683 -9Q604 -9 554.5 18Q505 45 482 105H481Q456 44 407 17Q358 -10 286 -10Q233 -10 191 4Q149 18 119.5 49.5Q90 81 74.5 131.5Q59 182 59 255Q59 328 74.5 379Q90 430 119.5 461Q149 492 191 506Q233 520 286 520Q358 520 406.5 493Q455 466 481 404H482Q507 466 554.5 492.5Q602 519 668 519Q772 519 816 465Q860 411 860 308Q860 302 859 284Q858 266 856 249H513Q514 189 525.5 147Q537 105 563 79Q584 58 615.5 48.5Q647 39 691 39ZM118 255Q118 191 130.5 147.5Q143 104 165 82Q188 59 217.5 49.5Q247 40 286 40Q324 40 353.5 49.5Q383 59 407 82Q429 104 441.5 147.5Q454 191 454 255Q454 319 441.5 362.5Q429 406 407 428Q383 452 353.5 461.5Q324 471 286 471Q247 471 217.5 461.5Q188 452 165 428Q143 406 130.5 362.5Q118 319 118 255ZM668 471Q636 471 609.5 462.5Q583 454 563 434Q522 393 515 296H803Q804 306 804 310.5Q804 315 804 319Q804 359 796 389Q788 419 768 438Q735 471 668 471Z" glyph-name="oe" horiz-adv-x="916" unicode="&#339;" /><glyph d="M325 0Q295 -17 280 -40.5Q265 -64 265 -84Q265 -102 277 -115.5Q289 -129 321 -129Q334 -129 348.5 -127.5Q363 -126 379 -121V-161Q365 -166 346 -168Q327 -170 312 -170Q257 -170 235 -147Q213 -124 213 -91Q213 -64 231.5 -37.5Q250 -11 276 5Z" glyph-name="ogonek" horiz-adv-x="600" unicode="&#731;" /><glyph d="M512 255Q512 182 496.5 131.5Q481 81 451.5 49.5Q422 18 380 4Q338 -10 286 -10Q233 -10 191 4Q149 18 119.5 49.5Q90 81 74.5 131.5Q59 182 59 255Q59 328 74.5 379Q90 430 119.5 461Q149 492 191 506Q233 520 286 520Q338 520 380 506Q422 492 451.5 461Q481 430 496.5 379Q512 328 512 255ZM454 255Q454 319 441.5 362.5Q429 406 407 428Q383 452 353.5 461.5Q324 471 286 471Q247 471 217.5 461.5Q188 452 165 428Q143 406 130.5 362.5Q118 319 118 255Q118 191 130.5 147.5Q143 104 165 82Q188 59 217.5 49.5Q247 40 286 40Q324 40 353.5 49.5Q383 59 407 82Q429 104 441.5 147.5Q454 191 454 255ZM129 678H207L315 568H260Z" glyph-name="ograve" horiz-adv-x="571" unicode="&#242;" /><glyph d="M246 568H199L306 678H377ZM359 568H312L419 678H490ZM512 255Q512 182 496.5 131.5Q481 81 451.5 49.5Q422 18 380 4Q338 -10 286 -10Q233 -10 191 4Q149 18 119.5 49.5Q90 81 74.5 131.5Q59 182 59 255Q59 328 74.5 379Q90 430 119.5 461Q149 492 191 506Q233 520 286 520Q338 520 380 506Q422 492 451.5 461Q481 430 496.5 379Q512 328 512 255ZM454 255Q454 319 441.5 362.5Q429 406 407 428Q383 452 353.5 461.5Q324 471 286 471Q247 471 217.5 461.5Q188 452 165 428Q143 406 130.5 362.5Q118 319 118 255Q118 191 130.5 147.5Q143 104 165 82Q188 59 217.5 49.5Q247 40 286 40Q324 40 353.5 49.5Q383 59 407 82Q429 104 441.5 147.5Q454 191 454 255Z" glyph-name="ohungarumlaut" horiz-adv-x="571" unicode="&#337;" /><glyph d="M444 609H128V657H444ZM512 255Q512 182 496.5 131.5Q481 81 451.5 49.5Q422 18 380 4Q338 -10 286 -10Q233 -10 191 4Q149 18 119.5 49.5Q90 81 74.5 131.5Q59 182 59 255Q59 328 74.5 379Q90 430 119.5 461Q149 492 191 506Q233 520 286 520Q338 520 380 506Q422 492 451.5 461Q481 430 496.5 379Q512 328 512 255ZM454 255Q454 319 441.5 362.5Q429 406 407 428Q383 452 353.5 461.5Q324 471 286 471Q247 471 217.5 461.5Q188 452 165 428Q143 406 130.5 362.5Q118 319 118 255Q118 191 130.5 147.5Q143 104 165 82Q188 59 217.5 49.5Q247 40 286 40Q324 40 353.5 49.5Q383 59 407 82Q429 104 441.5 147.5Q454 191 454 255Z" glyph-name="omacron" horiz-adv-x="571" unicode="&#333;" /><glyph d="M168 0V622L4 619V660Q16 661 48 664.5Q80 668 115 671.5Q150 675 182 678.5Q214 682 226 683V0Z" glyph-name="one" horiz-adv-x="345" unicode="1" /><glyph d="M614 0H389L388 33Q472 106 514 159Q556 212 556 262Q556 294 538 309.5Q520 325 487 325Q464 325 440.5 320.5Q417 316 398 310V348Q414 353 437 358Q460 363 489 363Q540 363 572 339.5Q604 316 604 262Q604 208 563.5 155Q523 102 453 36V35Q468 36 490 36Q512 36 522 36H614ZM86 320V636Q81 636 69.5 636Q58 636 45 635.5Q32 635 20.5 635Q9 635 4 635V668L134 681V320ZM65 0H11L490 678H545Z" glyph-name="onehalf" horiz-adv-x="650" /><glyph d="M86 320V636Q81 636 69.5 636Q58 636 45 635.5Q32 635 20.5 635Q9 635 4 635V668L134 681V320ZM601 0H554V89H381L380 121L512 358H560L435 125V124L557 125L562 246H601V126H649V89H601ZM65 0H11L490 678H545Z" glyph-name="onequarter" horiz-adv-x="657" /><glyph d="M83 320V636Q78 636 66.5 636Q55 636 42 635.5Q29 635 17.5 635Q6 635 1 635V668L131 681V320Z" glyph-name="onesuperior" horiz-adv-x="194" /><glyph d="M206 509Q223 509 241.5 508.5Q260 508 276 506V558Q276 582 271 596Q266 610 255 617.5Q244 625 226.5 627.5Q209 630 184 630Q164 630 133 627Q102 624 65 613V658Q96 668 131.5 671Q167 674 190 674Q226 674 252 669.5Q278 665 295.5 652.5Q313 640 321.5 618Q330 596 330 561V281H288L283 316H282Q259 296 229 285.5Q199 275 167 275Q138 275 112 282.5Q86 290 68 308Q37 339 37 391Q37 417 45 437.5Q53 458 66 472Q90 495 126.5 502Q163 509 206 509ZM276 463Q258 465 239.5 465.5Q221 466 208 466Q166 466 144 461.5Q122 457 107 442Q91 426 91 390Q91 352 115.5 335.5Q140 319 173 319Q207 319 233 331Q259 343 276 363Z" glyph-name="ordfeminine" horiz-adv-x="388" unicode="&#170;" /><glyph d="M43 474Q43 530 55 568Q67 606 89.5 629.5Q112 653 144 663.5Q176 674 217 674Q258 674 290 663.5Q322 653 344.5 629Q367 605 379 567Q391 529 391 474Q391 419 379 381Q367 343 344.5 319Q322 295 290 284.5Q258 274 217 274Q176 274 144 284.5Q112 295 89.5 318.5Q67 342 55 380Q43 418 43 474ZM336 474Q336 566 301 601Q284 618 263.5 624.5Q243 631 217 631Q191 631 171 624.5Q151 618 134 601Q99 566 99 474Q99 426 108 395Q117 364 135 346Q151 330 171 324Q191 318 217 318Q243 318 263.5 324Q284 330 300 346Q317 364 326.5 395Q336 426 336 474Z" glyph-name="ordmasculine" horiz-adv-x="434" unicode="&#186;" /><glyph d="M512 255Q512 182 496.5 131.5Q481 81 451.5 49.5Q422 18 380 4Q338 -10 286 -10Q252 -10 222 -4Q217 -17 213 -28Q209 -39 207 -47H154L174 11Q119 36 89 94Q59 152 59 255Q59 328 74.5 379Q90 430 119.5 461Q149 492 191 506Q233 520 286 520Q319 520 348 514L363 556H416Q412 545 407 531Q402 517 396 500Q452 475 482 416.5Q512 358 512 255ZM454 255Q454 319 441.5 362.5Q429 406 407 428Q394 441 379 450Q364 405 345.5 352Q327 299 308 244.5Q289 190 271 138Q253 86 238 44Q258 40 286 40Q324 40 353.5 49.5Q383 59 407 82Q429 104 441.5 147.5Q454 191 454 255ZM165 82Q171 75 177.5 70.5Q184 66 191 61L332 467Q321 469 309.5 470Q298 471 286 471Q247 471 217.5 461.5Q188 452 165 428Q143 406 130.5 362.5Q118 319 118 255Q118 191 130.5 147.5Q143 104 165 82Z" glyph-name="oslash" horiz-adv-x="571" unicode="&#248;" /><glyph d="M512 255Q512 182 496.5 131.5Q481 81 451.5 49.5Q422 18 380 4Q338 -10 286 -10Q233 -10 191 4Q149 18 119.5 49.5Q90 81 74.5 131.5Q59 182 59 255Q59 328 74.5 379Q90 430 119.5 461Q149 492 191 506Q233 520 286 520Q338 520 380 506Q422 492 451.5 461Q481 430 496.5 379Q512 328 512 255ZM454 255Q454 319 441.5 362.5Q429 406 407 428Q383 452 353.5 461.5Q324 471 286 471Q247 471 217.5 461.5Q188 452 165 428Q143 406 130.5 362.5Q118 319 118 255Q118 191 130.5 147.5Q143 104 165 82Q188 59 217.5 49.5Q247 40 286 40Q324 40 353.5 49.5Q383 59 407 82Q429 104 441.5 147.5Q454 191 454 255ZM359 649Q380 649 403 659Q426 669 445 683V635Q430 624 405.5 613Q381 602 360 602Q340 602 321.5 607Q303 612 285 618.5Q267 625 249 630Q231 635 213 635Q192 635 169.5 624.5Q147 614 127 601V649Q142 660 166.5 671Q191 682 213 682Q232 682 250 677Q268 672 286 665.5Q304 659 322 654Q340 649 359 649Z" glyph-name="otilde" horiz-adv-x="571" unicode="&#245;" /><glyph d="M146 83Q169 61 203 51Q237 41 275 41Q316 41 348.5 52Q381 63 404 88.5Q427 114 439 154.5Q451 195 451 255Q451 370 412.5 419.5Q374 469 295 469Q209 469 146 390ZM139 447Q174 485 216.5 501.5Q259 518 304 518Q408 518 459 456Q510 394 510 257Q510 119 451 55.5Q392 -8 281 -8Q245 -8 207.5 0Q170 8 146 27V-168H89V510H132L138 447Z" glyph-name="p" horiz-adv-x="569" unicode="p" /><glyph d="M290 114H284Q241 115 201.5 128.5Q162 142 131.5 169.5Q101 197 83 238Q65 279 65 335Q65 393 83 435Q101 477 133 504Q165 531 209.5 544Q254 557 307 557H524V507H417V-168H355V506H290Z" glyph-name="paragraph" horiz-adv-x="589" unicode="&#182;" /><glyph d="M200 -118Q149 -15 120 93Q91 201 91 309Q91 416 119.5 522.5Q148 629 199 730H256Q210 635 181.5 525Q153 415 153 309Q153 201 182 90.5Q211 -20 256 -118Z" glyph-name="parenleft" horiz-adv-x="316" unicode="(" /><glyph d="M60 -118Q105 -20 134 90.5Q163 201 163 309Q163 415 134.5 525Q106 635 60 730H117Q169 629 197 522.5Q225 416 225 309Q225 201 196.5 93Q168 -15 117 -118Z" glyph-name="parenright" horiz-adv-x="316" unicode=")" /><glyph d="M503 310V330Q501 418 483.5 478Q466 538 428 577Q369 639 274 639Q229 639 184 630.5Q139 622 107 609V660Q139 674 182.5 681Q226 688 274 688Q336 688 388.5 667Q441 646 479.5 602.5Q518 559 540 493Q562 427 562 336Q562 264 551.5 201Q541 138 513 91Q485 44 436 16.5Q387 -11 309 -11Q244 -11 199.5 7Q155 25 127 55.5Q99 86 86.5 126.5Q74 167 74 212Q74 258 86.5 298.5Q99 339 126.5 369.5Q154 400 198.5 417.5Q243 435 307 435Q350 435 383 425.5Q416 416 439.5 399Q463 382 478 359.5Q493 337 501 310ZM309 39Q354 39 386.5 52Q419 65 440 88Q461 111 470.5 142.5Q480 174 480 211Q480 246 471 277.5Q462 309 441.5 333Q421 357 388 371Q355 385 307 385Q259 385 226 371.5Q193 358 172.5 334.5Q152 311 143 279.5Q134 248 134 212Q134 177 143.5 145.5Q153 114 174 90.5Q195 67 228 53Q261 39 309 39Z" glyph-name="partialdiff" horiz-adv-x="651" unicode="&#8706;" /><glyph d="M59 507Q59 545 65.5 578Q72 611 89 635.5Q106 660 137 674Q168 688 218 688Q267 688 298.5 674Q330 660 347.5 635.5Q365 611 371.5 578Q378 545 378 507Q378 469 371.5 436Q365 403 347.5 379Q330 355 298.5 341Q267 327 218 327Q168 327 137 341Q106 355 89 379Q72 403 65.5 436Q59 469 59 507ZM328 507Q328 535 324.5 560Q321 585 309.5 604Q298 623 276 634Q254 645 218 645Q182 645 160.5 634Q139 623 127 604Q115 585 111.5 560Q108 535 108 507Q108 479 111.5 454Q115 429 127 410.5Q139 392 160.5 381Q182 370 218 370Q254 370 276 381Q298 392 309.5 410.5Q321 429 324.5 454Q328 479 328 507ZM237 0H183L662 678H716ZM842 171Q842 133 835.5 100.5Q829 68 812 43Q795 18 763.5 4Q732 -10 683 -10Q633 -10 602 4Q571 18 554 43Q537 68 530.5 100.5Q524 133 524 171Q524 209 530.5 242Q537 275 554 299.5Q571 324 602 338Q633 352 683 352Q732 352 763.5 338Q795 324 812 299.5Q829 275 835.5 242Q842 209 842 171ZM573 171Q573 143 576.5 118Q580 93 592 74Q604 55 625.5 44Q647 33 683 33Q719 33 741 44Q763 55 774.5 74Q786 93 789.5 118Q793 143 793 171Q793 199 789.5 224.5Q786 250 774.5 268.5Q763 287 741 298Q719 309 683 309Q647 309 625.5 298Q604 287 592 268.5Q580 250 576.5 224.5Q573 199 573 171Z" glyph-name="percent" horiz-adv-x="901" unicode="%" /><glyph d="M159 0H87V91H159Z" glyph-name="period" horiz-adv-x="246" unicode="." /><glyph d="M159 228H87V319H159Z" glyph-name="periodcentered" horiz-adv-x="246" unicode="&#183;" /><glyph d="M59 507Q59 545 65.5 578Q72 611 89 635.5Q106 660 137 674Q168 688 218 688Q267 688 298.5 674Q330 660 347.5 635.5Q365 611 371.5 578Q378 545 378 507Q378 469 371.5 436Q365 403 347.5 379Q330 355 298.5 341Q267 327 218 327Q168 327 137 341Q106 355 89 379Q72 403 65.5 436Q59 469 59 507ZM328 507Q328 535 324.5 560Q321 585 309.5 604Q298 623 276 634Q254 645 218 645Q182 645 160.5 634Q139 623 127 604Q115 585 111.5 560Q108 535 108 507Q108 479 111.5 454Q115 429 127 410.5Q139 392 160.5 381Q182 370 218 370Q254 370 276 381Q298 392 309.5 410.5Q321 429 324.5 454Q328 479 328 507ZM237 0H183L662 678H716ZM842 171Q842 133 835.5 100.5Q829 68 812 43Q795 18 763.5 4Q732 -10 683 -10Q633 -10 602 4Q571 18 554 43Q537 68 530.5 100.5Q524 133 524 171Q524 209 530.5 242Q537 275 554 299.5Q571 324 602 338Q633 352 683 352Q732 352 763.5 338Q795 324 812 299.5Q829 275 835.5 242Q842 209 842 171ZM573 171Q573 143 576.5 118Q580 93 592 74Q604 55 625.5 44Q647 33 683 33Q719 33 741 44Q763 55 774.5 74Q786 93 789.5 118Q793 143 793 171Q793 199 789.5 224.5Q786 250 774.5 268.5Q763 287 741 298Q719 309 683 309Q647 309 625.5 298Q604 287 592 268.5Q580 250 576.5 224.5Q573 199 573 171ZM1220 171Q1220 133 1213.5 100.5Q1207 68 1190 43Q1173 18 1141.5 4Q1110 -10 1061 -10Q1011 -10 980 4Q949 18 932 43Q915 68 908.5 100.5Q902 133 902 171Q902 209 908.5 242Q915 275 932 299.5Q949 324 980 338Q1011 352 1061 352Q1110 352 1141.5 338Q1173 324 1190 299.5Q1207 275 1213.5 242Q1220 209 1220 171ZM951 171Q951 143 954.5 118Q958 93 970 74Q982 55 1003.5 44Q1025 33 1061 33Q1097 33 1119 44Q1141 55 1152.5 74Q1164 93 1167.5 118Q1171 143 1171 171Q1171 199 1167.5 224.5Q1164 250 1152.5 268.5Q1141 287 1119 298Q1097 309 1061 309Q1025 309 1003.5 298Q982 287 970 268.5Q958 250 954.5 224.5Q951 199 951 171Z" glyph-name="perthousand" horiz-adv-x="1280" unicode="&#8240;" /><glyph d="M513 247H314V47H258V247H60V297H258V496H314V297H513Z" glyph-name="plus" horiz-adv-x="573" unicode="+" /><glyph d="M513 356H314V179H258V356H60V406H258V582H314V406H513ZM513 4H60V54H513Z" glyph-name="plusminus" horiz-adv-x="573" unicode="&#177;" /><glyph d="M575 0H517V630H236V0H179V630H67V678H686V630H575Z" glyph-name="product" horiz-adv-x="753" unicode="&#8719;" /><glyph d="M433 476 440 510H480V-168H423V57H422Q387 23 347.5 7.5Q308 -8 265 -8Q161 -8 110 55Q59 118 59 255Q59 392 118.5 455Q178 518 288 518Q323 518 362 509Q401 500 432 476ZM423 426Q400 448 366 458.5Q332 469 294 469Q253 469 220.5 458Q188 447 165 421.5Q142 396 130 355.5Q118 315 118 255Q118 140 156 91Q194 42 273 42Q360 42 423 121Z" glyph-name="q" horiz-adv-x="569" unicode="q" /><glyph d="M116 205Q116 214 115.5 235.5Q115 257 114.5 281Q114 305 113.5 326.5Q113 348 113 357Q148 358 189.5 365Q231 372 266.5 389Q302 406 325.5 434Q349 462 349 506Q349 532 340.5 555.5Q332 579 312.5 597Q293 615 262.5 625.5Q232 636 188 636Q162 636 125 631.5Q88 627 50 614V667Q91 680 129 684Q167 688 199 688Q256 688 296.5 674.5Q337 661 363 637Q389 613 401 580.5Q413 548 413 509Q413 461 392 426.5Q371 392 337 369Q303 346 259.5 332.5Q216 319 171 313Q171 305 170.5 290.5Q170 276 170 259.5Q170 243 169.5 228Q169 213 169 205ZM179 0H107V90H179Z" glyph-name="question" horiz-adv-x="459" unicode="?" /><glyph d="M342 305Q342 296 342.5 274.5Q343 253 343.5 229Q344 205 344.5 183.5Q345 162 345 153Q310 152 268.5 145Q227 138 191.5 121Q156 104 132.5 75.5Q109 47 109 4Q109 -22 117.5 -45.5Q126 -69 145.5 -87Q165 -105 195.5 -115.5Q226 -126 270 -126Q296 -126 333 -121.5Q370 -117 408 -104V-157Q367 -170 329 -174Q291 -178 259 -178Q202 -178 161.5 -164.5Q121 -151 95 -127Q69 -103 57 -70.5Q45 -38 45 1Q45 49 66 83.5Q87 118 121 141Q155 164 198.5 177.5Q242 191 287 197Q287 204 287.5 219Q288 234 288 250.5Q288 267 288.5 282Q289 297 289 305ZM279 510H351V420H279Z" glyph-name="questiondown" horiz-adv-x="439" unicode="&#191;" /><glyph d="M241 461H201L193 678H249ZM119 461H78L70 678H127Z" glyph-name="quotedbl" horiz-adv-x="319" unicode="&quot;" /><glyph d="M119 100H195L107 -111H63ZM273 100H349L261 -111H217Z" glyph-name="quotedblbase" horiz-adv-x="397" unicode="&#8222;" /><glyph d="M277 468H201L289 678H333ZM124 468H47L135 678H180Z" glyph-name="quotedblleft" horiz-adv-x="396" unicode="&#8220;" /><glyph d="M119 678H195L107 467H63ZM272 678H348L260 467H216Z" glyph-name="quotedblright" horiz-adv-x="396" unicode="&#8221;" /><glyph d="M124 468H47L135 678H180Z" glyph-name="quoteleft" horiz-adv-x="243" unicode="&#8216;" /><glyph d="M119 678H195L107 467H63Z" glyph-name="quoteright" horiz-adv-x="243" unicode="&#8217;" /><glyph d="M116 100H192L104 -111H60Z" glyph-name="quotesinglbase" horiz-adv-x="243" unicode="&#8218;" /><glyph d="M119 461H78L70 678H127Z" glyph-name="quotesingle" horiz-adv-x="197" unicode="&apos;" /><glyph d="M140 430Q163 468 197.5 492.5Q232 517 284 517Q303 517 324.5 513.5Q346 510 363 502V453Q343 463 323 466Q303 469 287 469Q260 469 239.5 461.5Q219 454 202.5 440Q186 426 172 406.5Q158 387 146 363V0H89V510H132L139 430Z" glyph-name="r" horiz-adv-x="361" unicode="r" /><glyph d="M243 568H188L296 678H374ZM140 430Q163 468 197.5 492.5Q232 517 284 517Q303 517 324.5 513.5Q346 510 363 502V453Q343 463 323 466Q303 469 287 469Q260 469 239.5 461.5Q219 454 202.5 440Q186 426 172 406.5Q158 387 146 363V0H89V510H132L139 430Z" glyph-name="racute" horiz-adv-x="361" unicode="&#341;" /><glyph d="M36 453 170 485 238 167Q243 140 248 113Q253 86 258 61H259Q271 86 286 114Q301 142 315 166L605 678H668L274 -4H222L123 427Q102 422 79 416.5Q56 411 36 406Z" glyph-name="radical" horiz-adv-x="676" unicode="&#8730;" /><glyph d="M86 678H144L220 598L295 678H353L245 564H193ZM140 430Q163 468 197.5 492.5Q232 517 284 517Q303 517 324.5 513.5Q346 510 363 502V453Q343 463 323 466Q303 469 287 469Q260 469 239.5 461.5Q219 454 202.5 440Q186 426 172 406.5Q158 387 146 363V0H89V510H132L139 430Z" glyph-name="rcaron" horiz-adv-x="361" unicode="&#345;" /><glyph d="M84 -77H149L85 -240H46ZM140 430Q163 468 197.5 492.5Q232 517 284 517Q303 517 324.5 513.5Q346 510 363 502V453Q343 463 323 466Q303 469 287 469Q260 469 239.5 461.5Q219 454 202.5 440Q186 426 172 406.5Q158 387 146 363V0H89V510H132L139 430Z" glyph-name="rcommaaccent" horiz-adv-x="361" unicode="&#343;" /><glyph d="M559 168H510L448 297Q443 296 428.5 296Q414 296 409 296H350V168H305V516H423Q459 516 485 511Q511 506 527 493.5Q543 481 550.5 460Q558 439 558 407Q558 364 540 338Q522 312 492 304ZM433 334Q457 334 472.5 337.5Q488 341 497 349.5Q506 358 509.5 372Q513 386 513 408Q513 445 497 461.5Q481 478 433 478H350V334ZM769 341Q769 262 746.5 197Q724 132 680 86Q636 40 571 15Q506 -10 422 -10Q337 -10 272 14.5Q207 39 163 85Q119 131 96.5 196Q74 261 74 341Q74 421 96.5 485Q119 549 163.5 594Q208 639 273 663.5Q338 688 422 688Q506 688 571 663Q636 638 680 592.5Q724 547 746.5 483Q769 419 769 341ZM122 341Q122 271 140.5 214Q159 157 196.5 117Q234 77 290.5 55Q347 33 422 33Q497 33 553 55Q609 77 646.5 117.5Q684 158 702.5 215Q721 272 721 341Q721 409 702.5 465Q684 521 646.5 561Q609 601 553 623Q497 645 422 645Q347 645 291 623.5Q235 602 197.5 562.5Q160 523 141 466.5Q122 410 122 341Z" glyph-name="registered" horiz-adv-x="843" unicode="&#174;" /><glyph d="M345 642Q345 682 301 682Q257 682 257 642Q257 604 301 604Q345 604 345 642ZM385 642Q385 606 363.5 589Q342 572 301 572Q261 572 239 589Q217 606 217 642Q217 679 239 696Q261 713 301 713Q342 713 363.5 696Q385 679 385 642Z" glyph-name="ring" horiz-adv-x="602" unicode="&#730;" /><glyph d="M224 42Q293 42 334 65Q375 88 375 142Q375 173 365 191Q355 209 337.5 218Q320 227 296.5 229.5Q273 232 246 233Q216 234 184.5 238Q153 242 126.5 256.5Q100 271 83.5 300Q67 329 67 380Q67 422 83.5 449Q100 476 127.5 491.5Q155 507 190 513.5Q225 520 262 520Q274 520 290.5 519Q307 518 324.5 516Q342 514 360 511Q378 508 394 503V454Q359 465 324 468Q289 471 260 471Q231 471 206.5 466.5Q182 462 164 451Q146 440 135.5 422.5Q125 405 125 380Q125 348 135.5 330.5Q146 313 164 304.5Q182 296 205.5 293.5Q229 291 255 290Q288 288 319.5 284Q351 280 376.5 265Q402 250 417.5 221.5Q433 193 433 144Q433 101 414.5 71.5Q396 42 366.5 24Q337 6 299.5 -1.5Q262 -9 223 -9Q209 -9 189 -7.5Q169 -6 147.5 -3.5Q126 -1 105 3.5Q84 8 68 14V66Q104 54 148 48Q192 42 224 42Z" glyph-name="s" horiz-adv-x="476" unicode="s" /><glyph d="M261 568H206L314 678H392ZM224 42Q293 42 334 65Q375 88 375 142Q375 173 365 191Q355 209 337.5 218Q320 227 296.5 229.5Q273 232 246 233Q216 234 184.5 238Q153 242 126.5 256.5Q100 271 83.5 300Q67 329 67 380Q67 422 83.5 449Q100 476 127.5 491.5Q155 507 190 513.5Q225 520 262 520Q274 520 290.5 519Q307 518 324.5 516Q342 514 360 511Q378 508 394 503V454Q359 465 324 468Q289 471 260 471Q231 471 206.5 466.5Q182 462 164 451Q146 440 135.5 422.5Q125 405 125 380Q125 348 135.5 330.5Q146 313 164 304.5Q182 296 205.5 293.5Q229 291 255 290Q288 288 319.5 284Q351 280 376.5 265Q402 250 417.5 221.5Q433 193 433 144Q433 101 414.5 71.5Q396 42 366.5 24Q337 6 299.5 -1.5Q262 -9 223 -9Q209 -9 189 -7.5Q169 -6 147.5 -3.5Q126 -1 105 3.5Q84 8 68 14V66Q104 54 148 48Q192 42 224 42Z" glyph-name="sacute" horiz-adv-x="476" unicode="&#347;" /><glyph d="M112 678H170L246 598L321 678H379L271 564H219ZM224 42Q293 42 334 65Q375 88 375 142Q375 173 365 191Q355 209 337.5 218Q320 227 296.5 229.5Q273 232 246 233Q216 234 184.5 238Q153 242 126.5 256.5Q100 271 83.5 300Q67 329 67 380Q67 422 83.5 449Q100 476 127.5 491.5Q155 507 190 513.5Q225 520 262 520Q274 520 290.5 519Q307 518 324.5 516Q342 514 360 511Q378 508 394 503V454Q359 465 324 468Q289 471 260 471Q231 471 206.5 466.5Q182 462 164 451Q146 440 135.5 422.5Q125 405 125 380Q125 348 135.5 330.5Q146 313 164 304.5Q182 296 205.5 293.5Q229 291 255 290Q288 288 319.5 284Q351 280 376.5 265Q402 250 417.5 221.5Q433 193 433 144Q433 101 414.5 71.5Q396 42 366.5 24Q337 6 299.5 -1.5Q262 -9 223 -9Q209 -9 189 -7.5Q169 -6 147.5 -3.5Q126 -1 105 3.5Q84 8 68 14V66Q104 54 148 48Q192 42 224 42Z" glyph-name="scaron" horiz-adv-x="476" unicode="&#353;" /><glyph d="M229 -9H223Q209 -9 189 -7.5Q169 -6 147.5 -3.5Q126 -1 105 3.5Q84 8 68 14V66Q104 54 148 48Q192 42 224 42Q293 42 334 65Q375 88 375 142Q375 173 365 191Q355 209 337.5 218Q320 227 296.5 229.5Q273 232 246 233Q216 234 184.5 238Q153 242 126.5 256.5Q100 271 83.5 300Q67 329 67 380Q67 422 83.5 449Q100 476 127.5 491.5Q155 507 190 513.5Q225 520 262 520Q274 520 290.5 519Q307 518 324.5 516Q342 514 360 511Q378 508 394 503V454Q359 465 324 468Q289 471 260 471Q231 471 206.5 466.5Q182 462 164 451Q146 440 135.5 422.5Q125 405 125 380Q125 348 135.5 330.5Q146 313 164 304.5Q182 296 205.5 293.5Q229 291 255 290Q288 288 319.5 284Q351 280 376.5 265Q402 250 417.5 221.5Q433 193 433 144Q433 109 421 83.5Q409 58 388 40Q367 22 339.5 11Q312 0 282 -4L267 -41Q296 -47 314 -61Q332 -75 332 -100Q332 -136 301.5 -153Q271 -170 220 -170Q209 -170 190.5 -168Q172 -166 150 -161V-121Q166 -126 184.5 -127.5Q203 -129 216 -129Q278 -129 278 -97Q278 -89 272 -83Q266 -77 257 -73.5Q248 -70 237.5 -68Q227 -66 217 -65L212 -46Z" glyph-name="scedilla" horiz-adv-x="476" unicode="&#351;" /><glyph d="M378 568H320L244 648L169 568H111L219 682H271ZM224 42Q293 42 334 65Q375 88 375 142Q375 173 365 191Q355 209 337.5 218Q320 227 296.5 229.5Q273 232 246 233Q216 234 184.5 238Q153 242 126.5 256.5Q100 271 83.5 300Q67 329 67 380Q67 422 83.5 449Q100 476 127.5 491.5Q155 507 190 513.5Q225 520 262 520Q274 520 290.5 519Q307 518 324.5 516Q342 514 360 511Q378 508 394 503V454Q359 465 324 468Q289 471 260 471Q231 471 206.5 466.5Q182 462 164 451Q146 440 135.5 422.5Q125 405 125 380Q125 348 135.5 330.5Q146 313 164 304.5Q182 296 205.5 293.5Q229 291 255 290Q288 288 319.5 284Q351 280 376.5 265Q402 250 417.5 221.5Q433 193 433 144Q433 101 414.5 71.5Q396 42 366.5 24Q337 6 299.5 -1.5Q262 -9 223 -9Q209 -9 189 -7.5Q169 -6 147.5 -3.5Q126 -1 105 3.5Q84 8 68 14V66Q104 54 148 48Q192 42 224 42Z" glyph-name="scircumflex" horiz-adv-x="476" unicode="&#349;" /><glyph d="M215 -77H280L216 -240H177ZM224 42Q293 42 334 65Q375 88 375 142Q375 173 365 191Q355 209 337.5 218Q320 227 296.5 229.5Q273 232 246 233Q216 234 184.5 238Q153 242 126.5 256.5Q100 271 83.5 300Q67 329 67 380Q67 422 83.5 449Q100 476 127.5 491.5Q155 507 190 513.5Q225 520 262 520Q274 520 290.5 519Q307 518 324.5 516Q342 514 360 511Q378 508 394 503V454Q359 465 324 468Q289 471 260 471Q231 471 206.5 466.5Q182 462 164 451Q146 440 135.5 422.5Q125 405 125 380Q125 348 135.5 330.5Q146 313 164 304.5Q182 296 205.5 293.5Q229 291 255 290Q288 288 319.5 284Q351 280 376.5 265Q402 250 417.5 221.5Q433 193 433 144Q433 101 414.5 71.5Q396 42 366.5 24Q337 6 299.5 -1.5Q262 -9 223 -9Q209 -9 189 -7.5Q169 -6 147.5 -3.5Q126 -1 105 3.5Q84 8 68 14V66Q104 54 148 48Q192 42 224 42Z" glyph-name="scommaaccent" horiz-adv-x="476" unicode="&#537;" /><glyph d="M434 269Q434 230 420.5 203.5Q407 177 384 155Q407 138 420 110Q433 82 433 46Q433 -7 415 -41Q397 -75 367.5 -94Q338 -113 300.5 -120Q263 -127 224 -127Q210 -127 190 -125.5Q170 -124 148.5 -121Q127 -118 106 -113.5Q85 -109 69 -103V-50Q105 -64 149 -70Q193 -76 225 -76Q259 -76 287 -71Q315 -66 334.5 -53.5Q354 -41 364.5 -18.5Q375 4 375 39Q375 82 351 106Q333 124 305 132.5Q277 141 245.5 147.5Q214 154 182.5 161.5Q151 169 125.5 184.5Q100 200 83.5 227.5Q67 255 67 301Q67 342 84 371Q101 400 123 414Q98 433 83 463Q68 493 68 530Q68 579 85 610Q102 641 129.5 658Q157 675 192 681.5Q227 688 263 688Q275 688 291 687Q307 686 325 684Q343 682 361 678Q379 674 395 668V619Q360 632 325 635.5Q290 639 261 639Q232 639 207.5 634.5Q183 630 165 617.5Q147 605 136.5 583.5Q126 562 126 529Q126 507 134.5 490Q143 473 154 462Q170 446 197 438.5Q224 431 255 425Q286 419 318 411Q350 403 375.5 387Q401 371 417.5 343Q434 315 434 269ZM376 266Q376 306 356.5 327Q337 348 307 358.5Q277 369 241 374.5Q205 380 172 390Q152 377 139 355Q126 333 126 301Q126 262 147 242.5Q168 223 199.5 213Q231 203 268 197Q305 191 338 179Q356 193 366 214.5Q376 236 376 266Z" glyph-name="section" horiz-adv-x="500" unicode="&#167;" /><glyph d="M160 419H88V509H160ZM92 100H168L80 -111H36Z" glyph-name="semicolon" horiz-adv-x="244" unicode=";" /><glyph d="M187 1H123L377 630V631H30V679H437L440 634Z" glyph-name="seven" horiz-adv-x="472" unicode="7" /><glyph d="M133 335Q151 356 174.5 371Q198 386 223 396.5Q248 407 272.5 412Q297 417 318 417Q376 417 416.5 400Q457 383 482.5 354Q508 325 519.5 287Q531 249 531 207Q531 166 518.5 127.5Q506 89 479 58Q452 27 409.5 8.5Q367 -10 307 -10Q247 -10 202.5 13Q158 36 129 79Q100 122 86 184Q72 246 72 325Q72 400 85.5 466.5Q99 533 130.5 582Q162 631 215 659.5Q268 688 347 688Q360 688 378 687Q396 686 415 683.5Q434 681 452.5 676.5Q471 672 486 665V614Q454 628 416.5 633Q379 638 348 638Q290 638 249.5 617.5Q209 597 183 558Q157 519 144.5 463Q132 407 132 335ZM315 365Q292 365 267.5 359Q243 353 219 341Q195 329 173.5 311Q152 293 134 268Q139 158 182 99Q225 40 311 40Q356 40 386.5 54Q417 68 436 91Q455 114 463.5 143.5Q472 173 472 205Q472 238 464.5 267Q457 296 438.5 317.5Q420 339 390 352Q360 365 315 365Z" glyph-name="six" horiz-adv-x="590" unicode="6" /><glyph d="M44 -85H-10L284 763H337Z" glyph-name="slash" horiz-adv-x="327" unicode="/" /><glyph glyph-name="space" horiz-adv-x="235" unicode=" " /><glyph d="M264 135Q264 132 263 124.5Q262 117 261.5 109.5Q261 102 260 96.5Q259 91 259 90Q290 70 332 58Q374 46 422 46Q459 46 495 54.5Q531 63 560 77V26Q533 12 493.5 3Q454 -6 417 -6Q363 -6 319.5 5Q276 16 241 36Q227 17 206.5 8.5Q186 0 164 0Q153 0 143.5 1Q134 2 122 4V54Q129 53 135 52.5Q141 52 146 52Q173 52 186 71Q199 90 201 117L218 321H148V371H222L230 459Q235 511 245.5 553Q256 595 277.5 625Q299 655 334 671.5Q369 688 423 688Q460 688 488.5 682.5Q517 677 548 665V611Q516 625 489 630.5Q462 636 427 636Q388 636 363 623.5Q338 611 323.5 587.5Q309 564 302.5 530Q296 496 292 453L285 371H456V321H280Z" glyph-name="sterling" horiz-adv-x="660" unicode="&#163;" /><glyph d="M532 678V630H249Q229 630 208 630Q187 630 158 632V630L441 363V331L133 48V46Q162 47 184 47.5Q206 48 228 48H554V0H57V47L382 348L85 632V678Z" glyph-name="summation" horiz-adv-x="604" unicode="&#8721;" /><glyph d="M367 14Q347 5 315.5 -1Q284 -7 253 -7Q215 -7 190 1Q165 9 150.5 27.5Q136 46 130 77Q124 108 124 154V463H32V502L129 511L143 624H183L182 510H358V463H181V152Q181 121 183.5 100Q186 79 195 66Q204 53 221.5 47.5Q239 42 268 42Q291 42 320.5 48.5Q350 55 367 64Z" glyph-name="t" horiz-adv-x="390" unicode="t" /><glyph d="M367 14Q347 5 315.5 -1Q284 -7 253 -7Q215 -7 190 1Q165 9 150.5 27.5Q136 46 130 77Q124 108 124 154V249H46V296H124V463H32V502L129 511L143 624H183L182 510H358V463H181V296H317V249H181V152Q181 121 183.5 100Q186 79 195 66Q204 53 221.5 47.5Q239 42 268 42Q291 42 320.5 48.5Q350 55 367 64Z" glyph-name="tbar" horiz-adv-x="390" unicode="&#359;" /><glyph d="M318 724H383L319 561H280ZM367 14Q347 5 315.5 -1Q284 -7 253 -7Q215 -7 190 1Q165 9 150.5 27.5Q136 46 130 77Q124 108 124 154V463H32V502L129 511L143 624H183L182 510H358V463H181V152Q181 121 183.5 100Q186 79 195 66Q204 53 221.5 47.5Q239 42 268 42Q291 42 320.5 48.5Q350 55 367 64Z" glyph-name="tcaron" horiz-adv-x="390" unicode="&#357;" /><glyph d="M204 -77H269L205 -240H166ZM367 14Q347 5 315.5 -1Q284 -7 253 -7Q215 -7 190 1Q165 9 150.5 27.5Q136 46 130 77Q124 108 124 154V463H32V502L129 511L143 624H183L182 510H358V463H181V152Q181 121 183.5 100Q186 79 195 66Q204 53 221.5 47.5Q239 42 268 42Q291 42 320.5 48.5Q350 55 367 64Z" glyph-name="tcommaaccent" horiz-adv-x="390" unicode="&#355;" /><glyph d="M89 678H146V452H147Q177 487 219 502.5Q261 518 306 518Q415 518 462.5 451.5Q510 385 510 257Q510 122 452 57Q394 -8 281 -8Q228 -8 194 4Q160 16 147 27H146V-168H89ZM146 83Q169 61 203 51Q237 41 275 41Q316 41 348.5 52Q381 63 404 88.5Q427 114 439 154.5Q451 195 451 255Q451 370 412.5 419.5Q374 469 295 469Q209 469 146 390Z" glyph-name="thorn" horiz-adv-x="569" unicode="&#254;" /><glyph d="M358 351Q380 343 400 331Q420 319 435.5 300Q451 281 460.5 255.5Q470 230 470 195Q470 141 452 102.5Q434 64 402.5 40Q371 16 327 5Q283 -6 231 -6Q194 -6 150 1Q106 8 66 22V74Q85 66 107.5 61Q130 56 152 52Q174 48 194 46.5Q214 45 229 45Q269 45 302.5 52.5Q336 60 360 77.5Q384 95 397 123.5Q410 152 410 193Q410 225 400.5 247.5Q391 270 376 286Q352 309 323.5 317Q295 325 266 325H157V372H263Q290 372 315 380Q340 388 360 408Q397 445 397 503Q397 529 390 554Q383 579 365.5 598Q348 617 317.5 628.5Q287 640 241 640Q208 640 165 634Q122 628 88 617V667Q126 680 168.5 685Q211 690 243 690Q302 690 343 675.5Q384 661 409.5 637Q435 613 446.5 580.5Q458 548 458 512Q458 452 429 412Q400 372 358 352Z" glyph-name="three" horiz-adv-x="550" unicode="3" /><glyph d="M207 505Q229 495 244 476.5Q259 458 259 425Q259 367 222 341.5Q185 316 130 316Q109 316 83.5 320Q58 324 35 333V372Q61 362 87 358Q113 354 130 354Q163 354 186.5 369.5Q210 385 210 424Q210 441 205.5 451Q201 461 195 468Q184 479 172 482.5Q160 486 146 486H81V522H144Q156 522 167 525Q178 528 187 537Q203 553 203 583Q203 607 189 626.5Q175 646 133 646Q115 646 92 642Q69 638 46 630V669Q68 677 91.5 680Q115 683 135 683Q198 683 225 654.5Q252 626 252 587Q252 558 239.5 538Q227 518 207 506ZM703 0H656V89H483L482 121L614 358H662L537 125V124L659 125L664 246H703V126H751V89H703ZM170 0H116L595 678H650Z" glyph-name="threequarters" horiz-adv-x="759" /><glyph d="M207 505Q229 495 244 476.5Q259 458 259 425Q259 367 222 341.5Q185 316 130 316Q109 316 83.5 320Q58 324 35 333V372Q61 362 87 358Q113 354 130 354Q163 354 186.5 369.5Q210 385 210 424Q210 441 205.5 451Q201 461 195 468Q184 479 172 482.5Q160 486 146 486H81V522H144Q156 522 167 525Q178 528 187 537Q203 553 203 583Q203 607 189 626.5Q175 646 133 646Q115 646 92 642Q69 638 46 630V669Q68 677 91.5 680Q115 683 135 683Q198 683 225 654.5Q252 626 252 587Q252 558 239.5 538Q227 518 207 506Z" glyph-name="threesuperior" horiz-adv-x="296" /><glyph d="M387 649Q408 649 431 659Q454 669 473 683V635Q458 624 433.5 613Q409 602 388 602Q368 602 349.5 607Q331 612 313 618.5Q295 625 277 630Q259 635 241 635Q220 635 197.5 624.5Q175 614 155 601V649Q170 660 194.5 671Q219 682 241 682Q260 682 278 677Q296 672 314 665.5Q332 659 350 654Q368 649 387 649Z" glyph-name="tilde" horiz-adv-x="600" unicode="&#732;" /><glyph d="M427 445 371 557Q361 577 350 601Q339 625 332 641H330Q330 626 330.5 607Q331 588 331.5 567Q332 546 332 525Q332 504 332 486V373H298V678H348L444 485H446L541 678H592V373H556V486Q556 504 556 525Q556 546 556.5 567Q557 588 557.5 607Q558 626 558 641H556Q549 625 538 601Q527 577 517 557L461 445ZM150 373H116V648H19V678H249V648H150Z" glyph-name="trademark" horiz-adv-x="651" unicode="&#8482;" /><glyph d="M462 0H56L53 51Q135 121 197 180Q259 239 300 292.5Q341 346 361.5 396.5Q382 447 382 500Q382 568 343.5 603Q305 638 230 638Q210 638 188 636Q166 634 145 630.5Q124 627 105 622.5Q86 618 73 614V664Q100 672 141 679.5Q182 687 234 687Q279 687 317.5 677Q356 667 384 644.5Q412 622 427.5 586.5Q443 551 443 501Q443 443 421.5 389Q400 335 359 280.5Q318 226 259.5 169.5Q201 113 128 50V48H462Z" glyph-name="two" horiz-adv-x="535" unicode="2" /><glyph d="M252 320H27L26 353Q110 426 152 479Q194 532 194 582Q194 614 176 629.5Q158 645 125 645Q102 645 78.5 640.5Q55 636 36 630V668Q52 673 75 678Q98 683 127 683Q178 683 210 659.5Q242 636 242 582Q242 528 201.5 475Q161 422 91 356V355Q106 356 128 356Q150 356 160 356H252Z" glyph-name="twosuperior" horiz-adv-x="288" /><glyph d="M432 75Q389 30 339.5 11Q290 -8 236 -8Q189 -8 159 2.5Q129 13 111.5 33Q94 53 87 83Q80 113 80 152V510H137V163Q137 130 142 107Q147 84 160 69.5Q173 55 194.5 48.5Q216 42 248 42Q299 42 345 64Q391 86 426 131V510H483V0H440L433 75Z" glyph-name="u" horiz-adv-x="572" unicode="u" /><glyph d="M303 568H248L356 678H434ZM432 75Q389 30 339.5 11Q290 -8 236 -8Q189 -8 159 2.5Q129 13 111.5 33Q94 53 87 83Q80 113 80 152V510H137V163Q137 130 142 107Q147 84 160 69.5Q173 55 194.5 48.5Q216 42 248 42Q299 42 345 64Q391 86 426 131V510H483V0H440L433 75Z" glyph-name="uacute" horiz-adv-x="572" unicode="&#250;" /><glyph d="M432 75Q389 30 339.5 11Q290 -8 236 -8Q189 -8 159 2.5Q129 13 111.5 33Q94 53 87 83Q80 113 80 152V510H137V163Q137 130 142 107Q147 84 160 69.5Q173 55 194.5 48.5Q216 42 248 42Q299 42 345 64Q391 86 426 131V510H483V0H440L433 75ZM285 609Q323 609 355 624Q387 639 395 678H447Q436 618 392.5 592.5Q349 567 285 567Q221 567 177.5 592.5Q134 618 123 678H175Q184 639 215.5 624Q247 609 285 609Z" glyph-name="ubreve" horiz-adv-x="572" unicode="&#365;" /><glyph d="M415 568H357L281 648L206 568H148L256 682H308ZM432 75Q389 30 339.5 11Q290 -8 236 -8Q189 -8 159 2.5Q129 13 111.5 33Q94 53 87 83Q80 113 80 152V510H137V163Q137 130 142 107Q147 84 160 69.5Q173 55 194.5 48.5Q216 42 248 42Q299 42 345 64Q391 86 426 131V510H483V0H440L433 75Z" glyph-name="ucircumflex" horiz-adv-x="572" unicode="&#251;" /><glyph d="M232 597H170V672H232ZM394 597H332V672H394ZM432 75Q389 30 339.5 11Q290 -8 236 -8Q189 -8 159 2.5Q129 13 111.5 33Q94 53 87 83Q80 113 80 152V510H137V163Q137 130 142 107Q147 84 160 69.5Q173 55 194.5 48.5Q216 42 248 42Q299 42 345 64Q391 86 426 131V510H483V0H440L433 75Z" glyph-name="udieresis" horiz-adv-x="572" unicode="&#252;" /><glyph d="M432 75Q389 30 339.5 11Q290 -8 236 -8Q189 -8 159 2.5Q129 13 111.5 33Q94 53 87 83Q80 113 80 152V510H137V163Q137 130 142 107Q147 84 160 69.5Q173 55 194.5 48.5Q216 42 248 42Q299 42 345 64Q391 86 426 131V510H483V0H440L433 75ZM132 678H210L318 568H263Z" glyph-name="ugrave" horiz-adv-x="572" unicode="&#249;" /><glyph d="M432 75Q389 30 339.5 11Q290 -8 236 -8Q189 -8 159 2.5Q129 13 111.5 33Q94 53 87 83Q80 113 80 152V510H137V163Q137 130 142 107Q147 84 160 69.5Q173 55 194.5 48.5Q216 42 248 42Q299 42 345 64Q391 86 426 131V510H483V0H440L433 75ZM244 568H197L304 678H375ZM357 568H310L417 678H488Z" glyph-name="uhungarumlaut" horiz-adv-x="572" unicode="&#369;" /><glyph d="M432 75Q389 30 339.5 11Q290 -8 236 -8Q189 -8 159 2.5Q129 13 111.5 33Q94 53 87 83Q80 113 80 152V510H137V163Q137 130 142 107Q147 84 160 69.5Q173 55 194.5 48.5Q216 42 248 42Q299 42 345 64Q391 86 426 131V510H483V0H440L433 75ZM440 609H124V657H440Z" glyph-name="umacron" horiz-adv-x="572" unicode="&#363;" /><glyph d="M0 -168V-121H488V-168Z" glyph-name="underscore" horiz-adv-x="488" unicode="_" /><glyph d="M336 247H36V297H336Z" glyph-name="uni00AD" horiz-adv-x="372" unicode="&#173;" /><glyph d="M432 75Q389 30 339.5 11Q290 -8 236 -8Q189 -8 159 2.5Q129 13 111.5 33Q94 53 87 83Q80 113 80 152V510H137V163Q137 130 142 107Q147 84 160 69.5Q173 55 194.5 48.5Q216 42 248 42Q299 42 345 64Q391 86 426 131V510H483V0Q452 -18 437.5 -41Q423 -64 423 -83Q423 -100 434.5 -114.5Q446 -129 478 -129Q492 -129 506 -127Q520 -125 537 -120V-161Q523 -166 504 -168Q485 -170 470 -170Q415 -170 392.5 -147Q370 -124 370 -91Q370 -65 388.5 -38Q407 -11 439 8L433 75Z" glyph-name="uogonek" horiz-adv-x="572" unicode="&#371;" /><glyph d="M326 642Q326 682 282 682Q238 682 238 642Q238 604 282 604Q326 604 326 642ZM366 642Q366 606 344.5 589Q323 572 282 572Q242 572 220 589Q198 606 198 642Q198 679 220 696Q242 713 282 713Q323 713 344.5 696Q366 679 366 642ZM432 75Q389 30 339.5 11Q290 -8 236 -8Q189 -8 159 2.5Q129 13 111.5 33Q94 53 87 83Q80 113 80 152V510H137V163Q137 130 142 107Q147 84 160 69.5Q173 55 194.5 48.5Q216 42 248 42Q299 42 345 64Q391 86 426 131V510H483V0H440L433 75Z" glyph-name="uring" horiz-adv-x="572" unicode="&#367;" /><glyph d="M432 75Q389 30 339.5 11Q290 -8 236 -8Q189 -8 159 2.5Q129 13 111.5 33Q94 53 87 83Q80 113 80 152V510H137V163Q137 130 142 107Q147 84 160 69.5Q173 55 194.5 48.5Q216 42 248 42Q299 42 345 64Q391 86 426 131V510H483V0H440L433 75ZM355 649Q376 649 399 659Q422 669 441 683V635Q426 624 401.5 613Q377 602 356 602Q336 602 317.5 607Q299 612 281 618.5Q263 625 245 630Q227 635 209 635Q188 635 165.5 624.5Q143 614 123 601V649Q138 660 162.5 671Q187 682 209 682Q228 682 246 677Q264 672 282 665.5Q300 659 318 654Q336 649 355 649Z" glyph-name="utilde" horiz-adv-x="572" unicode="&#361;" /><glyph d="M420 510H478L282 0H211L16 510H77L247 52H249Z" glyph-name="v" horiz-adv-x="493" unicode="v" /><glyph d="M241 0H177L18 510H77L211 60H213L354 429L321 510H380L552 60H554L688 510H745L587 0H523L381 357H380Z" glyph-name="w" horiz-adv-x="763" unicode="w" /><glyph d="M372 568H317L425 678H503ZM241 0H177L18 510H77L211 60H213L354 429L321 510H380L552 60H554L688 510H745L587 0H523L381 357H380Z" glyph-name="wacute" horiz-adv-x="758" unicode="&#7811;" /><glyph d="M512 568H454L378 648L303 568H245L353 682H405ZM241 0H177L18 510H77L211 60H213L354 429L321 510H380L552 60H554L688 510H745L587 0H523L381 357H380Z" glyph-name="wcircumflex" horiz-adv-x="758" unicode="&#373;" /><glyph d="M330 597H268V672H330ZM492 597H430V672H492ZM241 0H177L18 510H77L211 60H213L354 429L321 510H380L552 60H554L688 510H745L587 0H523L381 357H380Z" glyph-name="wdieresis" horiz-adv-x="758" unicode="&#7813;" /><glyph d="M241 0H177L18 510H77L211 60H213L354 429L321 510H380L552 60H554L688 510H745L587 0H523L381 357H380ZM186 678H264L372 568H317Z" glyph-name="wgrave" horiz-adv-x="758" unicode="&#7809;" /><glyph d="M230 214 76 0H8L196 259L15 510H83Q108 475 134 438Q160 401 182 371Q208 336 231 303L380 510H446L264 259L453 0H384Z" glyph-name="x" horiz-adv-x="461" unicode="x" /><glyph d="M480 510 204 -168H145L220 13L16 510H77L249 80H250L422 510Z" glyph-name="y" horiz-adv-x="495" unicode="y" /><glyph d="M480 510 204 -168H145L220 13L16 510H77L249 80H250L422 510ZM271 568H216L324 678H402Z" glyph-name="yacute" horiz-adv-x="495" unicode="&#253;" /><glyph d="M480 510 204 -168H145L220 13L16 510H77L249 80H250L422 510ZM381 568H323L247 648L172 568H114L222 682H274Z" glyph-name="ycircumflex" horiz-adv-x="495" unicode="&#375;" /><glyph d="M480 510 204 -168H145L220 13L16 510H77L249 80H250L422 510ZM200 597H138V672H200ZM362 597H300V672H362Z" glyph-name="ydieresis" horiz-adv-x="495" unicode="&#255;" /><glyph d="M358 271V0H295V271H96V316H275L245 373H96V417H222L86 678H155L327 333H328L509 678H574L432 417H561V373H409L378 316H562V271Z" glyph-name="yen" horiz-adv-x="660" unicode="&#165;" /><glyph d="M406 510V472L110 49V47H403V0H37V38L333 462V463H53V510Z" glyph-name="z" horiz-adv-x="446" unicode="z" /><glyph d="M241 568H186L294 678H372ZM406 510V472L110 49V47H403V0H37V38L333 462V463H53V510Z" glyph-name="zacute" horiz-adv-x="443" unicode="&#378;" /><glyph d="M101 678H159L235 598L310 678H368L260 564H208ZM406 510V472L110 49V47H403V0H37V38L333 462V463H53V510Z" glyph-name="zcaron" horiz-adv-x="443" unicode="&#158;" /><glyph d="M406 510V472L110 49V47H403V0H37V38L333 462V463H53V510ZM262 596H198V677H262Z" glyph-name="zdotaccent" horiz-adv-x="443" unicode="&#380;" /><glyph d="M491 339Q491 402 486.5 457Q482 512 464 552.5Q446 593 411 616Q376 639 315 639Q254 639 219 616Q184 593 166.5 552.5Q149 512 144.5 457Q140 402 140 339Q140 276 144.5 221Q149 166 166.5 126Q184 86 219 63Q254 40 315 40Q376 40 411 63Q446 86 464 126Q482 166 486.5 221Q491 276 491 339ZM80 339Q80 416 88.5 480Q97 544 122.5 590.5Q148 637 194 662.5Q240 688 315 688Q390 688 436 662.5Q482 637 507.5 590.5Q533 544 542 480Q551 416 551 339Q551 262 542 198Q533 134 507.5 87.5Q482 41 436 15.5Q390 -10 315 -10Q240 -10 194 15.5Q148 41 122.5 87.5Q97 134 88.5 198Q80 262 80 339Z" glyph-name="zero" horiz-adv-x="629" unicode="0" /></font>
</defs>
</svg>
