<?xml version="1.0" standalone="no"?><!DOCTYPE svg PUBLIC "-//W3C//DTD SVG 1.1//EN" "http://www.w3.org/Graphics/SVG/1.1/DTD/svg11.dtd" ><svg version="1.1" xmlns="http://www.w3.org/2000/svg"><defs><font horiz-adv-x="0" id="font"><font-face ascent="832" bbox="-180 -233 1218 881" cap-height="678" descent="-168" font-family="Gustan" font-stretch="normal" font-style="normal" font-weight="600" units-per-em="1000" x-height="510" /><missing-glyph d="M90 780H870V0H90ZM201 66H759L480 345ZM480 435 759 714H201ZM160 665V115L435 390ZM800 115V665L525 390Z" horiz-adv-x="960" /><glyph glyph-name=".null" horiz-adv-x="0" /><glyph d="M22 0 267 678H312L565 0H529L462 179H123L58 0ZM290 645H289L132 209H451Z" glyph-name="A" horiz-adv-x="587" unicode="A" /><glyph d="M502 179H132L-10 0H-53L489 678H876V648H536V360H832V331H536V29H883V0H502ZM155 209H502V642H501Z" glyph-name="AE" horiz-adv-x="922" unicode="&#198;" /><glyph d="M22 0 267 678H312L565 0H529L462 179H123L58 0ZM290 645H289L132 209H451ZM311 737H278L386 846H433Z" glyph-name="Aacute" horiz-adv-x="587" unicode="&#193;" /><glyph d="M22 0 267 678H312L565 0H529L462 179H123L58 0ZM290 645H289L132 209H451ZM290 767Q336 767 369 785.5Q402 804 413 846H446Q435 790 392.5 765.5Q350 741 290 741Q230 741 187.5 765.5Q145 790 134 846H167Q178 804 211 785.5Q244 767 290 767Z" glyph-name="Abreve" horiz-adv-x="587" unicode="&#258;" /><glyph d="M22 0 267 678H312L565 0H529L462 179H123L58 0ZM290 645H289L132 209H451ZM289 827 207 737H172L277 850H303L408 737H373Z" glyph-name="Acircumflex" horiz-adv-x="587" unicode="&#194;" /><glyph d="M22 0 267 678H312L565 0H529L462 179H123L58 0ZM290 645H289L132 209H451ZM241 775H206V839H241ZM376 775H341V839H376Z" glyph-name="Adieresis" horiz-adv-x="587" unicode="&#196;" /><glyph d="M22 0 267 678H312L565 0H529L462 179H123L58 0ZM290 645H289L132 209H451ZM149 846H196L303 737H271Z" glyph-name="Agrave" horiz-adv-x="587" unicode="&#192;" /><glyph d="M22 0 267 678H312L565 0H529L462 179H123L58 0ZM290 645H289L132 209H451ZM441 787H139V815H441Z" glyph-name="Amacron" horiz-adv-x="587" unicode="&#256;" /><glyph d="M22 0 267 678H312L565 0H564Q529 -20 514.5 -44Q500 -68 500 -87Q500 -97 503 -106.5Q506 -116 513.5 -123.5Q521 -131 534 -135.5Q547 -140 567 -140Q580 -140 593 -138.5Q606 -137 621 -132V-157Q609 -162 592 -164Q575 -166 561 -166Q509 -166 489.5 -143.5Q470 -121 470 -89Q470 -65 486 -39.5Q502 -14 528 3L462 179H123L58 0ZM290 645H289L132 209H451Z" glyph-name="Aogonek" horiz-adv-x="587" unicode="&#260;" /><glyph d="M22 0 267 678H312L565 0H529L462 179H123L58 0ZM290 645H289L132 209H451ZM343 812Q343 859 291 859Q239 859 239 812Q239 767 291 767Q343 767 343 812ZM369 812Q369 779 349 762Q329 745 291 745Q253 745 233 762Q213 779 213 812Q213 847 233 864Q253 881 291 881Q329 881 349 864Q369 847 369 812Z" glyph-name="Aring" horiz-adv-x="587" unicode="&#197;" /><glyph d="M22 0 267 678H312L565 0H529L462 179H123L58 0ZM290 645H289L132 209H451ZM362 781Q342 781 324.5 786Q307 791 289.5 797Q272 803 255 808Q238 813 219 813Q199 813 178.5 803.5Q158 794 139 781V811Q154 822 176.5 831.5Q199 841 219 841Q238 841 256 836Q274 831 291 825Q308 819 325.5 814Q343 809 362 809Q382 809 402.5 818.5Q423 828 441 841V811Q427 800 404 790.5Q381 781 362 781Z" glyph-name="Atilde" horiz-adv-x="587" unicode="&#195;" /><glyph d="M416 349Q462 335 494 293.5Q526 252 526 188Q526 141 513.5 107Q501 73 479 51Q445 17 397.5 8.5Q350 0 296 0H98V678H304Q355 678 396 669Q437 660 465 632Q484 613 495 581Q506 549 506 506Q506 447 483 408.5Q460 370 416 350ZM491 186Q491 229 480 251.5Q469 274 450 293Q423 320 385 325.5Q347 331 305 331H132V29H305Q347 29 385 36Q423 43 450 70Q469 89 480 116Q491 143 491 186ZM471 505Q471 543 461.5 570Q452 597 436 613Q412 637 379 643Q346 649 308 649H132V361H308Q346 361 379 367Q412 373 436 397Q452 413 461.5 440Q471 467 471 505Z" glyph-name="B" horiz-adv-x="580" unicode="B" /><glyph d="M64 336Q64 439 81 506.5Q98 574 131 613.5Q164 653 212 669Q260 685 321 685Q353 685 392.5 680.5Q432 676 471 665V635Q431 647 391 651.5Q351 656 323 656Q269 656 227 641.5Q185 627 156.5 591Q128 555 113 493Q98 431 98 336Q98 244 113 184Q128 124 156.5 88Q185 52 227 37.5Q269 23 323 23Q361 23 404 29Q447 35 482 49V19Q446 5 402 -1Q358 -7 321 -7Q259 -7 211 9Q163 25 130.5 64.5Q98 104 81 170Q64 236 64 336Z" glyph-name="C" horiz-adv-x="516" unicode="C" /><glyph d="M64 336Q64 439 81 506.5Q98 574 131 613.5Q164 653 212 669Q260 685 321 685Q353 685 392.5 680.5Q432 676 471 665V635Q431 647 391 651.5Q351 656 323 656Q269 656 227 641.5Q185 627 156.5 591Q128 555 113 493Q98 431 98 336Q98 244 113 184Q128 124 156.5 88Q185 52 227 37.5Q269 23 323 23Q361 23 404 29Q447 35 482 49V19Q446 5 402 -1Q358 -7 321 -7Q259 -7 211 9Q163 25 130.5 64.5Q98 104 81 170Q64 236 64 336ZM307 737H274L382 846H429Z" glyph-name="Cacute" horiz-adv-x="516" unicode="&#262;" /><glyph d="M64 336Q64 439 81 506.5Q98 574 131 613.5Q164 653 212 669Q260 685 321 685Q353 685 392.5 680.5Q432 676 471 665V635Q431 647 391 651.5Q351 656 323 656Q269 656 227 641.5Q185 627 156.5 591Q128 555 113 493Q98 431 98 336Q98 244 113 184Q128 124 156.5 88Q185 52 227 37.5Q269 23 323 23Q361 23 404 29Q447 35 482 49V19Q446 5 402 -1Q358 -7 321 -7Q259 -7 211 9Q163 25 130.5 64.5Q98 104 81 170Q64 236 64 336ZM307 756 389 846H424L319 733H293L188 846H223Z" glyph-name="Ccaron" horiz-adv-x="516" unicode="&#268;" /><glyph d="M290 -6Q235 -3 193 16Q151 35 122.5 75Q94 115 79 179Q64 243 64 336Q64 439 81 506.5Q98 574 131 613.5Q164 653 212 669Q260 685 321 685Q353 685 392.5 680.5Q432 676 471 665V635Q431 647 391 651.5Q351 656 323 656Q269 656 227 641.5Q185 627 156.5 591Q128 555 113 493Q98 431 98 336Q98 244 113 184Q128 124 156.5 88Q185 52 227 37.5Q269 23 323 23Q361 23 404 29Q447 35 482 49V19Q446 5 402 -1Q358 -7 321 -7H320L304 -44Q333 -49 353 -62.5Q373 -76 373 -100Q373 -134 347 -150Q321 -166 273 -166Q263 -166 245 -164Q227 -162 207 -157V-132Q221 -136 240.5 -138Q260 -140 274 -140Q306 -140 324.5 -131Q343 -122 343 -99Q343 -89 336.5 -82Q330 -75 319.5 -71Q309 -67 297 -65Q285 -63 274 -62L271 -48Z" glyph-name="Ccedilla" horiz-adv-x="516" unicode="&#199;" /><glyph d="M64 336Q64 439 81 506.5Q98 574 131 613.5Q164 653 212 669Q260 685 321 685Q353 685 392.5 680.5Q432 676 471 665V635Q431 647 391 651.5Q351 656 323 656Q269 656 227 641.5Q185 627 156.5 591Q128 555 113 493Q98 431 98 336Q98 244 113 184Q128 124 156.5 88Q185 52 227 37.5Q269 23 323 23Q361 23 404 29Q447 35 482 49V19Q446 5 402 -1Q358 -7 321 -7Q259 -7 211 9Q163 25 130.5 64.5Q98 104 81 170Q64 236 64 336ZM309 827 227 737H192L297 850H323L428 737H393Z" glyph-name="Ccircumflex" horiz-adv-x="516" unicode="&#264;" /><glyph d="M64 336Q64 439 81 506.5Q98 574 131 613.5Q164 653 212 669Q260 685 321 685Q353 685 392.5 680.5Q432 676 471 665V635Q431 647 391 651.5Q351 656 323 656Q269 656 227 641.5Q185 627 156.5 591Q128 555 113 493Q98 431 98 336Q98 244 113 184Q128 124 156.5 88Q185 52 227 37.5Q269 23 323 23Q361 23 404 29Q447 35 482 49V19Q446 5 402 -1Q358 -7 321 -7Q259 -7 211 9Q163 25 130.5 64.5Q98 104 81 170Q64 236 64 336ZM318 772H283V846H318Z" glyph-name="Cdotaccent" horiz-adv-x="516" unicode="&#266;" /><glyph d="M537 339Q537 432 518 496Q499 560 465 594Q433 626 396.5 637.5Q360 649 308 649H132V29H308Q360 29 396.5 40.5Q433 52 465 84Q500 119 518.5 182.5Q537 246 537 339ZM572 339Q572 239 552 172Q532 105 491 64Q456 29 413 14.5Q370 0 309 0H98V678H309Q370 678 413 664Q456 650 491 615Q531 575 551.5 507Q572 439 572 339Z" glyph-name="D" horiz-adv-x="636" unicode="D" /><glyph d="M306 755 388 845H423L318 732H292L187 845H222ZM537 339Q537 432 518 496Q499 560 465 594Q433 626 396.5 637.5Q360 649 308 649H132V29H308Q360 29 396.5 40.5Q433 52 465 84Q500 119 518.5 182.5Q537 246 537 339ZM572 339Q572 239 552 172Q532 105 491 64Q456 29 413 14.5Q370 0 309 0H98V678H309Q370 678 413 664Q456 650 491 615Q531 575 551.5 507Q572 439 572 339Z" glyph-name="Dcaron" horiz-adv-x="636" unicode="&#270;" /><glyph d="M598 339Q598 239 578 172Q558 105 517 64Q482 29 439 14.5Q396 0 335 0H124V331H24V361H124V678H335Q396 678 439 664Q482 650 517 615Q557 575 577.5 507Q598 439 598 339ZM563 339Q563 432 544 496Q525 560 491 594Q459 626 422.5 637.5Q386 649 334 649H158V361H366V331H158V29H334Q386 29 422.5 40.5Q459 52 491 84Q526 119 544.5 182.5Q563 246 563 339Z" glyph-name="Dcroat" horiz-adv-x="663" unicode="&#272;" /><glyph d="M722 20 721 0H59L58 20L370 680H410ZM618 28Q629 28 644.5 28Q660 28 683 27V28L423 580Q416 594 407.5 614.5Q399 635 391 652H389Q381 635 372.5 614.5Q364 594 357 580L97 28V27Q120 28 135.5 28Q151 28 162 28Z" glyph-name="Delta" horiz-adv-x="780" unicode="&#8710;" /><glyph d="M478 0H98V678H471V649H132V361H427V331H132V29H478Z" glyph-name="E" horiz-adv-x="517" unicode="E" /><glyph d="M478 0H98V678H471V649H132V361H427V331H132V29H478ZM286 737H253L361 846H408Z" glyph-name="Eacute" horiz-adv-x="517" unicode="&#201;" /><glyph d="M478 0H98V678H471V649H132V361H427V331H132V29H478ZM285 767Q331 767 364 785.5Q397 804 408 846H441Q430 790 387.5 765.5Q345 741 285 741Q225 741 182.5 765.5Q140 790 129 846H162Q173 804 206 785.5Q239 767 285 767Z" glyph-name="Ebreve" horiz-adv-x="517" unicode="&#276;" /><glyph d="M478 0H98V678H471V649H132V361H427V331H132V29H478ZM287 756 369 846H404L299 733H273L168 846H203Z" glyph-name="Ecaron" horiz-adv-x="517" unicode="&#282;" /><glyph d="M478 0H98V678H471V649H132V361H427V331H132V29H478ZM287 827 205 737H170L275 850H301L406 737H371Z" glyph-name="Ecircumflex" horiz-adv-x="517" unicode="&#202;" /><glyph d="M478 0H98V678H471V649H132V361H427V331H132V29H478ZM239 775H204V839H239ZM374 775H339V839H374Z" glyph-name="Edieresis" horiz-adv-x="517" unicode="&#203;" /><glyph d="M478 0H98V678H471V649H132V361H427V331H132V29H478ZM305 772H270V846H305Z" glyph-name="Edotaccent" horiz-adv-x="517" unicode="&#278;" /><glyph d="M478 0H98V678H471V649H132V361H427V331H132V29H478ZM179 846H226L333 737H301Z" glyph-name="Egrave" horiz-adv-x="517" unicode="&#200;" /><glyph d="M478 0H98V678H471V649H132V361H427V331H132V29H478ZM436 787H134V815H436Z" glyph-name="Emacron" horiz-adv-x="517" unicode="&#274;" /><glyph d="M458 -168Q487 -123 505 -81Q523 -39 532 8L134 622H132V0H98V678H136L426 232Q456 186 485 141Q514 96 538 57Q541 77 541.5 100Q542 123 542 146V678H575V131Q575 86 571 46.5Q567 7 557.5 -29Q548 -65 533 -99.5Q518 -134 496 -168Z" glyph-name="Eng" horiz-adv-x="673" unicode="&#330;" /><glyph d="M478 0Q443 -20 428.5 -44Q414 -68 414 -87Q414 -97 417 -106.5Q420 -116 427.5 -123.5Q435 -131 448 -135.5Q461 -140 481 -140Q494 -140 507 -138.5Q520 -137 535 -132V-157Q523 -162 506 -164Q489 -166 475 -166Q423 -166 403.5 -143.5Q384 -121 384 -89Q384 -66 398.5 -41.5Q413 -17 437 0H98V678H471V649H132V361H427V331H132V29H478Z" glyph-name="Eogonek" horiz-adv-x="517" unicode="&#280;" /><glyph d="M598 339Q598 239 578 172Q558 105 517 64Q482 29 439 14.5Q396 0 335 0H124V331H24V360H124V678H335Q396 678 439 664Q482 650 517 615Q557 575 577.5 507Q598 439 598 339ZM563 339Q563 432 544 496Q525 560 491 594Q459 626 422.5 637.5Q386 649 334 649H158V360H366V331H158V29H334Q386 29 422.5 40.5Q459 52 491 84Q526 119 544.5 182.5Q563 246 563 339Z" glyph-name="Eth" horiz-adv-x="663" unicode="&#208;" /><glyph d="M441 374H194V314H416L405 287H194Q198 211 213 160Q228 109 253.5 78.5Q279 48 315 35Q351 22 396 22Q431 22 470 30Q509 38 541 54V22Q507 7 467.5 0.5Q428 -6 393 -6Q340 -6 298.5 8.5Q257 23 227.5 57Q198 91 181 147Q164 203 161 287H85L96 314H159V374H90L101 401H161Q166 482 184 536.5Q202 591 231.5 624Q261 657 301.5 671Q342 685 393 685Q422 685 458 680.5Q494 676 529 662V631Q494 647 457.5 651.5Q421 656 396 656Q352 656 317 643.5Q282 631 256.5 602Q231 573 215.5 523.5Q200 474 195 401H452Z" glyph-name="Euro" horiz-adv-x="660" unicode="&#8364;" /><glyph d="M132 0H98V678H477V648H132V361H428V331H132Z" glyph-name="F" horiz-adv-x="493" unicode="F" /><glyph d="M309 361H548V44Q497 17 446 5Q395 -7 335 -7Q272 -7 222 9Q172 25 137 64Q102 103 83 169Q64 235 64 336Q64 441 82.5 509Q101 577 136.5 616Q172 655 224 670Q276 685 342 685Q373 685 421 681.5Q469 678 514 665V635Q471 647 425 651.5Q379 656 344 656Q283 656 237 642.5Q191 629 160 593.5Q129 558 113.5 495.5Q98 433 98 336Q98 243 115 182.5Q132 122 163 86.5Q194 51 237.5 36.5Q281 22 334 22Q376 22 420.5 29Q465 36 514 61V331H309Z" glyph-name="G" horiz-adv-x="634" unicode="G" /><glyph d="M309 361H548V44Q497 17 446 5Q395 -7 335 -7Q272 -7 222 9Q172 25 137 64Q102 103 83 169Q64 235 64 336Q64 441 82.5 509Q101 577 136.5 616Q172 655 224 670Q276 685 342 685Q373 685 421 681.5Q469 678 514 665V635Q471 647 425 651.5Q379 656 344 656Q283 656 237 642.5Q191 629 160 593.5Q129 558 113.5 495.5Q98 433 98 336Q98 243 115 182.5Q132 122 163 86.5Q194 51 237.5 36.5Q281 22 334 22Q376 22 420.5 29Q465 36 514 61V331H309ZM322 767Q368 767 401 785.5Q434 804 445 846H478Q467 790 424.5 765.5Q382 741 322 741Q262 741 219.5 765.5Q177 790 166 846H199Q210 804 243 785.5Q276 767 322 767Z" glyph-name="Gbreve" horiz-adv-x="634" unicode="&#286;" /><glyph d="M309 361H548V44Q497 17 446 5Q395 -7 335 -7Q272 -7 222 9Q172 25 137 64Q102 103 83 169Q64 235 64 336Q64 441 82.5 509Q101 577 136.5 616Q172 655 224 670Q276 685 342 685Q373 685 421 681.5Q469 678 514 665V635Q471 647 425 651.5Q379 656 344 656Q283 656 237 642.5Q191 629 160 593.5Q129 558 113.5 495.5Q98 433 98 336Q98 243 115 182.5Q132 122 163 86.5Q194 51 237.5 36.5Q281 22 334 22Q376 22 420.5 29Q465 36 514 61V331H309ZM319 827 237 737H202L307 850H333L438 737H403Z" glyph-name="Gcircumflex" horiz-adv-x="634" unicode="&#284;" /><glyph d="M309 361H548V44Q497 17 446 5Q395 -7 335 -7Q272 -7 222 9Q172 25 137 64Q102 103 83 169Q64 235 64 336Q64 441 82.5 509Q101 577 136.5 616Q172 655 224 670Q276 685 342 685Q373 685 421 681.5Q469 678 514 665V635Q471 647 425 651.5Q379 656 344 656Q283 656 237 642.5Q191 629 160 593.5Q129 558 113.5 495.5Q98 433 98 336Q98 243 115 182.5Q132 122 163 86.5Q194 51 237.5 36.5Q281 22 334 22Q376 22 420.5 29Q465 36 514 61V331H309ZM318 -78H356L302 -233H279Z" glyph-name="Gcommaaccent" horiz-adv-x="634" unicode="&#290;" /><glyph d="M309 361H548V44Q497 17 446 5Q395 -7 335 -7Q272 -7 222 9Q172 25 137 64Q102 103 83 169Q64 235 64 336Q64 441 82.5 509Q101 577 136.5 616Q172 655 224 670Q276 685 342 685Q373 685 421 681.5Q469 678 514 665V635Q471 647 425 651.5Q379 656 344 656Q283 656 237 642.5Q191 629 160 593.5Q129 558 113.5 495.5Q98 433 98 336Q98 243 115 182.5Q132 122 163 86.5Q194 51 237.5 36.5Q281 22 334 22Q376 22 420.5 29Q465 36 514 61V331H309ZM338 772H303V846H338Z" glyph-name="Gdotaccent" horiz-adv-x="634" unicode="&#288;" /><glyph d="M561 0H527V331H132V0H98V678H132V361H527V678H561Z" glyph-name="H" horiz-adv-x="659" unicode="H" /><glyph d="M561 0H527V331H132V0H98V678H132V511H527V678H561ZM527 361V481H132V361Z" glyph-name="Hbar" horiz-adv-x="659" unicode="&#294;" /><glyph d="M561 0H527V331H132V0H98V678H132V361H527V678H561ZM329 827 247 737H212L317 850H343L448 737H413Z" glyph-name="Hcircumflex" horiz-adv-x="659" unicode="&#292;" /><glyph d="M132 0H98V678H132Z" glyph-name="I" horiz-adv-x="230" unicode="I" /><glyph d="M132 0H98V678H132ZM247 -118Q270 -84 286 -50Q302 -16 311.5 20Q321 56 325.5 95.5Q330 135 330 180V678H364V184Q364 138 360 98Q356 58 346 21.5Q336 -15 320.5 -49.5Q305 -84 283 -118Z" glyph-name="IJ" horiz-adv-x="462" unicode="&#306;" /><glyph d="M132 0H98V678H132ZM133 737H100L208 846H255Z" glyph-name="Iacute" horiz-adv-x="230" unicode="&#205;" /><glyph d="M132 0H98V678H132ZM115 767Q161 767 194 785.5Q227 804 238 846H271Q260 790 217.5 765.5Q175 741 115 741Q55 741 12.5 765.5Q-30 790 -41 846H-8Q3 804 36 785.5Q69 767 115 767Z" glyph-name="Ibreve" horiz-adv-x="230" unicode="&#300;" /><glyph d="M132 0H98V678H132ZM114 827 32 737H-3L102 850H128L233 737H198Z" glyph-name="Icircumflex" horiz-adv-x="230" unicode="&#206;" /><glyph d="M132 0H98V678H132ZM65 775H30V839H65ZM200 775H165V839H200Z" glyph-name="Idieresis" horiz-adv-x="230" unicode="&#207;" /><glyph d="M132 0H98V678H132ZM132 772H97V846H132Z" glyph-name="Idotaccent" horiz-adv-x="230" unicode="&#304;" /><glyph d="M132 0H98V678H132ZM-24 846H23L130 737H98Z" glyph-name="Igrave" horiz-adv-x="230" unicode="&#204;" /><glyph d="M132 0H98V678H132ZM266 787H-36V815H266Z" glyph-name="Imacron" horiz-adv-x="230" unicode="&#298;" /><glyph d="M135 0Q100 -20 85.5 -44Q71 -68 71 -87Q71 -97 74 -106.5Q77 -116 84.5 -123.5Q92 -131 105 -135.5Q118 -140 138 -140Q151 -140 164 -138.5Q177 -137 192 -132V-157Q180 -162 163 -164Q146 -166 132 -166Q80 -166 60.5 -143.5Q41 -121 41 -89Q41 -64 57.5 -38.5Q74 -13 101 4V678H135Z" glyph-name="Iogonek" horiz-adv-x="230" unicode="&#302;" /><glyph d="M133 0H99V678H133ZM187 781Q167 781 149.5 786Q132 791 114.5 797Q97 803 80 808Q63 813 44 813Q24 813 3.5 803.5Q-17 794 -36 781V811Q-21 822 1.5 831.5Q24 841 44 841Q63 841 81 836Q99 831 116 825Q133 819 150.5 814Q168 809 187 809Q207 809 227.5 818.5Q248 828 266 841V811Q252 800 229 790.5Q206 781 187 781Z" glyph-name="Itilde" horiz-adv-x="230" unicode="&#296;" /><glyph d="M17 -118Q40 -84 56 -50Q72 -16 81.5 20Q91 56 95.5 95.5Q100 135 100 180V678H134V184Q134 138 130 98Q126 58 116 21.5Q106 -15 90.5 -49.5Q75 -84 53 -118Z" glyph-name="J" horiz-adv-x="232" unicode="J" /><glyph d="M17 -118Q40 -84 56 -50Q72 -16 81.5 20Q91 56 95.5 95.5Q100 135 100 180V678H134V184Q134 138 130 98Q126 58 116 21.5Q106 -15 90.5 -49.5Q75 -84 53 -118ZM117 827 35 737H0L105 850H131L236 737H201Z" glyph-name="Jcircumflex" horiz-adv-x="232" unicode="&#308;" /><glyph d="M538 0H497L262 331H132V0H98V678H132V361H264L465 678H503L293 347Z" glyph-name="K" horiz-adv-x="545" unicode="K" /><glyph d="M538 0H497L262 331H132V0H98V678H132V361H264L465 678H503L293 347ZM278 -78H316L262 -233H239Z" glyph-name="Kcommaaccent" horiz-adv-x="547" unicode="&#310;" /><glyph d="M470 0H98V678H132V29H470Z" glyph-name="L" horiz-adv-x="473" unicode="L" /><glyph d="M470 0H98V678H132V29H470ZM133 725H100L208 834H255Z" glyph-name="Lacute" horiz-adv-x="473" unicode="&#313;" /><glyph d="M470 0H98V678H132V29H470ZM426 678H464L410 523H387Z" glyph-name="Lcaron" horiz-adv-x="493" unicode="&#317;" /><glyph d="M470 0H98V678H132V29H470ZM278 -78H316L262 -233H239Z" glyph-name="Lcommaaccent" horiz-adv-x="473" unicode="&#315;" /><glyph d="M470 0H98V678H132V29H470ZM447 313H413V377H447Z" glyph-name="Ldot" horiz-adv-x="503" unicode="&#319;" /><glyph d="M152 276V29H490V0H118V255L4 182V213L118 286V678H152V307L358 439V408Z" glyph-name="Lslash" horiz-adv-x="493" unicode="&#321;" /><glyph d="M400 195H401L654 678H704V0H670V638H668L418 159H384L133 638H132V0H98V678H146Z" glyph-name="M" horiz-adv-x="802" unicode="M" /><glyph d="M575 0H538L132 622H131L132 0H98V678H136L541 55H542V678H575Z" glyph-name="N" horiz-adv-x="673" unicode="N" /><glyph d="M575 0H538L132 622H131L132 0H98V678H136L541 55H542V678H575ZM349 737H316L424 846H471Z" glyph-name="Nacute" horiz-adv-x="673" unicode="&#323;" /><glyph d="M575 0H538L132 622H131L132 0H98V678H136L541 55H542V678H575ZM337 756 419 846H454L349 733H323L218 846H253Z" glyph-name="Ncaron" horiz-adv-x="673" unicode="&#327;" /><glyph d="M575 0H538L132 622H131L132 0H98V678H136L541 55H542V678H575ZM326 -78H364L310 -233H287Z" glyph-name="Ncommaaccent" horiz-adv-x="673" unicode="&#325;" /><glyph d="M575 0H538L132 622H131L132 0H98V678H136L541 55H542V678H575ZM408 781Q388 781 370.5 786Q353 791 335.5 797Q318 803 301 808Q284 813 265 813Q245 813 224.5 803.5Q204 794 185 781V811Q200 822 222.5 831.5Q245 841 265 841Q284 841 302 836Q320 831 337 825Q354 819 371.5 814Q389 809 408 809Q428 809 448.5 818.5Q469 828 487 841V811Q473 800 450 790.5Q427 781 408 781Z" glyph-name="Ntilde" horiz-adv-x="673" unicode="&#209;" /><glyph d="M590 341Q590 264 579 200.5Q568 137 538.5 90.5Q509 44 458 18.5Q407 -7 328 -7Q248 -7 197 17.5Q146 42 116.5 87.5Q87 133 75.5 197.5Q64 262 64 341Q64 419 75.5 482.5Q87 546 117 591Q147 636 198 660.5Q249 685 328 685Q407 685 458 659.5Q509 634 538.5 588.5Q568 543 579 480Q590 417 590 341ZM98 341Q98 268 108 209Q118 150 143.5 108.5Q169 67 214 44.5Q259 22 328 22Q397 22 441 45.5Q485 69 510.5 111Q536 153 545.5 211.5Q555 270 555 341Q555 411 545.5 469Q536 527 510.5 568.5Q485 610 441 633Q397 656 328 656Q260 656 215.5 634Q171 612 145 571Q119 530 108.5 471.5Q98 413 98 341Z" glyph-name="O" horiz-adv-x="654" unicode="O" /><glyph d="M64 340Q64 419 76 482.5Q88 546 118 591Q148 636 199 660Q250 684 329 684Q378 684 415.5 675Q453 666 480 648Q507 630 525.5 604Q544 578 556 544H557V678H930V649H591V361H886V331H591V29H937V0H557V139H556Q544 104 525.5 77Q507 50 480 31.5Q453 13 415.5 3.5Q378 -6 329 -6Q249 -6 197.5 18.5Q146 43 116.5 88Q87 133 75.5 197Q64 261 64 340ZM99 340Q99 267 109 208.5Q119 150 144.5 108.5Q170 67 214.5 44.5Q259 22 329 22Q398 22 442 45Q486 68 511.5 110Q537 152 546.5 210.5Q556 269 556 340Q556 410 546.5 468Q537 526 511.5 567.5Q486 609 442 632Q398 655 329 655Q261 655 216.5 633Q172 611 146 570Q120 529 109.5 470.5Q99 412 99 340Z" glyph-name="OE" horiz-adv-x="976" unicode="&#338;" /><glyph d="M590 341Q590 264 579 200.5Q568 137 538.5 90.5Q509 44 458 18.5Q407 -7 328 -7Q248 -7 197 17.5Q146 42 116.5 87.5Q87 133 75.5 197.5Q64 262 64 341Q64 419 75.5 482.5Q87 546 117 591Q147 636 198 660.5Q249 685 328 685Q407 685 458 659.5Q509 634 538.5 588.5Q568 543 579 480Q590 417 590 341ZM98 341Q98 268 108 209Q118 150 143.5 108.5Q169 67 214 44.5Q259 22 328 22Q397 22 441 45.5Q485 69 510.5 111Q536 153 545.5 211.5Q555 270 555 341Q555 411 545.5 469Q536 527 510.5 568.5Q485 610 441 633Q397 656 328 656Q260 656 215.5 634Q171 612 145 571Q119 530 108.5 471.5Q98 413 98 341ZM340 737H307L415 846H462Z" glyph-name="Oacute" horiz-adv-x="654" unicode="&#211;" /><glyph d="M590 341Q590 264 579 200.5Q568 137 538.5 90.5Q509 44 458 18.5Q407 -7 328 -7Q248 -7 197 17.5Q146 42 116.5 87.5Q87 133 75.5 197.5Q64 262 64 341Q64 419 75.5 482.5Q87 546 117 591Q147 636 198 660.5Q249 685 328 685Q407 685 458 659.5Q509 634 538.5 588.5Q568 543 579 480Q590 417 590 341ZM98 341Q98 268 108 209Q118 150 143.5 108.5Q169 67 214 44.5Q259 22 328 22Q397 22 441 45.5Q485 69 510.5 111Q536 153 545.5 211.5Q555 270 555 341Q555 411 545.5 469Q536 527 510.5 568.5Q485 610 441 633Q397 656 328 656Q260 656 215.5 634Q171 612 145 571Q119 530 108.5 471.5Q98 413 98 341ZM326 767Q372 767 405 785.5Q438 804 449 846H482Q471 790 428.5 765.5Q386 741 326 741Q266 741 223.5 765.5Q181 790 170 846H203Q214 804 247 785.5Q280 767 326 767Z" glyph-name="Obreve" horiz-adv-x="654" unicode="&#334;" /><glyph d="M590 341Q590 264 579 200.5Q568 137 538.5 90.5Q509 44 458 18.5Q407 -7 328 -7Q248 -7 197 17.5Q146 42 116.5 87.5Q87 133 75.5 197.5Q64 262 64 341Q64 419 75.5 482.5Q87 546 117 591Q147 636 198 660.5Q249 685 328 685Q407 685 458 659.5Q509 634 538.5 588.5Q568 543 579 480Q590 417 590 341ZM98 341Q98 268 108 209Q118 150 143.5 108.5Q169 67 214 44.5Q259 22 328 22Q397 22 441 45.5Q485 69 510.5 111Q536 153 545.5 211.5Q555 270 555 341Q555 411 545.5 469Q536 527 510.5 568.5Q485 610 441 633Q397 656 328 656Q260 656 215.5 634Q171 612 145 571Q119 530 108.5 471.5Q98 413 98 341ZM325 827 243 737H208L313 850H339L444 737H409Z" glyph-name="Ocircumflex" horiz-adv-x="654" unicode="&#212;" /><glyph d="M590 341Q590 264 579 200.5Q568 137 538.5 90.5Q509 44 458 18.5Q407 -7 328 -7Q248 -7 197 17.5Q146 42 116.5 87.5Q87 133 75.5 197.5Q64 262 64 341Q64 419 75.5 482.5Q87 546 117 591Q147 636 198 660.5Q249 685 328 685Q407 685 458 659.5Q509 634 538.5 588.5Q568 543 579 480Q590 417 590 341ZM98 341Q98 268 108 209Q118 150 143.5 108.5Q169 67 214 44.5Q259 22 328 22Q397 22 441 45.5Q485 69 510.5 111Q536 153 545.5 211.5Q555 270 555 341Q555 411 545.5 469Q536 527 510.5 568.5Q485 610 441 633Q397 656 328 656Q260 656 215.5 634Q171 612 145 571Q119 530 108.5 471.5Q98 413 98 341ZM276 775H241V839H276ZM411 775H376V839H411Z" glyph-name="Odieresis" horiz-adv-x="654" unicode="&#214;" /><glyph d="M590 341Q590 264 579 200.5Q568 137 538.5 90.5Q509 44 458 18.5Q407 -7 328 -7Q248 -7 197 17.5Q146 42 116.5 87.5Q87 133 75.5 197.5Q64 262 64 341Q64 419 75.5 482.5Q87 546 117 591Q147 636 198 660.5Q249 685 328 685Q407 685 458 659.5Q509 634 538.5 588.5Q568 543 579 480Q590 417 590 341ZM98 341Q98 268 108 209Q118 150 143.5 108.5Q169 67 214 44.5Q259 22 328 22Q397 22 441 45.5Q485 69 510.5 111Q536 153 545.5 211.5Q555 270 555 341Q555 411 545.5 469Q536 527 510.5 568.5Q485 610 441 633Q397 656 328 656Q260 656 215.5 634Q171 612 145 571Q119 530 108.5 471.5Q98 413 98 341ZM193 846H240L347 737H315Z" glyph-name="Ograve" horiz-adv-x="654" unicode="&#210;" /><glyph d="M590 341Q590 264 579 200.5Q568 137 538.5 90.5Q509 44 458 18.5Q407 -7 328 -7Q248 -7 197 17.5Q146 42 116.5 87.5Q87 133 75.5 197.5Q64 262 64 341Q64 419 75.5 482.5Q87 546 117 591Q147 636 198 660.5Q249 685 328 685Q407 685 458 659.5Q509 634 538.5 588.5Q568 543 579 480Q590 417 590 341ZM98 341Q98 268 108 209Q118 150 143.5 108.5Q169 67 214 44.5Q259 22 328 22Q397 22 441 45.5Q485 69 510.5 111Q536 153 545.5 211.5Q555 270 555 341Q555 411 545.5 469Q536 527 510.5 568.5Q485 610 441 633Q397 656 328 656Q260 656 215.5 634Q171 612 145 571Q119 530 108.5 471.5Q98 413 98 341ZM295 737H265L372 846H417ZM382 737H351L458 846H503Z" glyph-name="Ohungarumlaut" horiz-adv-x="654" unicode="&#336;" /><glyph d="M590 341Q590 264 579 200.5Q568 137 538.5 90.5Q509 44 458 18.5Q407 -7 328 -7Q248 -7 197 17.5Q146 42 116.5 87.5Q87 133 75.5 197.5Q64 262 64 341Q64 419 75.5 482.5Q87 546 117 591Q147 636 198 660.5Q249 685 328 685Q407 685 458 659.5Q509 634 538.5 588.5Q568 543 579 480Q590 417 590 341ZM98 341Q98 268 108 209Q118 150 143.5 108.5Q169 67 214 44.5Q259 22 328 22Q397 22 441 45.5Q485 69 510.5 111Q536 153 545.5 211.5Q555 270 555 341Q555 411 545.5 469Q536 527 510.5 568.5Q485 610 441 633Q397 656 328 656Q260 656 215.5 634Q171 612 145 571Q119 530 108.5 471.5Q98 413 98 341ZM477 787H175V815H477Z" glyph-name="Omacron" horiz-adv-x="654" unicode="&#332;" /><glyph d="M162 -85 197 17Q158 35 132.5 65.5Q107 96 91.5 137.5Q76 179 70 230Q64 281 64 341Q64 419 75.5 482.5Q87 546 117 591Q147 636 198 660.5Q249 685 328 685Q357 685 381 681.5Q405 678 426 672L458 762H489Q480 736 471 711.5Q462 687 453 662Q493 644 519.5 613Q546 582 562 541Q578 500 584 449.5Q590 399 590 341Q590 264 579 200.5Q568 137 538.5 90.5Q509 44 458 18.5Q407 -7 328 -7Q269 -7 224 7Q216 -16 207.5 -39Q199 -62 191 -85ZM555 341Q555 446 532 521.5Q509 597 443 632Q390 482 338.5 333.5Q287 185 234 36Q254 28 277 25Q300 22 328 22Q397 22 441 45.5Q485 69 510.5 111Q536 153 545.5 211.5Q555 270 555 341ZM98 341Q98 287 103 241Q108 195 120.5 157.5Q133 120 154.5 92Q176 64 208 47L416 643Q397 649 375.5 652.5Q354 656 328 656Q260 656 215.5 634Q171 612 145 571Q119 530 108.5 471.5Q98 413 98 341Z" glyph-name="Oslash" horiz-adv-x="654" unicode="&#216;" /><glyph d="M590 341Q590 264 579 200.5Q568 137 538.5 90.5Q509 44 458 18.5Q407 -7 328 -7Q248 -7 197 17.5Q146 42 116.5 87.5Q87 133 75.5 197.5Q64 262 64 341Q64 419 75.5 482.5Q87 546 117 591Q147 636 198 660.5Q249 685 328 685Q407 685 458 659.5Q509 634 538.5 588.5Q568 543 579 480Q590 417 590 341ZM98 341Q98 268 108 209Q118 150 143.5 108.5Q169 67 214 44.5Q259 22 328 22Q397 22 441 45.5Q485 69 510.5 111Q536 153 545.5 211.5Q555 270 555 341Q555 411 545.5 469Q536 527 510.5 568.5Q485 610 441 633Q397 656 328 656Q260 656 215.5 634Q171 612 145 571Q119 530 108.5 471.5Q98 413 98 341ZM397 781Q377 781 359.5 786Q342 791 324.5 797Q307 803 290 808Q273 813 254 813Q234 813 213.5 803.5Q193 794 174 781V811Q189 822 211.5 831.5Q234 841 254 841Q273 841 291 836Q309 831 326 825Q343 819 360.5 814Q378 809 397 809Q417 809 437.5 818.5Q458 828 476 841V811Q462 800 439 790.5Q416 781 397 781Z" glyph-name="Otilde" horiz-adv-x="654" unicode="&#213;" /><glyph d="M132 257V0H98V678H284Q359 678 405 668.5Q451 659 483 628Q509 602 519 562.5Q529 523 529 468Q529 411 519 372Q509 333 483 307Q467 291 448.5 281.5Q430 272 407 266.5Q384 261 354.5 259Q325 257 288 257ZM494 468Q494 516 486 550Q478 584 458 604Q432 630 392.5 639.5Q353 649 279 649H132V286H279Q316 286 343.5 287.5Q371 289 392 293.5Q413 298 428.5 306.5Q444 315 457 328Q477 348 485.5 383.5Q494 419 494 468Z" glyph-name="P" horiz-adv-x="567" unicode="P" /><glyph d="M590 341Q590 285 584 235Q578 185 564 144Q550 103 525.5 71.5Q501 40 464 21L586 -118H541L430 8Q388 -7 328 -7Q248 -7 197 17.5Q146 42 116.5 87.5Q87 133 75.5 197.5Q64 262 64 341Q64 419 75.5 482.5Q87 546 117 591Q147 636 198 660.5Q249 685 328 685Q407 685 458 659.5Q509 634 538.5 588.5Q568 543 579 480Q590 417 590 341ZM98 341Q98 268 108 209Q118 150 143.5 108.5Q169 67 214 44.5Q259 22 328 22Q397 22 441 45.5Q485 69 510.5 111Q536 153 545.5 211.5Q555 270 555 341Q555 411 545.5 469Q536 527 510.5 568.5Q485 610 441 633Q397 656 328 656Q260 656 215.5 634Q171 612 145 571Q119 530 108.5 471.5Q98 413 98 341Z" glyph-name="Q" horiz-adv-x="654" unicode="Q" /><glyph d="M526 485Q526 432 515.5 397.5Q505 363 482 340Q457 315 419 304.5Q381 294 330 292L536 0H494L289 291H132V0H98V678H292Q362 678 408 667.5Q454 657 483 628Q526 585 526 485ZM132 320H295Q354 320 393.5 329Q433 338 456 361Q475 380 483 409.5Q491 439 491 484Q491 529 482.5 558.5Q474 588 454 608Q431 631 391.5 640Q352 649 295 649H132Z" glyph-name="R" horiz-adv-x="577" unicode="R" /><glyph d="M526 485Q526 432 515.5 397.5Q505 363 482 340Q457 315 419 304.5Q381 294 330 292L536 0H494L289 291H132V0H98V678H292Q362 678 408 667.5Q454 657 483 628Q526 585 526 485ZM132 320H295Q354 320 393.5 329Q433 338 456 361Q475 380 483 409.5Q491 439 491 484Q491 529 482.5 558.5Q474 588 454 608Q431 631 391.5 640Q352 649 295 649H132ZM295 737H262L370 846H417Z" glyph-name="Racute" horiz-adv-x="577" unicode="&#340;" /><glyph d="M526 485Q526 432 515.5 397.5Q505 363 482 340Q457 315 419 304.5Q381 294 330 292L536 0H494L289 291H132V0H98V678H292Q362 678 408 667.5Q454 657 483 628Q526 585 526 485ZM132 320H295Q354 320 393.5 329Q433 338 456 361Q475 380 483 409.5Q491 439 491 484Q491 529 482.5 558.5Q474 588 454 608Q431 631 391.5 640Q352 649 295 649H132ZM295 756 377 846H412L307 733H281L176 846H211Z" glyph-name="Rcaron" horiz-adv-x="577" unicode="&#344;" /><glyph d="M526 485Q526 432 515.5 397.5Q505 363 482 340Q457 315 419 304.5Q381 294 330 292L536 0H494L289 291H132V0H98V678H292Q362 678 408 667.5Q454 657 483 628Q526 585 526 485ZM132 320H295Q354 320 393.5 329Q433 338 456 361Q475 380 483 409.5Q491 439 491 484Q491 529 482.5 558.5Q474 588 454 608Q431 631 391.5 640Q352 649 295 649H132ZM286 -78H324L270 -233H247Z" glyph-name="Rcommaaccent" horiz-adv-x="577" unicode="&#342;" /><glyph d="M246 23Q283 23 321 30Q359 37 390.5 55Q422 73 442 103.5Q462 134 462 181Q462 231 445.5 261Q429 291 403 307Q377 323 343.5 328.5Q310 334 276 336Q240 337 203 343Q166 349 136 366.5Q106 384 87 417.5Q68 451 68 509Q68 562 88 596.5Q108 631 140 650.5Q172 670 213 677.5Q254 685 295 685Q328 685 368.5 680.5Q409 676 446 665V635Q408 647 370 651.5Q332 656 295 656Q259 656 224.5 649Q190 642 163 625.5Q136 609 119 580.5Q102 552 102 510Q102 463 117 435.5Q132 408 157.5 394Q183 380 216 375Q249 370 285 369Q324 367 362 359.5Q400 352 429.5 332Q459 312 477.5 276.5Q496 241 496 184Q496 125 472 88Q448 51 411.5 30Q375 9 330.5 1Q286 -7 245 -7Q203 -7 159.5 -1Q116 5 78 18V49Q116 36 159 29.5Q202 23 246 23Z" glyph-name="S" horiz-adv-x="545" unicode="S" /><glyph d="M246 23Q283 23 321 30Q359 37 390.5 55Q422 73 442 103.5Q462 134 462 181Q462 231 445.5 261Q429 291 403 307Q377 323 343.5 328.5Q310 334 276 336Q240 337 203 343Q166 349 136 366.5Q106 384 87 417.5Q68 451 68 509Q68 562 88 596.5Q108 631 140 650.5Q172 670 213 677.5Q254 685 295 685Q328 685 368.5 680.5Q409 676 446 665V635Q408 647 370 651.5Q332 656 295 656Q259 656 224.5 649Q190 642 163 625.5Q136 609 119 580.5Q102 552 102 510Q102 463 117 435.5Q132 408 157.5 394Q183 380 216 375Q249 370 285 369Q324 367 362 359.5Q400 352 429.5 332Q459 312 477.5 276.5Q496 241 496 184Q496 125 472 88Q448 51 411.5 30Q375 9 330.5 1Q286 -7 245 -7Q203 -7 159.5 -1Q116 5 78 18V49Q116 36 159 29.5Q202 23 246 23ZM278 737H245L353 846H400Z" glyph-name="Sacute" horiz-adv-x="545" unicode="&#346;" /><glyph d="M246 23Q283 23 321 30Q359 37 390.5 55Q422 73 442 103.5Q462 134 462 181Q462 231 445.5 261Q429 291 403 307Q377 323 343.5 328.5Q310 334 276 336Q240 337 203 343Q166 349 136 366.5Q106 384 87 417.5Q68 451 68 509Q68 562 88 596.5Q108 631 140 650.5Q172 670 213 677.5Q254 685 295 685Q328 685 368.5 680.5Q409 676 446 665V635Q408 647 370 651.5Q332 656 295 656Q259 656 224.5 649Q190 642 163 625.5Q136 609 119 580.5Q102 552 102 510Q102 463 117 435.5Q132 408 157.5 394Q183 380 216 375Q249 370 285 369Q324 367 362 359.5Q400 352 429.5 332Q459 312 477.5 276.5Q496 241 496 184Q496 125 472 88Q448 51 411.5 30Q375 9 330.5 1Q286 -7 245 -7Q203 -7 159.5 -1Q116 5 78 18V49Q116 36 159 29.5Q202 23 246 23ZM265 756 347 846H382L277 733H251L146 846H181Z" glyph-name="Scaron" horiz-adv-x="545" unicode="&#352;" /><glyph d="M275 -6Q267 -6 260 -6.5Q253 -7 245 -7Q203 -7 159.5 -1Q116 5 78 18V49Q116 36 159 29.5Q202 23 246 23Q283 23 321 30Q359 37 390.5 55Q422 73 442 103.5Q462 134 462 181Q462 231 445.5 261Q429 291 403 307Q377 323 343.5 328.5Q310 334 276 336Q240 337 203 343Q166 349 136 366.5Q106 384 87 417.5Q68 451 68 509Q68 562 88 596.5Q108 631 140 650.5Q172 670 213 677.5Q254 685 295 685Q328 685 368.5 680.5Q409 676 446 665V635Q408 647 370 651.5Q332 656 295 656Q259 656 224.5 649Q190 642 163 625.5Q136 609 119 580.5Q102 552 102 510Q102 463 117 435.5Q132 408 157.5 394Q183 380 216 375Q249 370 285 369Q324 367 362 359.5Q400 352 429.5 332Q459 312 477.5 276.5Q496 241 496 184Q496 136 479.5 102Q463 68 436.5 46.5Q410 25 376 13Q342 1 306 -3L289 -44Q318 -49 338 -62.5Q358 -76 358 -100Q358 -134 332 -150Q306 -166 258 -166Q248 -166 230 -164Q212 -162 192 -157V-132Q206 -136 225.5 -138Q245 -140 259 -140Q291 -140 309.5 -131Q328 -122 328 -99Q328 -89 321.5 -82Q315 -75 304.5 -71Q294 -67 282 -65Q270 -63 259 -62L256 -48Z" glyph-name="Scedilla" horiz-adv-x="545" unicode="&#350;" /><glyph d="M246 23Q283 23 321 30Q359 37 390.5 55Q422 73 442 103.5Q462 134 462 181Q462 231 445.5 261Q429 291 403 307Q377 323 343.5 328.5Q310 334 276 336Q240 337 203 343Q166 349 136 366.5Q106 384 87 417.5Q68 451 68 509Q68 562 88 596.5Q108 631 140 650.5Q172 670 213 677.5Q254 685 295 685Q328 685 368.5 680.5Q409 676 446 665V635Q408 647 370 651.5Q332 656 295 656Q259 656 224.5 649Q190 642 163 625.5Q136 609 119 580.5Q102 552 102 510Q102 463 117 435.5Q132 408 157.5 394Q183 380 216 375Q249 370 285 369Q324 367 362 359.5Q400 352 429.5 332Q459 312 477.5 276.5Q496 241 496 184Q496 125 472 88Q448 51 411.5 30Q375 9 330.5 1Q286 -7 245 -7Q203 -7 159.5 -1Q116 5 78 18V49Q116 36 159 29.5Q202 23 246 23ZM269 827 187 737H152L257 850H283L388 737H353Z" glyph-name="Scircumflex" horiz-adv-x="545" unicode="&#348;" /><glyph d="M246 23Q283 23 321 30Q359 37 390.5 55Q422 73 442 103.5Q462 134 462 181Q462 231 445.5 261Q429 291 403 307Q377 323 343.5 328.5Q310 334 276 336Q240 337 203 343Q166 349 136 366.5Q106 384 87 417.5Q68 451 68 509Q68 562 88 596.5Q108 631 140 650.5Q172 670 213 677.5Q254 685 295 685Q328 685 368.5 680.5Q409 676 446 665V635Q408 647 370 651.5Q332 656 295 656Q259 656 224.5 649Q190 642 163 625.5Q136 609 119 580.5Q102 552 102 510Q102 463 117 435.5Q132 408 157.5 394Q183 380 216 375Q249 370 285 369Q324 367 362 359.5Q400 352 429.5 332Q459 312 477.5 276.5Q496 241 496 184Q496 125 472 88Q448 51 411.5 30Q375 9 330.5 1Q286 -7 245 -7Q203 -7 159.5 -1Q116 5 78 18V49Q116 36 159 29.5Q202 23 246 23ZM274 -78H312L258 -233H235Z" glyph-name="Scommaaccent" horiz-adv-x="545" unicode="&#536;" /><glyph d="M269 0H235V649H13V678H491V649H269Z" glyph-name="T" horiz-adv-x="504" unicode="T" /><glyph d="M269 360H436V331H269V0H235V331H77V360H235V649H13V678H491V649H269Z" glyph-name="Tbar" horiz-adv-x="504" unicode="&#358;" /><glyph d="M269 0H235V649H13V678H491V649H269ZM252 756 334 846H369L264 733H238L133 846H168Z" glyph-name="Tcaron" horiz-adv-x="504" unicode="&#356;" /><glyph d="M269 0H235V649H13V678H491V649H269ZM233 -78H271L217 -233H194Z" glyph-name="Tcommaaccent" horiz-adv-x="504" unicode="&#354;" /><glyph d="M132 128V0H98V679H132V549H284Q359 549 405 539.5Q451 530 483 499Q509 473 519 433.5Q529 394 529 339Q529 282 519 243Q509 204 483 178Q467 162 448.5 152.5Q430 143 407 137.5Q384 132 354.5 130Q325 128 288 128ZM494 339Q494 387 486 421Q478 455 458 475Q432 501 392.5 510.5Q353 520 279 520H132V157H279Q316 157 343.5 158.5Q371 160 392 164.5Q413 169 428.5 177.5Q444 186 457 199Q477 219 485.5 254.5Q494 290 494 339Z" glyph-name="Thorn" horiz-adv-x="567" unicode="&#222;" /><glyph d="M314 -7Q247 -7 203.5 9.5Q160 26 133 53Q102 84 92.5 129.5Q83 175 83 223V678H117V221Q117 203 118 183.5Q119 164 123 144.5Q127 125 135.5 106.5Q144 88 159 73Q182 50 219 36Q256 22 314 22Q372 22 409 36Q446 50 469 73Q484 88 492.5 106.5Q501 125 505 144.5Q509 164 510 183.5Q511 203 511 221V678H545V223Q545 175 535.5 129.5Q526 84 495 53Q468 26 424.5 9.5Q381 -7 314 -7Z" glyph-name="U" horiz-adv-x="628" unicode="U" /><glyph d="M314 -7Q247 -7 203.5 9.5Q160 26 133 53Q102 84 92.5 129.5Q83 175 83 223V678H117V221Q117 203 118 183.5Q119 164 123 144.5Q127 125 135.5 106.5Q144 88 159 73Q182 50 219 36Q256 22 314 22Q372 22 409 36Q446 50 469 73Q484 88 492.5 106.5Q501 125 505 144.5Q509 164 510 183.5Q511 203 511 221V678H545V223Q545 175 535.5 129.5Q526 84 495 53Q468 26 424.5 9.5Q381 -7 314 -7ZM324 737H291L399 846H446Z" glyph-name="Uacute" horiz-adv-x="628" unicode="&#218;" /><glyph d="M314 -7Q247 -7 203.5 9.5Q160 26 133 53Q102 84 92.5 129.5Q83 175 83 223V678H117V221Q117 203 118 183.5Q119 164 123 144.5Q127 125 135.5 106.5Q144 88 159 73Q182 50 219 36Q256 22 314 22Q372 22 409 36Q446 50 469 73Q484 88 492.5 106.5Q501 125 505 144.5Q509 164 510 183.5Q511 203 511 221V678H545V223Q545 175 535.5 129.5Q526 84 495 53Q468 26 424.5 9.5Q381 -7 314 -7ZM314 767Q360 767 393 785.5Q426 804 437 846H470Q459 790 416.5 765.5Q374 741 314 741Q254 741 211.5 765.5Q169 790 158 846H191Q202 804 235 785.5Q268 767 314 767Z" glyph-name="Ubreve" horiz-adv-x="628" unicode="&#364;" /><glyph d="M314 -7Q247 -7 203.5 9.5Q160 26 133 53Q102 84 92.5 129.5Q83 175 83 223V678H117V221Q117 203 118 183.5Q119 164 123 144.5Q127 125 135.5 106.5Q144 88 159 73Q182 50 219 36Q256 22 314 22Q372 22 409 36Q446 50 469 73Q484 88 492.5 106.5Q501 125 505 144.5Q509 164 510 183.5Q511 203 511 221V678H545V223Q545 175 535.5 129.5Q526 84 495 53Q468 26 424.5 9.5Q381 -7 314 -7ZM313 827 231 737H196L301 850H327L432 737H397Z" glyph-name="Ucircumflex" horiz-adv-x="628" unicode="&#219;" /><glyph d="M314 -7Q247 -7 203.5 9.5Q160 26 133 53Q102 84 92.5 129.5Q83 175 83 223V678H117V221Q117 203 118 183.5Q119 164 123 144.5Q127 125 135.5 106.5Q144 88 159 73Q182 50 219 36Q256 22 314 22Q372 22 409 36Q446 50 469 73Q484 88 492.5 106.5Q501 125 505 144.5Q509 164 510 183.5Q511 203 511 221V678H545V223Q545 175 535.5 129.5Q526 84 495 53Q468 26 424.5 9.5Q381 -7 314 -7ZM264 775H229V839H264ZM399 775H364V839H399Z" glyph-name="Udieresis" horiz-adv-x="628" unicode="&#220;" /><glyph d="M314 -7Q247 -7 203.5 9.5Q160 26 133 53Q102 84 92.5 129.5Q83 175 83 223V678H117V221Q117 203 118 183.5Q119 164 123 144.5Q127 125 135.5 106.5Q144 88 159 73Q182 50 219 36Q256 22 314 22Q372 22 409 36Q446 50 469 73Q484 88 492.5 106.5Q501 125 505 144.5Q509 164 510 183.5Q511 203 511 221V678H545V223Q545 175 535.5 129.5Q526 84 495 53Q468 26 424.5 9.5Q381 -7 314 -7ZM188 846H235L342 737H310Z" glyph-name="Ugrave" horiz-adv-x="628" unicode="&#217;" /><glyph d="M314 -7Q247 -7 203.5 9.5Q160 26 133 53Q102 84 92.5 129.5Q83 175 83 223V678H117V221Q117 203 118 183.5Q119 164 123 144.5Q127 125 135.5 106.5Q144 88 159 73Q182 50 219 36Q256 22 314 22Q372 22 409 36Q446 50 469 73Q484 88 492.5 106.5Q501 125 505 144.5Q509 164 510 183.5Q511 203 511 221V678H545V223Q545 175 535.5 129.5Q526 84 495 53Q468 26 424.5 9.5Q381 -7 314 -7ZM271 737H241L348 846H393ZM358 737H327L434 846H479Z" glyph-name="Uhungarumlaut" horiz-adv-x="628" unicode="&#368;" /><glyph d="M314 -7Q247 -7 203.5 9.5Q160 26 133 53Q102 84 92.5 129.5Q83 175 83 223V678H117V221Q117 203 118 183.5Q119 164 123 144.5Q127 125 135.5 106.5Q144 88 159 73Q182 50 219 36Q256 22 314 22Q372 22 409 36Q446 50 469 73Q484 88 492.5 106.5Q501 125 505 144.5Q509 164 510 183.5Q511 203 511 221V678H545V223Q545 175 535.5 129.5Q526 84 495 53Q468 26 424.5 9.5Q381 -7 314 -7ZM465 787H163V815H465Z" glyph-name="Umacron" horiz-adv-x="628" unicode="&#362;" /><glyph d="M314 -7Q320 -7 326 -7Q332 -7 338 -6Q309 -26 297 -48Q285 -70 285 -87Q285 -97 288 -106.5Q291 -116 298.5 -123.5Q306 -131 319 -135.5Q332 -140 352 -140Q365 -140 378 -138.5Q391 -137 406 -132V-157Q394 -162 377 -164Q360 -166 346 -166Q294 -166 274.5 -143.5Q255 -121 255 -89Q255 -68 267 -46Q279 -24 299 -7Q239 -5 199 11Q159 27 133 53Q102 84 92.5 129.5Q83 175 83 223V678H117V221Q117 203 118 183.5Q119 164 123 144.5Q127 125 135.5 106.5Q144 88 159 73Q182 50 219 36Q256 22 314 22Q372 22 409 36Q446 50 469 73Q484 88 492.5 106.5Q501 125 505 144.5Q509 164 510 183.5Q511 203 511 221V678H545V223Q545 175 535.5 129.5Q526 84 495 53Q470 28 432.5 12.5Q395 -3 338 -6Q341 -4 349 0L323 9Q308 1 299 -7H314Z" glyph-name="Uogonek" horiz-adv-x="628" unicode="&#370;" /><glyph d="M314 -7Q247 -7 203.5 9.5Q160 26 133 53Q102 84 92.5 129.5Q83 175 83 223V678H117V221Q117 203 118 183.5Q119 164 123 144.5Q127 125 135.5 106.5Q144 88 159 73Q182 50 219 36Q256 22 314 22Q372 22 409 36Q446 50 469 73Q484 88 492.5 106.5Q501 125 505 144.5Q509 164 510 183.5Q511 203 511 221V678H545V223Q545 175 535.5 129.5Q526 84 495 53Q468 26 424.5 9.5Q381 -7 314 -7ZM366 812Q366 859 314 859Q262 859 262 812Q262 767 314 767Q366 767 366 812ZM392 812Q392 779 372 762Q352 745 314 745Q276 745 256 762Q236 779 236 812Q236 847 256 864Q276 881 314 881Q352 881 372 864Q392 847 392 812Z" glyph-name="Uring" horiz-adv-x="628" unicode="&#366;" /><glyph d="M314 -7Q247 -7 203.5 9.5Q160 26 133 53Q102 84 92.5 129.5Q83 175 83 223V678H117V221Q117 203 118 183.5Q119 164 123 144.5Q127 125 135.5 106.5Q144 88 159 73Q182 50 219 36Q256 22 314 22Q372 22 409 36Q446 50 469 73Q484 88 492.5 106.5Q501 125 505 144.5Q509 164 510 183.5Q511 203 511 221V678H545V223Q545 175 535.5 129.5Q526 84 495 53Q468 26 424.5 9.5Q381 -7 314 -7ZM385 781Q365 781 347.5 786Q330 791 312.5 797Q295 803 278 808Q261 813 242 813Q222 813 201.5 803.5Q181 794 162 781V811Q177 822 199.5 831.5Q222 841 242 841Q261 841 279 836Q297 831 314 825Q331 819 348.5 814Q366 809 385 809Q405 809 425.5 818.5Q446 828 464 841V811Q450 800 427 790.5Q404 781 385 781Z" glyph-name="Utilde" horiz-adv-x="628" unicode="&#360;" /><glyph d="M507 678H542L303 0H259L17 678H53L280 36H281Z" glyph-name="V" horiz-adv-x="559" unicode="V" /><glyph d="M452 519H450L261 0H218L22 678H58L241 38H242L434 569L392 678H429L666 38H667L850 678H885L689 0H647Z" glyph-name="W" horiz-adv-x="907" unicode="W" /><glyph d="M462 519H460L271 0H228L32 678H68L251 38H252L444 569L402 678H439L676 38H677L860 678H895L699 0H657ZM440 737H407L515 846H562Z" glyph-name="Wacute" horiz-adv-x="905" unicode="&#7810;" /><glyph d="M462 519H460L271 0H228L32 678H68L251 38H252L444 569L402 678H439L676 38H677L860 678H895L699 0H657ZM452 827 370 737H335L440 850H466L571 737H536Z" glyph-name="Wcircumflex" horiz-adv-x="905" unicode="&#372;" /><glyph d="M462 519H460L271 0H228L32 678H68L251 38H252L444 569L402 678H439L676 38H677L860 678H895L699 0H657ZM403 775H368V839H403ZM538 775H503V839H538Z" glyph-name="Wdieresis" horiz-adv-x="905" unicode="&#7812;" /><glyph d="M462 519H460L271 0H228L32 678H68L251 38H252L444 569L402 678H439L676 38H677L860 678H895L699 0H657ZM275 846H322L429 737H397Z" glyph-name="Wgrave" horiz-adv-x="905" unicode="&#7808;" /><glyph d="M278 341 496 0H458L256 315L56 0H17L236 342L25 678H64L256 367L450 678H489Z" glyph-name="X" horiz-adv-x="513" unicode="X" /><glyph d="M496 678H532L285 285V0H251V284L12 678H51L267 318H268Z" glyph-name="Y" horiz-adv-x="544" unicode="Y" /><glyph d="M496 678H532L285 285V0H251V284L12 678H51L267 318H268ZM281 737H248L356 846H403Z" glyph-name="Yacute" horiz-adv-x="544" unicode="&#221;" /><glyph d="M496 678H532L285 285V0H251V284L12 678H51L267 318H268ZM268 827 186 737H151L256 850H282L387 737H352Z" glyph-name="Ycircumflex" horiz-adv-x="544" unicode="&#374;" /><glyph d="M496 678H532L285 285V0H251V284L12 678H51L267 318H268ZM354 775H319V839H354ZM219 775H184V839H219Z" glyph-name="Ydieresis" horiz-adv-x="544" unicode="&#376;" /><glyph d="M478 0H49V29L438 648V649H62V678H479V649L89 30V29H478Z" glyph-name="Z" horiz-adv-x="528" unicode="Z" /><glyph d="M478 0H49V29L438 648V649H62V678H479V649L89 30V29H478ZM273 737H240L348 846H395Z" glyph-name="Zacute" horiz-adv-x="528" unicode="&#377;" /><glyph d="M478 0H49V29L438 648V649H62V678H479V649L89 30V29H478ZM267 756 349 846H384L279 733H253L148 846H183Z" glyph-name="Zcaron" horiz-adv-x="528" unicode="&#142;" /><glyph d="M478 0H49V29L438 648V649H62V678H479V649L89 30V29H478ZM283 772H248V846H283Z" glyph-name="Zdotaccent" horiz-adv-x="528" unicode="&#379;" /><glyph d="M213 -6Q175 -6 142.5 4Q110 14 88 36Q71 53 61 78.5Q51 104 51 138Q51 174 60 199Q69 224 86 241Q114 269 162.5 278Q211 287 276 287Q298 287 325.5 285.5Q353 284 376 282V372Q376 412 367 435.5Q358 459 341 471Q324 483 298.5 486Q273 489 240 489Q211 489 169 485.5Q127 482 89 473V501Q129 511 171.5 513.5Q214 516 244 516Q286 516 317 510Q348 504 368 488.5Q388 473 397.5 445Q407 417 407 373V0H381L378 54H377Q340 24 300 9Q260 -6 213 -6ZM376 255Q353 257 327 258.5Q301 260 279 260Q220 260 178 254Q136 248 112 224Q84 196 84 137Q84 106 94 84Q104 62 122 48Q140 34 164 27.5Q188 21 215 21Q263 21 303.5 38Q344 55 376 87Z" glyph-name="a" horiz-adv-x="491" unicode="a" /><glyph d="M213 -6Q175 -6 142.5 4Q110 14 88 36Q71 53 61 78.5Q51 104 51 138Q51 174 60 199Q69 224 86 241Q114 269 162.5 278Q211 287 276 287Q298 287 325.5 285.5Q353 284 376 282V372Q376 412 367 435.5Q358 459 341 471Q324 483 298.5 486Q273 489 240 489Q211 489 169 485.5Q127 482 89 473V501Q129 511 171.5 513.5Q214 516 244 516Q286 516 317 510Q348 504 368 488.5Q388 473 397.5 445Q407 417 407 373V0H381L378 54H377Q340 24 300 9Q260 -6 213 -6ZM376 255Q353 257 327 258.5Q301 260 279 260Q220 260 178 254Q136 248 112 224Q84 196 84 137Q84 106 94 84Q104 62 122 48Q140 34 164 27.5Q188 21 215 21Q263 21 303.5 38Q344 55 376 87ZM250 569H217L325 678H372Z" glyph-name="aacute" horiz-adv-x="491" unicode="&#225;" /><glyph d="M213 -6Q175 -6 142.5 4Q110 14 88 36Q71 53 61 78.5Q51 104 51 138Q51 174 60 199Q69 224 86 241Q114 269 162.5 278Q211 287 276 287Q298 287 325.5 285.5Q353 284 376 282V372Q376 412 367 435.5Q358 459 341 471Q324 483 298.5 486Q273 489 240 489Q211 489 169 485.5Q127 482 89 473V501Q129 511 171.5 513.5Q214 516 244 516Q286 516 317 510Q348 504 368 488.5Q388 473 397.5 445Q407 417 407 373V0H381L378 54H377Q340 24 300 9Q260 -6 213 -6ZM376 255Q353 257 327 258.5Q301 260 279 260Q220 260 178 254Q136 248 112 224Q84 196 84 137Q84 106 94 84Q104 62 122 48Q140 34 164 27.5Q188 21 215 21Q263 21 303.5 38Q344 55 376 87ZM248 599Q294 599 327 617.5Q360 636 371 678H404Q393 622 350.5 597.5Q308 573 248 573Q188 573 145.5 597.5Q103 622 92 678H125Q136 636 169 617.5Q202 599 248 599Z" glyph-name="abreve" horiz-adv-x="491" unicode="&#259;" /><glyph d="M213 -6Q175 -6 142.5 4Q110 14 88 36Q71 53 61 78.5Q51 104 51 138Q51 174 60 199Q69 224 86 241Q114 269 162.5 278Q211 287 276 287Q298 287 325.5 285.5Q353 284 376 282V372Q376 412 367 435.5Q358 459 341 471Q324 483 298.5 486Q273 489 240 489Q211 489 169 485.5Q127 482 89 473V501Q129 511 171.5 513.5Q214 516 244 516Q286 516 317 510Q348 504 368 488.5Q388 473 397.5 445Q407 417 407 373V0H381L378 54H377Q340 24 300 9Q260 -6 213 -6ZM376 255Q353 257 327 258.5Q301 260 279 260Q220 260 178 254Q136 248 112 224Q84 196 84 137Q84 106 94 84Q104 62 122 48Q140 34 164 27.5Q188 21 215 21Q263 21 303.5 38Q344 55 376 87ZM246 659 164 569H129L234 682H260L365 569H330Z" glyph-name="acircumflex" horiz-adv-x="491" unicode="&#226;" /><glyph d="M281 569H248L356 678H403Z" glyph-name="acute" horiz-adv-x="600" unicode="&#180;" /><glyph d="M213 -6Q175 -6 142.5 4Q110 14 88 36Q71 53 61 78.5Q51 104 51 138Q51 174 60 199Q69 224 86 241Q114 269 162.5 278Q211 287 276 287Q298 287 325.5 285.5Q353 284 376 282V372Q376 412 367 435.5Q358 459 341 471Q324 483 298.5 486Q273 489 240 489Q211 489 169 485.5Q127 482 89 473V501Q129 511 171.5 513.5Q214 516 244 516Q286 516 317 510Q348 504 368 488.5Q388 473 397.5 445Q407 417 407 373V0H381L378 54H377Q340 24 300 9Q260 -6 213 -6ZM376 255Q353 257 327 258.5Q301 260 279 260Q220 260 178 254Q136 248 112 224Q84 196 84 137Q84 106 94 84Q104 62 122 48Q140 34 164 27.5Q188 21 215 21Q263 21 303.5 38Q344 55 376 87ZM194 607H159V671H194ZM329 607H294V671H329Z" glyph-name="adieresis" horiz-adv-x="491" unicode="&#228;" /><glyph d="M597 21Q632 21 666 25.5Q700 30 741 45V16Q710 4 670 -1Q630 -6 595 -6Q529 -6 484 15Q439 36 413 81H412Q367 32 314 13Q261 -6 213 -6Q175 -6 142.5 4Q110 14 88 36Q71 53 61 78.5Q51 104 51 138Q51 174 60 199Q69 224 86 241Q114 269 162.5 278Q211 287 276 287Q296 287 324.5 285.5Q353 284 376 282V370Q376 410 367 433.5Q358 457 340.5 469.5Q323 482 297.5 485.5Q272 489 240 489Q211 489 169 485.5Q127 482 89 473V501Q129 511 171.5 513.5Q214 516 244 516Q283 516 311 511Q339 506 358 493Q377 480 388 458Q399 436 402 402H403Q427 462 471.5 489Q516 516 581 516Q680 516 721 462Q762 408 762 308Q762 304 761.5 290.5Q761 277 759 260H409Q409 187 423 139.5Q437 92 466 63Q489 40 521.5 30.5Q554 21 597 21ZM279 260Q220 260 178 254Q136 248 112 224Q84 196 84 137Q84 106 94 84Q104 62 122 48Q140 34 164 27.5Q188 21 215 21Q259 21 308 39.5Q357 58 400 107Q387 136 382.5 171Q378 206 377 251V254Q355 257 327 258.5Q299 260 279 260ZM581 489Q545 489 516 479.5Q487 470 465 448Q442 425 428 385.5Q414 346 410 287H730Q731 297 731 301.5Q731 306 731 311Q731 359 721.5 394Q712 429 689 452Q652 489 581 489Z" glyph-name="ae" horiz-adv-x="822" unicode="&#230;" /><glyph d="M213 -6Q175 -6 142.5 4Q110 14 88 36Q71 53 61 78.5Q51 104 51 138Q51 174 60 199Q69 224 86 241Q114 269 162.5 278Q211 287 276 287Q298 287 325.5 285.5Q353 284 376 282V372Q376 412 367 435.5Q358 459 341 471Q324 483 298.5 486Q273 489 240 489Q211 489 169 485.5Q127 482 89 473V501Q129 511 171.5 513.5Q214 516 244 516Q286 516 317 510Q348 504 368 488.5Q388 473 397.5 445Q407 417 407 373V0H381L378 54H377Q340 24 300 9Q260 -6 213 -6ZM376 255Q353 257 327 258.5Q301 260 279 260Q220 260 178 254Q136 248 112 224Q84 196 84 137Q84 106 94 84Q104 62 122 48Q140 34 164 27.5Q188 21 215 21Q263 21 303.5 38Q344 55 376 87ZM130 678H177L284 569H252Z" glyph-name="agrave" horiz-adv-x="491" unicode="&#224;" /><glyph d="M213 -6Q175 -6 142.5 4Q110 14 88 36Q71 53 61 78.5Q51 104 51 138Q51 174 60 199Q69 224 86 241Q114 269 162.5 278Q211 287 276 287Q298 287 325.5 285.5Q353 284 376 282V372Q376 412 367 435.5Q358 459 341 471Q324 483 298.5 486Q273 489 240 489Q211 489 169 485.5Q127 482 89 473V501Q129 511 171.5 513.5Q214 516 244 516Q286 516 317 510Q348 504 368 488.5Q388 473 397.5 445Q407 417 407 373V0H381L378 54H377Q340 24 300 9Q260 -6 213 -6ZM376 255Q353 257 327 258.5Q301 260 279 260Q220 260 178 254Q136 248 112 224Q84 196 84 137Q84 106 94 84Q104 62 122 48Q140 34 164 27.5Q188 21 215 21Q263 21 303.5 38Q344 55 376 87ZM394 619H92V647H394Z" glyph-name="amacron" horiz-adv-x="491" unicode="&#257;" /><glyph d="M482 78Q461 51 437 34.5Q413 18 386 9Q359 0 330.5 -3.5Q302 -7 272 -7Q190 -7 139 38.5Q88 84 88 172Q88 209 98.5 238Q109 267 127 288.5Q145 310 168.5 324.5Q192 339 217 348V349Q195 358 174.5 373.5Q154 389 138.5 410Q123 431 113.5 458Q104 485 104 517Q104 552 115 582.5Q126 613 149.5 635.5Q173 658 210 671Q247 684 300 684Q319 684 349.5 682Q380 680 405 674V644Q381 650 352.5 652.5Q324 655 302 655Q256 655 225 643.5Q194 632 174.5 613Q155 594 146.5 568.5Q138 543 138 515Q138 480 149.5 454Q161 428 181 408Q206 383 244.5 371.5Q283 360 325 360H478L485 484H509L508 358H636V332H507V141Q507 78 525 49Q543 20 595 20Q612 20 631 22.5Q650 25 663 30V2Q646 -3 627.5 -5Q609 -7 591 -7Q538 -7 515 16Q492 39 483 78ZM476 332H296Q261 332 225.5 320Q190 308 162 280Q144 262 133 234.5Q122 207 122 172Q122 95 165 58.5Q208 22 280 22Q308 22 336 26Q364 30 389.5 41Q415 52 437 70.5Q459 89 476 118Z" glyph-name="ampersand" horiz-adv-x="720" unicode="&amp;" /><glyph d="M213 -6Q175 -6 142.5 4Q110 14 88 36Q71 53 61 78.5Q51 104 51 138Q51 174 60 199Q69 224 86 241Q114 269 162.5 278Q211 287 276 287Q298 287 325.5 285.5Q353 284 376 282V372Q376 412 367 435.5Q358 459 341 471Q324 483 298.5 486Q273 489 240 489Q211 489 169 485.5Q127 482 89 473V501Q129 511 171.5 513.5Q214 516 244 516Q286 516 317 510Q348 504 368 488.5Q388 473 397.5 445Q407 417 407 373V0Q370 -22 356 -45Q342 -68 342 -86Q342 -95 345 -105Q348 -115 355.5 -122.5Q363 -130 376 -135Q389 -140 409 -140Q423 -140 435.5 -138Q448 -136 464 -131V-157Q451 -161 434.5 -163Q418 -165 404 -165Q352 -165 332 -142.5Q312 -120 312 -88Q312 -63 331.5 -36.5Q351 -10 380 7L378 54H377Q340 24 300 9Q260 -6 213 -6ZM376 255Q353 257 327 258.5Q301 260 279 260Q220 260 178 254Q136 248 112 224Q84 196 84 137Q84 106 94 84Q104 62 122 48Q140 34 164 27.5Q188 21 215 21Q263 21 303.5 38Q344 55 376 87Z" glyph-name="aogonek" horiz-adv-x="491" unicode="&#261;" /><glyph d="M396 149Q369 149 341.5 155Q314 161 287 168Q260 175 233 181Q206 187 179 187Q153 187 122.5 178Q92 169 64 150V181Q90 200 121.5 208Q153 216 181 216Q209 216 236 210Q263 204 290 197Q317 190 344 184Q371 178 398 178Q424 178 454.5 187Q485 196 513 215V184Q487 165 455.5 157Q424 149 396 149ZM396 329Q369 329 341.5 335Q314 341 287 348Q260 355 233 361Q206 367 179 367Q153 367 122.5 358Q92 349 64 330V361Q90 380 121.5 388Q153 396 181 396Q209 396 236 390Q263 384 290 377Q317 370 344 364Q371 358 398 358Q424 358 454.5 367Q485 376 513 395V364Q487 345 455.5 337Q424 329 396 329Z" glyph-name="approxequal" horiz-adv-x="577" unicode="&#8776;" /><glyph d="M213 -6Q175 -6 142.5 4Q110 14 88 36Q71 53 61 78.5Q51 104 51 138Q51 174 60 199Q69 224 86 241Q114 269 162.5 278Q211 287 276 287Q298 287 325.5 285.5Q353 284 376 282V372Q376 412 367 435.5Q358 459 341 471Q324 483 298.5 486Q273 489 240 489Q211 489 169 485.5Q127 482 89 473V501Q129 511 171.5 513.5Q214 516 244 516Q286 516 317 510Q348 504 368 488.5Q388 473 397.5 445Q407 417 407 373V0H381L378 54H377Q340 24 300 9Q260 -6 213 -6ZM376 255Q353 257 327 258.5Q301 260 279 260Q220 260 178 254Q136 248 112 224Q84 196 84 137Q84 106 94 84Q104 62 122 48Q140 34 164 27.5Q188 21 215 21Q263 21 303.5 38Q344 55 376 87ZM297 644Q297 691 245 691Q193 691 193 644Q193 599 245 599Q297 599 297 644ZM323 644Q323 611 303 594Q283 577 245 577Q207 577 187 594Q167 611 167 644Q167 679 187 696Q207 713 245 713Q283 713 303 696Q323 679 323 644Z" glyph-name="aring" horiz-adv-x="491" unicode="&#229;" /><glyph d="M236 647 90 401H58L223 678H249L415 401H383Z" glyph-name="asciicircum" horiz-adv-x="473" unicode="^" /><glyph d="M396 312Q369 312 341.5 318Q314 324 287 331Q260 338 233 344Q206 350 179 350Q153 350 122.5 341Q92 332 64 313V344Q90 363 121.5 371Q153 379 181 379Q209 379 236 373Q263 367 290 360Q317 353 344 347Q371 341 398 341Q424 341 454.5 350Q485 359 513 378V347Q487 328 455.5 320Q424 312 396 312Z" glyph-name="asciitilde" horiz-adv-x="577" unicode="~" /><glyph d="M306 727 307 571 455 619 464 594 315 544 405 418 384 402 292 527 200 402 179 418 269 544 120 594 129 619 277 571 278 727Z" glyph-name="asterisk" horiz-adv-x="584" unicode="*" /><glyph d="M465 139Q452 116 437.5 102.5Q423 89 408 81.5Q393 74 378.5 71.5Q364 69 351 69Q308 69 284 97Q260 125 260 181Q260 220 271.5 255Q283 290 305 316.5Q327 343 359.5 358.5Q392 374 434 374Q461 374 486 370Q511 366 526 361L497 225Q491 198 489.5 171.5Q488 145 495 124Q502 103 518.5 90Q535 77 567 77Q630 77 659.5 125Q689 173 689 249Q689 315 672.5 368.5Q656 422 622 460.5Q588 499 535.5 520Q483 541 412 541Q338 541 280.5 518.5Q223 496 184 454Q145 412 124.5 353Q104 294 104 221Q104 62 187.5 -18.5Q271 -99 418 -99Q451 -99 479.5 -92.5Q508 -86 529 -77V-105Q508 -113 480 -118.5Q452 -124 418 -124Q338 -124 274 -102.5Q210 -81 166 -38Q122 5 98.5 70Q75 135 75 221Q75 300 97.5 364Q120 428 162.5 473Q205 518 268 542Q331 566 412 566Q491 566 548.5 543.5Q606 521 643.5 479.5Q681 438 699.5 379.5Q718 321 718 250Q718 159 679.5 105.5Q641 52 567 52Q522 52 495.5 75.5Q469 99 466 139ZM491 340Q459 348 433 348Q399 348 372.5 334.5Q346 321 327.5 298Q309 275 299.5 244.5Q290 214 290 181Q290 167 293 151.5Q296 136 303 123Q310 110 322 102Q334 94 352 94Q364 94 380 97.5Q396 101 411 112Q426 123 439.5 144Q453 165 461 201Z" glyph-name="at" horiz-adv-x="793" unicode="@" /><glyph d="M213 -6Q175 -6 142.5 4Q110 14 88 36Q71 53 61 78.5Q51 104 51 138Q51 174 60 199Q69 224 86 241Q114 269 162.5 278Q211 287 276 287Q298 287 325.5 285.5Q353 284 376 282V372Q376 412 367 435.5Q358 459 341 471Q324 483 298.5 486Q273 489 240 489Q211 489 169 485.5Q127 482 89 473V501Q129 511 171.5 513.5Q214 516 244 516Q286 516 317 510Q348 504 368 488.5Q388 473 397.5 445Q407 417 407 373V0H381L378 54H377Q340 24 300 9Q260 -6 213 -6ZM376 255Q353 257 327 258.5Q301 260 279 260Q220 260 178 254Q136 248 112 224Q84 196 84 137Q84 106 94 84Q104 62 122 48Q140 34 164 27.5Q188 21 215 21Q263 21 303.5 38Q344 55 376 87ZM310 613Q290 613 272.5 618Q255 623 237.5 629Q220 635 203 640Q186 645 167 645Q147 645 126.5 635.5Q106 626 87 613V643Q102 654 124.5 663.5Q147 673 167 673Q186 673 204 668Q222 663 239 657Q256 651 273.5 646Q291 641 310 641Q330 641 350.5 650.5Q371 660 389 673V643Q375 632 352 622.5Q329 613 310 613Z" glyph-name="atilde" horiz-adv-x="491" unicode="&#227;" /><glyph d="M456 255Q456 378 414 433Q372 488 287 488Q239 488 199 468.5Q159 449 124 405V70Q173 21 265 21Q309 21 344.5 34Q380 47 404.5 75Q429 103 442.5 147.5Q456 192 456 255ZM487 256Q487 186 472 136.5Q457 87 428.5 55.5Q400 24 359.5 9Q319 -6 267 -6Q222 -6 186.5 3.5Q151 13 122 36H121L118 0H93V678H124V446H125Q160 482 201 499Q242 516 289 516Q389 516 438 454Q487 392 487 256Z" glyph-name="b" horiz-adv-x="550" unicode="b" /><glyph d="M-8 763H22L315 -85H285Z" glyph-name="backslash" horiz-adv-x="307" unicode="\" /><glyph d="M255 -85H226V763H255Z" glyph-name="bar" horiz-adv-x="481" unicode="|" /><glyph d="M116 312 136 299Q153 287 153 272Q153 254 150 221.5Q147 189 143.5 151.5Q140 114 137 76Q134 38 134 11Q134 -16 139 -34.5Q144 -53 157.5 -65Q171 -77 194.5 -83Q218 -89 255 -89V-117Q209 -117 179.5 -110Q150 -103 132.5 -87Q115 -71 108.5 -46.5Q102 -22 102 13Q102 36 105 72.5Q108 109 111.5 147Q115 185 118 219Q121 253 121 272L76 306V318L121 352Q121 371 118 403.5Q115 436 111.5 471.5Q108 507 105 541.5Q102 576 102 599Q102 634 108.5 658.5Q115 683 132.5 699Q150 715 179.5 722Q209 729 255 729V701Q217 700 193 694.5Q169 689 156 677Q143 665 138.5 646.5Q134 628 134 601Q134 574 137 538Q140 502 143.5 466.5Q147 431 150 400.5Q153 370 153 352Q153 337 136 325Z" glyph-name="braceleft" horiz-adv-x="307" unicode="{" /><glyph d="M171 325Q154 337 154 352Q154 370 157 400.5Q160 431 163.5 466.5Q167 502 170 538Q173 574 173 601Q173 628 168.5 646.5Q164 665 151 677Q138 689 114 694.5Q90 700 52 701V729Q98 729 127.5 722Q157 715 174 699Q191 683 198 658.5Q205 634 205 599Q205 576 202 541.5Q199 507 195.5 471.5Q192 436 189 403.5Q186 371 186 352L231 318V306L186 272Q186 253 189 219Q192 185 195.5 147Q199 109 202 72.5Q205 36 205 13Q205 -22 198 -46.5Q191 -71 174 -87Q157 -103 127.5 -110Q98 -117 52 -117V-89Q89 -89 112.5 -83Q136 -77 149.5 -65Q163 -53 168 -34.5Q173 -16 173 11Q173 38 170 76Q167 114 163.5 151.5Q160 189 157 221.5Q154 254 154 272Q154 287 171 299L191 312Z" glyph-name="braceright" horiz-adv-x="307" unicode="}" /><glyph d="M258 -118H110V730H258V701H142V-89H258Z" glyph-name="bracketleft" horiz-adv-x="310" unicode="[" /><glyph d="M52 -89H168V701H52V730H200V-118H52Z" glyph-name="bracketright" horiz-adv-x="310" unicode="]" /><glyph d="M300 599Q346 599 379 617.5Q412 636 423 678H456Q445 622 402.5 597.5Q360 573 300 573Q240 573 197.5 597.5Q155 622 144 678H177Q188 636 221 617.5Q254 599 300 599Z" glyph-name="breve" horiz-adv-x="600" unicode="&#728;" /><glyph d="M252 343Q252 364 267 379Q282 394 303 394Q325 394 339.5 379Q354 364 354 343Q354 322 339.5 307Q325 292 303 292Q282 292 267 307Q252 322 252 343Z" glyph-name="bullet" horiz-adv-x="606" unicode="&#8226;" /><glyph d="M408 16Q376 5 341.5 -0.5Q307 -6 273 -6Q168 -6 115.5 54.5Q63 115 63 255Q63 392 113.5 454Q164 516 273 516Q299 516 328 513Q357 510 389 501V473Q358 482 330 485.5Q302 489 275 489Q192 489 148 445Q95 392 95 255Q95 184 109 137.5Q123 91 152 62Q174 40 204 31Q234 22 275 22Q305 22 339 27.5Q373 33 408 45Z" glyph-name="c" horiz-adv-x="452" unicode="c" /><glyph d="M408 16Q376 5 341.5 -0.5Q307 -6 273 -6Q168 -6 115.5 54.5Q63 115 63 255Q63 392 113.5 454Q164 516 273 516Q299 516 328 513Q357 510 389 501V473Q358 482 330 485.5Q302 489 275 489Q192 489 148 445Q95 392 95 255Q95 184 109 137.5Q123 91 152 62Q174 40 204 31Q234 22 275 22Q305 22 339 27.5Q373 33 408 45ZM257 569H224L332 678H379Z" glyph-name="cacute" horiz-adv-x="452" unicode="&#263;" /><glyph d="M301 588 383 678H418L313 565H287L182 678H217Z" glyph-name="caron" horiz-adv-x="600" unicode="&#711;" /><glyph d="M408 16Q376 5 341.5 -0.5Q307 -6 273 -6Q168 -6 115.5 54.5Q63 115 63 255Q63 392 113.5 454Q164 516 273 516Q299 516 328 513Q357 510 389 501V473Q358 482 330 485.5Q302 489 275 489Q192 489 148 445Q95 392 95 255Q95 184 109 137.5Q123 91 152 62Q174 40 204 31Q234 22 275 22Q305 22 339 27.5Q373 33 408 45ZM252 588 334 678H369L264 565H238L133 678H168Z" glyph-name="ccaron" horiz-adv-x="452" unicode="&#269;" /><glyph d="M254 -5Q159 -1 111 60Q63 121 63 255Q63 392 113.5 454Q164 516 273 516Q299 516 328 513Q357 510 389 501V473Q358 482 330 485.5Q302 489 275 489Q192 489 148 445Q95 392 95 255Q95 184 109 137.5Q123 91 152 62Q174 40 204 31Q234 22 275 22Q305 22 339 27.5Q373 33 408 45V16Q378 6 347 0.5Q316 -5 284 -6L268 -44Q297 -49 317 -62.5Q337 -76 337 -100Q337 -134 311 -150Q285 -166 237 -166Q227 -166 209 -164Q191 -162 171 -157V-132Q185 -136 204.5 -138Q224 -140 238 -140Q270 -140 288.5 -131Q307 -122 307 -99Q307 -89 300.5 -82Q294 -75 283.5 -71Q273 -67 261 -65Q249 -63 238 -62L235 -48Z" glyph-name="ccedilla" horiz-adv-x="452" unicode="&#231;" /><glyph d="M408 16Q376 5 341.5 -0.5Q307 -6 273 -6Q168 -6 115.5 54.5Q63 115 63 255Q63 392 113.5 454Q164 516 273 516Q299 516 328 513Q357 510 389 501V473Q358 482 330 485.5Q302 489 275 489Q192 489 148 445Q95 392 95 255Q95 184 109 137.5Q123 91 152 62Q174 40 204 31Q234 22 275 22Q305 22 339 27.5Q373 33 408 45ZM251 659 169 569H134L239 682H265L370 569H335Z" glyph-name="ccircumflex" horiz-adv-x="452" unicode="&#265;" /><glyph d="M408 16Q376 5 341.5 -0.5Q307 -6 273 -6Q168 -6 115.5 54.5Q63 115 63 255Q63 392 113.5 454Q164 516 273 516Q299 516 328 513Q357 510 389 501V473Q358 482 330 485.5Q302 489 275 489Q192 489 148 445Q95 392 95 255Q95 184 109 137.5Q123 91 152 62Q174 40 204 31Q234 22 275 22Q305 22 339 27.5Q373 33 408 45ZM268 604H233V678H268Z" glyph-name="cdotaccent" horiz-adv-x="452" unicode="&#267;" /><glyph d="M301 0H331L312 -44Q341 -49 361 -62.5Q381 -76 381 -100Q381 -134 355 -150Q329 -166 281 -166Q271 -166 253 -164Q235 -162 215 -157V-132Q229 -136 248.5 -138Q268 -140 282 -140Q314 -140 332.5 -131Q351 -122 351 -99Q351 -89 344.5 -82Q338 -75 327.5 -71Q317 -67 305 -65Q293 -63 282 -62L279 -48Z" glyph-name="cedilla" horiz-adv-x="608" unicode="&#184;" /><glyph d="M504 90Q475 76 442.5 68.5Q410 61 380 61Q353 61 329 64L301 -49H270L300 70Q268 79 243 98.5Q218 118 201 150.5Q184 183 175 230.5Q166 278 166 344Q166 429 180.5 484.5Q195 540 222.5 573Q250 606 289 619Q328 632 377 632L406 747H436L407 631Q427 629 449 624Q471 619 493 609V578Q461 594 429.5 599Q398 604 376 604Q334 604 301 592Q268 580 245.5 550Q223 520 211 470Q199 420 199 344Q199 271 211 222Q223 173 245.5 144Q268 115 301 102.5Q334 90 376 90Q406 90 440.5 98Q475 106 504 122Z" glyph-name="cent" horiz-adv-x="660" unicode="&#162;" /><glyph d="M300 659 218 569H183L288 682H314L419 569H384Z" glyph-name="circumflex" horiz-adv-x="600" unicode="&#710;" /><glyph d="M128 434H91V508H128ZM128 0H91V74H128Z" glyph-name="colon" horiz-adv-x="219" unicode=":" /><glyph d="M97 82H142L67 -104H41Z" glyph-name="comma" horiz-adv-x="219" unicode="," /><glyph d="M755 342Q755 265 733.5 201Q712 137 669.5 91Q627 45 563.5 19Q500 -7 417 -7Q333 -7 270 18Q207 43 164 88.5Q121 134 99.5 198.5Q78 263 78 342Q78 420 100 483.5Q122 547 165 591.5Q208 636 271 660.5Q334 685 417 685Q500 685 563.5 659.5Q627 634 669.5 588.5Q712 543 733.5 480Q755 417 755 342ZM106 342Q106 269 125.5 209.5Q145 150 184 107.5Q223 65 281.5 42Q340 19 417 19Q494 19 552 43Q610 67 648.5 110Q687 153 706.5 212Q726 271 726 342Q726 411 706.5 469.5Q687 528 648.5 570Q610 612 552 635.5Q494 659 417 659Q341 659 283 636.5Q225 614 185.5 572.5Q146 531 126 472.5Q106 414 106 342ZM283 342Q283 438 317.5 479Q352 520 426 520Q446 520 466.5 516.5Q487 513 507 505V479Q487 489 467 492Q447 495 427 495Q368 495 340 460.5Q312 426 312 342Q312 257 340 223Q368 189 427 189Q448 189 470 192.5Q492 196 513 207V181Q491 171 469 167.5Q447 164 426 164Q352 164 317.5 204.5Q283 245 283 342Z" glyph-name="copyright" horiz-adv-x="833" unicode="&#169;" /><glyph d="M427 66Q392 28 350 11Q308 -6 261 -6Q161 -6 112 56.5Q63 119 63 255Q63 394 121.5 455Q180 516 284 516Q327 516 363.5 507.5Q400 499 426 477V678H457V0H431L428 66ZM426 443Q402 468 366.5 478.5Q331 489 286 489Q242 489 206.5 476Q171 463 146 435Q121 407 107.5 362.5Q94 318 94 255Q94 132 136 76.5Q178 21 264 21Q312 21 351.5 40.5Q391 60 426 105Z" glyph-name="d" horiz-adv-x="550" unicode="d" /><glyph d="M227 -85H207L204 425L40 419V452L204 447L200 678H234L230 447L394 452V419L230 425Z" glyph-name="dagger" horiz-adv-x="434" unicode="&#8224;" /><glyph d="M205 218 68 216V246L205 241L204 425L40 419V452L204 447L200 678H234L230 447L394 452V419L230 425L229 241L366 246V216L229 218L227 -85H207Z" glyph-name="daggerdbl" horiz-adv-x="434" unicode="&#8225;" /><glyph d="M427 66Q392 28 350 11Q308 -6 261 -6Q161 -6 112 56.5Q63 119 63 255Q63 394 121.5 455Q180 516 284 516Q327 516 363.5 507.5Q400 499 426 477V678H457V0H431L428 66ZM426 443Q402 468 366.5 478.5Q331 489 286 489Q242 489 206.5 476Q171 463 146 435Q121 407 107.5 362.5Q94 318 94 255Q94 132 136 76.5Q178 21 264 21Q312 21 351.5 40.5Q391 60 426 105ZM597 693H636L581 538H558Z" glyph-name="dcaron" horiz-adv-x="639" unicode="&#271;" /><glyph d="M253 604H426V678H457V604H569V577H457V0H431L428 66H427Q392 28 350 11Q308 -6 261 -6Q161 -6 112 56.5Q63 119 63 255Q63 394 121.5 455Q180 516 284 516Q327 516 363.5 507.5Q400 499 426 477V577H253ZM426 443Q402 468 366.5 478.5Q331 489 286 489Q242 489 206.5 476Q171 463 146 435Q121 407 107.5 362.5Q94 318 94 255Q94 132 136 76.5Q178 21 264 21Q312 21 351.5 40.5Q391 60 426 105Z" glyph-name="dcroat" horiz-adv-x="550" unicode="&#273;" /><glyph d="M208 403Q236 403 259.5 410.5Q283 418 300 433Q317 448 326.5 471.5Q336 495 336 528Q336 594 300 623.5Q264 653 208 653Q153 653 117 623.5Q81 594 81 528Q81 463 117 433Q153 403 208 403ZM208 374Q174 374 145 383Q116 392 94.5 411Q73 430 61 459Q49 488 49 528Q49 568 61 596.5Q73 625 94.5 644Q116 663 145 672Q174 681 208 681Q242 681 271.5 672Q301 663 322.5 644Q344 625 356 596.5Q368 568 368 528Q368 488 356 459Q344 430 322.5 411Q301 392 271.5 383Q242 374 208 374Z" glyph-name="degree" horiz-adv-x="417" unicode="&#176;" /><glyph d="M252 607H217V671H252ZM387 607H352V671H387Z" glyph-name="dieresis" horiz-adv-x="600" unicode="&#168;" /><glyph d="M64 259V288H481V259ZM293 76H256V145H293ZM293 403H256V471H293Z" glyph-name="divide" horiz-adv-x="545" unicode="&#247;" /><glyph d="M302 44Q335 44 368.5 51Q402 58 430 75.5Q458 93 475.5 121.5Q493 150 493 194Q493 239 480 265.5Q467 292 445.5 306Q424 320 396.5 325Q369 330 339 333Q308 336 274.5 340.5Q241 345 213 360.5Q185 376 167 407.5Q149 439 149 495Q149 540 166.5 571.5Q184 603 213.5 623Q243 643 283 652Q323 661 368 660L402 795H432L397 657Q417 655 438.5 649.5Q460 644 479 636V605Q447 619 415 625Q383 631 352 631Q321 631 291 623Q261 615 237 598.5Q213 582 198.5 556.5Q184 531 184 495Q184 450 197 425.5Q210 401 232.5 389Q255 377 284.5 373Q314 369 346 365Q378 361 410.5 355.5Q443 350 469 333.5Q495 317 511.5 285Q528 253 528 196Q528 148 510 113.5Q492 79 460.5 56.5Q429 34 385.5 24Q342 14 292 15L259 -118H229L262 16Q208 22 159 44V76Q191 60 228 52Q265 44 302 44Z" glyph-name="dollar" horiz-adv-x="660" unicode="$" /><glyph d="M317 604H282V678H317Z" glyph-name="dotaccent" horiz-adv-x="600" unicode="&#729;" /><glyph d="M124 0H93V510H124Z" glyph-name="dotlessi" horiz-adv-x="217" unicode="&#305;" /><glyph d="M41 -168Q69 -130 83.5 -83Q98 -36 98 18V510H129V30Q129 -27 116.5 -76.5Q104 -126 75 -168Z" glyph-name="dotlessj" horiz-adv-x="223" unicode="&#567;" /><glyph d="M95 260Q95 187 108.5 140Q122 93 151 64Q174 41 208 31Q242 21 283 21Q318 21 352 25.5Q386 30 427 45V16Q396 4 356 -1Q316 -6 281 -6Q171 -6 117 54.5Q63 115 63 255Q63 325 77 375Q91 425 117 456Q143 487 181 501.5Q219 516 267 516Q366 516 407 462Q448 408 448 308Q448 304 447.5 290.5Q447 277 445 260ZM267 489Q231 489 202 479.5Q173 470 151 448Q128 425 114 385.5Q100 346 96 287H416Q417 297 417 301.5Q417 306 417 311Q417 359 407.5 394Q398 429 375 452Q338 489 267 489Z" glyph-name="e" horiz-adv-x="508" unicode="e" /><glyph d="M95 260Q95 187 108.5 140Q122 93 151 64Q174 41 208 31Q242 21 283 21Q318 21 352 25.5Q386 30 427 45V16Q396 4 356 -1Q316 -6 281 -6Q171 -6 117 54.5Q63 115 63 255Q63 325 77 375Q91 425 117 456Q143 487 181 501.5Q219 516 267 516Q366 516 407 462Q448 408 448 308Q448 304 447.5 290.5Q447 277 445 260ZM267 489Q231 489 202 479.5Q173 470 151 448Q128 425 114 385.5Q100 346 96 287H416Q417 297 417 301.5Q417 306 417 311Q417 359 407.5 394Q398 429 375 452Q338 489 267 489ZM263 569H230L338 678H385Z" glyph-name="eacute" horiz-adv-x="508" unicode="&#233;" /><glyph d="M95 260Q95 187 108.5 140Q122 93 151 64Q174 41 208 31Q242 21 283 21Q318 21 352 25.5Q386 30 427 45V16Q396 4 356 -1Q316 -6 281 -6Q171 -6 117 54.5Q63 115 63 255Q63 325 77 375Q91 425 117 456Q143 487 181 501.5Q219 516 267 516Q366 516 407 462Q448 408 448 308Q448 304 447.5 290.5Q447 277 445 260ZM267 489Q231 489 202 479.5Q173 470 151 448Q128 425 114 385.5Q100 346 96 287H416Q417 297 417 301.5Q417 306 417 311Q417 359 407.5 394Q398 429 375 452Q338 489 267 489ZM262 599Q308 599 341 617.5Q374 636 385 678H418Q407 622 364.5 597.5Q322 573 262 573Q202 573 159.5 597.5Q117 622 106 678H139Q150 636 183 617.5Q216 599 262 599Z" glyph-name="ebreve" horiz-adv-x="508" unicode="&#277;" /><glyph d="M95 260Q95 187 108.5 140Q122 93 151 64Q174 41 208 31Q242 21 283 21Q318 21 352 25.5Q386 30 427 45V16Q396 4 356 -1Q316 -6 281 -6Q171 -6 117 54.5Q63 115 63 255Q63 325 77 375Q91 425 117 456Q143 487 181 501.5Q219 516 267 516Q366 516 407 462Q448 408 448 308Q448 304 447.5 290.5Q447 277 445 260ZM267 489Q231 489 202 479.5Q173 470 151 448Q128 425 114 385.5Q100 346 96 287H416Q417 297 417 301.5Q417 306 417 311Q417 359 407.5 394Q398 429 375 452Q338 489 267 489ZM264 588 346 678H381L276 565H250L145 678H180Z" glyph-name="ecaron" horiz-adv-x="508" unicode="&#283;" /><glyph d="M95 260Q95 187 108.5 140Q122 93 151 64Q174 41 208 31Q242 21 283 21Q318 21 352 25.5Q386 30 427 45V16Q396 4 356 -1Q316 -6 281 -6Q171 -6 117 54.5Q63 115 63 255Q63 325 77 375Q91 425 117 456Q143 487 181 501.5Q219 516 267 516Q366 516 407 462Q448 408 448 308Q448 304 447.5 290.5Q447 277 445 260ZM267 489Q231 489 202 479.5Q173 470 151 448Q128 425 114 385.5Q100 346 96 287H416Q417 297 417 301.5Q417 306 417 311Q417 359 407.5 394Q398 429 375 452Q338 489 267 489ZM262 659 180 569H145L250 682H276L381 569H346Z" glyph-name="ecircumflex" horiz-adv-x="508" unicode="&#234;" /><glyph d="M95 260Q95 187 108.5 140Q122 93 151 64Q174 41 208 31Q242 21 283 21Q318 21 352 25.5Q386 30 427 45V16Q396 4 356 -1Q316 -6 281 -6Q171 -6 117 54.5Q63 115 63 255Q63 325 77 375Q91 425 117 456Q143 487 181 501.5Q219 516 267 516Q366 516 407 462Q448 408 448 308Q448 304 447.5 290.5Q447 277 445 260ZM267 489Q231 489 202 479.5Q173 470 151 448Q128 425 114 385.5Q100 346 96 287H416Q417 297 417 301.5Q417 306 417 311Q417 359 407.5 394Q398 429 375 452Q338 489 267 489ZM214 607H179V671H214ZM349 607H314V671H349Z" glyph-name="edieresis" horiz-adv-x="508" unicode="&#235;" /><glyph d="M95 260Q95 187 108.5 140Q122 93 151 64Q174 41 208 31Q242 21 283 21Q318 21 352 25.5Q386 30 427 45V16Q396 4 356 -1Q316 -6 281 -6Q171 -6 117 54.5Q63 115 63 255Q63 325 77 375Q91 425 117 456Q143 487 181 501.5Q219 516 267 516Q366 516 407 462Q448 408 448 308Q448 304 447.5 290.5Q447 277 445 260ZM267 489Q231 489 202 479.5Q173 470 151 448Q128 425 114 385.5Q100 346 96 287H416Q417 297 417 301.5Q417 306 417 311Q417 359 407.5 394Q398 429 375 452Q338 489 267 489ZM282 604H247V678H282Z" glyph-name="edotaccent" horiz-adv-x="508" unicode="&#279;" /><glyph d="M95 260Q95 187 108.5 140Q122 93 151 64Q174 41 208 31Q242 21 283 21Q318 21 352 25.5Q386 30 427 45V16Q396 4 356 -1Q316 -6 281 -6Q171 -6 117 54.5Q63 115 63 255Q63 325 77 375Q91 425 117 456Q143 487 181 501.5Q219 516 267 516Q366 516 407 462Q448 408 448 308Q448 304 447.5 290.5Q447 277 445 260ZM267 489Q231 489 202 479.5Q173 470 151 448Q128 425 114 385.5Q100 346 96 287H416Q417 297 417 301.5Q417 306 417 311Q417 359 407.5 394Q398 429 375 452Q338 489 267 489ZM147 678H194L301 569H269Z" glyph-name="egrave" horiz-adv-x="508" unicode="&#232;" /><glyph d="M287 -7Q226 -7 184 9Q142 25 115.5 50.5Q89 76 77.5 108.5Q66 141 66 174Q66 246 101 288Q136 330 190 346V347Q166 356 146 370Q126 384 111.5 404Q97 424 88.5 451.5Q80 479 80 515Q80 547 90 577.5Q100 608 124 632Q148 656 187.5 670.5Q227 685 287 685Q347 685 386.5 670.5Q426 656 450 632Q474 608 484 577.5Q494 547 494 515Q494 479 485.5 451.5Q477 424 462.5 404Q448 384 428 370Q408 356 384 347V346Q438 330 473 288Q508 246 508 174Q508 141 496 108.5Q484 76 458 50.5Q432 25 390 9Q348 -7 287 -7ZM287 22Q338 22 374 35.5Q410 49 432.5 70.5Q455 92 465 119Q475 146 475 174Q475 244 438 281Q387 332 287 332Q187 332 136 281Q99 244 99 174Q99 146 109 119Q119 92 141.5 70.5Q164 49 200 35.5Q236 22 287 22ZM287 360Q329 360 364 370Q399 380 420 401Q440 421 450.5 448Q461 475 461 513Q461 540 453.5 565.5Q446 591 426.5 611Q407 631 373 643.5Q339 656 287 656Q235 656 201 643.5Q167 631 147.5 611Q128 591 120.5 565.5Q113 540 113 513Q113 475 123.5 448Q134 421 154 401Q175 380 210 370Q245 360 287 360Z" glyph-name="eight" horiz-adv-x="589" unicode="8" /><glyph d="M129 0H91V74H129ZM553 0H515V74H553ZM976 0H939V74H976Z" glyph-name="ellipsis" horiz-adv-x="1067" unicode="&#8230;" /><glyph d="M95 260Q95 187 108.5 140Q122 93 151 64Q174 41 208 31Q242 21 283 21Q318 21 352 25.5Q386 30 427 45V16Q396 4 356 -1Q316 -6 281 -6Q171 -6 117 54.5Q63 115 63 255Q63 325 77 375Q91 425 117 456Q143 487 181 501.5Q219 516 267 516Q366 516 407 462Q448 408 448 308Q448 304 447.5 290.5Q447 277 445 260ZM267 489Q231 489 202 479.5Q173 470 151 448Q128 425 114 385.5Q100 346 96 287H416Q417 297 417 301.5Q417 306 417 311Q417 359 407.5 394Q398 429 375 452Q338 489 267 489ZM412 619H110V647H412Z" glyph-name="emacron" horiz-adv-x="508" unicode="&#275;" /><glyph d="M1062 258H64V288H1062Z" glyph-name="emdash" horiz-adv-x="1126" unicode="&#8212;" /><glyph d="M525 258H64V288H525Z" glyph-name="endash" horiz-adv-x="589" unicode="&#8211;" /><glyph d="M382 -168Q410 -130 424.5 -83Q439 -36 439 18V352Q439 388 433.5 414Q428 440 414 456.5Q400 473 376.5 481Q353 489 317 489Q260 489 210.5 466Q161 443 124 395V0H93V510H119L122 433H123Q165 478 214 497Q263 516 320 516Q366 516 395.5 505.5Q425 495 441.5 474.5Q458 454 464 424.5Q470 395 470 357V30Q470 -27 457.5 -76.5Q445 -126 416 -168Z" glyph-name="eng" horiz-adv-x="554" unicode="&#331;" /><glyph d="M95 260Q95 187 108.5 140Q122 93 151 64Q174 41 208 31Q242 21 283 21Q318 21 352 25.5Q386 30 427 45V16Q397 1 377.5 -13Q358 -27 347 -40.5Q336 -54 332 -65.5Q328 -77 328 -86Q328 -106 342.5 -123Q357 -140 395 -140Q408 -140 421 -138.5Q434 -137 450 -132V-157Q437 -162 420.5 -164Q404 -166 390 -166Q338 -166 318 -143Q298 -120 298 -88Q298 -68 312 -44.5Q326 -21 355 -1Q336 -3 317 -4.5Q298 -6 281 -6Q171 -6 117 54.5Q63 115 63 255Q63 325 77 375Q91 425 117 456Q143 487 181 501.5Q219 516 267 516Q366 516 407 462Q448 408 448 308Q448 304 447.5 290.5Q447 277 445 260ZM267 489Q231 489 202 479.5Q173 470 151 448Q128 425 114 385.5Q100 346 96 287H416Q417 297 417 301.5Q417 306 417 311Q417 359 407.5 394Q398 429 375 452Q338 489 267 489Z" glyph-name="eogonek" horiz-adv-x="508" unicode="&#281;" /><glyph d="M511 352H64V381H511ZM511 170H64V199H511Z" glyph-name="equal" horiz-adv-x="575" unicode="=" /><glyph d="M424 465Q404 512 372.5 550.5Q341 589 301 618L161 556L151 578L277 634Q260 645 241 656Q222 667 202 676L230 692Q270 674 306 648L428 702L438 679L331 630Q493 498 493 253Q493 181 478.5 131.5Q464 82 436 51.5Q408 21 368 7Q328 -7 277 -7Q227 -7 187 7Q147 21 119.5 52Q92 83 77.5 133Q63 183 63 255Q63 327 78 376.5Q93 426 120.5 457Q148 488 187.5 502Q227 516 276 516Q324 516 360.5 505Q397 494 423 465ZM95 255Q95 187 109.5 139Q124 91 146 69Q173 42 205 31.5Q237 21 279 21Q321 21 353 31.5Q385 42 412 69Q434 91 448.5 139Q463 187 463 255Q463 323 448.5 371Q434 419 412 441Q385 468 353 478.5Q321 489 279 489Q237 489 205 478.5Q173 468 146 441Q124 419 109.5 371Q95 323 95 255Z" glyph-name="eth" horiz-adv-x="556" unicode="&#240;" /><glyph d="M128 0H91V74H128ZM123 194H97L92 678H128Z" glyph-name="exclam" horiz-adv-x="219" unicode="!" /><glyph d="M128 436H91V510H128ZM128 -168H92L97 316H123Z" glyph-name="exclamdown" horiz-adv-x="219" unicode="&#161;" /><glyph d="M160 0H129V483H33V503L129 510V535Q129 574 134 602Q139 630 153.5 648.5Q168 667 194.5 675.5Q221 684 265 684Q272 684 283.5 683.5Q295 683 308 682Q321 681 334.5 678.5Q348 676 359 673V645Q336 652 309.5 654.5Q283 657 266 657Q229 657 207.5 649.5Q186 642 175.5 627Q165 612 162.5 589Q160 566 160 535V510H348V483H160Z" glyph-name="f" horiz-adv-x="349" unicode="f" /><glyph d="M160 0H129V483H33V503L129 510V535Q129 574 133.5 602Q138 630 151.5 648.5Q165 667 189 675.5Q213 684 252 684Q258 684 268.5 683.5Q279 683 291 682Q303 681 315.5 678.5Q328 676 338 673V645Q317 652 292.5 654.5Q268 657 253 657Q222 657 203.5 649.5Q185 642 175.5 627Q166 612 163 589Q160 566 160 535V510H338V483H160ZM482 0H451V510H482ZM484 604H449V678H484Z" glyph-name="fi" horiz-adv-x="575" unicode="&#64257;" /><glyph d="M471 198Q471 141 453.5 102.5Q436 64 405.5 40.5Q375 17 335 6.5Q295 -4 250 -4Q237 -4 217.5 -2.5Q198 -1 176 2Q154 5 131.5 10.5Q109 16 90 25V57Q128 40 170.5 32.5Q213 25 250 25Q288 25 322.5 33.5Q357 42 382.5 62Q408 82 423 115Q438 148 438 197Q438 247 421 278Q404 309 376 326Q348 343 311.5 349Q275 355 236 355Q210 355 175 353.5Q140 352 104 350V680H437V651H137V382Q195 385 236 385Q287 385 330 376Q373 367 404.5 345.5Q436 324 453.5 288Q471 252 471 198Z" glyph-name="five" horiz-adv-x="530" unicode="5" /><glyph d="M160 0H129V483H33V503L129 510V535Q129 574 133.5 602Q138 630 151.5 648.5Q165 667 189 675.5Q213 684 252 684Q258 684 268.5 683.5Q279 683 291 682Q303 681 315.5 678.5Q328 676 338 673V645Q317 652 292.5 654.5Q268 657 253 657Q222 657 203.5 649.5Q185 642 175.5 627Q166 612 163 589Q160 566 160 535V510H338V483H160ZM482 0H451V678H482Z" glyph-name="fl" horiz-adv-x="575" unicode="&#64258;" /><glyph d="M208 361H282L293 480Q297 517 304 553.5Q311 590 326.5 619Q342 648 369 666.5Q396 685 440 685Q475 685 498 679Q521 673 544 662V631Q521 644 499 650.5Q477 657 442 657Q409 657 388 642Q367 627 354.5 602.5Q342 578 335.5 545.5Q329 513 326 477L316 361H491V331H314L287 40Q284 3 277 -27Q270 -57 254.5 -78.5Q239 -100 212 -112Q185 -124 142 -124Q131 -124 121 -123.5Q111 -123 102 -122V-93Q120 -96 141 -96Q174 -96 194.5 -88Q215 -80 227 -63.5Q239 -47 244.5 -21Q250 5 253 40L280 331H208Z" glyph-name="florin" horiz-adv-x="660" unicode="&#402;" /><glyph d="M404 0H371V181H26L22 211L279 678H314L59 210H371L374 458H404V210H508V181H404Z" glyph-name="four" horiz-adv-x="527" unicode="4" /><glyph d="M-147 0H-180L299 678H332Z" glyph-name="fraction" horiz-adv-x="155" unicode="&#8260;" /><glyph d="M447 15Q447 -48 427 -85.5Q407 -123 376.5 -143Q346 -163 309.5 -169Q273 -175 240 -175Q200 -175 161.5 -169.5Q123 -164 91 -153V-124Q122 -134 159 -140.5Q196 -147 238 -147Q268 -147 299.5 -141.5Q331 -136 357 -119Q383 -102 399.5 -71Q416 -40 416 11V112H415Q383 72 343 52Q303 32 258 32Q161 32 112 89.5Q63 147 63 274Q63 403 121 459.5Q179 516 281 516Q322 516 356.5 507Q391 498 418 475H419L422 510H447ZM416 443Q393 467 359.5 478Q326 489 283 489Q195 489 144.5 439.5Q94 390 94 274Q94 161 135.5 110Q177 59 260 59Q350 59 416 152Z" glyph-name="g" horiz-adv-x="540" unicode="g" /><glyph d="M447 15Q447 -48 427 -85.5Q407 -123 376.5 -143Q346 -163 309.5 -169Q273 -175 240 -175Q200 -175 161.5 -169.5Q123 -164 91 -153V-124Q122 -134 159 -140.5Q196 -147 238 -147Q268 -147 299.5 -141.5Q331 -136 357 -119Q383 -102 399.5 -71Q416 -40 416 11V112H415Q383 72 343 52Q303 32 258 32Q161 32 112 89.5Q63 147 63 274Q63 403 121 459.5Q179 516 281 516Q322 516 356.5 507Q391 498 418 475H419L422 510H447ZM416 443Q393 467 359.5 478Q326 489 283 489Q195 489 144.5 439.5Q94 390 94 274Q94 161 135.5 110Q177 59 260 59Q350 59 416 152ZM268 599Q314 599 347 617.5Q380 636 391 678H424Q413 622 370.5 597.5Q328 573 268 573Q208 573 165.5 597.5Q123 622 112 678H145Q156 636 189 617.5Q222 599 268 599Z" glyph-name="gbreve" horiz-adv-x="540" unicode="&#287;" /><glyph d="M447 15Q447 -48 427 -85.5Q407 -123 376.5 -143Q346 -163 309.5 -169Q273 -175 240 -175Q200 -175 161.5 -169.5Q123 -164 91 -153V-124Q122 -134 159 -140.5Q196 -147 238 -147Q268 -147 299.5 -141.5Q331 -136 357 -119Q383 -102 399.5 -71Q416 -40 416 11V112H415Q383 72 343 52Q303 32 258 32Q161 32 112 89.5Q63 147 63 274Q63 403 121 459.5Q179 516 281 516Q322 516 356.5 507Q391 498 418 475H419L422 510H447ZM416 443Q393 467 359.5 478Q326 489 283 489Q195 489 144.5 439.5Q94 390 94 274Q94 161 135.5 110Q177 59 260 59Q350 59 416 152ZM274 659 192 569H157L262 682H288L393 569H358Z" glyph-name="gcircumflex" horiz-adv-x="540" unicode="&#285;" /><glyph d="M447 15Q447 -48 427 -85.5Q407 -123 376.5 -143Q346 -163 309.5 -169Q273 -175 240 -175Q200 -175 161.5 -169.5Q123 -164 91 -153V-124Q122 -134 159 -140.5Q196 -147 238 -147Q268 -147 299.5 -141.5Q331 -136 357 -119Q383 -102 399.5 -71Q416 -40 416 11V112H415Q383 72 343 52Q303 32 258 32Q161 32 112 89.5Q63 147 63 274Q63 403 121 459.5Q179 516 281 516Q322 516 356.5 507Q391 498 418 475H419L422 510H447ZM416 443Q393 467 359.5 478Q326 489 283 489Q195 489 144.5 439.5Q94 390 94 274Q94 161 135.5 110Q177 59 260 59Q350 59 416 152ZM307 706H346L291 551H268Z" glyph-name="gcommaaccent" horiz-adv-x="540" unicode="&#291;" /><glyph d="M447 15Q447 -48 427 -85.5Q407 -123 376.5 -143Q346 -163 309.5 -169Q273 -175 240 -175Q200 -175 161.5 -169.5Q123 -164 91 -153V-124Q122 -134 159 -140.5Q196 -147 238 -147Q268 -147 299.5 -141.5Q331 -136 357 -119Q383 -102 399.5 -71Q416 -40 416 11V112H415Q383 72 343 52Q303 32 258 32Q161 32 112 89.5Q63 147 63 274Q63 403 121 459.5Q179 516 281 516Q322 516 356.5 507Q391 498 418 475H419L422 510H447ZM416 443Q393 467 359.5 478Q326 489 283 489Q195 489 144.5 439.5Q94 390 94 274Q94 161 135.5 110Q177 59 260 59Q350 59 416 152ZM290 604H255V678H290Z" glyph-name="gdotaccent" horiz-adv-x="540" unicode="&#289;" /><glyph d="M317 348Q317 322 326 308Q335 294 350 287Q365 280 385 278.5Q405 277 428 276Q461 274 489.5 268.5Q518 263 540 248.5Q562 234 574.5 208.5Q587 183 587 141Q587 98 568.5 69.5Q550 41 521.5 24.5Q493 8 459 1Q425 -6 394 -6Q357 -6 316.5 -0.5Q276 5 245 16V45Q277 34 316.5 28Q356 22 394 22Q421 22 449.5 27.5Q478 33 501.5 46.5Q525 60 540 82.5Q555 105 555 140Q555 173 544.5 192.5Q534 212 517 223.5Q500 235 477 239Q454 243 429 245Q404 246 378.5 249Q353 252 332 261.5Q311 271 298 291.5Q285 312 285 348Q285 369 294 387.5Q303 406 317 420Q341 444 370 458.5Q399 473 421 495Q432 506 438 519.5Q444 533 444 552Q444 596 411.5 626.5Q379 657 305 657Q221 657 172.5 614Q124 571 124 475V0H93V472Q93 529 108 569.5Q123 610 150.5 635.5Q178 661 217 673Q256 685 304 685Q351 685 383.5 674.5Q416 664 436.5 645.5Q457 627 466 602.5Q475 578 475 551Q475 525 466 507Q457 489 443 475Q420 452 391 438Q362 424 339 401Q329 391 323 377.5Q317 364 317 348Z" glyph-name="germandbls" horiz-adv-x="627" unicode="&#223;" /><glyph d="M197 678H244L351 569H319Z" glyph-name="grave" horiz-adv-x="600" unicode="`" /><glyph d="M560 274Q547 280 529 288.5Q511 297 492 306.5Q473 316 455.5 324.5Q438 333 426 339L69 521V557L595 288V259L69 -10V26L426 208Q438 214 455.5 222.5Q473 231 492 240.5Q511 250 529 258.5Q547 267 560 273Z" glyph-name="greater" horiz-adv-x="646" unicode="&gt;" /><glyph d="M455 337Q430 348 397.5 363Q365 378 333 393L69 518V551L495 350V323L69 122V155L333 280Q365 295 397.5 310Q430 325 455 336ZM69 0V29H495V0Z" glyph-name="greaterequal" horiz-adv-x="546" unicode="&#8805;" /><glyph d="M355 51 198 282 354 510H393L237 282L394 51ZM227 51 70 282 226 510H265L109 282L266 51Z" glyph-name="guillemotleft" horiz-adv-x="464" unicode="&#171;" /><glyph d="M70 51 226 282 70 510H110L266 282L109 51ZM198 51 354 282 198 510H238L394 282L237 51Z" glyph-name="guillemotright" horiz-adv-x="464" unicode="&#187;" /><glyph d="M227 51 70 282 226 510H265L109 282L266 51Z" glyph-name="guilsinglleft" horiz-adv-x="336" unicode="&#8249;" /><glyph d="M70 51 226 282 70 510H110L266 282L109 51Z" glyph-name="guilsinglright" horiz-adv-x="336" unicode="&#8250;" /><glyph d="M125 435Q167 479 215 497.5Q263 516 320 516Q366 516 395.5 505.5Q425 495 441.5 474.5Q458 454 464 424.5Q470 395 470 357V0H439V352Q439 388 433.5 414Q428 440 414 456.5Q400 473 376.5 481Q353 489 317 489Q260 489 210.5 466Q161 443 124 395V0H93V678H124V435H125Z" glyph-name="h" horiz-adv-x="554" unicode="h" /><glyph d="M-22 604H93V678H124V604H294V577H124V435H125Q167 479 215 497.5Q263 516 320 516Q366 516 395.5 505.5Q425 495 441.5 474.5Q458 454 464 424.5Q470 395 470 357V0H439V352Q439 388 433.5 414Q428 440 414 456.5Q400 473 376.5 481Q353 489 317 489Q260 489 210.5 466Q161 443 124 395V0H93V577H-22Z" glyph-name="hbar" horiz-adv-x="554" unicode="&#295;" /><glyph d="M125 435Q167 479 215 497.5Q263 516 320 516Q366 516 395.5 505.5Q425 495 441.5 474.5Q458 454 464 424.5Q470 395 470 357V0H439V352Q439 388 433.5 414Q428 440 414 456.5Q400 473 376.5 481Q353 489 317 489Q260 489 210.5 466Q161 443 124 395V0H93V678H124V435ZM108 828 26 738H-9L96 851H122L227 738H192Z" glyph-name="hcircumflex" horiz-adv-x="554" unicode="&#293;" /><glyph d="M236 569H206L313 678H358ZM323 569H292L399 678H444Z" glyph-name="hungarumlaut" horiz-adv-x="600" unicode="&#733;" /><glyph d="M320 258H40V288H320Z" glyph-name="hyphen" horiz-adv-x="360" unicode="-" /><glyph d="M124 0H93V510H124ZM126 604H91V678H126Z" glyph-name="i" horiz-adv-x="217" unicode="i" /><glyph d="M128 569H95L203 678H250ZM126 0H95V510H126Z" glyph-name="iacute" horiz-adv-x="217" unicode="&#237;" /><glyph d="M109 599Q155 599 188 617.5Q221 636 232 678H265Q254 622 211.5 597.5Q169 573 109 573Q49 573 6.5 597.5Q-36 622 -47 678H-14Q-3 636 30 617.5Q63 599 109 599ZM124 0H93V510H124Z" glyph-name="ibreve" horiz-adv-x="217" unicode="&#301;" /><glyph d="M124 0H93V510H124ZM108 659 26 569H-9L96 682H122L227 569H192Z" glyph-name="icircumflex" horiz-adv-x="217" unicode="&#238;" /><glyph d="M58 607H23V671H58ZM193 607H158V671H193ZM124 0H93V510H124Z" glyph-name="idieresis" horiz-adv-x="217" unicode="&#239;" /><glyph d="M121 0H90V510H121ZM-33 678H14L121 569H89Z" glyph-name="igrave" horiz-adv-x="217" unicode="&#236;" /><glyph d="M124 0H93V510H124ZM126 604H91V678H126ZM259 -168Q287 -130 301.5 -83Q316 -36 316 18V510H347V30Q347 -27 334.5 -76.5Q322 -126 293 -168ZM349 604H315V678H349Z" glyph-name="ij" horiz-adv-x="440" unicode="&#307;" /><glyph d="M260 619H-42V647H260ZM124 0H93V510H124Z" glyph-name="imacron" horiz-adv-x="217" unicode="&#299;" /><glyph d="M376 322Q359 303 340 285Q321 267 300 253.5Q279 240 256.5 232Q234 224 210 224Q185 224 160.5 231Q136 238 117 253Q98 268 86.5 290.5Q75 313 75 344Q75 375 86.5 397.5Q98 420 117 435Q136 450 160.5 457Q185 464 210 464Q234 464 256.5 456Q279 448 300 434.5Q321 421 340 403Q359 385 376 366Q393 385 412 403Q431 421 452 434.5Q473 448 495.5 456Q518 464 542 464Q567 464 591.5 457Q616 450 635 435Q654 420 665.5 397.5Q677 375 677 344Q677 313 665.5 290.5Q654 268 635 253Q616 238 591.5 231Q567 224 542 224Q518 224 495.5 232Q473 240 452 253.5Q431 267 412 285Q393 303 376 322ZM395 344Q410 326 427 309Q444 292 463.5 279.5Q483 267 503 259Q523 251 544 251Q563 251 581.5 256.5Q600 262 614.5 273Q629 284 637.5 302Q646 320 646 344Q646 368 637.5 386Q629 404 614.5 415Q600 426 581.5 431.5Q563 437 544 437Q523 437 503 429Q483 421 463.5 408.5Q444 396 427 379Q410 362 395 344ZM357 344Q342 362 325 379Q308 396 288.5 408.5Q269 421 249 429Q229 437 208 437Q188 437 170 431.5Q152 426 137.5 415Q123 404 114.5 386Q106 368 106 344Q106 320 114.5 302Q123 284 137.5 273Q152 262 170 256.5Q188 251 208 251Q229 251 249 259Q269 267 288.5 279.5Q308 292 325 309Q342 326 357 344Z" glyph-name="infinity" horiz-adv-x="752" unicode="&#8734;" /><glyph d="M143 542Q143 623 171.5 653.5Q200 684 259 684Q273 684 286.5 682.5Q300 681 319 676V646Q304 651 289 653Q274 655 263 655Q234 655 217 647Q200 639 191 624Q182 609 179 587Q176 565 176 537V-29Q176 -109 147 -140Q118 -171 60 -171Q46 -171 32 -169Q18 -167 0 -162V-132Q14 -137 29.5 -139.5Q45 -142 56 -142Q84 -142 101.5 -134Q119 -126 128 -110.5Q137 -95 140 -73Q143 -51 143 -23Z" glyph-name="integral" horiz-adv-x="342" unicode="&#8747;" /><glyph d="M129 0Q94 -20 79.5 -44Q65 -68 65 -87Q65 -97 68 -106.5Q71 -116 78.5 -123.5Q86 -131 99 -135.5Q112 -140 132 -140Q145 -140 158 -138.5Q171 -137 186 -132V-157Q174 -162 157 -164Q140 -166 126 -166Q74 -166 54.5 -143.5Q35 -121 35 -89Q35 -63 52.5 -37Q70 -11 98 6V510H129ZM131 604H96V678H131Z" glyph-name="iogonek" horiz-adv-x="217" unicode="&#303;" /><glyph d="M180 613Q160 613 142.5 618Q125 623 107.5 629Q90 635 73 640Q56 645 37 645Q17 645 -3.5 635.5Q-24 626 -43 613V643Q-28 654 -5.5 663.5Q17 673 37 673Q56 673 74 668Q92 663 109 657Q126 651 143.5 646Q161 641 180 641Q200 641 220.5 650.5Q241 660 259 673V643Q245 632 222 622.5Q199 613 180 613ZM124 0H93V510H124Z" glyph-name="itilde" horiz-adv-x="217" unicode="&#297;" /><glyph d="M41 -168Q69 -130 83.5 -83Q98 -36 98 18V510H129V30Q129 -27 116.5 -76.5Q104 -126 75 -168ZM131 604H97V678H131Z" glyph-name="j" horiz-adv-x="223" unicode="j" /><glyph d="M39 -168Q67 -130 81.5 -83Q96 -36 96 18V510H127V30Q127 -27 114.5 -76.5Q102 -126 73 -168ZM112 659 30 569H-5L100 682H126L231 569H196Z" glyph-name="jcircumflex" horiz-adv-x="223" unicode="&#309;" /><glyph d="M446 0H407L224 260H124V0H93V678H124V287H226L384 510H421L253 273Z" glyph-name="k" horiz-adv-x="468" unicode="k" /><glyph d="M446 0H407L224 260H124V0H93V678H124V287H226L384 510H421L253 273ZM243 -78H281L227 -233H204Z" glyph-name="kcommaaccent" horiz-adv-x="468" unicode="&#311;" /><glyph d="M124 510V287H225L384 510H421L252 273L445 0H407L224 260H124V0H93V510Z" glyph-name="kgreenlandic" horiz-adv-x="468" unicode="&#312;" /><glyph d="M124 0H93V678H124Z" glyph-name="l" horiz-adv-x="217" unicode="l" /><glyph d="M125 0H94V678H125ZM126 737H93L201 846H248Z" glyph-name="lacute" horiz-adv-x="217" unicode="&#314;" /><glyph d="M124 0H93V678H124ZM265 678H303L249 523H226Z" glyph-name="lcaron" horiz-adv-x="306" unicode="&#318;" /><glyph d="M127 0H96V678H127ZM93 -78H131L77 -233H54Z" glyph-name="lcommaaccent" horiz-adv-x="217" unicode="&#316;" /><glyph d="M124 0H93V678H124ZM288 312H254V376H288Z" glyph-name="ldot" horiz-adv-x="329" unicode="&#320;" /><glyph d="M86 273Q99 267 117 258.5Q135 250 154 240.5Q173 231 190.5 222.5Q208 214 220 208L577 26V-10L51 259V288L577 557V521L220 339Q208 333 190.5 324.5Q173 316 154 306.5Q135 297 117 288.5Q99 280 86 274V273Z" glyph-name="less" horiz-adv-x="646" unicode="&lt;" /><glyph d="M91 336Q116 325 148.5 310Q181 295 213 280L477 155V122L51 323V350L477 551V518L213 393Q181 378 148.5 363Q116 348 91 337ZM51 0V29H477V0Z" glyph-name="lessequal" horiz-adv-x="546" unicode="&#8804;" /><glyph d="M451 558V273H418V529H48V558Z" glyph-name="logicalnot" horiz-adv-x="515" unicode="&#172;" /><glyph d="M61 338 263 683H290L492 338L290 -7H263ZM97 338 276 31H277L456 338L277 645H276Z" glyph-name="lozenge" horiz-adv-x="553" unicode="&#9674;" /><glyph d="M120 324 242 402V371L120 293V0H89V273L-22 203V233L89 304V678H120Z" glyph-name="lslash" horiz-adv-x="220" unicode="&#322;" /><glyph d="M768 0H737V352Q737 424 713.5 456Q690 488 624 488Q572 488 525.5 465Q479 442 444 392Q445 384 445.5 368Q446 352 446 342V0H415V352Q415 388 410 413.5Q405 439 392 455.5Q379 472 357 480Q335 488 302 488Q250 488 204.5 465.5Q159 443 124 395V0H93V510H119L122 432H123Q162 476 206.5 496Q251 516 305 516Q369 516 399 493Q429 470 439 427H440Q482 475 527.5 495.5Q573 516 627 516Q670 516 697.5 505Q725 494 741 473.5Q757 453 762.5 423.5Q768 394 768 356Z" glyph-name="m" horiz-adv-x="852" unicode="m" /><glyph d="M451 619H149V647H451Z" glyph-name="macron" horiz-adv-x="600" unicode="&#175;" /><glyph d="M294 294 485 485 507 464 315 272 508 80 487 59 294 251 101 59 80 80 272 272 81 465 102 485Z" glyph-name="multiply" horiz-adv-x="588" unicode="&#215;" /><glyph d="M123 433Q165 478 214 497Q263 516 320 516Q366 516 395.5 505.5Q425 495 441.5 474.5Q458 454 464 424.5Q470 395 470 357V0H439V352Q439 388 433.5 414Q428 440 414 456.5Q400 473 376.5 481Q353 489 317 489Q260 489 210.5 466Q161 443 124 395V0H93V510H119L122 433H123Z" glyph-name="n" horiz-adv-x="554" unicode="n" /><glyph d="M123 433Q165 478 214 497Q263 516 320 516Q366 516 395.5 505.5Q425 495 441.5 474.5Q458 454 464 424.5Q470 395 470 357V0H439V352Q439 388 433.5 414Q428 440 414 456.5Q400 473 376.5 481Q353 489 317 489Q260 489 210.5 466Q161 443 124 395V0H93V510H119L122 433ZM298 569H265L373 678H420Z" glyph-name="nacute" horiz-adv-x="554" unicode="&#324;" /><glyph d="M123 433Q165 478 214 497Q263 516 320 516Q366 516 395.5 505.5Q425 495 441.5 474.5Q458 454 464 424.5Q470 395 470 357V0H439V352Q439 388 433.5 414Q428 440 414 456.5Q400 473 376.5 481Q353 489 317 489Q260 489 210.5 466Q161 443 124 395V0H93V510H119L122 433ZM283 588 365 678H400L295 565H269L164 678H199Z" glyph-name="ncaron" horiz-adv-x="554" unicode="&#328;" /><glyph d="M123 433Q165 478 214 497Q263 516 320 516Q366 516 395.5 505.5Q425 495 441.5 474.5Q458 454 464 424.5Q470 395 470 357V0H439V352Q439 388 433.5 414Q428 440 414 456.5Q400 473 376.5 481Q353 489 317 489Q260 489 210.5 466Q161 443 124 395V0H93V510H119L122 433ZM275 -78H313L259 -233H236Z" glyph-name="ncommaaccent" horiz-adv-x="554" unicode="&#326;" /><glyph d="M465 362Q447 339 423 322Q399 305 373 293.5Q347 282 321 276Q295 270 273 270Q214 270 174 287.5Q134 305 109.5 333Q85 361 74.5 396.5Q64 432 64 468Q64 508 75 547Q86 586 111 617Q136 648 176.5 667Q217 686 276 686Q333 686 375 663Q417 640 444.5 597Q472 554 485.5 492Q499 430 499 353Q499 288 489 224Q479 160 450.5 109Q422 58 371 26Q320 -6 239 -6Q209 -6 172.5 -2Q136 2 106 16V48Q138 34 173 28.5Q208 23 239 23Q311 23 356 52.5Q401 82 425.5 130Q450 178 458 239Q466 300 466 362ZM274 300Q320 300 371 324Q422 348 464 404Q457 523 412 590Q367 657 275 657Q225 657 191 641Q157 625 136 598.5Q115 572 106 538Q97 504 97 469Q97 437 106 407Q115 377 135.5 353Q156 329 190 314.5Q224 300 274 300Z" glyph-name="nine" horiz-adv-x="575" unicode="9" /><glyph glyph-name="nonbreakingspace" horiz-adv-x="235" unicode="&#160;" /><glyph glyph-name="nonmarkingreturn" horiz-adv-x="235" /><glyph d="M169 -36 240 170H64V199H250L303 352H64V381H313L373 551H404L345 381H511V352H334L280 199H511V170H270L198 -36Z" glyph-name="notequal" horiz-adv-x="575" unicode="&#8800;" /><glyph d="M123 433Q165 478 214 497Q263 516 320 516Q366 516 395.5 505.5Q425 495 441.5 474.5Q458 454 464 424.5Q470 395 470 357V0H439V352Q439 388 433.5 414Q428 440 414 456.5Q400 473 376.5 481Q353 489 317 489Q260 489 210.5 466Q161 443 124 395V0H93V510H119L122 433ZM356 613Q336 613 318.5 618Q301 623 283.5 629Q266 635 249 640Q232 645 213 645Q193 645 172.5 635.5Q152 626 133 613V643Q148 654 170.5 663.5Q193 673 213 673Q232 673 250 668Q268 663 285 657Q302 651 319.5 646Q337 641 356 641Q376 641 396.5 650.5Q417 660 435 673V643Q421 632 398 622.5Q375 613 356 613Z" glyph-name="ntilde" horiz-adv-x="554" unicode="&#241;" /><glyph d="M342 677 293 481H439L488 677H520L471 481H608L602 454H464L405 217H543L537 190H398L351 0H320L367 190H220L173 0H142L189 190H52L58 217H195L254 454H117L123 481H261L310 677ZM227 217H373L432 454H286Z" glyph-name="numbersign" horiz-adv-x="660" unicode="#" /><glyph d="M493 255Q493 184 479 134.5Q465 85 437.5 53.5Q410 22 370 7.5Q330 -7 278 -7Q226 -7 186 7.5Q146 22 118.5 53.5Q91 85 77 134.5Q63 184 63 255Q63 326 77 375.5Q91 425 118.5 456.5Q146 488 186 502.5Q226 517 278 517Q330 517 370 502.5Q410 488 437.5 456.5Q465 425 479 375.5Q493 326 493 255ZM94 255Q94 187 108.5 139Q123 91 145 69Q172 42 204 31.5Q236 21 278 21Q320 21 352 31.5Q384 42 411 69Q433 91 447.5 139Q462 187 462 255Q462 323 447.5 371Q433 419 411 441Q384 468 352 478.5Q320 489 278 489Q236 489 204 478.5Q172 468 145 441Q123 419 108.5 371Q94 323 94 255Z" glyph-name="o" horiz-adv-x="556" unicode="o" /><glyph d="M493 255Q493 184 479 134.5Q465 85 437.5 53.5Q410 22 370 7.5Q330 -7 278 -7Q226 -7 186 7.5Q146 22 118.5 53.5Q91 85 77 134.5Q63 184 63 255Q63 326 77 375.5Q91 425 118.5 456.5Q146 488 186 502.5Q226 517 278 517Q330 517 370 502.5Q410 488 437.5 456.5Q465 425 479 375.5Q493 326 493 255ZM94 255Q94 187 108.5 139Q123 91 145 69Q172 42 204 31.5Q236 21 278 21Q320 21 352 31.5Q384 42 411 69Q433 91 447.5 139Q462 187 462 255Q462 323 447.5 371Q433 419 411 441Q384 468 352 478.5Q320 489 278 489Q236 489 204 478.5Q172 468 145 441Q123 419 108.5 371Q94 323 94 255ZM291 569H258L366 678H413Z" glyph-name="oacute" horiz-adv-x="556" unicode="&#243;" /><glyph d="M493 255Q493 184 479 134.5Q465 85 437.5 53.5Q410 22 370 7.5Q330 -7 278 -7Q226 -7 186 7.5Q146 22 118.5 53.5Q91 85 77 134.5Q63 184 63 255Q63 326 77 375.5Q91 425 118.5 456.5Q146 488 186 502.5Q226 517 278 517Q330 517 370 502.5Q410 488 437.5 456.5Q465 425 479 375.5Q493 326 493 255ZM94 255Q94 187 108.5 139Q123 91 145 69Q172 42 204 31.5Q236 21 278 21Q320 21 352 31.5Q384 42 411 69Q433 91 447.5 139Q462 187 462 255Q462 323 447.5 371Q433 419 411 441Q384 468 352 478.5Q320 489 278 489Q236 489 204 478.5Q172 468 145 441Q123 419 108.5 371Q94 323 94 255ZM278 599Q324 599 357 617.5Q390 636 401 678H434Q423 622 380.5 597.5Q338 573 278 573Q218 573 175.5 597.5Q133 622 122 678H155Q166 636 199 617.5Q232 599 278 599Z" glyph-name="obreve" horiz-adv-x="556" unicode="&#335;" /><glyph d="M493 255Q493 184 479 134.5Q465 85 437.5 53.5Q410 22 370 7.5Q330 -7 278 -7Q226 -7 186 7.5Q146 22 118.5 53.5Q91 85 77 134.5Q63 184 63 255Q63 326 77 375.5Q91 425 118.5 456.5Q146 488 186 502.5Q226 517 278 517Q330 517 370 502.5Q410 488 437.5 456.5Q465 425 479 375.5Q493 326 493 255ZM94 255Q94 187 108.5 139Q123 91 145 69Q172 42 204 31.5Q236 21 278 21Q320 21 352 31.5Q384 42 411 69Q433 91 447.5 139Q462 187 462 255Q462 323 447.5 371Q433 419 411 441Q384 468 352 478.5Q320 489 278 489Q236 489 204 478.5Q172 468 145 441Q123 419 108.5 371Q94 323 94 255ZM277 659 195 569H160L265 682H291L396 569H361Z" glyph-name="ocircumflex" horiz-adv-x="556" unicode="&#244;" /><glyph d="M493 255Q493 184 479 134.5Q465 85 437.5 53.5Q410 22 370 7.5Q330 -7 278 -7Q226 -7 186 7.5Q146 22 118.5 53.5Q91 85 77 134.5Q63 184 63 255Q63 326 77 375.5Q91 425 118.5 456.5Q146 488 186 502.5Q226 517 278 517Q330 517 370 502.5Q410 488 437.5 456.5Q465 425 479 375.5Q493 326 493 255ZM94 255Q94 187 108.5 139Q123 91 145 69Q172 42 204 31.5Q236 21 278 21Q320 21 352 31.5Q384 42 411 69Q433 91 447.5 139Q462 187 462 255Q462 323 447.5 371Q433 419 411 441Q384 468 352 478.5Q320 489 278 489Q236 489 204 478.5Q172 468 145 441Q123 419 108.5 371Q94 323 94 255ZM229 607H194V671H229ZM364 607H329V671H364Z" glyph-name="odieresis" horiz-adv-x="556" unicode="&#246;" /><glyph d="M681 20Q716 20 750 24.5Q784 29 825 44V16Q794 4 754 -1Q714 -6 679 -6Q596 -6 546.5 26.5Q497 59 477 133H476Q456 58 406 25.5Q356 -7 278 -7Q226 -7 186 7.5Q146 22 118.5 53.5Q91 85 77 134.5Q63 184 63 255Q63 326 77 375.5Q91 425 118.5 456.5Q146 488 186 502.5Q226 517 278 517Q356 517 406 484Q456 451 477 376H478Q498 451 545.5 483.5Q593 516 665 516Q764 516 805 462Q846 408 846 308Q846 304 845.5 290.5Q845 277 843 260H493Q493 187 507 139Q521 91 550 62Q573 39 605.5 29.5Q638 20 681 20ZM94 255Q94 187 108.5 139Q123 91 145 69Q172 42 204 31.5Q236 21 278 21Q320 21 352 31.5Q384 42 411 69Q433 91 447.5 139Q462 187 462 255Q462 323 447.5 371Q433 419 411 441Q384 468 352 478.5Q320 489 278 489Q236 489 204 478.5Q172 468 145 441Q123 419 108.5 371Q94 323 94 255ZM665 489Q629 489 600 479.5Q571 470 549 448Q526 425 512 385.5Q498 346 494 287H814Q815 297 815 301.5Q815 306 815 311Q815 359 805.5 394Q796 429 773 452Q736 489 665 489Z" glyph-name="oe" horiz-adv-x="906" unicode="&#339;" /><glyph d="M310 0Q275 -20 260.5 -44Q246 -68 246 -87Q246 -97 249 -106.5Q252 -116 259.5 -123.5Q267 -131 280 -135.5Q293 -140 313 -140Q326 -140 339 -138.5Q352 -137 367 -132V-157Q355 -162 338 -164Q321 -166 307 -166Q255 -166 235.5 -143.5Q216 -121 216 -89Q216 -63 235 -35.5Q254 -8 284 9Z" glyph-name="ogonek" horiz-adv-x="600" unicode="&#731;" /><glyph d="M493 255Q493 184 479 134.5Q465 85 437.5 53.5Q410 22 370 7.5Q330 -7 278 -7Q226 -7 186 7.5Q146 22 118.5 53.5Q91 85 77 134.5Q63 184 63 255Q63 326 77 375.5Q91 425 118.5 456.5Q146 488 186 502.5Q226 517 278 517Q330 517 370 502.5Q410 488 437.5 456.5Q465 425 479 375.5Q493 326 493 255ZM94 255Q94 187 108.5 139Q123 91 145 69Q172 42 204 31.5Q236 21 278 21Q320 21 352 31.5Q384 42 411 69Q433 91 447.5 139Q462 187 462 255Q462 323 447.5 371Q433 419 411 441Q384 468 352 478.5Q320 489 278 489Q236 489 204 478.5Q172 468 145 441Q123 419 108.5 371Q94 323 94 255ZM142 678H189L296 569H264Z" glyph-name="ograve" horiz-adv-x="556" unicode="&#242;" /><glyph d="M493 255Q493 184 479 134.5Q465 85 437.5 53.5Q410 22 370 7.5Q330 -7 278 -7Q226 -7 186 7.5Q146 22 118.5 53.5Q91 85 77 134.5Q63 184 63 255Q63 326 77 375.5Q91 425 118.5 456.5Q146 488 186 502.5Q226 517 278 517Q330 517 370 502.5Q410 488 437.5 456.5Q465 425 479 375.5Q493 326 493 255ZM94 255Q94 187 108.5 139Q123 91 145 69Q172 42 204 31.5Q236 21 278 21Q320 21 352 31.5Q384 42 411 69Q433 91 447.5 139Q462 187 462 255Q462 323 447.5 371Q433 419 411 441Q384 468 352 478.5Q320 489 278 489Q236 489 204 478.5Q172 468 145 441Q123 419 108.5 371Q94 323 94 255ZM242 569H212L319 678H364ZM329 569H298L405 678H450Z" glyph-name="ohungarumlaut" horiz-adv-x="556" unicode="&#337;" /><glyph d="M493 255Q493 184 479 134.5Q465 85 437.5 53.5Q410 22 370 7.5Q330 -7 278 -7Q226 -7 186 7.5Q146 22 118.5 53.5Q91 85 77 134.5Q63 184 63 255Q63 326 77 375.5Q91 425 118.5 456.5Q146 488 186 502.5Q226 517 278 517Q330 517 370 502.5Q410 488 437.5 456.5Q465 425 479 375.5Q493 326 493 255ZM94 255Q94 187 108.5 139Q123 91 145 69Q172 42 204 31.5Q236 21 278 21Q320 21 352 31.5Q384 42 411 69Q433 91 447.5 139Q462 187 462 255Q462 323 447.5 371Q433 419 411 441Q384 468 352 478.5Q320 489 278 489Q236 489 204 478.5Q172 468 145 441Q123 419 108.5 371Q94 323 94 255ZM429 619H127V647H429Z" glyph-name="omacron" horiz-adv-x="556" unicode="&#333;" /><glyph d="M199 0H167V647L-1 643V665Q49 669 99 673Q149 677 199 682Z" glyph-name="one" horiz-adv-x="319" unicode="1" /><glyph d="M569 0H358L357 19Q400 59 432.5 92Q465 125 487 154Q509 183 520 209.5Q531 236 531 262Q531 300 510 319.5Q489 339 451 339Q425 339 403.5 334.5Q382 330 367 324V347Q381 352 402 356.5Q423 361 452 361Q500 361 528.5 336.5Q557 312 557 262Q557 234 546 207Q535 180 513.5 151Q492 122 461.5 90Q431 58 392 21V20Q423 21 440 21Q457 21 462 21H569ZM113 320H87V653Q65 653 44 652.5Q23 652 2 652V670L113 679ZM28 0H-5L474 678H507Z" glyph-name="onehalf" horiz-adv-x="604" /><glyph d="M28 0H-5L474 678H507ZM547 0H522V95H345L344 115L479 358H505L375 117V116H522L524 246H547V117H600V95H547ZM113 320H87V653H59Q57 653 54.5 652.5Q52 652 50 652H2V670L113 679Z" glyph-name="onequarter" horiz-adv-x="601" /><glyph d="M107 320H81V653Q59 653 38 652.5Q17 652 -4 652V670L107 679Z" glyph-name="onesuperior" horiz-adv-x="171" /><glyph d="M160 275Q131 275 107 282Q83 289 66 306Q52 320 44 340Q36 360 36 387Q36 413 44.5 434Q53 455 64 466Q87 489 121.5 495Q156 501 199 501Q220 501 241.5 500Q263 499 279 497V561Q279 590 272.5 607Q266 624 253.5 633Q241 642 222 644.5Q203 647 179 647Q158 647 127 644Q96 641 64 629V657Q96 668 128 670.5Q160 673 183 673Q216 673 239.5 668.5Q263 664 278.5 651.5Q294 639 301.5 617.5Q309 596 309 562V280H284L282 316H281Q255 296 223.5 285.5Q192 275 160 275ZM279 471Q262 473 241 474Q220 475 200 475Q158 475 131 471Q104 467 86 449Q65 428 65 386Q65 363 73 347Q81 331 94 320.5Q107 310 124.5 305Q142 300 161 300Q195 300 227 313Q259 326 279 346Z" glyph-name="ordfeminine" horiz-adv-x="370" unicode="&#170;" /><glyph d="M375 474Q375 366 332 320.5Q289 275 210 275Q130 275 87.5 320.5Q45 366 45 474Q45 582 87.5 627.5Q130 673 210 673Q289 673 332 627.5Q375 582 375 474ZM75 474Q75 374 115 334Q134 315 157 307.5Q180 300 210 300Q240 300 263 307.5Q286 315 305 334Q345 374 345 474Q345 574 305 614Q286 633 263 640.5Q240 648 210 648Q180 648 157 640.5Q134 633 115 614Q75 574 75 474Z" glyph-name="ordmasculine" horiz-adv-x="420" unicode="&#186;" /><glyph d="M160 -39 177 11Q121 34 92 93Q63 152 63 255Q63 326 77 375.5Q91 425 118.5 456.5Q146 488 186 502.5Q226 517 278 517Q317 517 350 508L364 548H395Q390 535 386 523Q382 511 378 499Q434 475 463.5 416.5Q493 358 493 255Q493 184 479 134.5Q465 85 437.5 53.5Q410 22 370 7.5Q330 -7 278 -7Q236 -7 203 2Q199 -8 195.5 -18Q192 -28 189 -39ZM411 441Q389 461 368 471Q330 359 290.5 249.5Q251 140 212 29Q227 24 243 22.5Q259 21 278 21Q320 21 352 31.5Q384 42 411 69Q433 91 447.5 139Q462 187 462 255Q462 323 447.5 371Q433 419 411 441ZM94 255Q94 187 108.5 139Q123 91 145 69Q163 51 187 38L341 482Q314 489 278 489Q236 489 204 478.5Q172 468 145 441Q123 419 108.5 371Q94 323 94 255Z" glyph-name="oslash" horiz-adv-x="556" unicode="&#248;" /><glyph d="M493 255Q493 184 479 134.5Q465 85 437.5 53.5Q410 22 370 7.5Q330 -7 278 -7Q226 -7 186 7.5Q146 22 118.5 53.5Q91 85 77 134.5Q63 184 63 255Q63 326 77 375.5Q91 425 118.5 456.5Q146 488 186 502.5Q226 517 278 517Q330 517 370 502.5Q410 488 437.5 456.5Q465 425 479 375.5Q493 326 493 255ZM94 255Q94 187 108.5 139Q123 91 145 69Q172 42 204 31.5Q236 21 278 21Q320 21 352 31.5Q384 42 411 69Q433 91 447.5 139Q462 187 462 255Q462 323 447.5 371Q433 419 411 441Q384 468 352 478.5Q320 489 278 489Q236 489 204 478.5Q172 468 145 441Q123 419 108.5 371Q94 323 94 255ZM350 613Q330 613 312.5 618Q295 623 277.5 629Q260 635 243 640Q226 645 207 645Q187 645 166.5 635.5Q146 626 127 613V643Q142 654 164.5 663.5Q187 673 207 673Q226 673 244 668Q262 663 279 657Q296 651 313.5 646Q331 641 350 641Q370 641 390.5 650.5Q411 660 429 673V643Q415 632 392 622.5Q369 613 350 613Z" glyph-name="otilde" horiz-adv-x="556" unicode="&#245;" /><glyph d="M123 444Q158 482 200 499Q242 516 289 516Q389 516 438 453.5Q487 391 487 255Q487 185 472 135.5Q457 86 428.5 54.5Q400 23 359 8.5Q318 -6 266 -6Q223 -6 186.5 2.5Q150 11 124 33V-168H93V510H119L122 444ZM124 67Q148 42 183.5 31.5Q219 21 264 21Q308 21 343.5 34Q379 47 404 75Q429 103 442.5 147.5Q456 192 456 255Q456 378 414 433.5Q372 489 286 489Q238 489 198.5 469.5Q159 450 124 405Z" glyph-name="p" horiz-adv-x="550" unicode="p" /><glyph d="M510 527H386V-168H352V526H287V114H284Q244 114 205.5 128.5Q167 143 136.5 171Q106 199 87.5 240.5Q69 282 69 336Q69 394 86.5 436Q104 478 134.5 505Q165 532 207 544.5Q249 557 297 557H510Z" glyph-name="paragraph" horiz-adv-x="579" unicode="&#182;" /><glyph d="M131 309Q131 256 139 198.5Q147 141 161 85Q175 29 194 -23Q213 -75 235 -118H202Q180 -74 160.5 -23Q141 28 126.5 83Q112 138 103.5 195.5Q95 253 95 309Q95 365 103.5 421Q112 477 126.5 531Q141 585 160.5 635.5Q180 686 202 730H235Q213 687 194 635.5Q175 584 161 529Q147 474 139 417.5Q131 361 131 309Z" glyph-name="parenleft" horiz-adv-x="300" unicode="(" /><glyph d="M169 309Q169 361 161 417.5Q153 474 139 529Q125 584 106 635.5Q87 687 65 730H98Q120 686 139.5 635.5Q159 585 173.5 531Q188 477 196.5 421Q205 365 205 309Q205 253 196.5 195.5Q188 138 173.5 83Q159 28 139.5 -23Q120 -74 98 -118H65Q87 -75 106 -23Q125 29 139 85Q153 141 161 198.5Q169 256 169 309Z" glyph-name="parenright" horiz-adv-x="300" unicode=")" /><glyph d="M502 259Q502 261 502.5 266.5Q503 272 503 279Q503 286 503 291.5Q503 297 503 299Q503 406 486 477.5Q469 549 422 596Q392 626 352.5 641.5Q313 657 260 657Q219 657 176 649.5Q133 642 99 631V660Q134 673 176 679.5Q218 686 260 686Q388 686 461.5 599.5Q535 513 535 339Q535 273 527.5 211Q520 149 495 100Q470 51 423 21.5Q376 -8 297 -8Q236 -8 193.5 9Q151 26 124 55.5Q97 85 85 124.5Q73 164 73 208Q73 252 84.5 291.5Q96 331 122 360.5Q148 390 190 407.5Q232 425 292 425Q343 425 380 412Q417 399 442.5 376.5Q468 354 482 324Q496 294 501 259ZM296 20Q348 20 383 34.5Q418 49 439.5 74.5Q461 100 470 133.5Q479 167 479 205Q479 243 469 277.5Q459 312 437 338Q415 364 379.5 379.5Q344 395 292 395Q241 395 205.5 380Q170 365 148 339.5Q126 314 116 280Q106 246 106 208Q106 170 116.5 135.5Q127 101 149.5 75.5Q172 50 208.5 35Q245 20 296 20Z" glyph-name="partialdiff" horiz-adv-x="628" unicode="&#8706;" /><glyph d="M63 506Q63 542 68.5 574.5Q74 607 90.5 631.5Q107 656 137 670.5Q167 685 216 685Q264 685 294 670.5Q324 656 340.5 631.5Q357 607 363 574.5Q369 542 369 506Q369 470 363 437.5Q357 405 340.5 381Q324 357 294 342.5Q264 328 216 328Q167 328 137 342.5Q107 357 90.5 381Q74 405 68.5 437.5Q63 470 63 506ZM339 506Q339 536 335 564Q331 592 318 613Q305 634 280.5 646.5Q256 659 216 659Q175 659 151 646.5Q127 634 113.5 613Q100 592 96 564Q92 536 92 506Q92 476 96 448.5Q100 421 113.5 400Q127 379 151 366.5Q175 354 216 354Q256 354 280.5 366.5Q305 379 318 400Q331 421 335 448.5Q339 476 339 506ZM230 0H197L676 678H709ZM850 172Q850 136 844.5 103.5Q839 71 822.5 46.5Q806 22 776 7.5Q746 -7 697 -7Q648 -7 618 7.5Q588 22 571.5 46.5Q555 71 549.5 103.5Q544 136 544 172Q544 208 549.5 240Q555 272 571.5 296.5Q588 321 618 335.5Q648 350 697 350Q746 350 776 335.5Q806 321 822.5 296.5Q839 272 844.5 240Q850 208 850 172ZM574 172Q574 142 578 114Q582 86 595 65Q608 44 632 31.5Q656 19 697 19Q737 19 761.5 31.5Q786 44 799 65Q812 86 816 114Q820 142 820 172Q820 202 816 229.5Q812 257 799 278Q786 299 761.5 311.5Q737 324 697 324Q656 324 632 311.5Q608 299 595 278Q582 257 578 229.5Q574 202 574 172Z" glyph-name="percent" horiz-adv-x="913" unicode="%" /><glyph d="M128 0H91V74H128Z" glyph-name="period" horiz-adv-x="219" unicode="." /><glyph d="M128 236H91V310H128Z" glyph-name="periodcentered" horiz-adv-x="219" unicode="&#183;" /><glyph d="M63 506Q63 542 68.5 574.5Q74 607 90.5 631.5Q107 656 137 670.5Q167 685 216 685Q264 685 294 670.5Q324 656 340.5 631.5Q357 607 363 574.5Q369 542 369 506Q369 470 363 437.5Q357 405 340.5 381Q324 357 294 342.5Q264 328 216 328Q167 328 137 342.5Q107 357 90.5 381Q74 405 68.5 437.5Q63 470 63 506ZM339 506Q339 536 335 564Q331 592 318 613Q305 634 280.5 646.5Q256 659 216 659Q175 659 151 646.5Q127 634 113.5 613Q100 592 96 564Q92 536 92 506Q92 476 96 448.5Q100 421 113.5 400Q127 379 151 366.5Q175 354 216 354Q256 354 280.5 366.5Q305 379 318 400Q331 421 335 448.5Q339 476 339 506ZM230 0H197L676 678H709ZM850 172Q850 136 844.5 103.5Q839 71 822.5 46.5Q806 22 776 7.5Q746 -7 697 -7Q648 -7 618 7.5Q588 22 571.5 46.5Q555 71 549.5 103.5Q544 136 544 172Q544 208 549.5 240Q555 272 571.5 296.5Q588 321 618 335.5Q648 350 697 350Q746 350 776 335.5Q806 321 822.5 296.5Q839 272 844.5 240Q850 208 850 172ZM574 172Q574 142 578 114Q582 86 595 65Q608 44 632 31.5Q656 19 697 19Q737 19 761.5 31.5Q786 44 799 65Q812 86 816 114Q820 142 820 172Q820 202 816 229.5Q812 257 799 278Q786 299 761.5 311.5Q737 324 697 324Q656 324 632 311.5Q608 299 595 278Q582 257 578 229.5Q574 202 574 172ZM1218 172Q1218 136 1212.5 103.5Q1207 71 1190.5 46.5Q1174 22 1144 7.5Q1114 -7 1065 -7Q1016 -7 986 7.5Q956 22 939.5 46.5Q923 71 917.5 103.5Q912 136 912 172Q912 208 917.5 240Q923 272 939.5 296.5Q956 321 986 335.5Q1016 350 1065 350Q1114 350 1144 335.5Q1174 321 1190.5 296.5Q1207 272 1212.5 240Q1218 208 1218 172ZM942 172Q942 142 946 114Q950 86 963 65Q976 44 1000 31.5Q1024 19 1065 19Q1105 19 1129.5 31.5Q1154 44 1167 65Q1180 86 1184 114Q1188 142 1188 172Q1188 202 1184 229.5Q1180 257 1167 278Q1154 299 1129.5 311.5Q1105 324 1065 324Q1024 324 1000 311.5Q976 299 963 278Q950 257 946 229.5Q942 202 942 172Z" glyph-name="perthousand" horiz-adv-x="1282" unicode="&#8240;" /><glyph d="M500 259H297V57H265V259H64V288H265V487H297V288H500Z" glyph-name="plus" horiz-adv-x="564" unicode="+" /><glyph d="M500 362H297V175H265V362H64V391H265V578H297V391H500ZM64 0V29H499V0Z" glyph-name="plusminus" horiz-adv-x="564" unicode="&#177;" /><glyph d="M527 0V649H222V0H190V649H71V678H678V649H560V0Z" glyph-name="product" horiz-adv-x="749" unicode="&#8719;" /><glyph d="M94 255Q94 132 135.5 77Q177 22 263 22Q311 22 351 41.5Q391 61 426 105V440Q377 489 285 489Q241 489 205.5 476Q170 463 145 435Q120 407 107 362.5Q94 318 94 255ZM63 254Q63 393 121 454.5Q179 516 283 516Q328 516 363.5 506.5Q399 497 428 474H429L432 510H457V-168H426V64H425Q390 28 349 11Q308 -6 261 -6Q161 -6 112 56Q63 118 63 254Z" glyph-name="q" horiz-adv-x="550" unicode="q" /><glyph d="M396 510Q396 463 373.5 428.5Q351 394 316 370.5Q281 347 237 334Q193 321 150 317Q150 286 149.5 255.5Q149 225 149 193H119Q119 231 118.5 269Q118 307 118 345Q158 345 201.5 354.5Q245 364 280.5 383.5Q316 403 339 434Q362 465 362 509Q362 540 352.5 566.5Q343 593 322.5 613Q302 633 269.5 644.5Q237 656 191 656Q161 656 127.5 652.5Q94 649 54 635V666Q94 679 128 682Q162 685 194 685Q248 685 286.5 671.5Q325 658 349.5 634.5Q374 611 385 579Q396 547 396 510ZM154 0H116V73H154Z" glyph-name="question" horiz-adv-x="446" unicode="?" /><glyph d="M50 0Q50 46 72.5 81Q95 116 130 139.5Q165 163 209 176Q253 189 296 193Q296 224 296.5 254.5Q297 285 297 317H327Q327 279 327.5 241Q328 203 328 165Q287 165 244 155.5Q201 146 165.5 126.5Q130 107 107 76Q84 45 84 1Q84 -30 93.5 -56.5Q103 -83 123.5 -103Q144 -123 176.5 -134.5Q209 -146 255 -146Q285 -146 318.5 -142.5Q352 -139 392 -125V-156Q352 -169 318 -172Q284 -175 252 -175Q198 -175 159.5 -161.5Q121 -148 96.5 -124.5Q72 -101 61 -69Q50 -37 50 0ZM292 510H330V437H292Z" glyph-name="questiondown" horiz-adv-x="426" unicode="&#191;" /><glyph d="M105 478H78L74 678H109ZM209 478H182L178 678H213Z" glyph-name="quotedbl" horiz-adv-x="287" unicode="&quot;" /><glyph d="M123 82H168L93 -104H67ZM248 82H293L218 -104H192Z" glyph-name="quotedblbase" horiz-adv-x="353" unicode="&#8222;" /><glyph d="M105 492H60L135 678H161ZM230 492H185L260 678H286Z" glyph-name="quotedblleft" horiz-adv-x="353" unicode="&#8220;" /><glyph d="M123 678H168L93 492H67ZM248 678H293L218 492H192Z" glyph-name="quotedblright" horiz-adv-x="353" unicode="&#8221;" /><glyph d="M105 492H60L135 678H161Z" glyph-name="quoteleft" horiz-adv-x="228" unicode="&#8216;" /><glyph d="M123 678H168L93 492H67Z" glyph-name="quoteright" horiz-adv-x="228" unicode="&#8217;" /><glyph d="M116 82H161L86 -104H60Z" glyph-name="quotesinglbase" horiz-adv-x="228" unicode="&#8218;" /><glyph d="M105 478H78L74 678H109Z" glyph-name="quotesingle" horiz-adv-x="183" unicode="&apos;" /><glyph d="M123 426Q145 464 179.5 490Q214 516 268 516Q282 516 308 512.5Q334 509 351 501V473Q332 482 308.5 485.5Q285 489 268 489Q215 489 183.5 459.5Q152 430 124 377V0H93V510H119L122 426H123Z" glyph-name="r" horiz-adv-x="341" unicode="r" /><glyph d="M123 426Q145 464 179.5 490Q214 516 268 516Q282 516 308 512.5Q334 509 351 501V473Q332 482 308.5 485.5Q285 489 268 489Q215 489 183.5 459.5Q152 430 124 377V0H93V510H119L122 426ZM228 569H195L303 678H350Z" glyph-name="racute" horiz-adv-x="341" unicode="&#341;" /><glyph d="M40 455 154 483 229 133Q235 105 240 78Q245 51 249 28H250Q261 51 277.5 81Q294 111 308 134L619 678H656L263 -1H227L128 446Q106 441 83.5 435.5Q61 430 40 425Z" glyph-name="radical" horiz-adv-x="668" unicode="&#8730;" /><glyph d="M123 426Q145 464 179.5 490Q214 516 268 516Q282 516 308 512.5Q334 509 351 501V473Q332 482 308.5 485.5Q285 489 268 489Q215 489 183.5 459.5Q152 430 124 377V0H93V510H119L122 426ZM210 588 292 678H327L222 565H196L91 678H126Z" glyph-name="rcaron" horiz-adv-x="341" unicode="&#345;" /><glyph d="M123 426Q145 464 179.5 490Q214 516 268 516Q282 516 308 512.5Q334 509 351 501V473Q332 482 308.5 485.5Q285 489 268 489Q215 489 183.5 459.5Q152 430 124 377V0H93V510H119L122 426ZM90 -78H128L74 -233H51Z" glyph-name="rcommaaccent" horiz-adv-x="341" unicode="&#343;" /><glyph d="M549 168H518L453 303Q444 302 435.5 302Q427 302 418 302H340V168H312V515H413Q450 515 475 510Q500 505 515.5 493Q531 481 537.5 460.5Q544 440 544 409Q544 362 529 340Q514 318 482 307ZM423 327Q478 327 497 344.5Q516 362 516 409Q516 451 498 470.5Q480 490 423 490H340V327ZM755 342Q755 265 733.5 201Q712 137 669.5 91Q627 45 563.5 19Q500 -7 417 -7Q333 -7 270 18Q207 43 164 88.5Q121 134 99.5 198.5Q78 263 78 342Q78 420 100 483.5Q122 547 165 591.5Q208 636 271 660.5Q334 685 417 685Q500 685 563.5 659.5Q627 634 669.5 588.5Q712 543 733.5 480Q755 417 755 342ZM106 342Q106 269 125.5 209.5Q145 150 184 107.5Q223 65 281.5 42Q340 19 417 19Q494 19 552 43Q610 67 648.5 110Q687 153 706.5 212Q726 271 726 342Q726 411 706.5 469.5Q687 528 648.5 570Q610 612 552 635.5Q494 659 417 659Q341 659 283 636.5Q225 614 185.5 572.5Q146 531 126 472.5Q106 414 106 342Z" glyph-name="registered" horiz-adv-x="833" unicode="&#174;" /><glyph d="M354 644Q354 691 302 691Q250 691 250 644Q250 599 302 599Q354 599 354 644ZM380 644Q380 611 360 594Q340 577 302 577Q264 577 244 594Q224 611 224 644Q224 679 244 696Q264 713 302 713Q340 713 360 696Q380 679 380 644Z" glyph-name="ring" horiz-adv-x="604" unicode="&#730;" /><glyph d="M216 22Q244 22 273 27.5Q302 33 326 46.5Q350 60 365.5 82.5Q381 105 381 140Q381 174 370.5 194.5Q360 215 341 225.5Q322 236 296.5 240Q271 244 241 245Q210 246 179 250Q148 254 123.5 267.5Q99 281 84 308.5Q69 336 69 384Q69 424 85 450Q101 476 126.5 491Q152 506 184 511.5Q216 517 248 517Q277 517 311 513.5Q345 510 375 501V473Q344 482 310.5 485.5Q277 489 247 489Q220 489 193.5 484.5Q167 480 146.5 468Q126 456 113 435.5Q100 415 100 384Q100 347 111 326Q122 305 141.5 294.5Q161 284 187.5 280.5Q214 277 244 276Q280 274 310.5 269.5Q341 265 363.5 250.5Q386 236 399 210Q412 184 412 141Q412 98 393.5 69.5Q375 41 346 24.5Q317 8 282.5 1Q248 -6 216 -6Q179 -6 138 -0.5Q97 5 67 16V45Q99 34 138.5 28Q178 22 216 22Z" glyph-name="s" horiz-adv-x="459" unicode="s" /><glyph d="M216 22Q244 22 273 27.5Q302 33 326 46.5Q350 60 365.5 82.5Q381 105 381 140Q381 174 370.5 194.5Q360 215 341 225.5Q322 236 296.5 240Q271 244 241 245Q210 246 179 250Q148 254 123.5 267.5Q99 281 84 308.5Q69 336 69 384Q69 424 85 450Q101 476 126.5 491Q152 506 184 511.5Q216 517 248 517Q277 517 311 513.5Q345 510 375 501V473Q344 482 310.5 485.5Q277 489 247 489Q220 489 193.5 484.5Q167 480 146.5 468Q126 456 113 435.5Q100 415 100 384Q100 347 111 326Q122 305 141.5 294.5Q161 284 187.5 280.5Q214 277 244 276Q280 274 310.5 269.5Q341 265 363.5 250.5Q386 236 399 210Q412 184 412 141Q412 98 393.5 69.5Q375 41 346 24.5Q317 8 282.5 1Q248 -6 216 -6Q179 -6 138 -0.5Q97 5 67 16V45Q99 34 138.5 28Q178 22 216 22ZM237 569H204L312 678H359Z" glyph-name="sacute" horiz-adv-x="459" unicode="&#347;" /><glyph d="M216 22Q244 22 273 27.5Q302 33 326 46.5Q350 60 365.5 82.5Q381 105 381 140Q381 174 370.5 194.5Q360 215 341 225.5Q322 236 296.5 240Q271 244 241 245Q210 246 179 250Q148 254 123.5 267.5Q99 281 84 308.5Q69 336 69 384Q69 424 85 450Q101 476 126.5 491Q152 506 184 511.5Q216 517 248 517Q277 517 311 513.5Q345 510 375 501V473Q344 482 310.5 485.5Q277 489 247 489Q220 489 193.5 484.5Q167 480 146.5 468Q126 456 113 435.5Q100 415 100 384Q100 347 111 326Q122 305 141.5 294.5Q161 284 187.5 280.5Q214 277 244 276Q280 274 310.5 269.5Q341 265 363.5 250.5Q386 236 399 210Q412 184 412 141Q412 98 393.5 69.5Q375 41 346 24.5Q317 8 282.5 1Q248 -6 216 -6Q179 -6 138 -0.5Q97 5 67 16V45Q99 34 138.5 28Q178 22 216 22ZM233 588 315 678H350L245 565H219L114 678H149Z" glyph-name="scaron" horiz-adv-x="459" unicode="&#353;" /><glyph d="M228 -6H216Q179 -6 138 -0.5Q97 5 67 16V45Q99 34 138.5 28Q178 22 216 22Q244 22 273 27.5Q302 33 326 46.5Q350 60 365.5 82.5Q381 105 381 140Q381 174 370.5 194.5Q360 215 341 225.5Q322 236 296.5 240Q271 244 241 245Q210 246 179 250Q148 254 123.5 267.5Q99 281 84 308.5Q69 336 69 384Q69 424 85 450Q101 476 126.5 491Q152 506 184 511.5Q216 517 248 517Q277 517 311 513.5Q345 510 375 501V473Q344 482 310.5 485.5Q277 489 247 489Q220 489 193.5 484.5Q167 480 146.5 468Q126 456 113 435.5Q100 415 100 384Q100 347 111 326Q122 305 141.5 294.5Q161 284 187.5 280.5Q214 277 244 276Q280 274 310.5 269.5Q341 265 363.5 250.5Q386 236 399 210Q412 184 412 141Q412 105 398.5 79.5Q385 54 363.5 36.5Q342 19 314.5 9.5Q287 0 259 -3L242 -44Q271 -49 291 -62.5Q311 -76 311 -100Q311 -134 285 -150Q259 -166 211 -166Q201 -166 183 -164Q165 -162 145 -157V-132Q159 -136 178.5 -138Q198 -140 212 -140Q244 -140 262.5 -131Q281 -122 281 -99Q281 -89 274.5 -82Q268 -75 257.5 -71Q247 -67 235 -65Q223 -63 212 -62L209 -48Z" glyph-name="scedilla" horiz-adv-x="459" unicode="&#351;" /><glyph d="M216 22Q244 22 273 27.5Q302 33 326 46.5Q350 60 365.5 82.5Q381 105 381 140Q381 174 370.5 194.5Q360 215 341 225.5Q322 236 296.5 240Q271 244 241 245Q210 246 179 250Q148 254 123.5 267.5Q99 281 84 308.5Q69 336 69 384Q69 424 85 450Q101 476 126.5 491Q152 506 184 511.5Q216 517 248 517Q277 517 311 513.5Q345 510 375 501V473Q344 482 310.5 485.5Q277 489 247 489Q220 489 193.5 484.5Q167 480 146.5 468Q126 456 113 435.5Q100 415 100 384Q100 347 111 326Q122 305 141.5 294.5Q161 284 187.5 280.5Q214 277 244 276Q280 274 310.5 269.5Q341 265 363.5 250.5Q386 236 399 210Q412 184 412 141Q412 98 393.5 69.5Q375 41 346 24.5Q317 8 282.5 1Q248 -6 216 -6Q179 -6 138 -0.5Q97 5 67 16V45Q99 34 138.5 28Q178 22 216 22ZM230 659 148 569H113L218 682H244L349 569H314Z" glyph-name="scircumflex" horiz-adv-x="459" unicode="&#349;" /><glyph d="M216 22Q244 22 273 27.5Q302 33 326 46.5Q350 60 365.5 82.5Q381 105 381 140Q381 174 370.5 194.5Q360 215 341 225.5Q322 236 296.5 240Q271 244 241 245Q210 246 179 250Q148 254 123.5 267.5Q99 281 84 308.5Q69 336 69 384Q69 424 85 450Q101 476 126.5 491Q152 506 184 511.5Q216 517 248 517Q277 517 311 513.5Q345 510 375 501V473Q344 482 310.5 485.5Q277 489 247 489Q220 489 193.5 484.5Q167 480 146.5 468Q126 456 113 435.5Q100 415 100 384Q100 347 111 326Q122 305 141.5 294.5Q161 284 187.5 280.5Q214 277 244 276Q280 274 310.5 269.5Q341 265 363.5 250.5Q386 236 399 210Q412 184 412 141Q412 98 393.5 69.5Q375 41 346 24.5Q317 8 282.5 1Q248 -6 216 -6Q179 -6 138 -0.5Q97 5 67 16V45Q99 34 138.5 28Q178 22 216 22ZM219 -78H257L203 -233H180Z" glyph-name="scommaaccent" horiz-adv-x="459" unicode="&#537;" /><glyph d="M134 419Q106 438 89.5 469.5Q73 501 73 536Q73 583 89 612Q105 641 130.5 657.5Q156 674 188 679.5Q220 685 251 685Q280 685 313.5 681Q347 677 378 665V636Q347 649 313.5 653.5Q280 658 250 658Q223 658 197 653Q171 648 150 634.5Q129 621 116.5 596.5Q104 572 104 532Q104 506 114.5 486.5Q125 467 138 454Q154 438 181 430Q208 422 238.5 416Q269 410 300.5 403Q332 396 357.5 380Q383 364 399 337Q415 310 415 265Q415 226 400 199Q385 172 361 152Q387 135 400.5 105.5Q414 76 414 44Q414 -10 395.5 -43Q377 -76 348.5 -94Q320 -112 285.5 -118Q251 -124 219 -124Q182 -124 141.5 -118Q101 -112 70 -99V-68Q102 -82 141.5 -89Q181 -96 219 -96Q247 -96 276 -91.5Q305 -87 329 -72.5Q353 -58 368 -32Q383 -6 383 37Q383 64 376.5 82.5Q370 101 357 114Q338 133 309.5 142.5Q281 152 249.5 159Q218 166 186.5 173.5Q155 181 129.5 196Q104 211 88 236.5Q72 262 72 306Q72 347 91.5 376Q111 405 134 419ZM383 263Q383 310 361.5 334Q340 358 307.5 370Q275 382 236.5 388Q198 394 164 405Q140 392 122 367.5Q104 343 104 306Q104 259 127.5 236.5Q151 214 186 202.5Q221 191 261 184.5Q301 178 334 164Q356 180 369.5 204Q383 228 383 263Z" glyph-name="section" horiz-adv-x="485" unicode="&#167;" /><glyph d="M124 434H86V508H124ZM93 82H138L63 -104H37Z" glyph-name="semicolon" horiz-adv-x="215" unicode=";" /><glyph d="M166 2H130L392 650V651H30V680H426L428 653Z" glyph-name="seven" horiz-adv-x="463" unicode="7" /><glyph d="M110 317Q128 340 152 357Q176 374 202 385.5Q228 397 253.5 403Q279 409 302 409Q361 409 401 391.5Q441 374 465.5 346Q490 318 500.5 282.5Q511 247 511 211Q511 171 500 132Q489 93 464 62Q439 31 398.5 12Q358 -7 299 -7Q242 -7 200 16Q158 39 130.5 82Q103 125 89.5 187Q76 249 76 326Q76 391 86 455Q96 519 124.5 570Q153 621 204 653Q255 685 336 685Q366 685 402.5 681Q439 677 469 663V631Q437 645 402 650.5Q367 656 336 656Q264 656 219 626.5Q174 597 149.5 549Q125 501 117 440Q109 379 109 317ZM301 379Q255 379 204 355Q153 331 111 275Q118 156 163 89Q208 22 300 22Q350 22 384 38Q418 54 439 80.5Q460 107 469 141Q478 175 478 210Q478 241 469 271.5Q460 302 439.5 326Q419 350 385 364.5Q351 379 301 379Z" glyph-name="six" horiz-adv-x="575" unicode="6" /><glyph d="M22 -85H-8L285 763H315Z" glyph-name="slash" horiz-adv-x="307" unicode="/" /><glyph glyph-name="space" horiz-adv-x="235" unicode=" " /><glyph d="M549 25Q526 13 492 4Q458 -5 413 -5Q350 -5 307.5 8Q265 21 229 41Q218 20 197.5 10Q177 0 154 0Q149 0 143 0Q137 0 129 2V30Q138 29 142 29Q146 29 150 29Q182 29 193.5 49Q205 69 209 113L227 331H157V361H230L239 467Q243 511 252 550.5Q261 590 281 620Q301 650 335.5 667.5Q370 685 425 685Q460 685 485 679Q510 673 536 662V631Q509 644 485 650.5Q461 657 426 657Q379 657 351 642Q323 627 306.5 601Q290 575 283 541Q276 507 273 468L264 361H447V331H261L243 107Q242 94 241 84Q240 74 239 71Q274 51 315 37Q356 23 414 23Q461 23 493.5 33.5Q526 44 549 55Z" glyph-name="sterling" horiz-adv-x="660" unicode="&#163;" /><glyph d="M90 678H527V649H210Q200 649 192.5 649Q185 649 176 649Q167 649 156.5 649.5Q146 650 130 650V649L437 358V336L102 28V27Q135 28 153 28Q171 28 190 28H549V0H61V33L400 347L90 646Z" glyph-name="summation" horiz-adv-x="603" unicode="&#8721;" /><glyph d="M354 16Q337 8 307.5 1Q278 -6 249 -6Q213 -6 189.5 2Q166 10 152.5 27.5Q139 45 134 72.5Q129 100 129 140V483H33V503L131 511L139 624H163L161 510H344V483H160V139Q160 107 163.5 84.5Q167 62 177 48Q187 34 205.5 28Q224 22 254 22Q281 22 309 29.5Q337 37 354 45Z" glyph-name="t" horiz-adv-x="376" unicode="t" /><glyph d="M45 287H129V483H33V503L131 511L139 624H163L161 510H344V483H160V287H302V260H160V139Q160 107 163.5 84.5Q167 62 177 48Q187 34 205.5 28Q224 22 254 22Q281 22 309 29.5Q337 37 354 45V16Q337 8 307.5 1Q278 -6 249 -6Q213 -6 189.5 2Q166 10 152.5 27.5Q139 45 134 72.5Q129 100 129 140V260H45Z" glyph-name="tbar" horiz-adv-x="376" unicode="&#359;" /><glyph d="M354 16Q337 8 307.5 1Q278 -6 249 -6Q213 -6 189.5 2Q166 10 152.5 27.5Q139 45 134 72.5Q129 100 129 140V483H33V503L131 511L139 624H163L161 510H344V483H160V139Q160 107 163.5 84.5Q167 62 177 48Q187 34 205.5 28Q224 22 254 22Q281 22 309 29.5Q337 37 354 45ZM309 711H347L293 556H270Z" glyph-name="tcaron" horiz-adv-x="376" unicode="&#357;" /><glyph d="M354 16Q337 8 307.5 1Q278 -6 249 -6Q213 -6 189.5 2Q166 10 152.5 27.5Q139 45 134 72.5Q129 100 129 140V483H33V503L131 511L139 624H163L161 510H344V483H160V139Q160 107 163.5 84.5Q167 62 177 48Q187 34 205.5 28Q224 22 254 22Q281 22 309 29.5Q337 37 354 45ZM216 -78H254L200 -233H177Z" glyph-name="tcommaaccent" horiz-adv-x="376" unicode="&#355;" /><glyph d="M125 445Q160 483 201 499.5Q242 516 289 516Q389 516 438 453.5Q487 391 487 255Q487 185 472 135.5Q457 86 428.5 54.5Q400 23 359 8.5Q318 -6 266 -6Q223 -6 187 2.5Q151 11 125 33H124V-168H93V678H124V445ZM124 67Q148 42 183.5 31.5Q219 21 264 21Q308 21 343.5 34Q379 47 404 75Q429 103 442.5 147.5Q456 192 456 255Q456 378 414 433.5Q372 489 286 489Q238 489 198.5 469.5Q159 450 124 405Z" glyph-name="thorn" horiz-adv-x="550" unicode="&#254;" /><glyph d="M331 351Q353 345 374.5 333Q396 321 412.5 302Q429 283 439 256Q449 229 449 192Q449 140 432.5 103Q416 66 386 42.5Q356 19 313.5 8Q271 -3 219 -3Q184 -3 142.5 3.5Q101 10 62 26V58Q100 41 143.5 33.5Q187 26 216 26Q314 26 365 64.5Q416 103 416 191Q416 226 406.5 250.5Q397 275 380 292Q354 318 321.5 327Q289 336 260 336H153V364H257Q287 364 314.5 373.5Q342 383 362 403Q382 423 391.5 448Q401 473 401 508Q401 536 393.5 563.5Q386 591 366.5 612Q347 633 314 646Q281 659 231 659Q201 659 160.5 654Q120 649 84 635V665Q122 679 161.5 683.5Q201 688 229 688Q289 688 328.5 673Q368 658 392 633Q416 608 425.5 576Q435 544 435 510Q435 449 404.5 409Q374 369 331 352Z" glyph-name="three" horiz-adv-x="538" unicode="3" /><glyph d="M133 0H100L579 678H612ZM187 505Q210 497 226 478Q242 459 242 424Q242 368 208 342.5Q174 317 122 317Q101 317 78 321Q55 325 33 334V357Q56 347 80 343Q104 339 123 339Q164 339 190 358.5Q216 378 216 423Q216 441 210.5 453Q205 465 197 473Q185 485 170.5 489.5Q156 494 141 494H80V515H139Q153 515 165.5 519Q178 523 188 533Q197 542 202.5 555Q208 568 208 586Q208 600 204 613.5Q200 627 191 637Q182 647 166 653Q150 659 126 659Q109 659 88 655.5Q67 652 44 644V667Q64 675 86.5 678Q109 681 126 681Q156 681 177 673Q198 665 210.5 652Q223 639 228.5 622Q234 605 234 587Q234 558 221 537.5Q208 517 187 506ZM652 0H627V95H450L449 115L584 358H610L480 117V116H627L629 246H652V117H705V95H652Z" glyph-name="threequarters" horiz-adv-x="706" /><glyph d="M187 505Q210 497 226 478Q242 459 242 424Q242 368 208 342.5Q174 317 122 317Q101 317 78 321Q55 325 33 334V357Q56 347 80 343Q104 339 123 339Q164 339 190 358.5Q216 378 216 423Q216 441 210.5 453Q205 465 197 473Q185 485 170.5 489.5Q156 494 141 494H80V515H139Q153 515 165.5 519Q178 523 188 533Q197 542 202.5 555Q208 568 208 586Q208 600 204 613.5Q200 627 191 637Q182 647 166 653Q150 659 126 659Q109 659 88 655.5Q67 652 44 644V667Q64 675 86.5 678Q109 681 126 681Q156 681 177 673Q198 665 210.5 652Q223 639 228.5 622Q234 605 234 587Q234 558 221 537.5Q208 517 187 506V505Z" glyph-name="threesuperior" horiz-adv-x="280" /><glyph d="M375 613Q355 613 337.5 618Q320 623 302.5 629Q285 635 268 640Q251 645 232 645Q212 645 191.5 635.5Q171 626 152 613V643Q167 654 189.5 663.5Q212 673 232 673Q251 673 269 668Q287 663 304 657Q321 651 338.5 646Q356 641 375 641Q395 641 415.5 650.5Q436 660 454 673V643Q440 632 417 622.5Q394 613 375 613Z" glyph-name="tilde" horiz-adv-x="600" unicode="&#732;" /><glyph d="M561 373V486Q561 505 561 529.5Q561 554 561.5 578Q562 602 562 622Q562 642 562 653H561Q554 639 544.5 620.5Q535 602 525 583L456 451H433L364 583Q354 602 344.5 620.5Q335 639 328 653H327Q327 642 327 622Q327 602 327.5 578Q328 554 328 529.5Q328 505 328 486V373H306V678H339L444 477H446L551 678H584V373ZM146 373H124V658H23V678H249V658H146Z" glyph-name="trademark" horiz-adv-x="647" unicode="&#8482;" /><glyph d="M449 0H58L56 32Q139 105 202 165.5Q265 226 307 280.5Q349 335 370 388Q391 441 391 498Q391 575 349 615Q307 655 231 655Q180 655 140 647Q100 639 74 631V661Q99 669 139 676.5Q179 684 232 684Q320 684 372.5 638.5Q425 593 425 499Q425 436 403 380.5Q381 325 339 270Q297 215 236 156.5Q175 98 98 30V29H449Z" glyph-name="two" horiz-adv-x="524" unicode="2" /><glyph d="M237 320H26L25 339Q68 379 100.5 412Q133 445 155 474Q177 503 188 529.5Q199 556 199 582Q199 620 178 639.5Q157 659 119 659Q93 659 71.5 654.5Q50 650 35 644V667Q49 672 70 676.5Q91 681 120 681Q168 681 196.5 656.5Q225 632 225 582Q225 554 214 527Q203 500 181.5 471Q160 442 129.5 410Q99 378 60 341V340Q91 341 108 341Q125 341 130 341H237Z" glyph-name="twosuperior" horiz-adv-x="272" /><glyph d="M431 77Q389 32 340 13Q291 -6 234 -6Q187 -6 158 4.5Q129 15 112.5 35.5Q96 56 90 85.5Q84 115 84 153V510H115V158Q115 122 120.5 96Q126 70 140 53.5Q154 37 177.5 29Q201 21 237 21Q294 21 343.5 44Q393 67 430 115V510H461V0H435L432 77H431Z" glyph-name="u" horiz-adv-x="554" unicode="u" /><glyph d="M431 77Q389 32 340 13Q291 -6 234 -6Q187 -6 158 4.5Q129 15 112.5 35.5Q96 56 90 85.5Q84 115 84 153V510H115V158Q115 122 120.5 96Q126 70 140 53.5Q154 37 177.5 29Q201 21 237 21Q294 21 343.5 44Q393 67 430 115V510H461V0H435L432 77ZM282 569H249L357 678H404Z" glyph-name="uacute" horiz-adv-x="554" unicode="&#250;" /><glyph d="M431 77Q389 32 340 13Q291 -6 234 -6Q187 -6 158 4.5Q129 15 112.5 35.5Q96 56 90 85.5Q84 115 84 153V510H115V158Q115 122 120.5 96Q126 70 140 53.5Q154 37 177.5 29Q201 21 237 21Q294 21 343.5 44Q393 67 430 115V510H461V0H435L432 77ZM274 599Q320 599 353 617.5Q386 636 397 678H430Q419 622 376.5 597.5Q334 573 274 573Q214 573 171.5 597.5Q129 622 118 678H151Q162 636 195 617.5Q228 599 274 599Z" glyph-name="ubreve" horiz-adv-x="554" unicode="&#365;" /><glyph d="M431 77Q389 32 340 13Q291 -6 234 -6Q187 -6 158 4.5Q129 15 112.5 35.5Q96 56 90 85.5Q84 115 84 153V510H115V158Q115 122 120.5 96Q126 70 140 53.5Q154 37 177.5 29Q201 21 237 21Q294 21 343.5 44Q393 67 430 115V510H461V0H435L432 77ZM272 659 190 569H155L260 682H286L391 569H356Z" glyph-name="ucircumflex" horiz-adv-x="554" unicode="&#251;" /><glyph d="M431 77Q389 32 340 13Q291 -6 234 -6Q187 -6 158 4.5Q129 15 112.5 35.5Q96 56 90 85.5Q84 115 84 153V510H115V158Q115 122 120.5 96Q126 70 140 53.5Q154 37 177.5 29Q201 21 237 21Q294 21 343.5 44Q393 67 430 115V510H461V0H435L432 77ZM358 607H323V671H358ZM223 607H188V671H223Z" glyph-name="udieresis" horiz-adv-x="554" unicode="&#252;" /><glyph d="M431 77Q389 32 340 13Q291 -6 234 -6Q187 -6 158 4.5Q129 15 112.5 35.5Q96 56 90 85.5Q84 115 84 153V510H115V158Q115 122 120.5 96Q126 70 140 53.5Q154 37 177.5 29Q201 21 237 21Q294 21 343.5 44Q393 67 430 115V510H461V0H435L432 77ZM143 678H190L297 569H265Z" glyph-name="ugrave" horiz-adv-x="554" unicode="&#249;" /><glyph d="M431 77Q389 32 340 13Q291 -6 234 -6Q187 -6 158 4.5Q129 15 112.5 35.5Q96 56 90 85.5Q84 115 84 153V510H115V158Q115 122 120.5 96Q126 70 140 53.5Q154 37 177.5 29Q201 21 237 21Q294 21 343.5 44Q393 67 430 115V510H461V0H435L432 77ZM328 569H297L404 678H449ZM241 569H211L318 678H363Z" glyph-name="uhungarumlaut" horiz-adv-x="554" unicode="&#369;" /><glyph d="M431 77Q389 32 340 13Q291 -6 234 -6Q187 -6 158 4.5Q129 15 112.5 35.5Q96 56 90 85.5Q84 115 84 153V510H115V158Q115 122 120.5 96Q126 70 140 53.5Q154 37 177.5 29Q201 21 237 21Q294 21 343.5 44Q393 67 430 115V510H461V0H435L432 77ZM424 619H122V647H424Z" glyph-name="umacron" horiz-adv-x="554" unicode="&#363;" /><glyph d="M0 -168V-141H463V-168Z" glyph-name="underscore" horiz-adv-x="463" unicode="_" /><glyph d="M320 258H40V288H320Z" glyph-name="uni00AD" horiz-adv-x="360" unicode="&#173;" /><glyph d="M431 77Q389 32 340 13Q291 -6 234 -6Q187 -6 158 4.5Q129 15 112.5 35.5Q96 56 90 85.5Q84 115 84 153V510H115V158Q115 122 120.5 96Q126 70 140 53.5Q154 37 177.5 29Q201 21 237 21Q294 21 343.5 44Q393 67 430 115V510H461V0Q424 -22 410 -45Q396 -68 396 -86Q396 -95 399 -105Q402 -115 409.5 -122.5Q417 -130 430 -135Q443 -140 463 -140Q477 -140 489.5 -138Q502 -136 518 -131V-157Q505 -161 488.5 -163Q472 -165 458 -165Q406 -165 386 -142.5Q366 -120 366 -88Q366 -63 385 -36.5Q404 -10 434 8L432 77H431Z" glyph-name="uogonek" horiz-adv-x="554" unicode="&#371;" /><glyph d="M431 77Q389 32 340 13Q291 -6 234 -6Q187 -6 158 4.5Q129 15 112.5 35.5Q96 56 90 85.5Q84 115 84 153V510H115V158Q115 122 120.5 96Q126 70 140 53.5Q154 37 177.5 29Q201 21 237 21Q294 21 343.5 44Q393 67 430 115V510H461V0H435L432 77ZM351 644Q351 611 331 594Q311 577 273 577Q235 577 215 594Q195 611 195 644Q195 679 215 696Q235 713 273 713Q311 713 331 696Q351 679 351 644ZM325 644Q325 691 273 691Q221 691 221 644Q221 599 273 599Q325 599 325 644Z" glyph-name="uring" horiz-adv-x="554" unicode="&#367;" /><glyph d="M431 77Q389 32 340 13Q291 -6 234 -6Q187 -6 158 4.5Q129 15 112.5 35.5Q96 56 90 85.5Q84 115 84 153V510H115V158Q115 122 120.5 96Q126 70 140 53.5Q154 37 177.5 29Q201 21 237 21Q294 21 343.5 44Q393 67 430 115V510H461V0H435L432 77ZM344 613Q324 613 306.5 618Q289 623 271.5 629Q254 635 237 640Q220 645 201 645Q181 645 160.5 635.5Q140 626 121 613V643Q136 654 158.5 663.5Q181 673 201 673Q220 673 238 668Q256 663 273 657Q290 651 307.5 646Q325 641 344 641Q364 641 384.5 650.5Q405 660 423 673V643Q409 632 386 622.5Q363 613 344 613Z" glyph-name="utilde" horiz-adv-x="554" unicode="&#361;" /><glyph d="M235 33H236L421 510H453L255 0H215L17 510H52Z" glyph-name="v" horiz-adv-x="470" unicode="v" /><glyph d="M218 0H180L19 510H52L199 32H201L357 430L323 510H357L547 32H549L697 510H728L567 0H530L373 387H371Z" glyph-name="w" horiz-adv-x="747" unicode="w" /><glyph d="M218 0H180L19 510H52L199 32H201L357 430L323 510H357L547 32H549L697 510H728L567 0H530L373 387H371ZM347 569H314L422 678H469Z" glyph-name="wacute" horiz-adv-x="738" unicode="&#7811;" /><glyph d="M218 0H180L19 510H52L199 32H201L357 430L323 510H357L547 32H549L697 510H728L567 0H530L373 387H371ZM368 659 286 569H251L356 682H382L487 569H452Z" glyph-name="wcircumflex" horiz-adv-x="738" unicode="&#373;" /><glyph d="M218 0H180L19 510H52L199 32H201L357 430L323 510H357L547 32H549L697 510H728L567 0H530L373 387H371ZM320 607H285V671H320ZM455 607H420V671H455Z" glyph-name="wdieresis" horiz-adv-x="738" unicode="&#7813;" /><glyph d="M218 0H180L19 510H52L199 32H201L357 430L323 510H357L547 32H549L697 510H728L567 0H530L373 387H371ZM194 678H241L348 569H316Z" glyph-name="wgrave" horiz-adv-x="738" unicode="&#7809;" /><glyph d="M431 0H392L222 233L51 0H12L202 259L20 510H58L221 284L385 510H423L241 259Z" glyph-name="x" horiz-adv-x="443" unicode="x" /><glyph d="M181 -168H148L223 12L17 510H51L238 52H239L425 510H458Z" glyph-name="y" horiz-adv-x="475" unicode="y" /><glyph d="M181 -168H148L223 12L17 510H51L238 52H239L425 510H458ZM243 569H210L318 678H365Z" glyph-name="yacute" horiz-adv-x="475" unicode="&#253;" /><glyph d="M181 -168H148L223 12L17 510H51L238 52H239L425 510H458ZM236 659 154 569H119L224 682H250L355 569H320Z" glyph-name="ycircumflex" horiz-adv-x="475" unicode="&#375;" /><glyph d="M181 -168H148L223 12L17 510H51L238 52H239L425 510H458ZM192 607H157V671H192ZM327 607H292V671H327Z" glyph-name="ydieresis" horiz-adv-x="475" unicode="&#255;" /><glyph d="M524 678H560L404 401H546V374H389L356 314H547V287H342V0H308V287H106V314H294L262 374H106V401H247L99 678H138L324 322H325Z" glyph-name="yen" horiz-adv-x="660" unicode="&#165;" /><glyph d="M390 0H41V23L353 482V483H58V510H392V486L80 28V27H390Z" glyph-name="z" horiz-adv-x="433" unicode="z" /><glyph d="M390 0H41V23L353 482V483H58V510H392V486L80 28V27H390ZM222 569H189L297 678H344Z" glyph-name="zacute" horiz-adv-x="433" unicode="&#378;" /><glyph d="M390 0H41V23L353 482V483H58V510H392V486L80 28V27H390ZM230 588 312 678H347L242 565H216L111 678H146Z" glyph-name="zcaron" horiz-adv-x="433" unicode="&#158;" /><glyph d="M390 0H41V23L353 482V483H58V510H392V486L80 28V27H390ZM238 604H203V678H238Z" glyph-name="zdotaccent" horiz-adv-x="433" unicode="&#380;" /><glyph d="M496 339Q496 406 490.5 464Q485 522 465.5 565Q446 608 408.5 632Q371 656 306 656Q241 656 203.5 632Q166 608 146.5 565Q127 522 121.5 464Q116 406 116 339Q116 271 121.5 213.5Q127 156 146.5 113Q166 70 203.5 46Q241 22 306 22Q371 22 408.5 46Q446 70 465.5 113Q485 156 490.5 213.5Q496 271 496 339ZM83 339Q83 413 90.5 476.5Q98 540 121 586.5Q144 633 188 659Q232 685 306 685Q379 685 423.5 659Q468 633 491 586.5Q514 540 521.5 476.5Q529 413 529 339Q529 265 521.5 201.5Q514 138 491 91.5Q468 45 423.5 19Q379 -7 306 -7Q232 -7 188 19Q144 45 121 91.5Q98 138 90.5 201.5Q83 265 83 339Z" glyph-name="zero" horiz-adv-x="612" unicode="0" /></font>
</defs>
</svg>
