<?xml version="1.0" encoding="UTF-8" standalone="no"?>
<!-- Created with Inkscape (http://www.inkscape.org/) -->

<svg
   xmlns:dc="http://purl.org/dc/elements/1.1/"
   xmlns:cc="http://creativecommons.org/ns#"
   xmlns:rdf="http://www.w3.org/1999/02/22-rdf-syntax-ns#"
   xmlns:svg="http://www.w3.org/2000/svg"
   xmlns="http://www.w3.org/2000/svg"
   xmlns:sodipodi="http://sodipodi.sourceforge.net/DTD/sodipodi-0.dtd"
   xmlns:inkscape="http://www.inkscape.org/namespaces/inkscape"
   width="210mm"
   height="148mm"
   viewBox="0 0 744.09449 524.40944"
   id="svg2"
   version="1.1"
   inkscape:version="0.91 r13725"
   sodipodi:docname="components.svg">
  <defs
     id="defs4" />
  <sodipodi:namedview
     id="base"
     pagecolor="#ffffff"
     bordercolor="#666666"
     borderopacity="1.0"
     inkscape:pageopacity="0.0"
     inkscape:pageshadow="2"
     inkscape:zoom="1.979899"
     inkscape:cx="265.84387"
     inkscape:cy="211.81221"
     inkscape:document-units="px"
     inkscape:current-layer="layer1"
     showgrid="false"
     inkscape:window-width="2560"
     inkscape:window-height="1416"
     inkscape:window-x="0"
     inkscape:window-y="24"
     inkscape:window-maximized="1" />
  <metadata
     id="metadata7">
    <rdf:RDF>
      <cc:Work
         rdf:about="">
        <dc:format>image/svg+xml</dc:format>
        <dc:type
           rdf:resource="http://purl.org/dc/dcmitype/StillImage" />
        <dc:title></dc:title>
      </cc:Work>
    </rdf:RDF>
  </metadata>
  <g
     inkscape:label="Layer 1"
     inkscape:groupmode="layer"
     id="layer1"
     transform="translate(0,-527.95276)">
    <g
       transform="matrix(0.10904632,0,0,-0.10904632,11.808516,1041.8977)"
       inkscape:label="ink_ext_XXXXXX"
       id="g4332">
      <g
         transform="scale(0.1,0.1)"
         id="g4334">
        <path
           inkscape:connector-curvature="0"
           id="path4336"
           style="fill:#3b3b3c;fill-opacity:1;fill-rule:nonzero;stroke:none"
           d="m 4476.78,533.84 c 27.58,0 48.96,7.109 64.15,21.371 15.18,14.25 22.77,34.359 22.77,60.328 0,25.731 -7.59,45.723 -22.77,59.981 -15.19,14.25 -36.45,21.371 -63.79,21.371 l -37.9,0 0,-163.051 37.54,0 z m -67.27,-25.051 c -3.83,3.941 -5.74,8.59 -5.74,13.922 l 0,184.969 c 0,6.019 1.85,10.879 5.56,14.59 3.71,3.718 8.23,5.57 13.57,5.57 l 54.92,0 c 19.24,0 36.4,-2.559 51.47,-7.66 15.06,-5.098 27.81,-12.45 38.24,-22.059 10.43,-9.633 18.43,-21.34 23.99,-35.121 5.56,-13.801 8.34,-29.5 8.34,-47.121 0,-17.609 -2.84,-33.379 -8.52,-47.277 -5.68,-13.911 -13.85,-25.731 -24.51,-35.473 -10.66,-9.731 -23.64,-17.199 -38.94,-22.418 -15.3,-5.211 -32.56,-7.82 -51.8,-7.82 l -52.5,0 c -5.57,0 -10.26,1.968 -14.08,5.898" />
        <path
           inkscape:connector-curvature="0"
           id="path4338"
           style="fill:#3b3b3c;fill-opacity:1;fill-rule:nonzero;stroke:none"
           d="m 4760.14,523.75 c 7.42,0 14.31,1.102 20.69,3.301 6.38,2.211 11.82,5.34 16.34,9.39 4.52,4.039 8.05,8.868 10.61,14.43 2.54,5.57 3.82,11.59 3.82,18.07 l 0,12.868 -9.39,-0.348 c -24.57,-0.93 -43,-3.891 -55.28,-8.871 -12.29,-4.981 -18.42,-13.16 -18.42,-24.5 0,-7.418 2.77,-13.328 8.34,-17.738 5.56,-4.411 13.32,-6.602 23.29,-6.602 z m 51.46,83.09 c 0,12.75 -3.54,22.48 -10.6,29.211 -7.08,6.719 -17.34,10.078 -30.77,10.078 -12.75,0 -22.95,-2.84 -30.6,-8.508 -7.65,-5.691 -13.45,-12.351 -17.38,-19.992 -4.41,0.211 -7.95,0.851 -10.61,1.902 -2.66,1.039 -5.1,2.719 -7.3,5.051 -2.2,2.297 -3.31,5.566 -3.31,9.719 0,3.937 1.51,8.301 4.52,13.051 3.01,4.738 7.53,9.097 13.57,13.039 6.02,3.937 13.49,7.23 22.42,9.91 8.92,2.66 19.29,3.988 31.12,3.988 23.87,0 42.01,-5.789 54.41,-17.391 12.4,-11.589 18.6,-28.027 18.6,-49.347 l 0,-102.582 c 0,-0.918 -1.27,-1.797 -3.82,-2.598 -2.56,-0.812 -5.45,-1.223 -8.69,-1.223 -6.04,0 -11.02,1.911 -14.96,5.743 -3.94,3.82 -6.03,10.941 -6.26,21.371 -6.25,-9.032 -14.6,-16.172 -25.03,-21.371 -10.42,-5.211 -22.14,-7.821 -35.11,-7.821 -18.08,0 -32.11,4.34 -42.07,13.02 -9.97,8.699 -14.95,20.23 -14.95,34.601 0,19.469 9.22,33.61 27.63,42.43 18.43,8.801 46.65,13.539 84.67,14.25 l 4.52,0 0,3.469" />
        <path
           inkscape:connector-curvature="0"
           id="path4340"
           style="fill:#3b3b3c;fill-opacity:1;fill-rule:nonzero;stroke:none"
           d="m 4952.76,641.961 c -5.34,0 -9.16,1.09 -11.48,3.301 -2.31,2.199 -3.47,5.379 -3.47,9.558 l 0,2.442 c 0,4.168 1.16,7.347 3.47,9.558 2.32,2.2 6.14,3.289 11.48,3.289 l 12.17,0 0,25.743 c 0,6.019 1.38,10.257 4.17,12.679 2.78,2.449 6.49,3.66 11.12,3.66 l 3.48,0 c 4.64,0 8.29,-1.101 10.95,-3.3 2.66,-2.211 4,-6.551 4,-13.039 l 0,-25.743 37.9,0 c 5.33,0 9.1,-1.039 11.3,-3.129 2.2,-2.07 3.3,-5.199 3.3,-9.371 l 0,-2.437 c 0,-4.41 -1.16,-7.711 -3.48,-9.91 -2.32,-2.211 -6.14,-3.301 -11.47,-3.301 l -37.89,0 0,-84.481 c 0,-10.429 1.67,-18.21 5.04,-23.308 3.35,-5.102 9.09,-7.641 17.2,-7.641 5.34,0 9.97,1.098 13.91,3.301 3.94,2.199 7.19,5.047 9.74,8.52 0.23,0.23 0.87,0.109 1.91,-0.34 1.04,-0.473 2.14,-1.282 3.31,-2.442 1.15,-1.16 2.19,-2.73 3.13,-4.699 0.91,-1.973 1.38,-4.34 1.38,-7.121 0,-6.488 -3.36,-12.352 -10.08,-17.559 -6.73,-5.222 -16.34,-7.832 -28.86,-7.832 -17.38,0 -30.07,4.7 -38.06,14.09 -8.01,9.391 -12,23.121 -12,41.192 l 0,88.32 -12.17,0" />
        <path
           inkscape:connector-curvature="0"
           id="path4342"
           style="fill:#3b3b3c;fill-opacity:1;fill-rule:nonzero;stroke:none"
           d="m 5204.13,523.75 c 7.41,0 14.31,1.102 20.68,3.301 6.38,2.211 11.83,5.34 16.34,9.39 4.52,4.039 8.06,8.868 10.62,14.43 2.54,5.57 3.81,11.59 3.81,18.07 l 0,12.868 -9.39,-0.348 c -24.57,-0.93 -42.99,-3.891 -55.27,-8.871 -12.29,-4.981 -18.43,-13.16 -18.43,-24.5 0,-7.418 2.78,-13.328 8.34,-17.738 5.56,-4.411 13.33,-6.602 23.3,-6.602 z m 51.45,83.09 c 0,12.75 -3.53,22.48 -10.6,29.211 -7.07,6.719 -17.33,10.078 -30.77,10.078 -12.75,0 -22.94,-2.84 -30.59,-8.508 -7.65,-5.691 -13.45,-12.351 -17.39,-19.992 -4.41,0.211 -7.94,0.851 -10.6,1.902 -2.67,1.039 -5.11,2.719 -7.3,5.051 -2.21,2.297 -3.31,5.566 -3.31,9.719 0,3.937 1.51,8.301 4.52,13.051 3.01,4.738 7.53,9.097 13.56,13.039 6.03,3.937 13.5,7.23 22.43,9.91 8.92,2.66 19.29,3.988 31.11,3.988 23.87,0 42.02,-5.789 54.42,-17.391 12.39,-11.589 18.6,-28.027 18.6,-49.347 l 0,-102.582 c 0,-0.918 -1.28,-1.797 -3.83,-2.598 -2.55,-0.812 -5.45,-1.223 -8.69,-1.223 -6.03,0 -11.01,1.911 -14.95,5.743 -3.95,3.82 -6.03,10.941 -6.26,21.371 -6.25,-9.032 -14.6,-16.172 -25.03,-21.371 -10.43,-5.211 -22.14,-7.821 -35.12,-7.821 -18.08,0 -32.11,4.34 -42.07,13.02 -9.96,8.699 -14.94,20.23 -14.94,34.601 0,19.469 9.21,33.61 27.63,42.43 18.43,8.801 46.65,13.539 84.67,14.25 l 4.51,0 0,3.469" />
        <path
           inkscape:connector-curvature="0"
           id="path4344"
           style="fill:#3b3b3c;fill-opacity:1;fill-rule:nonzero;stroke:none"
           d="m 5602.9,498.359 c -13.43,0 -25.42,1.461 -35.97,4.36 -10.55,2.89 -19.42,6.601 -26.6,11.121 -7.19,4.512 -12.63,9.39 -16.34,14.609 -3.71,5.199 -5.56,10.133 -5.56,14.781 0,2.989 0.8,5.719 2.43,8.161 1.62,2.441 3.42,4.519 5.39,6.257 1.97,1.731 3.82,3.063 5.56,4 1.74,0.911 2.73,1.153 2.96,0.692 6.48,-9.508 15.52,-17.621 27.12,-24.328 11.58,-6.731 25.15,-10.082 40.67,-10.082 15.75,0 27.87,3.058 36.35,9.199 8.45,6.152 12.69,14.781 12.69,25.902 0,6.258 -1.51,11.481 -4.54,15.649 -3,4.179 -7.11,7.64 -12.32,10.441 -5.22,2.77 -11.24,5.078 -18.08,6.949 -6.86,1.852 -13.96,3.578 -21.4,5.211 -8.58,2.09 -17.15,4.52 -25.73,7.309 -8.57,2.781 -16.16,6.601 -22.76,11.461 -6.61,4.879 -12,11.07 -16.18,18.609 -4.16,7.52 -6.25,16.969 -6.25,28.32 0,9.508 1.96,18.258 5.91,26.258 3.94,7.992 9.5,14.891 16.68,20.703 7.19,5.789 15.7,10.297 25.56,13.539 9.85,3.25 20.82,4.879 32.87,4.879 12.52,0 23.56,-1.339 33.18,-4 9.63,-2.679 17.67,-5.968 24.17,-9.91 6.49,-3.937 11.41,-8.23 14.77,-12.859 3.37,-4.641 5.05,-9.039 5.05,-13.211 0,-3.25 -0.81,-6.141 -2.42,-8.699 -1.65,-2.559 -3.5,-4.7 -5.59,-6.43 -2.09,-1.73 -3.97,-3.012 -5.72,-3.82 -1.75,-0.821 -2.73,-1.11 -2.96,-0.879 -6.03,8.57 -14.24,15.769 -24.67,21.558 -10.44,5.789 -22.25,8.692 -35.48,8.692 -14.13,0 -25.44,-3.121 -33.89,-9.379 -8.47,-6.262 -12.69,-14.602 -12.69,-25.043 0,-6.258 1.33,-11.289 4,-15.129 2.66,-3.82 6.31,-6.949 10.94,-9.371 4.64,-2.438 10.2,-4.481 16.7,-6.09 6.49,-1.617 13.66,-3.367 21.54,-5.219 9.52,-2.09 18.78,-4.75 27.83,-7.988 9.02,-3.25 17.03,-7.434 24,-12.523 6.93,-5.098 12.56,-11.411 16.86,-18.95 4.28,-7.531 6.43,-16.75 6.43,-27.64 0,-20.86 -7.47,-37.258 -22.45,-49.199 -14.94,-11.942 -35.61,-17.911 -62.06,-17.911" />
        <path
           inkscape:connector-curvature="0"
           id="path4346"
           style="fill:#3b3b3c;fill-opacity:1;fill-rule:nonzero;stroke:none"
           d="m 5867.5,498.359 c -12.52,0 -24.12,2.2 -34.77,6.61 -10.67,4.402 -19.88,10.492 -27.63,18.261 -7.78,7.758 -13.8,17.079 -18.09,27.989 -4.3,10.89 -6.43,22.703 -6.43,35.461 0,12.742 2.2,24.449 6.61,35.121 4.39,10.648 10.42,19.871 18.07,27.629 7.64,7.761 16.8,13.851 27.47,18.261 10.65,4.391 22.25,6.598 34.77,6.598 12.52,0 23.24,-1.68 32.16,-5.027 8.92,-3.371 16.34,-7.434 22.24,-12.172 5.93,-4.758 10.27,-9.801 13.05,-15.129 2.77,-5.332 4.17,-9.961 4.17,-13.902 0,-3.477 -1.04,-6.329 -3.13,-8.528 -2.09,-2.211 -4.34,-3.871 -6.78,-5.031 -2.42,-1.168 -4.75,-1.871 -6.95,-2.09 -2.21,-0.238 -3.42,-0.121 -3.65,0.352 -3.94,9.258 -9.73,17.027 -17.39,23.289 -7.64,6.258 -18.66,9.39 -33.03,9.39 -7.88,0 -15.18,-1.461 -21.9,-4.351 -6.73,-2.899 -12.52,-6.961 -17.38,-12.168 -4.86,-5.223 -8.7,-11.41 -11.48,-18.602 -2.78,-7.179 -4.17,-15.082 -4.17,-23.64 0,-8.59 1.39,-16.508 4.17,-23.821 2.78,-7.3 6.62,-13.558 11.48,-18.777 4.86,-5.211 10.65,-9.32 17.38,-12.332 6.72,-3.012 14.02,-4.531 21.9,-4.531 14.13,0 25.09,3.133 32.86,9.39 7.76,6.262 13.62,14.02 17.56,23.289 0.23,0.473 1.44,0.582 3.65,0.364 2.2,-0.242 4.53,-0.883 6.95,-1.922 2.44,-1.051 4.69,-2.731 6.78,-5.031 2.09,-2.329 3.13,-5.34 3.13,-9.039 0,-3.719 -1.4,-8.25 -4.17,-13.571 -2.78,-5.328 -7.12,-10.379 -13.05,-15.121 -5.9,-4.746 -13.37,-8.816 -22.41,-12.168 -9.04,-3.371 -19.71,-5.051 -31.99,-5.051" />
        <path
           inkscape:connector-curvature="0"
           id="path4348"
           style="fill:#3b3b3c;fill-opacity:1;fill-rule:nonzero;stroke:none"
           d="m 6045.33,504.969 c -2.9,2.312 -4.34,6.601 -4.34,12.863 l 0,137.34 c 0,6.258 1.44,10.598 4.34,13.039 2.89,2.43 6.66,3.648 11.31,3.648 l 3.46,0 c 4.65,0 8.35,-1.16 11.13,-3.48 2.79,-2.32 4.17,-6.731 4.17,-13.207 l 0,-137.34 c 0,-6.262 -1.38,-10.551 -4.17,-12.863 -2.78,-2.321 -6.48,-3.481 -11.13,-3.481 l -3.46,0 c -4.65,0 -8.42,1.16 -11.31,3.481 z m 13.04,200.961 c -6.5,0 -11.53,1.679 -15.13,5.05 -3.6,3.34 -5.38,8.04 -5.38,14.079 0,6.261 1.78,11.062 5.38,14.421 3.6,3.372 8.75,5.051 15.48,5.051 13.43,0 20.16,-6.492 20.16,-19.472 0,-12.758 -6.85,-19.129 -20.51,-19.129" />
        <path
           inkscape:connector-curvature="0"
           id="path4350"
           style="fill:#3b3b3c;fill-opacity:1;fill-rule:nonzero;stroke:none"
           d="m 6311.49,600.578 c -0.94,14.613 -5.57,26.203 -13.92,34.774 -8.34,8.578 -19.47,12.867 -33.37,12.867 -6.95,0 -13.39,-1.16 -19.3,-3.481 -5.91,-2.328 -11.17,-5.617 -15.82,-9.918 -4.64,-4.289 -8.46,-9.32 -11.48,-15.109 -3.01,-5.801 -5.1,-12.16 -6.26,-19.133 l 100.15,0 z m -94.58,-44.328 c 3.02,-6.379 6.95,-11.809 11.82,-16.34 4.88,-4.512 10.67,-8.039 17.38,-10.601 6.73,-2.559 14.04,-3.821 21.91,-3.821 7.42,0 13.9,0.742 19.47,2.25 5.57,1.524 10.44,3.543 14.61,6.102 4.18,2.539 7.76,5.5 10.77,8.859 3.01,3.352 5.57,6.891 7.66,10.61 0.22,0.211 1.26,0.101 3.13,-0.36 1.85,-0.469 3.87,-1.277 6.07,-2.437 2.21,-1.16 4.23,-2.891 6.1,-5.203 1.85,-2.321 2.77,-5.329 2.77,-9.047 0,-3.703 -1.56,-7.762 -4.69,-12.172 -3.13,-4.41 -7.78,-8.512 -13.9,-12.328 -6.15,-3.821 -13.63,-7.024 -22.44,-9.563 -8.8,-2.558 -18.89,-3.84 -30.24,-3.84 -13.21,0 -25.27,2.09 -36.16,6.262 -10.89,4.168 -20.16,10.078 -27.82,17.738 -7.64,7.641 -13.61,16.86 -17.91,27.629 -4.29,10.793 -6.42,22.672 -6.42,35.641 0,12.742 2.13,24.519 6.42,35.293 4.3,10.789 10.27,20.109 17.91,27.988 7.66,7.879 16.69,14.09 27.13,18.602 10.43,4.519 21.77,6.777 34.06,6.777 12.05,0 23,-2.019 32.87,-6.078 9.84,-4.051 18.31,-9.789 25.37,-17.211 7.07,-7.418 12.52,-16.289 16.34,-26.59 3.82,-10.32 5.74,-21.75 5.74,-34.25 l 0,-2.789 c 0,-3.699 -0.75,-6.312 -2.25,-7.812 -1.52,-1.52 -4.24,-2.27 -8.18,-2.27 l -123.09,0 c 0.71,-7.641 2.56,-14.66 5.57,-21.039" />
        <path
           inkscape:connector-curvature="0"
           id="path4352"
           style="fill:#3b3b3c;fill-opacity:1;fill-rule:nonzero;stroke:none"
           d="m 6480.45,644.738 c 5.79,8.821 13.33,15.934 22.6,21.391 9.28,5.43 20.28,8.16 33.04,8.16 11.12,0 20.73,-1.801 28.84,-5.391 8.12,-3.597 14.85,-8.578 20.18,-14.937 5.32,-6.379 9.26,-13.922 11.82,-22.602 2.54,-8.699 3.82,-18.257 3.82,-28.699 l 0,-84.828 c 0,-6.262 -1.45,-10.551 -4.35,-12.863 -2.89,-2.321 -6.54,-3.481 -10.95,-3.481 l -3.82,0 c -4.65,0 -8.35,1.16 -11.13,3.481 -2.77,2.312 -4.17,6.601 -4.17,12.863 l 0,80.656 c 0,14.141 -3.37,25.282 -10.08,33.391 -6.73,8.109 -16.22,12.172 -28.51,12.172 -11.12,0 -20.7,-2.68 -28.69,-8 -7.99,-5.332 -14.07,-12.403 -18.24,-21.219 l 0,-97 c 0,-6.262 -1.47,-10.551 -4.36,-12.863 -2.9,-2.321 -6.55,-3.481 -10.94,-3.481 l -3.84,0 c -4.63,0 -8.35,1.16 -11.12,3.481 -2.78,2.312 -4.18,6.601 -4.18,12.863 l 0,150.199 c 0,0.469 1.23,1.231 3.66,2.27 2.44,1.039 5.38,1.558 8.87,1.558 5.09,0 9.84,-1.8 14.25,-5.398 4.41,-3.582 6.83,-10.832 7.3,-21.723" />
        <path
           inkscape:connector-curvature="0"
           id="path4354"
           style="fill:#3b3b3c;fill-opacity:1;fill-rule:nonzero;stroke:none"
           d="m 6787.8,498.359 c -12.52,0 -24.12,2.2 -34.77,6.61 -10.67,4.402 -19.88,10.492 -27.63,18.261 -7.78,7.758 -13.8,17.079 -18.09,27.989 -4.3,10.89 -6.43,22.703 -6.43,35.461 0,12.742 2.2,24.449 6.61,35.121 4.39,10.648 10.42,19.871 18.07,27.629 7.64,7.761 16.8,13.851 27.47,18.261 10.65,4.391 22.25,6.598 34.77,6.598 12.52,0 23.24,-1.68 32.16,-5.027 8.92,-3.371 16.34,-7.434 22.25,-12.172 5.92,-4.758 10.26,-9.801 13.04,-15.129 2.77,-5.332 4.17,-9.961 4.17,-13.902 0,-3.477 -1.04,-6.329 -3.13,-8.528 -2.09,-2.211 -4.34,-3.871 -6.78,-5.031 -2.42,-1.168 -4.75,-1.871 -6.95,-2.09 -2.21,-0.238 -3.42,-0.121 -3.65,0.352 -3.94,9.258 -9.73,17.027 -17.39,23.289 -7.64,6.258 -18.66,9.39 -33.03,9.39 -7.88,0 -15.18,-1.461 -21.9,-4.351 -6.73,-2.899 -12.52,-6.961 -17.38,-12.168 -4.86,-5.223 -8.7,-11.41 -11.48,-18.602 -2.78,-7.179 -4.17,-15.082 -4.17,-23.64 0,-8.59 1.39,-16.508 4.17,-23.821 2.78,-7.3 6.62,-13.558 11.48,-18.777 4.86,-5.211 10.65,-9.32 17.38,-12.332 6.72,-3.012 14.02,-4.531 21.9,-4.531 14.13,0 25.09,3.133 32.86,9.39 7.76,6.262 13.62,14.02 17.56,23.289 0.23,0.473 1.44,0.582 3.65,0.364 2.2,-0.242 4.53,-0.883 6.95,-1.922 2.44,-1.051 4.69,-2.731 6.78,-5.031 2.09,-2.329 3.13,-5.34 3.13,-9.039 0,-3.719 -1.4,-8.25 -4.17,-13.571 -2.78,-5.328 -7.12,-10.379 -13.04,-15.121 -5.91,-4.746 -13.38,-8.816 -22.42,-12.168 -9.04,-3.371 -19.71,-5.051 -31.99,-5.051" />
        <path
           inkscape:connector-curvature="0"
           id="path4356"
           style="fill:#3b3b3c;fill-opacity:1;fill-rule:nonzero;stroke:none"
           d="m 7082.28,600.578 c -0.94,14.613 -5.57,26.203 -13.91,34.774 -8.35,8.578 -19.47,12.867 -33.37,12.867 -6.95,0 -13.4,-1.16 -19.31,-3.481 -5.9,-2.328 -11.17,-5.617 -15.82,-9.918 -4.64,-4.289 -8.46,-9.32 -11.47,-15.109 -3.02,-5.801 -5.1,-12.16 -6.26,-19.133 l 100.14,0 z m -94.57,-44.328 c 3.01,-6.379 6.95,-11.809 11.81,-16.34 4.88,-4.512 10.67,-8.039 17.38,-10.601 6.74,-2.559 14.04,-3.821 21.92,-3.821 7.42,0 13.9,0.742 19.47,2.25 5.57,1.524 10.43,3.543 14.6,6.102 4.18,2.539 7.76,5.5 10.77,8.859 3.02,3.352 5.58,6.891 7.66,10.61 0.22,0.211 1.26,0.101 3.13,-0.36 1.85,-0.469 3.87,-1.277 6.08,-2.437 2.2,-1.16 4.22,-2.891 6.09,-5.203 1.85,-2.321 2.78,-5.329 2.78,-9.047 0,-3.703 -1.57,-7.762 -4.7,-12.172 -3.13,-4.41 -7.77,-8.512 -13.9,-12.328 -6.14,-3.821 -13.63,-7.024 -22.43,-9.563 -8.8,-2.558 -18.9,-3.84 -30.24,-3.84 -13.21,0 -25.28,2.09 -36.17,6.262 -10.89,4.168 -20.16,10.078 -27.82,17.738 -7.64,7.641 -13.61,16.86 -17.9,27.629 -4.29,10.793 -6.43,22.672 -6.43,35.641 0,12.742 2.14,24.519 6.43,35.293 4.29,10.789 10.26,20.109 17.9,27.988 7.66,7.879 16.7,14.09 27.13,18.602 10.43,4.519 21.78,6.777 34.06,6.777 12.05,0 23.01,-2.019 32.87,-6.078 9.84,-4.051 18.31,-9.789 25.38,-17.211 7.07,-7.418 12.52,-16.289 16.34,-26.59 3.82,-10.32 5.74,-21.75 5.74,-34.25 l 0,-2.789 c 0,-3.699 -0.76,-6.312 -2.26,-7.812 -1.51,-1.52 -4.24,-2.27 -8.18,-2.27 l -123.08,0 c 0.7,-7.641 2.55,-14.66 5.57,-21.039" />
        <path
           inkscape:connector-curvature="0"
           id="path4358"
           style="fill:#3b3b3c;fill-opacity:1;fill-rule:nonzero;stroke:none"
           d="m 2507.68,964.43 30.73,0 c 112.96,0 160.31,38.21 160.31,141.2 0,102.17 -47.35,140.38 -160.31,140.38 l -30.73,0 0,-281.58 z m -134.56,390.39 165.29,0 c 228.42,0 295.7,-111.3 295.7,-249.19 0,-137.868 -67.28,-249.169 -295.7,-249.169 -15.78,0 -165.29,0 -165.29,0 l 0,498.359" />
        <path
           inkscape:connector-curvature="0"
           id="path4360"
           style="fill:#3b3b3c;fill-opacity:1;fill-rule:nonzero;stroke:none"
           d="m 3123.95,1247.67 0,-103 99.67,0 c 44.86,0 68.11,20.77 68.11,51.5 0,31.56 -23.25,51.5 -68.11,51.5 l -99.67,0 z m 282.41,-267.451 c 10.79,-23.258 18.27,-38.207 44.02,-38.207 8.31,0 18.27,1.66 26.58,4.976 l 0,-80.566 c -18.27,-7.473 -49.84,-18.274 -90.54,-18.274 -39.87,0 -75.58,16.614 -90.53,48.184 -35.72,75.578 -29.07,144.518 -125.42,144.518 -22.43,0 -39.04,-4.15 -46.52,-6.64 l 0,-177.749 -134.56,0 0,498.359 236.73,0 c 132.06,0 198.51,-72.26 198.51,-156.16 0,-50.67 -23.26,-98.01 -70.6,-127.91 20.76,-24.09 36.54,-54.82 52.33,-90.531" />
        <path
           inkscape:connector-curvature="0"
           id="path4362"
           style="fill:#3b3b3c;fill-opacity:1;fill-rule:nonzero;stroke:none"
           d="m 3900.53,1047.49 -63.95,166.12 -63.96,-166.12 127.91,0 z m -155.26,-72.068 -45.74,-118.961 -134.56,0 193.53,498.359 156.15,0 193.53,-498.359 -134.56,0 -32.39,84.719 -175.37,0 -20.59,34.242" />
        <path
           inkscape:connector-curvature="0"
           id="path4364"
           style="fill:#3b3b3c;fill-opacity:1;fill-rule:nonzero;stroke:none"
           d="m 4198.69,1105.63 c 0,152.84 73.09,257.49 250.84,257.49 83.05,0 132.06,-16.61 172.76,-29.07 l 0,-118.77 c -34.05,13.28 -89.71,31.56 -159.47,31.56 -88.88,0 -129.58,-50.67 -129.58,-141.21 0,-92.19 24.09,-144.521 130.41,-144.521 19.93,0 39.87,3.321 52.32,8.313 l 0,59.798 -73.09,0 0,104.65 207.65,0 0,-254.159 c -59.8,0 -128.74,-31.563 -212.63,-31.563 -178.58,0 -239.21,103.832 -239.21,257.482" />
        <path
           inkscape:connector-curvature="0"
           id="path4366"
           style="fill:#3b3b3c;fill-opacity:1;fill-rule:nonzero;stroke:none"
           d="m 5038.39,1254.31 c -78.08,0 -98.01,-57.31 -98.01,-148.68 0,-92.19 19.93,-149.501 98.01,-149.501 78.07,0 98.01,57.311 98.01,149.501 0,91.37 -19.94,148.68 -98.01,148.68 z m 0,-406.162 c -171.93,0 -232.57,104.661 -232.57,257.482 0,152.84 60.64,257.49 232.57,257.49 171.94,0 232.57,-104.65 232.57,-257.49 0,-152.821 -60.63,-257.482 -232.57,-257.482" />
        <path
           inkscape:connector-curvature="0"
           id="path4368"
           style="fill:#3b3b3c;fill-opacity:1;fill-rule:nonzero;stroke:none"
           d="m 5550.84,856.461 -124.59,0 0,498.359 122.93,0 191.03,-280.75 0,280.75 124.6,0 0,-498.359 -122.93,0 -191.04,280.739 0,-280.739" />
        <path
           inkscape:connector-curvature="0"
           id="path4370"
           style="fill:#3b3b3c;fill-opacity:1;fill-rule:nonzero;stroke:none"
           d="m 6192.03,856.461 -134.55,0 0,498.359 345.52,0 0,-112.97 -210.97,0 0,-81.4 199.35,0 0,-112.96 -199.35,0 0,-191.029" />
        <path
           inkscape:connector-curvature="0"
           id="path4372"
           style="fill:#3b3b3c;fill-opacity:1;fill-rule:nonzero;stroke:none"
           d="m 6925.42,969.422 0,-112.961 -345.52,0 0,498.359 134.56,0 0,-385.398 210.96,0" />
        <path
           inkscape:connector-curvature="0"
           id="path4374"
           style="fill:#3b3b3c;fill-opacity:1;fill-rule:nonzero;stroke:none"
           d="m 7334.05,1354.82 -108.54,-213.73 -108.55,213.73 -145.36,0 165.17,-325.21 32.12,0 -87.95,-173.149 145.36,0 253.11,498.359 -145.36,0" />
        <path
           inkscape:connector-curvature="0"
           id="path4376"
           style="fill:#4299c9;fill-opacity:1;fill-rule:nonzero;stroke:none"
           d="m 1708.4,1487.39 c -6.52,4.68 -17.85,5.83 -25.17,2.55 L 570.086,991.09 c -7.324,-3.289 -10.547,-11.93 -7.16,-19.199 L 610.492,869.68 c 3.387,-7.27 12.723,-13.231 20.746,-13.231 l 1145.112,0.039 c 8.02,0 18.47,5.293 23.22,11.774 l 257.27,350.978 c 4.74,6.47 3.29,15.6 -3.23,20.28 l -345.21,247.87" />
        <path
           inkscape:connector-curvature="0"
           id="path4378"
           style="fill:#4299c9;fill-opacity:1;fill-rule:nonzero;stroke:none"
           d="m 1322.78,1912.57 c -7.98,0.83 -19.18,-3.1 -24.89,-8.75 L 503.945,1118.57 c -5.707,-5.65 -7.304,-16.07 -3.554,-23.16 l 35.429,-67.03 c 3.75,-7.09 12.809,-10.21 20.133,-6.93 l 1066.937,478.52 c 7.33,3.28 14.06,12.49 14.96,20.47 l 38.67,340.54 c 0.91,7.97 -4.88,15.18 -12.87,16.01 l -340.87,35.58" />
      </g>
    </g>
    <rect
       style="opacity:0.5;fill:none;fill-opacity:1;fill-rule:evenodd;stroke:#000000;stroke-width:1;stroke-miterlimit:4;stroke-dasharray:2, 1;stroke-dashoffset:0;stroke-opacity:1"
       id="rect4404"
       width="411.63718"
       height="296.98489"
       x="129.8046"
       y="610.42047" />
    <text
       xml:space="preserve"
       style="font-style:normal;font-variant:normal;font-weight:normal;font-stretch:normal;font-size:10.25px;line-height:125%;font-family:'Omnes Semibold';-inkscape-font-specification:'Omnes Semibold, Normal';text-align:start;letter-spacing:0px;word-spacing:0px;writing-mode:lr-tb;text-anchor:start;fill:#000000;fill-opacity:1;stroke:none;stroke-width:1px;stroke-linecap:butt;stroke-linejoin:miter;stroke-opacity:1"
       x="138.89598"
       y="627.59308"
       id="text4406"
       sodipodi:linespacing="125%"><tspan
         sodipodi:role="line"
         id="tspan4408"
         x="138.89598"
         y="627.59308">Client side application</tspan></text>
    <text
       xml:space="preserve"
       style="font-style:normal;font-variant:normal;font-weight:normal;font-stretch:normal;font-size:10.25px;line-height:125%;font-family:'Omnes Semibold';-inkscape-font-specification:'Omnes Semibold, Normal';text-align:start;letter-spacing:0px;word-spacing:0px;writing-mode:lr-tb;text-anchor:start;fill:#000000;fill-opacity:1;stroke:none;stroke-width:1px;stroke-linecap:butt;stroke-linejoin:miter;stroke-opacity:1"
       x="205.56604"
       y="697.29358"
       id="text4410"
       sodipodi:linespacing="125%"><tspan
         sodipodi:role="line"
         id="tspan4412"
         x="205.56604"
         y="697.29358">URL State</tspan></text>
    <text
       xml:space="preserve"
       style="font-style:normal;font-variant:normal;font-weight:normal;font-stretch:normal;font-size:10.25px;line-height:125%;font-family:'Omnes Semibold';-inkscape-font-specification:'Omnes Semibold, Normal';text-align:start;letter-spacing:0px;word-spacing:0px;writing-mode:lr-tb;text-anchor:start;fill:#000000;fill-opacity:1;stroke:none;stroke-width:1px;stroke-linecap:butt;stroke-linejoin:miter;stroke-opacity:1"
       x="307.08636"
       y="695.27325"
       id="text4414"
       sodipodi:linespacing="125%"><tspan
         sodipodi:role="line"
         id="tspan4416"
         x="307.08636"
         y="695.27325">Data Store</tspan></text>
    <text
       xml:space="preserve"
       style="font-style:normal;font-variant:normal;font-weight:normal;font-stretch:normal;font-size:10.25px;line-height:125%;font-family:'Omnes Semibold';-inkscape-font-specification:'Omnes Semibold, Normal';text-align:start;letter-spacing:0px;word-spacing:0px;writing-mode:lr-tb;text-anchor:start;fill:#000000;fill-opacity:1;stroke:none;stroke-width:1px;stroke-linecap:butt;stroke-linejoin:miter;stroke-opacity:1"
       x="346.48233"
       y="752.34686"
       id="text4418"
       sodipodi:linespacing="125%"><tspan
         sodipodi:role="line"
         id="tspan4420"
         x="346.48233"
         y="752.34686">DOM</tspan></text>
  </g>
</svg>
